<svg width="50" height="50" viewBox="0 0 50 50" fill="none" xmlns="http://www.w3.org/2000/svg">
<rect x="1.875" y="1.875" width="46.25" height="46.25" rx="8.125" fill="#1565C0"/>
<rect x="1.875" y="1.875" width="46.25" height="46.25" rx="8.125" stroke="url(#paint0_linear_101_474)" stroke-width="3.75"/>
<path d="M21.0841 22.6244L25.8414 17.8671C26.2131 17.4953 26.4062 17.0412 26.4062 16.5217C26.4062 16.0022 26.2131 15.548 25.8414 15.1763L25.836 15.1709L25.8304 15.1658C25.4567 14.8232 25.006 14.65 24.496 14.65C23.9857 14.65 23.5415 14.8238 23.1891 15.1763L23.4342 15.4214L23.1891 15.1763L15.1763 23.1891C14.9907 23.3747 14.8506 23.5847 14.7667 23.8197C14.688 24.0401 14.65 24.2728 14.65 24.5153C14.65 24.7578 14.688 24.9905 14.7667 25.2108C14.8506 25.4459 14.9907 25.6559 15.1763 25.8414L23.6514 34.3165C24.0233 34.6884 24.4746 34.8779 24.9885 34.8619C25.4847 34.8464 25.9239 34.6651 26.2927 34.327L26.2983 34.3219L26.3037 34.3165C26.6707 33.9495 26.8717 33.5069 26.8875 33.0013C26.9036 32.4875 26.7141 32.0361 26.3422 31.6642L21.0841 26.4062H33.9591C34.4838 26.4062 34.9402 26.2249 35.3045 25.8607C35.6687 25.4965 35.85 25.04 35.85 24.5153C35.85 23.9905 35.6687 23.5341 35.3045 23.1699C34.9402 22.8057 34.4838 22.6244 33.9591 22.6244H21.0841Z" fill="white" stroke="white" stroke-width="0.7"/>
<defs>
<linearGradient id="paint0_linear_101_474" x1="58.9749" y1="10" x2="20.1853" y2="34.8833" gradientUnits="userSpaceOnUse">
<stop stop-color="#1E88E5"/>
<stop offset="0.948" stop-color="#0D47A1"/>
</linearGradient>
</defs>
</svg>
