<svg width="347" height="150" viewBox="0 0 347 150" fill="none" xmlns="http://www.w3.org/2000/svg">
<rect x="-4.6875" y="4.6875" width="337.625" height="140.625" rx="20.3125" transform="matrix(-1 0 0 1 337.625 0)" fill="url(#paint0_linear_430_21552)"/>
<rect x="-4.6875" y="4.6875" width="337.625" height="140.625" rx="20.3125" transform="matrix(-1 0 0 1 337.625 0)" stroke="url(#paint1_linear_430_21552)" stroke-width="9.375"/>
<path d="M148.861 85.125C149.561 85.325 150.461 85.475 151.561 85.575C152.661 85.625 153.711 85.65 154.711 85.65C156.711 85.65 158.361 85.25 159.661 84.45C161.011 83.6 161.686 82.3 161.686 80.55C161.686 78.9 161.136 77.725 160.036 77.025C158.936 76.325 157.261 75.975 155.011 75.975H148.861V85.125ZM148.861 66.825H154.336C156.486 66.825 158.036 66.425 158.986 65.625C159.986 64.825 160.486 63.65 160.486 62.1C160.486 60.75 159.911 59.675 158.761 58.875C157.661 58.075 155.986 57.675 153.736 57.675C152.986 57.675 152.111 57.7 151.111 57.75C150.161 57.8 149.411 57.875 148.861 57.975V66.825ZM153.736 95.7C152.886 95.7 151.886 95.675 150.736 95.625C149.586 95.575 148.386 95.475 147.136 95.325C145.936 95.175 144.736 94.975 143.536 94.725C142.336 94.525 141.236 94.225 140.236 93.825C137.486 92.775 136.111 90.95 136.111 88.35V53.325C136.111 52.275 136.386 51.475 136.936 50.925C137.536 50.325 138.336 49.85 139.336 49.5C141.036 48.9 143.161 48.475 145.711 48.225C148.261 47.925 150.886 47.775 153.586 47.775C159.986 47.775 164.911 48.85 168.361 51C171.811 53.15 173.536 56.475 173.536 60.975C173.536 63.225 172.886 65.175 171.586 66.825C170.286 68.425 168.536 69.6 166.336 70.35C168.836 71.05 170.911 72.325 172.561 74.175C174.261 76.025 175.111 78.35 175.111 81.15C175.111 86.1 173.261 89.775 169.561 92.175C165.911 94.525 160.636 95.7 153.736 95.7ZM197.172 86.4C198.022 86.4 198.947 86.325 199.947 86.175C200.997 85.975 201.772 85.725 202.272 85.425V79.425L196.872 79.875C195.472 79.975 194.322 80.275 193.422 80.775C192.522 81.275 192.072 82.025 192.072 83.025C192.072 84.025 192.447 84.85 193.197 85.5C193.997 86.1 195.322 86.4 197.172 86.4ZM196.572 56.925C199.272 56.925 201.722 57.2 203.922 57.75C206.172 58.3 208.072 59.15 209.622 60.3C211.222 61.4 212.447 62.825 213.297 64.575C214.147 66.275 214.572 68.3 214.572 70.65V87.45C214.572 88.75 214.197 89.825 213.447 90.675C212.747 91.475 211.897 92.175 210.897 92.775C207.647 94.725 203.072 95.7 197.172 95.7C194.522 95.7 192.122 95.45 189.972 94.95C187.872 94.45 186.047 93.7 184.497 92.7C182.997 91.7 181.822 90.425 180.972 88.875C180.172 87.325 179.772 85.525 179.772 83.475C179.772 80.025 180.797 77.375 182.847 75.525C184.897 73.675 188.072 72.525 192.372 72.075L202.197 71.025V70.5C202.197 69.05 201.547 68.025 200.247 67.425C198.997 66.775 197.172 66.45 194.772 66.45C192.872 66.45 191.022 66.65 189.222 67.05C187.422 67.45 185.797 67.95 184.347 68.55C183.697 68.1 183.147 67.425 182.697 66.525C182.247 65.575 182.022 64.6 182.022 63.6C182.022 62.3 182.322 61.275 182.922 60.525C183.572 59.725 184.547 59.05 185.847 58.5C187.297 57.95 188.997 57.55 190.947 57.3C192.947 57.05 194.822 56.925 196.572 56.925ZM242.918 66.975C241.668 66.975 240.468 67.175 239.318 67.575C238.218 67.975 237.243 68.575 236.393 69.375C235.593 70.125 234.943 71.075 234.443 72.225C233.943 73.375 233.693 74.725 233.693 76.275C233.693 79.375 234.568 81.7 236.318 83.25C238.118 84.8 240.293 85.575 242.843 85.575C244.343 85.575 245.643 85.4 246.743 85.05C247.843 84.7 248.818 84.325 249.668 83.925C250.668 84.625 251.418 85.4 251.918 86.25C252.418 87.05 252.668 88.025 252.668 89.175C252.668 91.225 251.693 92.825 249.743 93.975C247.793 95.075 245.093 95.625 241.643 95.625C238.493 95.625 235.643 95.175 233.093 94.275C230.543 93.325 228.343 92.025 226.493 90.375C224.693 88.675 223.293 86.65 222.293 84.3C221.293 81.95 220.793 79.35 220.793 76.5C220.793 73.2 221.318 70.325 222.368 67.875C223.468 65.375 224.943 63.325 226.793 61.725C228.643 60.125 230.768 58.925 233.168 58.125C235.618 57.325 238.193 56.925 240.893 56.925C244.493 56.925 247.268 57.575 249.218 58.875C251.168 60.175 252.143 61.85 252.143 63.9C252.143 64.85 251.918 65.75 251.468 66.6C251.018 67.4 250.493 68.1 249.893 68.7C249.043 68.3 248.018 67.925 246.818 67.575C245.618 67.175 244.318 66.975 242.918 66.975ZM294.687 87.9C294.437 90.25 293.737 92.05 292.587 93.3C291.487 94.55 289.862 95.175 287.712 95.175C286.112 95.175 284.687 94.8 283.437 94.05C282.187 93.25 280.837 91.925 279.387 90.075L271.962 80.775V94.425C271.412 94.525 270.587 94.65 269.487 94.8C268.437 95 267.362 95.1 266.262 95.1C265.162 95.1 264.162 95.025 263.262 94.875C262.412 94.725 261.687 94.425 261.087 93.975C260.487 93.525 260.012 92.925 259.662 92.175C259.362 91.375 259.212 90.35 259.212 89.1V45.675C259.762 45.525 260.562 45.375 261.612 45.225C262.712 45.025 263.812 44.925 264.912 44.925C266.012 44.925 266.987 45 267.837 45.15C268.737 45.3 269.487 45.6 270.087 46.05C270.687 46.5 271.137 47.125 271.437 47.925C271.787 48.675 271.962 49.675 271.962 50.925V70.725L284.862 57.525C287.462 57.525 289.537 58.1 291.087 59.25C292.687 60.4 293.487 61.85 293.487 63.6C293.487 64.35 293.362 65.05 293.112 65.7C292.862 66.3 292.462 66.925 291.912 67.575C291.412 68.225 290.737 68.925 289.887 69.675C289.087 70.375 288.137 71.2 287.037 72.15L282.687 75.9L294.687 87.9Z" fill="white"/>
<path d="M75.9404 47.3923C77.2466 47.3924 78.4101 47.8085 79.3916 48.6316L79.5859 48.8015L79.6006 48.8152L79.6152 48.8298C80.6307 49.8453 81.1582 51.0865 81.1582 52.5056C81.1581 53.8359 80.6944 55.009 79.7998 55.9871L79.6152 56.1804L66.6211 69.1755H101.791C103.224 69.1756 104.471 69.671 105.466 70.6658L105.646 70.8552C106.521 71.8173 106.956 72.9976 106.956 74.3416C106.956 75.6853 106.521 76.8649 105.646 77.8269L105.466 78.0164C104.471 79.0112 103.224 79.5065 101.791 79.5066H66.6201L80.9834 93.8699L81.168 94.0632C82.0022 94.9758 82.4518 96.0521 82.4746 97.2615L82.4736 97.5222C82.4305 98.9034 81.8804 100.112 80.8779 101.115L80.8486 101.144C79.9042 102.01 78.7904 102.499 77.5381 102.592L77.2852 102.605C75.9694 102.646 74.8038 102.193 73.8262 101.3L73.6328 101.115L50.4814 77.9636C50.0381 77.5203 49.6898 77.0259 49.4561 76.4792L49.3623 76.241C49.1475 75.6393 49.044 75.0037 49.0439 74.3416C49.0439 73.6791 49.1473 73.0431 49.3623 72.4412L49.4561 72.2039C49.6899 71.657 50.0379 71.162 50.4814 70.7185L72.3701 48.8298L72.5537 48.655C73.4854 47.8096 74.6335 47.3923 75.9404 47.3923Z" fill="white" stroke="white" stroke-width="1.9122"/>
<defs>
<linearGradient id="paint0_linear_430_21552" x1="151.318" y1="90.335" x2="203.069" y2="-12.0975" gradientUnits="userSpaceOnUse">
<stop stop-color="#E53935"/>
<stop offset="0.948" stop-color="#C62828"/>
</linearGradient>
<linearGradient id="paint1_linear_430_21552" x1="357.927" y1="142.412" x2="284.628" y2="0.340375" gradientUnits="userSpaceOnUse">
<stop stop-color="#EF5350"/>
<stop offset="0.948" stop-color="#B71B1C"/>
</linearGradient>
</defs>
</svg>
