<svg width="40" height="40" viewBox="0 0 40 40" fill="none" xmlns="http://www.w3.org/2000/svg">
<rect x="1.5" y="1.5" width="37" height="37" rx="6.5" fill="#008444"/>
<rect x="1.5" y="1.5" width="37" height="37" rx="6.5" stroke="url(#paint0_linear_98_159)" stroke-width="3"/>
<path d="M13 19C12.45 19 11.9792 18.8042 11.5875 18.4125C11.1958 18.0208 11 17.55 11 17V13C11 12.45 11.1958 11.9792 11.5875 11.5875C11.9792 11.1958 12.45 11 13 11H17C17.55 11 18.0208 11.1958 18.4125 11.5875C18.8042 11.9792 19 12.45 19 13V17C19 17.55 18.8042 18.0208 18.4125 18.4125C18.0208 18.8042 17.55 19 17 19H13ZM13 29C12.45 29 11.9792 28.8042 11.5875 28.4125C11.1958 28.0208 11 27.55 11 27V23C11 22.45 11.1958 21.9792 11.5875 21.5875C11.9792 21.1958 12.45 21 13 21H17C17.55 21 18.0208 21.1958 18.4125 21.5875C18.8042 21.9792 19 22.45 19 23V27C19 27.55 18.8042 28.0208 18.4125 28.4125C18.0208 28.8042 17.55 29 17 29H13ZM23 19C22.45 19 21.9792 18.8042 21.5875 18.4125C21.1958 18.0208 21 17.55 21 17V13C21 12.45 21.1958 11.9792 21.5875 11.5875C21.9792 11.1958 22.45 11 23 11H27C27.55 11 28.0208 11.1958 28.4125 11.5875C28.8042 11.9792 29 12.45 29 13V17C29 17.55 28.8042 18.0208 28.4125 18.4125C28.0208 18.8042 27.55 19 27 19H23ZM23 29C22.45 29 21.9792 28.8042 21.5875 28.4125C21.1958 28.0208 21 27.55 21 27V23C21 22.45 21.1958 21.9792 21.5875 21.5875C21.9792 21.1958 22.45 21 23 21H27C27.55 21 28.0208 21.1958 28.4125 21.5875C28.8042 21.9792 29 22.45 29 23V27C29 27.55 28.8042 28.0208 28.4125 28.4125C28.0208 28.8042 27.55 29 27 29H23Z" fill="white"/>
<defs>
<linearGradient id="paint0_linear_98_159" x1="41.2596" y1="37.9764" x2="17.6449" y2="18.1907" gradientUnits="userSpaceOnUse">
<stop stop-color="#1FB767"/>
<stop offset="0.948" stop-color="#006430"/>
</linearGradient>
</defs>
</svg>
