<svg width="50" height="50" viewBox="0 0 50 50" fill="none" xmlns="http://www.w3.org/2000/svg">
<rect x="1.875" y="1.875" width="46.25" height="46.25" rx="8.125" fill="#1565C0"/>
<rect x="1.875" y="1.875" width="46.25" height="46.25" rx="8.125" stroke="url(#paint0_linear_54_160)" stroke-width="3.75"/>
<path d="M14.5999 33.6786V22.1071C14.5999 21.7 14.691 21.3143 14.8731 20.95C15.0553 20.5857 15.3071 20.2857 15.6285 20.05L23.3428 14.2643C23.7928 13.9214 24.3071 13.75 24.8856 13.75C25.4642 13.75 25.9785 13.9214 26.4285 14.2643L34.1428 20.05C34.4642 20.2857 34.716 20.5857 34.8981 20.95C35.0803 21.3143 35.1713 21.7 35.1713 22.1071V33.6786C35.1713 34.3857 34.9196 34.9911 34.416 35.4946C33.9124 35.9982 33.3071 36.25 32.5999 36.25H28.7428C28.3785 36.25 28.0731 36.1268 27.8267 35.8804C27.5803 35.6339 27.4571 35.3286 27.4571 34.9643V28.5357C27.4571 28.1714 27.3338 27.8661 27.0874 27.6196C26.841 27.3732 26.5356 27.25 26.1713 27.25H23.5999C23.2356 27.25 22.9303 27.3732 22.6838 27.6196C22.4374 27.8661 22.3142 28.1714 22.3142 28.5357V34.9643C22.3142 35.3286 22.191 35.6339 21.9446 35.8804C21.6981 36.1268 21.3928 36.25 21.0285 36.25H17.1713C16.4642 36.25 15.8588 35.9982 15.3553 35.4946C14.8517 34.9911 14.5999 34.3857 14.5999 33.6786Z" fill="white"/>
<defs>
<linearGradient id="paint0_linear_54_160" x1="58.9749" y1="10" x2="20.1853" y2="34.8833" gradientUnits="userSpaceOnUse">
<stop stop-color="#1E88E5"/>
<stop offset="0.948" stop-color="#0D47A1"/>
</linearGradient>
</defs>
</svg>
