<svg width="40" height="40" viewBox="0 0 40 40" fill="none" xmlns="http://www.w3.org/2000/svg">
<rect x="1.5" y="1.5" width="37" height="37" rx="6.5" fill="url(#paint0_linear_54_153)"/>
<rect x="1.5" y="1.5" width="37" height="37" rx="6.5" stroke="url(#paint1_linear_54_153)" stroke-width="3"/>
<path d="M28.7987 28.7661C28.314 29.2508 27.7163 29.5001 27.0326 29.5001H21.0326C20.6234 29.5001 20.2566 29.3562 19.9665 29.0661C19.6765 28.7761 19.5326 28.4093 19.5326 28.0001C19.5326 27.5908 19.6765 27.2241 19.9665 26.934C20.2566 26.6439 20.6234 26.5001 21.0326 26.5001H26.0326V13.5001H21.0326C20.6234 13.5001 20.2566 13.3562 19.9665 13.0661C19.6765 12.7761 19.5326 12.4093 19.5326 12.0001C19.5326 11.5908 19.6765 11.2241 19.9665 10.934C20.2566 10.6439 20.6234 10.5001 21.0326 10.5001H27.0326C27.7163 10.5001 28.314 10.7493 28.7987 11.234C29.2833 11.7187 29.5326 12.3164 29.5326 13.0001V27.0001C29.5326 27.6837 29.2833 28.2814 28.7987 28.7661Z" fill="white" stroke="white"/>
<path d="M22.0326 21.5001H16.0647L17.0612 22.4965C17.3404 22.7758 17.4829 23.1287 17.4949 23.5224C17.5071 23.9257 17.374 24.2904 17.1012 24.5879L17.0938 24.5959L17.0862 24.6036C16.7989 24.8909 16.4415 25.05 16.0352 25.0623C15.6181 25.075 15.2484 24.923 14.954 24.6286L11.379 21.0536C11.0916 20.7662 10.9326 20.408 10.9326 20.0001C10.9326 19.5921 11.0916 19.234 11.379 18.9465L14.954 15.3715C15.2517 15.0739 15.6267 14.9254 16.0473 14.9378C16.4589 14.9499 16.8221 15.1078 17.1012 15.4122C17.3674 15.7026 17.5076 16.0559 17.5076 16.4501C17.5076 16.8451 17.3662 17.1986 17.0862 17.4786L16.0647 18.5001H22.0326C22.4419 18.5001 22.8086 18.644 23.0987 18.934L22.8121 19.2206L23.0987 18.934C23.3887 19.2241 23.5326 19.5908 23.5326 20.0001C23.5326 20.4093 23.3887 20.7761 23.0987 21.0661C22.8086 21.3562 22.4419 21.5001 22.0326 21.5001Z" fill="white" stroke="white"/>
<defs>
<linearGradient id="paint0_linear_54_153" x1="17.443" y1="24.0893" x2="34.3804" y2="9.59747" gradientUnits="userSpaceOnUse">
<stop stop-color="#E53935"/>
<stop offset="0.948" stop-color="#C62828"/>
</linearGradient>
<linearGradient id="paint1_linear_54_153" x1="41.2596" y1="37.9764" x2="17.6449" y2="18.1907" gradientUnits="userSpaceOnUse">
<stop stop-color="#EF5350"/>
<stop offset="0.948" stop-color="#B71B1C"/>
</linearGradient>
</defs>
</svg>
