<svg width="342" height="150" viewBox="0 0 342 150" fill="none" xmlns="http://www.w3.org/2000/svg">
<rect x="4.6875" y="4.6875" width="332.625" height="140.625" rx="20.3125" fill="url(#paint0_linear_410_120459)"/>
<rect x="4.6875" y="4.6875" width="332.625" height="140.625" rx="20.3125" stroke="url(#paint1_linear_410_120459)" stroke-width="9.375"/>
<path d="M96.0568 92.925C95.3568 93.625 94.3318 94.15 92.9818 94.5C91.6818 94.9 90.1068 95.1 88.2568 95.1C86.4068 95.1 84.6568 94.825 83.0068 94.275C81.3568 93.725 80.0068 92.4 78.9568 90.3L71.5318 75.15C70.7818 73.6 70.1068 72.15 69.5068 70.8C68.9068 69.4 68.2568 67.8 67.5568 66L67.1068 66.075C67.3068 68.775 67.4068 71.525 67.4068 74.325C67.4568 77.125 67.4818 79.875 67.4818 82.575V94.2C66.9318 94.35 66.0818 94.5 64.9318 94.65C63.8318 94.8 62.7318 94.875 61.6318 94.875C60.5318 94.875 59.5568 94.8 58.7068 94.65C57.8568 94.5 57.1568 94.2 56.6068 93.75C56.0568 93.3 55.6318 92.7 55.3318 91.95C55.0318 91.15 54.8818 90.125 54.8818 88.875V51.375C55.5818 50.375 56.6568 49.625 58.1068 49.125C59.5568 48.625 61.1068 48.375 62.7568 48.375C64.6068 48.375 66.3568 48.675 68.0068 49.275C69.7068 49.825 71.0568 51.125 72.0568 53.175L79.5568 68.325C80.3068 69.875 80.9818 71.35 81.5818 72.75C82.1818 74.1 82.8318 75.675 83.5318 77.475L83.9068 77.4C83.7068 74.7 83.5818 72 83.5318 69.3C83.4818 66.6 83.4568 63.9 83.4568 61.2V49.05C84.0068 48.9 84.8318 48.75 85.9318 48.6C87.0818 48.45 88.2068 48.375 89.3068 48.375C91.5068 48.375 93.1818 48.775 94.3318 49.575C95.4818 50.325 96.0568 51.925 96.0568 54.375V92.925ZM124.085 95.7C121.135 95.7 118.385 95.3 115.835 94.5C113.335 93.65 111.135 92.4 109.235 90.75C107.385 89.1 105.91 87.025 104.81 84.525C103.76 82.025 103.235 79.1 103.235 75.75C103.235 72.45 103.76 69.625 104.81 67.275C105.91 64.875 107.335 62.925 109.085 61.425C110.835 59.875 112.835 58.75 115.085 58.05C117.335 57.3 119.635 56.925 121.985 56.925C124.635 56.925 127.035 57.325 129.185 58.125C131.385 58.925 133.26 60.025 134.81 61.425C136.41 62.825 137.635 64.5 138.485 66.45C139.385 68.4 139.835 70.525 139.835 72.825C139.835 74.525 139.36 75.825 138.41 76.725C137.46 77.625 136.135 78.2 134.435 78.45L115.91 81.225C116.46 82.875 117.585 84.125 119.285 84.975C120.985 85.775 122.935 86.175 125.135 86.175C127.185 86.175 129.11 85.925 130.91 85.425C132.76 84.875 134.26 84.25 135.41 83.55C136.21 84.05 136.885 84.75 137.435 85.65C137.985 86.55 138.26 87.5 138.26 88.5C138.26 90.75 137.21 92.425 135.11 93.525C133.51 94.375 131.71 94.95 129.71 95.25C127.71 95.55 125.835 95.7 124.085 95.7ZM121.985 66.225C120.785 66.225 119.735 66.425 118.835 66.825C117.985 67.225 117.285 67.75 116.735 68.4C116.185 69 115.76 69.7 115.46 70.5C115.21 71.25 115.06 72.025 115.01 72.825L127.835 70.725C127.685 69.725 127.135 68.725 126.185 67.725C125.235 66.725 123.835 66.225 121.985 66.225ZM143.581 63.975C143.981 62.075 144.756 60.525 145.906 59.325C147.106 58.125 148.581 57.525 150.331 57.525C151.981 57.525 153.256 57.925 154.156 58.725C155.056 59.525 156.056 60.65 157.156 62.1L161.956 68.4L169.981 57.525C172.731 57.525 174.906 58.025 176.506 59.025C178.106 59.975 178.906 61.275 178.906 62.925C178.906 63.575 178.806 64.175 178.606 64.725C178.456 65.225 178.206 65.75 177.856 66.3C177.506 66.85 177.056 67.475 176.506 68.175C175.956 68.875 175.306 69.7 174.556 70.65L169.606 76.2L179.431 89.175C179.181 91.075 178.431 92.575 177.181 93.675C175.931 94.775 174.431 95.325 172.681 95.325C170.781 95.275 169.256 94.725 168.106 93.675C167.006 92.625 165.931 91.35 164.881 89.85L160.831 84.075L153.181 95.1C152.931 95.1 152.656 95.1 152.356 95.1C152.056 95.15 151.806 95.175 151.606 95.175C149.056 95.175 147.106 94.65 145.756 93.6C144.456 92.55 143.806 91.25 143.806 89.7C143.806 88.5 144.081 87.45 144.631 86.55C145.231 85.6 146.231 84.325 147.631 82.725L153.631 75.75L143.581 63.975ZM197.614 81.975C197.614 83.275 198.014 84.2 198.814 84.75C199.664 85.3 200.839 85.575 202.339 85.575C203.089 85.575 203.864 85.525 204.664 85.425C205.464 85.275 206.164 85.1 206.764 84.9C207.214 85.45 207.589 86.075 207.889 86.775C208.239 87.425 208.414 88.225 208.414 89.175C208.414 91.075 207.689 92.625 206.239 93.825C204.839 95.025 202.339 95.625 198.739 95.625C194.339 95.625 190.939 94.625 188.539 92.625C186.189 90.625 185.014 87.375 185.014 82.875V50.775C185.564 50.625 186.339 50.475 187.339 50.325C188.389 50.125 189.489 50.025 190.639 50.025C192.839 50.025 194.539 50.425 195.739 51.225C196.989 51.975 197.614 53.6 197.614 56.1V60.9H207.439C207.739 61.45 208.014 62.15 208.264 63C208.564 63.8 208.714 64.7 208.714 65.7C208.714 67.45 208.314 68.725 207.514 69.525C206.764 70.275 205.739 70.65 204.439 70.65H197.614V81.975Z" fill="white"/>
<path d="M266.06 47.3923C264.753 47.3924 263.59 47.8085 262.608 48.6316L262.414 48.8015L262.399 48.8152L262.385 48.8298C261.369 49.8453 260.842 51.0865 260.842 52.5056C260.842 53.8359 261.306 55.009 262.2 55.9871L262.385 56.1804L275.379 69.1755H240.209C238.776 69.1756 237.529 69.671 236.534 70.6658L236.354 70.8552C235.479 71.8173 235.044 72.9976 235.044 74.3416C235.044 75.6853 235.479 76.8649 236.354 77.8269L236.534 78.0164C237.529 79.0112 238.776 79.5065 240.209 79.5066H275.38L261.017 93.8699L260.832 94.0632C259.998 94.9758 259.548 96.0521 259.525 97.2615L259.526 97.5222C259.57 98.9034 260.12 100.112 261.122 101.115L261.151 101.144C262.096 102.01 263.21 102.499 264.462 102.592L264.715 102.605C266.031 102.646 267.196 102.193 268.174 101.3L268.367 101.115L291.519 77.9636C291.962 77.5203 292.31 77.0259 292.544 76.4792L292.638 76.241C292.853 75.6393 292.956 75.0037 292.956 74.3416C292.956 73.6791 292.853 73.0431 292.638 72.4412L292.544 72.2039C292.31 71.657 291.962 71.162 291.519 70.7185L269.63 48.8298L269.446 48.655C268.515 47.8096 267.366 47.3923 266.06 47.3923Z" fill="white" stroke="white" stroke-width="1.9122"/>
<defs>
<linearGradient id="paint0_linear_410_120459" x1="149.137" y1="90.335" x2="201.333" y2="-11.4876" gradientUnits="userSpaceOnUse">
<stop stop-color="#E53935"/>
<stop offset="0.948" stop-color="#C62828"/>
</linearGradient>
<linearGradient id="paint1_linear_410_120459" x1="352.769" y1="142.412" x2="278.856" y2="1.21465" gradientUnits="userSpaceOnUse">
<stop stop-color="#EF5350"/>
<stop offset="0.948" stop-color="#B71B1C"/>
</linearGradient>
</defs>
</svg>
