<svg width="40" height="40" viewBox="0 0 40 40" fill="none" xmlns="http://www.w3.org/2000/svg">
<rect x="1.5" y="1.5" width="37" height="37" rx="6.5" fill="#008444"/>
<rect x="1.5" y="1.5" width="37" height="37" rx="6.5" stroke="url(#paint0_linear_54_151)" stroke-width="3"/>
<path d="M24.4159 17.6244L19.6586 12.8671C19.2869 12.4953 19.0938 12.0412 19.0938 11.5217C19.0938 11.0022 19.2869 10.548 19.6586 10.1763L19.664 10.1709L19.6696 10.1658C20.0433 9.82319 20.494 9.65 21.004 9.65C21.5143 9.65 21.9585 9.82384 22.3109 10.1763L22.0658 10.4214L22.3109 10.1763L30.3237 18.1891C30.5093 18.3747 30.6494 18.5847 30.7333 18.8197C30.812 19.0401 30.85 19.2728 30.85 19.5153C30.85 19.7578 30.812 19.9905 30.7333 20.2108C30.6494 20.4459 30.5093 20.6559 30.3237 20.8414L21.8486 29.3165C21.4767 29.6884 21.0254 29.8779 20.5115 29.8619C20.0153 29.8464 19.5761 29.6651 19.2073 29.327L19.2017 29.3219L19.1963 29.3165C18.8293 28.9495 18.6283 28.5069 18.6125 28.0013C18.5964 27.4875 18.7859 27.0361 19.1578 26.6642L24.4159 21.4062H11.5409C11.0162 21.4062 10.5598 21.2249 10.1955 20.8607C9.8313 20.4965 9.65 20.04 9.65 19.5153C9.65 18.9905 9.83131 18.5341 10.1955 18.1699C10.5598 17.8057 11.0162 17.6244 11.5409 17.6244H24.4159Z" fill="white" stroke="white" stroke-width="0.7"/>
<defs>
<linearGradient id="paint0_linear_54_151" x1="41.2596" y1="37.9764" x2="17.6449" y2="18.1907" gradientUnits="userSpaceOnUse">
<stop stop-color="#1FB767"/>
<stop offset="0.948" stop-color="#006430"/>
</linearGradient>
</defs>
</svg>
