<svg width="330" height="150" viewBox="0 0 330 150" fill="none" xmlns="http://www.w3.org/2000/svg">
<rect x="4.6875" y="4.6875" width="320.625" height="140.625" rx="20.3125" fill="url(#paint0_linear_410_120433)"/>
<rect x="4.6875" y="4.6875" width="320.625" height="140.625" rx="20.3125" stroke="url(#paint1_linear_410_120433)" stroke-width="9.375"/>
<path d="M72.2789 70.125C74.3789 70.125 75.9789 69.65 77.0789 68.7C78.2289 67.7 78.8039 66.2 78.8039 64.2C78.8039 62.3 78.2039 60.85 77.0039 59.85C75.8539 58.8 74.1539 58.275 71.9039 58.275C71.1039 58.275 70.4289 58.3 69.8789 58.35C69.3789 58.35 68.8539 58.4 68.3039 58.5V70.125H72.2789ZM68.3789 94.2C67.8289 94.35 66.9539 94.5 65.7539 94.65C64.6039 94.8 63.4539 94.875 62.3039 94.875C61.1539 94.875 60.1289 94.775 59.2289 94.575C58.3789 94.425 57.6539 94.125 57.0539 93.675C56.4539 93.225 56.0039 92.6 55.7039 91.8C55.4039 91 55.2539 89.95 55.2539 88.65V53.325C55.2539 52.275 55.5289 51.475 56.0789 50.925C56.6789 50.325 57.4789 49.85 58.4789 49.5C60.1789 48.9 62.1039 48.475 64.2539 48.225C66.4539 47.925 68.6539 47.775 70.8539 47.775C77.7539 47.775 83.0289 49.25 86.6789 52.2C90.3289 55.15 92.1539 59.15 92.1539 64.2C92.1539 66.65 91.7539 68.875 90.9539 70.875C90.2039 72.825 89.0539 74.525 87.5039 75.975C86.0039 77.375 84.0789 78.475 81.7289 79.275C79.4289 80.025 76.7539 80.4 73.7039 80.4H68.3789V94.2ZM134.484 76.275C134.484 79.375 134.009 82.15 133.059 84.6C132.109 87 130.759 89.025 129.009 90.675C127.309 92.325 125.259 93.575 122.859 94.425C120.459 95.275 117.784 95.7 114.834 95.7C111.884 95.7 109.209 95.25 106.809 94.35C104.409 93.45 102.334 92.175 100.584 90.525C98.8844 88.825 97.5594 86.775 96.6094 84.375C95.6594 81.975 95.1844 79.275 95.1844 76.275C95.1844 73.325 95.6594 70.65 96.6094 68.25C97.5594 65.85 98.8844 63.825 100.584 62.175C102.334 60.475 104.409 59.175 106.809 58.275C109.209 57.375 111.884 56.925 114.834 56.925C117.784 56.925 120.459 57.4 122.859 58.35C125.259 59.25 127.309 60.55 129.009 62.25C130.759 63.9 132.109 65.925 133.059 68.325C134.009 70.725 134.484 73.375 134.484 76.275ZM108.234 76.275C108.234 79.325 108.809 81.675 109.959 83.325C111.159 84.925 112.809 85.725 114.909 85.725C117.009 85.725 118.609 84.9 119.709 83.25C120.859 81.6 121.434 79.275 121.434 76.275C121.434 73.275 120.859 70.975 119.709 69.375C118.559 67.725 116.934 66.9 114.834 66.9C112.734 66.9 111.109 67.725 109.959 69.375C108.809 70.975 108.234 73.275 108.234 76.275ZM153.68 94.425C153.13 94.525 152.305 94.65 151.205 94.8C150.155 95 149.08 95.1 147.98 95.1C146.88 95.1 145.88 95.025 144.98 94.875C144.13 94.725 143.405 94.425 142.805 93.975C142.205 93.525 141.73 92.925 141.38 92.175C141.08 91.375 140.93 90.35 140.93 89.1V45.6C141.48 45.5 142.28 45.375 143.33 45.225C144.43 45.025 145.53 44.925 146.63 44.925C147.73 44.925 148.705 45 149.555 45.15C150.455 45.3 151.205 45.6 151.805 46.05C152.405 46.5 152.855 47.125 153.155 47.925C153.505 48.675 153.68 49.675 153.68 50.925V94.425ZM177.325 86.4C178.175 86.4 179.1 86.325 180.1 86.175C181.15 85.975 181.925 85.725 182.425 85.425V79.425L177.025 79.875C175.625 79.975 174.475 80.275 173.575 80.775C172.675 81.275 172.225 82.025 172.225 83.025C172.225 84.025 172.6 84.85 173.35 85.5C174.15 86.1 175.475 86.4 177.325 86.4ZM176.725 56.925C179.425 56.925 181.875 57.2 184.075 57.75C186.325 58.3 188.225 59.15 189.775 60.3C191.375 61.4 192.6 62.825 193.45 64.575C194.3 66.275 194.725 68.3 194.725 70.65V87.45C194.725 88.75 194.35 89.825 193.6 90.675C192.9 91.475 192.05 92.175 191.05 92.775C187.8 94.725 183.225 95.7 177.325 95.7C174.675 95.7 172.275 95.45 170.125 94.95C168.025 94.45 166.2 93.7 164.65 92.7C163.15 91.7 161.975 90.425 161.125 88.875C160.325 87.325 159.925 85.525 159.925 83.475C159.925 80.025 160.95 77.375 163 75.525C165.05 73.675 168.225 72.525 172.525 72.075L182.35 71.025V70.5C182.35 69.05 181.7 68.025 180.4 67.425C179.15 66.775 177.325 66.45 174.925 66.45C173.025 66.45 171.175 66.65 169.375 67.05C167.575 67.45 165.95 67.95 164.5 68.55C163.85 68.1 163.3 67.425 162.85 66.525C162.4 65.575 162.175 64.6 162.175 63.6C162.175 62.3 162.475 61.275 163.075 60.525C163.725 59.725 164.7 59.05 166 58.5C167.45 57.95 169.15 57.55 171.1 57.3C173.1 57.05 174.975 56.925 176.725 56.925Z" fill="white"/>
<path d="M254.06 47.3923C252.753 47.3924 251.59 47.8085 250.608 48.6316L250.414 48.8015L250.399 48.8152L250.385 48.8298C249.369 49.8453 248.842 51.0865 248.842 52.5056C248.842 53.8359 249.306 55.009 250.2 55.9871L250.385 56.1804L263.379 69.1755H228.209C226.776 69.1756 225.529 69.671 224.534 70.6658L224.354 70.8552C223.479 71.8173 223.044 72.9976 223.044 74.3416C223.044 75.6853 223.479 76.8649 224.354 77.8269L224.534 78.0164C225.529 79.0112 226.776 79.5065 228.209 79.5066H263.38L249.017 93.8699L248.832 94.0632C247.998 94.9758 247.548 96.0521 247.525 97.2615L247.526 97.5222C247.57 98.9034 248.12 100.112 249.122 101.115L249.151 101.144C250.096 102.01 251.21 102.499 252.462 102.592L252.715 102.605C254.031 102.646 255.196 102.193 256.174 101.3L256.367 101.115L279.519 77.9636C279.962 77.5203 280.31 77.0259 280.544 76.4792L280.638 76.241C280.853 75.6393 280.956 75.0037 280.956 74.3416C280.956 73.6791 280.853 73.0431 280.638 72.4412L280.544 72.2039C280.31 71.657 279.962 71.162 279.519 70.7185L257.63 48.8298L257.446 48.655C256.515 47.8096 255.366 47.3923 254.06 47.3923Z" fill="white" stroke="white" stroke-width="1.9122"/>
<defs>
<linearGradient id="paint0_linear_410_120433" x1="143.905" y1="90.335" x2="197.177" y2="-9.94242" gradientUnits="userSpaceOnUse">
<stop stop-color="#E53935"/>
<stop offset="0.948" stop-color="#C62828"/>
</linearGradient>
<linearGradient id="paint1_linear_410_120433" x1="340.391" y1="142.412" x2="264.992" y2="3.42824" gradientUnits="userSpaceOnUse">
<stop stop-color="#EF5350"/>
<stop offset="0.948" stop-color="#B71B1C"/>
</linearGradient>
</defs>
</svg>
