<svg width="164" height="48" viewBox="0 0 164 48" fill="none" xmlns="http://www.w3.org/2000/svg">
<rect x="1.5" y="1.5" width="161" height="45" rx="6.5" fill="url(#paint0_linear_54_157)"/>
<rect x="1.5" y="1.5" width="161" height="45" rx="6.5" stroke="url(#paint1_linear_54_157)" stroke-width="3"/>
<path d="M25.3354 18.384C24.1034 18.384 23.1594 18.76 22.5034 19.512C21.8474 20.264 21.5194 21.328 21.5194 22.704C21.5194 24.096 21.8794 25.168 22.5994 25.92C23.3354 26.672 24.3194 27.048 25.5514 27.048C26.2074 27.048 26.7594 26.96 27.2074 26.784C27.6714 26.608 28.1114 26.408 28.5274 26.184C28.7994 26.408 29.0074 26.68 29.1514 27C29.3114 27.304 29.3914 27.664 29.3914 28.08C29.3914 28.736 29.0234 29.296 28.2874 29.76C27.5674 30.208 26.4634 30.432 24.9754 30.432C23.9034 30.432 22.8954 30.28 21.9514 29.976C21.0074 29.672 20.1834 29.208 19.4794 28.584C18.7754 27.944 18.2154 27.144 17.7994 26.184C17.3994 25.208 17.1994 24.048 17.1994 22.704C17.1994 21.456 17.3914 20.36 17.7754 19.416C18.1754 18.456 18.7114 17.648 19.3834 16.992C20.0714 16.336 20.8714 15.84 21.7834 15.504C22.6954 15.168 23.6714 15 24.7114 15C26.1834 15 27.3194 15.24 28.1194 15.72C28.9354 16.2 29.3434 16.816 29.3434 17.568C29.3434 17.984 29.2394 18.344 29.0314 18.648C28.8234 18.952 28.5834 19.192 28.3114 19.368C27.8954 19.096 27.4474 18.864 26.9674 18.672C26.5034 18.48 25.9594 18.384 25.3354 18.384ZM43.0856 24.168C43.0856 25.16 42.9336 26.048 42.6296 26.832C42.3256 27.6 41.8936 28.248 41.3336 28.776C40.7896 29.304 40.1336 29.704 39.3656 29.976C38.5976 30.248 37.7416 30.384 36.7976 30.384C35.8536 30.384 34.9976 30.24 34.2296 29.952C33.4616 29.664 32.7976 29.256 32.2376 28.728C31.6936 28.184 31.2696 27.528 30.9656 26.76C30.6616 25.992 30.5096 25.128 30.5096 24.168C30.5096 23.224 30.6616 22.368 30.9656 21.6C31.2696 20.832 31.6936 20.184 32.2376 19.656C32.7976 19.112 33.4616 18.696 34.2296 18.408C34.9976 18.12 35.8536 17.976 36.7976 17.976C37.7416 17.976 38.5976 18.128 39.3656 18.432C40.1336 18.72 40.7896 19.136 41.3336 19.68C41.8936 20.208 42.3256 20.856 42.6296 21.624C42.9336 22.392 43.0856 23.24 43.0856 24.168ZM34.6856 24.168C34.6856 25.144 34.8696 25.896 35.2376 26.424C35.6216 26.936 36.1496 27.192 36.8216 27.192C37.4936 27.192 38.0056 26.928 38.3576 26.4C38.7256 25.872 38.9096 25.128 38.9096 24.168C38.9096 23.208 38.7256 22.472 38.3576 21.96C37.9896 21.432 37.4696 21.168 36.7976 21.168C36.1256 21.168 35.6056 21.432 35.2376 21.96C34.8696 22.472 34.6856 23.208 34.6856 24.168ZM45.1241 14.376C45.2841 14.328 45.5401 14.28 45.8921 14.232C46.2441 14.168 46.6041 14.136 46.9721 14.136C47.3241 14.136 47.6361 14.16 47.9081 14.208C48.1961 14.256 48.4361 14.352 48.6281 14.496C48.8201 14.64 48.9641 14.84 49.0601 15.096C49.1561 15.336 49.2041 15.656 49.2041 16.056V18.408C49.6041 18.248 49.9801 18.136 50.3321 18.072C50.7001 18.008 51.1001 17.976 51.5321 17.976C52.3001 17.976 53.0281 18.112 53.7161 18.384C54.4041 18.656 55.0121 19.056 55.5401 19.584C56.0681 20.096 56.4841 20.736 56.7881 21.504C57.0921 22.272 57.2441 23.16 57.2441 24.168C57.2441 25.208 57.0841 26.12 56.7641 26.904C56.4601 27.672 56.0281 28.312 55.4681 28.824C54.9081 29.336 54.2201 29.728 53.4041 30C52.6041 30.256 51.7161 30.384 50.7401 30.384C49.6841 30.384 48.7881 30.256 48.0521 30C47.3161 29.76 46.6921 29.456 46.1801 29.088C45.4761 28.592 45.1241 27.952 45.1241 27.168V14.376ZM50.7401 27.168C51.4761 27.168 52.0441 26.92 52.4441 26.424C52.8601 25.912 53.0681 25.16 53.0681 24.168C53.0681 23.16 52.8601 22.408 52.4441 21.912C52.0281 21.416 51.4681 21.168 50.7641 21.168C50.4441 21.168 50.1641 21.2 49.9241 21.264C49.7001 21.328 49.4521 21.424 49.1801 21.552V26.784C49.3561 26.896 49.5641 26.992 49.8041 27.072C50.0601 27.136 50.3721 27.168 50.7401 27.168ZM64.2713 27.408C64.5433 27.408 64.8393 27.384 65.1593 27.336C65.4953 27.272 65.7433 27.192 65.9033 27.096V25.176L64.1753 25.32C63.7273 25.352 63.3593 25.448 63.0713 25.608C62.7833 25.768 62.6393 26.008 62.6393 26.328C62.6393 26.648 62.7593 26.912 62.9993 27.12C63.2553 27.312 63.6793 27.408 64.2713 27.408ZM64.0793 17.976C64.9433 17.976 65.7273 18.064 66.4313 18.24C67.1513 18.416 67.7593 18.688 68.2553 19.056C68.7673 19.408 69.1593 19.864 69.4313 20.424C69.7033 20.968 69.8393 21.616 69.8393 22.368V27.744C69.8393 28.16 69.7193 28.504 69.4793 28.776C69.2553 29.032 68.9833 29.256 68.6633 29.448C67.6233 30.072 66.1593 30.384 64.2713 30.384C63.4233 30.384 62.6553 30.304 61.9673 30.144C61.2953 29.984 60.7113 29.744 60.2153 29.424C59.7353 29.104 59.3593 28.696 59.0873 28.2C58.8313 27.704 58.7033 27.128 58.7033 26.472C58.7033 25.368 59.0313 24.52 59.6873 23.928C60.3433 23.336 61.3593 22.968 62.7353 22.824L65.8793 22.488V22.32C65.8793 21.856 65.6713 21.528 65.2553 21.336C64.8553 21.128 64.2713 21.024 63.5033 21.024C62.8953 21.024 62.3033 21.088 61.7273 21.216C61.1513 21.344 60.6313 21.504 60.1673 21.696C59.9593 21.552 59.7833 21.336 59.6393 21.048C59.4953 20.744 59.4233 20.432 59.4233 20.112C59.4233 19.696 59.5193 19.368 59.7113 19.128C59.9193 18.872 60.2313 18.656 60.6473 18.48C61.1113 18.304 61.6553 18.176 62.2793 18.096C62.9193 18.016 63.5193 17.976 64.0793 17.976ZM79.6826 30.072C78.9946 30.072 78.4506 29.872 78.0506 29.472C77.6506 29.072 77.4506 28.528 77.4506 27.84V15.432C77.6266 15.4 77.9066 15.36 78.2906 15.312C78.6746 15.248 79.0426 15.216 79.3946 15.216C79.7626 15.216 80.0826 15.248 80.3546 15.312C80.6426 15.36 80.8826 15.456 81.0746 15.6C81.2666 15.744 81.4106 15.944 81.5066 16.2C81.6026 16.456 81.6506 16.792 81.6506 17.208V26.688H87.1466C87.2586 26.864 87.3626 27.104 87.4586 27.408C87.5546 27.696 87.6026 28 87.6026 28.32C87.6026 28.96 87.4666 29.416 87.1946 29.688C86.9226 29.944 86.5626 30.072 86.1146 30.072H79.6826ZM94.4353 27.408C94.7073 27.408 95.0033 27.384 95.3233 27.336C95.6593 27.272 95.9073 27.192 96.0673 27.096V25.176L94.3393 25.32C93.8913 25.352 93.5233 25.448 93.2353 25.608C92.9473 25.768 92.8033 26.008 92.8033 26.328C92.8033 26.648 92.9233 26.912 93.1633 27.12C93.4193 27.312 93.8433 27.408 94.4353 27.408ZM94.2433 17.976C95.1073 17.976 95.8913 18.064 96.5953 18.24C97.3153 18.416 97.9233 18.688 98.4193 19.056C98.9313 19.408 99.3233 19.864 99.5953 20.424C99.8673 20.968 100.003 21.616 100.003 22.368V27.744C100.003 28.16 99.8833 28.504 99.6433 28.776C99.4193 29.032 99.1473 29.256 98.8273 29.448C97.7873 30.072 96.3233 30.384 94.4353 30.384C93.5873 30.384 92.8193 30.304 92.1313 30.144C91.4593 29.984 90.8753 29.744 90.3793 29.424C89.8993 29.104 89.5233 28.696 89.2513 28.2C88.9953 27.704 88.8673 27.128 88.8673 26.472C88.8673 25.368 89.1953 24.52 89.8513 23.928C90.5073 23.336 91.5233 22.968 92.8993 22.824L96.0433 22.488V22.32C96.0433 21.856 95.8353 21.528 95.4193 21.336C95.0193 21.128 94.4353 21.024 93.6673 21.024C93.0593 21.024 92.4673 21.088 91.8913 21.216C91.3153 21.344 90.7953 21.504 90.3313 21.696C90.1233 21.552 89.9473 21.336 89.8033 21.048C89.6593 20.744 89.5873 20.432 89.5873 20.112C89.5873 19.696 89.6833 19.368 89.8753 19.128C90.0833 18.872 90.3953 18.656 90.8113 18.48C91.2753 18.304 91.8193 18.176 92.4433 18.096C93.0833 18.016 93.6833 17.976 94.2433 17.976ZM108.186 17.976C109.098 17.976 109.922 18.096 110.658 18.336C111.41 18.56 112.042 18.856 112.554 19.224C112.874 19.448 113.122 19.696 113.298 19.968C113.49 20.24 113.586 20.592 113.586 21.024V29.424C113.586 30.272 113.426 31 113.106 31.608C112.786 32.232 112.346 32.744 111.786 33.144C111.242 33.56 110.594 33.864 109.842 34.056C109.106 34.248 108.314 34.344 107.466 34.344C106.01 34.344 104.866 34.144 104.034 33.744C103.202 33.36 102.786 32.728 102.786 31.848C102.786 31.48 102.858 31.152 103.002 30.864C103.162 30.592 103.338 30.384 103.53 30.24C103.994 30.496 104.514 30.712 105.09 30.888C105.682 31.064 106.29 31.152 106.914 31.152C107.778 31.152 108.466 31.008 108.978 30.72C109.49 30.432 109.746 29.968 109.746 29.328V28.944C109.09 29.232 108.29 29.376 107.346 29.376C106.626 29.376 105.938 29.272 105.282 29.064C104.642 28.84 104.074 28.504 103.578 28.056C103.098 27.592 102.706 27 102.402 26.28C102.114 25.56 101.97 24.704 101.97 23.712C101.97 22.736 102.122 21.888 102.426 21.168C102.746 20.448 103.178 19.856 103.722 19.392C104.282 18.912 104.938 18.56 105.69 18.336C106.458 18.096 107.29 17.976 108.186 17.976ZM109.674 21.456C109.562 21.392 109.394 21.328 109.17 21.264C108.962 21.2 108.698 21.168 108.378 21.168C107.594 21.168 107.002 21.392 106.602 21.84C106.218 22.272 106.026 22.896 106.026 23.712C106.026 24.64 106.218 25.312 106.602 25.728C107.002 26.128 107.506 26.328 108.114 26.328C108.77 26.328 109.29 26.176 109.674 25.872V21.456ZM116.019 15.096C116.019 14.488 116.219 13.976 116.619 13.56C117.035 13.144 117.579 12.936 118.251 12.936C118.923 12.936 119.459 13.144 119.859 13.56C120.275 13.976 120.483 14.488 120.483 15.096C120.483 15.704 120.275 16.216 119.859 16.632C119.459 17.048 118.923 17.256 118.251 17.256C117.579 17.256 117.035 17.048 116.619 16.632C116.219 16.216 116.019 15.704 116.019 15.096ZM120.291 29.976C120.115 30.008 119.851 30.048 119.499 30.096C119.163 30.16 118.819 30.192 118.467 30.192C118.115 30.192 117.795 30.168 117.507 30.12C117.235 30.072 117.003 29.976 116.811 29.832C116.619 29.688 116.467 29.496 116.355 29.256C116.259 29 116.211 28.672 116.211 28.272V18.504C116.387 18.472 116.643 18.432 116.979 18.384C117.331 18.32 117.683 18.288 118.035 18.288C118.387 18.288 118.699 18.312 118.971 18.36C119.259 18.408 119.499 18.504 119.691 18.648C119.883 18.792 120.027 18.992 120.123 19.248C120.235 19.488 120.291 19.808 120.291 20.208V29.976Z" fill="white"/>
<path d="M139 34.2815C137.75 34.2815 136.579 34.044 135.488 33.569C134.396 33.094 133.446 32.4523 132.638 31.644C131.829 30.8357 131.188 29.8857 130.713 28.794C130.238 27.7023 130 26.5315 130 25.2815C130 24.9982 130.096 24.7607 130.287 24.569C130.479 24.3773 130.717 24.2815 131 24.2815C131.283 24.2815 131.521 24.3773 131.712 24.569C131.904 24.7607 132 24.9982 132 25.2815C132 27.2315 132.679 28.8857 134.037 30.244C135.396 31.6023 137.05 32.2815 139 32.2815C140.95 32.2815 142.604 31.6023 143.963 30.244C145.321 28.8857 146 27.2315 146 25.2815C146 23.3315 145.321 21.6773 143.963 20.319C142.604 18.9607 140.95 18.2815 139 18.2815H138.85L139.7 19.1315C139.9 19.3315 139.996 19.5648 139.988 19.8315C139.979 20.0982 139.883 20.3315 139.7 20.5315C139.5 20.7315 139.262 20.8357 138.988 20.844C138.713 20.8523 138.475 20.7565 138.275 20.5565L135.7 17.9815C135.5 17.7815 135.4 17.5482 135.4 17.2815C135.4 17.0148 135.5 16.7815 135.7 16.5815L138.275 14.0065C138.475 13.8065 138.713 13.7107 138.988 13.719C139.262 13.7273 139.5 13.8315 139.7 14.0315C139.883 14.2315 139.979 14.4648 139.988 14.7315C139.996 14.9982 139.9 15.2315 139.7 15.4315L138.85 16.2815H139C140.25 16.2815 141.421 16.519 142.512 16.994C143.604 17.469 144.554 18.1107 145.363 18.919C146.171 19.7273 146.812 20.6773 147.288 21.769C147.763 22.8607 148 24.0315 148 25.2815C148 26.5315 147.763 27.7023 147.288 28.794C146.812 29.8857 146.171 30.8357 145.363 31.644C144.554 32.4523 143.604 33.094 142.512 33.569C141.421 34.044 140.25 34.2815 139 34.2815Z" fill="white" stroke="white" stroke-width="2"/>
<defs>
<linearGradient id="paint0_linear_54_157" x1="71.5162" y1="28.9072" x2="84.1165" y2="-7.92774" gradientUnits="userSpaceOnUse">
<stop stop-color="#E53935"/>
<stop offset="0.948" stop-color="#C62828"/>
</linearGradient>
<linearGradient id="paint1_linear_54_157" x1="169.164" y1="45.5717" x2="151.243" y2="-5.73215" gradientUnits="userSpaceOnUse">
<stop stop-color="#EF5350"/>
<stop offset="0.948" stop-color="#B71B1C"/>
</linearGradient>
</defs>
</svg>
