<svg width="50" height="50" viewBox="0 0 50 50" fill="none" xmlns="http://www.w3.org/2000/svg">
<rect x="1.875" y="1.875" width="46.25" height="46.25" rx="8.125" fill="#1565C0"/>
<rect x="1.875" y="1.875" width="46.25" height="46.25" rx="8.125" stroke="url(#paint0_linear_54_218)" stroke-width="3.75"/>
<mask id="mask0_54_218" style="mask-type:alpha" maskUnits="userSpaceOnUse" x="10" y="10" width="30" height="30">
<rect x="10" y="10" width="30" height="30" fill="#D9D9D9"/>
</mask>
<g mask="url(#mask0_54_218)">
<path d="M30.9688 34.4688C30.7396 34.6146 30.5104 34.75 30.2813 34.875C30.0521 35 29.8125 35.1146 29.5625 35.2188C29.25 35.3646 28.9323 35.3646 28.6094 35.2188C28.2865 35.0729 28.0625 34.8333 27.9375 34.5C27.8125 34.1875 27.8281 33.8802 27.9844 33.5781C28.1406 33.276 28.375 33.0521 28.6875 32.9062C28.7708 32.8646 28.849 32.8229 28.9219 32.7812C28.9948 32.7396 29.0729 32.6979 29.1563 32.6562L25 28.5V31.9688C25 32.5312 24.7448 32.9219 24.2344 33.1406C23.724 33.3594 23.2708 33.2708 22.875 32.875L18.75 28.75H15C14.6458 28.75 14.349 28.6302 14.1094 28.3906C13.8698 28.151 13.75 27.8542 13.75 27.5V22.5C13.75 22.1458 13.8698 21.849 14.1094 21.6094C14.349 21.3698 14.6458 21.25 15 21.25H17.75L12.625 16.125C12.3958 15.8958 12.2812 15.6042 12.2812 15.25C12.2812 14.8958 12.3958 14.6042 12.625 14.375C12.8542 14.1458 13.1458 14.0312 13.5 14.0312C13.8542 14.0312 14.1458 14.1458 14.375 14.375L35.625 35.625C35.8542 35.8542 35.9688 36.1458 35.9688 36.5C35.9688 36.8542 35.8542 37.1458 35.625 37.375C35.3958 37.6042 35.1042 37.7188 34.75 37.7188C34.3958 37.7188 34.1042 37.6042 33.875 37.375L30.9688 34.4688ZM33.75 24.9688C33.75 23.2396 33.2917 21.6615 32.375 20.2344C31.4583 18.8073 30.2292 17.7396 28.6875 17.0312C28.375 16.8854 28.1458 16.6615 28 16.3594C27.8542 16.0573 27.8333 15.75 27.9375 15.4375C28.0625 15.1042 28.2865 14.8646 28.6094 14.7188C28.9323 14.5729 29.2604 14.5729 29.5938 14.7188C31.6146 15.6146 33.2292 16.9792 34.4375 18.8125C35.6458 20.6458 36.25 22.6979 36.25 24.9688C36.25 25.6562 36.1875 26.3385 36.0625 27.0156C35.9375 27.6927 35.7604 28.3438 35.5313 28.9688C35.3646 29.4271 35.1094 29.7135 34.7656 29.8281C34.4219 29.9427 34.1042 29.9479 33.8125 29.8438C33.5208 29.7396 33.2865 29.5521 33.1094 29.2812C32.9323 29.0104 32.9271 28.6979 33.0938 28.3438C33.3229 27.8021 33.4896 27.2552 33.5938 26.7031C33.6979 26.151 33.75 25.5729 33.75 24.9688ZM28.4688 20.5313C29.1563 20.9688 29.6875 21.625 30.0625 22.5C30.4375 23.375 30.625 24.2083 30.625 25V25.3125C30.625 25.4167 30.6146 25.5208 30.5938 25.625C30.5521 25.8958 30.4063 26.0729 30.1563 26.1562C29.9063 26.2396 29.6771 26.1771 29.4688 25.9688L27.875 24.375C27.75 24.25 27.6563 24.1094 27.5938 23.9531C27.5313 23.7969 27.5 23.6354 27.5 23.4688V21.0625C27.5 20.8125 27.6094 20.6302 27.8281 20.5156C28.0469 20.401 28.2604 20.4063 28.4688 20.5313ZM22.1875 18.6875C22.0625 18.5625 22 18.4167 22 18.25C22 18.0833 22.0625 17.9375 22.1875 17.8125L22.875 17.125C23.2708 16.7292 23.724 16.6406 24.2344 16.8594C24.7448 17.0781 25 17.4688 25 18.0312V20C25 20.2917 24.875 20.4896 24.625 20.5938C24.375 20.6979 24.1458 20.6458 23.9375 20.4375L22.1875 18.6875Z" fill="white"/>
</g>
<defs>
<linearGradient id="paint0_linear_54_218" x1="58.9749" y1="10" x2="20.1853" y2="34.8833" gradientUnits="userSpaceOnUse">
<stop stop-color="#1E88E5"/>
<stop offset="0.948" stop-color="#0D47A1"/>
</linearGradient>
</defs>
</svg>
