<svg width="100" height="100" viewBox="0 0 100 100" fill="none" xmlns="http://www.w3.org/2000/svg">
<rect x="3.75" y="3.75" width="92.5" height="92.5" rx="16.25" fill="#1565C0"/>
<rect x="3.75" y="3.75" width="92.5" height="92.5" rx="16.25" stroke="url(#paint0_linear_354_9923)" stroke-width="7.5"/>
<path d="M55.5568 26.4545L54.6705 59.0455H46.3523L45.4432 26.4545H55.5568ZM50.5114 73.5909C49.0114 73.5909 47.7235 73.0606 46.6477 72C45.572 70.9242 45.0417 69.6364 45.0568 68.1364C45.0417 66.6515 45.572 65.3788 46.6477 64.3182C47.7235 63.2576 49.0114 62.7273 50.5114 62.7273C51.9508 62.7273 53.2159 63.2576 54.3068 64.3182C55.3977 65.3788 55.9508 66.6515 55.9659 68.1364C55.9508 69.1364 55.6856 70.053 55.1705 70.8864C54.6705 71.7045 54.0114 72.3636 53.1932 72.8636C52.375 73.3485 51.4811 73.5909 50.5114 73.5909Z" fill="white"/>
<defs>
<linearGradient id="paint0_linear_354_9923" x1="103.149" y1="94.941" x2="44.1124" y2="45.4768" gradientUnits="userSpaceOnUse">
<stop stop-color="#1976D2"/>
<stop offset="0.948" stop-color="#0D47A1"/>
</linearGradient>
</defs>
</svg>
