<svg width="248" height="137" viewBox="0 0 248 137" fill="none" xmlns="http://www.w3.org/2000/svg">
<path d="M247.452 41.7871L215.605 20.8629L199.682 10.4007L191.72 5.16968L187.738 2.55572L183.234 0L183.553 25.4987C168.329 25.6767 153.093 26.8855 137.974 29.3C124.502 31.417 111.116 34.4298 97.9603 38.6085C84.7952 42.7259 71.8633 48.0183 59.4131 54.7711C47.0059 61.5853 35.022 69.9028 24.52 80.7638C14.0978 91.5082 5.07151 105.471 1.57085 121.962C0.515435 126.702 0.101246 131.602 0 136.486H32.6933C32.7946 133.887 32.9633 131.295 33.5554 128.727C35.4147 119.885 40.6151 111.098 48.095 103.415C55.5351 95.6961 64.9019 89.0383 75.0848 83.4637C95.5764 72.345 119.118 65.3682 143.067 61.5945C156.539 59.4407 170.235 58.3485 183.958 58.192L184.277 83.6907L187.735 81.0246L191.717 78.4075L199.679 73.1765L215.602 62.7143L247.452 41.7871Z" fill="#B71B1C"/>
</svg>
