<svg width="40" height="40" viewBox="0 0 40 40" fill="none" xmlns="http://www.w3.org/2000/svg">
<path d="M39.455 21.8472C39.8234 22.4179 39.9995 23.057 39.9995 23.6896C39.9995 24.8341 39.4223 25.9558 38.369 26.5981C37.3485 27.2209 36.7419 28.3264 36.7419 29.5003C36.7419 29.6405 36.7517 29.7807 36.768 29.9241C36.7876 30.0676 36.7942 30.2111 36.7942 30.3513C36.7942 32.073 35.4898 33.5567 33.729 33.7328C33.0638 33.798 32.4474 34.0588 31.9453 34.4599C31.4431 34.861 31.0551 35.4023 30.8431 36.0382C30.3638 37.4631 29.0367 38.3565 27.6182 38.3565C27.2302 38.3565 26.8356 38.2914 26.4509 38.1512C26.2617 38.0827 26.0694 38.0305 25.8737 37.9979C25.6781 37.962 25.4825 37.9458 25.2868 37.9458C24.3868 37.9458 23.5031 38.3044 22.851 38.9729C22.1858 39.6576 21.2989 40 20.4152 40C19.5316 40 18.6446 39.6576 17.9794 38.9729C17.3273 38.3044 16.4436 37.9458 15.5436 37.9458C15.1524 37.9458 14.7578 38.0142 14.3795 38.1512C13.9947 38.2914 13.6001 38.3565 13.2122 38.3565C11.7937 38.3565 10.4666 37.4631 9.98728 36.0382C9.77531 35.4023 9.38731 34.861 8.88514 34.4599C8.38297 34.0588 7.76669 33.798 7.10151 33.7328C5.34066 33.5567 4.03637 32.0731 4.03637 30.3513C4.03637 30.2111 4.04289 30.0676 4.06244 29.9241C4.07875 29.7807 4.08856 29.6405 4.08856 29.5003C4.08856 28.3264 3.48202 27.221 2.46142 26.5981C1.40818 25.9558 0.831055 24.8341 0.831055 23.6896C0.831055 23.057 1.00715 22.4178 1.37555 21.8472C1.74077 21.2831 1.9201 20.644 1.9201 19.9984C1.9201 19.3593 1.74077 18.7136 1.37555 18.1528C1.0071 17.5822 0.831055 16.943 0.831055 16.3105C0.831055 15.166 1.40818 14.0475 2.46142 13.4051C3.48202 12.7823 4.08856 11.6736 4.08856 10.4998C4.08856 10.3596 4.07875 10.2194 4.06244 10.0759C4.04289 9.93239 4.03637 9.78893 4.03637 9.64875C4.03637 7.92705 5.34066 6.44338 7.10151 6.26728C7.76669 6.19878 8.38297 5.94121 8.88514 5.54012C9.38731 5.14226 9.77537 4.60105 9.98728 3.96517C10.4666 2.54019 11.797 1.64351 13.2155 1.64351C13.6035 1.64351 13.9948 1.70872 14.3795 1.8489C14.7578 1.98907 15.1524 2.05434 15.5437 2.05434C16.4436 2.05434 17.3273 1.69564 17.9795 1.02717C18.6447 0.342391 19.5316 0 20.4153 0C21.299 0 22.1859 0.342391 22.8511 1.02717C23.7869 1.98584 25.1956 2.30869 26.4509 1.8489C26.8358 1.70872 27.227 1.64351 27.615 1.64351C29.0335 1.64351 30.3639 2.54019 30.8433 3.96517C31.0552 4.60105 31.4432 5.14226 31.9454 5.54012C32.4476 5.94116 33.0639 6.19878 33.7291 6.26728C35.4899 6.44338 36.7943 7.92705 36.7943 9.64875C36.7943 9.78893 36.7877 9.93239 36.7681 10.0759C36.7518 10.2194 36.742 10.3596 36.742 10.4998C36.742 11.6737 37.3486 12.7823 38.3692 13.4051C39.4225 14.0475 39.9996 15.1659 39.9996 16.3105C39.9996 16.943 39.8235 17.5822 39.4551 18.1528C39.0899 18.7136 38.9105 19.3593 38.9105 19.9984C38.9105 20.3538 38.9659 20.7092 39.0768 21.0516C39.1648 21.3287 39.2919 21.5962 39.455 21.8472Z" fill="#16A75C"/>
<path d="M39.9993 23.6893C39.9993 24.8339 39.4222 25.9556 38.3689 26.5979C37.3484 27.2207 36.7418 28.3261 36.7418 29.5001C36.7418 29.6402 36.7516 29.7805 36.7679 29.9239C36.7875 30.0674 36.794 30.2109 36.794 30.3511C36.794 32.0728 35.4897 33.5565 33.7288 33.7326C33.0636 33.7978 32.4473 34.0586 31.9451 34.4597C31.443 34.8608 31.055 35.4021 30.843 36.038C30.3637 37.4629 29.0365 38.3563 27.6181 38.3563C27.23 38.3563 26.8355 38.2912 26.4507 38.1509C26.2616 38.0824 26.0692 38.0303 25.8736 37.9977L9.85993 21.9872C9.03497 21.159 9.03497 19.8156 9.85993 18.9906C9.91211 18.9384 9.96429 18.8895 10.0197 18.8439C10.8512 18.1656 12.0806 18.2113 12.8598 18.9906L16.9097 23.0405L27.4878 12.4625C27.5399 12.4136 27.5921 12.3647 27.6475 12.3191C28.4791 11.6375 29.7083 11.6865 30.4877 12.4625L39.0766 21.0514C39.1646 21.3286 39.2918 21.596 39.4549 21.847C39.8233 22.4176 39.9993 23.0567 39.9993 23.6893Z" fill="#069550"/>
<path d="M30.4862 12.4635C29.6585 11.6359 28.3165 11.6359 27.4888 12.4635L16.9106 23.0418L12.8584 18.9897C12.0307 18.1621 10.6886 18.1621 9.86101 18.9897C9.03331 19.8175 9.03331 21.1594 9.86101 21.9871L15.4119 27.5379C15.8258 27.9517 16.3681 28.1587 16.9106 28.1587C17.4531 28.1587 17.9954 27.9517 18.4093 27.5379L30.4862 15.461C31.3139 14.6332 31.3139 13.2913 30.4862 12.4635Z" fill="white"/>
</svg>
