<svg width="50" height="50" viewBox="0 0 50 50" fill="none" xmlns="http://www.w3.org/2000/svg">
<path d="M36.2541 28.7144V48.3742C36.2541 49.66 34.8305 50.4322 33.7482 49.7408L28.9335 46.6457L24.867 44.0311L20.7996 46.6457L15.9849 49.7408C14.9036 50.4322 13.48 49.66 13.48 48.3742V28.7144H36.2541Z" fill="#F41943"/>
<path d="M28.9332 28.7144V46.6459L24.8667 44.0313L20.7993 46.6459V28.7144H28.9332Z" fill="#EBF2F2"/>
<path d="M36.2539 28.7144V31.2483C34.6892 32.3274 32.1283 33.7995 28.9331 34.5759V28.7144H36.2539Z" fill="#C6123D"/>
<path d="M28.9332 28.7144V34.5759C27.5913 34.9033 26.1366 35.1068 24.5975 35.1068C23.2547 35.1068 21.9839 34.9485 20.7993 34.688V28.7144H28.9332Z" fill="#C3DBDA"/>
<path d="M20.7991 28.7144V34.688C17.6482 33.9912 15.1099 32.5643 13.4795 31.4358V28.7146H20.7991V28.7144Z" fill="#C6123D"/>
<path d="M24.8666 33.7332C34.1818 33.7332 41.7332 26.1818 41.7332 16.8666C41.7332 7.55144 34.1818 0 24.8666 0C15.5514 0 8 7.55144 8 16.8666C8 26.1818 15.5514 33.7332 24.8666 33.7332Z" fill="#E37F22"/>
<path d="M24.8663 32.2334C33.3532 32.2334 40.2332 25.3535 40.2332 16.8666C40.2332 8.37972 33.3532 1.49976 24.8663 1.49976C16.3795 1.49976 9.49951 8.37972 9.49951 16.8666C9.49951 25.3535 16.3795 32.2334 24.8663 32.2334Z" fill="#BA6017"/>
<path d="M39.2928 16.8664C39.2928 24.8214 32.8217 31.2936 24.8667 31.2936C22.6105 31.2936 20.474 30.7735 18.5711 29.8464C16.5854 28.8794 14.8537 27.4708 13.5043 25.7478C12.8883 24.9616 12.352 24.1098 11.9072 23.2042C10.9683 21.2905 10.4395 19.1389 10.4395 16.8666C10.4395 15.1813 10.7302 13.5636 11.2634 12.0593C12.8689 7.52765 16.6792 4.03108 21.397 2.86253C22.5083 2.58677 23.6713 2.44031 24.8667 2.44031C27.5277 2.44031 30.0218 3.16394 32.1638 4.42507C33.119 4.98822 34.0043 5.65698 34.8033 6.41733C36.31 7.85078 37.5074 9.60498 38.2849 11.5702C38.9351 13.2103 39.2928 14.9969 39.2928 16.8664Z" fill="#E37F22"/>
<path d="M32.1636 4.42488L11.9072 23.204C10.9683 21.2903 10.4395 19.1388 10.4395 16.8664C10.4395 15.1811 10.7302 13.5635 11.2634 12.0592L21.397 2.86234C22.5083 2.58659 23.6713 2.44012 24.8667 2.44012C27.5275 2.44032 30.0218 3.16395 32.1636 4.42488Z" fill="#F79A4D"/>
<path d="M38.285 11.5702L18.5712 29.8462C16.5855 28.8792 14.8538 27.4706 13.5044 25.7476L34.8034 6.41714C36.3099 7.85059 37.5075 9.6048 38.285 11.5702Z" fill="#F79A4D"/>
</svg>
