<svg width="60" height="60" viewBox="0 0 60 60" fill="none" xmlns="http://www.w3.org/2000/svg">
<path d="M30.3994 50.1274V53.9781C31.6165 53.9571 32.8136 53.8366 33.9818 53.6223V49.7715C32.817 49.9843 31.6203 50.1051 30.3994 50.1274Z" fill="#ED8118"/>
<path d="M8.00886 29.9971C7.63331 34.2929 8.51689 38.4149 10.3585 41.9935V38.15C9.08134 35.6689 8.26198 32.9141 8.00886 29.9971Z" fill="#ED8118"/>
<path d="M18.0039 46.5947V50.4467C19.0226 51.1067 20.1017 51.6852 21.2324 52.1736V48.3242C20.1043 47.8359 19.025 47.2566 18.0039 46.5947Z" fill="#ED8118"/>
<path d="M46.6484 42.5374V46.3889C47.5396 45.3651 48.3383 44.2557 49.0321 43.0736V39.2207C48.3394 40.4006 47.541 41.5109 46.6484 42.5374Z" fill="#ED8118"/>
<path d="M49.9121 37.5661V41.4164C50.9815 39.1748 51.6887 36.7138 51.9489 34.1001C52.088 32.7027 52.092 31.3233 51.9744 29.9736C51.7431 32.6724 51.0271 35.2326 49.9121 37.5661Z" fill="#ED8118"/>
<path d="M43.085 45.8279V49.6759C44.0637 48.9539 44.982 48.1517 45.8302 47.2784V43.4277C44.9834 44.3007 44.0653 45.1039 43.085 45.8279Z" fill="#ED8118"/>
<path d="M14.4404 43.7207V47.5699C15.2888 48.4136 16.2061 49.1905 17.1856 49.8896V46.0381C16.2082 45.3404 15.2902 44.5648 14.4404 43.7207Z" fill="#ED8118"/>
<path d="M34.8525 49.5939V53.4442C36.0091 53.1832 37.1341 52.8302 38.219 52.3932V48.5459C37.1366 48.9812 36.0119 49.3332 34.8525 49.5939Z" fill="#ED8118"/>
<path d="M26.2881 49.8213V53.6677C26.7875 53.7522 27.2926 53.8216 27.8042 53.8726C28.4001 53.9319 28.9926 53.966 29.5811 53.9776V50.127C28.461 50.1066 27.3614 50.0026 26.2881 49.8213Z" fill="#ED8118"/>
<path d="M39.0371 48.1977V52.0449C40.1646 51.537 41.2443 50.9365 42.2656 50.252V46.4043C41.2463 47.0879 40.1671 47.6891 39.0371 48.1977Z" fill="#ED8118"/>
<path d="M22.0518 48.6592V52.5076C23.1325 52.9235 24.2568 53.2579 25.4183 53.5024V49.6563C24.26 49.4122 23.1353 49.0772 22.0518 48.6592Z" fill="#ED8118"/>
<path d="M11.2383 39.6992V43.5445C11.9374 44.67 12.7349 45.731 13.6219 46.7127V42.8633C12.7365 41.8845 11.9385 40.8255 11.2383 39.6992Z" fill="#ED8118"/>
<path d="M13.6211 42.8633V46.7127C13.8859 47.0058 14.1595 47.2913 14.4398 47.57V43.7208C14.1594 43.4423 13.8863 43.1565 13.6211 42.8633Z" fill="#ED8118"/>
<path d="M10.3584 38.1504V41.9939C10.6309 42.5233 10.9248 43.0405 11.2381 43.545V39.6996C10.9251 39.1962 10.6309 38.6798 10.3584 38.1504Z" fill="#ED8118"/>
<path d="M17.1855 46.0381V49.8897C17.4539 50.0812 17.7269 50.2667 18.0043 50.4464V46.5944C17.7271 46.4148 17.4539 46.2297 17.1855 46.0381Z" fill="#ED8118"/>
<path d="M29.9904 50.1321C29.8535 50.1321 29.7173 50.1294 29.5811 50.127V53.9776C29.855 53.983 30.1278 53.9824 30.3998 53.9777V50.127C30.2635 50.1294 30.1272 50.1321 29.9904 50.1321Z" fill="#ED8118"/>
<path d="M21.2324 48.3242V52.1736C21.5024 52.2902 21.7754 52.4015 22.0511 52.5076V48.6593C21.7755 48.5529 21.5026 48.4412 21.2324 48.3242Z" fill="#ED8118"/>
<path d="M25.418 49.6562V53.5023C25.7058 53.5629 25.9959 53.6179 26.2882 53.6674V49.821C25.9961 49.7716 25.706 49.7169 25.418 49.6562Z" fill="#ED8118"/>
<path d="M45.8301 43.427V47.2776C46.1106 46.9887 46.384 46.6927 46.6488 46.3885V42.5371C46.3842 42.8414 46.1107 43.1376 45.8301 43.427Z" fill="#ED8118"/>
<path d="M49.0322 39.2208V43.0737C49.3477 42.5361 49.6415 41.9835 49.912 41.4166V37.5664C49.6418 38.1317 49.3478 38.6833 49.0322 39.2208Z" fill="#ED8118"/>
<path d="M42.2656 46.4041V50.2518C42.543 50.0659 42.8158 49.8733 43.0843 49.6752V45.8271C42.8159 46.0253 42.5431 46.2179 42.2656 46.4041Z" fill="#ED8118"/>
<path d="M38.2188 48.545V52.3923C38.4941 52.2814 38.7674 52.1662 39.0375 52.0446V48.1973C38.7675 48.3188 38.4943 48.4342 38.2188 48.545Z" fill="#ED8118"/>
<path d="M33.9824 49.7713V53.6222C34.2744 53.5686 34.5644 53.5091 34.8527 53.444V49.5938C34.5646 49.6585 34.2746 49.7179 33.9824 49.7713Z" fill="#ED8118"/>
<path d="M11.2383 39.6996C11.9386 40.8258 12.7366 41.8849 13.622 42.8637C13.8872 43.1568 14.1603 43.4427 14.4407 43.7212C15.2905 44.5653 16.2084 45.3409 17.1859 46.0385C17.4543 46.2301 17.7275 46.4153 18.0046 46.5949C19.0257 47.2568 20.105 47.8361 21.2331 48.3244C21.5033 48.4413 21.7762 48.5531 22.0518 48.6594C23.1354 49.0774 24.26 49.4124 25.4183 49.6565C25.7063 49.7172 25.9965 49.7719 26.2885 49.8212C27.3619 50.0026 28.4614 50.1065 29.5815 50.1269C29.7178 50.1294 29.854 50.1321 29.9909 50.1321C30.1277 50.1321 30.264 50.1294 30.4002 50.1269C31.6211 50.1047 32.8179 49.9839 33.9826 49.7711C34.2748 49.7177 34.5648 49.6583 34.8528 49.5935C36.0122 49.3328 37.1369 48.9808 38.2193 48.5455C38.4949 48.4346 38.7681 48.3192 39.038 48.1978C40.168 47.6892 41.2472 47.088 42.2665 46.4044C42.544 46.2182 42.8168 46.0256 43.0852 45.8274C44.0656 45.1035 44.9836 44.3002 45.8304 43.4273C46.1111 43.138 46.3845 42.8418 46.6491 42.5375C47.5417 41.5109 48.34 40.4006 49.0328 39.2207C49.3483 38.6832 49.6424 38.1317 49.9125 37.5663C51.0275 35.2328 51.7435 32.6726 51.9748 29.9738C52.0287 29.3446 52.0579 28.7083 52.0579 28.0651C52.0579 15.8778 42.1781 5.99805 29.9909 5.99805C17.8036 5.99805 7.92383 15.8778 7.92383 28.0651C7.92383 28.7163 7.95374 29.3605 8.00899 29.9974C8.26211 32.9144 9.08147 35.6691 10.3586 38.1503C10.6311 38.6798 10.9253 39.1961 11.2383 39.6996Z" fill="#F7A531"/>
<path d="M15.9785 28.0656C15.9785 37.1022 22.8675 44.5297 31.6801 45.3831C40.4966 44.5334 47.39 37.1049 47.39 28.0656C47.39 19.0262 40.4966 11.5977 31.6801 10.748C22.8674 11.6014 15.9785 19.029 15.9785 28.0656Z" fill="#F39117"/>
<path d="M29.9902 45.4648C30.1367 45.4648 30.2826 45.4629 30.4282 45.4593C30.4805 45.458 30.5324 45.4554 30.5846 45.4536C30.6776 45.4505 30.7706 45.4476 30.8632 45.4431C30.9257 45.44 30.9878 45.4355 31.0501 45.4318C31.132 45.4269 31.2138 45.4223 31.2954 45.4162C31.3617 45.4113 31.4277 45.4051 31.4939 45.3995C31.5572 45.394 31.6208 45.3895 31.6839 45.3834L31.6797 45.383C22.867 44.5295 15.9781 37.1021 15.9781 28.0655C15.9781 19.0289 22.8671 11.6014 31.6797 10.7479L31.6839 10.7475C31.6207 10.7414 31.5572 10.7368 31.4939 10.7314C31.4277 10.7257 31.3617 10.7196 31.2954 10.7146C31.2134 10.7085 31.131 10.704 31.0487 10.699C30.987 10.6953 30.9255 10.6909 30.8636 10.6878C30.7702 10.6832 30.6765 10.6803 30.5827 10.6772C30.5312 10.6754 30.4799 10.6728 30.4282 10.6716C30.2826 10.668 30.1367 10.666 29.9902 10.666C20.3808 10.666 12.5908 18.456 12.5908 28.0654C12.5908 37.6749 20.3808 45.4648 29.9902 45.4648Z" fill="#EE7016"/>
<path d="M39.5879 27.158L36.1688 30.3849C35.856 30.6801 35.7084 31.1104 35.7743 31.5355L36.4942 36.1814C36.6601 37.2518 35.5265 38.0478 34.576 37.5283L30.4505 35.2737C30.073 35.0675 29.6182 35.0601 29.2343 35.2541L25.0382 37.3745C24.9916 37.398 24.9445 37.4158 24.8975 37.4334C25.0433 38.2479 25.956 38.7772 26.7717 38.365L30.9678 36.2446C31.3517 36.0506 31.8065 36.058 32.184 36.2643L36.3095 38.5188C37.26 39.0383 38.3936 38.2423 38.2277 37.1719L37.5078 32.526C37.442 32.1009 37.5895 31.6706 37.9023 31.3754L41.3214 28.1485C42.1091 27.405 41.7024 26.081 40.6331 25.9079L39.9288 25.7939C40.0796 26.2463 39.9907 26.7778 39.5879 27.158Z" fill="#EE7016"/>
<path d="M34.2582 24.1658L34.9493 24.2776L33.007 20.1767C32.7033 19.5354 32.0051 19.3075 31.4199 19.4953L33.2859 23.4351C33.47 23.8238 33.8336 24.0971 34.2582 24.1658Z" fill="#EE7016"/>
<path d="M20.3637 26.848L23.6769 30.1835C23.98 30.4887 24.1136 30.9235 24.034 31.3462L23.1646 35.9665C22.974 36.9797 23.9678 37.7798 24.8977 37.4335C24.9447 37.4159 24.9918 37.3981 25.0384 37.3746L29.2345 35.2542C29.6184 35.0602 30.0732 35.0676 30.4506 35.2739L34.5761 37.5284C35.5267 38.0479 36.6602 37.2519 36.4944 36.1815L35.7745 31.5356C35.7086 31.1105 35.8562 30.6802 36.169 30.385L39.5881 27.1581C39.991 26.7779 40.0798 26.2464 39.929 25.7941C39.7849 25.362 39.4223 25.0021 38.8998 24.9176L34.9499 24.2784L34.2588 24.1665C33.8342 24.0978 33.4706 23.8246 33.2865 23.4358L31.4205 19.4961L31.274 19.187C30.8104 18.208 29.4254 18.1857 28.9304 19.1491L26.7821 23.3309C26.5855 23.7135 26.2132 23.9749 25.7866 24.0299L21.1238 24.6308C20.0495 24.7693 19.6003 26.0795 20.3637 26.848Z" fill="#FDC74E"/>
</svg>
