<svg width="50" height="50" viewBox="0 0 50 50" fill="none" xmlns="http://www.w3.org/2000/svg">
<g clip-path="url(#clip0_385_745)">
<path d="M36.254 28.7141V48.3739C36.254 49.6597 34.8304 50.4319 33.7481 49.7405L28.9334 46.6454L24.867 44.031L20.7996 46.6456L15.9849 49.7407C14.9036 50.4321 13.48 49.6599 13.48 48.3741V28.7143H36.254V28.7141Z" fill="#F41943"/>
<path d="M28.9329 28.7141V46.6456L24.8667 44.031L20.7993 46.6456V28.7141H28.9329Z" fill="#EBF2F2"/>
<path d="M36.2539 28.7141V31.248C34.6892 32.3272 32.1282 33.7993 28.9331 34.5756V28.7141H36.2539Z" fill="#C6123D"/>
<path d="M28.9331 28.7141V34.5756C27.5913 34.9031 26.1365 35.1066 24.5975 35.1066C23.2546 35.1066 21.9839 34.9483 20.7993 34.6877V28.7141H28.9331Z" fill="#C3DBDA"/>
<path d="M20.7996 28.7141V34.6877C17.6486 33.991 15.1104 32.564 13.48 31.4356V28.7143H20.7996V28.7141Z" fill="#C6123D"/>
<path d="M24.8665 33.733C34.1817 33.733 41.7331 26.1816 41.7331 16.8665C41.7331 7.55138 34.1817 -3.05176e-05 24.8665 -3.05176e-05C15.5514 -3.05176e-05 8 7.55138 8 16.8665C8 26.1816 15.5514 33.733 24.8665 33.733Z" fill="#F9B906"/>
<path d="M24.8663 32.2332C33.3531 32.2332 40.2331 25.3532 40.2331 16.8664C40.2331 8.37957 33.3531 1.49963 24.8663 1.49963C16.3794 1.49963 9.49951 8.37957 9.49951 16.8664C9.49951 25.3532 16.3794 32.2332 24.8663 32.2332Z" fill="#E8A615"/>
<path d="M39.2927 16.8664C39.2927 24.8214 32.8216 31.2936 24.8667 31.2936C22.6105 31.2936 20.4739 30.7734 18.5711 29.8463C16.5854 28.8793 14.8537 27.4707 13.5043 25.7477C12.8883 24.9615 12.352 24.1098 11.9072 23.2041C10.9683 21.2904 10.4395 19.1389 10.4395 16.8666C10.4395 15.1812 10.7302 13.5636 11.2634 12.0593C12.8689 7.52766 16.6791 4.0311 21.3969 2.86255C22.5082 2.5868 23.6713 2.44034 24.8667 2.44034C27.5277 2.44034 30.0217 3.16397 32.1637 4.42509C33.1189 4.98824 34.0042 5.657 34.8032 6.41734C36.3097 7.85079 37.5073 9.60499 38.2848 11.5702C38.9352 13.2103 39.2927 14.9969 39.2927 16.8664Z" fill="#F9B906"/>
<path d="M32.1637 4.42488L11.9072 23.2039C10.9683 21.2902 10.4395 19.1387 10.4395 16.8663C10.4395 15.181 10.7302 13.5634 11.2634 12.0591L21.3969 2.86234C22.5082 2.58659 23.6713 2.44012 24.8667 2.44012C27.5277 2.44032 30.0217 3.16395 32.1637 4.42488Z" fill="#FFC943"/>
<path d="M38.2849 11.5701L18.5712 29.846C16.5854 28.879 14.8537 27.4704 13.5044 25.7474L34.8033 6.41702C36.3098 7.85047 37.5074 9.60467 38.2849 11.5701Z" fill="#FFC943"/>
</g>
<defs>
<clipPath id="clip0_385_745">
<rect width="50" height="50" fill="white"/>
</clipPath>
</defs>
</svg>
