<svg width="402" height="100" viewBox="0 0 402 100" fill="none" xmlns="http://www.w3.org/2000/svg">
<path d="M0.290527 85.1671V17.3291C0.290527 7.75847 8.04902 0 17.6197 0H384.38C393.951 0 401.709 7.75847 401.709 17.3291V85.1671C401.709 93.3584 395.068 100 386.876 100H15.1235C6.9321 100 0.290527 93.3603 0.290527 85.1671Z" fill="url(#paint0_linear_385_710)"/>
<path d="M4.104 83.4692V19.3925C4.104 10.7888 11.0791 3.81366 19.6828 3.81366H382.315C390.918 3.81366 397.893 10.7888 397.893 19.3925V83.4692C397.893 90.4931 392.2 96.1864 385.176 96.1864H16.8211C9.79729 96.1864 4.104 90.4931 4.104 83.4692Z" fill="url(#paint1_linear_385_710)"/>
<path d="M394.078 21.6675V80.4258C394.078 87.0242 388.733 92.3708 382.133 92.3708H19.8645C19.158 92.3708 18.4646 92.3109 17.7918 92.1909C17.0178 92.056 16.272 91.8498 15.558 91.5706C11.0865 89.8446 7.91943 85.5044 7.91943 80.4258V21.6675C7.91943 13.9128 14.2031 7.6273 21.9559 7.6273H380.043C382.457 7.6273 384.728 8.23635 386.709 9.3083C387.701 9.84052 388.617 10.4946 389.445 11.2423C392.292 13.8135 394.078 17.5297 394.078 21.6675Z" fill="url(#paint2_linear_385_710)"/>
<g opacity="0.3">
<path d="M41.0541 24.2012C36.6764 32.2914 28.1477 37.0345 19.113 42.0588C15.3144 44.1727 11.482 46.3035 7.91943 48.721V46.0336C11.2233 43.871 14.6734 41.9539 18.0204 40.0911C26.7553 35.2299 35.0104 30.6422 39.0714 23.1274C41.9986 17.7208 42.7239 12.511 41.234 7.6273H43.5803C44.9971 12.9139 44.1481 18.4798 41.0541 24.2012Z" fill="#932C11"/>
</g>
<g opacity="0.3">
<path d="M158.022 21.72C154.553 32.4226 146.907 41.7608 136.497 48.0201C124.315 55.3438 108.752 58.1661 91.4956 56.1815C59.088 52.454 39.8699 64.6652 29.4484 75.5664C23.8544 81.419 20.127 87.5152 17.7919 92.1928C17.018 92.0579 16.2721 91.8517 15.5581 91.5725C17.9531 86.7 21.8455 80.2627 27.818 74.0091C34.6807 66.8316 42.8664 61.4269 52.1579 57.9431C63.7375 53.5991 77.0599 52.2554 91.7542 53.9458C129.791 58.3235 150.066 38.9498 155.878 21.0285C157.375 16.4034 157.932 11.8532 157.615 7.63104H159.875C160.188 12.0837 159.594 16.87 158.022 21.72Z" fill="#932C11"/>
</g>
<g opacity="0.3">
<path d="M222.79 81.2297C220.103 84.9572 217.374 88.7371 215.242 92.3708H212.652C214.927 88.2836 217.97 84.067 220.967 79.9123C226.98 71.5747 233.197 62.9598 232.1 56.6912C231.707 54.4161 230.374 52.5327 228.032 50.9286C217.322 43.5974 207.847 48.601 194.732 55.5237C182.705 61.8748 167.829 69.7288 147.19 69.7288C146.497 69.7288 145.798 69.7213 145.087 69.7026C127.505 69.2528 114.048 74.3877 106.171 84.5561C104.08 87.2585 102.635 89.9796 101.64 92.3708H99.2036C100.266 89.6198 101.895 86.3946 104.391 83.1731C110.199 75.6732 121.994 66.8522 145.142 67.4481C166.299 67.9879 181.479 59.9745 193.679 53.5335C206.971 46.5171 217.472 40.9737 229.302 49.0695C232.132 51.0073 233.819 53.4398 234.317 56.2995C235.577 63.507 229.368 72.1145 222.79 81.2297Z" fill="#932C11"/>
</g>
<g opacity="0.3">
<path d="M303.33 7.6273C296.715 15.68 288.552 23.1161 270.563 24.7859C268.033 25.0183 265.627 25.1307 263.34 25.1307C245.629 25.1307 235.104 18.5435 229.226 12.6235C227.563 10.9499 226.182 9.25208 225.037 7.6273H227.841C228.727 8.77982 229.743 9.95859 230.903 11.1186C239.934 20.1496 253.577 24.1 270.353 22.5408C286.367 21.0547 294.251 14.7411 300.384 7.6273H303.33Z" fill="#932C11"/>
</g>
<g opacity="0.3">
<path d="M394.078 57.4746V59.997C390.534 58.1961 386.68 56.7418 382.862 55.3007C371.462 50.9942 359.671 46.5471 358.046 33.1647C357.392 27.7825 358.861 23.1424 362.409 19.3812C367.883 13.5811 377.506 10.7026 386.711 9.31018C387.703 9.8424 388.619 10.4964 389.448 11.2442C379.916 12.4342 369.542 15.1028 364.049 20.9292C360.981 24.1806 359.712 28.2079 360.284 32.8967C361.744 44.9242 372.386 48.9402 383.659 53.1943C387.161 54.5136 390.722 55.861 394.078 57.4746Z" fill="#932C11"/>
</g>
<g opacity="0.3">
<path d="M321.089 92.3708H318.371C316.945 90.1857 315.684 87.8394 314.411 85.4669C310.152 77.5304 305.744 69.3297 294.421 64.5996C289.136 62.392 283.936 62.482 278.962 64.862C269.097 69.5883 261.74 82.3467 257.265 92.3708H254.757C259.304 81.9156 267.1 68.0459 277.99 62.8324C283.569 60.1638 289.386 60.0588 295.287 62.5213C307.348 67.5587 312.153 76.5091 316.394 84.4025C317.903 87.2098 319.37 89.9384 321.089 92.3708Z" fill="#932C11"/>
</g>
<g opacity="0.3">
<path d="M394.078 74.9574V78.4562C388.076 71.3461 379.225 62.7724 370.561 61.4025C366.53 60.7654 362.855 61.7811 359.634 64.4328C354.237 68.8705 351.943 74.3277 352.812 80.6563C353.356 84.6274 355.132 88.6434 357.629 92.3727H354.99C352.715 88.7127 351.112 84.8241 350.582 80.9655C349.61 73.9079 352.244 67.5906 358.202 62.6919C361.941 59.6166 366.217 58.4359 370.914 59.1781C379.48 60.5348 387.937 68.0535 394.078 74.9574Z" fill="#932C11"/>
</g>
<path d="M34.5752 60.3647H44.8716V68.4478H23.894V34.3832H34.5752V60.3647ZM58.914 42.8994V47.0853H69.4991V55.1203H58.914V59.9317H70.9425V68.4478H48.2328V34.3832H70.9425V42.8994H58.914ZM96.8116 63.2996H85.4567L83.7727 68.4478H72.5622L85.0237 34.3832H97.3408L109.754 68.4478H98.4955L96.8116 63.2996ZM94.2134 55.2646L91.1341 45.7862L88.0548 55.2646H94.2134ZM126.374 34.3832C129.935 34.3832 133.046 35.1049 135.709 36.5484C138.403 37.9918 140.472 39.9965 141.915 42.5626C143.359 45.1287 144.08 48.0476 144.08 51.3193C144.08 54.559 143.359 57.4779 141.915 60.076C140.472 62.6742 138.403 64.727 135.709 66.2346C133.046 67.7101 129.935 68.4478 126.374 68.4478H112.181V34.3832H126.374ZM125.412 58.9213C127.818 58.9213 129.726 58.2637 131.138 56.9486C132.549 55.6335 133.255 53.7571 133.255 51.3193C133.255 48.8815 132.549 47.0051 131.138 45.69C129.726 44.3749 127.818 43.7173 125.412 43.7173H122.862V58.9213H125.412ZM158.619 42.8994V47.0853H169.204V55.1203H158.619V59.9317H170.647V68.4478H147.937V34.3832H170.647V42.8994H158.619ZM191.801 68.4478L185.402 56.2269H185.354V68.4478H174.672V34.3832H190.55C193.309 34.3832 195.666 34.8804 197.623 35.8748C199.579 36.837 201.039 38.1682 202.001 39.8682C202.995 41.5362 203.493 43.4286 203.493 45.5456C203.493 47.823 202.851 49.8438 201.568 51.608C200.317 53.3722 198.505 54.6391 196.131 55.409L203.541 68.4478H191.801ZM185.354 49.1061H189.588C190.614 49.1061 191.384 48.8815 191.897 48.4325C192.41 47.9513 192.667 47.2136 192.667 46.2192C192.667 45.3211 192.394 44.6154 191.849 44.1022C191.336 43.589 190.582 43.3324 189.588 43.3324H185.354V49.1061ZM229.711 50.9825C231.764 51.4636 233.351 52.458 234.474 53.9656C235.629 55.441 236.206 57.1571 236.206 59.1137C236.206 62.0968 235.212 64.4062 233.223 66.0421C231.267 67.6459 228.444 68.4478 224.755 68.4478H206.905V34.3832H224.274C227.738 34.3832 230.465 35.137 232.453 36.6446C234.442 38.1522 235.436 40.3494 235.436 43.2362C235.436 45.2249 234.907 46.9089 233.849 48.2881C232.822 49.6353 231.443 50.5334 229.711 50.9825ZM217.586 47.6626H221.724C222.686 47.6626 223.392 47.4702 223.841 47.0853C224.322 46.7004 224.563 46.107 224.563 45.3051C224.563 44.4711 224.322 43.8617 223.841 43.4767C223.392 43.0598 222.686 42.8513 221.724 42.8513H217.586V47.6626ZM222.446 59.8836C223.408 59.8836 224.114 59.7071 224.563 59.3543C225.044 58.9694 225.284 58.3599 225.284 57.526C225.284 55.8901 224.338 55.0722 222.446 55.0722H217.586V59.8836H222.446ZM256.394 68.7846C253.187 68.7846 250.236 68.0308 247.542 66.5233C244.879 65.0157 242.762 62.9308 241.191 60.2685C239.619 57.6062 238.833 54.6071 238.833 51.2712C238.833 47.9353 239.619 44.9362 241.191 42.2739C242.762 39.6116 244.879 37.5427 247.542 36.0672C250.236 34.5597 253.187 33.8059 256.394 33.8059C259.602 33.8059 262.537 34.5597 265.199 36.0672C267.862 37.5427 269.963 39.6116 271.502 42.2739C273.074 44.9362 273.86 47.9353 273.86 51.2712C273.86 54.6071 273.074 57.6062 271.502 60.2685C269.963 62.9308 267.846 65.0157 265.151 66.5233C262.489 68.0308 259.57 68.7846 256.394 68.7846ZM256.394 58.825C258.511 58.825 260.147 58.1515 261.302 56.8043C262.457 55.425 263.034 53.5806 263.034 51.2712C263.034 48.9296 262.457 47.0853 261.302 45.7381C260.147 44.3588 258.511 43.6692 256.394 43.6692C254.245 43.6692 252.593 44.3588 251.439 45.7381C250.284 47.0853 249.707 48.9296 249.707 51.2712C249.707 53.5806 250.284 55.425 251.439 56.8043C252.593 58.1515 254.245 58.825 256.394 58.825ZM299.557 63.2996H288.202L286.518 68.4478H275.307L287.769 34.3832H300.086L312.499 68.4478H301.241L299.557 63.2996ZM296.959 55.2646L293.879 45.7862L290.8 55.2646H296.959ZM332.055 68.4478L325.655 56.2269H325.607V68.4478H314.926V34.3832H330.804C333.562 34.3832 335.92 34.8804 337.876 35.8748C339.833 36.837 341.292 38.1682 342.255 39.8682C343.249 41.5362 343.746 43.4286 343.746 45.5456C343.746 47.823 343.105 49.8438 341.822 51.608C340.571 53.3722 338.758 54.6391 336.385 55.409L343.794 68.4478H332.055ZM325.607 49.1061H329.841C330.868 49.1061 331.638 48.8815 332.151 48.4325C332.664 47.9513 332.921 47.2136 332.921 46.2192C332.921 45.3211 332.648 44.6154 332.103 44.1022C331.589 43.589 330.836 43.3324 329.841 43.3324H325.607V49.1061ZM361.352 34.3832C364.913 34.3832 368.024 35.1049 370.686 36.5484C373.381 37.9918 375.449 39.9965 376.893 42.5626C378.336 45.1287 379.058 48.0476 379.058 51.3193C379.058 54.559 378.336 57.4779 376.893 60.076C375.449 62.6742 373.381 64.727 370.686 66.2346C368.024 67.7101 364.913 68.4478 361.352 68.4478H347.159V34.3832H361.352ZM360.39 58.9213C362.796 58.9213 364.704 58.2637 366.115 56.9486C367.527 55.6335 368.232 53.7571 368.232 51.3193C368.232 48.8815 367.527 47.0051 366.115 45.69C364.704 44.3749 362.796 43.7173 360.39 43.7173H357.84V58.9213H360.39Z" fill="#FFFFFA"/>
<defs>
<linearGradient id="paint0_linear_385_710" x1="200.999" y1="61.5905" x2="200.999" y2="-68.0458" gradientUnits="userSpaceOnUse">
<stop stop-color="#932C11"/>
<stop offset="1" stop-color="#C75411"/>
</linearGradient>
<linearGradient id="paint1_linear_385_710" x1="200.999" y1="99.7223" x2="200.999" y2="7.4875" gradientUnits="userSpaceOnUse">
<stop stop-color="#932C11"/>
<stop offset="0.9649" stop-color="#C55311"/>
<stop offset="1" stop-color="#C75411"/>
</linearGradient>
<linearGradient id="paint2_linear_385_710" x1="200.999" y1="29.6318" x2="200.999" y2="67.0872" gradientUnits="userSpaceOnUse">
<stop stop-color="#EA7D00"/>
<stop offset="1" stop-color="#C75411"/>
</linearGradient>
</defs>
</svg>
