<svg width="402" height="100" viewBox="0 0 402 100" fill="none" xmlns="http://www.w3.org/2000/svg">
<path d="M0.290649 85.1671V17.3291C0.290649 7.75847 8.04914 0 17.6198 0H384.38C393.951 0 401.709 7.75847 401.709 17.3291V85.1671C401.709 93.3584 395.068 100 386.876 100H15.1236C6.93222 100 0.290649 93.3603 0.290649 85.1671Z" fill="url(#paint0_linear_367_17403)"/>
<path d="M4.10425 83.4692V19.3925C4.10425 10.7888 11.0794 3.81366 19.683 3.81366H382.315C390.919 3.81366 397.894 10.7888 397.894 19.3925V83.4692C397.894 90.4931 392.2 96.1864 385.177 96.1864H16.8214C9.79754 96.1864 4.10425 90.4931 4.10425 83.4692Z" fill="url(#paint1_linear_367_17403)"/>
<path d="M394.078 21.6675V80.4258C394.078 87.0242 388.734 92.3708 382.133 92.3708H19.8649C19.1584 92.3708 18.465 92.3109 17.7922 92.1909C17.0182 92.056 16.2723 91.8498 15.5583 91.5706C11.0869 89.8446 7.9198 85.5044 7.9198 80.4258V21.6675C7.9198 13.9128 14.2034 7.6273 21.9563 7.6273H380.044C382.457 7.6273 384.729 8.23635 386.71 9.3083C387.701 9.84052 388.617 10.4946 389.446 11.2423C392.292 13.8135 394.078 17.5297 394.078 21.6675Z" fill="url(#paint2_linear_367_17403)"/>
<g opacity="0.3">
<path d="M41.0545 24.2012C36.6768 32.2914 28.1481 37.0345 19.1134 42.0588C15.3147 44.1727 11.4823 46.3035 7.9198 48.721V46.0336C11.2237 43.871 14.6738 41.9539 18.0208 40.0911C26.7557 35.2299 35.0107 30.6422 39.0718 23.1274C41.999 17.7208 42.7243 12.511 41.2344 7.6273H43.5807C44.9975 12.9139 44.1485 18.4798 41.0545 24.2012Z" fill="#932C11"/>
</g>
<g opacity="0.3">
<path d="M158.022 21.72C154.553 32.4226 146.907 41.7608 136.497 48.0201C124.316 55.3438 108.752 58.1661 91.4959 56.1815C59.0883 52.454 39.8702 64.6652 29.4487 75.5664C23.8547 81.419 20.1273 87.5152 17.7923 92.1928C17.0183 92.0579 16.2724 91.8517 15.5584 91.5725C17.9534 86.7 21.8458 80.2627 27.8183 74.0091C34.681 66.8316 42.8667 61.4269 52.1582 57.9431C63.7378 53.5991 77.0602 52.2554 91.7545 53.9458C129.792 58.3235 150.067 38.9498 155.878 21.0285C157.375 16.4034 157.932 11.8532 157.615 7.63104H159.875C160.188 12.0837 159.594 16.87 158.022 21.72Z" fill="#932C11"/>
</g>
<g opacity="0.3">
<path d="M222.79 81.2297C220.103 84.9572 217.374 88.7371 215.242 92.3708H212.652C214.927 88.2836 217.97 84.067 220.967 79.9123C226.981 71.5747 233.197 62.9598 232.1 56.6912C231.707 54.4161 230.374 52.5327 228.032 50.9286C217.322 43.5974 207.847 48.601 194.732 55.5237C182.705 61.8748 167.829 69.7288 147.19 69.7288C146.497 69.7288 145.798 69.7213 145.087 69.7026C127.505 69.2528 114.048 74.3877 106.171 84.5561C104.08 87.2585 102.635 89.9796 101.64 92.3708H99.2037C100.266 89.6198 101.895 86.3946 104.391 83.1731C110.199 75.6732 121.994 66.8522 145.142 67.4481C166.3 67.9879 181.479 59.9745 193.679 53.5335C206.972 46.5171 217.472 40.9737 229.303 49.0695C232.132 51.0073 233.819 53.4398 234.317 56.2995C235.577 63.507 229.368 72.1145 222.79 81.2297Z" fill="#932C11"/>
</g>
<g opacity="0.3">
<path d="M303.33 7.6273C296.715 15.68 288.552 23.1161 270.563 24.7859C268.033 25.0183 265.627 25.1307 263.34 25.1307C245.629 25.1307 235.104 18.5435 229.226 12.6235C227.563 10.9499 226.182 9.25208 225.037 7.6273H227.841C228.727 8.77982 229.743 9.95859 230.903 11.1186C239.934 20.1496 253.577 24.1 270.353 22.5408C286.367 21.0547 294.251 14.7411 300.384 7.6273H303.33Z" fill="#932C11"/>
</g>
<g opacity="0.3">
<path d="M394.078 57.4746V59.997C390.534 58.1961 386.68 56.7418 382.862 55.3007C371.462 50.9942 359.671 46.5471 358.046 33.1647C357.392 27.7825 358.861 23.1424 362.409 19.3812C367.883 13.5811 377.506 10.7026 386.711 9.31018C387.703 9.8424 388.619 10.4964 389.448 11.2442C379.916 12.4342 369.542 15.1028 364.049 20.9292C360.981 24.1806 359.712 28.2079 360.284 32.8967C361.744 44.9242 372.386 48.9402 383.659 53.1943C387.161 54.5136 390.722 55.861 394.078 57.4746Z" fill="#932C11"/>
</g>
<g opacity="0.3">
<path d="M321.089 92.3708H318.371C316.945 90.1857 315.684 87.8394 314.411 85.4669C310.152 77.5304 305.744 69.3297 294.421 64.5996C289.136 62.392 283.936 62.482 278.962 64.862C269.097 69.5883 261.74 82.3467 257.265 92.3708H254.757C259.304 81.9156 267.1 68.0459 277.99 62.8324C283.569 60.1638 289.386 60.0588 295.287 62.5213C307.348 67.5587 312.153 76.5091 316.394 84.4025C317.903 87.2098 319.37 89.9384 321.089 92.3708Z" fill="#932C11"/>
</g>
<g opacity="0.3">
<path d="M394.078 74.9574V78.4562C388.076 71.3461 379.225 62.7724 370.561 61.4025C366.53 60.7654 362.855 61.7811 359.634 64.4328C354.236 68.8705 351.943 74.3277 352.812 80.6563C353.356 84.6274 355.132 88.6434 357.628 92.3727H354.99C352.715 88.7127 351.112 84.8241 350.582 80.9655C349.609 73.9079 352.244 67.5906 358.202 62.6919C361.941 59.6166 366.217 58.4359 370.913 59.1781C379.48 60.5348 387.937 68.0535 394.078 74.9574Z" fill="#932C11"/>
</g>
<path d="M89.9763 45.6271C89.9763 47.7762 89.4791 49.7328 88.4848 51.497C87.4904 53.2291 86.0149 54.6083 84.0583 55.6348C82.1338 56.6612 79.7922 57.1744 77.0337 57.1744H72.7997V68H62.1184V33.9354H77.0337C81.2036 33.9354 84.3951 34.9939 86.6083 37.1109C88.8536 39.228 89.9763 42.0667 89.9763 45.6271ZM75.8308 48.7545C78.0441 48.7545 79.1507 47.712 79.1507 45.6271C79.1507 43.5422 78.0441 42.4997 75.8308 42.4997H72.7997V48.7545H75.8308ZM104.045 42.4516V46.6375H114.63V54.6725H104.045V59.4839H116.074V68H93.3642V33.9354H116.074V42.4516H104.045ZM137.228 68L130.829 55.7791H130.781V68H120.099V33.9354H135.977C138.735 33.9354 141.093 34.4326 143.05 35.427C145.006 36.3892 146.466 37.7204 147.428 39.4204C148.422 41.0883 148.919 42.9808 148.919 45.0978C148.919 47.3752 148.278 49.396 146.995 51.1602C145.744 52.9243 143.932 54.1913 141.558 54.9612L148.968 68H137.228ZM130.781 48.6583H135.015C136.041 48.6583 136.811 48.4337 137.324 47.9847C137.837 47.5035 138.094 46.7658 138.094 45.7714C138.094 44.8733 137.821 44.1676 137.276 43.6544C136.763 43.1412 136.009 42.8846 135.015 42.8846H130.781V48.6583ZM163.013 33.9354V68H152.332V33.9354H163.013ZM200.506 68H189.825L178.518 50.8715V68H167.837V33.9354H178.518L189.825 51.3526V33.9354H200.506V68ZM226.214 45.579C225.797 44.9054 225.203 44.3922 224.433 44.0393C223.663 43.6544 222.733 43.462 221.643 43.462C219.59 43.462 218.002 44.1356 216.879 45.4827C215.757 46.7979 215.195 48.6101 215.195 50.9196C215.195 53.5819 215.821 55.5706 217.072 56.8857C218.323 58.2008 220.247 58.8584 222.846 58.8584C225.315 58.8584 227.304 57.864 228.812 55.8753H220.296V48.3215H237.665V59.0027C236.189 61.5367 234.152 63.7179 231.554 65.5462C228.956 67.3424 225.668 68.2406 221.691 68.2406C218.162 68.2406 215.083 67.5189 212.453 66.0754C209.855 64.6 207.85 62.5471 206.439 59.9169C205.059 57.2867 204.37 54.2876 204.37 50.9196C204.37 47.5516 205.059 44.5525 206.439 41.9223C207.85 39.2921 209.855 37.2553 212.453 35.8119C215.051 34.3364 218.098 33.5986 221.595 33.5986C226.053 33.5986 229.678 34.6732 232.468 36.8223C235.291 38.9713 236.959 41.8902 237.472 45.579H226.214ZM262.104 68L252.193 53.2291V68H241.511V33.9354H252.193V48.2733L261.96 33.9354H274.036L262.297 50.246L274.806 68H262.104ZM299.675 62.8518H288.321L286.637 68H275.426L287.887 33.9354H300.205L312.618 68H301.359L299.675 62.8518ZM297.077 54.8168L293.998 45.3384L290.919 54.8168H297.077ZM341.796 33.9354V42.4035H332.751V68H322.069V42.4035H313.12V33.9354H341.796Z" fill="#FFFFFA"/>
<defs>
<linearGradient id="paint0_linear_367_17403" x1="200.999" y1="61.5905" x2="200.999" y2="-68.0458" gradientUnits="userSpaceOnUse">
<stop stop-color="#932C11"/>
<stop offset="1" stop-color="#C75411"/>
</linearGradient>
<linearGradient id="paint1_linear_367_17403" x1="200.999" y1="99.7223" x2="200.999" y2="7.4875" gradientUnits="userSpaceOnUse">
<stop stop-color="#932C11"/>
<stop offset="0.9649" stop-color="#C55311"/>
<stop offset="1" stop-color="#C75411"/>
</linearGradient>
<linearGradient id="paint2_linear_367_17403" x1="200.999" y1="29.6318" x2="200.999" y2="67.0872" gradientUnits="userSpaceOnUse">
<stop stop-color="#EA7D00"/>
<stop offset="1" stop-color="#C75411"/>
</linearGradient>
</defs>
</svg>
