<svg width="318" height="100" viewBox="0 0 318 100" fill="none" xmlns="http://www.w3.org/2000/svg">
<path d="M0.286316 85.1671V17.3291C0.286316 7.75847 6.42145 0 13.9896 0H304.01C311.579 0 317.714 7.75847 317.714 17.3291V85.1671C317.714 93.3584 312.462 100 305.984 100H12.0157C5.53823 100 0.286316 93.3603 0.286316 85.1671Z" fill="url(#paint0_linear_572_4575)"/>
<path d="M3.30194 83.4692V19.3925C3.30194 10.7888 8.81763 3.81366 15.6211 3.81366H302.377C309.181 3.81366 314.696 10.7888 314.696 19.3925V83.4692C314.696 90.4931 310.194 96.1864 304.64 96.1864H13.3582C7.80399 96.1864 3.30194 90.4931 3.30194 83.4692Z" fill="url(#paint1_linear_572_4575)"/>
<path d="M311.679 21.6675V80.4258C311.679 87.0242 307.453 92.3708 302.234 92.3708H15.7649C15.2062 92.3708 14.6579 92.3109 14.1259 92.1909C13.5139 92.056 12.924 91.8498 12.3594 91.5706C8.82359 89.8446 6.31915 85.5044 6.31915 80.4258V21.6675C6.31915 13.9128 11.288 7.6273 17.4187 7.6273H300.581C302.49 7.6273 304.286 8.23635 305.852 9.3083C306.636 9.84052 307.361 10.4946 308.016 11.2423C310.267 13.8135 311.679 17.5297 311.679 21.6675Z" fill="url(#paint2_linear_572_4575)"/>
<g opacity="0.3">
<path d="M32.5209 24.2012C29.0591 32.2914 22.3149 37.0345 15.1706 42.0588C12.1668 44.1727 9.13627 46.3035 6.31915 48.721V46.0336C8.93177 43.871 11.66 41.9539 14.3067 40.0911C21.2139 35.2299 27.7417 30.6422 30.953 23.1274C33.2678 17.7208 33.8413 12.511 32.6631 7.6273H34.5185C35.6388 12.9139 34.9675 18.4798 32.5209 24.2012Z" fill="#932C11"/>
</g>
<g opacity="0.3">
<path d="M125.015 21.72C122.272 32.4226 116.225 41.7608 107.993 48.0201C98.3609 55.3438 86.0536 58.1661 72.4081 56.1815C46.7814 52.454 31.5844 64.6652 23.3434 75.5664C18.9199 81.419 15.9724 87.5152 14.1259 92.1928C13.5139 92.0579 12.9241 91.8517 12.3595 91.5725C14.2534 86.7 17.3313 80.2627 22.0542 74.0091C27.481 66.8316 33.9539 61.4269 41.3013 57.9431C50.458 53.5991 60.9929 52.2554 72.6126 53.9458C102.691 58.3235 118.724 38.9498 123.319 21.0285C124.503 16.4034 124.943 11.8532 124.693 7.63104H126.48C126.728 12.0837 126.258 16.87 125.015 21.72Z" fill="#932C11"/>
</g>
<g opacity="0.3">
<path d="M176.231 81.2297C174.106 84.9572 171.948 88.7371 170.262 92.3708H168.214C170.013 88.2836 172.42 84.067 174.789 79.9123C179.545 71.5747 184.46 62.9598 183.593 56.6912C183.282 54.4161 182.228 52.5327 180.376 50.9286C171.907 43.5974 164.414 48.601 154.044 55.5237C144.533 61.8748 132.769 69.7288 116.449 69.7288C115.901 69.7288 115.348 69.7213 114.786 69.7026C100.883 69.2528 90.2415 74.3877 84.013 84.5561C82.3592 87.2585 81.2166 89.9796 80.4297 92.3708H78.5032C79.3435 89.6198 80.6313 86.3946 82.6052 83.1731C87.1976 75.6732 96.5248 66.8522 114.829 67.4481C131.56 67.9879 143.564 59.9745 153.211 53.5335C163.722 46.5171 172.025 40.9737 181.381 49.0695C183.618 51.0073 184.952 53.4398 185.346 56.2995C186.342 63.507 181.433 72.1145 176.231 81.2297Z" fill="#932C11"/>
</g>
<g opacity="0.3">
<path d="M239.919 7.6273C234.688 15.68 228.233 23.1161 214.008 24.7859C212.007 25.0183 210.105 25.1307 208.297 25.1307C194.291 25.1307 185.969 18.5435 181.32 12.6235C180.005 10.9499 178.913 9.25208 178.008 7.6273H180.225C180.926 8.77982 181.729 9.95859 182.646 11.1186C189.788 20.1496 200.576 24.1 213.842 22.5408C226.505 21.0547 232.739 14.7411 237.59 7.6273H239.919Z" fill="#932C11"/>
</g>
<g opacity="0.3">
<path d="M311.679 57.4746V59.997C308.877 58.1961 305.829 56.7418 302.81 55.3007C293.796 50.9942 284.471 46.5471 283.187 33.1647C282.669 27.7825 283.831 23.1424 286.636 19.3812C290.965 13.5811 298.575 10.7026 305.854 9.31018C306.638 9.8424 307.362 10.4964 308.017 11.2442C300.48 12.4342 292.277 15.1028 287.933 20.9292C285.507 24.1806 284.504 28.2079 284.956 32.8967C286.11 44.9242 294.526 48.9402 303.44 53.1943C306.21 54.5136 309.025 55.861 311.679 57.4746Z" fill="#932C11"/>
</g>
<g opacity="0.3">
<path d="M253.962 92.3708H251.813C250.685 90.1857 249.688 87.8394 248.682 85.4669C245.313 77.5304 241.828 69.3297 232.874 64.5996C228.695 62.392 224.583 62.482 220.65 64.862C212.849 69.5883 207.031 82.3467 203.492 92.3708H201.509C205.105 81.9156 211.269 68.0459 219.881 62.8324C224.292 60.1638 228.892 60.0588 233.559 62.5213C243.096 67.5587 246.896 76.5091 250.25 84.4025C251.442 87.2098 252.603 89.9384 253.962 92.3708Z" fill="#932C11"/>
</g>
<g opacity="0.3">
<path d="M311.679 74.9574V78.4562C306.933 71.3461 299.934 62.7724 293.083 61.4025C289.895 60.7654 286.989 61.7811 284.442 64.4328C280.174 68.8705 278.36 74.3277 279.048 80.6563C279.477 84.6274 280.882 88.6434 282.856 92.3727H280.77C278.971 88.7127 277.704 84.8241 277.284 80.9655C276.515 73.9079 278.599 67.5906 283.31 62.6919C286.266 59.6166 289.648 58.4359 293.361 59.1781C300.135 60.5348 306.823 68.0535 311.679 74.9574Z" fill="#932C11"/>
</g>
<path d="M62.5246 44.6271C62.5246 46.7762 62.0274 48.7328 61.033 50.497C60.0387 52.2291 58.5632 53.6083 56.6066 54.6348C54.682 55.6612 52.3405 56.1744 49.582 56.1744H45.3479V67H34.6667V32.9354H49.582C53.7518 32.9354 56.9434 33.9939 59.1566 36.1109C61.4019 38.228 62.5246 41.0667 62.5246 44.6271ZM48.3791 47.7545C50.5923 47.7545 51.699 46.712 51.699 44.6271C51.699 42.5422 50.5923 41.4997 48.3791 41.4997H45.3479V47.7545H48.3791ZM87.7561 61.8518H76.4013L74.7173 67H63.5068L75.9682 32.9354H88.2854L100.699 67H89.4401L87.7561 61.8518ZM85.158 53.8168L82.0787 44.3384L78.9994 53.8168H85.158ZM135.795 67H125.113L113.807 49.8715V67H103.125V32.9354H113.807L125.113 50.3526V32.9354H135.795V67ZM154.814 32.9354C158.374 32.9354 161.486 33.6571 164.148 35.1006C166.842 36.544 168.911 38.5487 170.355 41.1148C171.798 43.6808 172.52 46.5998 172.52 49.8715C172.52 53.1112 171.798 56.0301 170.355 58.6282C168.911 61.2263 166.842 63.2792 164.148 64.7868C161.486 66.2623 158.374 67 154.814 67H140.62V32.9354H154.814ZM153.852 57.4735C156.257 57.4735 158.166 56.8159 159.577 55.5008C160.989 54.1857 161.694 52.3093 161.694 49.8715C161.694 47.4337 160.989 45.5573 159.577 44.2422C158.166 42.9271 156.257 42.2695 153.852 42.2695H151.302V57.4735H153.852ZM186.818 32.9354V52.1328C186.818 53.7046 187.154 54.9555 187.828 55.8857C188.534 56.7838 189.656 57.2329 191.196 57.2329C192.736 57.2329 193.874 56.7838 194.612 55.8857C195.35 54.9555 195.719 53.7046 195.719 52.1328V32.9354H206.352V52.1328C206.352 55.3725 205.678 58.1471 204.331 60.4565C202.984 62.7339 201.139 64.45 198.798 65.6047C196.456 66.7594 193.842 67.3368 190.955 67.3368C188.068 67.3368 185.502 66.7594 183.257 65.6047C181.044 64.45 179.312 62.7339 178.061 60.4565C176.81 58.1791 176.184 55.4046 176.184 52.1328V32.9354H186.818ZM232.802 61.8518H221.447L219.763 67H208.553L221.014 32.9354H233.332L245.745 67H234.486L232.802 61.8518ZM230.204 53.8168L227.125 44.3384L224.046 53.8168H230.204ZM280.841 67H270.16L258.853 49.8715V67H248.172V32.9354H258.853L270.16 50.3526V32.9354H280.841V67Z" fill="#FFFFFA"/>
<defs>
<linearGradient id="paint0_linear_572_4575" x1="159" y1="61.5905" x2="159" y2="-68.0458" gradientUnits="userSpaceOnUse">
<stop stop-color="#932C11"/>
<stop offset="1" stop-color="#C75411"/>
</linearGradient>
<linearGradient id="paint1_linear_572_4575" x1="158.999" y1="99.7223" x2="158.999" y2="7.4875" gradientUnits="userSpaceOnUse">
<stop stop-color="#932C11"/>
<stop offset="0.9649" stop-color="#C55311"/>
<stop offset="1" stop-color="#C75411"/>
</linearGradient>
<linearGradient id="paint2_linear_572_4575" x1="159" y1="29.6318" x2="159" y2="67.0872" gradientUnits="userSpaceOnUse">
<stop stop-color="#EA7D00"/>
<stop offset="1" stop-color="#C75411"/>
</linearGradient>
</defs>
</svg>
