<svg width="40" height="40" viewBox="0 0 40 40" fill="none" xmlns="http://www.w3.org/2000/svg">
<path d="M39.455 21.8472C39.8234 22.4179 39.9995 23.057 39.9995 23.6896C39.9995 24.8341 39.4223 25.9558 38.369 26.5981C37.3485 27.2209 36.7419 28.3264 36.7419 29.5003C36.7419 29.6405 36.7517 29.7807 36.768 29.9241C36.7876 30.0676 36.7942 30.2111 36.7942 30.3513C36.7942 32.073 35.4898 33.5567 33.729 33.7328C33.0638 33.798 32.4474 34.0588 31.9453 34.4599C31.4431 34.861 31.0551 35.4023 30.8431 36.0382C30.3638 37.4631 29.0367 38.3565 27.6182 38.3565C27.2302 38.3565 26.8356 38.2914 26.4509 38.1512C26.2617 38.0827 26.0694 38.0305 25.8737 37.9979C25.6781 37.962 25.4825 37.9458 25.2868 37.9458C24.3868 37.9458 23.5031 38.3044 22.851 38.9729C22.1858 39.6576 21.2989 40 20.4152 40C19.5316 40 18.6446 39.6576 17.9794 38.9729C17.3273 38.3044 16.4436 37.9458 15.5436 37.9458C15.1524 37.9458 14.7578 38.0142 14.3795 38.1512C13.9947 38.2914 13.6001 38.3565 13.2122 38.3565C11.7937 38.3565 10.4666 37.4631 9.98728 36.0382C9.77531 35.4023 9.38731 34.861 8.88514 34.4599C8.38297 34.0588 7.76669 33.798 7.10151 33.7328C5.34066 33.5567 4.03637 32.0731 4.03637 30.3513C4.03637 30.2111 4.04289 30.0676 4.06244 29.9241C4.07875 29.7807 4.08856 29.6405 4.08856 29.5003C4.08856 28.3264 3.48202 27.221 2.46142 26.5981C1.40818 25.9558 0.831055 24.8341 0.831055 23.6896C0.831055 23.057 1.00715 22.4178 1.37555 21.8472C1.74077 21.2831 1.9201 20.644 1.9201 19.9984C1.9201 19.3593 1.74077 18.7136 1.37555 18.1528C1.0071 17.5822 0.831055 16.943 0.831055 16.3105C0.831055 15.166 1.40818 14.0475 2.46142 13.4051C3.48202 12.7823 4.08856 11.6736 4.08856 10.4998C4.08856 10.3596 4.07875 10.2194 4.06244 10.0759C4.04289 9.93239 4.03637 9.78893 4.03637 9.64875C4.03637 7.92705 5.34066 6.44338 7.10151 6.26728C7.76669 6.19878 8.38297 5.94121 8.88514 5.54012C9.38731 5.14226 9.77537 4.60105 9.98728 3.96517C10.4666 2.54019 11.797 1.64351 13.2155 1.64351C13.6035 1.64351 13.9948 1.70872 14.3795 1.8489C14.7578 1.98907 15.1524 2.05434 15.5437 2.05434C16.4436 2.05434 17.3273 1.69564 17.9795 1.02717C18.6447 0.342391 19.5316 0 20.4153 0C21.299 0 22.1859 0.342391 22.8511 1.02717C23.7869 1.98584 25.1956 2.30869 26.4509 1.8489C26.8358 1.70872 27.227 1.64351 27.615 1.64351C29.0335 1.64351 30.3639 2.54019 30.8433 3.96517C31.0552 4.60105 31.4432 5.14226 31.9454 5.54012C32.4476 5.94116 33.0639 6.19878 33.7291 6.26728C35.4899 6.44338 36.7943 7.92705 36.7943 9.64875C36.7943 9.78893 36.7877 9.93239 36.7681 10.0759C36.7518 10.2194 36.742 10.3596 36.742 10.4998C36.742 11.6737 37.3486 12.7823 38.3692 13.4051C39.4225 14.0475 39.9996 15.1659 39.9996 16.3105C39.9996 16.943 39.8235 17.5822 39.4551 18.1528C39.0899 18.7136 38.9105 19.3593 38.9105 19.9984C38.9105 20.3538 38.9659 20.7092 39.0768 21.0516C39.1648 21.3287 39.2919 21.5962 39.455 21.8472Z" fill="#E53935"/>
<path d="M39.9995 23.6897C39.9995 24.8342 39.4223 25.9559 38.369 26.5983C37.3485 27.2211 36.7419 28.3265 36.7419 29.5004C36.7419 29.6406 36.7517 29.7808 36.768 29.9243C36.7876 30.0677 36.7942 30.2113 36.7942 30.3514C36.7942 32.0731 35.4898 33.5568 33.729 33.7329C33.0638 33.7981 32.4474 34.059 31.9453 34.4601C31.4431 34.8612 31.0551 35.4024 30.8431 36.0383C30.3638 37.4633 29.0367 38.3567 27.6182 38.3567C27.2302 38.3567 26.8356 38.2915 26.4509 38.1513C26.2617 38.0828 25.5534 37.7819 24.3761 38.0557L12.7404 27.1044C11.9155 26.2762 13.2297 23.8658 14.0547 23.0408L14.6569 22.4775C14.6569 22.4775 15.0823 23.2588 15.8616 24.0381L16.9099 23.0408L26.4021 13.4154C26.4542 13.3665 27.4418 12.3933 27.4972 12.3477L27.5794 12.4024L39.0768 21.0518C39.1648 21.3289 39.292 21.5963 39.455 21.8474C39.8234 22.418 39.9995 23.0571 39.9995 23.6897Z" fill="#D32F2F"/>
<mask id="mask0_276_5587" style="mask-type:alpha" maskUnits="userSpaceOnUse" x="4" y="4" width="32" height="32">
<rect x="4.9375" y="4.54492" width="30.9372" height="30.9372" fill="#D9D9D9"/>
</mask>
<g mask="url(#mask0_276_5587)">
<path d="M26.1553 12.5576C26.602 12.5577 27.0132 12.7086 27.3359 13.0312L27.4492 13.1562C27.6944 13.4574 27.8105 13.8218 27.8105 14.2129C27.8105 14.6038 27.6943 14.9675 27.4492 15.2686L27.3359 15.3936L22.7422 19.9873L27.3359 24.5811L27.4492 24.7061C27.6945 25.0072 27.8105 25.3716 27.8105 25.7627C27.8105 26.1536 27.6943 26.5173 27.4492 26.8184L27.3359 26.9434C27.0132 27.2661 26.602 27.4179 26.1553 27.418C25.7642 27.418 25.3998 27.3019 25.0986 27.0566L24.9736 26.9434L20.3799 22.3496L15.7861 26.9434C15.4634 27.2661 15.0522 27.4179 14.6055 27.418C14.2144 27.418 13.85 27.3019 13.5488 27.0566L13.4238 26.9434C13.1012 26.6206 12.9503 26.2094 12.9502 25.7627C12.9502 25.3158 13.101 24.9039 13.4238 24.5811L18.0166 19.9873L13.4238 15.3936C13.1012 15.0709 12.9503 14.6596 12.9502 14.2129C12.9502 13.766 13.101 13.3541 13.4238 13.0312L13.5488 12.918C13.85 12.6728 14.2145 12.5576 14.6055 12.5576C15.0522 12.5577 15.4634 12.7086 15.7861 13.0312L20.3799 17.624L24.9736 13.0312L25.0986 12.918C25.3998 12.6728 25.7642 12.5576 26.1553 12.5576Z" fill="white" stroke="white" stroke-width="1.29936"/>
</g>
</svg>
