<svg width="350" height="150" viewBox="0 0 350 150" fill="none" xmlns="http://www.w3.org/2000/svg">
<g opacity="0.1">
<path d="M94.1979 120.505C94.3801 121.696 93.9037 122.943 92.839 124.918C90.0091 130.157 86.5348 134.949 82.4301 139.277C80.0765 141.771 79.264 141.897 76.392 139.936C69.4994 135.229 63.0131 129.989 56.5968 124.666C56.4146 124.512 56.2606 124.357 56.0924 124.217C52.9123 121.682 52.0157 121.836 49.2418 124.736C44.3946 129.779 40.3038 135.495 35.1764 140.286C33.9436 141.449 32.6267 142.472 31.1838 143.354C29.4466 144.419 27.6814 144.447 25.9442 143.41C20.9149 140.37 16.5439 136.574 12.8455 132.021C11.5146 130.367 11.3605 128.658 12.3271 126.711C14.2464 122.788 16.9642 119.468 19.7661 116.204C22.2037 113.374 24.6694 110.544 26.8548 107.518C27.5833 106.51 28.2698 105.473 28.9282 104.408C30.1891 102.349 30.091 101.802 28.1998 100.387C20.9849 95.0078 13.4479 90.0205 6.75141 83.9825C1.666 79.4154 2.1423 80.7463 5.07026 75.4788C7.92818 70.3373 11.4025 65.6021 15.2551 61.1471C17.4686 58.5974 18.2951 58.4714 21.3352 60.0124C25.4539 62.0998 29.0123 65.0277 32.5987 67.8857C36.3532 70.8977 40.0517 73.9657 43.8622 76.9077C47.0284 79.3453 48.7655 79.1212 51.2592 75.9831C55.1818 71.0238 59.0624 66.0364 63.2092 61.2452C64.386 59.9003 65.6609 58.6535 67.0758 57.5327C67.9164 56.8743 68.7709 56.5381 69.6535 56.5381C70.298 56.5381 70.9564 56.7062 71.6148 57.0704C77.6108 60.4046 83.0885 64.4674 87.9077 69.3706C88.8884 70.3513 89.4208 71.5701 89.3927 73.4053C89.3367 74.4981 88.6503 75.787 87.9218 77.0478C85.4841 81.2226 82.36 84.9071 79.306 88.6196C76.9944 91.4354 74.7529 94.2934 72.6235 97.2493C71.2506 99.1546 71.3206 99.8411 73.1699 101.41C75.8177 103.652 78.5215 105.823 81.1833 108.037C84.4054 110.712 87.9778 112.954 91.0178 115.868C91.298 116.134 91.5922 116.386 91.8584 116.68C93.2733 118.291 94.0298 119.37 94.1979 120.505Z" fill="#1C0D3F"/>
<path d="M96.6498 119.888C96.4116 119.034 96.0894 118.263 95.6972 117.591C93.6378 114.102 90.5137 111.609 87.4036 109.143C83.9853 106.439 80.581 103.736 77.1067 100.976C81.4496 96.4226 85.4003 91.6454 88.9586 86.56C90.8639 83.8422 92.6852 81.0263 93.3016 77.7201C94.1842 72.9429 92.0547 69.1884 88.6645 66.1063C83.7892 61.6934 78.5497 57.7988 72.5957 54.9128C71.6431 54.4505 70.7324 54.1703 69.8218 54.1143C68.4069 54.0022 67.0339 54.3945 65.647 55.3611C62.9152 57.2664 60.6457 59.662 58.4742 62.1417C54.6777 66.4846 51.1613 71.0516 47.729 75.8709C42.0693 71.0796 36.5776 66.3865 31.0439 61.7494C28.256 59.4099 25.3981 57.1123 21.8537 56.0056C18.8697 55.0669 15.9278 55.151 13.5882 57.5886C8.60085 62.7721 4.17387 68.3759 1.2319 75.0163C0.531431 76.5854 -0.141042 78.2104 0.0270706 80.0176C0.419333 84.1644 2.03044 87.6527 5.26661 90.3566C11.1926 95.3159 17.2866 100.051 23.7029 104.366C24.2353 104.73 25.0198 104.758 25.314 105.683C25.23 105.781 25.1459 105.879 25.0478 105.991C23.843 107.406 22.6102 108.891 21.3634 110.362C17.2726 115.195 13.0418 119.902 10.1418 125.604C9.39935 127.061 8.76893 128.588 8.92304 130.255C9.41337 135.957 11.6408 140.72 16.6142 143.914C17.875 144.741 19.1219 145.596 20.3967 146.408C28.0739 151.283 32.5008 150.807 38.777 144.279C42.1953 140.72 45.6136 137.162 48.7097 133.337C49.8725 131.908 51.0913 130.563 52.3381 129.121C52.8004 129.499 53.1366 129.779 53.4729 130.073C59.3428 135.103 65.2968 140.006 72.0353 143.886C79.096 147.963 84.8539 146.926 89.477 140.244C91.046 137.974 92.8393 135.901 94.5344 133.758C97.0141 130.606 97.8686 124.287 96.6498 119.888ZM92.8392 124.918C90.0093 130.157 86.535 134.948 82.4303 139.277C80.0767 141.771 79.2642 141.897 76.3922 139.936C69.4996 135.229 63.0133 129.989 56.597 124.666C56.4148 124.511 56.2608 124.357 56.0926 124.217C52.9125 121.682 52.0159 121.836 49.242 124.736C44.3948 129.779 40.304 135.495 35.1766 140.286C33.9438 141.449 32.6269 142.471 31.184 143.354C29.4468 144.419 27.6816 144.447 25.9444 143.41C20.9151 140.37 16.5441 136.573 12.8456 132.02C11.5148 130.367 11.3607 128.658 12.3273 126.711C14.2466 122.788 16.9644 119.468 19.7663 116.204C22.2039 113.374 24.6696 110.544 26.855 107.518C27.5835 106.509 28.27 105.473 28.9284 104.408C30.1893 102.349 30.0912 101.802 28.2 100.387C20.9851 95.0077 13.4481 90.0203 6.7516 83.9823C1.66619 79.4152 2.1425 80.7461 5.07046 75.4786C7.92837 70.3372 11.4027 65.602 15.2553 61.147C17.4687 58.5973 18.2953 58.4712 21.3354 60.0122C25.4541 62.0996 29.0125 65.0276 32.5989 67.8855C36.3534 70.8975 40.0519 73.9656 43.8624 76.9075C47.0286 79.3452 48.7657 79.121 51.2594 75.9829C55.182 71.0236 59.0626 66.0363 63.2094 61.2451C64.3862 59.9002 65.661 58.6533 67.076 57.5326C67.9166 56.8741 68.7711 56.5379 69.6537 56.5379C70.2982 56.5379 70.9566 56.706 71.615 57.0702C77.611 60.4045 83.0887 64.4672 87.9079 69.3705C88.8886 70.3511 89.421 71.57 89.3929 73.4052C89.3369 74.4979 88.6505 75.7868 87.922 77.0476C85.4843 81.2224 82.3602 84.9069 79.3062 88.6194C76.9946 91.4353 74.7531 94.2932 72.6237 97.2492C71.2508 99.1545 71.3209 99.8409 73.1701 101.41C75.8179 103.651 78.5217 105.823 81.1835 108.036C84.4056 110.712 87.978 112.954 91.018 115.868C91.2982 116.134 91.5924 116.386 91.8586 116.68C93.2735 118.291 94.03 119.37 94.1981 120.505C94.3803 121.696 93.9039 122.942 92.8392 124.918Z" fill="#1C0D3F"/>
<path d="M18.6795 67.8384C18.9863 68.3525 18.8742 68.9003 18.7103 69.434C17.8053 72.4096 16.4058 75.126 14.3394 77.4642C13.0435 78.931 11.5656 79.214 10.3551 78.3286C9.16995 77.46 8.97383 75.8377 9.96989 74.2603C11.6832 71.5481 14.0466 69.5377 16.9101 68.1227C17.4355 67.8636 18.007 67.5217 18.6795 67.8384Z" fill="#1C0D3F"/>
<path d="M64.5127 67.3185C64.7453 64.8668 65.6937 62.8159 67.4112 61.1403C67.924 60.6402 68.6413 60.6318 69.2661 61.0717C69.8895 61.5102 70.0268 62.1224 69.8447 62.8439C69.4062 64.5853 66.5987 67.0131 64.5127 67.3185Z" fill="#1C0D3F"/>
</g>
<path d="M96.9997 116.302C97.1818 117.493 96.7055 118.739 95.6408 120.715C92.8109 125.954 89.3366 130.745 85.2318 135.074C82.8783 137.568 82.0657 137.694 79.1938 135.733C72.3012 131.026 65.8148 125.786 59.3985 120.463C59.2164 120.308 59.0623 120.154 58.8942 120.014C55.7141 117.479 54.8175 117.633 52.0436 120.533C47.1964 125.576 43.1056 131.292 37.9782 136.083C36.7453 137.246 35.4285 138.269 33.9855 139.151C32.2484 140.216 30.4832 140.244 28.746 139.207C23.7166 136.167 19.3457 132.371 15.6472 127.817C14.3163 126.164 14.1622 124.455 15.1289 122.508C17.0482 118.585 19.766 115.265 22.5679 112.001C25.0055 109.171 27.4711 106.341 29.6566 103.315C30.3851 102.306 31.0716 101.27 31.73 100.205C32.9908 98.1456 32.8928 97.5993 31.0015 96.1843C23.7867 90.8047 16.2497 85.8174 9.55317 79.7793C4.46776 75.2123 4.94406 76.5432 7.87202 71.2756C10.7299 66.1342 14.2042 61.399 18.0568 56.944C20.2703 54.3943 21.0969 54.2682 24.1369 55.8093C28.2557 57.8967 31.814 60.8246 35.4004 63.6825C39.155 66.6945 42.8535 69.7626 46.664 72.7046C49.8301 75.1422 51.5673 74.918 54.061 71.7799C57.9836 66.8206 61.8642 61.8333 66.011 57.0421C67.1877 55.6972 68.4626 54.4504 69.8776 53.3296C70.7181 52.6712 71.5727 52.335 72.4553 52.335C73.0997 52.335 73.7581 52.503 74.4166 52.8673C80.4126 56.2015 85.8903 60.2642 90.7095 65.1675C91.6902 66.1482 92.2225 67.367 92.1945 69.2022C92.1385 70.295 91.452 71.5838 90.7235 72.8447C88.2859 77.0195 85.1618 80.7039 82.1077 84.4164C79.7962 87.2323 77.5547 90.0902 75.4253 93.0462C74.0523 94.9515 74.1224 95.638 75.9716 97.207C78.6194 99.4485 81.3232 101.62 83.985 103.833C87.2072 106.509 90.7795 108.751 93.8196 111.665C94.0998 111.931 94.394 112.183 94.6602 112.477C96.0751 114.088 96.8316 115.167 96.9997 116.302Z" fill="#D32F2F"/>
<path d="M99.4515 115.685C99.2134 114.831 98.8912 114.06 98.4989 113.388C96.4395 109.899 93.3154 107.406 90.2053 104.94C86.7871 102.236 83.3828 99.5324 79.9085 96.7726C84.2514 92.2195 88.202 87.4423 91.7604 82.3569C93.6657 79.6391 95.4869 76.8232 96.1033 73.517C96.9859 68.7398 94.8565 64.9853 91.4662 61.9032C86.591 57.4902 81.3514 53.5956 75.3975 50.7097C74.4448 50.2474 73.5342 49.9672 72.6236 49.9112C71.2086 49.7991 69.8357 50.1913 68.4488 51.158C65.7169 53.0633 63.4474 55.4589 61.276 57.9386C57.4794 62.2815 53.9631 66.8485 50.5308 71.6677C44.871 66.8765 39.3793 62.1834 33.8456 57.5463C31.0578 55.2067 28.1998 52.9092 24.6555 51.8024C21.6715 50.8638 18.7295 50.9479 16.3899 53.3855C11.4026 58.569 6.97563 64.1727 4.03366 70.8132C3.33319 72.3822 2.66072 74.0073 2.82883 75.8145C3.22109 79.9613 4.8322 83.4496 8.06837 86.1534C13.9943 91.1127 20.0884 95.8479 26.5047 100.163C27.037 100.527 27.8216 100.555 28.1158 101.48C28.0317 101.578 27.9477 101.676 27.8496 101.788C26.6448 103.203 25.412 104.688 24.1651 106.159C20.0744 110.992 15.8435 115.699 12.9436 121.401C12.2011 122.858 11.5707 124.385 11.7248 126.052C12.2151 131.754 14.4426 136.517 19.4159 139.711C20.6768 140.538 21.9236 141.392 23.1985 142.205C30.8756 147.08 35.3026 146.604 41.5788 140.076C44.9971 136.517 48.4154 132.959 51.5114 129.134C52.6742 127.705 53.893 126.36 55.1399 124.917C55.6022 125.296 55.9384 125.576 56.2746 125.87C62.1445 130.899 68.0985 135.803 74.8371 139.683C81.8978 143.76 87.6556 142.723 92.2787 136.041C93.8478 133.771 95.641 131.698 97.3362 129.555C99.8158 126.402 100.67 120.084 99.4515 115.685ZM95.641 120.715C92.8111 125.954 89.3368 130.745 85.232 135.074C82.8785 137.568 82.0659 137.694 79.194 135.733C72.3014 131.025 65.815 125.786 59.3987 120.462C59.2166 120.308 59.0625 120.154 58.8944 120.014C55.7143 117.478 54.8177 117.633 52.0438 120.532C47.1966 125.576 43.1058 131.292 37.9784 136.083C36.7455 137.246 35.4287 138.268 33.9857 139.151C32.2486 140.216 30.4833 140.244 28.7462 139.207C23.7168 136.167 19.3459 132.37 15.6474 127.817C14.3165 126.164 14.1624 124.455 15.1291 122.508C17.0484 118.585 19.7662 115.265 22.568 112.001C25.0057 109.171 27.4713 106.341 29.6568 103.315C30.3853 102.306 31.0717 101.27 31.7302 100.205C32.991 98.1455 32.893 97.5991 31.0017 96.1842C23.7869 90.8045 16.2498 85.8172 9.55336 79.7792C4.46795 75.2121 4.94425 76.543 7.87221 71.2755C10.7301 66.134 14.2044 61.3988 18.057 56.9439C20.2705 54.3941 21.0971 54.2681 24.1371 55.8091C28.2559 57.8965 31.8142 60.8245 35.4006 63.6824C39.1552 66.6944 42.8536 69.7624 46.6642 72.7044C49.8303 75.142 51.5675 74.9179 54.0612 71.7798C57.9838 66.8205 61.8644 61.8331 66.0112 57.0419C67.1879 55.697 68.4628 54.4502 69.8778 53.3295C70.7183 52.671 71.5729 52.3348 72.4555 52.3348C73.0999 52.3348 73.7583 52.5029 74.4168 52.8671C80.4128 56.2014 85.8905 60.2641 90.7097 65.1674C91.6904 66.148 92.2227 67.3668 92.1947 69.2021C92.1387 70.2948 91.4522 71.5837 90.7237 72.8445C88.2861 77.0193 85.162 80.7038 82.1079 84.4163C79.7964 87.2322 77.5549 90.0901 75.4255 93.0461C74.0525 94.9513 74.1226 95.6378 75.9718 97.2069C78.6196 99.4484 81.3234 101.62 83.9852 103.833C87.2074 106.509 90.7797 108.751 93.8198 111.665C94.1 111.931 94.3942 112.183 94.6604 112.477C96.0753 114.088 96.8318 115.167 96.9999 116.302C97.182 117.492 96.7057 118.739 95.641 120.715Z" fill="#231333"/>
<path d="M21.4813 63.6352C21.7881 64.1494 21.676 64.6972 21.5121 65.2309C20.6071 68.2065 19.2075 70.9229 17.1412 73.2611C15.8453 74.7279 14.3673 75.0109 13.1569 74.1255C11.9717 73.2569 11.7756 71.6346 12.7717 70.0572C14.485 67.3449 16.8484 65.3346 19.7119 63.9196C20.2372 63.6604 20.8088 63.3186 21.4813 63.6352Z" fill="#FFF4DB"/>
<path d="M67.3145 63.1154C67.547 60.6637 68.4954 58.6127 70.213 56.9372C70.7257 56.4371 71.443 56.4287 72.0678 56.8686C72.6913 57.3071 72.8285 57.9193 72.6464 58.6408C72.2079 60.3821 69.4004 62.81 67.3145 63.1154Z" fill="#FFF4DB"/>
<g opacity="0.1">
<path d="M241.297 105.92C241.57 107.707 240.855 109.577 239.258 112.54C235.013 120.399 229.802 127.586 223.645 134.08C220.114 137.82 218.896 138.009 214.588 135.067C204.249 128.006 194.519 120.147 184.895 112.162C184.621 111.931 184.39 111.699 184.138 111.489C179.368 107.686 178.023 107.917 173.862 112.267C166.591 119.832 160.455 128.406 152.764 135.593C150.915 137.337 148.939 138.871 146.775 140.195C144.169 141.792 141.521 141.834 138.916 140.279C131.371 135.719 124.815 130.024 119.267 123.194C117.271 120.714 117.04 118.151 118.49 115.23C121.369 109.346 125.445 104.365 129.648 99.4692C133.305 95.2243 137.003 90.9794 140.281 86.4403C141.374 84.9273 142.404 83.3723 143.392 81.7752C145.283 78.6861 145.136 77.8665 142.299 75.7441C131.477 67.6747 120.171 60.1936 110.126 51.1365C102.498 44.2859 103.212 46.2822 107.604 38.3809C111.891 30.6687 117.103 23.5659 122.882 16.8833C126.202 13.0588 127.442 12.8696 132.002 15.1812C138.18 18.3123 143.518 22.7043 148.897 26.9912C154.529 31.5092 160.077 36.1113 165.793 40.5243C170.542 44.1808 173.148 43.8445 176.888 39.1374C182.772 31.6983 188.593 24.2173 194.813 17.0305C196.579 15.0131 198.491 13.1429 200.613 11.4617C201.874 10.474 203.156 9.96973 204.48 9.96973C205.447 9.96973 206.434 10.2218 207.422 10.7682C216.416 15.7696 224.632 21.8637 231.861 29.2187C233.332 30.6897 234.131 32.5179 234.089 35.2708C234.005 36.9099 232.975 38.8432 231.882 40.7345C228.226 46.9967 223.54 52.5234 218.959 58.0922C215.491 62.3161 212.129 66.603 208.935 71.037C206.875 73.8949 206.981 74.9246 209.754 77.2782C213.726 80.6404 217.782 83.8976 221.775 87.2178C226.608 91.2316 231.966 94.5938 236.527 98.9648C236.947 99.364 237.388 99.7423 237.787 100.184C239.91 102.6 241.045 104.218 241.297 105.92Z" fill="#1C0D3F"/>
<path d="M244.974 104.995C244.617 103.713 244.133 102.558 243.545 101.549C240.456 96.3163 235.77 92.5758 231.105 88.8773C225.977 84.8215 220.871 80.7658 215.659 76.626C222.174 69.7964 228.1 62.6306 233.437 55.0024C236.295 50.9257 239.027 46.7018 239.952 41.7425C241.276 34.5766 238.081 28.9448 232.996 24.3217C225.683 17.7022 217.824 11.8603 208.893 7.53137C207.464 6.8379 206.098 6.4176 204.732 6.33354C202.609 6.16543 200.55 6.75379 198.47 8.20377C194.372 11.0617 190.968 14.6552 187.71 18.3747C182.016 24.8891 176.741 31.7397 171.593 38.9686C163.103 31.7817 154.865 24.742 146.565 17.7863C142.383 14.2769 138.096 10.8306 132.779 9.17047C128.303 7.76252 123.89 7.88861 120.381 11.5451C112.9 19.3203 106.259 27.726 101.846 37.6867C100.796 40.0403 99.787 42.4779 100.039 45.1888C100.628 51.409 103.044 56.6415 107.898 60.6972C116.787 68.1363 125.929 75.2391 135.553 81.7114C136.352 82.2578 137.528 82.2998 137.97 83.6868C137.844 83.8339 137.718 83.981 137.571 84.1491C135.763 86.2715 133.914 88.499 132.044 90.7055C125.908 97.9554 119.561 105.016 115.211 113.569C114.098 115.754 113.152 118.045 113.383 120.546C114.119 129.098 117.46 136.243 124.92 141.035C126.811 142.274 128.682 143.556 130.594 144.775C142.11 152.088 148.75 151.373 158.164 141.581C163.292 136.243 168.419 130.906 173.063 125.169C174.808 123.025 176.636 121.008 178.506 118.844C179.2 119.411 179.704 119.831 180.208 120.272C189.013 127.817 197.944 135.172 208.052 140.992C218.643 147.108 227.28 145.553 234.215 135.529C236.568 132.125 239.258 129.014 241.801 125.799C245.52 121.071 246.802 111.594 244.974 104.995ZM239.258 112.539C235.013 120.399 229.802 127.585 223.645 134.079C220.114 137.819 218.895 138.008 214.588 135.066C204.249 128.006 194.519 120.146 184.894 112.161C184.621 111.93 184.39 111.699 184.138 111.489C179.368 107.685 178.023 107.916 173.862 112.266C166.591 119.831 160.455 128.405 152.764 135.592C150.914 137.336 148.939 138.87 146.775 140.194C144.169 141.791 141.521 141.833 138.915 140.278C131.371 135.718 124.815 130.023 119.267 123.193C117.271 120.714 117.04 118.15 118.49 115.229C121.369 109.345 125.445 104.365 129.648 99.4685C133.305 95.2236 137.003 90.9787 140.281 86.4396C141.374 84.9266 142.404 83.3716 143.391 81.7745C145.283 78.6854 145.136 77.8658 142.299 75.7434C131.476 67.674 120.171 60.1929 110.126 51.1358C102.498 44.2852 103.212 46.2815 107.604 38.3802C111.891 30.668 117.103 23.5652 122.882 16.8826C126.202 13.0581 127.442 12.8689 132.002 15.1805C138.18 18.3116 143.518 22.7036 148.897 26.9905C154.529 31.5085 160.077 36.1106 165.793 40.5236C170.542 44.1801 173.148 43.8438 176.888 39.1367C182.772 31.6976 188.593 24.2166 194.813 17.0298C196.578 15.0124 198.491 13.1421 200.613 11.461C201.874 10.4733 203.156 9.96902 204.48 9.96902C205.446 9.96902 206.434 10.2211 207.422 10.7675C216.416 15.7689 224.632 21.863 231.861 29.218C233.332 30.689 234.131 32.5172 234.089 35.2701C234.005 36.9092 232.975 38.8425 231.882 40.7338C228.226 46.996 223.54 52.5227 218.958 58.0915C215.491 62.3154 212.129 66.6023 208.935 71.0362C206.875 73.8942 206.98 74.9239 209.754 77.2775C213.726 80.6397 217.782 83.8969 221.774 87.2171C226.608 91.2309 231.966 94.5931 236.526 98.9641C236.947 99.3633 237.388 99.7416 237.787 100.183C239.91 102.6 241.044 104.218 241.297 105.92C241.57 107.706 240.855 109.576 239.258 112.539Z" fill="#1C0D3F"/>
<path d="M128.017 26.9196C128.478 27.6909 128.309 28.5125 128.064 29.3132C126.706 33.7766 124.607 37.8512 121.507 41.3585C119.563 43.5587 117.346 43.9832 115.531 42.6551C113.753 41.3522 113.459 38.9188 114.953 36.5526C117.523 32.4842 121.068 29.4687 125.363 27.3462C126.151 26.9575 127.009 26.4447 128.017 26.9196Z" fill="#1C0D3F"/>
<path d="M196.769 26.1404C197.117 22.4629 198.54 19.3864 201.116 16.8731C201.886 16.1229 202.961 16.1103 203.899 16.7702C204.834 17.4279 205.04 18.3462 204.767 19.4284C204.109 22.0405 199.898 25.6823 196.769 26.1404Z" fill="#1C0D3F"/>
</g>
<path d="M245.499 99.6138C245.772 101.4 245.058 103.27 243.46 106.233C239.216 114.093 234.004 121.28 227.847 127.773C224.317 131.513 223.098 131.703 218.79 128.761C208.451 121.7 198.721 113.84 189.097 105.855C188.824 105.624 188.592 105.393 188.34 105.183C183.57 101.379 182.225 101.61 178.064 105.96C170.793 113.525 164.657 122.099 156.966 129.286C155.117 131.03 153.142 132.564 150.977 133.888C148.371 135.485 145.723 135.527 143.118 133.972C135.574 129.412 129.017 123.717 123.469 116.887C121.473 114.408 121.242 111.844 122.692 108.923C125.571 103.039 129.648 98.0588 133.85 93.1625C137.507 88.9176 141.205 84.6728 144.484 80.1337C145.576 78.6207 146.606 77.0656 147.594 75.4685C149.485 72.3794 149.338 71.5599 146.501 69.4375C135.679 61.368 124.373 53.887 114.328 44.8299C106.7 37.9793 107.415 39.9756 111.807 32.0742C116.093 24.362 121.305 17.2592 127.084 10.5767C130.404 6.75213 131.644 6.563 136.204 8.87456C142.382 12.0057 147.72 16.3976 153.099 20.6845C158.731 25.2026 164.279 29.8047 169.995 34.2177C174.744 37.8741 177.35 37.5379 181.09 32.8307C186.974 25.3917 192.795 17.9107 199.015 10.7238C200.781 8.70646 202.693 6.83621 204.815 5.15508C206.076 4.16741 207.358 3.66309 208.682 3.66309C209.649 3.66309 210.636 3.9152 211.624 4.46157C220.618 9.46295 228.835 15.5571 236.063 22.912C237.534 24.383 238.333 26.2113 238.291 28.9641C238.207 30.6032 237.177 32.5365 236.085 34.4278C232.428 40.6901 227.742 46.2168 223.161 51.7856C219.693 56.0094 216.331 60.2963 213.137 64.7303C211.078 67.5882 211.183 68.6179 213.957 70.9715C217.928 74.3338 221.984 77.591 225.977 80.9112C230.81 84.9249 236.169 88.2872 240.729 92.6581C241.149 93.0574 241.59 93.4357 241.99 93.877C244.112 96.2936 245.247 97.9117 245.499 99.6138Z" fill="#D32F2F"/>
<path d="M249.176 98.6895C248.819 97.4077 248.336 96.2519 247.747 95.2432C244.658 90.0106 239.972 86.2701 235.307 82.5716C230.179 78.5159 225.073 74.4602 219.861 70.3204C226.376 63.4908 232.302 56.3249 237.639 48.6967C240.497 44.62 243.229 40.3961 244.154 35.4368C245.478 28.271 242.284 22.6391 237.198 18.016C229.885 11.3965 222.026 5.55462 213.095 1.2257C211.666 0.532234 210.3 0.111934 208.934 0.0278776C206.812 -0.140236 204.752 0.448128 202.672 1.89811C198.574 4.75604 195.17 8.34952 191.913 12.069C186.218 18.5834 180.943 25.434 175.795 32.6629C167.305 25.4761 159.067 18.4363 150.767 11.4806C146.585 7.97127 142.298 4.52493 136.981 2.86481C132.505 1.45686 128.092 1.58295 124.583 5.23942C117.102 13.0147 110.462 21.4204 106.049 31.3811C104.998 33.7347 103.989 36.1723 104.241 38.8831C104.83 45.1033 107.246 50.3358 112.101 54.3916C120.99 61.8306 130.131 68.9334 139.755 75.4058C140.554 75.9521 141.731 75.9942 142.172 77.3811C142.046 77.5282 141.92 77.6753 141.773 77.8434C139.965 79.9659 138.116 82.1934 136.246 84.3998C130.11 91.6497 123.763 98.7105 119.414 107.263C118.3 109.449 117.354 111.739 117.585 114.24C118.321 122.793 121.662 129.938 129.122 134.729C131.013 135.969 132.884 137.251 134.796 138.469C146.312 145.782 152.952 145.068 162.367 135.275C167.494 129.938 172.621 124.6 177.266 118.863C179.01 116.72 180.838 114.702 182.708 112.538C183.402 113.105 183.906 113.526 184.41 113.967C193.215 121.511 202.146 128.866 212.254 134.687C222.845 140.802 231.482 139.247 238.417 129.223C240.771 125.819 243.46 122.709 246.003 119.494C249.723 114.765 251.004 105.288 249.176 98.6895ZM243.46 106.234C239.215 114.093 234.004 121.28 227.847 127.773C224.316 131.514 223.098 131.703 218.79 128.761C208.451 121.7 198.721 113.841 189.097 105.855C188.823 105.624 188.592 105.393 188.34 105.183C183.57 101.379 182.225 101.61 178.064 105.96C170.793 113.526 164.657 122.099 156.966 129.286C155.117 131.03 153.141 132.564 150.977 133.888C148.371 135.485 145.723 135.527 143.118 133.972C135.573 129.412 129.017 123.717 123.469 116.888C121.473 114.408 121.242 111.844 122.692 108.923C125.571 103.039 129.647 98.0591 133.85 93.1628C137.507 88.9179 141.205 84.673 144.483 80.134C145.576 78.6209 146.606 77.0659 147.594 75.4688C149.485 72.3797 149.338 71.5602 146.501 69.4377C135.679 61.3683 124.373 53.8873 114.328 44.8301C106.7 37.9795 107.414 39.9759 111.806 32.0745C116.093 24.3623 121.305 17.2595 127.084 10.577C130.404 6.7524 131.644 6.56327 136.204 8.87483C142.382 12.0059 147.72 16.3979 153.099 20.6848C158.731 25.2028 164.279 29.805 169.995 34.2179C174.744 37.8744 177.35 37.5382 181.09 32.831C186.974 25.392 192.795 17.9109 199.015 10.7241C200.781 8.70673 202.693 6.83648 204.815 5.15534C206.076 4.16768 207.358 3.66336 208.682 3.66336C209.649 3.66336 210.636 3.91547 211.624 4.46184C220.618 9.46322 228.834 15.5573 236.063 22.9123C237.534 24.3833 238.333 26.2115 238.291 28.9644C238.207 30.6035 237.177 32.5368 236.084 34.4281C232.428 40.6903 227.742 46.2171 223.161 51.7858C219.693 56.0097 216.331 60.2966 213.137 64.7306C211.077 67.5885 211.183 68.6182 213.956 70.9718C217.928 74.3341 221.984 77.5912 225.977 80.9115C230.81 84.9252 236.168 88.2875 240.728 92.6584C241.149 93.0577 241.59 93.436 241.989 93.8773C244.112 96.2939 245.247 97.9119 245.499 99.6141C245.772 101.4 245.057 103.271 243.46 106.234Z" fill="#231333"/>
<path d="M132.22 20.614C132.68 21.3852 132.512 22.2069 132.266 23.0075C130.908 27.4709 128.809 31.5456 125.709 35.0528C123.766 37.253 121.549 37.6775 119.733 36.3494C117.955 35.0465 117.661 32.6131 119.155 30.2469C121.725 26.1786 125.27 23.163 129.565 21.0406C130.353 20.6518 131.211 20.1391 132.22 20.614Z" fill="#FFF4DB"/>
<path d="M200.97 19.8347C201.319 16.1572 202.741 13.0807 205.318 10.5674C206.087 9.81724 207.163 9.80468 208.1 10.4645C209.035 11.1223 209.241 12.0406 208.968 13.1228C208.31 15.7348 204.099 19.3766 200.97 19.8347Z" fill="#FFF4DB"/>
<g opacity="0.1">
<path d="M344.197 120.505C344.379 121.696 343.903 122.943 342.838 124.918C340.008 130.157 336.534 134.949 332.429 139.277C330.076 141.771 329.263 141.897 326.391 139.936C319.498 135.229 313.012 129.989 306.596 124.666C306.414 124.512 306.26 124.357 306.091 124.217C302.911 121.682 302.015 121.836 299.241 124.736C294.394 129.779 290.303 135.495 285.175 140.286C283.943 141.449 282.626 142.472 281.183 143.354C279.446 144.419 277.68 144.447 275.943 143.41C270.914 140.37 266.543 136.574 262.844 132.021C261.514 130.367 261.359 128.658 262.326 126.711C264.245 122.788 266.963 119.468 269.765 116.204C272.203 113.374 274.668 110.544 276.854 107.518C277.582 106.51 278.269 105.473 278.927 104.408C280.188 102.349 280.09 101.802 278.199 100.387C270.984 95.0078 263.447 90.0205 256.75 83.9825C251.665 79.4154 252.141 80.7463 255.069 75.4788C257.927 70.3373 261.402 65.6021 265.254 61.1471C267.468 58.5974 268.294 58.4714 271.334 60.0124C275.453 62.0998 279.011 65.0277 282.598 67.8857C286.352 70.8977 290.051 73.9657 293.861 76.9077C297.027 79.3453 298.765 79.1212 301.258 75.9831C305.181 71.0238 309.061 66.0364 313.208 61.2452C314.385 59.9003 315.66 58.6535 317.075 57.5327C317.915 56.8743 318.77 56.5381 319.653 56.5381C320.297 56.5381 320.955 56.7062 321.614 57.0704C327.61 60.4046 333.088 64.4674 337.907 69.3706C338.887 70.3513 339.42 71.5701 339.392 73.4053C339.336 74.4981 338.649 75.787 337.921 77.0478C335.483 81.2226 332.359 84.9071 329.305 88.6196C326.993 91.4354 324.752 94.2934 322.623 97.2493C321.25 99.1546 321.32 99.8411 323.169 101.41C325.817 103.652 328.521 105.823 331.182 108.037C334.404 110.712 337.977 112.954 341.017 115.868C341.297 116.134 341.591 116.386 341.857 116.68C343.272 118.291 344.029 119.37 344.197 120.505Z" fill="#1C0D3F"/>
<path d="M346.649 119.888C346.411 119.034 346.088 118.263 345.696 117.591C343.637 114.102 340.513 111.609 337.403 109.143C333.984 106.439 330.58 103.736 327.106 100.976C331.449 96.4226 335.399 91.6454 338.958 86.56C340.863 83.8422 342.684 81.0263 343.301 77.7201C344.183 72.9429 342.054 69.1884 338.663 66.1063C333.788 61.6934 328.549 57.7988 322.595 54.9128C321.642 54.4505 320.731 54.1703 319.821 54.1143C318.406 54.0022 317.033 54.3945 315.646 55.3611C312.914 57.2664 310.645 59.662 308.473 62.1417C304.677 66.4846 301.16 71.0516 297.728 75.8709C292.068 71.0796 286.577 66.3865 281.043 61.7494C278.255 59.4099 275.397 57.1123 271.853 56.0056C268.869 55.0669 265.927 55.151 263.587 57.5886C258.6 62.7721 254.173 68.3759 251.231 75.0163C250.53 76.5854 249.858 78.2104 250.026 80.0176C250.418 84.1644 252.029 87.6527 255.266 90.3566C261.192 95.3159 267.286 100.051 273.702 104.366C274.234 104.73 275.019 104.758 275.313 105.683C275.229 105.781 275.145 105.879 275.047 105.991C273.842 107.406 272.609 108.891 271.362 110.362C267.272 115.195 263.041 119.902 260.141 125.604C259.398 127.061 258.768 128.588 258.922 130.255C259.412 135.957 261.64 140.72 266.613 143.914C267.874 144.741 269.121 145.596 270.396 146.408C278.073 151.283 282.5 150.807 288.776 144.279C292.194 140.72 295.613 137.162 298.709 133.337C299.871 131.908 301.09 130.563 302.337 129.121C302.799 129.499 303.136 129.779 303.472 130.073C309.342 135.103 315.296 140.006 322.034 143.886C329.095 147.963 334.853 146.926 339.476 140.244C341.045 137.974 342.838 135.901 344.533 133.758C347.013 130.606 347.868 124.287 346.649 119.888ZM342.838 124.918C340.008 130.157 336.534 134.948 332.429 139.277C330.076 141.771 329.263 141.897 326.391 139.936C319.499 135.229 313.012 129.989 306.596 124.666C306.414 124.511 306.26 124.357 306.092 124.217C302.912 121.682 302.015 121.836 299.241 124.736C294.394 129.779 290.303 135.495 285.176 140.286C283.943 141.449 282.626 142.471 281.183 143.354C279.446 144.419 277.681 144.447 275.943 143.41C270.914 140.37 266.543 136.573 262.845 132.02C261.514 130.367 261.36 128.658 262.326 126.711C264.246 122.788 266.963 119.468 269.765 116.204C272.203 113.374 274.669 110.544 276.854 107.518C277.583 106.509 278.269 105.473 278.927 104.408C280.188 102.349 280.09 101.802 278.199 100.387C270.984 95.0077 263.447 90.0203 256.751 83.9823C251.665 79.4152 252.142 80.7461 255.069 75.4786C257.927 70.3372 261.402 65.602 265.254 61.147C267.468 58.5973 268.294 58.4712 271.334 60.0122C275.453 62.0996 279.012 65.0276 282.598 67.8855C286.352 70.8975 290.051 73.9656 293.861 76.9075C297.028 79.3452 298.765 79.121 301.258 75.9829C305.181 71.0236 309.062 66.0363 313.208 61.2451C314.385 59.9002 315.66 58.6533 317.075 57.5326C317.916 56.8741 318.77 56.5379 319.653 56.5379C320.297 56.5379 320.956 56.706 321.614 57.0702C327.61 60.4045 333.088 64.4672 337.907 69.3705C338.888 70.3511 339.42 71.57 339.392 73.4052C339.336 74.4979 338.649 75.7868 337.921 77.0476C335.483 81.2224 332.359 84.9069 329.305 88.6194C326.994 91.4353 324.752 94.2932 322.623 97.2492C321.25 99.1545 321.32 99.8409 323.169 101.41C325.817 103.651 328.521 105.823 331.182 108.036C334.405 110.712 337.977 112.954 341.017 115.868C341.297 116.134 341.591 116.386 341.858 116.68C343.273 118.291 344.029 119.37 344.197 120.505C344.379 121.696 343.903 122.942 342.838 124.918Z" fill="#1C0D3F"/>
<path d="M268.679 67.8384C268.985 68.3525 268.873 68.9003 268.709 69.434C267.804 72.4096 266.405 75.126 264.338 77.4642C263.043 78.931 261.565 79.214 260.354 78.3286C259.169 77.46 258.973 75.8377 259.969 74.2603C261.682 71.5481 264.046 69.5377 266.909 68.1227C267.434 67.8636 268.006 67.5217 268.679 67.8384Z" fill="#1C0D3F"/>
<path d="M314.512 67.3185C314.744 64.8668 315.693 62.8159 317.41 61.1403C317.923 60.6402 318.64 60.6318 319.265 61.0717C319.889 61.5102 320.026 62.1224 319.844 62.8439C319.405 64.5853 316.598 67.0131 314.512 67.3185Z" fill="#1C0D3F"/>
</g>
<path d="M346.999 116.302C347.181 117.493 346.705 118.739 345.64 120.715C342.81 125.954 339.336 130.745 335.231 135.074C332.877 137.568 332.065 137.694 329.193 135.733C322.3 131.026 315.814 125.786 309.398 120.463C309.215 120.308 309.061 120.154 308.893 120.014C305.713 117.479 304.816 117.633 302.043 120.533C297.195 125.576 293.105 131.292 287.977 136.083C286.744 137.246 285.428 138.269 283.985 139.151C282.247 140.216 280.482 140.244 278.745 139.207C273.716 136.167 269.345 132.371 265.646 127.817C264.315 126.164 264.161 124.455 265.128 122.508C267.047 118.585 269.765 115.265 272.567 112.001C275.005 109.171 277.47 106.341 279.656 103.315C280.384 102.306 281.071 101.27 281.729 100.205C282.99 98.1456 282.892 97.5993 281.001 96.1843C273.786 90.8047 266.249 85.8174 259.552 79.7793C254.467 75.2123 254.943 76.5432 257.871 71.2756C260.729 66.1342 264.203 61.399 268.056 56.944C270.269 54.3943 271.096 54.2682 274.136 55.8093C278.255 57.8967 281.813 60.8246 285.399 63.6825C289.154 66.6945 292.852 69.7626 296.663 72.7046C299.829 75.1422 301.566 74.918 304.06 71.7799C307.983 66.8206 311.863 61.8333 316.01 57.0421C317.187 55.6972 318.462 54.4504 319.877 53.3296C320.717 52.6712 321.572 52.335 322.454 52.335C323.099 52.335 323.757 52.503 324.416 52.8673C330.412 56.2015 335.889 60.2642 340.709 65.1675C341.689 66.1482 342.222 67.367 342.194 69.2022C342.137 70.295 341.451 71.5838 340.723 72.8447C338.285 77.0195 335.161 80.7039 332.107 84.4164C329.795 87.2323 327.554 90.0902 325.424 93.0462C324.051 94.9515 324.121 95.638 325.971 97.207C328.618 99.4485 331.322 101.62 333.984 103.833C337.206 106.509 340.779 108.751 343.819 111.665C344.099 111.931 344.393 112.183 344.659 112.477C346.074 114.088 346.831 115.167 346.999 116.302Z" fill="#D32F2F"/>
<path d="M349.451 115.685C349.212 114.831 348.89 114.06 348.498 113.388C346.439 109.899 343.314 107.406 340.204 104.94C336.786 102.236 333.382 99.5324 329.908 96.7726C334.25 92.2195 338.201 87.4423 341.759 82.3569C343.665 79.6391 345.486 76.8232 346.102 73.517C346.985 68.7398 344.856 64.9853 341.465 61.9032C336.59 57.4902 331.35 53.5956 325.396 50.7097C324.444 50.2474 323.533 49.9672 322.623 49.9112C321.208 49.7991 319.835 50.1913 318.448 51.158C315.716 53.0633 313.446 55.4589 311.275 57.9386C307.478 62.2815 303.962 66.8485 300.53 71.6677C294.87 66.8765 289.378 62.1834 283.845 57.5463C281.057 55.2067 278.199 52.9092 274.654 51.8024C271.67 50.8638 268.729 50.9479 266.389 53.3855C261.402 58.569 256.975 64.1727 254.033 70.8132C253.332 72.3822 252.66 74.0073 252.828 75.8145C253.22 79.9613 254.831 83.4496 258.067 86.1534C263.993 91.1127 270.087 95.8479 276.504 100.163C277.036 100.527 277.821 100.555 278.115 101.48C278.031 101.578 277.947 101.676 277.849 101.788C276.644 103.203 275.411 104.688 274.164 106.159C270.073 110.992 265.843 115.699 262.943 121.401C262.2 122.858 261.57 124.385 261.724 126.052C262.214 131.754 264.442 136.517 269.415 139.711C270.676 140.538 271.923 141.392 273.198 142.205C280.875 147.08 285.302 146.604 291.578 140.076C294.996 136.517 298.414 132.959 301.51 129.134C302.673 127.705 303.892 126.36 305.139 124.917C305.601 125.296 305.937 125.576 306.274 125.87C312.144 130.899 318.098 135.803 324.836 139.683C331.897 143.76 337.655 142.723 342.278 136.041C343.847 133.771 345.64 131.698 347.335 129.555C349.815 126.402 350.669 120.084 349.451 115.685ZM345.64 120.715C342.81 125.954 339.336 130.745 335.231 135.074C332.877 137.568 332.065 137.694 329.193 135.733C322.3 131.025 315.814 125.786 309.398 120.462C309.216 120.308 309.062 120.154 308.893 120.014C305.713 117.478 304.817 117.633 302.043 120.532C297.196 125.576 293.105 131.292 287.977 136.083C286.745 137.246 285.428 138.268 283.985 139.151C282.248 140.216 280.482 140.244 278.745 139.207C273.716 136.167 269.345 132.37 265.646 127.817C264.316 126.164 264.161 124.455 265.128 122.508C267.047 118.585 269.765 115.265 272.567 112.001C275.005 109.171 277.47 106.341 279.656 103.315C280.384 102.306 281.071 101.27 281.729 100.205C282.99 98.1455 282.892 97.5991 281.001 96.1842C273.786 90.8045 266.249 85.8172 259.552 79.7792C254.467 75.2121 254.943 76.543 257.871 71.2755C260.729 66.134 264.203 61.3988 268.056 56.9439C270.27 54.3941 271.096 54.2681 274.136 55.8091C278.255 57.8965 281.813 60.8245 285.4 63.6824C289.154 66.6944 292.853 69.7624 296.663 72.7044C299.829 75.142 301.567 74.9179 304.06 71.7798C307.983 66.8205 311.863 61.8331 316.01 57.0419C317.187 55.697 318.462 54.4502 319.877 53.3295C320.717 52.671 321.572 52.3348 322.455 52.3348C323.099 52.3348 323.757 52.5029 324.416 52.8671C330.412 56.2014 335.889 60.2641 340.709 65.1674C341.689 66.148 342.222 67.3668 342.194 69.2021C342.138 70.2948 341.451 71.5837 340.723 72.8445C338.285 77.0193 335.161 80.7038 332.107 84.4163C329.795 87.2322 327.554 90.0901 325.424 93.0461C324.052 94.9513 324.122 95.6378 325.971 97.2069C328.619 99.4484 331.322 101.62 333.984 103.833C337.206 106.509 340.779 108.751 343.819 111.665C344.099 111.931 344.393 112.183 344.659 112.477C346.074 114.088 346.831 115.167 346.999 116.302C347.181 117.492 346.705 118.739 345.64 120.715Z" fill="#231333"/>
<path d="M271.48 63.6352C271.787 64.1494 271.675 64.6972 271.511 65.2309C270.606 68.2065 269.207 70.9229 267.14 73.2611C265.844 74.7279 264.366 75.0109 263.156 74.1255C261.971 73.2569 261.775 71.6346 262.771 70.0572C264.484 67.3449 266.847 65.3346 269.711 63.9196C270.236 63.6604 270.808 63.3186 271.48 63.6352Z" fill="#FFF4DB"/>
<path d="M317.313 63.1154C317.546 60.6637 318.494 58.6127 320.212 56.9372C320.725 56.4371 321.442 56.4287 322.067 56.8686C322.69 57.3071 322.828 57.9193 322.645 58.6408C322.207 60.3821 319.399 62.81 317.313 63.1154Z" fill="#FFF4DB"/>
</svg>
