<svg width="350" height="143" viewBox="0 0 350 143" fill="none" xmlns="http://www.w3.org/2000/svg">
<path d="M49.9999 47.5527L65.4507 78.8596L100 83.8799L75.0001 108.249L80.9016 142.658L49.9999 126.412L19.0981 142.658L24.9999 108.249L0 83.8799L34.549 78.8596L49.9999 47.5527Z" fill="#F3A318"/>
<path d="M49.9999 121.329L25.6685 134.121L30.3156 107.028L10.6309 87.8398L37.8342 83.8867L49.9999 59.2363L62.1659 83.8867L89.3692 87.8398L69.6844 107.028L74.3313 134.121L49.9999 121.329Z" fill="#FCC415"/>
<path d="M62.637 122.969C62.637 120.017 65.0306 117.623 67.9833 117.623C67.9838 117.623 67.9841 117.623 67.9847 117.623L65.8187 104.995L81.6378 89.5754L59.7767 86.3986L50.0001 66.5889L43.0977 80.5745C45.4223 81.4273 47.084 83.6535 47.084 86.2734C47.084 89.6287 44.3638 92.3489 41.0084 92.3489C37.9539 92.3489 35.4331 90.0924 35.0044 87.1568L31.8567 87.6142C31.9553 87.8787 32.0168 88.1616 32.0168 88.4605C32.0168 89.8027 30.9288 90.8907 29.5866 90.8907C28.2444 90.8907 27.1564 89.8027 27.1564 88.4605C27.1564 88.4039 27.1691 88.3505 27.1732 88.2947L18.3623 89.5751L34.1814 104.995L30.447 126.768L50.0003 116.488L62.6457 123.136C62.6435 123.08 62.637 123.025 62.637 122.969ZM64.338 110.332C65.2775 110.332 66.0392 111.094 66.0392 112.033C66.0392 112.973 65.2775 113.734 64.338 113.734C63.3985 113.734 62.637 112.973 62.637 112.033C62.637 111.094 63.3985 110.332 64.338 110.332ZM49.7567 93.8068C49.354 93.8068 49.0278 93.4803 49.0278 93.0779C49.0278 92.6752 49.3543 92.3489 49.7567 92.3489C50.1594 92.3489 50.4857 92.6755 50.4857 93.0779C50.4859 93.4806 50.1594 93.8068 49.7567 93.8068ZM51.9441 86.0303C50.8705 86.0303 50.0001 85.1599 50.0001 84.0862C50.0001 83.0126 50.8705 82.1422 51.9441 82.1422C53.0178 82.1422 53.8882 83.0126 53.8882 84.0862C53.8882 85.1599 53.0178 86.0303 51.9441 86.0303ZM55.8322 115.193C55.2954 115.193 54.8602 114.757 54.8602 114.221C54.8602 113.684 55.2954 113.249 55.8322 113.249C56.3691 113.249 56.8043 113.684 56.8043 114.221C56.8046 114.757 56.3693 115.193 55.8322 115.193Z" fill="#F5E134"/>
<path d="M175 0L198.176 46.9603L250 54.4908L212.5 91.0444L221.352 142.659L175 118.29L128.647 142.659L137.5 91.0444L100 54.4908L151.823 46.9603L175 0Z" fill="#F3A318"/>
<path d="M175 110.665L138.503 129.852L145.473 89.2124L115.946 60.4307L156.751 54.5009L175 17.5254L193.249 54.5009L234.054 60.4307L204.527 89.2124L211.497 129.852L175 110.665Z" fill="#FCC415"/>
<path d="M193.956 113.125C193.956 108.696 197.546 105.106 201.975 105.106C201.976 105.106 201.977 105.106 201.977 105.106L198.729 86.164L222.457 63.0344L189.666 58.2692L175.001 28.5547L164.647 49.5332C168.134 50.8124 170.626 54.1516 170.626 58.0815C170.626 63.1145 166.546 67.1948 161.513 67.1948C156.931 67.1948 153.15 63.81 152.507 59.4066L147.785 60.0927C147.933 60.4895 148.026 60.9138 148.026 61.3622C148.026 63.3755 146.394 65.0075 144.38 65.0075C142.367 65.0075 140.735 63.3755 140.735 61.3622C140.735 61.2772 140.754 61.1971 140.76 61.1134L127.544 63.034L151.273 86.1636L145.671 118.823L175.001 103.403L193.969 113.375C193.966 113.292 193.956 113.21 193.956 113.125ZM196.507 94.1696C197.917 94.1696 199.059 95.3119 199.059 96.7211C199.059 98.1304 197.917 99.273 196.507 99.273C195.098 99.273 193.956 98.1308 193.956 96.7211C193.956 95.3123 195.098 94.1696 196.507 94.1696ZM174.636 69.3816C174.032 69.3816 173.542 68.8918 173.542 68.2882C173.542 67.6842 174.032 67.1948 174.636 67.1948C175.24 67.1948 175.729 67.6846 175.729 68.2882C175.729 68.8922 175.24 69.3816 174.636 69.3816ZM177.917 57.7168C176.306 57.7168 175.001 56.4112 175.001 54.8008C175.001 53.1903 176.306 51.8847 177.917 51.8847C179.527 51.8847 180.833 53.1903 180.833 54.8008C180.833 56.4112 179.527 57.7168 177.917 57.7168ZM183.749 101.46C182.944 101.46 182.291 100.807 182.291 100.002C182.291 99.197 182.944 98.5442 183.749 98.5442C184.554 98.5442 185.207 99.197 185.207 100.002C185.207 100.807 184.554 101.46 183.749 101.46Z" fill="#F5E134"/>
<path d="M300 47.5527L315.451 78.8596L350 83.8799L325 108.249L330.902 142.658L300 126.412L269.098 142.658L275 108.249L250 83.8799L284.549 78.8596L300 47.5527Z" fill="#F3A318"/>
<path d="M300 121.329L275.668 134.121L280.316 107.028L260.631 87.8398L287.834 83.8867L300 59.2363L312.166 83.8867L339.369 87.8398L319.684 107.028L324.331 134.121L300 121.329Z" fill="#FCC415"/>
<path d="M312.637 122.969C312.637 120.017 315.031 117.623 317.983 117.623C317.984 117.623 317.984 117.623 317.985 117.623L315.819 104.995L331.638 89.5754L309.777 86.3986L300 66.5889L293.098 80.5745C295.422 81.4273 297.084 83.6535 297.084 86.2734C297.084 89.6287 294.364 92.3489 291.008 92.3489C287.954 92.3489 285.433 90.0924 285.004 87.1568L281.857 87.6142C281.955 87.8787 282.017 88.1616 282.017 88.4605C282.017 89.8027 280.929 90.8907 279.587 90.8907C278.244 90.8907 277.156 89.8027 277.156 88.4605C277.156 88.4039 277.169 88.3505 277.173 88.2947L268.362 89.5751L284.181 104.995L280.447 126.768L300 116.488L312.646 123.136C312.644 123.08 312.637 123.025 312.637 122.969ZM314.338 110.332C315.278 110.332 316.039 111.094 316.039 112.033C316.039 112.973 315.278 113.734 314.338 113.734C313.398 113.734 312.637 112.973 312.637 112.033C312.637 111.094 313.398 110.332 314.338 110.332ZM299.757 93.8068C299.354 93.8068 299.028 93.4803 299.028 93.0779C299.028 92.6752 299.354 92.3489 299.757 92.3489C300.159 92.3489 300.486 92.6755 300.486 93.0779C300.486 93.4806 300.159 93.8068 299.757 93.8068ZM301.944 86.0303C300.87 86.0303 300 85.1599 300 84.0862C300 83.0126 300.87 82.1422 301.944 82.1422C303.018 82.1422 303.888 83.0126 303.888 84.0862C303.888 85.1599 303.018 86.0303 301.944 86.0303ZM305.832 115.193C305.295 115.193 304.86 114.757 304.86 114.221C304.86 113.684 305.295 113.249 305.832 113.249C306.369 113.249 306.804 113.684 306.804 114.221C306.805 114.757 306.369 115.193 305.832 115.193Z" fill="#F5E134"/>
</svg>
