<svg width="179" height="120" viewBox="0 0 179 120" fill="none" xmlns="http://www.w3.org/2000/svg">
<g clip-path="url(#clip0_317_5267)">
<path d="M124.97 51.958C124.949 51.3765 124.91 50.7954 124.86 50.2155C124.805 49.5756 124.729 48.9367 124.637 48.3003C124.513 47.4338 124.359 46.5714 124.176 45.7161C123.941 44.6213 123.647 43.5392 123.309 42.4717C122.968 41.3952 122.566 40.3401 122.125 39.3007C121.27 37.2832 120.209 35.3548 118.994 33.532C118.677 33.0569 118.349 32.5895 118.01 32.1306C118.004 32.0502 117.969 31.9742 117.912 31.9172C117.881 31.886 117.838 31.8567 117.792 31.838C116.881 30.6322 115.895 29.4837 114.843 28.4004C113.31 26.8225 111.621 25.3992 109.826 24.1278C106.258 21.599 102.204 19.7593 97.964 18.6967C95.8003 18.1545 93.5806 17.8303 91.3552 17.6994C90.6826 17.66 90.0088 17.6406 89.3354 17.6406C87.7653 17.6406 86.1954 17.7465 84.6394 17.952C83.5395 18.0973 82.4482 18.2923 81.3667 18.5386C80.2893 18.7837 79.2255 19.0861 78.1765 19.4328C76.0774 20.1261 74.0467 21.029 72.112 22.0968C70.1372 23.1868 68.2784 24.4797 66.5437 25.9197C64.8103 27.3587 63.2243 28.9722 61.7949 30.7126C60.3873 32.4263 59.1416 34.2693 58.0721 36.2115C57.0063 38.1472 56.1315 40.1904 55.4427 42.2894C55.0888 43.3668 54.7949 44.4633 54.548 45.5698C54.5197 45.6972 54.4921 45.8244 54.4654 45.9518C54.4507 45.9716 54.4361 45.9915 54.4215 46.0113C54.3751 46.2922 54.3056 46.5684 54.238 46.8462C54.2228 46.9084 54.2081 46.9707 54.1935 47.0332C54.2218 46.9961 54.25 46.9588 54.2782 46.9216C54.1619 47.5751 54.064 48.2317 53.9803 48.89C53.8389 50.0019 53.7566 51.1197 53.7167 52.2395C53.677 53.3515 53.7006 54.4645 53.7655 55.575C53.8959 57.8015 54.2461 60.0172 54.7903 62.1794C55.3311 64.3285 56.0928 66.4194 57.0229 68.4296C58.892 72.4698 61.5589 76.1381 64.7767 79.2093C65.6109 80.0056 66.4864 80.7595 67.3957 81.47C67.3847 81.4849 67.3738 81.4998 67.3631 81.515C67.3361 81.5533 67.3207 81.5983 67.309 81.643C67.2798 81.7552 67.3447 81.895 67.4658 81.9195C67.4936 81.9248 67.5214 81.9304 67.5499 81.9294C67.6488 81.925 67.7363 81.8651 67.7633 81.7669C67.7641 81.7632 67.765 81.7593 67.7659 81.7558C68.468 82.2898 69.1892 82.7985 69.9262 83.2814C70.8658 83.8967 71.8377 84.4619 72.8315 84.985C73.8245 85.5077 74.8467 85.9721 75.884 86.3999C79.9775 88.0886 84.3943 88.9571 88.8181 89.0272C91.0756 89.0629 93.3336 88.8698 95.5576 88.4855C97.7558 88.1055 99.9136 87.5043 101.999 86.7145C104.06 85.9342 106.044 84.958 107.926 83.8115C109.798 82.6707 111.559 81.3442 113.193 79.8832C116.431 76.9871 119.118 73.4776 121.103 69.6162C122.104 67.6676 122.916 65.6204 123.543 63.5216C124.189 61.3638 124.607 59.1428 124.834 56.9032C124.947 55.7941 125.002 54.6779 124.998 53.5632C124.996 53.0276 124.989 52.4929 124.97 51.958ZM116.731 31.9424C116.731 31.9424 116.731 31.9424 116.73 31.9424C116.513 31.6667 116.292 31.3946 116.069 31.127C116.293 31.3958 116.514 31.6676 116.731 31.9424ZM114.184 32.4071C114.081 32.4543 113.983 32.5091 113.887 32.5693C113.876 32.5188 113.864 32.4685 113.853 32.4182C113.813 32.2411 113.772 32.0639 113.729 31.8876C113.882 32.0591 114.037 32.2297 114.184 32.4071ZM113.44 30.6672C113.415 30.6391 113.39 30.6113 113.365 30.5835C113.364 30.5823 113.363 30.5812 113.363 30.5803C113.389 30.6093 113.414 30.6382 113.44 30.6672ZM102.691 23.5721C102.703 23.5812 102.715 23.5899 102.727 23.5988C102.716 23.5985 102.707 23.5982 102.697 23.5982C102.694 23.5883 102.691 23.5789 102.688 23.5696C102.689 23.5704 102.69 23.5713 102.691 23.5721ZM102.601 23.4436C102.6 23.4433 102.6 23.443 102.6 23.4427C102.599 23.4343 102.598 23.4258 102.597 23.4174C102.598 23.4263 102.599 23.435 102.601 23.4436ZM102.856 24.0427C102.924 24.0447 102.992 24.0469 103.06 24.0491C103.122 24.0514 103.184 24.052 103.245 24.0523C103.276 24.0523 103.306 24.0523 103.336 24.0526C103.4 24.1002 103.465 24.1479 103.529 24.1953C103.629 24.269 103.734 24.3364 103.836 24.4069C103.929 24.4707 104.02 24.5362 104.115 24.5972C104.248 24.6832 104.381 24.7693 104.514 24.8553C104.63 24.9298 104.75 24.997 104.867 25.0675C105.073 25.1909 105.284 25.3051 105.493 25.423C105.736 25.5604 105.975 25.7019 106.215 25.8451C106.338 25.9188 106.456 26.0018 106.576 26.0799C106.687 26.1515 106.794 26.2289 106.902 26.3038C107.112 26.4488 107.319 26.5976 107.529 26.7426C107.735 26.885 107.943 27.024 108.149 27.167C108.393 27.3362 108.635 27.5067 108.875 27.6806C109.082 27.8307 109.288 27.9839 109.495 28.1339C109.917 28.4388 110.349 28.73 110.768 29.0392C110.914 29.1468 111.058 29.2565 111.202 29.3664C111.605 29.6902 111.996 30.0261 112.366 30.3883C112.564 30.5822 112.758 30.7791 112.947 30.9814C113.016 31.0536 113.081 31.1284 113.146 31.2043C113.149 31.2167 113.152 31.2293 113.156 31.2417C113.207 31.4402 113.257 31.6389 113.305 31.8378C113.406 32.2538 113.5 32.6718 113.587 33.0912C113.755 33.9041 113.894 34.7223 114.006 35.5446C114.007 35.5499 114.007 35.5554 114.008 35.5607C114.009 35.5694 114.011 35.5779 114.012 35.5865C114.29 37.6852 114.38 39.8074 114.282 41.9222C114.24 42.8579 114.159 43.7913 114.042 44.7208C113.915 44.7615 113.788 44.8017 113.659 44.8354C113.539 44.8667 113.418 44.8945 113.297 44.9228C113.045 44.9819 112.796 45.0509 112.55 45.1269C112.309 45.2011 112.071 45.2798 111.829 45.35C111.581 45.4222 111.332 45.4927 111.082 45.5613C110.573 45.701 110.061 45.8396 109.561 46.0115C109.41 46.0636 109.259 46.1153 109.108 46.1673C108.984 46.2097 108.863 46.2589 108.74 46.3044C108.481 46.4012 108.223 46.4994 107.965 46.5979C107.73 46.6873 107.495 46.7727 107.259 46.8578C107.026 46.9418 106.794 47.0273 106.559 47.1031C106.301 47.1864 106.044 47.2746 105.785 47.351C105.532 47.4252 105.279 47.4995 105.026 47.574C104.716 47.6654 104.406 47.7567 104.096 47.8481C103.837 47.9243 103.581 48.0094 103.324 48.0901C102.801 48.2537 102.284 48.4316 101.765 48.6061C101.621 48.6544 101.477 48.704 101.334 48.7537C101.336 48.7273 101.339 48.7008 101.342 48.6747C101.347 48.6426 101.354 48.6113 101.362 48.5797C101.385 48.4941 101.349 48.4021 101.272 48.3572C101.242 48.3397 101.207 48.3314 101.172 48.3314C101.103 48.3314 101.033 48.3639 101.002 48.4281C100.973 48.4872 100.948 48.5474 100.929 48.6103C100.921 48.6339 100.917 48.6585 100.911 48.6828C100.899 48.7305 100.892 48.7795 100.884 48.8278C100.864 48.9453 100.86 49.0661 100.854 49.185C100.852 49.2204 100.85 49.2561 100.849 49.2915C100.849 49.2906 100.848 49.29 100.847 49.2892C100.524 48.9179 100.194 48.5544 99.8559 48.198C99.3236 47.6345 98.7715 47.0898 98.2037 46.5622C97.5823 45.9852 96.9381 45.4324 96.2756 44.9025C96.1053 44.7656 95.9339 44.6301 95.7612 44.4964C94.8326 43.7764 93.8694 43.1003 92.8712 42.48C91.8984 41.8752 90.8987 41.3133 89.8707 40.8077C89.4559 40.6036 89.0375 40.407 88.6158 40.2179C88.6163 40.217 88.6169 40.2162 88.6175 40.2152C88.6724 40.1193 88.6791 39.9998 88.6923 39.893C88.7001 39.8304 88.7019 39.7668 88.7033 39.7039C88.7059 39.5901 88.71 39.4762 88.7139 39.3624C88.7224 39.1131 88.7178 38.8635 88.7063 38.6142C88.6821 38.09 88.6493 37.5647 88.5832 37.0439C88.552 36.7985 88.5186 36.5539 88.4776 36.3099C88.4371 36.0698 88.3982 35.8293 88.361 35.5883C88.3451 35.4638 88.3295 35.3394 88.3136 35.2148C88.2965 35.0814 88.2891 34.9461 88.2774 34.8121C88.2935 34.48 88.3154 34.1481 88.3414 33.8162C88.3826 33.2875 88.4332 32.7595 88.4793 32.231C88.5276 31.6736 88.5696 31.1159 88.6079 30.5578C88.6195 30.3872 88.6291 30.2164 88.638 30.0454C88.6444 29.9937 88.6516 29.9421 88.6579 29.8904C88.7093 29.4662 88.7406 29.0398 88.7734 28.6144C88.789 28.4131 88.8083 28.2122 88.8303 28.0117C88.8467 27.9455 88.8632 27.8794 88.8791 27.8134C88.9204 27.6421 88.9615 27.4711 89.0028 27.2998C89.0528 27.0911 89.1101 26.8839 89.1656 26.6761C89.1912 26.5801 89.1456 26.4795 89.0611 26.4338C89.2684 26.3524 89.4764 26.2726 89.6854 26.1953C90.2139 25.9998 90.7476 25.8179 91.285 25.6481C92.3598 25.3091 93.4515 25.0235 94.5539 24.7894C95.4153 24.6064 96.2838 24.4568 97.1566 24.3389C98.2328 24.1957 99.315 24.1019 100.4 24.0567C100.945 24.034 101.491 24.0241 102.037 24.0272C102.31 24.0291 102.583 24.0345 102.856 24.0427ZM119.419 58.107C119.419 58.107 119.419 58.107 119.419 58.107L119.411 58.071C119.414 58.083 119.416 58.0948 119.419 58.107ZM114.148 46.305C114.141 46.3438 114.134 46.3828 114.126 46.4222C114.134 46.3828 114.141 46.3433 114.148 46.3039C114.148 46.3044 114.148 46.3047 114.148 46.305ZM110.817 70.9042C110.806 70.918 110.796 70.932 110.785 70.9458C110.785 70.9455 110.785 70.9452 110.785 70.9449C110.796 70.9315 110.806 70.9177 110.817 70.9042ZM93.5706 87.1012C93.6053 87.0959 93.6399 87.0899 93.6748 87.0844C93.666 87.0962 93.6583 87.1085 93.6513 87.1214C93.6245 87.1147 93.5974 87.1082 93.5706 87.1012ZM83.4205 82.5595C83.4112 82.5252 83.3932 82.4941 83.3703 82.4673C83.3708 82.3947 83.3534 82.322 83.3147 82.258C83.2676 82.1802 83.2177 82.1163 83.1388 82.068C83.0739 82.028 83.0089 82.0011 82.9341 81.9879C82.8585 81.9747 82.7854 81.9695 82.7093 81.9671C82.6716 81.9658 82.634 81.9644 82.5963 81.9628C82.6044 81.8919 82.6122 81.821 82.6209 81.7502C82.6553 81.5018 82.6974 81.255 82.7466 81.0088C82.7966 80.7592 82.8536 80.511 82.9068 80.262C83.0138 79.7566 83.0974 79.2465 83.1944 78.7391C83.2958 78.2088 83.401 77.6794 83.5378 77.1566C83.6725 76.6419 83.8251 76.1318 83.9886 75.6258C84.1514 75.1218 84.3385 74.6263 84.496 74.1207C84.5734 73.8725 84.6402 73.6206 84.7077 73.3697C84.7766 73.1142 84.8187 72.8514 84.8644 72.5909C84.8839 72.4794 84.9012 72.3675 84.9179 72.2556C84.9479 72.2738 84.9778 72.2926 85.0066 72.3132C85.0518 72.3396 85.1007 72.3529 85.1533 72.3529C85.2301 72.3529 85.3045 72.3222 85.3588 72.2678C85.4681 72.1585 85.4743 71.9653 85.3588 71.8568C85.2456 71.7507 85.1123 71.6703 84.9808 71.5895C84.8959 71.5374 84.8112 71.486 84.7264 71.4343C84.7244 71.4298 84.7221 71.4249 84.7197 71.4205C84.7104 71.4045 84.6978 71.3919 84.6817 71.3825C84.6651 71.3727 84.6485 71.3685 84.632 71.3685C84.6278 71.3685 84.6235 71.3688 84.6194 71.3694C84.5151 71.3059 84.4108 71.2423 84.3066 71.1788C85.4288 71.0087 86.5431 70.7819 87.6442 70.5067C88.9043 70.1919 90.1464 69.8063 91.3633 69.353C92.5955 68.894 93.8019 68.36 94.9746 67.764C96.4797 66.9996 97.9309 66.1291 99.3147 65.1622C99.32 65.2221 99.3258 65.282 99.3322 65.3417C99.336 65.3808 99.3451 65.4133 99.3737 65.442C99.4001 65.4684 99.4366 65.4836 99.474 65.4836C99.5457 65.4836 99.624 65.4187 99.6162 65.3416C99.6091 65.2732 99.6033 65.2053 99.5977 65.1369C99.6094 65.1405 99.6213 65.1445 99.6331 65.1481C99.7786 65.1945 99.9201 65.2542 100.061 65.3115C100.293 65.4123 100.525 65.5125 100.755 65.6181C101.025 65.7426 101.296 65.8674 101.566 65.9922C101.658 66.0352 101.751 66.0779 101.844 66.1206C101.848 66.1229 101.853 66.1251 101.857 66.1271C102.263 66.3148 102.669 66.5029 103.073 66.6945C103.199 66.7544 103.322 66.8235 103.445 66.8879C103.539 66.9365 103.632 66.9847 103.723 67.0374C103.974 67.1821 104.224 67.3261 104.472 67.475C104.965 67.771 105.457 68.0678 105.946 68.3706C106.057 68.4398 106.166 68.515 106.275 68.5872C106.364 68.646 106.452 68.7059 106.539 68.7673C106.743 68.9106 106.943 69.0571 107.143 69.2058C107.246 69.2873 107.349 69.3692 107.451 69.4504C107.553 69.5319 107.651 69.6191 107.751 69.703C107.962 69.8807 108.168 70.0631 108.38 70.2385C108.595 70.4159 108.815 70.5893 109.043 70.7495C109.151 70.8249 109.258 70.9018 109.369 70.971C109.479 71.0391 109.59 71.1096 109.708 71.1619C109.714 71.1643 109.719 71.1666 109.725 71.169C109.723 71.2056 109.721 71.242 109.719 71.2782C109.712 71.3747 109.707 71.4711 109.698 71.5672C109.681 71.7716 109.662 71.9756 109.644 72.1797C109.62 72.4465 109.6 72.7137 109.576 72.9804C109.564 73.1158 109.557 73.2528 109.54 73.3879C109.524 73.5123 109.509 73.6368 109.493 73.7612C109.461 73.9463 109.432 74.1321 109.393 74.316C109.348 74.5282 109.301 74.7401 109.253 74.9518C109.162 75.3584 109.078 75.7667 108.997 76.1759C108.926 76.5366 108.859 76.8982 108.771 77.2554C108.72 77.4636 108.669 77.6717 108.614 77.8792C108.559 78.088 108.502 78.2963 108.445 78.5045C108.345 78.8626 108.238 79.2181 108.133 79.5743C108.014 79.9739 107.896 80.374 107.764 80.7695C107.751 80.8082 107.737 80.845 107.726 80.8834C106.213 81.9193 104.626 82.8443 102.976 83.6448C102.473 83.8862 101.964 84.1159 101.45 84.334C101.465 84.3275 101.48 84.3211 101.495 84.3149C101.476 84.3234 101.456 84.3315 101.436 84.3399C101.431 84.3419 101.426 84.3439 101.422 84.3457C101.426 84.3437 101.431 84.342 101.435 84.3401C99.1155 85.3135 96.6884 86.0341 94.2181 86.5061C94.1833 86.5127 94.1499 86.5315 94.1213 86.5558C94.1068 86.5619 94.0926 86.5689 94.079 86.5768C93.7593 86.6347 93.4385 86.688 93.1172 86.7354C93.0652 86.743 93.0135 86.791 92.9883 86.8347C92.9699 86.8656 92.9602 86.9007 92.959 86.9364C91.5118 86.5336 90.0904 86.0384 88.7062 85.4549C86.869 84.6744 85.104 83.7323 83.4271 82.6507C83.4306 82.6207 83.4289 82.5894 83.4205 82.5595ZM62.7305 67.7531H62.7308C62.7366 67.759 62.7425 67.7646 62.7488 67.7706C62.7425 67.7649 62.7366 67.759 62.7305 67.7531ZM63.278 67.3051C63.2847 67.2989 63.2915 67.2927 63.2982 67.2866C63.2988 67.2863 63.2996 67.286 63.3002 67.2857C63.2926 67.292 63.2853 67.2986 63.278 67.3051ZM70.3776 42.5723C70.3735 42.5667 70.3689 42.5611 70.3647 42.5554L70.3624 42.5522C70.3676 42.5591 70.3726 42.5656 70.3776 42.5723ZM70.3545 42.5415L70.351 42.5365C70.3557 42.5426 70.3606 42.5485 70.365 42.5548C70.3616 42.5501 70.358 42.5459 70.3545 42.5415ZM67.0879 38.2838L67.0832 38.277C67.1291 38.3366 67.1745 38.3957 67.2192 38.4536C67.1756 38.3974 67.1321 38.3411 67.0885 38.2849C67.0914 38.2883 67.0938 38.2919 67.0967 38.2954C67.0938 38.2913 67.0908 38.2876 67.0879 38.2838ZM74.0335 44.4792C74.0276 44.4862 74.0221 44.4938 74.0172 44.502C74.0172 44.502 74.0169 44.502 74.0166 44.502C74.0218 44.4938 74.0274 44.4862 74.0335 44.4792ZM87.0565 26.7709C87.1093 26.7858 87.1626 26.8007 87.2158 26.8151C87.2155 26.8151 87.2152 26.8154 87.2152 26.8154C87.1622 26.8007 87.1091 26.7858 87.0565 26.7709ZM74.915 25.357C74.8774 25.3868 74.8405 25.4169 74.8043 25.4478C74.8408 25.4166 74.8776 25.3862 74.915 25.3565C74.915 25.3567 74.915 25.3567 74.915 25.357ZM68.7033 32.4796C68.7034 32.4795 68.7035 32.4793 68.7037 32.4792C68.7034 32.4793 68.7033 32.4795 68.7033 32.4796ZM66.0693 36.9248L66.1309 37.008C66.1104 36.9805 66.0896 36.953 66.0687 36.9254C66.069 36.9254 66.069 36.9251 66.0693 36.9248ZM73.585 46.5956C73.6336 46.6263 73.6829 46.6558 73.7332 46.6839C73.7799 46.7098 73.8313 46.7227 73.8822 46.7227C73.9576 46.7227 74.0321 46.6946 74.0885 46.6382C74.1434 46.5834 74.1742 46.5083 74.1742 46.4307C74.1742 46.3635 74.148 46.2861 74.0993 46.2359C74.1288 46.2157 74.152 46.1894 74.1684 46.1597C74.2085 46.1308 74.2486 46.1018 74.2889 46.073C74.3973 45.9952 74.5115 45.9237 74.6224 45.8495C74.7141 45.7879 74.8071 45.7287 74.8996 45.6685C75.2872 45.4163 75.6739 45.1634 76.0574 44.9051C76.4781 44.6218 76.898 44.3376 77.3245 44.0627C77.3296 44.0594 77.3349 44.0563 77.3399 44.0531C77.3609 44.0432 77.3816 44.0326 77.4027 44.023C77.5691 43.9467 77.7353 43.8704 77.9019 43.795C78.6595 43.4518 79.4079 43.0897 80.1688 42.7547C80.7417 42.5166 81.3165 42.2834 81.8788 42.0208C82.1472 41.8957 82.4123 41.765 82.6788 41.6357C82.8052 41.5743 82.9308 41.5108 83.0581 41.4508C83.3551 41.3287 83.6513 41.2046 83.9446 41.0742C83.9547 41.0697 83.9645 41.0653 83.9744 41.0609C84.1408 41.0024 84.3069 40.9442 84.4742 40.8898C84.8054 40.7822 85.1381 40.6764 85.4722 40.5787C85.8189 40.477 86.1679 40.3893 86.5196 40.3063C86.7997 40.2404 87.0797 40.1801 87.3631 40.1322C87.4369 40.1626 87.511 40.1927 87.5845 40.2236C89.6932 41.117 91.7097 42.2186 93.6061 43.5021C94.2261 43.9221 94.8333 44.3617 95.4266 44.8189C95.5655 44.9263 95.7038 45.035 95.8409 45.1446C96.5556 45.7187 97.2477 46.3195 97.9177 46.9461C98.2474 47.2544 98.5707 47.5695 98.888 47.8908C98.8935 47.8964 98.8993 47.9024 98.9049 47.908C98.9195 47.9229 98.9338 47.9375 98.9484 47.9521C98.9613 47.9653 98.9742 47.9788 98.9873 47.9921C98.9949 47.9994 99.0022 48.007 99.0095 48.0146C99.5146 48.5312 100.004 49.0631 100.477 49.6091C100.601 49.751 100.722 49.8939 100.844 50.0377C100.843 50.359 100.843 50.6799 100.842 51.0012C100.841 51.393 100.835 51.7851 100.824 52.1769C100.813 52.5601 100.793 52.9436 100.754 53.3251C100.743 53.4303 100.732 53.5353 100.722 53.6402C100.699 53.806 100.68 53.9723 100.652 54.1371C100.618 54.3339 100.587 54.5314 100.55 54.7276C100.473 55.1242 100.392 55.5206 100.319 55.9179C100.282 56.1188 100.242 56.3193 100.209 56.5209C100.176 56.7218 100.138 56.9228 100.109 57.1246C100.078 57.3418 100.047 57.5592 100.015 57.7767C99.9824 58.0071 99.9578 58.2394 99.9291 58.4704C99.8821 58.8484 99.8476 59.2284 99.8116 59.6077C99.7756 59.9851 99.7377 60.3624 99.693 60.7389C99.6457 61.1397 99.5985 61.5405 99.5507 61.9414C99.5012 62.3588 99.4489 62.7759 99.4042 63.1939C99.3867 63.3564 99.3683 63.5189 99.3522 63.6813C99.3416 63.7929 99.3306 63.9044 99.32 64.016C99.3124 64.0929 99.3001 64.1715 99.2972 64.249C99.294 64.346 99.2905 64.4428 99.287 64.5398C99.2864 64.5559 99.2862 64.5719 99.2862 64.5881C99.2099 64.6426 99.1336 64.6966 99.0568 64.7506C99.0003 64.7506 98.9441 64.7545 98.8884 64.763C98.799 64.7767 98.7118 64.8398 98.6627 64.9138C98.6363 64.9532 98.616 64.9925 98.6113 65.0404C98.6107 65.0465 98.6101 65.053 98.6101 65.0593C98.3999 65.2023 98.188 65.3428 97.9746 65.4811C97.5463 65.7582 97.112 66.0258 96.6724 66.2844C96.6032 66.325 96.5344 66.3651 96.4649 66.4049C95.3285 67.0598 94.1539 67.647 92.9513 68.1698C92.8832 68.1991 92.8156 68.2283 92.7475 68.2569C90.348 69.2677 87.847 70.0303 85.2828 70.4887C84.7976 70.5755 84.3103 70.6512 83.8218 70.7178C83.8221 70.7178 83.8224 70.7175 83.8227 70.7175C83.8221 70.7175 83.8215 70.7178 83.821 70.7178H83.8207C83.8204 70.7178 83.8198 70.7178 83.8195 70.7181C83.8172 70.7184 83.8154 70.7187 83.8134 70.7187C83.8142 70.7187 83.8151 70.7187 83.8162 70.7187C83.7946 70.7215 83.7735 70.7243 83.7522 70.7271C83.7657 70.7251 83.7791 70.7234 83.7927 70.7215C83.7228 70.7309 83.6525 70.7399 83.5825 70.7488C83.5609 70.7367 83.5393 70.7245 83.5176 70.7128C83.3077 70.5985 83.0961 70.4868 82.8841 70.3758C82.4679 70.1583 82.0619 69.9236 81.6593 69.6824C81.2824 69.4564 80.9145 69.2156 80.5403 68.985C80.1252 68.7292 79.7064 68.4793 79.2927 68.2211C79.1126 68.1084 78.9369 67.9876 78.7637 67.8642C78.5765 67.7304 78.3913 67.5944 78.2077 67.4552C77.5906 66.9878 76.9695 66.5248 76.3557 66.0533C75.6421 65.4897 74.9374 64.9138 74.2528 64.3149C74.0628 64.1488 73.8733 63.9825 73.6863 63.8129C73.5171 63.6595 73.3525 63.5017 73.1865 63.3449C73.0252 63.1926 72.87 63.033 72.7141 62.8747C72.5314 62.6888 72.3487 62.5031 72.1654 62.3176C72.1028 62.2538 72.0376 62.1925 71.9723 62.1311C71.9326 62.0937 71.893 62.0566 71.8536 62.0192C71.8511 62.0169 71.8489 62.0148 71.8463 62.0125C71.8422 61.9724 71.8379 61.9321 71.8337 61.892C71.8498 61.8703 71.8621 61.8458 71.8703 61.8163C71.8879 61.7514 71.8787 61.6803 71.8446 61.6222C71.8329 61.602 71.8183 61.5836 71.8016 61.5676C71.7993 61.5445 71.7975 61.5217 71.7952 61.4987C71.7777 61.3092 71.7618 61.1198 71.7472 60.9304C71.7472 60.9046 71.7469 60.8783 71.7469 60.8526C71.7469 60.8166 71.7469 60.7815 71.744 60.7455C71.7409 60.7098 71.7382 60.6739 71.7353 60.6382C71.723 60.4824 71.7105 60.3268 71.701 60.1711C71.6823 59.8613 71.6682 59.5513 71.6578 59.241C71.6546 59.148 71.6519 59.0551 71.6493 58.9621C71.6268 57.973 71.6459 56.9829 71.7046 55.9952C71.7566 55.1285 71.8403 54.2641 71.9554 53.4036C72.1182 52.2071 72.3407 51.0187 72.6254 49.8456C72.8915 48.7472 73.2136 47.6628 73.585 46.5956ZM99.7911 64.9008C99.7663 64.8929 99.7414 64.885 99.7166 64.8772C99.7166 64.8772 99.7169 64.8769 99.7172 64.8769C99.7415 64.8848 99.7663 64.8926 99.7911 64.9008ZM99.6301 64.3397C99.6126 64.3523 99.5952 64.3652 99.5775 64.3779V64.3776L99.6301 64.3397ZM71.8969 62.4596C71.8972 62.4598 71.8975 62.4601 71.8978 62.4604C71.8995 62.4788 71.9014 62.4967 71.9034 62.515C71.9014 62.4964 71.8991 62.4782 71.8969 62.4596ZM82.0399 81.7098L82.0402 81.7069C82.0402 81.708 82.0402 81.7089 82.0402 81.71C82.0402 81.71 82.0402 81.7101 82.0399 81.7098ZM82.4677 70.8611C82.473 70.864 82.4782 70.8667 82.4835 70.8696C82.4832 70.8696 82.4826 70.8696 82.4824 70.8696L82.4677 70.8611ZM101.281 50.704C101.282 50.659 101.282 50.614 101.283 50.569C101.283 50.5693 101.283 50.5696 101.283 50.5696C101.282 50.6146 101.282 50.6593 101.281 50.704ZM101.785 51.2032C101.786 51.2044 101.787 51.2055 101.788 51.2064C101.788 51.207 101.788 51.2073 101.789 51.2078L101.789 51.2081L101.788 51.2087C101.755 51.1651 101.722 51.1216 101.688 51.078C101.72 51.1194 101.753 51.1614 101.785 51.2032ZM99.6027 85.8531C99.5594 85.8517 99.5161 85.8513 99.4732 85.8514C99.3859 85.8516 99.2982 85.8553 99.2108 85.8615C99.186 85.8511 99.1595 85.8448 99.1321 85.84C99.2586 85.7987 99.3853 85.7581 99.5114 85.7154C99.5421 85.705 99.5727 85.6941 99.6034 85.6836C99.5894 85.7381 99.5892 85.7977 99.6027 85.8531ZM110.092 71.8485C110.08 71.8876 110.068 71.9269 110.057 71.9662C110.07 71.823 110.083 71.68 110.095 71.5369C110.102 71.4616 110.107 71.3863 110.112 71.3107C110.162 71.3205 110.213 71.3185 110.261 71.3069C110.204 71.4874 110.148 71.6677 110.092 71.8485ZM75.8428 21.3389C77.271 20.7427 78.734 20.2396 80.227 19.8318C81.7 19.4296 83.201 19.1308 84.7134 18.9222C86.2539 18.7215 87.8029 18.6184 89.357 18.6153C90.9319 18.6124 92.5045 18.7182 94.0661 18.9231C95.5979 19.1356 97.1126 19.4458 98.6045 19.8537C99.4168 20.0758 100.22 20.3299 101.014 20.6123C101.004 20.6331 100.995 20.6542 100.988 20.6752C100.976 20.7129 100.969 20.7517 100.966 20.7907C100.959 20.8697 100.961 20.9485 100.966 21.0277C100.977 21.1987 101.009 21.3686 101.048 21.5351C101.063 21.5964 101.081 21.6565 101.099 21.7169C101.115 21.7723 101.128 21.8289 101.146 21.8833C101.222 22.1087 101.3 22.3325 101.387 22.5542C101.43 22.6664 101.478 22.7796 101.533 22.8869C101.583 22.9854 101.632 23.0839 101.694 23.1756C101.793 23.3215 101.903 23.4606 102.022 23.5913C102.004 23.5913 101.986 23.5913 101.968 23.5913C101.4 23.5916 100.832 23.6042 100.264 23.6304C99.1178 23.683 97.9752 23.7951 96.8396 23.9584C94.6079 24.2794 92.4094 24.8231 90.2822 25.5696C89.6919 25.7768 89.1077 26.0016 88.5291 26.2396C88.4947 26.2137 88.4504 26.2008 88.4055 26.2008C88.3461 26.2008 88.286 26.2227 88.2488 26.2646C88.2266 26.2899 88.2067 26.3166 88.1862 26.3432C88.1812 26.3544 88.1763 26.3654 88.1713 26.3763C87.9906 26.3395 87.8097 26.3025 87.6298 26.2624C87.3541 26.2011 87.0791 26.1379 86.8037 26.0764C86.753 26.0651 86.7021 26.0538 86.6514 26.0426C86.4673 25.9864 86.2834 25.9301 86.0986 25.876C85.8388 25.7997 85.5771 25.7315 85.3155 25.662C85.0404 25.5889 84.7645 25.5184 84.4863 25.458C84.2246 25.4009 83.9615 25.3506 83.6973 25.3068C83.3788 25.2542 83.0604 25.2098 82.7397 25.1755C82.4629 25.1457 82.1843 25.1264 81.9069 25.1036C81.3465 25.0578 80.7871 25.0092 80.2258 24.9802C79.685 24.9527 79.1431 24.9361 78.6018 24.9182C78.4019 24.9118 78.2027 24.9075 78.0028 24.9064C77.9908 24.9064 77.9786 24.9064 77.9663 24.9064C77.7962 24.9064 77.6265 24.9152 77.4564 24.9216C77.3772 24.9246 77.298 24.9345 77.2193 24.941C77.1591 24.9457 77.0992 24.9509 77.0395 24.9559C76.8366 24.936 76.6329 24.9176 76.4298 24.8994C76.0062 24.8615 75.5818 24.8301 75.1573 24.7988C75.1463 24.7935 75.1349 24.789 75.1231 24.7857C75.1189 24.7845 75.1144 24.7834 75.1099 24.7825C75.0903 24.622 75.0711 24.4615 75.0532 24.3008C75.0138 23.9497 74.9818 23.5981 74.9529 23.2459C74.9127 22.7557 74.8835 22.2646 74.8637 21.773C75.1879 21.6234 75.5146 21.4789 75.8428 21.3389ZM57.3572 39.8257C57.9337 38.4735 58.5911 37.1589 59.3285 35.8868C60.0818 34.586 60.9253 33.3382 61.8385 32.1443C62.7324 30.9944 63.693 29.9003 64.7178 28.8654C65.7824 27.79 66.9227 26.7891 68.1165 25.8588C69.3187 24.9354 70.5754 24.0891 71.8832 23.3227C72.7574 22.8103 73.6559 22.34 74.5724 21.9082C74.5941 22.3546 74.6245 22.8007 74.663 23.2456C74.6937 23.5978 74.7313 23.9494 74.7723 24.3005C74.791 24.459 74.8109 24.6176 74.8319 24.7761C74.7226 24.7814 74.6346 24.8893 74.6346 24.9947C74.6346 25.0143 74.6375 25.0341 74.6425 25.0529C74.622 25.0689 74.6015 25.0853 74.5809 25.1015C74.567 25.1126 74.5537 25.1245 74.5399 25.136C74.4922 25.1576 74.4451 25.1803 74.4006 25.2079C74.341 25.245 74.2851 25.2872 74.23 25.331C74.1431 25.4001 74.0572 25.4707 73.9713 25.5415C73.7957 25.6862 73.6247 25.8364 73.4575 25.9904C73.1216 26.2999 72.8065 26.6321 72.503 26.9728C71.8827 27.6688 71.3043 28.3999 70.727 29.1312C70.4397 29.4955 70.1538 29.8606 69.8722 30.2291C69.6047 30.5793 69.3428 30.9341 69.0765 31.2854C68.7927 31.6602 68.5062 32.0331 68.2221 32.4078C68.0908 32.5807 67.9587 32.7533 67.8311 32.929C67.677 33.1403 67.523 33.3514 67.3689 33.5631C67.3284 33.6186 67.2924 33.6783 67.2546 33.7356C67.1705 33.8621 67.0865 33.9888 67.0024 34.1156C66.9313 34.2229 66.86 34.3304 66.7888 34.4377C66.766 34.4719 66.7446 34.5058 66.7241 34.5412C66.5883 34.7764 66.4532 35.0117 66.3175 35.247C66.1547 35.5294 65.9956 35.8136 65.8366 36.0983C65.7979 36.1676 65.8015 36.2503 65.8399 36.3147C65.795 36.3403 65.7499 36.3654 65.7052 36.3912C65.695 36.3959 65.685 36.4008 65.6748 36.4055C65.6747 36.4052 65.6744 36.4049 65.6742 36.4046C65.6707 36.3945 65.6661 36.3856 65.6599 36.3774C65.5874 36.2836 65.5175 36.1866 65.4384 36.098C65.4103 36.0662 65.3679 36.0509 65.3255 36.0509C65.296 36.0509 65.2667 36.0585 65.2419 36.0728C65.17 36.1149 65.1338 36.2218 65.1838 36.2946C65.2441 36.382 65.3083 36.4667 65.3719 36.5519C65.3094 36.583 65.2468 36.6143 65.1843 36.6452C65.1504 36.6621 65.1166 36.6793 65.0826 36.6965C65.0474 36.669 65.0048 36.6535 64.9602 36.6535C64.9257 36.6535 64.8906 36.662 64.8582 36.679C64.7515 36.7355 64.6443 36.7915 64.5408 36.8539C64.4276 36.9222 64.3148 36.9913 64.2024 37.0608C63.9887 37.1929 63.7765 37.3271 63.566 37.4636C63.1371 37.7413 62.7143 38.0286 62.2975 38.3242C61.4498 38.9251 60.6276 39.5629 59.835 40.2352C59.0525 40.8994 58.2945 41.5936 57.5705 42.3211C57.2129 42.68 56.8645 43.0474 56.5237 43.4223C56.3545 43.6081 56.1873 43.7956 56.0245 43.987C55.9669 44.0548 55.9099 44.123 55.8533 44.1916C56.2555 42.7041 56.7636 41.2469 57.3572 39.8257ZM54.8303 56.857C54.7909 56.475 54.7575 56.0925 54.73 55.7097C54.6721 54.912 54.6479 54.1129 54.6462 53.3133C54.643 51.7551 54.7426 50.2002 54.9449 48.6551C55.1043 47.5052 55.3185 46.3649 55.5875 45.2366C55.6869 45.115 55.7874 44.994 55.8882 44.8738C56.0504 44.6807 56.2182 44.4927 56.3854 44.3038C56.5515 44.1161 56.7172 43.9274 56.8852 43.7411C57.2247 43.3648 57.5725 42.9954 57.9267 42.6332C58.2807 42.2712 58.6414 41.9144 59.0111 41.5685C59.8097 40.8217 60.643 40.1129 61.5078 39.4438C62.0734 39.0085 62.6507 38.5894 63.2415 38.1889C63.525 37.9963 63.8119 37.8086 64.1013 37.625C64.085 37.6422 64.0744 37.6617 64.0639 37.6828C64.0508 37.7094 64.0485 37.7392 64.0639 37.766C64.0713 37.7784 64.0814 37.7883 64.0938 37.7956C64.1109 37.8057 64.1379 37.8116 64.1572 37.804C64.2095 37.783 64.2618 37.763 64.3116 37.7362C64.3627 37.7093 64.4116 37.6784 64.4609 37.6483C64.4921 37.6289 64.5228 37.6089 64.5536 37.5889C64.6249 37.5428 64.6974 37.4981 64.7681 37.4504C64.899 37.3618 65.03 37.273 65.1604 37.1836C65.2902 37.0947 65.4199 37.0056 65.55 36.917C65.5699 36.9034 65.5898 36.89 65.6098 36.8765C65.6217 36.8928 65.6336 36.909 65.6453 36.9254C65.8098 37.1525 65.9739 37.3796 66.1381 37.6067C66.2725 37.7928 66.4043 37.9805 66.5371 38.1671C66.7032 38.3998 66.8713 38.6304 67.0414 38.8599C67.3295 39.2495 67.628 39.6313 67.9186 40.0186C68.0689 40.219 68.2219 40.4176 68.3678 40.6215C68.5196 40.8332 68.6722 41.0442 68.8218 41.2576C69.1354 41.7048 69.4477 42.153 69.7703 42.5938C69.9337 42.8169 70.1012 43.0367 70.2687 43.2565C70.3468 43.3585 70.428 43.4578 70.5087 43.5578C70.5789 43.645 70.6481 43.7329 70.7204 43.8181C71.0686 44.2284 71.4225 44.6332 71.7811 45.0343C72.128 45.4222 72.4953 45.798 72.9106 46.1136C73.0306 46.2048 73.1523 46.2934 73.2745 46.382C73.2582 46.4275 73.2418 46.4731 73.2259 46.5185C73.0228 47.0935 72.8366 47.6746 72.6641 48.2598C72.3189 49.4307 72.0368 50.6208 71.8158 51.8215C71.3861 54.1553 71.1947 56.5318 71.2399 58.904C71.2449 59.2521 71.2563 59.6005 71.2717 59.9484C71.2805 60.1426 71.2895 60.3369 71.3004 60.5307C71.306 60.633 71.3083 60.7371 71.3232 60.8385C71.3285 60.8728 71.3335 60.9072 71.3389 60.9414C71.3468 61.0428 71.355 61.144 71.3637 61.2452C71.3742 61.3661 71.3854 61.4866 71.3971 61.6076C71.2588 61.7101 71.1206 61.8127 70.982 61.9151C70.9525 61.9206 70.9244 61.9314 70.9008 61.9477C70.7035 62.083 70.5014 62.2122 70.3085 62.3541C70.0989 62.5087 69.8949 62.6712 69.69 62.8323C69.69 62.8323 69.69 62.8323 69.6902 62.832C69.5371 62.95 69.3847 63.0693 69.2257 63.1786C69.1263 63.2469 69.0267 63.3151 68.9269 63.3832C68.8269 63.4521 68.7217 63.5148 68.6194 63.5805C68.4488 63.6896 68.2771 63.7969 68.1082 63.9082C67.9024 64.0436 67.7004 64.1831 67.4979 64.3236C67.3129 64.4523 67.1325 64.5879 66.9507 64.7208C66.8759 64.7757 66.8011 64.8304 66.7264 64.8853C66.6416 64.9479 66.5578 65.013 66.4709 65.0727C66.3602 65.149 66.2497 65.2251 66.1389 65.3016C66.0735 65.3466 66.0088 65.3921 65.9416 65.4343C65.7505 65.5541 65.5616 65.6786 65.3655 65.7898C65.169 65.9014 64.9728 66.0137 64.7744 66.1222C64.5712 66.233 64.368 66.344 64.1653 66.4555C64.0382 66.5254 63.9115 66.5964 63.785 66.6671C63.7774 66.6385 63.7625 66.6113 63.7397 66.5885C63.706 66.5548 63.659 66.537 63.6126 66.537C63.567 66.537 63.522 66.5539 63.4895 66.5885C63.3773 66.708 63.2652 66.8268 63.1463 66.9395C63.0977 66.9857 63.0505 67.0342 62.999 67.077C62.9684 67.1023 62.9377 67.1275 62.9075 67.1532C62.8352 67.1917 62.7633 67.2307 62.6927 67.2721C62.6553 67.2887 62.6325 67.3283 62.6257 67.3694C62.6083 67.3814 62.5909 67.3939 62.5734 67.4059C62.5631 67.4131 62.5525 67.4204 62.5421 67.4276C62.4984 67.3326 62.4552 67.2373 62.4117 67.1421C62.3856 67.0848 62.3172 67.0407 62.2585 67.0244C62.2364 67.0183 62.2136 67.0153 62.191 67.0153C62.1457 67.0153 62.1006 67.0271 62.0612 67.0502C62.0523 67.0553 62.0444 67.062 62.0364 67.0682C61.9682 67.0013 61.9004 66.9342 61.8316 66.8676C61.8053 66.8421 61.774 66.8238 61.7411 66.813C61.0594 66.1138 60.4057 65.3877 59.784 64.6344C59.5966 64.4029 59.4116 64.1696 59.2292 63.934C59.2295 63.9346 59.23 63.9352 59.2303 63.9357C59.2286 63.9334 59.227 63.9313 59.2253 63.9293C59.2256 63.9296 59.2262 63.9302 59.2265 63.9304C59.2239 63.9273 59.2214 63.924 59.2189 63.9206C59.2194 63.9214 59.22 63.9223 59.2206 63.9231C59.2194 63.922 59.2186 63.9205 59.2177 63.9195C59.218 63.9198 59.2186 63.9203 59.2189 63.9206C59.2183 63.92 59.218 63.9198 59.2177 63.9193L59.2174 63.919C59.2169 63.9187 59.2169 63.9184 59.2166 63.9181C59.2166 63.9178 59.2163 63.9178 59.2163 63.9178C59.2163 63.9178 59.2163 63.9178 59.2166 63.9178C59.2163 63.9175 59.216 63.9173 59.2157 63.9167C59.2157 63.9167 59.2157 63.9167 59.2157 63.917C59.2157 63.9167 59.2157 63.9167 59.2154 63.9164C59.2143 63.915 59.2134 63.9141 59.2129 63.9127C59.2129 63.913 59.2129 63.9132 59.2129 63.9132C57.7867 62.0596 56.5373 60.0712 55.5008 57.9741C55.4455 57.8619 55.3909 57.749 55.3368 57.6363C55.3197 57.5986 55.277 57.5691 55.2383 57.5556C55.1382 57.3445 55.0401 57.1326 54.9439 56.9198C54.9249 56.8777 54.8787 56.8569 54.8338 56.8569C54.8323 56.857 54.8315 56.857 54.8303 56.857ZM60.4043 65.3934C60.4037 65.3929 60.4035 65.3923 60.4029 65.3917C60.402 65.3906 60.4009 65.3891 60.4 65.388C60.4016 65.3899 60.4029 65.3917 60.4043 65.3934ZM68.049 80.6428C66.9289 79.7642 65.8631 78.8209 64.8529 77.8173C63.7831 76.7548 62.7877 75.6179 61.8626 74.4276C60.9646 73.2543 60.1391 72.0298 59.3897 70.7565C58.6244 69.458 57.9515 68.1058 57.3598 66.7197C56.7749 65.3201 56.2806 63.8866 55.8766 62.4239C55.4685 60.9474 55.1666 59.442 54.9558 57.9247C54.9339 57.7578 54.9129 57.5906 54.8931 57.4233C54.9308 57.5046 54.969 57.5855 55.0071 57.6665C55.0057 57.6709 55.0041 57.6755 55.003 57.6803C54.9892 57.7305 54.9997 57.7753 55.0216 57.8208C56.0388 59.9334 57.2551 61.9479 58.6694 63.8187C58.9225 64.1531 59.1818 64.4831 59.4468 64.8087C59.484 64.8542 59.5214 64.8998 59.5588 64.9452C59.5813 64.973 59.604 65.0011 59.6268 65.029C59.9428 65.4166 60.2649 65.7995 60.597 66.1729C60.8744 66.4849 61.1574 66.7921 61.4459 67.0943C61.4568 67.1317 61.4774 67.1651 61.5046 67.1952C61.6041 67.3039 61.7042 67.4115 61.808 67.5164C61.8834 67.5927 61.9589 67.6682 62.0351 67.7435C62.0351 67.7528 62.036 67.7624 62.0377 67.7716C62.0486 67.8334 62.0582 67.8953 62.0719 67.9566C62.0863 68.0218 62.1105 68.0859 62.1315 68.1492C62.156 68.222 62.1807 68.2948 62.2082 68.3664C62.2532 68.4825 62.2979 68.5988 62.3429 68.7149C62.4036 68.8725 62.4663 69.0286 62.5303 69.1846C62.6945 69.5845 62.8615 69.9829 63.0307 70.3808C63.0874 70.5146 63.1432 70.6492 63.2026 70.7819C63.3081 71.0169 63.4131 71.2519 63.5183 71.4866C63.5742 71.6111 63.6273 71.737 63.6875 71.8596C63.7983 72.0849 63.9091 72.3103 64.0198 72.5362C64.0823 72.663 64.142 72.7908 64.2092 72.915C64.3295 73.1366 64.4495 73.3579 64.5699 73.5798C64.6486 73.7248 64.7351 73.8656 64.8195 74.0076C64.9052 74.1526 64.9902 74.2982 65.0784 74.4419C65.4874 75.1061 65.893 75.772 66.289 76.444C66.498 76.7992 66.7078 77.1537 66.9183 77.5082C67.1179 77.8441 67.3292 78.1724 67.5499 78.4948C67.7264 78.7534 67.9086 79.008 68.0898 79.2635C68.1741 79.3822 68.2579 79.5009 68.3412 79.6204C68.3859 79.6851 68.4309 79.7494 68.4759 79.8139C68.5197 79.8771 68.5668 79.9384 68.6144 79.9992C68.6042 80.0088 68.5945 80.0182 68.5846 80.0281C68.4786 80.1333 68.3774 80.2459 68.2821 80.3611C68.204 80.4547 68.1265 80.549 68.049 80.6428ZM89.3571 87.9673C89.3378 87.9673 89.318 87.9673 89.2987 87.9673C87.7746 87.9673 86.251 87.8591 84.7405 87.6626C83.2305 87.454 81.7372 87.1514 80.2655 86.7544C78.7792 86.354 77.3225 85.8466 75.9025 85.2532C74.5005 84.6554 73.1384 83.9699 71.8221 83.2006C70.6391 82.5095 69.501 81.7431 68.4079 80.9182C68.4726 80.8393 68.5375 80.7603 68.6024 80.6812C68.6535 80.6189 68.7083 80.559 68.7623 80.4988C68.8587 80.3912 68.9593 80.2869 69.0712 80.1952C69.1254 80.1551 69.1814 80.1174 69.2383 80.0813C69.375 80.1814 69.5207 80.2763 69.6718 80.3525C69.8503 80.4428 70.0324 80.5295 70.2187 80.6047C70.415 80.7258 70.6216 80.83 70.8245 80.9396C70.9005 80.9806 70.9754 81.025 71.0534 81.0624C71.1945 81.1299 71.3355 81.1975 71.4764 81.265C71.5699 81.31 71.6622 81.3563 71.7582 81.3951C71.9067 81.4553 72.055 81.5155 72.2034 81.5755C72.2827 81.6079 72.3613 81.6404 72.4423 81.6688C72.6002 81.7237 72.7582 81.7787 72.9161 81.8337C73.1483 81.9147 73.3884 81.9731 73.625 82.0395C73.715 82.0645 73.8063 82.0842 73.8971 82.1052C74.0278 82.1359 74.1585 82.1663 74.2894 82.1969C74.5312 82.2534 74.7738 82.308 75.0152 82.3662C75.4941 82.4817 75.9702 82.6085 76.4487 82.7257C76.5063 82.7397 76.565 82.7496 76.6229 82.7614C76.6814 82.7734 76.7398 82.7874 76.7989 82.7973C76.9313 82.8195 77.0637 82.8418 77.1964 82.8637C77.4431 82.9047 77.6916 82.9379 77.9395 82.9727C78.4277 83.0416 78.9199 83.0812 79.4128 83.0908C79.9162 83.1004 80.4195 83.1045 80.9231 83.1235C81.2551 83.1361 81.5866 83.1533 81.9186 83.1656C82.035 83.17 82.135 83.0823 82.1632 82.9744C82.2065 82.9733 82.2495 82.9716 82.2925 82.97C82.3071 82.9951 82.3267 83.0161 82.3541 83.0319C82.3951 83.0561 82.4451 83.0626 82.4909 83.0498C82.5401 83.0363 82.5831 82.9984 82.6059 82.9514C82.6837 82.9452 82.7613 82.9376 82.8389 82.928C83.8882 83.622 84.9759 84.2578 86.0928 84.8351C87.8993 85.7687 89.787 86.5501 91.7263 87.1627C92.3644 87.3644 93.0092 87.5461 93.6584 87.7096C92.2308 87.8807 90.7953 87.9652 89.3571 87.9673ZM122.865 62.3613C122.468 63.8349 121.964 65.2785 121.377 66.6865C120.789 68.0665 120.119 69.4073 119.365 70.7039C118.596 72.0269 117.733 73.2935 116.8 74.5057C115.897 75.6632 114.925 76.7638 113.889 77.8035C112.832 78.8652 111.701 79.8534 110.518 80.7719C110.37 80.8851 110.222 80.997 110.072 81.1081C109.968 81.0657 109.853 81.0468 109.742 81.0244C109.618 80.999 109.495 80.9688 109.372 80.9397C109.21 80.9015 109.049 80.8596 108.888 80.8163C108.894 80.8029 108.899 80.7885 108.903 80.7731C108.927 80.688 108.914 80.5948 108.87 80.5184C108.827 80.4445 108.755 80.3895 108.672 80.3667C108.644 80.3588 108.612 80.3547 108.579 80.3547C108.547 80.3547 108.514 80.3594 108.484 80.3686C108.497 80.3186 108.511 80.2685 108.525 80.2185C108.549 80.1281 108.573 80.0374 108.596 79.9467C108.782 79.4696 108.956 78.988 109.12 78.5032C109.315 77.925 109.494 77.3416 109.657 76.7538C109.783 76.3018 109.897 75.8467 110.005 75.3901C110.067 75.1329 110.126 74.8751 110.183 74.6169C110.425 73.512 110.613 72.3947 110.748 71.2713C110.763 71.2708 110.778 71.2663 110.79 71.257C110.817 71.2365 110.843 71.2173 110.867 71.193C110.887 71.1728 110.904 71.1508 110.925 71.1311C110.957 71.101 110.989 71.0706 111.021 71.0405C111.092 70.9736 111.165 70.9084 111.238 70.8429C111.266 70.8174 111.268 70.7736 111.249 70.7426C111.257 70.7327 111.265 70.7227 111.273 70.7128C111.413 70.54 111.558 70.3693 111.693 70.1925C111.983 69.8134 112.272 69.4336 112.559 69.0522C112.791 68.743 113.023 68.4333 113.259 68.1267C113.258 68.1284 113.257 68.13 113.256 68.1317C113.256 68.1308 113.256 68.1303 113.257 68.1297C113.26 68.1253 113.264 68.1207 113.267 68.1162C113.268 68.1148 113.269 68.1137 113.27 68.1122C113.269 68.1139 113.268 68.1154 113.267 68.117C113.27 68.1122 113.274 68.1073 113.278 68.1026C113.278 68.1023 113.278 68.1018 113.278 68.1015C113.28 68.1 113.281 68.0986 113.282 68.0973C113.281 68.0976 113.281 68.0976 113.281 68.0979C113.43 67.9056 113.578 67.7136 113.726 67.5211C113.726 67.5214 113.726 67.5217 113.726 67.522C113.726 67.5214 113.727 67.5211 113.727 67.5209C113.727 67.5206 113.727 67.5206 113.727 67.5203L113.727 67.5206C113.727 67.5203 113.727 67.52 113.728 67.5197V67.52C113.728 67.5189 113.73 67.5174 113.731 67.5158C113.732 67.5141 113.734 67.5124 113.735 67.5105C113.735 67.5105 113.735 67.5105 113.735 67.5103L113.735 67.51C113.735 67.51 113.736 67.5097 113.736 67.5094C113.736 67.5091 113.736 67.5091 113.736 67.5091C113.736 67.5088 113.737 67.5085 113.737 67.5083V67.508L113.737 67.5077C113.737 67.5074 113.737 67.5074 113.737 67.5071C113.738 67.5068 113.738 67.5065 113.738 67.5062C113.739 67.5057 113.739 67.5048 113.74 67.5042L113.74 67.504V67.5037C113.74 67.5034 113.741 67.5028 113.741 67.5025C113.741 67.5028 113.741 67.5028 113.741 67.5031C113.741 67.5028 113.741 67.5027 113.741 67.5022C113.741 67.5022 113.741 67.5019 113.742 67.5019C113.742 67.5017 113.742 67.5017 113.742 67.5014C113.742 67.5008 113.743 67.5005 113.743 67.4999C113.743 67.4997 113.743 67.4997 113.743 67.4994C113.744 67.4991 113.744 67.4988 113.744 67.4985C113.744 67.4985 113.744 67.4985 113.744 67.4982C113.744 67.4982 113.744 67.4982 113.745 67.4979C113.745 67.4979 113.745 67.4979 113.745 67.4977C113.746 67.4959 113.747 67.4946 113.748 67.4929C113.749 67.4923 113.749 67.4918 113.75 67.4915C113.75 67.4912 113.75 67.4909 113.75 67.4906C113.751 67.4903 113.751 67.4903 113.751 67.4901H113.751C113.752 67.4889 113.752 67.4878 113.753 67.4866C113.756 67.483 113.759 67.4793 113.762 67.4757C113.762 67.4757 113.762 67.4757 113.762 67.4757C113.904 67.2933 114.046 67.1106 114.187 66.9276C114.187 66.9279 114.186 66.9282 114.186 66.9282C114.187 66.9276 114.187 66.9271 114.188 66.9265C114.188 66.9268 114.187 66.9271 114.187 66.9274C114.192 66.9215 114.196 66.9162 114.201 66.9102C114.2 66.9107 114.199 66.9113 114.199 66.9116C114.204 66.9057 114.208 66.8998 114.213 66.8938C114.355 66.7111 114.496 66.5284 114.637 66.3452C114.64 66.3413 114.643 66.3376 114.646 66.3337C114.646 66.3343 114.645 66.3348 114.645 66.3351C114.647 66.3331 114.648 66.331 114.65 66.329C114.65 66.3287 114.65 66.3284 114.65 66.3281C114.65 66.3284 114.65 66.3284 114.65 66.3284C114.651 66.3281 114.651 66.3275 114.651 66.3273C114.652 66.327 114.652 66.3267 114.652 66.3264C114.652 66.3258 114.653 66.3255 114.653 66.3252C114.645 66.3354 114.637 66.3455 114.63 66.3556C114.775 66.1668 114.921 65.9782 115.067 65.7895C115.066 65.7906 115.066 65.7915 115.065 65.7926C115.068 65.7885 115.071 65.7845 115.074 65.7803C115.075 65.7786 115.077 65.777 115.078 65.7753C115.073 65.7817 115.068 65.7882 115.063 65.7946C115.606 65.0984 116.15 64.4042 116.68 63.699C116.956 63.3328 117.23 62.9657 117.505 62.5997C117.752 62.2726 118.004 61.9499 118.252 61.624C118.509 61.2864 118.767 60.9497 119.021 60.6103C119.289 60.2527 119.552 59.8918 119.81 59.5267C120.025 59.2229 120.233 58.9146 120.452 58.6141C120.473 58.579 120.486 58.5416 120.491 58.5022C120.736 58.5185 120.98 58.5314 121.225 58.5426C121.683 58.5631 122.142 58.5732 122.601 58.5732C122.631 58.5732 122.661 58.5732 122.691 58.5732C122.694 58.5732 122.697 58.5732 122.7 58.573C122.771 58.5727 122.842 58.5724 122.913 58.5715C123.079 58.5704 123.246 58.5692 123.412 58.5595C123.468 58.5581 123.519 58.5311 123.551 58.4896C123.596 58.4884 123.64 58.487 123.685 58.4857C123.482 59.7916 123.209 61.0847 122.865 62.3613ZM124.063 54.3217C124.051 54.7315 124.03 55.1407 124.003 55.5497C123.952 56.3488 123.869 57.1459 123.765 57.9393C123.749 58.0495 123.734 58.1597 123.717 58.2696C123.66 58.2716 123.603 58.2733 123.545 58.2749C123.513 58.2366 123.465 58.2123 123.412 58.2117C123.256 58.21 123.101 58.2143 122.945 58.2162C122.86 58.2173 122.776 58.2179 122.692 58.2182C122.691 58.2182 122.691 58.2182 122.691 58.2182C122.658 58.2182 122.626 58.2185 122.594 58.2185C122.147 58.219 121.699 58.2134 121.252 58.2001C121.005 58.1931 120.758 58.1829 120.511 58.1709C120.425 58.1666 120.339 58.1621 120.253 58.1574C120.231 58.1524 120.209 58.1498 120.186 58.1498C120.175 58.1498 120.165 58.1504 120.153 58.1518C120.153 58.1515 120.151 58.1515 120.151 58.1515C120.109 58.149 120.068 58.1471 120.027 58.1454C120.003 58.0389 119.976 57.9329 119.951 57.827C119.942 57.7882 119.932 57.7493 119.923 57.7105C119.924 57.6891 119.923 57.6675 119.915 57.6463C119.906 57.6191 119.897 57.5917 119.888 57.5643C119.861 57.4486 119.833 57.3325 119.807 57.2161C119.716 56.803 119.646 56.3856 119.571 55.9691C119.552 55.8615 119.534 55.7531 119.513 55.6458C119.491 55.533 119.472 55.4196 119.447 55.3077C119.42 55.1879 119.393 55.0682 119.366 54.9487C119.342 54.8388 119.311 54.73 119.284 54.6207C119.235 54.4278 119.181 54.2357 119.12 54.046C119.053 53.8376 118.986 53.6289 118.91 53.4237C118.83 53.2089 118.75 52.9948 118.665 52.782C118.579 52.5669 118.49 52.3539 118.4 52.1406C118.236 51.7505 118.064 51.3627 117.886 50.9787C117.793 50.7791 117.704 50.5776 117.607 50.3797C117.547 50.2552 117.486 50.1304 117.425 50.0059C117.389 49.9314 117.354 49.856 117.316 49.7828C117.215 49.5908 117.117 49.3969 117.011 49.2081C116.919 49.044 116.827 48.8792 116.732 48.7164C116.72 48.6929 116.707 48.6694 116.695 48.6458C116.601 48.464 116.501 48.2854 116.402 48.1062C116.356 48.0229 116.307 47.9414 116.259 47.8591C116.214 47.7813 116.17 47.7021 116.123 47.625C116.018 47.4522 115.916 47.2759 115.805 47.1067C115.69 46.9328 115.579 46.7565 115.459 46.587C115.333 46.4108 115.209 46.2342 115.079 46.062C115.014 45.9764 114.95 45.8905 114.884 45.8054C114.862 45.7601 114.84 45.7146 114.82 45.6684C114.734 45.4679 114.647 45.2676 114.561 45.0668C114.536 45.0049 114.512 44.9425 114.488 44.8803C114.471 44.8356 114.45 44.7996 114.407 44.7747C114.4 44.7709 114.393 44.7689 114.386 44.7661C114.425 44.4732 114.46 44.18 114.492 43.8864C114.605 42.8324 114.671 41.7736 114.69 40.7137C114.728 38.5708 114.57 36.4248 114.222 34.31C114.16 33.9339 114.091 33.5593 114.016 33.1858C114.041 33.1787 114.065 33.1677 114.087 33.1528C114.206 33.0727 114.328 32.9973 114.458 32.937C114.85 32.785 115.267 32.7225 115.681 32.6638C116.021 32.6275 116.36 32.6062 116.701 32.5842C116.865 32.5738 117.03 32.5617 117.194 32.5468C117.993 33.6172 118.731 34.731 119.404 35.8854C120.147 37.1592 120.802 38.4831 121.38 39.8392C121.963 41.2335 122.458 42.6611 122.862 44.1177C123.266 45.5764 123.566 47.0627 123.775 48.5614C123.975 50.0925 124.08 51.6335 124.088 53.1775C124.091 53.5587 124.075 53.9404 124.063 54.3217Z" fill="#161616"/>
<path d="M89.348 102.359C106.783 102.359 120.917 100.799 120.917 98.8753C120.917 96.9513 106.783 95.3916 89.348 95.3916C71.9131 95.3916 57.7793 96.9513 57.7793 98.8753C57.7793 100.799 71.9131 102.359 89.348 102.359Z" fill="#161616"/>
</g>
<defs>
<clipPath id="clip0_317_5267">
<rect width="84.7179" height="84.7179" fill="white" transform="translate(46.9746 17.6406)"/>
</clipPath>
</defs>
</svg>
