<svg width="178" height="120" viewBox="0 0 178 120" fill="none" xmlns="http://www.w3.org/2000/svg">
<g clip-path="url(#clip0_317_10177)">
<path d="M124.636 51.958C124.615 51.3765 124.576 50.7954 124.526 50.2155C124.471 49.5756 124.395 48.9367 124.303 48.3003C124.179 47.4338 124.025 46.5714 123.842 45.7161C123.607 44.6213 123.313 43.5392 122.975 42.4717C122.634 41.3952 122.232 40.3401 121.791 39.3007C120.936 37.2832 119.875 35.3548 118.66 33.532C118.343 33.0569 118.015 32.5895 117.676 32.1306C117.67 32.0502 117.635 31.9742 117.578 31.9172C117.547 31.886 117.504 31.8567 117.458 31.838C116.547 30.6322 115.561 29.4837 114.509 28.4004C112.976 26.8225 111.287 25.3992 109.492 24.1278C105.924 21.599 101.87 19.7593 97.63 18.6967C95.4663 18.1545 93.2466 17.8303 91.0212 17.6994C90.3486 17.66 89.6748 17.6406 89.0014 17.6406C87.4313 17.6406 85.8615 17.7465 84.3055 17.952C83.2056 18.0973 82.1143 18.2923 81.0327 18.5386C79.9553 18.7837 78.8915 19.0861 77.8425 19.4328C75.7434 20.1261 73.7127 21.029 71.778 22.0968C69.8032 23.1868 67.9444 24.4797 66.2097 25.9197C64.4764 27.3587 62.8903 28.9722 61.461 30.7126C60.0533 32.4263 58.8077 34.2693 57.7381 36.2115C56.6723 38.1472 55.7976 40.1904 55.1088 42.2894C54.7548 43.3668 54.4609 44.4633 54.214 45.5698C54.1857 45.6972 54.1582 45.8244 54.1314 45.9518C54.1168 45.9716 54.1021 45.9915 54.0875 46.0113C54.0411 46.2922 53.9716 46.5684 53.904 46.8462C53.8888 46.9084 53.8742 46.9707 53.8595 47.0332C53.8878 46.9961 53.916 46.9588 53.9442 46.9216C53.8279 47.5751 53.73 48.2317 53.6463 48.89C53.5049 50.0019 53.4227 51.1197 53.3827 52.2395C53.343 53.3515 53.3666 54.4645 53.4315 55.575C53.5619 57.8015 53.9121 60.0172 54.4564 62.1794C54.9971 64.3285 55.7589 66.4194 56.689 68.4296C58.558 72.4698 61.225 76.1381 64.4427 79.2093C65.2769 80.0056 66.1524 80.7595 67.0618 81.47C67.0507 81.4849 67.0398 81.4998 67.0291 81.515C67.0021 81.5533 66.9867 81.5983 66.9751 81.643C66.9458 81.7552 67.0107 81.895 67.1318 81.9195C67.1596 81.9248 67.1874 81.9304 67.2159 81.9294C67.3148 81.925 67.4024 81.8651 67.4293 81.7669C67.4302 81.7632 67.431 81.7593 67.4319 81.7558C68.134 82.2898 68.8552 82.7985 69.5923 83.2814C70.5318 83.8967 71.5038 84.4619 72.4975 84.985C73.4905 85.5077 74.5127 85.9721 75.55 86.3999C79.6435 88.0886 84.0603 88.9571 88.4841 89.0272C90.7416 89.0629 92.9996 88.8698 95.2236 88.4855C97.4218 88.1055 99.5796 87.5043 101.665 86.7145C103.726 85.9342 105.71 84.958 107.592 83.8115C109.464 82.6707 111.225 81.3442 112.859 79.8832C116.097 76.9871 118.784 73.4776 120.769 69.6162C121.77 67.6676 122.582 65.6204 123.209 63.5216C123.855 61.3638 124.273 59.1428 124.5 56.9032C124.613 55.7941 124.668 54.6779 124.664 53.5632C124.662 53.0276 124.655 52.4929 124.636 51.958ZM116.397 31.9424C116.397 31.9424 116.397 31.9424 116.396 31.9424C116.179 31.6667 115.958 31.3946 115.735 31.127C115.959 31.3958 116.18 31.6676 116.397 31.9424ZM113.85 32.4071C113.747 32.4543 113.649 32.5091 113.553 32.5693C113.542 32.5188 113.53 32.4685 113.519 32.4182C113.479 32.2411 113.438 32.0639 113.395 31.8876C113.548 32.0591 113.703 32.2297 113.85 32.4071ZM113.106 30.6672C113.081 30.6391 113.056 30.6113 113.031 30.5835C113.03 30.5823 113.029 30.5812 113.029 30.5803C113.055 30.6093 113.08 30.6382 113.106 30.6672ZM102.357 23.5721C102.369 23.5812 102.381 23.5899 102.393 23.5988C102.382 23.5985 102.373 23.5982 102.363 23.5982C102.36 23.5883 102.357 23.5789 102.354 23.5696C102.355 23.5704 102.356 23.5713 102.357 23.5721ZM102.267 23.4436C102.266 23.4433 102.266 23.443 102.266 23.4427C102.265 23.4343 102.264 23.4258 102.263 23.4174C102.264 23.4263 102.265 23.435 102.267 23.4436ZM102.522 24.0427C102.59 24.0447 102.658 24.0469 102.726 24.0491C102.788 24.0514 102.85 24.052 102.911 24.0523C102.942 24.0523 102.972 24.0523 103.002 24.0526C103.066 24.1002 103.131 24.1479 103.195 24.1953C103.295 24.269 103.4 24.3364 103.502 24.4069C103.595 24.4707 103.686 24.5362 103.781 24.5972C103.914 24.6832 104.047 24.7693 104.18 24.8553C104.296 24.9298 104.416 24.997 104.533 25.0675C104.739 25.1909 104.95 25.3051 105.159 25.423C105.402 25.5604 105.641 25.7019 105.881 25.8451C106.004 25.9188 106.122 26.0018 106.243 26.0799C106.353 26.1515 106.46 26.2289 106.568 26.3038C106.778 26.4488 106.985 26.5976 107.195 26.7426C107.401 26.885 107.609 27.024 107.815 27.167C108.059 27.3362 108.301 27.5067 108.541 27.6806C108.749 27.8307 108.954 27.9839 109.161 28.1339C109.583 28.4388 110.015 28.73 110.434 29.0392C110.58 29.1468 110.724 29.2565 110.868 29.3664C111.271 29.6902 111.662 30.0261 112.032 30.3883C112.23 30.5822 112.424 30.7791 112.613 30.9814C112.682 31.0536 112.747 31.1284 112.812 31.2043C112.815 31.2167 112.818 31.2293 112.822 31.2417C112.873 31.4402 112.923 31.6389 112.971 31.8378C113.072 32.2538 113.166 32.6718 113.253 33.0912C113.421 33.9041 113.56 34.7223 113.672 35.5446C113.673 35.5499 113.673 35.5554 113.674 35.5607C113.675 35.5694 113.677 35.5779 113.678 35.5865C113.956 37.6852 114.046 39.8074 113.948 41.9222C113.906 42.8579 113.825 43.7913 113.708 44.7208C113.581 44.7615 113.454 44.8017 113.325 44.8354C113.205 44.8667 113.084 44.8945 112.963 44.9228C112.711 44.9819 112.462 45.0509 112.216 45.1269C111.975 45.2011 111.737 45.2798 111.495 45.35C111.247 45.4222 110.998 45.4927 110.748 45.5613C110.239 45.701 109.727 45.8396 109.227 46.0115C109.076 46.0636 108.925 46.1153 108.774 46.1673C108.651 46.2097 108.529 46.2589 108.406 46.3044C108.147 46.4012 107.889 46.4994 107.631 46.5979C107.396 46.6873 107.161 46.7727 106.925 46.8578C106.692 46.9418 106.46 47.0273 106.225 47.1031C105.967 47.1864 105.71 47.2746 105.451 47.351C105.198 47.4252 104.945 47.4995 104.692 47.574C104.382 47.6654 104.072 47.7567 103.762 47.8481C103.503 47.9243 103.247 48.0094 102.99 48.0901C102.467 48.2537 101.95 48.4316 101.431 48.6061C101.287 48.6544 101.143 48.704 101 48.7537C101.002 48.7273 101.005 48.7008 101.008 48.6747C101.013 48.6426 101.02 48.6113 101.028 48.5797C101.051 48.4941 101.015 48.4021 100.938 48.3572C100.908 48.3397 100.873 48.3314 100.838 48.3314C100.769 48.3314 100.699 48.3639 100.668 48.4281C100.639 48.4872 100.614 48.5474 100.595 48.6103C100.587 48.6339 100.583 48.6585 100.577 48.6828C100.565 48.7305 100.558 48.7795 100.55 48.8278C100.53 48.9453 100.526 49.0661 100.52 49.185C100.518 49.2204 100.516 49.2561 100.515 49.2915C100.515 49.2906 100.514 49.29 100.513 49.2892C100.19 48.9179 99.8599 48.5544 99.5219 48.198C98.9896 47.6345 98.4375 47.0898 97.8698 46.5622C97.2483 45.9852 96.6041 45.4324 95.9416 44.9025C95.7713 44.7656 95.5999 44.6301 95.4272 44.4964C94.4986 43.7764 93.5354 43.1003 92.5372 42.48C91.5644 41.8752 90.5647 41.3133 89.5367 40.8077C89.1219 40.6036 88.7035 40.407 88.2818 40.2179C88.2823 40.217 88.2829 40.2162 88.2835 40.2152C88.3384 40.1193 88.3451 39.9998 88.3583 39.893C88.3662 39.8304 88.3679 39.7668 88.3693 39.7039C88.3719 39.5901 88.3761 39.4762 88.3799 39.3624C88.3884 39.1131 88.3838 38.8635 88.3723 38.6142C88.3481 38.09 88.3153 37.5647 88.2492 37.0439C88.218 36.7985 88.1846 36.5539 88.1436 36.3099C88.1031 36.0698 88.0643 35.8293 88.027 35.5883C88.0111 35.4638 87.9955 35.3394 87.9796 35.2148C87.9625 35.0814 87.9551 34.9461 87.9435 34.8121C87.9595 34.48 87.9814 34.1481 88.0074 33.8162C88.0486 33.2875 88.0992 32.7595 88.1454 32.231C88.1936 31.6736 88.2356 31.1159 88.2739 30.5578C88.2855 30.3872 88.2951 30.2164 88.304 30.0454C88.3104 29.9937 88.3176 29.9421 88.3239 29.8904C88.3753 29.4662 88.4066 29.0398 88.4394 28.6144C88.455 28.4131 88.4743 28.2122 88.4963 28.0117C88.5128 27.9455 88.5292 27.8794 88.5451 27.8134C88.5864 27.6421 88.6275 27.4711 88.6688 27.2998C88.7188 27.0911 88.7761 26.8839 88.8316 26.6761C88.8572 26.5801 88.8117 26.4795 88.7271 26.4338C88.9345 26.3524 89.1424 26.2726 89.3514 26.1953C89.8799 25.9998 90.4136 25.8179 90.951 25.6481C92.0258 25.3091 93.1175 25.0235 94.2199 24.7894C95.0813 24.6064 95.9498 24.4568 96.8226 24.3389C97.8988 24.1957 98.981 24.1019 100.066 24.0567C100.611 24.034 101.157 24.0241 101.703 24.0272C101.976 24.0291 102.249 24.0345 102.522 24.0427ZM119.085 58.107C119.085 58.107 119.085 58.107 119.085 58.107L119.077 58.071C119.08 58.083 119.082 58.0948 119.085 58.107ZM113.814 46.305C113.807 46.3438 113.8 46.3828 113.792 46.4222C113.8 46.3828 113.807 46.3433 113.814 46.3039C113.814 46.3044 113.814 46.3047 113.814 46.305ZM110.483 70.9042C110.472 70.918 110.462 70.932 110.451 70.9458C110.451 70.9455 110.451 70.9452 110.451 70.9449C110.462 70.9315 110.472 70.9177 110.483 70.9042ZM93.2366 87.1012C93.2713 87.0959 93.306 87.0899 93.3408 87.0844C93.332 87.0962 93.3243 87.1085 93.3173 87.1214C93.2905 87.1147 93.2634 87.1082 93.2366 87.1012ZM83.0865 82.5595C83.0772 82.5252 83.0593 82.4941 83.0363 82.4673C83.0368 82.3947 83.0194 82.322 82.9807 82.258C82.9336 82.1802 82.8837 82.1163 82.8048 82.068C82.7399 82.028 82.675 82.0011 82.6002 81.9879C82.5245 81.9747 82.4514 81.9695 82.3753 81.9671C82.3377 81.9658 82.3 81.9644 82.2623 81.9628C82.2704 81.8919 82.2782 81.821 82.2869 81.7502C82.3213 81.5018 82.3634 81.255 82.4126 81.0088C82.4626 80.7592 82.5196 80.511 82.5728 80.262C82.6798 79.7566 82.7634 79.2465 82.8604 78.7391C82.9618 78.2088 83.067 77.6794 83.2038 77.1566C83.3385 76.6419 83.4911 76.1318 83.6546 75.6258C83.8174 75.1218 84.0045 74.6263 84.162 74.1207C84.2394 73.8725 84.3062 73.6206 84.3737 73.3697C84.4426 73.1142 84.4847 72.8514 84.5304 72.5909C84.5499 72.4794 84.5673 72.3675 84.5839 72.2556C84.614 72.2738 84.6438 72.2926 84.6726 72.3132C84.7179 72.3396 84.7667 72.3529 84.8193 72.3529C84.8961 72.3529 84.9705 72.3222 85.0248 72.2678C85.1341 72.1585 85.1403 71.9653 85.0248 71.8568C84.9116 71.7507 84.7783 71.6703 84.6468 71.5895C84.5619 71.5374 84.4773 71.486 84.3924 71.4343C84.3904 71.4298 84.3881 71.4249 84.3857 71.4205C84.3764 71.4045 84.3638 71.3919 84.3477 71.3825C84.3311 71.3727 84.3145 71.3685 84.298 71.3685C84.2939 71.3685 84.2896 71.3688 84.2854 71.3694C84.1811 71.3059 84.0768 71.2423 83.9726 71.1788C85.0948 71.0087 86.2091 70.7819 87.3103 70.5067C88.5704 70.1919 89.8124 69.8063 91.0294 69.353C92.2615 68.894 93.4679 68.36 94.6406 67.764C96.1457 66.9996 97.5969 66.1291 98.9807 65.1622C98.986 65.2221 98.9919 65.282 98.9982 65.3417C99.002 65.3808 99.0111 65.4133 99.0397 65.442C99.0661 65.4684 99.1026 65.4836 99.14 65.4836C99.2117 65.4836 99.2901 65.4187 99.2822 65.3416C99.2751 65.2732 99.2693 65.2053 99.2637 65.1369C99.2754 65.1405 99.2873 65.1445 99.2991 65.1481C99.4447 65.1945 99.5861 65.2542 99.7274 65.3115C99.9592 65.4123 100.191 65.5125 100.421 65.6181C100.691 65.7426 100.962 65.8674 101.232 65.9922C101.324 66.0352 101.417 66.0779 101.51 66.1206C101.514 66.1229 101.519 66.1251 101.523 66.1271C101.929 66.3148 102.335 66.5029 102.739 66.6945C102.865 66.7544 102.988 66.8235 103.111 66.8879C103.205 66.9365 103.298 66.9847 103.389 67.0374C103.64 67.1821 103.89 67.3261 104.138 67.475C104.631 67.771 105.123 68.0678 105.612 68.3706C105.723 68.4398 105.832 68.515 105.941 68.5872C106.03 68.646 106.118 68.7059 106.205 68.7673C106.409 68.9106 106.609 69.0571 106.809 69.2058C106.912 69.2873 107.015 69.3692 107.117 69.4504C107.219 69.5319 107.317 69.6191 107.417 69.703C107.628 69.8807 107.834 70.0631 108.046 70.2385C108.261 70.4159 108.481 70.5893 108.709 70.7495C108.817 70.8249 108.924 70.9018 109.035 70.971C109.145 71.0391 109.256 71.1096 109.374 71.1619C109.38 71.1643 109.385 71.1666 109.391 71.169C109.389 71.2056 109.387 71.242 109.385 71.2782C109.378 71.3747 109.373 71.4711 109.364 71.5672C109.347 71.7716 109.328 71.9756 109.31 72.1797C109.286 72.4465 109.266 72.7137 109.242 72.9804C109.23 73.1158 109.223 73.2528 109.206 73.3879C109.19 73.5123 109.175 73.6368 109.159 73.7612C109.127 73.9463 109.098 74.1321 109.059 74.316C109.014 74.5282 108.967 74.7401 108.919 74.9518C108.828 75.3584 108.744 75.7667 108.663 76.1759C108.592 76.5366 108.525 76.8982 108.437 77.2554C108.386 77.4636 108.335 77.6717 108.28 77.8792C108.225 78.088 108.168 78.2963 108.111 78.5045C108.011 78.8626 107.904 79.2181 107.799 79.5743C107.68 79.9739 107.562 80.374 107.43 80.7695C107.417 80.8082 107.403 80.845 107.392 80.8834C105.879 81.9193 104.292 82.8443 102.642 83.6448C102.139 83.8862 101.63 84.1159 101.116 84.334C101.131 84.3275 101.146 84.3211 101.161 84.3149C101.142 84.3234 101.122 84.3315 101.102 84.3399C101.097 84.3419 101.093 84.3439 101.088 84.3457C101.092 84.3437 101.097 84.342 101.101 84.3401C98.7815 85.3135 96.3545 86.0341 93.8841 86.5061C93.8493 86.5127 93.8159 86.5315 93.7873 86.5558C93.7728 86.5619 93.7586 86.5689 93.745 86.5768C93.4253 86.6347 93.1045 86.688 92.7832 86.7354C92.7312 86.743 92.6795 86.791 92.6543 86.8347C92.6359 86.8656 92.6262 86.9007 92.625 86.9364C91.1778 86.5336 89.7564 86.0384 88.3722 85.4549C86.5351 84.6744 84.77 83.7323 83.0931 82.6507C83.0967 82.6207 83.0949 82.5894 83.0865 82.5595ZM62.3965 67.7531H62.3968C62.4027 67.759 62.4085 67.7646 62.4148 67.7706C62.4085 67.7649 62.4027 67.759 62.3965 67.7531ZM62.944 67.3051C62.9508 67.2989 62.9575 67.2927 62.9642 67.2866C62.9648 67.2863 62.9657 67.286 62.9662 67.2857C62.9586 67.292 62.9513 67.2986 62.944 67.3051ZM70.0436 42.5723C70.0395 42.5667 70.0349 42.5611 70.0307 42.5554L70.0284 42.5522C70.0336 42.5591 70.0386 42.5656 70.0436 42.5723ZM70.0206 42.5415L70.017 42.5365C70.0217 42.5426 70.0266 42.5485 70.031 42.5548C70.0276 42.5501 70.024 42.5459 70.0206 42.5415ZM66.754 38.2838L66.7492 38.277C66.7951 38.3366 66.8405 38.3957 66.8852 38.4536C66.8417 38.3974 66.7981 38.3411 66.7545 38.2849C66.7574 38.2883 66.7598 38.2919 66.7627 38.2954C66.7598 38.2913 66.7568 38.2876 66.754 38.2838ZM73.6995 44.4792C73.6937 44.4862 73.6881 44.4938 73.6832 44.502C73.6832 44.502 73.6829 44.502 73.6826 44.502C73.6878 44.4938 73.6934 44.4862 73.6995 44.4792ZM86.7225 26.7709C86.7754 26.7858 86.8287 26.8007 86.8818 26.8151C86.8815 26.8151 86.8812 26.8154 86.8812 26.8154C86.8282 26.8007 86.7751 26.7858 86.7225 26.7709ZM74.5811 25.357C74.5434 25.3868 74.5065 25.4169 74.4703 25.4478C74.5068 25.4166 74.5437 25.3862 74.5811 25.3565C74.5811 25.3567 74.5811 25.3567 74.5811 25.357ZM68.3693 32.4796C68.3694 32.4795 68.3696 32.4793 68.3697 32.4792C68.3694 32.4793 68.3693 32.4795 68.3693 32.4796ZM65.7353 36.9248L65.7969 37.008C65.7764 36.9805 65.7557 36.953 65.7347 36.9254C65.735 36.9254 65.735 36.9251 65.7353 36.9248ZM73.251 46.5956C73.2996 46.6263 73.3489 46.6558 73.3992 46.6839C73.4459 46.7098 73.4974 46.7227 73.5482 46.7227C73.6236 46.7227 73.6981 46.6946 73.7546 46.6382C73.8094 46.5834 73.8402 46.5083 73.8402 46.4307C73.8402 46.3635 73.814 46.2861 73.7653 46.2359C73.7948 46.2157 73.818 46.1894 73.8344 46.1597C73.8745 46.1308 73.9146 46.1018 73.9549 46.073C74.0634 45.9952 74.1776 45.9237 74.2885 45.8495C74.3802 45.7879 74.4732 45.7287 74.5656 45.6685C74.9532 45.4163 75.3399 45.1634 75.7234 44.9051C76.1441 44.6218 76.5641 44.3376 76.9905 44.0627C76.9956 44.0594 77.0009 44.0563 77.006 44.0531C77.0269 44.0432 77.0477 44.0326 77.0687 44.023C77.2351 43.9467 77.4013 43.8704 77.5679 43.795C78.3255 43.4518 79.0739 43.0897 79.8348 42.7547C80.4077 42.5166 80.9826 42.2834 81.5448 42.0208C81.8132 41.8957 82.0783 41.765 82.3448 41.6357C82.4712 41.5743 82.5969 41.5108 82.7241 41.4508C83.0211 41.3287 83.3173 41.2046 83.6106 41.0742C83.6207 41.0697 83.6306 41.0653 83.6405 41.0609C83.8068 41.0024 83.9729 40.9442 84.1402 40.8898C84.4714 40.7822 84.8041 40.6764 85.1383 40.5787C85.4849 40.477 85.8339 40.3893 86.1856 40.3063C86.4657 40.2404 86.7457 40.1801 87.0291 40.1322C87.1029 40.1626 87.177 40.1927 87.2505 40.2236C89.3592 41.117 91.3757 42.2186 93.2721 43.5021C93.8922 43.9221 94.4993 44.3617 95.0926 44.8189C95.2315 44.9263 95.3698 45.035 95.5069 45.1446C96.2216 45.7187 96.9137 46.3195 97.5837 46.9461C97.9135 47.2544 98.2367 47.5695 98.554 47.8908C98.5596 47.8964 98.5653 47.9024 98.5709 47.908C98.5855 47.9229 98.5998 47.9375 98.6144 47.9521C98.6273 47.9653 98.6402 47.9788 98.6533 47.9921C98.6609 47.9994 98.6682 48.007 98.6755 48.0146C99.1806 48.5312 99.6699 49.0631 100.143 49.6091C100.267 49.751 100.389 49.8939 100.51 50.0377C100.509 50.359 100.509 50.6799 100.508 51.0012C100.507 51.393 100.501 51.7851 100.49 52.1769C100.479 52.5601 100.459 52.9436 100.42 53.3251C100.409 53.4303 100.398 53.5353 100.388 53.6402C100.365 53.806 100.346 53.9723 100.318 54.1371C100.284 54.3339 100.253 54.5314 100.216 54.7276C100.139 55.1242 100.058 55.5206 99.9849 55.9179C99.948 56.1188 99.9081 56.3193 99.8747 56.5209C99.8416 56.7218 99.8042 56.9228 99.7752 57.1246C99.7437 57.3418 99.7126 57.5592 99.6814 57.7767C99.6484 58.0071 99.6238 58.2394 99.5951 58.4704C99.5481 58.8484 99.5136 59.2284 99.4776 59.6077C99.4417 59.9851 99.4037 60.3624 99.359 60.7389C99.3117 61.1397 99.2645 61.5405 99.2167 61.9414C99.1673 62.3588 99.115 62.7759 99.0702 63.1939C99.0528 63.3564 99.0343 63.5189 99.0182 63.6813C99.0076 63.7929 98.9966 63.9044 98.986 64.016C98.9784 64.0929 98.9661 64.1715 98.9632 64.249C98.9601 64.346 98.9565 64.4428 98.953 64.5398C98.9525 64.5559 98.9522 64.5719 98.9522 64.5881C98.8759 64.6426 98.7996 64.6966 98.7228 64.7506C98.6663 64.7506 98.6101 64.7545 98.5544 64.763C98.465 64.7767 98.3779 64.8398 98.3287 64.9138C98.3024 64.9532 98.282 64.9925 98.2773 65.0404C98.2767 65.0465 98.2761 65.053 98.2761 65.0593C98.0659 65.2023 97.854 65.3428 97.6406 65.4811C97.2123 65.7582 96.778 66.0258 96.3384 66.2844C96.2692 66.325 96.2004 66.3651 96.1309 66.4049C94.9945 67.0598 93.8199 67.647 92.6173 68.1698C92.5492 68.1991 92.4816 68.2283 92.4135 68.2569C90.014 69.2677 87.513 70.0303 84.9488 70.4887C84.4637 70.5755 83.9763 70.6512 83.4878 70.7178C83.4881 70.7178 83.4884 70.7175 83.4887 70.7175C83.4881 70.7175 83.4876 70.7178 83.487 70.7178H83.4867C83.4864 70.7178 83.4858 70.7178 83.4856 70.7181C83.4833 70.7184 83.4814 70.7187 83.4794 70.7187C83.4803 70.7187 83.4811 70.7187 83.4823 70.7187C83.4606 70.7215 83.4396 70.7243 83.4182 70.7271C83.4317 70.7251 83.4451 70.7234 83.4588 70.7215C83.3888 70.7309 83.3185 70.7399 83.2485 70.7488C83.2269 70.7367 83.2053 70.7245 83.1836 70.7128C82.9737 70.5985 82.7621 70.4868 82.5502 70.3758C82.1339 70.1583 81.728 69.9236 81.3253 69.6824C80.9485 69.4564 80.5805 69.2156 80.2064 68.985C79.7912 68.7292 79.3724 68.4793 78.9587 68.2211C78.7786 68.1084 78.6029 67.9876 78.4297 67.8642C78.2426 67.7304 78.0573 67.5944 77.8737 67.4552C77.2566 66.9878 76.6356 66.5248 76.0217 66.0533C75.3081 65.4897 74.6034 64.9138 73.9188 64.3149C73.7288 64.1488 73.5393 63.9825 73.3523 63.8129C73.1831 63.6595 73.0185 63.5017 72.8525 63.3449C72.6912 63.1926 72.536 63.033 72.3801 62.8747C72.1974 62.6888 72.0147 62.5031 71.8315 62.3176C71.7688 62.2538 71.7036 62.1925 71.6383 62.1311C71.5986 62.0937 71.5591 62.0566 71.5197 62.0192C71.5171 62.0169 71.5149 62.0148 71.5124 62.0125C71.5082 61.9724 71.5039 61.9321 71.4997 61.892C71.5158 61.8703 71.5281 61.8458 71.5363 61.8163C71.5539 61.7514 71.5447 61.6803 71.5106 61.6222C71.4989 61.602 71.4843 61.5836 71.4676 61.5676C71.4654 61.5445 71.4635 61.5217 71.4612 61.4987C71.4437 61.3092 71.4278 61.1198 71.4132 60.9304C71.4132 60.9046 71.4129 60.8783 71.4129 60.8526C71.4129 60.8166 71.4129 60.7815 71.41 60.7455C71.4069 60.7098 71.4042 60.6739 71.4013 60.6382C71.389 60.4824 71.3765 60.3268 71.3671 60.1711C71.3483 59.8613 71.3342 59.5513 71.3238 59.241C71.3206 59.148 71.3179 59.0551 71.3153 58.9621C71.2928 57.973 71.3119 56.9829 71.3706 55.9952C71.4227 55.1285 71.5063 54.2641 71.6214 53.4036C71.7842 52.2071 72.0067 51.0187 72.2914 49.8456C72.5575 48.7472 72.8796 47.6628 73.251 46.5956ZM99.4571 64.9008C99.4323 64.8929 99.4074 64.885 99.3826 64.8772C99.3826 64.8772 99.3829 64.8769 99.3832 64.8769C99.4076 64.8848 99.4323 64.8926 99.4571 64.9008ZM99.2961 64.3397C99.2786 64.3523 99.2612 64.3652 99.2435 64.3779V64.3776L99.2961 64.3397ZM71.5629 62.4596C71.5632 62.4598 71.5635 62.4601 71.5638 62.4604C71.5655 62.4788 71.5674 62.4967 71.5694 62.515C71.5674 62.4964 71.5651 62.4782 71.5629 62.4596ZM81.7059 81.7098L81.7062 81.7069C81.7062 81.708 81.7062 81.7089 81.7062 81.71C81.7062 81.71 81.7062 81.7101 81.7059 81.7098ZM82.1338 70.8611C82.1391 70.864 82.1442 70.8667 82.1495 70.8696C82.1492 70.8696 82.1487 70.8696 82.1484 70.8696L82.1338 70.8611ZM100.947 50.704C100.948 50.659 100.948 50.614 100.949 50.569C100.949 50.5693 100.949 50.5696 100.949 50.5696C100.948 50.6146 100.948 50.6593 100.947 50.704ZM101.451 51.2032C101.452 51.2044 101.453 51.2055 101.454 51.2064C101.454 51.207 101.454 51.2073 101.455 51.2078L101.455 51.2081L101.454 51.2087C101.421 51.1651 101.388 51.1216 101.354 51.078C101.386 51.1194 101.419 51.1614 101.451 51.2032ZM99.2687 85.8531C99.2254 85.8517 99.1822 85.8513 99.1392 85.8514C99.0519 85.8516 98.9642 85.8553 98.8768 85.8615C98.852 85.8511 98.8255 85.8448 98.7981 85.84C98.9247 85.7987 99.0513 85.7581 99.1774 85.7154C99.2081 85.705 99.2388 85.6941 99.2694 85.6836C99.2554 85.7381 99.2552 85.7977 99.2687 85.8531ZM109.758 71.8485C109.746 71.8876 109.734 71.9269 109.723 71.9662C109.736 71.823 109.749 71.68 109.761 71.5369C109.768 71.4616 109.773 71.3863 109.778 71.3107C109.828 71.3205 109.879 71.3185 109.927 71.3069C109.87 71.4874 109.814 71.6677 109.758 71.8485ZM75.5089 21.3389C76.937 20.7427 78.4 20.2396 79.893 19.8318C81.366 19.4296 82.867 19.1308 84.3794 18.9222C85.9199 18.7215 87.4689 18.6184 89.023 18.6153C90.5979 18.6124 92.1705 18.7182 93.7321 18.9231C95.2639 19.1356 96.7786 19.4458 98.2705 19.8537C99.0829 20.0758 99.8864 20.3299 100.68 20.6123C100.67 20.6331 100.661 20.6542 100.654 20.6752C100.642 20.7129 100.635 20.7517 100.632 20.7907C100.625 20.8697 100.627 20.9485 100.632 21.0277C100.643 21.1987 100.675 21.3686 100.714 21.5351C100.729 21.5964 100.747 21.6565 100.765 21.7169C100.781 21.7723 100.794 21.8289 100.812 21.8833C100.888 22.1087 100.966 22.3325 101.053 22.5542C101.096 22.6664 101.144 22.7796 101.199 22.8869C101.249 22.9854 101.298 23.0839 101.36 23.1756C101.459 23.3215 101.569 23.4606 101.688 23.5913C101.67 23.5913 101.652 23.5913 101.634 23.5913C101.066 23.5916 100.498 23.6042 99.9297 23.6304C98.7838 23.683 97.6412 23.7951 96.5056 23.9584C94.2739 24.2794 92.0754 24.8231 89.9482 25.5696C89.3579 25.7768 88.7737 26.0016 88.1951 26.2396C88.1607 26.2137 88.1164 26.2008 88.0716 26.2008C88.0121 26.2008 87.9521 26.2227 87.9148 26.2646C87.8926 26.2899 87.8727 26.3166 87.8522 26.3432C87.8472 26.3544 87.8423 26.3654 87.8373 26.3763C87.6566 26.3395 87.4758 26.3025 87.2958 26.2624C87.0201 26.2011 86.7451 26.1379 86.4697 26.0764C86.419 26.0651 86.3681 26.0538 86.3174 26.0426C86.1333 25.9864 85.9494 25.9301 85.7646 25.876C85.5048 25.7997 85.2432 25.7315 84.9815 25.662C84.7064 25.5889 84.4306 25.5184 84.1523 25.458C83.8906 25.4009 83.6276 25.3506 83.3633 25.3068C83.0448 25.2542 82.7264 25.2098 82.4057 25.1755C82.1289 25.1457 81.8503 25.1264 81.5729 25.1036C81.0125 25.0578 80.4531 25.0092 79.8918 24.9802C79.3511 24.9527 78.8091 24.9361 78.2678 24.9182C78.0679 24.9118 77.8687 24.9075 77.6688 24.9064C77.6568 24.9064 77.6446 24.9064 77.6323 24.9064C77.4622 24.9064 77.2925 24.9152 77.1225 24.9216C77.0432 24.9246 76.964 24.9345 76.8853 24.941C76.8251 24.9457 76.7652 24.9509 76.7055 24.9559C76.5026 24.936 76.299 24.9176 76.0958 24.8994C75.6722 24.8615 75.2478 24.8301 74.8234 24.7988C74.8123 24.7935 74.8009 24.789 74.7891 24.7857C74.785 24.7845 74.7804 24.7834 74.7759 24.7825C74.7563 24.622 74.7371 24.4615 74.7192 24.3008C74.6798 23.9497 74.6478 23.5981 74.6189 23.2459C74.5788 22.7557 74.5495 22.2646 74.5298 21.773C74.8539 21.6234 75.1806 21.4789 75.5089 21.3389ZM57.0233 39.8257C57.5997 38.4735 58.2571 37.1589 58.9945 35.8868C59.7478 34.586 60.5913 33.3382 61.5045 32.1443C62.3984 30.9944 63.359 29.9003 64.3838 28.8654C65.4484 27.79 66.5887 26.7891 67.7825 25.8588C68.9847 24.9354 70.2414 24.0891 71.5492 23.3227C72.4234 22.8103 73.322 22.34 74.2384 21.9082C74.2601 22.3546 74.2905 22.8007 74.329 23.2456C74.3597 23.5978 74.3974 23.9494 74.4383 24.3005C74.457 24.459 74.4769 24.6176 74.4979 24.7761C74.3886 24.7814 74.3006 24.8893 74.3006 24.9947C74.3006 25.0143 74.3035 25.0341 74.3085 25.0529C74.288 25.0689 74.2675 25.0853 74.2469 25.1015C74.233 25.1126 74.2197 25.1245 74.2059 25.136C74.1582 25.1576 74.1111 25.1803 74.0666 25.2079C74.007 25.245 73.9512 25.2872 73.896 25.331C73.8092 25.4001 73.7232 25.4707 73.6373 25.5415C73.4617 25.6862 73.2907 25.8364 73.1235 25.9904C72.7876 26.2999 72.4725 26.6321 72.1691 26.9728C71.5487 27.6688 70.9703 28.3999 70.393 29.1312C70.1057 29.4955 69.8198 29.8606 69.5382 30.2291C69.2707 30.5793 69.0088 30.9341 68.7425 31.2854C68.4587 31.6602 68.1723 32.0331 67.8881 32.4078C67.7569 32.5807 67.6247 32.7533 67.4971 32.929C67.343 33.1403 67.189 33.3514 67.035 33.5631C66.9944 33.6186 66.9584 33.6783 66.9206 33.7356C66.8365 33.8621 66.7525 33.9888 66.6684 34.1156C66.5973 34.2229 66.526 34.3304 66.4548 34.4377C66.432 34.4719 66.4106 34.5058 66.3902 34.5412C66.2543 34.7764 66.1192 35.0117 65.9835 35.247C65.8207 35.5294 65.6617 35.8136 65.5026 36.0983C65.4639 36.1676 65.4675 36.2503 65.5059 36.3147C65.4611 36.3403 65.4159 36.3654 65.3712 36.3912C65.361 36.3959 65.351 36.4008 65.3408 36.4055C65.3407 36.4052 65.3404 36.4049 65.3403 36.4046C65.3367 36.3945 65.3321 36.3856 65.3259 36.3774C65.2534 36.2836 65.1835 36.1866 65.1044 36.098C65.0763 36.0662 65.0339 36.0509 64.9915 36.0509C64.962 36.0509 64.9327 36.0585 64.908 36.0728C64.836 36.1149 64.7998 36.2218 64.8498 36.2946C64.9101 36.382 64.9743 36.4667 65.0379 36.5519C64.9754 36.583 64.9128 36.6143 64.8504 36.6452C64.8164 36.6621 64.7826 36.6793 64.7486 36.6965C64.7134 36.669 64.6708 36.6535 64.6262 36.6535C64.5917 36.6535 64.5566 36.662 64.5242 36.679C64.4175 36.7355 64.3103 36.7915 64.2068 36.8539C64.0936 36.9222 63.9809 36.9913 63.8684 37.0608C63.6547 37.1929 63.4425 37.3271 63.232 37.4636C62.8032 37.7413 62.3803 38.0286 61.9635 38.3242C61.1158 38.9251 60.2936 39.5629 59.501 40.2352C58.7185 40.8994 57.9605 41.5936 57.2365 42.3211C56.879 42.68 56.5305 43.0474 56.1897 43.4223C56.0205 43.6081 55.8533 43.7956 55.6905 43.987C55.6329 44.0548 55.5759 44.123 55.5193 44.1916C55.9215 42.7041 56.4296 41.2469 57.0233 39.8257ZM54.4963 56.857C54.4569 56.475 54.4235 56.0925 54.396 55.7097C54.3381 54.912 54.3139 54.1129 54.3122 53.3133C54.3091 51.7551 54.4086 50.2002 54.611 48.6551C54.7703 47.5052 54.9845 46.3649 55.2535 45.2366C55.3529 45.115 55.4534 44.994 55.5542 44.8738C55.7164 44.6807 55.8842 44.4927 56.0515 44.3038C56.2175 44.1161 56.3832 43.9274 56.5513 43.7411C56.8907 43.3648 57.2385 42.9954 57.5927 42.6332C57.9468 42.2712 58.3074 41.9144 58.6771 41.5685C59.4757 40.8217 60.309 40.1129 61.1738 39.4438C61.7394 39.0085 62.3167 38.5894 62.9075 38.1889C63.191 37.9963 63.4779 37.8086 63.7674 37.625C63.751 37.6422 63.7404 37.6617 63.73 37.6828C63.7168 37.7094 63.7145 37.7392 63.73 37.766C63.7373 37.7784 63.7474 37.7883 63.7598 37.7956C63.777 37.8057 63.8039 37.8116 63.8232 37.804C63.8755 37.783 63.9278 37.763 63.9776 37.7362C64.0287 37.7093 64.0776 37.6784 64.1269 37.6483C64.1581 37.6289 64.1888 37.6089 64.2196 37.5889C64.2909 37.5428 64.3635 37.4981 64.4341 37.4504C64.5651 37.3618 64.696 37.273 64.8264 37.1836C64.9562 37.0947 65.0859 37.0056 65.216 36.917C65.2359 36.9034 65.2559 36.89 65.2758 36.8765C65.2877 36.8928 65.2996 36.909 65.3113 36.9254C65.4758 37.1525 65.6399 37.3796 65.8041 37.6067C65.9385 37.7928 66.0703 37.9805 66.2032 38.1671C66.3692 38.3998 66.5373 38.6304 66.7074 38.8599C66.9956 39.2495 67.294 39.6313 67.5846 40.0186C67.7349 40.219 67.888 40.4176 68.0338 40.6215C68.1856 40.8332 68.3382 41.0442 68.4878 41.2576C68.8014 41.7048 69.1137 42.153 69.4364 42.5938C69.5997 42.8169 69.7672 43.0367 69.9347 43.2565C70.0128 43.3585 70.0941 43.4578 70.1747 43.5578C70.2449 43.645 70.3142 43.7329 70.3864 43.8181C70.7346 44.2284 71.0885 44.6332 71.4472 45.0343C71.7941 45.4222 72.1613 45.798 72.5766 46.1136C72.6966 46.2048 72.8183 46.2934 72.9405 46.382C72.9242 46.4275 72.9079 46.4731 72.892 46.5185C72.6888 47.0935 72.5026 47.6746 72.3301 48.2598C71.9849 49.4307 71.7028 50.6208 71.4818 51.8215C71.0521 54.1553 70.8607 56.5318 70.9059 58.904C70.911 59.2521 70.9223 59.6005 70.9378 59.9484C70.9465 60.1426 70.9555 60.3369 70.9664 60.5307C70.972 60.633 70.9743 60.7371 70.9892 60.8385C70.9945 60.8728 70.9995 60.9072 71.005 60.9414C71.0128 61.0428 71.021 61.144 71.0298 61.2452C71.0402 61.3661 71.0514 61.4866 71.0631 61.6076C70.9249 61.7101 70.7866 61.8127 70.648 61.9151C70.6185 61.9206 70.5904 61.9314 70.5668 61.9477C70.3695 62.083 70.1674 62.2122 69.9746 62.3541C69.7649 62.5087 69.5609 62.6712 69.356 62.8323C69.356 62.8323 69.356 62.8323 69.3563 62.832C69.2031 62.95 69.0508 63.0693 68.8917 63.1786C68.7923 63.2469 68.6927 63.3151 68.593 63.3832C68.4929 63.4521 68.3878 63.5148 68.2855 63.5805C68.1148 63.6896 67.9431 63.7969 67.7742 63.9082C67.5684 64.0436 67.3664 64.1831 67.1639 64.3236C66.9789 64.4523 66.7985 64.5879 66.6167 64.7208C66.5419 64.7757 66.4671 64.8304 66.3924 64.8853C66.3076 64.9479 66.2238 65.013 66.137 65.0727C66.0262 65.149 65.9157 65.2251 65.805 65.3016C65.7395 65.3466 65.6748 65.3921 65.6076 65.4343C65.4165 65.5541 65.2276 65.6786 65.0315 65.7898C64.835 65.9014 64.6389 66.0137 64.4404 66.1222C64.2372 66.233 64.034 66.344 63.8313 66.4555C63.7042 66.5254 63.5775 66.5964 63.451 66.6671C63.4434 66.6385 63.4285 66.6113 63.4057 66.5885C63.372 66.5548 63.325 66.537 63.2786 66.537C63.233 66.537 63.188 66.5539 63.1555 66.5885C63.0433 66.708 62.9313 66.8268 62.8123 66.9395C62.7638 66.9857 62.7165 67.0342 62.665 67.077C62.6344 67.1023 62.6037 67.1275 62.5735 67.1532C62.5012 67.1917 62.4293 67.2307 62.3587 67.2721C62.3213 67.2887 62.2985 67.3283 62.2918 67.3694C62.2743 67.3814 62.2569 67.3939 62.2395 67.4059C62.2291 67.4131 62.2185 67.4204 62.2081 67.4276C62.1644 67.3326 62.1212 67.2373 62.0777 67.1421C62.0516 67.0848 61.9833 67.0407 61.9245 67.0244C61.9024 67.0183 61.8797 67.0153 61.857 67.0153C61.8117 67.0153 61.7666 67.0271 61.7272 67.0502C61.7183 67.0553 61.7104 67.062 61.7024 67.0682C61.6342 67.0013 61.5664 66.9342 61.4976 66.8676C61.4713 66.8421 61.44 66.8238 61.4071 66.813C60.7255 66.1138 60.0718 65.3877 59.45 64.6344C59.2626 64.4029 59.0776 64.1696 58.8952 63.934C58.8955 63.9346 58.8961 63.9352 58.8963 63.9357C58.8946 63.9334 58.8931 63.9313 58.8913 63.9293C58.8916 63.9296 58.8922 63.9302 58.8925 63.9304C58.8899 63.9273 58.8875 63.924 58.8849 63.9206C58.8855 63.9214 58.886 63.9223 58.8866 63.9231C58.8855 63.922 58.8846 63.9205 58.8837 63.9195C58.884 63.9198 58.8846 63.9203 58.8849 63.9206C58.8843 63.92 58.884 63.9198 58.8837 63.9193L58.8835 63.919C58.8829 63.9187 58.8829 63.9184 58.8826 63.9181C58.8826 63.9178 58.8823 63.9178 58.8823 63.9178C58.8823 63.9178 58.8823 63.9178 58.8826 63.9178C58.8823 63.9175 58.882 63.9173 58.8817 63.9167C58.8817 63.9167 58.8817 63.9167 58.8817 63.917C58.8817 63.9167 58.8817 63.9167 58.8814 63.9164C58.8803 63.915 58.8794 63.9141 58.8789 63.9127C58.8789 63.913 58.8789 63.9132 58.8789 63.9132C57.4527 62.0596 56.2033 60.0712 55.1668 57.9741C55.1115 57.8619 55.0569 57.749 55.0029 57.6363C54.9857 57.5986 54.943 57.5691 54.9043 57.5556C54.8043 57.3445 54.7061 57.1326 54.61 56.9198C54.5909 56.8777 54.5448 56.8569 54.4998 56.8569C54.4983 56.857 54.4975 56.857 54.4963 56.857ZM60.0703 65.3934C60.0698 65.3929 60.0695 65.3923 60.0689 65.3917C60.068 65.3906 60.0669 65.3891 60.066 65.388C60.0676 65.3899 60.0689 65.3917 60.0703 65.3934ZM67.715 80.6428C66.5949 79.7642 65.5291 78.8209 64.5189 77.8173C63.4491 76.7548 62.4537 75.6179 61.5286 74.4276C60.6306 73.2543 59.8051 72.0298 59.0557 70.7565C58.2904 69.458 57.6175 68.1058 57.0258 66.7197C56.4409 65.3201 55.9466 63.8866 55.5426 62.4239C55.1345 60.9474 54.8326 59.442 54.6219 57.9247C54.5999 57.7578 54.5789 57.5906 54.5591 57.4233C54.5968 57.5046 54.635 57.5855 54.6732 57.6665C54.6717 57.6709 54.6701 57.6755 54.669 57.6803C54.6552 57.7305 54.6657 57.7753 54.6876 57.8208C55.7048 59.9334 56.9211 61.9479 58.3354 63.8187C58.5886 64.1531 58.8478 64.4831 59.1129 64.8087C59.15 64.8542 59.1874 64.8998 59.2248 64.9452C59.2473 64.973 59.27 65.0011 59.2928 65.029C59.6088 65.4166 59.9309 65.7995 60.2631 66.1729C60.5405 66.4849 60.8235 66.7921 61.1119 67.0943C61.1228 67.1317 61.1434 67.1651 61.1707 67.1952C61.2701 67.3039 61.3703 67.4115 61.474 67.5164C61.5494 67.5927 61.6249 67.6682 61.7011 67.7435C61.7011 67.7528 61.702 67.7624 61.7037 67.7716C61.7146 67.8334 61.7242 67.8953 61.7379 67.9566C61.7523 68.0218 61.7765 68.0859 61.7975 68.1492C61.8221 68.222 61.8467 68.2948 61.8742 68.3664C61.9192 68.4825 61.9639 68.5988 62.0089 68.7149C62.0697 68.8725 62.1323 69.0286 62.1963 69.1846C62.3605 69.5845 62.5275 69.9829 62.6967 70.3808C62.7534 70.5146 62.8092 70.6492 62.8686 70.7819C62.9741 71.0169 63.0791 71.2519 63.1843 71.4866C63.2402 71.6111 63.2934 71.737 63.3535 71.8596C63.4643 72.0849 63.5751 72.3103 63.6858 72.5362C63.7483 72.663 63.8081 72.7908 63.8753 72.915C63.9955 73.1366 64.1156 73.3579 64.2359 73.5798C64.3146 73.7248 64.4011 73.8656 64.4855 74.0076C64.5712 74.1526 64.6562 74.2982 64.7445 74.4419C65.1534 75.1061 65.5591 75.772 65.955 76.444C66.164 76.7992 66.3738 77.1537 66.5843 77.5082C66.7839 77.8441 66.9953 78.1724 67.2159 78.4948C67.3925 78.7534 67.5746 79.008 67.7559 79.2635C67.8401 79.3822 67.9239 79.5009 68.0072 79.6204C68.0519 79.6851 68.0969 79.7494 68.1419 79.8139C68.1857 79.8771 68.2329 79.9384 68.2804 79.9992C68.2703 80.0088 68.2605 80.0182 68.2506 80.0281C68.1446 80.1333 68.0434 80.2459 67.9481 80.3611C67.8701 80.4547 67.7925 80.549 67.715 80.6428ZM89.0232 87.9673C89.0038 87.9673 88.984 87.9673 88.9647 87.9673C87.4407 87.9673 85.917 87.8591 84.4065 87.6626C82.8965 87.454 81.4033 87.1514 79.9315 86.7544C78.4452 86.354 76.9885 85.8466 75.5685 85.2532C74.1665 84.6554 72.8044 83.9699 71.4881 83.2006C70.3051 82.5095 69.167 81.7431 68.074 80.9182C68.1386 80.8393 68.2035 80.7603 68.2684 80.6812C68.3196 80.6189 68.3743 80.559 68.4283 80.4988C68.5247 80.3912 68.6253 80.2869 68.7372 80.1952C68.7914 80.1551 68.8474 80.1174 68.9043 80.0813C69.041 80.1814 69.1867 80.2763 69.3378 80.3525C69.5163 80.4428 69.6984 80.5295 69.8847 80.6047C70.081 80.7258 70.2876 80.83 70.4905 80.9396C70.5665 80.9806 70.6414 81.025 70.7194 81.0624C70.8605 81.1299 71.0015 81.1975 71.1424 81.265C71.2359 81.31 71.3282 81.3563 71.4242 81.3951C71.5727 81.4553 71.721 81.5155 71.8694 81.5755C71.9487 81.6079 72.0273 81.6404 72.1083 81.6688C72.2662 81.7237 72.4243 81.7787 72.5822 81.8337C72.8143 81.9147 73.0544 81.9731 73.291 82.0395C73.381 82.0645 73.4723 82.0842 73.5631 82.1052C73.6938 82.1359 73.8245 82.1663 73.9555 82.1969C74.1972 82.2534 74.4398 82.308 74.6812 82.3662C75.1601 82.4817 75.6362 82.6085 76.1147 82.7257C76.1723 82.7397 76.231 82.7496 76.2889 82.7614C76.3474 82.7734 76.4059 82.7874 76.4649 82.7973C76.5973 82.8195 76.7297 82.8418 76.8624 82.8637C77.1091 82.9047 77.3576 82.9379 77.6055 82.9727C78.0937 83.0416 78.5859 83.0812 79.0788 83.0908C79.5822 83.1004 80.0856 83.1045 80.5891 83.1235C80.9211 83.1361 81.2527 83.1533 81.5847 83.1656C81.701 83.17 81.801 83.0823 81.8293 82.9744C81.8725 82.9733 81.9155 82.9716 81.9585 82.97C81.9731 82.9951 81.9928 83.0161 82.0201 83.0319C82.0611 83.0561 82.1111 83.0626 82.157 83.0498C82.2061 83.0363 82.2491 82.9984 82.2719 82.9514C82.3497 82.9452 82.4274 82.9376 82.5049 82.928C83.5542 83.622 84.6419 84.2578 85.7589 84.8351C87.5653 85.7687 89.453 86.5501 91.3923 87.1627C92.0304 87.3644 92.6752 87.5461 93.3244 87.7096C91.8968 87.8807 90.4614 87.9652 89.0232 87.9673ZM122.531 62.3613C122.134 63.8349 121.63 65.2785 121.043 66.6865C120.455 68.0665 119.785 69.4073 119.031 70.7039C118.262 72.0269 117.399 73.2935 116.466 74.5057C115.563 75.6632 114.591 76.7638 113.555 77.8035C112.498 78.8652 111.367 79.8534 110.184 80.7719C110.036 80.8851 109.888 80.997 109.738 81.1081C109.634 81.0657 109.519 81.0468 109.408 81.0244C109.284 80.999 109.161 80.9688 109.038 80.9397C108.876 80.9015 108.715 80.8596 108.554 80.8163C108.56 80.8029 108.565 80.7885 108.569 80.7731C108.593 80.688 108.58 80.5948 108.536 80.5184C108.493 80.4445 108.421 80.3895 108.338 80.3667C108.31 80.3588 108.278 80.3547 108.245 80.3547C108.213 80.3547 108.18 80.3594 108.15 80.3686C108.163 80.3186 108.177 80.2685 108.191 80.2185C108.215 80.1281 108.239 80.0374 108.262 79.9467C108.448 79.4696 108.622 78.988 108.786 78.5032C108.981 77.925 109.16 77.3416 109.323 76.7538C109.449 76.3018 109.563 75.8467 109.671 75.3901C109.733 75.1329 109.792 74.8751 109.849 74.6169C110.091 73.512 110.279 72.3947 110.414 71.2713C110.429 71.2708 110.444 71.2663 110.456 71.257C110.483 71.2365 110.509 71.2173 110.533 71.193C110.553 71.1728 110.57 71.1508 110.591 71.1311C110.623 71.101 110.655 71.0706 110.687 71.0405C110.758 70.9736 110.831 70.9084 110.904 70.8429C110.932 70.8174 110.934 70.7736 110.915 70.7426C110.923 70.7327 110.931 70.7227 110.939 70.7128C111.079 70.54 111.224 70.3693 111.359 70.1925C111.649 69.8134 111.938 69.4336 112.225 69.0522C112.457 68.743 112.689 68.4333 112.925 68.1267C112.924 68.1284 112.923 68.13 112.922 68.1317C112.922 68.1308 112.922 68.1303 112.923 68.1297C112.926 68.1253 112.93 68.1207 112.933 68.1162C112.934 68.1148 112.935 68.1137 112.936 68.1122C112.935 68.1139 112.934 68.1154 112.933 68.117C112.936 68.1122 112.94 68.1073 112.944 68.1026C112.944 68.1023 112.944 68.1018 112.944 68.1015C112.946 68.1 112.947 68.0986 112.948 68.0973C112.947 68.0976 112.947 68.0976 112.947 68.0979C113.096 67.9056 113.244 67.7136 113.392 67.5211C113.392 67.5214 113.392 67.5217 113.392 67.522C113.392 67.5214 113.393 67.5211 113.393 67.5209C113.393 67.5206 113.393 67.5206 113.393 67.5203L113.393 67.5206C113.393 67.5203 113.393 67.52 113.394 67.5197V67.52C113.394 67.5189 113.396 67.5174 113.397 67.5158C113.398 67.5141 113.4 67.5124 113.401 67.5105C113.401 67.5105 113.401 67.5105 113.401 67.5103L113.401 67.51C113.401 67.51 113.402 67.5097 113.402 67.5094C113.402 67.5091 113.402 67.5091 113.402 67.5091C113.402 67.5088 113.403 67.5085 113.403 67.5083V67.508L113.403 67.5077C113.403 67.5074 113.403 67.5074 113.403 67.5071C113.404 67.5068 113.404 67.5065 113.404 67.5062C113.405 67.5057 113.405 67.5048 113.406 67.5042L113.406 67.504V67.5037C113.406 67.5034 113.407 67.5028 113.407 67.5025C113.407 67.5028 113.407 67.5028 113.407 67.5031C113.407 67.5028 113.407 67.5027 113.407 67.5022C113.407 67.5022 113.407 67.5019 113.408 67.5019C113.408 67.5017 113.408 67.5017 113.408 67.5014C113.408 67.5008 113.409 67.5005 113.409 67.4999C113.409 67.4997 113.409 67.4997 113.409 67.4994C113.41 67.4991 113.41 67.4988 113.41 67.4985C113.41 67.4985 113.41 67.4985 113.41 67.4982C113.41 67.4982 113.41 67.4982 113.411 67.4979C113.411 67.4979 113.411 67.4979 113.411 67.4977C113.412 67.4959 113.413 67.4946 113.414 67.4929C113.415 67.4923 113.415 67.4918 113.416 67.4915C113.416 67.4912 113.416 67.4909 113.416 67.4906C113.417 67.4903 113.417 67.4903 113.417 67.4901H113.417C113.418 67.4889 113.418 67.4878 113.419 67.4866C113.422 67.483 113.425 67.4793 113.428 67.4757C113.428 67.4757 113.428 67.4757 113.428 67.4757C113.57 67.2933 113.712 67.1106 113.853 66.9276C113.853 66.9279 113.853 66.9282 113.853 66.9282C113.853 66.9276 113.853 66.9271 113.854 66.9265C113.854 66.9268 113.853 66.9271 113.853 66.9274C113.858 66.9215 113.862 66.9162 113.867 66.9102C113.866 66.9107 113.865 66.9113 113.865 66.9116C113.87 66.9057 113.874 66.8998 113.879 66.8938C114.021 66.7111 114.162 66.5284 114.303 66.3452C114.306 66.3413 114.309 66.3376 114.312 66.3337C114.312 66.3343 114.311 66.3348 114.311 66.3351C114.313 66.3331 114.314 66.331 114.316 66.329C114.316 66.3287 114.316 66.3284 114.316 66.3281C114.316 66.3284 114.316 66.3284 114.316 66.3284C114.317 66.3281 114.317 66.3275 114.317 66.3273C114.318 66.327 114.318 66.3267 114.318 66.3264C114.318 66.3258 114.319 66.3255 114.319 66.3252C114.311 66.3354 114.303 66.3455 114.296 66.3556C114.441 66.1668 114.587 65.9782 114.733 65.7895C114.732 65.7906 114.732 65.7915 114.731 65.7926C114.734 65.7885 114.737 65.7845 114.74 65.7803C114.741 65.7786 114.743 65.777 114.744 65.7753C114.739 65.7817 114.734 65.7882 114.729 65.7946C115.272 65.0984 115.816 64.4042 116.346 63.699C116.622 63.3328 116.896 62.9657 117.171 62.5997C117.418 62.2726 117.67 61.9499 117.918 61.624C118.175 61.2864 118.433 60.9497 118.687 60.6103C118.955 60.2527 119.218 59.8918 119.476 59.5267C119.691 59.2229 119.899 58.9146 120.118 58.6141C120.139 58.579 120.152 58.5416 120.157 58.5022C120.402 58.5185 120.646 58.5314 120.891 58.5426C121.349 58.5631 121.808 58.5732 122.267 58.5732C122.297 58.5732 122.327 58.5732 122.357 58.5732C122.36 58.5732 122.363 58.5732 122.366 58.573C122.437 58.5727 122.508 58.5724 122.579 58.5715C122.745 58.5704 122.912 58.5692 123.078 58.5595C123.134 58.5581 123.185 58.5311 123.217 58.4896C123.262 58.4884 123.306 58.487 123.351 58.4857C123.148 59.7916 122.876 61.0847 122.531 62.3613ZM123.729 54.3217C123.717 54.7315 123.696 55.1407 123.669 55.5497C123.618 56.3488 123.535 57.1459 123.431 57.9393C123.415 58.0495 123.4 58.1597 123.383 58.2696C123.326 58.2716 123.269 58.2733 123.211 58.2749C123.179 58.2366 123.131 58.2123 123.078 58.2117C122.922 58.21 122.767 58.2143 122.611 58.2162C122.526 58.2173 122.442 58.2179 122.358 58.2182C122.357 58.2182 122.357 58.2182 122.357 58.2182C122.324 58.2182 122.292 58.2185 122.26 58.2185C121.813 58.219 121.365 58.2134 120.918 58.2001C120.671 58.1931 120.424 58.1829 120.177 58.1709C120.091 58.1666 120.005 58.1621 119.919 58.1574C119.897 58.1524 119.875 58.1498 119.852 58.1498C119.841 58.1498 119.831 58.1504 119.819 58.1518C119.819 58.1515 119.817 58.1515 119.817 58.1515C119.775 58.149 119.734 58.1471 119.693 58.1454C119.669 58.0389 119.642 57.9329 119.617 57.827C119.608 57.7882 119.598 57.7493 119.589 57.7105C119.59 57.6891 119.589 57.6675 119.581 57.6463C119.572 57.6191 119.563 57.5917 119.554 57.5643C119.527 57.4486 119.499 57.3325 119.474 57.2161C119.382 56.803 119.312 56.3856 119.237 55.9691C119.218 55.8615 119.2 55.7531 119.179 55.6458C119.157 55.533 119.138 55.4196 119.113 55.3077C119.086 55.1879 119.059 55.0682 119.032 54.9487C119.008 54.8388 118.977 54.73 118.95 54.6207C118.901 54.4278 118.847 54.2357 118.786 54.046C118.719 53.8376 118.652 53.6289 118.576 53.4237C118.496 53.2089 118.416 52.9948 118.331 52.782C118.245 52.5669 118.156 52.3539 118.066 52.1406C117.902 51.7505 117.73 51.3627 117.552 50.9787C117.459 50.7791 117.37 50.5776 117.273 50.3797C117.213 50.2552 117.152 50.1304 117.091 50.0059C117.055 49.9314 117.02 49.856 116.982 49.7828C116.881 49.5908 116.783 49.3969 116.677 49.2081C116.585 49.044 116.493 48.8792 116.398 48.7164C116.386 48.6929 116.373 48.6694 116.361 48.6458C116.267 48.464 116.167 48.2854 116.068 48.1062C116.022 48.0229 115.973 47.9414 115.925 47.8591C115.88 47.7813 115.836 47.7021 115.789 47.625C115.684 47.4522 115.582 47.2759 115.471 47.1067C115.356 46.9328 115.245 46.7565 115.125 46.587C114.999 46.4108 114.875 46.2342 114.745 46.062C114.68 45.9764 114.616 45.8905 114.55 45.8054C114.528 45.7601 114.506 45.7146 114.486 45.6684C114.4 45.4679 114.313 45.2676 114.227 45.0668C114.202 45.0049 114.178 44.9425 114.154 44.8803C114.137 44.8356 114.116 44.7996 114.073 44.7747C114.066 44.7709 114.059 44.7689 114.052 44.7661C114.091 44.4732 114.126 44.18 114.158 43.8864C114.271 42.8324 114.337 41.7736 114.356 40.7137C114.394 38.5708 114.236 36.4248 113.888 34.31C113.826 33.9339 113.757 33.5593 113.682 33.1858C113.707 33.1787 113.731 33.1677 113.753 33.1528C113.872 33.0727 113.994 32.9973 114.124 32.937C114.516 32.785 114.933 32.7225 115.347 32.6638C115.687 32.6275 116.026 32.6062 116.367 32.5842C116.531 32.5738 116.696 32.5617 116.86 32.5468C117.659 33.6172 118.397 34.731 119.07 35.8854C119.813 37.1592 120.468 38.4831 121.046 39.8392C121.629 41.2335 122.124 42.6611 122.528 44.1177C122.932 45.5764 123.232 47.0627 123.442 48.5614C123.641 50.0925 123.746 51.6335 123.754 53.1775C123.757 53.5587 123.741 53.9404 123.729 54.3217Z" fill="#161616"/>
<path d="M89.014 102.359C106.449 102.359 120.583 100.799 120.583 98.8753C120.583 96.9513 106.449 95.3916 89.014 95.3916C71.5791 95.3916 57.4453 96.9513 57.4453 98.8753C57.4453 100.799 71.5791 102.359 89.014 102.359Z" fill="#161616"/>
</g>
<defs>
<clipPath id="clip0_317_10177">
<rect width="84.7179" height="84.7179" fill="white" transform="translate(46.6406 17.6406)"/>
</clipPath>
</defs>
</svg>
