<svg width="178" height="120" viewBox="0 0 178 120" fill="none" xmlns="http://www.w3.org/2000/svg">
<g clip-path="url(#clip0_317_7097)">
<path d="M102.191 35.4881L103.775 38.1562C103.775 38.1562 101.671 40.6265 100.088 43.3645L99.1302 42.9727L98.1719 42.5809C98.961 39.5184 99.1907 36.2817 99.1907 36.2817L102.191 35.4881Z" fill="#4CE550"/>
<g opacity="0.25">
<path d="M102.191 35.4881L103.775 38.1562C103.775 38.1562 101.671 40.6265 100.088 43.3645L99.1302 42.9727L98.1719 42.5809C98.961 39.5184 99.1907 36.2817 99.1907 36.2817L102.191 35.4881Z" fill="#390175"/>
</g>
<path d="M99.8217 44.1124C99.8108 44.1085 99.7999 44.1044 99.7889 44.0999L97.8725 43.3163C97.5045 43.1657 97.3044 42.7668 97.4034 42.382C98.1657 39.4235 98.3967 36.2564 98.399 36.2247C98.4231 35.8856 98.6602 35.5994 98.989 35.5124L101.989 34.7188C102.332 34.628 102.694 34.7759 102.876 35.0815L104.46 37.7496C104.634 38.0419 104.602 38.4122 104.382 38.671C104.361 38.6953 102.305 41.1218 100.778 43.7618C100.585 44.0958 100.182 44.2415 99.8217 44.1124ZM99.1084 42.1037L99.7568 42.3687C100.902 40.4946 102.191 38.8415 102.807 38.0806L101.815 36.4098L99.9364 36.9068C99.8432 37.8815 99.6044 39.964 99.1084 42.1037Z" fill="#390175"/>
<path d="M113.471 7.90395C117.092 9.38456 115.873 14.4141 114.912 17.1038C114.653 17.8288 115.113 18.634 115.879 18.7186C116.771 18.8173 117.777 19.2286 118.23 20.4787C119.264 23.3301 116.261 25.2062 113.83 26.4327C113.805 26.4452 113.781 26.4578 113.756 26.4706C111.947 27.4234 111.673 29.8974 113.141 31.3218C114.281 32.4291 115.512 34.193 114.625 36.1492C113.757 38.0659 111.636 38.0464 110.02 37.6973C108.969 37.4703 107.895 37.8287 107.177 38.629C105.241 40.7873 101.484 37.2187 101.484 37.2187C101.484 37.2187 96.3038 37.1331 96.4343 34.2363C96.4827 33.1621 95.968 32.1544 95.0591 31.58C93.6612 30.6965 92.1344 29.2247 92.8576 27.2484C93.5956 25.2315 95.7093 24.835 97.2992 24.8443C99.3445 24.8564 100.883 22.8993 100.259 20.9515C100.25 20.9254 100.242 20.8992 100.233 20.8729C99.3579 18.2947 98.5291 14.8516 101.265 13.5417C102.464 12.9674 103.47 13.3787 104.176 13.9335C104.781 14.4093 105.674 14.1574 105.997 13.4585C107.196 10.866 109.85 6.42334 113.471 7.90395Z" fill="#4CE550"/>
<g opacity="0.6">
<path d="M114.315 34.0585C114.521 34.2582 114.729 34.4799 114.928 34.7196C114.903 33.4797 114.161 32.3824 113.387 31.5703C113.313 32.4523 113.612 33.3758 114.315 34.0585Z" fill="white"/>
</g>
<g opacity="0.6">
<path d="M94.0316 29.9853C94.7696 27.9684 96.8834 27.5718 98.4733 27.5812C100.519 27.5933 102.057 25.6362 101.433 23.6884C101.425 23.6623 101.416 23.6361 101.407 23.6098C100.532 21.0317 99.7032 17.5885 102.439 16.2786C103.638 15.7044 104.644 16.1156 105.35 16.6704C105.955 17.1462 106.848 16.8943 107.171 16.1955C108.37 13.6029 111.024 9.16024 114.645 10.6408C115.146 10.8454 115.546 11.123 115.875 11.4476C115.726 9.9117 115.074 8.5595 113.471 7.90395C109.85 6.42337 107.196 10.866 105.997 13.4586C105.674 14.1574 104.781 14.4093 104.176 13.9335C103.47 13.3787 102.464 12.9675 101.265 13.5418C98.5291 14.8516 99.3578 18.2948 100.233 20.873C100.242 20.8993 100.25 20.9254 100.259 20.9515C100.882 22.8994 99.3444 24.8564 97.2991 24.8444C95.7093 24.835 93.5956 25.2315 92.8576 27.2484C92.3444 28.6507 92.9657 29.7975 93.8683 30.6619C93.8949 30.4432 93.9465 30.2181 94.0316 29.9853Z" fill="white"/>
</g>
<g opacity="0.6">
<path d="M96.4512 34.4756C96.4997 35.2489 96.9341 35.8117 97.5458 36.2097C97.4014 35.5227 97.0174 34.9099 96.4512 34.4756Z" fill="white"/>
</g>
<path d="M110.587 30.9401C108.839 30.4851 107.06 30.2366 105.259 30.1584C105.797 28.6793 106.37 27.1035 106.935 25.5515C107.07 25.179 107.206 24.8078 107.339 24.4398C107.404 24.4028 107.47 24.3663 107.535 24.3301C109.391 23.3096 111.503 22.6148 113.481 21.8745C113.56 21.8484 113.528 21.7267 113.449 21.7373C112.561 21.8374 111.678 21.993 110.809 22.2049C109.783 22.447 108.772 22.7746 107.797 23.1828C109.359 18.8891 110.661 15.3089 110.661 15.3089C110.746 15.0479 110.386 14.9407 110.287 15.1558L106.815 22.7805C106.288 21.5316 105.623 20.3415 104.864 19.2215C104.524 18.7313 104.171 18.2513 103.794 17.7896C103.744 17.7237 103.639 17.7939 103.675 17.8652C104.57 19.7739 105.584 21.7659 106.199 23.7826C106.212 23.8229 106.225 23.8632 106.237 23.9035C106.237 23.9035 106.248 23.9482 106.261 23.9956L105.77 25.0749L103.302 30.4921C103.267 30.5493 103.239 30.6107 103.219 30.6747L102.498 32.2574C101.242 30.8729 99.6939 29.7615 98.0381 28.9083C97.8177 28.7908 97.6279 29.1043 97.8285 29.2476C99.4238 30.4635 100.877 31.9585 101.826 33.7341L100.434 36.7891C99.8439 38.2399 101.948 39.0876 102.534 37.6477C102.534 37.6477 103.481 35.0452 104.728 31.6172C106.099 31.3866 107.519 31.268 108.908 31.2587C109.448 31.2517 109.986 31.2785 110.528 31.3132C110.753 31.3295 110.805 30.9948 110.587 30.9401Z" fill="#390175"/>
<path d="M104.086 39.9414C102.782 39.4736 101.632 38.5598 101.118 38.113C100.159 38.055 97.6426 37.7714 96.3382 36.3845C95.7695 35.7797 95.4888 35.0229 95.526 34.1957C95.5601 33.4377 95.204 32.747 94.5731 32.3484C92.1902 30.8424 91.2777 28.9205 92.0037 26.9364C92.7176 24.9856 94.5999 23.9201 97.304 23.936C98.0064 23.9402 98.6732 23.6055 99.0878 23.041C99.4796 22.5075 99.5909 21.8469 99.3929 21.229L99.3723 21.1669C98.755 19.3479 97.1168 14.5206 100.872 12.7224C102.167 12.1022 103.54 12.2786 104.737 13.2194C104.797 13.2664 104.868 13.2806 104.949 13.261C104.996 13.2499 105.111 13.2095 105.172 13.0775C107.566 7.89921 110.633 5.76181 113.814 7.06314C116.994 8.3631 117.687 12.0377 115.767 17.4098C115.718 17.5468 115.772 17.6563 115.797 17.6971C115.842 17.7675 115.902 17.8075 115.978 17.8157C117.492 17.9836 118.594 18.819 119.084 20.1692C120.503 24.0832 115.952 26.3798 114.239 27.2443L114.182 27.2733C113.605 27.5773 113.222 28.1264 113.127 28.7816C113.027 29.4748 113.269 30.1808 113.773 30.6699C115.713 32.5534 116.31 34.6325 115.452 36.5245C114.58 38.4488 112.583 39.1808 109.827 38.5859C109.098 38.4283 108.36 38.6714 107.853 39.2362C107.3 39.8525 106.569 40.1957 105.74 40.2289C105.185 40.2509 104.623 40.1339 104.086 39.9414ZM101.791 36.3636C101.908 36.4058 102.017 36.4723 102.11 36.5601C102.672 37.0924 104.41 38.4645 105.669 38.4128C106.01 38.3987 106.274 38.2747 106.5 38.0223C107.434 36.9815 108.856 36.5166 110.211 36.8093C112.095 37.2161 113.301 36.8678 113.797 35.7743C114.329 34.5999 113.895 33.3213 112.507 31.974C111.587 31.0807 111.146 29.7904 111.328 28.5226C111.506 27.2842 112.237 26.2433 113.333 25.6668C113.36 25.6522 113.391 25.6361 113.422 25.6204C116.802 23.9151 117.985 22.4698 117.375 20.7887C117.215 20.3459 116.875 19.7432 115.778 19.6219C115.15 19.5526 114.595 19.202 114.256 18.6603C113.906 18.0999 113.833 17.4212 114.055 16.7981C114.949 14.2978 116.017 9.92707 113.127 8.74513C110.241 7.56744 107.936 11.4299 106.822 13.8401C106.544 14.4407 106.016 14.8737 105.373 15.0281C104.752 15.1773 104.111 15.0391 103.614 14.648C102.747 13.9666 102.082 14.158 101.657 14.3615C100.044 15.1337 99.8753 16.9938 101.093 20.5811L101.123 20.6731C101.501 21.8537 101.293 23.1082 100.553 24.1166C99.7944 25.1489 98.5761 25.7608 97.2933 25.7533C95.3589 25.7419 94.1535 26.3501 93.7104 27.5609C93.2978 28.6885 93.9148 29.7824 95.544 30.8121C96.7157 31.5525 97.4045 32.8804 97.3415 34.2775C97.3263 34.6166 97.4282 34.8906 97.6622 35.1395C98.5252 36.0578 100.778 36.2984 101.499 36.3104C101.599 36.312 101.698 36.3302 101.791 36.3636Z" fill="#390175"/>
<path d="M109.701 42.5087L109.098 45.5526C109.098 45.5526 105.882 45.9855 102.875 46.9656L102.424 46.0339L101.972 45.1022C104.605 43.3503 106.938 41.0952 106.938 41.0952L109.701 42.5087Z" fill="#4CE550"/>
<g opacity="0.25">
<path d="M109.701 42.5087L109.098 45.5526C109.098 45.5526 105.882 45.9855 102.875 46.9656L102.424 46.0339L101.972 45.1022C104.605 43.3503 106.938 41.0952 106.938 41.0952L109.701 42.5087Z" fill="#390175"/>
</g>
<path d="M102.606 47.7144C102.416 47.6461 102.252 47.5061 102.159 47.3124L101.256 45.4492C101.083 45.0914 101.2 44.6607 101.531 44.4405C104.07 42.7514 106.362 40.5459 106.385 40.5238C106.63 40.2877 106.994 40.2318 107.3 40.3878L110.062 41.8011C110.379 41.963 110.549 42.315 110.48 42.6635L109.877 45.7075C109.811 46.0409 109.54 46.2955 109.203 46.341C109.172 46.3452 106.02 46.7769 103.121 47.7219C102.947 47.7784 102.767 47.7722 102.606 47.7144ZM102.986 45.3724L103.291 46.0027C105.395 45.3733 107.459 45.0039 108.426 44.8497L108.804 42.9434L107.074 42.0583C106.353 42.7213 104.784 44.1118 102.986 45.3724Z" fill="#390175"/>
<path d="M136.519 29.5167C138.225 33.0374 133.958 35.9659 131.446 37.3252C130.769 37.6916 130.574 38.5984 131.087 39.1727C131.685 39.8423 132.158 40.8202 131.661 42.0533C130.525 44.8661 127.037 44.2556 124.409 43.5445C124.382 43.5373 124.355 43.5303 124.329 43.5236C122.346 43.0236 120.489 44.6817 120.63 46.7222C120.739 48.3083 120.477 50.4428 118.51 51.3062C116.583 52.1522 115.018 50.7211 114.049 49.3815C113.418 48.5105 112.38 48.0602 111.311 48.1761C108.428 48.4886 108.017 43.3237 108.017 43.3237C108.017 43.3237 104.219 39.7993 106.251 37.7309C107.005 36.9639 107.295 35.8702 107.002 34.8355C106.552 33.2443 106.399 31.1291 108.258 30.1415C110.154 29.1337 111.992 30.2506 113.169 31.3197C114.683 32.6949 117.135 32.266 117.972 30.3999C117.983 30.3749 117.994 30.3497 118.005 30.3241C119.076 27.8211 120.759 24.7053 123.67 25.5582C124.946 25.9321 125.42 26.91 125.575 27.7944C125.707 28.5528 126.54 28.9617 127.247 28.6575C129.871 27.529 134.814 25.9961 136.519 29.5167Z" fill="#4CE550"/>
<g opacity="0.6">
<path d="M119.676 49.544C119.695 49.83 119.702 50.1342 119.69 50.4452C120.499 49.5057 120.68 48.1933 120.647 47.072C120.002 47.6789 119.608 48.5659 119.676 49.544Z" fill="white"/>
</g>
<g opacity="0.6">
<path d="M107.304 32.9631C109.2 31.9553 111.038 33.0722 112.215 34.1412C113.729 35.5165 116.181 35.0877 117.018 33.2215C117.029 33.1965 117.04 33.1712 117.051 33.1457C118.122 30.6427 119.806 27.5269 122.717 28.3797C123.993 28.7536 124.467 29.7315 124.621 30.6159C124.754 31.3743 125.586 31.7832 126.294 31.479C128.917 30.3505 133.86 28.8176 135.566 32.3383C135.802 32.8248 135.914 33.2986 135.942 33.7599C136.858 32.5181 137.276 31.0763 136.52 29.5174C134.815 25.9967 129.872 27.5296 127.248 28.6581C126.541 28.9623 125.708 28.5534 125.576 27.7949C125.421 26.9105 124.947 25.9326 123.671 25.5587C120.76 24.7059 119.077 27.8217 118.006 30.3247C117.995 30.3503 117.984 30.3755 117.973 30.4005C117.136 32.2666 114.684 32.6955 113.17 31.3203C111.993 30.2512 110.155 29.1343 108.259 30.1421C106.94 30.8428 106.636 32.1112 106.73 33.3574C106.896 33.2126 107.085 33.0795 107.304 32.9631Z" fill="white"/>
</g>
<g opacity="0.6">
<path d="M106.104 37.9209C105.623 38.5289 105.57 39.2378 105.76 39.9426C106.111 39.3349 106.235 38.6224 106.104 37.9209Z" fill="white"/>
</g>
<path d="M107.525 42.3031L129.308 32.7868C129.528 32.6911 129.719 33.021 129.484 33.1507L108.514 44.3448C107.115 45.0243 106.116 42.988 107.525 42.3031Z" fill="#390175"/>
<path d="M120.78 36.6753C120.851 36.7286 120.94 36.7328 121.017 36.7571C122.394 37.1456 123.732 37.6961 124.986 38.3805C125.775 38.8035 126.535 39.2769 127.263 39.796C127.329 39.8412 127.271 39.9526 127.195 39.9194C125.125 39.1084 122.976 38.1594 120.801 37.7019C120.752 37.6988 120.648 37.6563 120.605 37.6923C120.29 37.9768 119.804 37.9522 119.52 37.6373C118.913 36.9458 119.801 35.9718 120.543 36.5018L120.78 36.6753Z" fill="#390175"/>
<path d="M120.239 36.9383C120.295 36.9251 120.323 36.822 120.353 36.778L120.448 36.5908C121.369 34.6513 121.955 32.4448 122.576 30.3865C122.596 30.309 122.721 30.3269 122.715 30.4096C122.687 31.0049 122.629 31.5977 122.554 32.1896C122.32 33.9017 121.897 35.597 121.228 37.1947C121.2 37.2672 121.147 37.3431 121.145 37.431L121.134 37.7243C121.119 38.1483 120.762 38.4793 120.338 38.4635C119.418 38.415 119.341 37.1006 120.239 36.9383Z" fill="#390175"/>
<path d="M114.602 39.7101C115.867 40.8376 116.992 42.0519 118.025 43.3832C118.366 43.8185 118.68 44.2753 118.986 44.7331C119.044 44.8202 119.02 44.938 118.933 44.9961C118.855 45.0486 118.751 45.0343 118.689 44.9674C118.31 44.5814 117.929 44.2029 117.524 43.8485C116.334 42.7952 115.019 41.8208 113.664 41.0085C112.69 40.3725 113.689 38.9839 114.602 39.7101Z" fill="#000072"/>
<path d="M110.429 41.5735C111.013 39.723 111.032 37.7155 110.768 35.7997C110.727 35.5118 110.669 35.2265 110.62 34.9378C110.579 34.7037 110.927 34.6108 111.005 34.8379C111.858 37.0999 112.317 39.5721 111.975 41.9899C111.757 43.2098 109.998 42.735 110.429 41.5735Z" fill="#000072"/>
<path d="M116.125 52.2524C115.134 51.897 114.18 51.1107 113.314 49.9144C112.876 49.3099 112.164 48.9979 111.41 49.0794C110.587 49.1684 109.814 48.9359 109.175 48.4066C107.708 47.1921 107.267 44.6983 107.149 43.7449C106.474 43.0611 104.791 41.169 104.747 39.2654C104.728 38.4356 105.024 37.6847 105.604 37.094C106.136 36.5528 106.332 35.801 106.129 35.0828C105.362 32.3702 105.967 30.3305 107.833 29.3391C109.667 28.3644 111.779 28.8287 113.781 30.6471C114.301 31.1191 115.021 31.3156 115.706 31.1725C116.354 31.0372 116.878 30.6199 117.144 30.0279L117.17 29.9674C117.926 28.2021 119.932 23.5154 123.927 24.6861C125.306 25.0901 126.209 26.1381 126.471 27.6378C126.484 27.7127 126.528 27.7709 126.601 27.8104C126.643 27.8328 126.756 27.88 126.89 27.8226C132.131 25.5683 135.841 26.0295 137.339 29.1206C138.836 32.2113 136.897 35.4089 131.88 38.1243C131.752 38.1935 131.719 38.311 131.711 38.3583C131.696 38.4401 131.715 38.5104 131.766 38.5671C132.78 39.7027 133.042 41.0616 132.505 42.3934C130.946 46.2542 126.026 44.9228 124.173 44.4216L124.108 44.4047C123.479 44.246 122.827 44.3986 122.319 44.8232C121.781 45.2724 121.49 45.959 121.538 46.6596C121.724 49.3574 120.779 51.3031 118.877 52.1382C117.956 52.5426 117.025 52.5753 116.125 52.2524ZM112.958 47.48C113.682 47.7396 114.324 48.2102 114.786 48.8488C115.916 50.4098 117.047 50.9571 118.146 50.4742C119.327 49.9558 119.858 48.7145 119.725 46.7848C119.637 45.505 120.17 44.2505 121.153 43.4289C122.113 42.6265 123.352 42.3399 124.552 42.6424L124.647 42.6673C128.304 43.6567 130.15 43.3713 130.819 41.7132C130.996 41.2765 131.145 40.6007 130.41 39.7778C129.989 39.3065 129.81 38.675 129.92 38.0455C130.034 37.3946 130.433 36.8407 131.015 36.5259C133.35 35.2622 137.064 32.7227 135.703 29.9129C134.342 27.1031 130.047 28.4431 127.608 29.4923C127 29.7536 126.318 29.7231 125.737 29.4091C125.175 29.1052 124.79 28.5738 124.681 27.951C124.491 26.8643 123.866 26.5617 123.416 26.4303C121.7 25.9275 120.332 27.1989 118.842 30.6817C118.828 30.7129 118.814 30.7447 118.8 30.776C118.295 31.9013 117.302 32.6958 116.078 32.9516C114.824 33.2133 113.508 32.8545 112.559 31.9924C111.127 30.6916 109.824 30.3391 108.685 30.9441C107.625 31.5075 107.353 32.7336 107.878 34.5882C108.255 35.922 107.881 37.3704 106.901 38.3678C106.663 38.6096 106.556 38.8809 106.563 39.2217C106.591 40.4806 108.07 42.1294 108.637 42.6584C108.803 42.8132 108.906 43.0254 108.924 43.2516C108.987 44.0238 109.364 46.206 110.335 47.0081C110.598 47.2251 110.877 47.3095 111.214 47.2727C111.814 47.2076 112.41 47.2831 112.958 47.48Z" fill="#390175"/>
<path d="M107.576 37.8443L108.237 41.092C108.237 41.092 105.247 42.845 102.689 45.051L101.86 44.3193L101.031 43.5875C102.903 40.7754 104.271 37.5912 104.271 37.5912L107.576 37.8443Z" fill="#4CE550"/>
<g opacity="0.25">
<path d="M107.576 37.8443L108.237 41.092C108.237 41.092 105.247 42.845 102.689 45.051L101.86 44.3193L101.031 43.5875C102.903 40.7754 104.271 37.5912 104.271 37.5912L107.576 37.8443Z" fill="#390175"/>
</g>
<path d="M102.422 45.7988C102.33 45.7657 102.242 45.7148 102.165 45.6465L100.507 44.183C100.209 43.9199 100.151 43.4773 100.371 43.1464C102.178 40.4305 103.529 37.3078 103.542 37.2766C103.677 36.9644 103.994 36.7719 104.333 36.7978L107.638 37.0508C107.992 37.0782 108.285 37.3366 108.356 37.685L109.017 40.9327C109.085 41.2658 108.934 41.6052 108.641 41.7772C108.611 41.7944 105.68 43.522 103.21 45.6526C102.987 45.8447 102.685 45.8931 102.422 45.7988ZM102.073 43.4444L102.703 44.0006C104.547 42.4827 106.468 41.2453 107.348 40.7015L106.918 38.5906L104.77 38.4262C104.34 39.3663 103.35 41.4263 102.073 43.4444Z" fill="#390175"/>
<path d="M128.641 13.9806C131.774 16.7457 128.778 21.391 126.864 23.7664C126.348 24.4067 126.53 25.3807 127.272 25.7349C128.137 26.1478 129.007 26.9158 129.026 28.3361C129.068 31.5756 125.379 32.4131 122.496 32.7967C122.467 32.8006 122.438 32.8047 122.409 32.8091C120.249 33.1346 119.104 35.534 120.084 37.4863C120.846 39.0039 121.468 41.2152 119.886 42.877C118.337 44.5054 116.205 43.7409 114.697 42.8212C113.716 42.2231 112.508 42.2077 111.503 42.7628C108.791 44.2598 106.255 39.341 106.255 39.341C106.255 39.341 101.06 37.4354 102.209 34.5592C102.635 33.4927 102.47 32.2954 101.754 31.3968C100.655 30.0148 99.6314 27.9939 101.055 26.2544C102.508 24.4791 104.779 24.8214 106.379 25.3892C108.438 26.1196 110.677 24.6857 110.732 22.5018C110.733 22.4725 110.733 22.4431 110.733 22.4135C110.756 19.5056 111.129 15.7414 114.349 15.3809C115.761 15.2228 116.631 15.9909 117.148 16.7984C117.591 17.4909 118.58 17.5503 119.152 16.9589C121.271 14.7647 125.509 11.2155 128.641 13.9806Z" fill="#4CE550"/>
<g opacity="0.25">
<path d="M102.345 31.777C102.771 30.7105 102.606 29.5133 101.891 28.6147C101.447 28.0567 101.015 27.3945 100.752 26.6888C99.7996 28.3223 100.743 30.1291 101.753 31.3977C101.952 31.6487 102.108 31.9236 102.221 32.2119C102.248 32.0693 102.286 31.9248 102.345 31.777Z" fill="#390175"/>
<path d="M127 20.9841C126.484 21.6245 126.666 22.5984 127.408 22.9525C127.428 22.9619 127.448 22.9725 127.467 22.9823C128.883 21.0628 130.464 18.2694 129.87 15.9487C129.315 17.8526 128.008 19.7331 127 20.9841Z" fill="#390175"/>
<path d="M120.024 40.095C118.474 41.7234 116.342 40.959 114.834 40.0392C113.854 39.4412 112.645 39.4257 111.64 39.9808C108.928 41.4779 106.393 36.559 106.393 36.559C106.393 36.559 103.33 35.4338 102.429 33.6088C102.404 33.93 102.332 34.2507 102.208 34.5603C101.059 37.4365 106.255 39.3421 106.255 39.3421C106.255 39.3421 108.79 44.261 111.502 42.7639C112.507 42.2088 113.716 42.2242 114.696 42.8223C116.204 43.7421 118.336 44.5065 119.885 42.8781C120.966 41.7427 121.018 40.351 120.699 39.0991C120.544 39.4451 120.323 39.78 120.024 40.095Z" fill="#390175"/>
<path d="M129.025 28.3373C129.019 27.8983 128.932 27.5219 128.789 27.1988C127.785 29.104 124.95 29.7066 122.634 30.0148C122.604 30.0187 122.575 30.0228 122.546 30.0272C120.477 30.3391 119.344 32.5537 120.115 34.4558C120.559 33.6128 121.363 32.9678 122.408 32.8103C122.437 32.8059 122.466 32.8018 122.495 32.7978C125.378 32.4143 129.067 31.5768 129.025 28.3373Z" fill="#390175"/>
</g>
<g opacity="0.6">
<path d="M120.306 40.6604C120.443 40.9341 120.576 41.2309 120.692 41.5424C121.102 40.2829 120.738 38.9154 120.243 37.8244C119.859 38.688 119.836 39.7246 120.306 40.6604Z" fill="white"/>
</g>
<g opacity="0.6">
<path d="M101.278 29.4282C102.731 27.653 105.002 27.9953 106.602 28.5631C108.661 29.2935 110.9 27.8595 110.955 25.6757C110.956 25.6464 110.956 25.617 110.956 25.5874C110.979 22.6795 111.352 18.9153 114.572 18.5548C115.983 18.3968 116.854 19.1648 117.371 19.9723C117.814 20.6648 118.803 20.7243 119.375 20.1328C121.494 17.9386 125.732 14.3894 128.864 17.1545C129.297 17.5366 129.603 17.9571 129.821 18.4001C130.211 16.7988 130.028 15.2058 128.641 13.9815C125.508 11.2164 121.271 14.7656 119.151 16.9598C118.58 17.5512 117.591 17.4918 117.148 16.7993C116.63 15.9918 115.76 15.2237 114.349 15.3818C111.129 15.7423 110.756 19.5065 110.733 22.4143C110.733 22.444 110.732 22.4734 110.732 22.5027C110.677 24.6865 108.438 26.1205 106.379 25.3901C104.779 24.8223 102.507 24.48 101.055 26.2553C100.045 27.4896 100.269 28.8645 100.875 30.0534C100.979 29.8422 101.11 29.6332 101.278 29.4282Z" fill="white"/>
</g>
<g opacity="0.6">
<path d="M102.141 34.8076C101.918 35.6048 102.159 36.3249 102.636 36.9413C102.731 36.1976 102.559 35.4445 102.141 34.8076Z" fill="white"/>
</g>
<path d="M123.76 27.9274C122.829 27.7163 121.885 27.5635 120.933 27.472C119.814 27.3561 118.679 27.3314 117.551 27.4006C120.635 23.618 123.206 20.4641 123.206 20.4641C123.383 20.2306 123.058 19.9959 122.882 20.1783L116.702 26.6493C116.611 25.2049 116.355 23.7706 115.984 22.3747C115.813 21.7608 115.626 21.1529 115.408 20.5548C115.38 20.4706 115.25 20.5045 115.262 20.5893C115.494 22.8287 115.818 25.1944 115.73 27.4447C115.728 27.4897 115.727 27.5347 115.725 27.5796C115.725 27.5796 115.721 27.6289 115.717 27.6812L114.842 28.5972L110.452 33.1943C110.393 33.2407 110.342 33.2947 110.299 33.3543L109.02 34.6934C108.239 32.8557 107.068 31.1909 105.697 29.7488C105.527 29.5571 105.222 29.7924 105.359 30.0059C105.526 30.2703 105.702 30.5273 105.86 30.7941C106.795 32.3776 107.539 34.1253 107.824 35.9462L105.347 38.5397C104.242 39.7959 106.066 41.3895 107.163 40.1433C107.163 40.1433 109.032 37.8516 111.493 34.8325C113.524 35.1794 115.55 35.7486 117.446 36.5584C117.534 36.5988 117.642 36.5701 117.698 36.486C117.76 36.3928 117.735 36.2671 117.642 36.2052C117.152 35.8801 116.654 35.5596 116.138 35.2716C114.971 34.6124 113.781 34.038 112.543 33.5444C113.605 32.2418 114.736 30.854 115.85 29.4872C116.118 29.159 116.384 28.8321 116.649 28.5078C116.727 28.4934 116.806 28.4795 116.885 28.4661C119.115 28.0882 121.49 28.1292 123.744 28.077C123.833 28.0783 123.844 27.9446 123.76 27.9274Z" fill="#390175"/>
<path d="M109.342 43.7575C107.487 43.092 106.098 40.9121 105.616 40.0663C104.69 39.6821 102.24 38.5182 101.415 36.6677C101.06 35.8737 101.043 35.0282 101.365 34.2227C101.674 33.4492 101.554 32.6045 101.044 31.9634C99.1887 29.6325 98.9431 27.4009 100.352 25.6796C101.739 23.9842 103.988 23.5771 106.683 24.5334C107.409 24.7908 108.22 24.6848 108.853 24.2498C109.452 23.8378 109.806 23.1926 109.824 22.4796L109.825 22.4073C109.841 20.3722 109.883 14.9671 114.248 14.4786C115.748 14.3103 117.049 14.9605 117.913 16.309C117.981 16.4151 118.084 16.4462 118.158 16.4536C118.218 16.4595 118.372 16.4593 118.498 16.3281C122.705 11.9733 126.521 10.8975 129.243 13.3C131.965 15.7024 131.371 19.6222 127.571 24.3372C127.457 24.4791 127.476 24.6312 127.489 24.6901C127.506 24.7629 127.549 24.8611 127.663 24.9153C129.108 25.6049 129.915 26.8158 129.935 28.3249C129.991 32.7166 124.633 33.4297 122.616 33.6981L122.545 33.7082C121.839 33.8146 121.243 34.2458 120.908 34.8915C120.555 35.5731 120.551 36.391 120.896 37.0791C122.18 39.6352 122.055 41.9169 120.545 43.504C119.011 45.1155 116.767 45.1484 114.224 43.5976C113.523 43.17 112.671 43.1564 111.942 43.5588C111.183 43.978 110.342 44.066 109.51 43.8131C109.453 43.796 109.397 43.7774 109.342 43.7575ZM115.325 16.3676C115.003 16.2519 114.698 16.2569 114.45 16.2846C112.514 16.5013 111.674 18.3367 111.642 22.4212L111.64 22.5251C111.608 23.827 110.967 25.0015 109.883 25.7474C108.772 26.5113 107.348 26.6977 106.076 26.2462C104.101 25.5457 102.649 25.7423 101.758 26.8305C100.925 27.8487 101.163 29.1948 102.466 30.8317C103.374 31.9725 103.599 33.5304 103.053 34.8969C102.912 35.2503 102.918 35.5776 103.074 35.9273C103.632 37.1762 105.839 38.221 106.568 38.4885C106.782 38.5669 106.959 38.7228 107.063 38.9253C107.447 39.6664 108.732 41.6824 110.04 42.0748C110.406 42.1856 110.731 42.1515 111.063 41.9679C112.352 41.2566 113.926 41.2868 115.17 42.0459C116.956 43.1351 118.321 43.2047 119.228 42.2513C120.197 41.2327 120.212 39.7668 119.272 37.8947C118.666 36.6879 118.674 35.2527 119.295 34.0555C119.9 32.8868 120.986 32.1053 122.274 31.9112L122.377 31.8965C126.372 31.365 128.142 30.2706 128.117 28.3484C128.11 27.8291 127.975 27.0779 126.88 26.5556C126.288 26.2731 125.864 25.7402 125.717 25.0935C125.565 24.4238 125.725 23.7326 126.156 23.197C127.95 20.9715 130.579 16.9036 128.04 14.6625C125.501 12.4213 121.791 15.5351 119.805 17.5909C119.328 18.0854 118.662 18.3302 117.978 18.2621C117.318 18.1963 116.737 17.8416 116.383 17.2891C116.043 16.7586 115.674 16.4926 115.325 16.3676Z" fill="#390175"/>
<path d="M45.2661 108.435C52.4156 114.746 94.9556 87.5435 105.687 71.96C110.785 64.5579 110.331 57.7757 108.45 52.6947C105.882 45.7576 99.9352 40.5081 92.7329 38.8209C87.4577 37.5851 80.6718 37.9771 73.9596 43.9539C59.8287 56.5367 38.1167 102.124 45.2661 108.435Z" fill="white"/>
<path d="M45.2661 108.435C52.4156 114.746 94.9556 87.5435 105.687 71.96C110.785 64.5579 110.331 57.7757 108.45 52.6947C105.882 45.7576 99.9352 40.5081 92.7329 38.8209C87.4577 37.5851 80.6718 37.9771 73.9596 43.9539C59.8287 56.5367 38.1167 102.124 45.2661 108.435Z" fill="#FF812C"/>
<g opacity="0.6">
<path d="M74.7001 46.6033C81.4123 40.6264 88.1982 40.2344 93.4734 41.4702C100.676 43.1574 106.623 48.4069 109.191 55.3441C109.24 55.4766 109.287 55.6111 109.334 55.7459C109.109 54.6731 108.805 53.6535 108.45 52.6946C105.882 45.7575 99.9349 40.508 92.7326 38.8208C87.4574 37.585 80.6715 37.977 73.9593 43.9538C60.2991 56.1175 39.5555 99.1219 44.647 107.675C43.5395 95.149 62.1225 57.8028 74.7001 46.6033Z" fill="white"/>
</g>
<g opacity="0.25">
<path d="M47.807 89.3283C48.0068 89.4781 48.1572 89.6051 48.3275 89.7439L48.8124 90.1548C49.1324 90.4295 49.4442 90.7087 49.7542 90.9889C50.3721 91.5506 50.9732 92.1241 51.5654 92.7039C52.1583 93.2829 52.7368 93.8737 53.3102 94.4673C53.8825 95.062 54.4445 95.6649 55.0016 96.2705C55.1231 96.4026 55.1146 96.6083 54.9824 96.7298C54.865 96.8378 54.6895 96.8431 54.5666 96.7501L54.5649 96.7489C53.9118 96.2559 53.2565 95.7681 52.5944 95.2914C51.9314 94.816 51.2664 94.3457 50.5926 93.8917C49.9195 93.437 49.242 92.9919 48.5578 92.5656C48.2153 92.3536 47.8724 92.1436 47.5281 91.9423L47.0122 91.6454C46.8453 91.5534 46.6593 91.4484 46.5148 91.378C45.9096 91.0835 45.6578 90.3542 45.9523 89.7491C46.2468 89.1439 46.9761 88.8921 47.5812 89.1866C47.6501 89.2201 47.7143 89.2592 47.7737 89.3031L47.807 89.3283Z" fill="#390175"/>
<path d="M68.1636 101.884C68.1159 101.776 68.0312 101.613 67.9564 101.472C67.8801 101.327 67.7946 101.18 67.714 101.033C67.5435 100.74 67.3706 100.446 67.1859 100.156C66.8237 99.5731 66.431 99.0016 66.0318 98.4329C65.2254 97.2998 64.3531 96.2031 63.4472 95.1305L62.7606 94.3304L62.0538 93.5463C61.5875 93.0177 61.0917 92.5166 60.6075 92.0023C60.1185 91.4929 59.6112 91.0012 59.1127 90.4986L57.5734 89.0347L57.5701 89.0316C57.5053 88.97 57.5028 88.8674 57.5644 88.8026C57.6217 88.7423 57.7145 88.7359 57.7793 88.7849L59.4843 90.0715C60.04 90.5167 60.6058 90.9523 61.1556 91.4077C61.7006 91.8683 62.2585 92.3167 62.7899 92.7959L63.5953 93.5071L64.3842 94.2386C65.4292 95.2229 66.449 96.2413 67.4185 97.3192C67.9001 97.8615 68.3773 98.4101 68.833 98.9852C69.0634 99.2698 69.286 99.5645 69.5079 99.862C69.6167 100.015 69.7269 100.163 69.8344 100.321C69.9447 100.482 70.0429 100.624 70.165 100.827L70.1742 100.842C70.4972 101.379 70.3236 102.076 69.7867 102.399C69.2497 102.722 68.5526 102.548 68.2297 102.011C68.2058 101.972 68.1821 101.925 68.1636 101.884Z" fill="#390175"/>
<path d="M58.348 74.2558C59.6064 74.5726 60.7577 75.1279 61.8566 75.7743C62.9506 76.4272 63.9853 77.1842 64.9275 78.0432C65.8679 78.9021 66.7619 79.8184 67.5237 80.8395C67.9289 81.3293 68.2675 81.8714 68.6162 82.3999C68.791 82.664 68.9433 82.9436 69.093 83.2235C69.244 83.5024 69.3917 83.7824 69.5299 84.0668C69.5924 84.1955 69.5388 84.3505 69.4101 84.413C69.3074 84.4629 69.1878 84.4388 69.112 84.3615L69.0995 84.3486C68.661 83.9003 68.2794 83.4194 67.8577 82.9717C67.6447 82.7496 67.4432 82.5199 67.2362 82.2952C67.0344 82.0663 66.8127 81.8548 66.6039 81.6333C65.7631 80.7516 64.8782 79.9206 63.9757 79.1123C63.0738 78.3016 62.1239 77.5491 61.1631 76.803C60.1999 76.0623 59.2031 75.3435 58.1854 74.6554L58.173 74.647C58.0735 74.5797 58.0474 74.4445 58.1147 74.345C58.1673 74.2671 58.2618 74.2343 58.348 74.2558Z" fill="#390175"/>
<path d="M76.1253 64.8271C77.3837 65.1439 78.535 65.6992 79.6339 66.3456C80.7279 66.9985 81.7626 67.7555 82.7048 68.6144C83.6452 69.4734 84.5392 70.3896 85.301 71.4108C85.7062 71.9006 86.0448 72.4427 86.3935 72.9712C86.5683 73.2353 86.7206 73.5149 86.8703 73.7948C87.0214 74.0737 87.169 74.3537 87.3072 74.6381C87.3697 74.7667 87.3161 74.9217 87.1874 74.9842C87.0847 75.0342 86.9651 75.01 86.8893 74.9327L86.8768 74.9199C86.4384 74.4715 86.0567 73.9906 85.635 73.5429C85.4221 73.3208 85.2205 73.0911 85.0135 72.8664C84.8118 72.6375 84.5901 72.426 84.3813 72.2045C83.5405 71.3229 82.6555 70.4919 81.7531 69.6836C80.8512 68.8729 79.9012 68.1203 78.9405 67.3743C77.9773 66.6336 76.9805 65.9148 75.9627 65.2267L75.9504 65.2183C75.8508 65.151 75.8247 65.0158 75.892 64.9163C75.9446 64.8384 76.0392 64.8055 76.1253 64.8271Z" fill="#390175"/>
<path d="M85.103 42.6559C86.1806 42.8802 87.1763 43.3096 88.1296 43.82C89.0809 44.3329 89.9837 44.9394 90.8128 45.6337C91.0275 45.7983 91.2238 45.9848 91.4255 46.1646C91.6259 46.346 91.8297 46.5237 92.0147 46.7212L92.5814 47.3001C92.7686 47.4944 92.9347 47.709 93.1119 47.912C93.4725 48.3128 93.7786 48.7604 94.0928 49.196C94.2502 49.4137 94.3892 49.6452 94.526 49.8771C94.6638 50.1082 94.7988 50.3403 94.926 50.5765C94.9835 50.6833 94.9435 50.8165 94.8367 50.8741C94.7514 50.92 94.6492 50.9038 94.5822 50.8409L94.5711 50.8305C94.1837 50.4659 93.8433 50.0718 93.4701 49.7073C93.0992 49.341 92.7408 48.9682 92.3603 48.6172C91.9899 48.2569 91.6054 47.9133 91.2225 47.5692C91.0351 47.3927 90.8292 47.2371 90.636 47.0675C90.4385 46.9029 90.2479 46.7301 90.044 46.5734C89.2513 45.9177 88.4188 45.3148 87.5794 44.7145C86.736 44.1222 85.8663 43.5475 84.9793 43.0003L84.9686 42.9936C84.8818 42.9402 84.8549 42.8264 84.9084 42.7397C84.9502 42.6719 85.0292 42.6408 85.103 42.6559Z" fill="#390175"/>
<path d="M83.4 91.8491C83.3675 91.7336 83.3112 91.5648 83.2586 91.4168C83.2078 91.2645 83.1459 91.1096 83.0885 90.9553C82.9682 90.6473 82.845 90.3365 82.708 90.0299C82.574 89.7222 82.4383 89.4138 82.292 89.1086C82.153 88.8004 81.9987 88.4983 81.8458 88.195C81.2304 86.9834 80.5353 85.8035 79.791 84.6496C79.4026 84.0843 79.0301 83.5046 78.6205 82.9505C78.4179 82.6719 78.2212 82.3877 78.0129 82.1125L77.378 81.2932L77.0615 80.8812L76.7309 80.4808L76.0681 79.6783C75.6188 79.1491 75.1532 78.6327 74.6942 78.1068L74.6902 78.1022C74.6447 78.0501 74.65 77.9708 74.7022 77.9253C74.7496 77.8839 74.8194 77.8846 74.8659 77.9242C75.3988 78.3766 75.9461 78.8179 76.4716 79.2841L77.2481 79.997L77.6372 80.3544L78.0123 80.7258L78.7601 81.4739C79.0067 81.7263 79.2424 81.9887 79.4846 82.2463C79.9762 82.7557 80.4228 83.3043 80.8866 83.8413C81.784 84.9392 82.6407 86.0777 83.4285 87.274C83.6245 87.5738 83.8223 87.873 84.0064 88.1823C84.1967 88.4873 84.3802 88.7979 84.5542 89.1153C84.7329 89.4297 84.8995 89.753 85.0653 90.0799C85.1461 90.2455 85.2294 90.4073 85.3065 90.5791C85.3872 90.7529 85.4586 90.9083 85.5431 91.1209L85.5441 91.1234C85.7753 91.705 85.4912 92.364 84.9096 92.5952C84.328 92.8264 83.6689 92.5424 83.4377 91.9608C83.4233 91.9242 83.4105 91.8861 83.4 91.8491Z" fill="#390175"/>
<path d="M103.866 72.3941C103.798 72.2273 103.704 72.0176 103.614 71.8256C103.526 71.6296 103.427 71.4332 103.332 71.2366C103.137 70.8446 102.936 70.4515 102.724 70.0639C102.512 69.6754 102.301 69.2859 102.076 68.9021C101.86 68.5142 101.629 68.1338 101.397 67.7534C100.468 66.232 99.4551 64.7541 98.387 63.312L97.5644 62.246C97.2936 61.8873 97.013 61.5362 96.7276 61.1886L95.8748 60.1413L94.9904 59.1191L94.5476 58.6072L94.0894 58.1094L93.1696 57.1143C92.5499 56.4565 91.9111 55.8158 91.2804 55.1636L91.2766 55.1596C91.2284 55.1098 91.2298 55.0305 91.2796 54.9823C91.3259 54.9376 91.3977 54.9356 91.4463 54.9756C92.1476 55.5526 92.8671 56.1131 93.5577 56.7074L94.582 57.6129L95.0939 58.0675L95.5914 58.5373L96.5877 59.4784L97.5565 60.4494C98.2131 61.0886 98.8162 61.7777 99.4407 62.4498C100.655 63.8238 101.823 65.2458 102.917 66.7328C103.191 67.1045 103.463 67.4773 103.723 67.8605C103.99 68.2385 104.248 68.6243 104.498 69.016C104.751 69.4056 104.993 69.8037 105.233 70.2068C105.351 70.41 105.471 70.61 105.585 70.8197C105.703 71.0305 105.811 71.2268 105.933 71.4714C106.212 72.0311 105.985 72.7114 105.426 72.9909C104.866 73.2704 104.186 73.0433 103.906 72.4836C103.893 72.4585 103.882 72.4333 103.871 72.4078L103.866 72.3941Z" fill="#390175"/>
<path d="M67.4058 50.8088C67.6674 50.9298 67.8742 51.0387 68.0987 51.1577C68.3189 51.2747 68.5343 51.3943 68.7481 51.5163C69.1745 51.7611 69.5947 52.0107 70.0052 52.2732C70.8284 52.7944 71.6277 53.3427 72.4039 53.9177C73.1756 54.499 73.9362 55.0892 74.6618 55.7192C75.395 56.3389 76.0956 56.9936 76.7839 57.6549C76.8776 57.7449 76.8805 57.8939 76.7905 57.9875C76.7093 58.0721 76.5799 58.0828 76.4866 58.0177L76.4828 58.015C75.7068 57.4752 74.9263 56.9481 74.1218 56.4614C73.3248 55.9644 72.5019 55.5129 71.6776 55.0751C70.8491 54.6438 70.0074 54.2442 69.1574 53.878C68.7333 53.6928 68.3042 53.5226 67.876 53.3596C67.662 53.2789 67.447 53.2006 67.2336 53.1275C67.0249 53.0555 66.7955 52.9795 66.6155 52.9298C66.0108 52.7627 65.656 52.137 65.8231 51.5323C65.9902 50.9275 66.6159 50.5728 67.2206 50.7398C67.2793 50.7561 67.3356 50.7766 67.3893 50.801L67.4058 50.8088Z" fill="#390175"/>
</g>
<g opacity="0.25">
<path d="M44.4116 107.209C42.9644 103.887 44.4831 96.6465 47.6471 88.1191C47.0831 91.8795 47.3685 94.6685 48.7809 95.9152C55.525 101.868 93.7579 77.9976 107.082 62.1979C106.508 64.6971 105.381 67.3295 103.511 70.0425C93.3138 84.8534 54.3891 110.158 44.4116 107.209Z" fill="#390175"/>
</g>
<path d="M45.9255 110.189C45.3601 109.986 44.8723 109.704 44.4637 109.344C43.2634 108.284 42.6522 106.461 42.6467 103.925C42.6168 90.0887 60.5786 54.2463 73.1533 43.0494C79.0044 37.8392 85.8702 35.9692 93.0086 37.6416C100.659 39.434 106.857 44.9042 109.586 52.2743C112.131 59.15 111.128 66.1948 106.684 72.6473C97.1344 86.5147 63.7986 108.786 50.066 110.474C48.4056 110.678 47.0206 110.582 45.9255 110.189ZM46.067 107.527C46.7156 108.099 47.9963 108.287 49.7703 108.069C62.756 106.473 95.6042 84.4643 104.688 71.2731C108.722 65.4158 109.605 59.3066 107.313 53.1156C104.904 46.6084 99.2109 41.5835 92.4557 40.0007C86.0281 38.4948 80.076 40.1295 74.7645 44.859C62.8029 55.5102 45.0416 90.836 45.0698 103.919C45.0736 105.707 45.4185 106.954 46.067 107.527Z" fill="#390175"/>
</g>
<defs>
<clipPath id="clip0_317_7097">
<rect width="120" height="120" fill="white" transform="translate(29)"/>
</clipPath>
</defs>
</svg>
