<svg width="179" height="121" viewBox="0 0 179 121" fill="none" xmlns="http://www.w3.org/2000/svg">
<path d="M54.6178 100.842C56.1946 102.818 57.9951 104.641 59.9708 106.262C62.8179 109.75 66.1283 112.572 69.8146 114.649C73.5101 116.733 77.5974 118.227 81.9614 119.096C86.0719 119.917 90.3644 120.382 94.6708 120.472C95.1434 120.491 95.616 120.5 96.0886 120.5C100.914 120.5 105.619 119.518 110.075 117.584C114.75 115.55 118.955 112.837 122.575 109.524C126.236 106.17 129.221 102.267 131.446 97.9213C133.781 93.3544 134.966 88.6308 134.966 83.8772C134.966 79.9719 134.42 76.0482 133.345 72.2167C132.225 68.2123 130.438 64.5077 128.031 61.1949C126.466 59.0394 124.56 57.066 122.363 55.3324C120.809 53.3406 118.994 51.5447 116.936 49.9656L126.464 40.2301C127.522 39.1512 128.131 37.7242 128.181 36.2142L128.845 15.7404C128.898 14.1175 128.28 12.5176 127.151 11.3534C126.159 10.3298 124.965 9.71196 123.707 9.55059C123.515 8.33106 122.95 7.17839 122.079 6.277C120.952 5.11511 119.377 4.45117 117.743 4.45117L56.8516 4.58719C53.5389 4.59641 50.8439 7.29596 50.8439 10.6087V31.3453C50.8439 32.9452 51.4963 34.5082 52.6329 35.6286C53.5319 36.5162 54.657 37.0787 55.9779 37.2839C56.167 38.5702 56.7733 39.7805 57.7 40.6981C58.8435 41.83 60.501 42.4985 62.0041 42.4386L70.9142 42.3349L69.4342 43.7596C68.2493 44.903 67.5784 46.5006 67.5922 48.1443L67.726 65.2454C67.726 66.8845 68.406 68.4728 69.5933 69.6071C69.8031 69.8076 70.029 69.9921 70.2664 70.1604C69.9737 70.2549 69.6901 70.3747 69.4111 70.5154L50.9315 79.9558C48.3933 81.2514 47.1047 84.1861 47.8677 86.9317C49.4146 92.4853 51.6831 97.1651 54.6178 100.842ZM85.9566 76.1404C88.0498 76.1127 90.067 76.3156 91.9436 76.7513C91.9413 76.8896 91.9367 77.0326 91.9297 77.1778C91.9228 77.33 91.9205 77.4867 91.9251 77.6619C91.9666 78.9852 91.6024 79.2872 91.4226 79.4371C90.5212 80.1909 89.0296 80.9102 85.4748 79.7806C84.7717 79.5569 84.0893 79.2987 83.4461 79.0152C83.2363 78.9207 83.0265 78.8238 82.8167 78.7224C82.4294 77.7588 81.8001 76.9058 80.9955 76.258C82.434 76.2096 84.087 76.1704 85.9566 76.1404Z" fill="black"/>
<path d="M50.6662 96.8933C52.2431 98.869 54.0436 100.692 56.0192 102.313C58.8663 105.801 62.1768 108.623 65.8631 110.7C69.5585 112.784 73.6459 114.278 78.0099 115.147C82.1203 115.968 86.4129 116.433 90.7193 116.523C91.1919 116.542 91.6645 116.551 92.1371 116.551C96.9621 116.551 101.667 115.569 106.124 113.632C110.796 111.599 115.004 108.886 118.623 105.573C122.284 102.219 125.269 98.3157 127.494 93.9701C129.829 89.4032 131.014 84.6796 131.014 79.926C131.014 76.0207 130.468 72.097 129.394 68.2655C128.273 64.2612 126.487 60.5565 124.08 57.2437C122.515 55.0882 120.608 53.1171 118.411 51.3812C116.857 49.3894 115.043 47.5935 112.984 46.0144L122.512 36.2789C123.57 35.2 124.179 33.773 124.227 32.263L124.894 11.7893C124.947 10.1663 124.329 8.56639 123.199 7.4022C122.208 6.37862 121.014 5.75849 119.755 5.59942C119.564 4.37989 118.999 3.22722 118.127 2.32583C117 1.16394 115.426 0.5 113.791 0.5L52.9024 0.636015C49.5897 0.645237 46.8947 3.34479 46.8947 6.65987V27.3964C46.8947 28.9963 47.5471 30.5594 48.6836 31.6798C49.5827 32.5673 50.7077 33.1298 52.0287 33.335C52.2177 34.6214 52.824 35.8317 53.7508 36.7492C54.8942 37.8811 56.5518 38.5497 58.0549 38.4897L66.965 38.386L65.485 39.8107C64.3 40.9541 63.6292 42.5518 63.643 44.1955L63.7767 61.2965C63.7767 62.9356 64.4568 64.524 65.6441 65.6582C65.8538 65.8588 66.0798 66.0432 66.3172 66.2115C66.0244 66.306 65.7409 66.4259 65.4619 66.5665L46.9823 76.0069C44.4441 77.3025 43.1554 80.2372 43.9185 82.9828C45.4631 88.5341 47.7338 93.214 50.6662 96.8933ZM82.0051 72.1892C84.0983 72.1616 86.1155 72.3644 87.9921 72.8002C87.9897 72.9385 87.9851 73.0814 87.9782 73.2266C87.9713 73.3788 87.969 73.5356 87.9736 73.7108C88.0151 75.034 87.6532 75.336 87.471 75.4859C86.5696 76.2397 85.0781 76.959 81.5256 75.8294C80.8224 75.6058 80.14 75.3476 79.4969 75.064C79.2871 74.9695 79.0773 74.8727 78.8675 74.7712C78.4825 73.8076 77.8508 72.9546 77.0463 72.3068C78.4825 72.2584 80.1354 72.2192 82.0051 72.1892Z" fill="black"/>
<path d="M57.9675 100.367C60.6371 103.689 63.7447 106.361 67.2073 108.314C70.6446 110.25 74.4599 111.647 78.545 112.461C82.4963 113.249 86.646 113.697 90.8255 113.787C91.2636 113.803 91.6993 113.812 92.135 113.812C96.5843 113.812 100.914 112.908 105.029 111.122C109.423 109.211 113.374 106.665 116.77 103.556C120.191 100.423 122.978 96.7778 125.053 92.725C127.188 88.55 128.271 84.246 128.271 79.9281C128.271 76.2741 127.759 72.5971 126.752 69.0054C125.722 65.3191 124.075 61.9026 121.86 58.8549C120.378 56.8124 118.559 54.9566 116.449 53.329C114.393 50.6203 111.809 48.3057 108.75 46.4291L120.553 34.3676C121.127 33.782 121.461 32.9982 121.487 32.1775L122.153 11.7038C122.183 10.8139 121.849 9.94941 121.228 9.31083C120.606 8.66994 119.808 8.22501 118.863 8.31261L117.028 8.31722L117.083 6.63432C117.113 5.74446 116.779 4.87996 116.159 4.23907C115.539 3.60049 114.69 3.24316 113.801 3.24316H113.794L52.9073 3.37457C51.0953 3.37918 49.6291 4.84768 49.6291 6.65968V27.3962C49.6291 28.2723 49.9795 29.116 50.6042 29.7315C51.229 30.3494 52.0382 30.6583 52.9511 30.6814L54.6985 30.6629V32.468C54.6985 33.344 55.0489 34.1878 55.6737 34.8033C56.2984 35.4211 57.2252 35.7738 58.0205 35.7531L73.8375 35.571L67.3848 41.7816C66.7347 42.4086 66.3705 43.2731 66.3797 44.1745L66.5134 61.2963C66.5134 62.1954 66.8823 63.0553 67.5301 63.6754C68.1802 64.2932 69.0516 64.616 69.953 64.5768C70.4555 64.5537 70.995 64.533 71.569 64.5099L71.5852 66.3888C71.5921 67.281 71.9632 68.1339 72.611 68.7472C73.2611 69.3604 74.1326 69.6785 75.0224 69.6439C76.8575 69.561 79.172 69.4941 81.9707 69.4503C84.4766 69.4157 86.9318 69.6877 89.2095 70.2802C89.6567 70.3932 90.0971 70.5361 90.5374 70.709C90.708 71.4997 90.7679 72.3758 90.7172 73.3578C90.7126 73.4454 90.7126 73.5354 90.7149 73.6253C90.7887 76.0067 89.908 77.021 89.2325 77.5835C87.1577 79.3172 84.4628 79.633 80.7028 78.4365C79.9005 78.1829 79.1236 77.8878 78.3928 77.5628C77.7958 77.2977 77.201 77.0049 76.5693 76.6407C76.5439 76.5554 76.5255 76.4747 76.5094 76.3917C76.318 75.3727 75.6587 74.5059 74.7319 74.0495C74.1279 73.7498 73.4617 73.6506 72.8093 73.7451C72.4012 73.3071 72.0785 72.8691 71.848 72.4403C71.6428 72.0646 71.5091 71.698 71.4399 71.3222C71.2486 70.3033 70.5892 69.4342 69.6602 68.9777C68.7311 68.5166 67.6407 68.5258 66.7163 68.9984L48.2366 78.4388C46.8465 79.1489 46.148 80.7395 46.5653 82.2426C48.0084 87.4366 50.1109 91.7868 52.8128 95.1779C54.3228 97.0844 56.0564 98.825 57.9675 100.367Z" fill="white"/>
<path d="M99.9938 50.6799C104.515 51.0349 108.346 52.1207 111.493 53.935C114.637 55.7539 117.208 58.0362 119.202 60.7819C121.196 63.5298 122.66 66.5637 123.589 69.888C124.52 73.21 124.986 76.5573 124.986 79.9231C124.986 83.7362 124.032 87.5008 122.127 91.2239C120.221 94.947 117.694 98.2483 114.55 101.128C111.403 104.009 107.79 106.333 103.715 108.106C99.6365 109.876 95.3831 110.674 90.9523 110.499C86.8741 110.409 82.9527 109.987 79.1881 109.233C75.4212 108.484 71.9632 107.218 68.8187 105.446C65.6719 103.675 62.8801 101.259 60.4434 98.2022C58.0043 95.1453 56.1232 91.2239 54.793 86.438L73.2726 76.9977C73.5377 78.4177 74.2685 79.7687 75.4673 81.0551C76.6637 82.3414 78.0585 83.448 79.6538 84.3771C81.2491 85.3084 82.955 86.0623 84.7716 86.6386C86.5882 87.2172 88.2504 87.5008 89.7558 87.5008C92.3263 87.5008 94.544 86.7262 96.4021 85.1747C98.2648 83.6255 99.1478 81.4331 99.0602 78.5953C99.2377 75.1395 98.417 72.5276 96.6003 70.7525C94.7837 68.982 92.5914 67.7625 90.0209 67.0985C87.4504 66.4323 84.7463 66.1233 81.913 66.1671C79.0751 66.2109 76.726 66.2801 74.8656 66.3654L74.7319 49.216L92.5453 32.0665L57.9812 32.4653V11.7265L118.868 11.5928L118.204 32.0665L99.9938 50.6799Z" fill="#5C740E"/>
<path d="M94.9245 45.6102C99.4453 45.9629 103.277 47.051 106.424 48.8653C109.568 50.6842 112.138 52.9665 114.133 55.7122C116.127 58.4602 117.588 61.494 118.52 64.8183C119.451 68.1403 119.917 71.4876 119.917 74.8534C119.917 78.6665 118.962 82.4311 117.058 86.1542C115.152 89.8774 112.625 93.1786 109.48 96.058C106.334 98.9397 102.721 101.263 98.6453 103.036C94.5672 104.807 90.3138 105.604 85.8829 105.429C81.8048 105.339 77.8857 104.917 74.1188 104.164C70.3518 103.414 66.8938 102.149 63.7493 100.376C60.6025 98.6054 57.8108 96.1871 55.374 93.1325C52.935 90.0756 51.0538 86.1542 49.7236 81.3683L68.2033 71.928C68.4684 73.3481 69.1992 74.699 70.3956 75.9831C71.5921 77.2694 72.9869 78.376 74.5822 79.3051C76.1775 80.2364 77.8834 80.9903 79.7 81.5666C81.5143 82.1429 83.1788 82.4288 84.6842 82.4288C87.2546 82.4288 89.4724 81.6542 91.3305 80.1004C93.1932 78.5535 94.0761 76.3588 93.9885 73.521C94.166 70.0652 93.3453 67.451 91.5287 65.6782C89.7121 63.9077 87.5174 62.6882 84.9493 62.0242C82.3788 61.358 79.6746 61.049 76.8414 61.0929C74.0035 61.1367 71.6567 61.2058 69.7963 61.2911L69.6625 44.1417L87.4759 26.9922L52.9119 27.391V6.6591L113.798 6.52539L113.134 26.9991L94.9245 45.6102Z" fill="#8DC725"/>
<g opacity="0.7">
<path d="M79.7026 81.5713C77.886 80.9949 76.18 80.2411 74.5847 79.3097C72.9894 78.3807 71.5947 77.2741 70.3982 75.9877C69.2017 74.7013 68.4687 73.3504 68.2058 71.9326L60.9717 75.6281C61.0754 75.748 61.1607 75.8701 61.2714 75.99C62.4678 77.2764 63.8649 78.383 65.4579 79.312C67.0532 80.2434 68.7591 80.9972 70.5757 81.5736C72.3923 82.1499 74.0522 82.4358 75.5599 82.4358C77.0837 82.4358 78.4692 82.1291 79.7441 81.5828C79.7302 81.5759 79.7164 81.5759 79.7026 81.5713Z" fill="#8DC725"/>
<path d="M78.3512 26.9961L52.9141 27.2912V27.3949L78.2406 27.1044L78.3512 26.9961Z" fill="#8DC725"/>
<path d="M69.7979 61.1963V61.2954C70.146 61.2793 70.531 61.2654 70.9136 61.2493C70.5471 61.2193 70.169 61.2147 69.7979 61.1963Z" fill="#8DC725"/>
<path d="M118.522 64.8202C117.593 61.4959 116.129 58.4598 114.135 55.7141C112.14 52.9662 109.57 50.6839 106.425 48.8673C103.279 47.0507 99.4472 45.9648 94.9264 45.6121L113.139 27.0011L113.803 6.52734L104.673 6.54809L104.009 27.0011L85.7972 45.6121C90.318 45.9648 94.1495 47.053 97.2963 48.8673C100.441 50.6862 103.011 52.9685 105.005 55.7141C106.999 58.4621 108.461 61.4959 109.392 64.8202C110.324 68.1422 110.789 71.4896 110.789 74.8554C110.789 78.6684 109.835 82.4331 107.931 86.1562C106.024 89.8793 103.498 93.1806 100.353 96.0599C97.2064 98.9416 93.5939 101.265 89.5181 103.038C86.9891 104.138 84.3841 104.816 81.7168 105.164C83.0954 105.274 84.4671 105.399 85.8825 105.431C90.3157 105.606 94.5691 104.809 98.6449 103.038C102.721 101.265 106.333 98.9393 109.48 96.0599C112.625 93.1783 115.149 89.8793 117.058 86.1562C118.962 82.4331 119.916 78.6684 119.916 74.8554C119.916 71.4896 119.453 68.1422 118.522 64.8202Z" fill="#8DC725"/>
</g>
<path d="M105.147 62.9406C106.5 61.1516 103.061 57.3962 101.477 59.4895C100.126 61.2784 103.563 65.0338 105.147 62.9406Z" fill="#6A9B00"/>
<path d="M113.437 78.23C113.699 78.336 113.964 78.4444 114.227 78.5527C114.778 78.6772 115.288 78.6449 115.758 78.4536C116.143 78.3153 116.457 78.0847 116.696 77.762C117.01 77.4761 117.233 77.1142 117.365 76.6716C117.531 76.2497 117.591 75.7909 117.547 75.2976C117.572 74.8503 117.496 74.3939 117.319 73.9282C117.185 73.6516 117.054 73.3726 116.92 73.096C116.59 72.5611 116.166 72.1393 115.645 71.8303C115.382 71.722 115.117 71.6159 114.854 71.5076C114.303 71.3831 113.792 71.4154 113.324 71.6067C112.939 71.745 112.625 71.9756 112.383 72.296C112.069 72.5819 111.846 72.9438 111.714 73.3888C111.548 73.8106 111.486 74.2694 111.532 74.7627C111.507 75.21 111.583 75.6664 111.761 76.1321C111.894 76.4088 112.026 76.6877 112.159 76.9643C112.491 77.4992 112.918 77.9211 113.437 78.23Z" fill="#6A9B00"/>
<path d="M100.112 71.8791C100.292 71.863 100.472 71.8469 100.651 71.8307C100.995 71.7431 101.262 71.5794 101.456 71.342C101.62 71.1576 101.714 70.9409 101.74 70.6988C101.816 70.4544 101.816 70.1916 101.742 69.9127C101.691 69.6337 101.571 69.3663 101.384 69.1104C101.248 68.8591 101.055 68.6309 100.804 68.4257C100.638 68.3128 100.474 68.1975 100.308 68.0845C99.9506 67.8863 99.5771 67.7756 99.1898 67.7549C99.01 67.771 98.8302 67.7872 98.6503 67.8033C98.3068 67.8909 98.0394 68.0546 97.8458 68.292C97.6821 68.4765 97.5876 68.6908 97.5622 68.9352C97.4862 69.1796 97.4861 69.4424 97.5599 69.7213C97.6106 70.0003 97.7282 70.2677 97.9173 70.5236C98.0533 70.7749 98.2469 71.0031 98.4982 71.206C98.6642 71.3189 98.8279 71.4342 98.9938 71.5472C99.3512 71.7477 99.7246 71.8584 100.112 71.8791Z" fill="#6A9B00"/>
<path d="M101.115 54.909C101.329 54.9113 101.544 54.9136 101.758 54.9159L102.334 54.7684C102.486 54.6738 102.636 54.5816 102.788 54.4871C102.894 54.3557 103.001 54.2266 103.107 54.0952C103.164 53.9361 103.22 53.7748 103.277 53.6157C103.337 53.3437 103.312 53.0647 103.203 52.7788C103.176 52.5806 103.093 52.3892 102.957 52.2048C102.823 51.9236 102.616 51.6654 102.339 51.4325C102.297 51.3887 102.256 51.3449 102.214 51.3034C101.988 51.089 101.721 50.9207 101.414 50.7986C101.14 50.6464 100.845 50.5542 100.525 50.5196C100.324 50.5173 100.121 50.515 99.9206 50.5127C99.5241 50.5634 99.2013 50.6971 98.9523 50.9161C98.9224 50.9507 98.8924 50.9853 98.8647 51.0199C98.7587 51.1513 98.6526 51.2827 98.5466 51.4118C98.489 51.5709 98.4336 51.7322 98.376 51.8913C98.3161 52.1656 98.3391 52.4423 98.4498 52.7281C98.4774 52.9264 98.5604 53.1177 98.6964 53.3045C98.7771 53.4958 98.9085 53.6733 99.0884 53.8324C99.2151 54.003 99.3834 54.1528 99.5886 54.275C99.7523 54.4203 99.9459 54.5355 100.167 54.6162C100.46 54.773 100.776 54.8721 101.115 54.909Z" fill="#6A9B00"/>
<path d="M112.461 57.7953C112.837 56.9331 111.018 55.679 110.578 56.6887C110.204 57.5509 112.023 58.805 112.461 57.7953Z" fill="#6A9B00"/>
<path d="M80.0667 49.7131C79.9146 48.7932 77.6576 48.5673 77.8351 49.6439C77.9873 50.5614 80.2442 50.7897 80.0667 49.7131Z" fill="#6A9B00"/>
<path d="M106.718 71.6713C106.776 71.6851 106.831 71.6989 106.889 71.7151C107.159 71.7819 107.385 71.6851 107.509 71.5076C107.576 71.4062 107.613 71.2909 107.615 71.1595C107.62 71.0281 107.59 70.8967 107.528 70.7607C107.502 70.6984 107.479 70.6362 107.454 70.5762C107.346 70.3065 107.057 70.0483 106.762 69.9722C106.453 69.8916 106.191 70.0068 106.05 70.2097C105.895 70.4333 105.886 70.7653 106.029 71.0673C106.154 71.337 106.41 71.5952 106.718 71.6713Z" fill="#6A9B00"/>
<path d="M104.653 82.1284C104.77 82.1906 104.888 82.2529 105.008 82.3174C105.261 82.4027 105.503 82.4096 105.734 82.3428C105.923 82.2967 106.082 82.2021 106.213 82.0615C106.377 81.9416 106.502 81.7803 106.589 81.5797C106.691 81.3884 106.746 81.1763 106.751 80.9411C106.787 80.7313 106.776 80.5146 106.718 80.2864C106.672 80.1504 106.624 80.0121 106.578 79.8761C106.451 79.6086 106.276 79.3896 106.047 79.2213C105.93 79.1591 105.81 79.0968 105.692 79.0323C105.441 78.947 105.199 78.9401 104.969 79.0069C104.779 79.053 104.62 79.1476 104.489 79.2882C104.325 79.4081 104.201 79.5671 104.113 79.77C104.012 79.9613 103.959 80.1734 103.952 80.4086C103.915 80.6184 103.927 80.8351 103.984 81.0633C104.03 81.1993 104.079 81.3376 104.125 81.4737C104.247 81.7411 104.424 81.9601 104.653 82.1284Z" fill="#6A9B00"/>
<path d="M85.6043 48.8185C85.7058 48.7332 85.8049 48.6479 85.9063 48.5649C86.07 48.3689 86.153 48.1569 86.153 47.9332C86.1622 47.7534 86.1138 47.5828 86.0078 47.4261C85.934 47.2462 85.8049 47.0872 85.6228 46.9512C85.4568 46.8036 85.2539 46.693 85.0142 46.6169C84.809 46.5224 84.5808 46.4647 84.3295 46.4463C84.1727 46.4463 84.0183 46.4463 83.8638 46.4463C83.5503 46.4763 83.2713 46.5662 83.027 46.7137C82.9255 46.799 82.8241 46.8843 82.725 46.9696C82.5613 47.1656 82.4806 47.3753 82.4806 47.599C82.4714 47.7788 82.5198 47.9494 82.6258 48.1061C82.6996 48.286 82.8287 48.445 83.0108 48.581C83.1768 48.7286 83.3797 48.8392 83.6217 48.9153C83.8269 49.0098 84.0552 49.0675 84.3088 49.0859C84.4632 49.0859 84.62 49.0859 84.7744 49.0859C85.081 49.0559 85.36 48.966 85.6043 48.8185Z" fill="#6A9B00"/>
<path d="M91.7845 54.7205C92.1765 54.7504 92.5269 54.6928 92.8381 54.5429C93.0156 54.4323 93.1908 54.3193 93.3683 54.2087L93.7395 53.7453C93.9032 53.4733 93.9677 53.1782 93.9377 52.8623C93.9723 52.5327 93.9055 52.1984 93.7395 51.8572C93.7256 51.818 93.7187 51.7742 93.6957 51.735C93.4951 51.2809 93.1816 50.8636 92.7528 50.4855L92.0981 50.0199C91.637 49.7501 91.139 49.5818 90.6042 49.5081C90.1939 49.4458 89.825 49.4758 89.4977 49.598C89.1334 49.6602 88.8406 49.8032 88.617 50.0268C88.3634 50.2389 88.2066 50.4901 88.1421 50.7829C88.0084 51.0711 87.9738 51.3823 88.0384 51.7166C88.1098 52.1869 88.3104 52.641 88.6401 53.079C88.8222 53.3188 89.0527 53.5378 89.2832 53.7545C89.5 53.909 89.7143 54.0611 89.931 54.2156C90.2699 54.4277 90.6342 54.566 91.0284 54.6328C91.282 54.7205 91.5333 54.7481 91.7845 54.7205Z" fill="#6A9B00"/>
<path d="M113.183 67.6296L113.485 67.7702C113.651 67.8324 113.808 67.8509 113.958 67.8278C114.066 67.8347 114.16 67.8163 114.239 67.7725C114.382 67.7333 114.492 67.6641 114.573 67.5604C114.601 67.5281 114.631 67.4959 114.658 67.4636C114.714 67.376 114.769 67.2884 114.824 67.2008C114.898 67.0463 114.921 66.8803 114.896 66.7005C114.907 66.5806 114.884 66.4585 114.829 66.3317C114.806 66.2095 114.755 66.0896 114.67 65.9743C114.587 65.8037 114.465 65.647 114.301 65.5063C114.195 65.4257 114.087 65.3473 113.981 65.2666C113.861 65.2113 113.743 65.1559 113.623 65.1006C113.427 65.0291 113.243 65.0061 113.065 65.0314C112.936 65.0222 112.826 65.0453 112.731 65.0983C112.616 65.1237 112.524 65.1744 112.457 65.2504C112.318 65.3404 112.222 65.4602 112.169 65.6101C112.141 65.7161 112.116 65.8222 112.088 65.9305C112.093 66.0527 112.099 66.1726 112.104 66.2948L112.222 66.6659C112.293 66.8434 112.404 67.0071 112.556 67.157C112.676 67.3091 112.828 67.4382 113.01 67.5443C113.07 67.5742 113.128 67.6019 113.183 67.6296Z" fill="#6A9B00"/>
<path d="M112.443 85.3601L112.591 85.6414C112.68 85.782 112.793 85.8857 112.927 85.9526C113.008 86.0194 113.095 86.0563 113.188 86.0655C113.326 86.114 113.46 86.1209 113.591 86.084C113.635 86.0748 113.679 86.0656 113.722 86.0563C113.824 86.0171 113.925 85.978 114.027 85.9411C114.186 85.8604 114.315 85.7405 114.414 85.5814C114.502 85.4915 114.564 85.3832 114.603 85.2518C114.665 85.1434 114.702 85.0189 114.711 84.8806C114.758 84.6985 114.762 84.5048 114.728 84.302C114.695 84.1798 114.663 84.0553 114.631 83.9331C114.573 83.8225 114.513 83.7118 114.456 83.6011C114.347 83.4328 114.216 83.3107 114.057 83.2323C113.96 83.1539 113.858 83.1078 113.748 83.0986C113.639 83.0548 113.533 83.0432 113.43 83.0663C113.261 83.0617 113.107 83.1032 112.966 83.1908C112.874 83.26 112.784 83.3314 112.692 83.4006C112.616 83.4997 112.542 83.5988 112.466 83.7003L112.314 84.0622C112.254 84.2443 112.235 84.4357 112.256 84.6408C112.252 84.8299 112.286 85.0166 112.362 85.2034C112.39 85.2541 112.415 85.3071 112.443 85.3601Z" fill="#6A9B00"/>
<path d="M95.3399 60.7256C95.831 59.5983 93.4518 57.9569 92.8778 59.2779C92.3868 60.4052 94.7659 62.0443 95.3399 60.7256Z" fill="#6A9B00"/>
</svg>
