<svg width="278" height="120" viewBox="0 0 278 120" fill="none" xmlns="http://www.w3.org/2000/svg">
<path d="M16.0893 49.2993H23.8108V108.805C23.8108 111.853 26.0651 114.381 28.9918 114.816C29.4268 117.745 31.9557 120 35.0033 120H64.3839C67.7339 120 70.4629 117.273 70.4629 113.921V17.1945C70.4629 14.1631 68.2527 11.625 65.2796 11.1806C64.8817 8.475 62.7042 6.33003 59.9055 6.03457L40.8729 4.02453C40.6565 4.00126 40.4355 3.9873 40.2168 3.9873H10.9712C7.62112 3.9873 4.89453 6.71389 4.89453 10.064V38.1022C4.89453 41.1498 7.14885 43.6787 10.0778 44.116C10.5106 47.045 13.0417 49.2993 16.0893 49.2993Z" fill="black"/>
<path d="M12.1011 45.3144H19.8225V104.82C19.8225 107.868 22.0768 110.396 25.0035 110.832C25.4385 113.76 27.9674 116.015 31.015 116.015H60.3956C63.7457 116.015 66.4723 113.288 66.4723 109.938V13.2095C66.4723 10.1782 64.2621 7.64002 61.289 7.19567C60.8911 4.4877 58.7136 2.34272 55.9149 2.04959L36.8823 0.0372236C36.6659 0.0139593 36.4449 0 36.2262 0H6.98291C3.63284 0 0.90625 2.72659 0.90625 6.07666V34.1149C0.90625 37.1625 3.16057 39.6914 6.08955 40.1287C6.52227 43.0577 9.05344 45.3144 12.1011 45.3144Z" fill="black"/>
<path d="M8.78613 39.2352C8.78613 41.0661 10.2704 42.5504 12.1013 42.5504H22.5866V104.818C22.5866 106.648 24.0708 108.133 25.9017 108.133H27.7024V109.936C27.7024 111.767 29.1867 113.251 31.0176 113.251H60.3982C62.2291 113.251 63.7133 111.767 63.7133 109.936V13.2094C63.7133 11.5134 62.4315 10.0896 60.7471 9.91049L58.5975 9.68482V8.09354C58.5975 6.39757 57.318 4.97611 55.6313 4.79698L36.5801 2.78228C36.4638 2.76832 36.3474 2.76367 36.2311 2.76367H6.98314C5.15224 2.76367 3.66797 4.24794 3.66797 6.07885V34.1171C3.66797 35.948 5.15224 37.4323 6.98314 37.4323H8.78613V39.2352Z" fill="white"/>
<path d="M31.0178 109.936V39.2355H12.1016V11.1973H41.3472L60.3984 13.2096V109.936H31.0178Z" fill="#DB5959"/>
<path d="M25.8987 104.82V34.1193H6.98242V6.08105H36.2281L55.2793 8.09342V104.82H25.8987Z" fill="#F48989"/>
<path opacity="0.7" d="M36.2303 6.08105H27.0176L46.0688 8.09342V104.82H55.2791V8.09342L36.2303 6.08105Z" fill="#F48989"/>
<path d="M40.9343 42.2844C38.0263 43.7826 39.6059 50.9853 43.0095 49.2334C45.9176 47.7375 44.3379 40.5326 40.9343 42.2844Z" fill="#D35959"/>
<path d="M38.0884 23.9192C37.644 24.3356 37.3207 24.873 37.1183 25.5314C36.8717 26.1595 36.7693 26.8435 36.8112 27.5833C36.76 28.2533 36.8461 28.9396 37.0717 29.6445C37.2439 30.0656 37.4184 30.4867 37.5905 30.9055C38.0256 31.7197 38.5955 32.3665 39.3051 32.8504C39.6657 33.0202 40.024 33.19 40.3846 33.3622C41.143 33.5692 41.8502 33.539 42.5063 33.2714C43.046 33.0783 43.488 32.7433 43.8347 32.2711C44.279 31.8546 44.6024 31.3172 44.8048 30.6589C45.0514 30.0307 45.1538 29.3467 45.1119 28.6046C45.1654 27.9346 45.077 27.2483 44.8513 26.5434C44.6792 26.1223 44.5047 25.7012 44.3325 25.2801C43.8975 24.4659 43.3275 23.8191 42.6203 23.3376C42.2597 23.1677 41.8991 22.9956 41.5385 22.8257C40.7801 22.6187 40.0728 22.6489 39.4168 22.9188C38.877 23.1119 38.435 23.4469 38.0884 23.9192Z" fill="#D35959"/>
<path d="M53.7809 51.7767C53.6715 51.5115 53.5645 51.2486 53.4552 50.9858C53.183 50.4763 52.8247 50.0691 52.3804 49.7667C52.1547 49.6597 51.929 49.5527 51.7034 49.4457C51.2288 49.3154 50.7844 49.334 50.3726 49.5038C50.0353 49.6248 49.7561 49.8342 49.5398 50.132C49.2606 50.3925 49.0582 50.7298 48.9326 51.144C48.7767 51.5371 48.7139 51.9675 48.7395 52.4328C48.7069 52.8516 48.7627 53.2843 48.9047 53.7263C49.0117 53.9915 49.121 54.2544 49.2304 54.5196C49.5026 55.0291 49.8608 55.4362 50.3052 55.7387C50.5308 55.8457 50.7565 55.9527 50.9845 56.0597C51.4591 56.19 51.9034 56.1714 52.3152 56.0016C52.6526 55.8806 52.9317 55.6712 53.1481 55.3734C53.4273 55.1129 53.6297 54.7755 53.7553 54.3614C53.9112 53.9683 53.974 53.5379 53.9484 53.0726C53.9763 52.6492 53.9228 52.2164 53.7809 51.7767Z" fill="#D35959"/>
<path d="M41.7396 70.6022C41.8419 70.3114 41.8768 69.9927 41.8466 69.6484C41.8815 69.3366 41.8512 69.0202 41.7582 68.6922C41.7302 68.3781 41.6395 68.0757 41.486 67.7826C41.3394 67.3359 41.1044 66.9381 40.7857 66.5868C40.5624 66.389 40.3414 66.1936 40.118 65.9959L39.3689 65.6399C39.1177 65.6097 38.8664 65.5771 38.6175 65.5469C38.3778 65.5981 38.1382 65.6516 37.8986 65.7027C37.6822 65.833 37.4659 65.9633 37.2495 66.0913C36.9192 66.3472 36.6702 66.6845 36.5051 67.1056C36.3399 67.3568 36.2375 67.6476 36.2003 67.9826C36.0654 68.4247 36.0281 68.9016 36.0886 69.4204C36.091 69.5088 36.091 69.5949 36.0933 69.681C36.1189 70.1276 36.2329 70.5627 36.4353 70.9791C36.5749 71.3979 36.7935 71.7724 37.0937 72.1004C37.303 72.2866 37.5124 72.4704 37.7195 72.6541C38.1824 72.9566 38.6524 73.0962 39.1293 73.0729C39.1944 73.0589 39.2596 73.0473 39.3247 73.0333C39.5643 72.9822 39.804 72.9287 40.0436 72.8775C40.2599 72.7472 40.4763 72.6192 40.6927 72.489C41.023 72.2331 41.2719 71.8957 41.4348 71.4746C41.6 71.228 41.7 70.9349 41.7396 70.6022Z" fill="#D35959"/>
<path d="M37.601 57.1852C38.841 56.5478 38.1663 53.4769 36.7169 54.2237C35.477 54.8634 36.1493 57.932 37.601 57.1852Z" fill="#D35959"/>
<path d="M38.7867 88.502C37.5467 89.1394 38.2213 92.2103 39.6707 91.4635C40.9107 90.8261 40.2384 87.7552 38.7867 88.502Z" fill="#D35959"/>
<path d="M48.4722 40.163C48.8421 40.4096 49.2423 40.3561 49.5191 40.1281C49.8262 39.8745 49.9914 39.4046 49.9425 38.9137C49.9006 38.4763 49.682 37.9994 49.3121 37.7575C49.2446 37.7132 49.1748 37.669 49.1073 37.6248C48.784 37.4131 48.4396 37.455 48.1954 37.6551C48.0604 37.7714 47.9604 37.9203 47.8953 38.1064C47.8301 38.2925 47.8068 38.4949 47.8278 38.7113C47.8324 38.8113 47.8348 38.909 47.8394 39.0068C47.858 39.4371 48.1209 39.928 48.4722 40.163Z" fill="#D35959"/>
<path d="M35.6022 15.5868C35.8092 15.9707 36.0791 16.2778 36.4118 16.5058C36.5839 16.5872 36.7538 16.6663 36.9236 16.7477C37.2819 16.8454 37.6169 16.8315 37.9263 16.7035C38.1822 16.6128 38.3916 16.4546 38.5544 16.2313C38.7638 16.0335 38.9174 15.7799 39.0127 15.4682C39.1291 15.1704 39.1779 14.847 39.1593 14.4957C39.1826 14.1793 39.143 13.8536 39.036 13.521C38.9546 13.3232 38.8732 13.1231 38.7917 12.9231C38.5847 12.5392 38.3148 12.2321 37.9798 12.0041C37.81 11.9227 37.6378 11.8436 37.468 11.7622C37.1097 11.6645 36.7747 11.6784 36.463 11.8064C36.2071 11.8971 35.9977 12.0553 35.8348 12.2786C35.6231 12.4764 35.4719 12.73 35.3765 13.0417C35.2602 13.3395 35.2113 13.6629 35.23 14.0142C35.2044 14.3306 35.2462 14.6563 35.3533 14.9889C35.4393 15.189 35.5208 15.3891 35.6022 15.5868Z" fill="#D35959"/>
<path d="M46.96 79.0218C46.7832 78.6914 46.5505 78.4262 46.262 78.2308C45.8852 77.8376 45.4617 77.5841 44.9895 77.4677C44.694 77.4305 44.4009 77.3956 44.1054 77.3584L43.2609 77.5422C42.8212 77.7004 42.463 77.9726 42.1791 78.3564C41.8162 78.6961 41.5533 79.1335 41.3905 79.6686C41.3649 79.7244 41.3323 79.7825 41.316 79.8454C41.0718 80.5386 40.988 81.2947 41.0601 82.1136L41.2788 83.2373C41.4905 83.9608 41.8395 84.6076 42.3257 85.1799C42.691 85.6242 43.1027 85.929 43.5634 86.0918C44.0054 86.3524 44.4521 86.4617 44.9034 86.4129C45.3757 86.4059 45.7898 86.2663 46.1434 85.9965C46.5691 85.7964 46.9111 85.4777 47.1763 85.0426C47.5695 84.447 47.8114 83.7538 47.9022 82.9581C47.951 82.5231 47.9278 82.0648 47.9022 81.6088C47.8301 81.2389 47.7579 80.869 47.6858 80.4991C47.5462 79.9454 47.3043 79.4545 46.96 79.0218Z" fill="#D35959"/>
<path d="M36.4628 40.7333C36.5442 40.5705 36.6233 40.4076 36.7047 40.2425L36.8304 39.6748C36.8722 39.3933 36.8536 39.1048 36.7792 38.807C36.7443 38.5255 36.6535 38.2557 36.507 37.9951C36.4581 37.9207 36.4093 37.8462 36.3604 37.7718L36.0952 37.3856C35.9393 37.1948 35.7625 37.0645 35.5648 36.9947C35.4391 36.9133 35.3112 36.8738 35.1809 36.8808C34.9808 36.8365 34.7947 36.8552 34.6226 36.9366C34.5644 36.9599 34.5086 36.9831 34.4504 37.0064C34.3201 37.0855 34.1898 37.1622 34.0596 37.2413C33.8595 37.3949 33.7106 37.5996 33.6129 37.8532C33.5129 38.0044 33.4524 38.1789 33.4291 38.3813C33.3663 38.5558 33.3453 38.7489 33.364 38.9559C33.343 39.2351 33.3779 39.5236 33.4733 39.8167C33.5454 39.9912 33.6175 40.168 33.6897 40.3448C33.7944 40.4984 33.899 40.6496 34.0037 40.8008C34.1875 41.0265 34.3969 41.18 34.6319 41.2638C34.7808 41.3615 34.932 41.4057 35.0855 41.3987C35.2437 41.4429 35.3926 41.4359 35.5275 41.3801C35.7602 41.3545 35.9626 41.2591 36.1347 41.0986C36.2441 40.9776 36.3534 40.8543 36.4628 40.7333Z" fill="#D35959"/>
<path d="M43.7104 19.2091C43.8151 19.3626 43.9198 19.5138 44.0245 19.6651C44.2083 19.8907 44.4176 20.0443 44.6526 20.128C44.8015 20.2257 44.9527 20.2699 45.1063 20.263C45.2645 20.3048 45.4133 20.3002 45.5506 20.2443C45.7833 20.2187 45.9857 20.1234 46.1578 19.9628C46.2672 19.8395 46.3765 19.7186 46.4858 19.5953C46.5673 19.4324 46.6464 19.2696 46.7278 19.1067L46.8534 18.5391C46.8953 18.2576 46.8767 17.9691 46.8022 17.6713C46.7673 17.3921 46.6766 17.1199 46.53 16.8594C46.4812 16.7849 46.4323 16.7105 46.3835 16.636L46.1183 16.2498C45.9624 16.0591 45.7856 15.9288 45.5878 15.859C45.4622 15.7776 45.3343 15.738 45.2063 15.745C45.0062 15.7008 44.8201 15.7194 44.648 15.8008C44.5921 15.8241 44.534 15.8474 44.4758 15.8706C44.3455 15.9497 44.2152 16.0265 44.085 16.1056C43.8849 16.2592 43.736 16.4639 43.6383 16.7175C43.5382 16.8687 43.4778 17.0432 43.4545 17.2456C43.3917 17.42 43.3707 17.6131 43.3894 17.8202C43.3684 18.0994 43.4033 18.3855 43.4987 18.681C43.5685 18.8578 43.6406 19.0346 43.7104 19.2091Z" fill="#D35959"/>
<path d="M47.1659 61.4198C45.5443 62.255 46.4261 66.2704 48.3221 65.2933C49.9436 64.4581 49.0619 60.4427 47.1659 61.4198Z" fill="#D35959"/>
<path d="M89.3226 49.1875L89.5627 49.2336C89.9412 51.7151 91.8617 53.781 94.3986 54.2634L116.099 58.393C117.74 58.6977 119.455 58.3145 120.796 57.3243C122.142 56.334 123.024 54.8128 123.213 53.1508C123.449 51.0964 123.998 49.4506 124.85 48.2641C125.711 47.0638 126.641 46.2444 127.694 45.7527C128.483 45.3834 129.3 45.2241 130.171 45.2333C130.025 46.0412 129.711 47.1515 129.081 48.6542C128.218 50.7133 126.309 53.3724 123.557 56.3455C120.547 59.6003 116.201 63.3282 110.633 67.4301C104.959 71.6104 97.4617 76.2548 88.3531 81.2361C86.3449 82.3349 85.1168 84.5231 85.223 86.8153L86.2918 109.271C86.4695 112.135 88.6486 114.441 91.4209 114.857C91.8525 117.784 94.3663 120 97.3994 120L170.478 119.868C172.198 119.863 173.837 119.125 174.977 117.837C176.118 116.551 176.658 114.834 176.455 113.125L173.659 89.5645C173.334 86.8291 171.21 84.7032 168.558 84.3085C168.119 81.3654 165.587 79.1678 162.593 79.1678H157.716C158.992 77.7713 160.239 76.3517 161.441 74.9205C164.525 71.2503 167.164 67.2154 169.285 62.9289C171.614 58.2176 172.74 52.8069 172.634 46.7937C172.429 41.2215 171.36 36.0462 169.456 31.4065C167.503 26.6606 164.774 22.5726 161.349 19.2486C160.613 18.5354 159.83 17.8521 158.969 17.1688C158.046 16.0124 157.185 15.0544 156.275 14.1727C154.553 12.506 152.64 11.0172 150.592 9.74531C148.565 8.48266 146.345 7.40006 143.997 6.52983C139.395 4.82167 134.323 3.95605 128.922 3.95605C127.851 3.95605 126.796 4.00222 125.799 4.06224C121.302 4.3023 116.969 5.0502 112.925 6.27822C107.708 7.86403 102.995 10.2924 98.9113 13.4917C94.7448 16.7649 91.3308 20.9175 88.7663 25.8343C86.1948 30.7648 84.736 36.531 84.429 42.9781C84.2835 45.9604 86.3887 48.6289 89.3226 49.1875Z" fill="black"/>
<path d="M85.3657 45.2314L85.6058 45.2776C85.9843 47.759 87.9025 49.8273 90.4417 50.3074L112.142 54.437C113.783 54.7417 115.498 54.3585 116.84 53.3682C118.185 52.3779 119.067 50.8568 119.256 49.1948C119.492 47.1404 120.041 45.4946 120.893 44.3081C121.754 43.1078 122.684 42.2883 123.737 41.7966C124.526 41.4273 125.343 41.268 126.214 41.2773C126.068 42.0852 125.754 43.1955 125.124 44.6982C124.261 46.7572 122.352 49.4164 119.6 52.3872C116.593 55.6419 112.244 59.3698 106.676 63.4717C101.002 67.6521 93.5048 72.2964 84.3962 77.2777C82.388 78.3765 81.1599 80.5648 81.2661 82.8569L82.3349 105.312C82.5126 108.177 84.6917 110.481 87.464 110.898C87.8956 113.825 90.4094 116.041 93.4425 116.041L166.524 115.907C168.243 115.903 169.882 115.164 171.023 113.878C172.165 112.593 172.703 110.875 172.5 109.167L169.705 85.6061C169.379 82.8708 167.255 80.7448 164.603 80.3501C164.165 77.407 161.632 75.2095 158.639 75.2095H153.759C155.035 73.813 156.282 72.3933 157.484 70.9622C160.568 67.292 163.207 63.257 165.328 58.9705C167.657 54.2592 168.784 48.8485 168.675 42.8354C168.47 37.2631 167.401 32.0879 165.497 27.4482C163.544 22.7023 160.815 18.6142 157.39 15.2903C156.653 14.577 155.871 13.8937 155.01 13.2105C154.087 12.054 153.226 11.0961 152.316 10.2143C150.594 8.54769 148.68 7.05882 146.633 5.78694C144.606 4.52429 142.386 3.4417 140.038 2.57377C135.435 0.865617 130.362 0 124.963 0C123.891 0 122.837 0.0461663 121.839 0.106182C117.343 0.346247 113.01 1.09414 108.966 2.32216C103.749 3.90797 99.0355 6.33632 94.9521 9.53564C90.7856 12.8065 87.3716 16.9592 84.8071 21.8759C82.2356 26.8064 80.7791 32.5726 80.4698 39.0197C80.3267 42.0044 82.4318 44.6751 85.3657 45.2314Z" fill="black"/>
<path d="M168.971 112.059C169.594 111.358 169.887 110.42 169.776 109.49L166.981 85.9292C166.785 84.2741 165.381 83.0276 163.714 83.0276H162.161L161.902 80.8509C161.706 79.1958 160.303 77.9494 158.636 77.9494H147.335C150.165 75.1332 152.865 72.1924 155.384 69.1962C158.327 65.6945 160.845 61.8466 162.87 57.7539C165.003 53.4397 166.034 48.4745 165.935 42.9345C165.744 37.6854 164.742 32.8264 162.962 28.4914C161.155 24.0987 158.639 20.3223 155.483 17.2615C154.749 16.5528 153.953 15.8626 153.059 15.1678C152.134 13.9929 151.284 13.0396 150.407 12.1878C148.826 10.6574 147.065 9.28626 145.181 8.11594C143.304 6.94563 141.25 5.94843 139.08 5.14514C134.78 3.5501 130.029 2.74219 124.958 2.74219C123.945 2.74219 122.945 2.78605 121.98 2.84606C117.705 3.07458 113.594 3.78093 109.758 4.94894C104.866 6.4378 100.453 8.70687 96.6395 11.6938C92.7823 14.7223 89.6176 18.5749 87.2331 23.1477C84.8464 27.7228 83.4914 33.1081 83.2028 39.1535C83.1267 40.7924 84.2647 42.2351 85.8735 42.5421L88.3527 43.013C88.3227 43.417 88.2996 43.8279 88.2811 44.2341C88.2049 45.8707 89.3429 47.3134 90.9518 47.6204L112.648 51.7477C113.546 51.9162 114.476 51.7061 115.212 51.166C115.949 50.6235 116.426 49.7995 116.53 48.89C116.819 46.367 117.537 44.2872 118.663 42.713C119.806 41.1248 121.085 40.0122 122.576 39.3174C124.018 38.6457 125.53 38.4149 127.185 38.6041C127.779 38.6757 128.372 38.805 128.972 39.0012C129.021 39.3313 129.048 39.6821 129.057 40.0515C129.09 41.5288 128.614 43.4493 127.647 45.7599C126.645 48.1467 124.614 51.0021 121.609 54.2499C118.483 57.6293 114.007 61.4749 108.297 65.6807C102.526 69.9326 94.9267 74.6439 85.7073 79.6829C84.604 80.2877 83.9415 81.4695 83.9992 82.7253L85.0679 105.141C85.1764 106.875 86.6145 108.225 88.3504 108.225H88.3573L90.047 108.221L90.1393 110.166C90.2224 111.921 91.6697 113.299 93.4263 113.299H93.4333L166.512 113.165C167.454 113.163 168.347 112.761 168.971 112.059Z" fill="white"/>
<path d="M166.51 109.875L93.4312 110.009L92.367 87.6439C101.771 82.501 109.425 77.7505 115.328 73.4016C121.228 69.0527 125.821 65.1055 129.104 61.553C132.386 58.0075 134.605 54.8543 135.759 52.1028C136.911 49.3513 137.467 47.0014 137.423 45.0486C137.377 43.0958 136.957 41.5215 136.158 40.3212C135.359 39.1232 134.648 38.3037 134.03 37.8605C131.987 36.4409 129.838 35.5961 127.573 35.3306C125.311 35.0628 123.181 35.3952 121.184 36.3278C119.187 37.2603 117.458 38.7469 115.993 40.7851C114.529 42.828 113.617 45.4018 113.264 48.5065L91.5684 44.3792C91.8338 38.7885 93.0526 33.911 95.227 29.7376C97.4015 25.5664 100.241 22.1063 103.747 19.3548C107.251 16.6056 111.268 14.5419 115.794 13.1639C120.318 11.7904 125.067 11.1025 130.036 11.1025C134.738 11.1025 139.064 11.8343 143.014 13.3001C146.961 14.7635 150.356 16.8733 153.196 19.6225C156.035 22.374 158.274 25.7465 159.918 29.7399C161.559 33.7332 162.466 38.1698 162.646 43.0519C162.734 48.0217 161.824 52.4352 159.918 56.2947C158.009 60.1542 155.659 63.7506 152.861 67.0768C150.066 70.4054 147.072 73.6232 143.877 76.7279C140.682 79.8326 137.841 83.0273 135.357 86.312H163.71L166.51 109.875Z" fill="#FF6A09"/>
<path d="M161.435 104.799L88.3557 104.933L87.2916 82.5674C96.698 77.4245 104.352 72.674 110.252 68.3251C116.152 63.9762 120.746 60.029 124.028 56.4765C127.311 52.9286 129.529 49.7778 130.683 47.0263C131.835 44.2748 132.391 41.9249 132.348 39.9721C132.301 38.0192 131.881 36.445 131.083 35.247C130.284 34.0489 129.573 33.2295 128.952 32.784C126.909 31.3644 124.76 30.5195 122.496 30.2541C120.231 29.9863 118.103 30.3187 116.106 31.2513C114.11 32.1838 112.381 33.6704 110.915 35.7086C109.449 37.7538 108.54 40.3252 108.184 43.4299L86.4883 39.3027C86.7537 33.7119 87.9725 28.8345 90.147 24.661C92.3214 20.4899 95.1583 17.0297 98.6669 14.2782C102.171 11.529 106.187 9.4654 110.714 8.08964C115.238 6.7162 119.987 6.02832 124.956 6.02832C129.658 6.02832 133.984 6.76006 137.934 8.22584C141.881 9.68931 145.274 11.7991 148.116 14.5483C150.955 17.2998 153.196 20.6723 154.84 24.6656C156.481 28.659 157.388 33.0956 157.568 37.9777C157.656 42.9475 156.746 47.361 154.84 51.2205C152.931 55.08 150.579 58.6763 147.786 62.0026C144.99 65.3312 141.996 68.549 138.802 71.6537C135.607 74.7584 132.765 77.9531 130.282 81.2378H158.639L161.435 104.799Z" fill="#FFB31A"/>
<g opacity="0.7">
<path d="M128.801 8.22584C132.748 9.68931 136.141 11.7991 138.983 14.5483C141.822 17.2998 144.063 20.6723 145.704 24.6656C147.346 28.659 148.255 33.0956 148.433 37.9777C148.521 42.9475 147.611 47.361 145.704 51.2205C143.796 55.08 141.446 58.6763 138.65 62.0026C135.855 65.3312 132.861 68.549 129.666 71.6537C126.472 74.7584 123.63 77.9531 121.146 81.2378H130.287C132.771 77.9531 135.613 74.7584 138.807 71.6537C142.002 68.549 144.996 65.3312 147.791 62.0026C150.587 58.6763 152.936 55.08 154.845 51.2205C156.752 47.361 157.662 42.9475 157.574 37.9777C157.396 33.0956 156.487 28.659 154.845 24.6656C153.202 20.6723 150.963 17.2998 148.121 14.5483C145.28 11.7991 141.887 9.68931 137.939 8.22584C133.99 6.76006 129.664 6.02832 124.962 6.02832C123.337 6.02832 121.747 6.12989 120.17 6.27531C123.217 6.59386 126.102 7.22634 128.801 8.22584Z" fill="#FFB31A"/>
<path d="M106.971 31.2529C104.974 32.1855 103.245 33.672 101.779 35.7103C100.593 37.3676 99.7871 39.392 99.3301 41.7465L108.189 43.4316C108.545 40.3269 109.454 37.7554 110.918 35.7103C112.384 33.672 114.113 32.1855 116.109 31.2529C116.271 31.179 116.437 31.1306 116.599 31.0636C115.544 30.6574 114.466 30.3827 113.358 30.2534C111.096 29.988 108.967 30.3204 106.971 31.2529Z" fill="#FFB31A"/>
<path d="M158.639 81.2383H149.498L152.294 104.799L88.3535 104.915L88.3558 104.933L161.435 104.799L158.639 81.2383Z" fill="#FFB31A"/>
</g>
<path d="M143.464 25.7471C144.818 23.8058 141.374 19.7317 139.789 22.003C138.436 23.942 141.88 28.0185 143.464 25.7471Z" fill="#DB6800"/>
<path d="M151.765 42.334C152.028 42.4494 152.293 42.5672 152.557 42.6826C153.108 42.8188 153.618 42.7818 154.089 42.5741C154.475 42.424 154.789 42.1747 155.029 41.8262C155.343 41.5169 155.567 41.1221 155.698 40.642C155.864 40.1827 155.924 39.6864 155.881 39.1509C155.904 38.6661 155.83 38.1698 155.652 37.6666C155.52 37.3665 155.387 37.0641 155.253 36.7641C154.923 36.1847 154.498 35.7276 153.976 35.3929C153.713 35.2775 153.448 35.1598 153.184 35.0444C152.633 34.9082 152.12 34.9451 151.652 35.1528C151.266 35.3029 150.952 35.5522 150.712 35.9007C150.398 36.2101 150.174 36.6048 150.043 37.0849C149.877 37.5443 149.814 38.0405 149.86 38.5761C149.835 39.0608 149.911 39.5571 150.089 40.0603C150.223 40.3627 150.357 40.6628 150.488 40.9629C150.821 41.54 151.245 41.997 151.765 42.334Z" fill="#DB6800"/>
<path d="M138.423 35.4436C138.603 35.4251 138.783 35.409 138.963 35.3905C139.307 35.2959 139.575 35.1181 139.769 34.8619C139.933 34.6611 140.029 34.4279 140.053 34.1625C140.129 33.897 140.131 33.6131 140.055 33.3084C140.004 33.006 139.886 32.7152 139.697 32.4382C139.561 32.1658 139.367 31.9188 139.115 31.6972C138.952 31.5726 138.785 31.4502 138.619 31.3256C138.261 31.1109 137.887 30.9909 137.5 30.9678C137.32 30.9839 137.139 31.0024 136.959 31.0209C136.616 31.1155 136.348 31.2932 136.154 31.5495C135.99 31.7503 135.895 31.9834 135.87 32.2489C135.794 32.5143 135.794 32.7983 135.868 33.103C135.918 33.4054 136.036 33.6962 136.225 33.9732C136.362 34.2456 136.555 34.4926 136.807 34.7142C136.973 34.8365 137.137 34.9612 137.303 35.0858C137.661 35.3005 138.035 35.4205 138.423 35.4436Z" fill="#DB6800"/>
<path d="M139.429 17.0333C139.644 17.0356 139.858 17.0379 140.073 17.0402L140.65 16.8809C140.802 16.7794 140.952 16.6778 141.105 16.5762C141.211 16.4354 141.317 16.2923 141.423 16.1515C141.481 15.9784 141.536 15.8052 141.594 15.6321C141.654 15.3367 141.629 15.0343 141.52 14.725C141.493 14.5103 141.409 14.3025 141.273 14.1017C141.139 13.797 140.932 13.5177 140.655 13.2638C140.613 13.2153 140.571 13.1692 140.53 13.123C140.304 12.8898 140.038 12.7075 139.729 12.5759C139.454 12.412 139.159 12.3105 138.838 12.2735C138.637 12.2712 138.434 12.2689 138.233 12.2666C137.836 12.3197 137.513 12.4674 137.264 12.7029C137.234 12.7398 137.204 12.779 137.176 12.816C137.07 12.9568 136.964 13.0999 136.857 13.2407C136.802 13.4138 136.744 13.587 136.687 13.7601C136.627 14.0555 136.65 14.3579 136.76 14.6672C136.788 14.8819 136.871 15.0897 137.007 15.2905C137.091 15.4982 137.22 15.6898 137.4 15.863C137.527 16.0499 137.695 16.2092 137.901 16.3431C138.065 16.5024 138.259 16.6247 138.48 16.7124C138.771 16.8855 139.087 16.994 139.429 17.0333Z" fill="#DB6800"/>
<path d="M150.79 20.1654C151.167 19.2305 149.345 17.8686 148.904 18.9651C148.528 19.8999 150.349 21.2619 150.79 20.1654Z" fill="#DB6800"/>
<path d="M118.354 11.3956C118.201 10.3984 115.942 10.1537 116.119 11.3194C116.269 12.3166 118.532 12.5636 118.354 11.3956Z" fill="#DB6800"/>
<path d="M145.038 35.2197C145.096 35.2359 145.151 35.2497 145.209 35.2659C145.479 35.3397 145.705 35.2335 145.83 35.042C145.897 34.9335 145.933 34.8065 145.936 34.6657C145.94 34.5249 145.91 34.3795 145.848 34.234C145.823 34.1671 145.797 34.1002 145.774 34.0332C145.666 33.7401 145.377 33.4608 145.082 33.3777C144.772 33.2899 144.509 33.4169 144.368 33.6339C144.214 33.8786 144.205 34.2364 144.348 34.5641C144.472 34.855 144.729 35.1343 145.038 35.2197Z" fill="#DB6800"/>
<path d="M142.97 46.5625C143.088 46.6317 143.206 46.6987 143.323 46.7679C143.577 46.8603 143.82 46.8695 144.05 46.7956C144.24 46.7449 144.401 46.6433 144.531 46.4909C144.694 46.3617 144.819 46.1862 144.907 45.9693C145.008 45.7615 145.064 45.5307 145.068 45.2768C145.105 45.0506 145.094 44.8128 145.036 44.5658C144.988 44.4181 144.941 44.268 144.893 44.1203C144.766 43.8294 144.591 43.594 144.362 43.4093C144.244 43.3401 144.124 43.2731 144.007 43.2039C143.755 43.1116 143.513 43.1023 143.279 43.1762C143.09 43.227 142.931 43.3285 142.799 43.4809C142.635 43.6102 142.511 43.7856 142.423 44.0026C142.321 44.2103 142.268 44.4412 142.261 44.6951C142.225 44.9213 142.236 45.159 142.294 45.406C142.34 45.5538 142.388 45.7038 142.435 45.8515C142.566 46.1424 142.742 46.3778 142.97 46.5625Z" fill="#DB6800"/>
<path d="M123.897 10.4236C123.998 10.3313 124.098 10.239 124.199 10.149C124.363 9.93428 124.446 9.70807 124.446 9.4657C124.455 9.26949 124.407 9.08713 124.301 8.91632C124.227 8.72242 124.098 8.54929 123.915 8.40156C123.749 8.24229 123.546 8.11995 123.306 8.03916C123.1 7.93528 122.872 7.87527 122.618 7.85449C122.463 7.85449 122.306 7.85449 122.152 7.85449C121.838 7.88681 121.558 7.98376 121.314 8.14534C121.212 8.23767 121.113 8.33001 121.011 8.42234C120.848 8.63701 120.767 8.86322 120.767 9.1056C120.757 9.3018 120.806 9.48416 120.912 9.65498C120.986 9.84887 121.115 10.022 121.298 10.1697C121.464 10.329 121.669 10.4513 121.909 10.5344C122.115 10.6383 122.343 10.6983 122.595 10.7191C122.75 10.7191 122.907 10.7191 123.061 10.7191C123.373 10.6822 123.652 10.5852 123.897 10.4236Z" fill="#DB6800"/>
<path d="M128.468 17.0473C128.861 17.0819 129.211 17.0173 129.523 16.8534C129.701 16.7333 129.878 16.611 130.054 16.491L130.426 15.9878C130.589 15.6923 130.654 15.3737 130.624 15.0298C130.659 14.672 130.594 14.3096 130.426 13.9403C130.412 13.8964 130.405 13.8503 130.382 13.8087C130.181 13.3147 129.867 12.8646 129.438 12.4537L128.782 11.9482C128.32 11.6574 127.822 11.4727 127.286 11.3942C126.875 11.3273 126.506 11.3596 126.178 11.4912C125.814 11.5604 125.52 11.7151 125.296 11.9574C125.045 12.186 124.886 12.4607 124.821 12.7769C124.687 13.0885 124.652 13.4255 124.717 13.7879C124.789 14.2981 124.989 14.792 125.32 15.2676C125.502 15.5261 125.733 15.7662 125.964 16.0016C126.181 16.1678 126.395 16.334 126.612 16.5002C126.952 16.731 127.316 16.8811 127.711 16.9526C127.967 17.045 128.219 17.0773 128.468 17.0473Z" fill="#DB6800"/>
<path d="M151.512 30.8329L151.815 30.9853C151.981 31.0522 152.138 31.073 152.288 31.0476C152.397 31.0568 152.491 31.036 152.57 30.9876C152.713 30.946 152.824 30.8698 152.904 30.759C152.932 30.7244 152.962 30.6898 152.99 30.6552C153.045 30.5605 153.101 30.4659 153.156 30.3712C153.23 30.205 153.253 30.0227 153.228 29.8265C153.239 29.6972 153.216 29.5633 153.161 29.4271C153.138 29.2933 153.087 29.1663 153.001 29.0394C152.918 28.8547 152.796 28.6839 152.632 28.5315C152.526 28.4438 152.417 28.3584 152.311 28.273C152.193 28.213 152.073 28.153 151.953 28.0929C151.757 28.0145 151.572 27.9891 151.395 28.0191C151.265 28.0098 151.155 28.0329 151.06 28.0906C150.945 28.1183 150.852 28.1737 150.785 28.2568C150.647 28.3538 150.55 28.4854 150.497 28.6469C150.469 28.7624 150.444 28.8778 150.416 28.9932C150.421 29.1248 150.428 29.2563 150.432 29.3879L150.548 29.7919C150.619 29.9858 150.73 30.1635 150.882 30.3251C151.002 30.4913 151.155 30.6321 151.337 30.7452C151.399 30.7729 151.455 30.8029 151.512 30.8329Z" fill="#DB6800"/>
<path d="M150.77 50.0688L150.918 50.3735C151.008 50.5259 151.121 50.639 151.255 50.7105C151.336 50.7821 151.423 50.8237 151.516 50.8329C151.654 50.886 151.788 50.8929 151.922 50.8537C151.966 50.8444 152.01 50.8329 152.054 50.8237C152.155 50.7821 152.257 50.7406 152.358 50.699C152.517 50.6113 152.647 50.482 152.746 50.3112C152.834 50.2143 152.896 50.0942 152.935 49.9534C152.998 49.8334 153.035 49.6995 153.044 49.5495C153.09 49.351 153.095 49.1432 153.06 48.9216C153.028 48.7877 152.995 48.6538 152.963 48.52C152.905 48.3999 152.848 48.2799 152.788 48.1599C152.679 47.9798 152.547 47.8459 152.388 47.7605C152.291 47.6751 152.19 47.6266 152.079 47.6151C151.97 47.5666 151.864 47.5551 151.76 47.5805C151.592 47.5736 151.437 47.6197 151.294 47.7167C151.204 47.7928 151.112 47.869 151.022 47.9429C150.946 48.0514 150.872 48.1599 150.795 48.266L150.643 48.6585C150.583 48.8547 150.565 49.0647 150.588 49.284C150.583 49.4894 150.618 49.6926 150.694 49.8957C150.717 49.9511 150.745 50.0111 150.77 50.0688Z" fill="#DB6800"/>
<path d="M133.647 23.3436C134.139 22.1202 131.756 20.3405 131.182 21.7717C130.69 22.9951 133.072 24.7748 133.647 23.3436Z" fill="#DB6800"/>
<path d="M197.414 100.342C198.991 102.318 200.791 104.141 202.767 105.762C205.614 109.25 208.924 112.072 212.61 114.149C216.306 116.233 220.393 117.727 224.757 118.596C228.868 119.417 233.16 119.882 237.467 119.972C237.939 119.991 238.412 120 238.884 120C243.71 120 248.415 119.018 252.871 117.084C257.546 115.05 261.751 112.337 265.371 109.024C269.031 105.67 272.017 101.767 274.242 97.4213C276.577 92.8544 277.762 88.1308 277.762 83.3772C277.762 79.4719 277.215 75.5482 276.141 71.7167C275.021 67.7123 273.234 64.0077 270.827 60.6949C269.262 58.5394 267.355 56.566 265.158 54.8324C263.605 52.8406 261.79 51.0447 259.732 49.4656L269.26 39.7301C270.318 38.6512 270.926 37.2242 270.977 35.7142L271.641 15.2404C271.694 13.6175 271.076 12.0176 269.947 10.8534C268.955 9.8298 267.761 9.21196 266.502 9.05059C266.311 7.83106 265.746 6.67839 264.875 5.777C263.748 4.61511 262.173 3.95117 260.539 3.95117L199.648 4.08719C196.335 4.09641 193.64 6.79596 193.64 10.1087V30.8453C193.64 32.4452 194.292 34.0082 195.429 35.1286C196.328 36.0162 197.453 36.5787 198.774 36.7839C198.963 38.0702 199.569 39.2805 200.496 40.1981C201.639 41.33 203.297 41.9985 204.8 41.9386L213.71 41.8349L212.23 43.2596C211.045 44.403 210.374 46.0006 210.388 47.6443L210.522 64.7454C210.522 66.3845 211.202 67.9728 212.389 69.1071C212.599 69.3076 212.825 69.4921 213.062 69.6604C212.77 69.7549 212.486 69.8747 212.207 70.0154L193.727 79.4558C191.189 80.7514 189.901 83.6861 190.664 86.4317C192.211 91.9853 194.479 96.6651 197.414 100.342ZM228.752 75.6404C230.846 75.6127 232.863 75.8156 234.739 76.2513C234.737 76.3896 234.733 76.5326 234.726 76.6778C234.719 76.83 234.716 76.9867 234.721 77.1619C234.763 78.4852 234.398 78.7872 234.218 78.9371C233.317 79.6909 231.826 80.4102 228.271 79.2806C227.568 79.0569 226.885 78.7987 226.242 78.5152C226.032 78.4207 225.822 78.3238 225.613 78.2224C225.225 77.2588 224.596 76.4058 223.791 75.758C225.23 75.7096 226.883 75.6704 228.752 75.6404Z" fill="black"/>
<path d="M193.462 96.3933C195.039 98.369 196.839 100.192 198.815 101.813C201.662 105.301 204.973 108.123 208.659 110.2C212.354 112.284 216.442 113.778 220.806 114.647C224.916 115.468 229.209 115.933 233.515 116.023C233.988 116.042 234.46 116.051 234.933 116.051C239.758 116.051 244.463 115.069 248.919 113.132C253.592 111.099 257.8 108.386 261.419 105.073C265.08 101.719 268.065 97.8157 270.29 93.4701C272.625 88.9032 273.81 84.1796 273.81 79.426C273.81 75.5207 273.264 71.597 272.19 67.7655C271.069 63.7612 269.283 60.0565 266.876 56.7437C265.31 54.5882 263.404 52.6171 261.207 50.8812C259.653 48.8894 257.839 47.0935 255.78 45.5144L265.308 35.7789C266.366 34.7 266.975 33.273 267.023 31.763L267.69 11.2893C267.743 9.6663 267.125 8.06639 265.995 6.9022C265.004 5.87862 263.81 5.25849 262.551 5.09942C262.36 3.87989 261.795 2.72722 260.923 1.82583C259.796 0.663939 258.222 0 256.587 0L195.698 0.136015C192.386 0.145237 189.691 2.84479 189.691 6.15987V26.8964C189.691 28.4963 190.343 30.0594 191.48 31.1798C192.379 32.0673 193.504 32.6298 194.825 32.835C195.014 34.1214 195.62 35.3317 196.547 36.2492C197.69 37.3811 199.348 38.0497 200.851 37.9897L209.761 37.886L208.281 39.3107C207.096 40.4541 206.425 42.0518 206.439 43.6955L206.573 60.7965C206.573 62.4356 207.253 64.024 208.44 65.1582C208.65 65.3588 208.876 65.5432 209.113 65.7115C208.82 65.806 208.537 65.9259 208.258 66.0665L189.778 75.5069C187.24 76.8025 185.951 79.7372 186.714 82.4828C188.259 88.0341 190.53 92.714 193.462 96.3933ZM224.801 71.6892C226.894 71.6616 228.911 71.8644 230.788 72.3002C230.786 72.4385 230.781 72.5814 230.774 72.7266C230.767 72.8788 230.765 73.0356 230.77 73.2108C230.811 74.534 230.449 74.836 230.267 74.9859C229.366 75.7397 227.874 76.459 224.321 75.3294C223.618 75.1058 222.936 74.8476 222.293 74.564C222.083 74.4695 221.873 74.3727 221.663 74.2712C221.278 73.3076 220.647 72.4546 219.842 71.8068C221.278 71.7584 222.931 71.7192 224.801 71.6892Z" fill="black"/>
<path d="M200.762 99.8672C203.432 103.189 206.54 105.861 210.002 107.814C213.439 109.75 217.255 111.147 221.34 111.961C225.291 112.749 229.441 113.197 233.62 113.287C234.058 113.303 234.494 113.312 234.93 113.312C239.379 113.312 243.709 112.408 247.824 110.622C252.218 108.711 256.169 106.165 259.565 103.056C262.986 99.9226 265.773 96.2778 267.848 92.225C269.983 88.05 271.066 83.746 271.066 79.4281C271.066 75.7741 270.554 72.0971 269.547 68.5054C268.516 64.8191 266.87 61.4026 264.655 58.3549C263.173 56.3124 261.354 54.4566 259.244 52.829C257.188 50.1203 254.604 47.8057 251.545 45.9291L263.348 33.8676C263.922 33.282 264.256 32.4982 264.282 31.6775L264.948 11.2038C264.978 10.3139 264.643 9.44941 264.023 8.81083C263.401 8.16994 262.603 7.72501 261.658 7.81261L259.823 7.81722L259.878 6.13432C259.908 5.24446 259.574 4.37996 258.954 3.73907C258.334 3.10049 257.485 2.74316 256.596 2.74316H256.589L195.702 2.87457C193.89 2.87918 192.424 4.34768 192.424 6.15968V26.8962C192.424 27.7723 192.774 28.616 193.399 29.2315C194.024 29.8494 194.833 30.1583 195.746 30.1814L197.493 30.1629V31.968C197.493 32.844 197.844 33.6878 198.469 34.3033C199.093 34.9211 200.02 35.2738 200.815 35.2531L216.632 35.071L210.18 41.2816C209.53 41.9086 209.165 42.7731 209.175 43.6745L209.308 60.7963C209.308 61.6954 209.677 62.5553 210.325 63.1754C210.975 63.7932 211.847 64.116 212.748 64.0768C213.25 64.0537 213.79 64.033 214.364 64.0099L214.38 65.8888C214.387 66.781 214.758 67.6339 215.406 68.2472C216.056 68.8604 216.927 69.1785 217.817 69.1439C219.652 69.061 221.967 68.9941 224.766 68.9503C227.272 68.9157 229.727 69.1877 232.004 69.7802C232.452 69.8932 232.892 70.0361 233.332 70.209C233.503 70.9997 233.563 71.8758 233.512 72.8578C233.508 72.9454 233.508 73.0354 233.51 73.1253C233.584 75.5067 232.703 76.521 232.027 77.0835C229.953 78.8172 227.258 79.133 223.498 77.9365C222.695 77.6829 221.919 77.3878 221.188 77.0628C220.591 76.7977 219.996 76.5049 219.364 76.1407C219.339 76.0554 219.32 75.9747 219.304 75.8917C219.113 74.8727 218.454 74.0059 217.527 73.5495C216.923 73.2498 216.257 73.1506 215.604 73.2451C215.196 72.8071 214.873 72.3691 214.643 71.9403C214.438 71.5646 214.304 71.198 214.235 70.8222C214.044 69.8033 213.384 68.9342 212.455 68.4777C211.526 68.0166 210.436 68.0258 209.511 68.4984L191.032 77.9388C189.641 78.6489 188.943 80.2395 189.36 81.7426C190.803 86.9366 192.906 91.2868 195.608 94.6779C197.118 96.5844 198.851 98.325 200.762 99.8672Z" fill="white"/>
<path d="M242.791 50.1799C247.311 50.5349 251.143 51.6207 254.29 53.435C257.434 55.2539 260.005 57.5362 261.999 60.2819C263.993 63.0298 265.457 66.0637 266.386 69.388C267.317 72.71 267.783 76.0573 267.783 79.4231C267.783 83.2362 266.829 87.0008 264.924 90.7239C263.018 94.447 260.491 97.7483 257.347 100.628C254.2 103.509 250.587 105.833 246.512 107.606C242.433 109.376 238.18 110.174 233.749 109.999C229.671 109.909 225.75 109.487 221.985 108.733C218.218 107.984 214.76 106.718 211.616 104.946C208.469 103.175 205.677 100.759 203.24 97.7022C200.801 94.6453 198.92 90.7239 197.59 85.938L216.069 76.4977C216.335 77.9177 217.065 79.2687 218.264 80.5551C219.461 81.8414 220.855 82.948 222.451 83.8771C224.046 84.8084 225.752 85.5623 227.569 86.1386C229.385 86.7172 231.047 87.0008 232.553 87.0008C235.123 87.0008 237.341 86.2262 239.199 84.6747C241.062 83.1255 241.945 80.9331 241.857 78.0953C242.035 74.6395 241.214 72.0276 239.397 70.2525C237.581 68.482 235.388 67.2625 232.818 66.5985C230.247 65.9323 227.543 65.6233 224.71 65.6671C221.872 65.7109 219.523 65.7801 217.662 65.8654L217.529 48.716L235.342 31.5665L200.778 31.9653V11.2265L261.665 11.0928L261.001 31.5665L242.791 50.1799Z" fill="#5C740E"/>
<path d="M237.72 45.1102C242.241 45.4629 246.073 46.551 249.219 48.3653C252.364 50.1842 254.934 52.4665 256.929 55.2122C258.923 57.9602 260.384 60.994 261.316 64.3183C262.247 67.6403 262.713 70.9876 262.713 74.3534C262.713 78.1665 261.758 81.9311 259.854 85.6542C257.947 89.3774 255.421 92.6786 252.276 95.558C249.13 98.4397 245.517 100.763 241.441 102.536C237.363 104.307 233.11 105.104 228.679 104.929C224.601 104.839 220.682 104.417 216.915 103.664C213.148 102.914 209.69 101.649 206.545 99.8759C203.398 98.1054 200.607 95.6871 198.17 92.6325C195.731 89.5756 193.85 85.6542 192.52 80.8683L210.999 71.428C211.264 72.8481 211.995 74.199 213.192 75.4831C214.388 76.7694 215.783 77.876 217.378 78.8051C218.973 79.7364 220.679 80.4903 222.496 81.0666C224.31 81.6429 225.975 81.9288 227.48 81.9288C230.051 81.9288 232.268 81.1542 234.126 79.6004C235.989 78.0535 236.872 75.8588 236.784 73.021C236.962 69.5652 236.141 66.951 234.325 65.1782C232.508 63.4077 230.313 62.1882 227.745 61.5242C225.175 60.858 222.471 60.549 219.637 60.5929C216.799 60.6367 214.453 60.7058 212.592 60.7911L212.458 43.6417L230.272 26.4922L195.708 26.891V6.1591L256.594 6.02539L255.93 26.4991L237.72 45.1102Z" fill="#8DC725"/>
<g opacity="0.7">
<path d="M222.498 81.0713C220.682 80.4949 218.976 79.7411 217.381 78.8097C215.785 77.8807 214.391 76.7741 213.194 75.4877C211.998 74.2013 211.265 72.8504 211.002 71.4326L203.768 75.1281C203.871 75.248 203.957 75.3701 204.067 75.49C205.264 76.7764 206.661 77.883 208.254 78.812C209.849 79.7434 211.555 80.4972 213.372 81.0736C215.188 81.6499 216.848 81.9358 218.356 81.9358C219.88 81.9358 221.265 81.6291 222.54 81.0828C222.526 81.0759 222.512 81.0759 222.498 81.0713Z" fill="#8DC725"/>
<path d="M221.148 26.4961L195.711 26.7912V26.8949L221.037 26.6044L221.148 26.4961Z" fill="#8DC725"/>
<path d="M212.596 60.6963V60.7954C212.944 60.7793 213.329 60.7654 213.711 60.7493C213.345 60.7193 212.967 60.7147 212.596 60.6963Z" fill="#8DC725"/>
<path d="M261.318 64.3202C260.389 60.9959 258.926 57.9598 256.931 55.2141C254.937 52.4662 252.367 50.1839 249.222 48.3673C246.076 46.5507 242.244 45.4648 237.723 45.1121L255.935 26.5011L256.599 6.02734L247.47 6.04809L246.806 26.5011L228.594 45.1121C233.115 45.4648 236.946 46.553 240.093 48.3673C243.238 50.1862 245.808 52.4685 247.802 55.2141C249.796 57.9621 251.258 60.9959 252.189 64.3202C253.121 67.6422 253.586 70.9896 253.586 74.3554C253.586 78.1684 252.632 81.9331 250.728 85.6562C248.821 89.3793 246.295 92.6806 243.15 95.5599C240.003 98.4416 236.391 100.765 232.315 102.538C229.786 103.638 227.181 104.316 224.514 104.664C225.892 104.774 227.264 104.899 228.679 104.931C233.113 105.106 237.366 104.309 241.442 102.538C245.518 100.765 249.13 98.4393 252.277 95.5599C255.421 92.6783 257.946 89.3793 259.855 85.6562C261.759 81.9331 262.713 78.1684 262.713 74.3554C262.713 70.9896 262.25 67.6422 261.318 64.3202Z" fill="#8DC725"/>
</g>
<path d="M247.943 62.4406C249.296 60.6516 245.857 56.8962 244.273 58.9895C242.922 60.7784 246.359 64.5338 247.943 62.4406Z" fill="#6A9B00"/>
<path d="M256.233 77.73C256.496 77.836 256.761 77.9444 257.024 78.0527C257.575 78.1772 258.085 78.1449 258.555 77.9536C258.94 77.8153 259.253 77.5847 259.493 77.262C259.807 76.9761 260.03 76.6142 260.162 76.1716C260.328 75.7497 260.388 75.2909 260.344 74.7976C260.369 74.3503 260.293 73.8939 260.116 73.4282C259.982 73.1516 259.851 72.8726 259.717 72.596C259.387 72.0611 258.963 71.6393 258.442 71.3303C258.179 71.222 257.914 71.1159 257.651 71.0076C257.1 70.8831 256.588 70.9154 256.12 71.1067C255.735 71.245 255.422 71.4756 255.18 71.796C254.866 72.0819 254.643 72.4438 254.511 72.8888C254.345 73.3106 254.283 73.7694 254.329 74.2627C254.304 74.71 254.38 75.1664 254.557 75.6321C254.691 75.9088 254.823 76.1877 254.956 76.4643C255.288 76.9992 255.715 77.4211 256.233 77.73Z" fill="#6A9B00"/>
<path d="M242.908 71.3791C243.088 71.363 243.267 71.3469 243.447 71.3307C243.791 71.2431 244.058 71.0794 244.252 70.842C244.416 70.6576 244.51 70.4409 244.535 70.1988C244.611 69.9544 244.611 69.6916 244.538 69.4127C244.487 69.1337 244.367 68.8663 244.18 68.6104C244.044 68.3591 243.851 68.1309 243.599 67.9257C243.433 67.8128 243.27 67.6975 243.104 67.5845C242.746 67.3863 242.373 67.2756 241.986 67.2549C241.806 67.271 241.626 67.2872 241.446 67.3033C241.103 67.3909 240.835 67.5546 240.642 67.792C240.478 67.9765 240.383 68.1908 240.358 68.4352C240.282 68.6796 240.282 68.9424 240.356 69.2213C240.407 69.5003 240.524 69.7677 240.713 70.0236C240.849 70.2749 241.043 70.5031 241.294 70.706C241.46 70.8189 241.624 70.9342 241.79 71.0472C242.147 71.2477 242.521 71.3584 242.908 71.3791Z" fill="#6A9B00"/>
<path d="M243.91 54.409C244.124 54.4113 244.338 54.4136 244.553 54.4159L245.129 54.2684C245.281 54.1738 245.431 54.0816 245.583 53.9871C245.689 53.8557 245.795 53.7266 245.901 53.5952C245.959 53.4361 246.014 53.2748 246.072 53.1157C246.132 52.8437 246.107 52.5647 245.998 52.2788C245.971 52.0806 245.888 51.8892 245.752 51.7048C245.618 51.4236 245.41 51.1654 245.134 50.9325C245.092 50.8887 245.051 50.8449 245.009 50.8034C244.783 50.589 244.516 50.4207 244.209 50.2986C243.935 50.1464 243.64 50.0542 243.32 50.0196C243.119 50.0173 242.916 50.015 242.716 50.0127C242.319 50.0634 241.996 50.1971 241.747 50.4161C241.717 50.4507 241.687 50.4853 241.66 50.5199C241.554 50.6513 241.448 50.7827 241.342 50.9118C241.284 51.0709 241.229 51.2322 241.171 51.3913C241.111 51.6656 241.134 51.9423 241.245 52.2281C241.272 52.4264 241.355 52.6177 241.491 52.8045C241.572 52.9958 241.703 53.1733 241.883 53.3324C242.01 53.503 242.178 53.6528 242.384 53.775C242.547 53.9203 242.741 54.0355 242.962 54.1162C243.255 54.273 243.571 54.3721 243.91 54.409Z" fill="#6A9B00"/>
<path d="M255.258 57.2953C255.634 56.4331 253.815 55.179 253.374 56.1887C253.001 57.0509 254.82 58.305 255.258 57.2953Z" fill="#6A9B00"/>
<path d="M222.863 49.2131C222.71 48.2932 220.454 48.0673 220.631 49.1439C220.783 50.0614 223.04 50.2897 222.863 49.2131Z" fill="#6A9B00"/>
<path d="M249.515 71.1713C249.573 71.1851 249.628 71.1989 249.686 71.2151C249.956 71.2819 250.182 71.1851 250.306 71.0076C250.373 70.9062 250.41 70.7909 250.412 70.6595C250.417 70.5281 250.387 70.3967 250.325 70.2607C250.299 70.1984 250.276 70.1362 250.251 70.0762C250.142 69.8065 249.854 69.5483 249.559 69.4722C249.25 69.3916 248.987 69.5068 248.847 69.7097C248.692 69.9333 248.683 70.2653 248.826 70.5673C248.951 70.837 249.206 71.0952 249.515 71.1713Z" fill="#6A9B00"/>
<path d="M247.449 81.6284C247.566 81.6906 247.684 81.7529 247.804 81.8174C248.057 81.9027 248.299 81.9096 248.53 81.8428C248.719 81.7967 248.878 81.7021 249.009 81.5615C249.173 81.4416 249.297 81.2803 249.385 81.0797C249.487 80.8884 249.542 80.6763 249.546 80.4411C249.583 80.2313 249.572 80.0146 249.514 79.7864C249.468 79.6504 249.42 79.5121 249.374 79.3761C249.247 79.1086 249.072 78.8896 248.843 78.7213C248.726 78.6591 248.606 78.5968 248.488 78.5323C248.237 78.447 247.995 78.4401 247.764 78.5069C247.575 78.553 247.416 78.6476 247.285 78.7882C247.121 78.9081 246.997 79.0671 246.909 79.27C246.808 79.4613 246.755 79.6734 246.748 79.9086C246.711 80.1184 246.722 80.3351 246.78 80.5633C246.826 80.6993 246.875 80.8376 246.921 80.9737C247.043 81.2411 247.22 81.4601 247.449 81.6284Z" fill="#6A9B00"/>
<path d="M228.4 48.3185C228.502 48.2332 228.601 48.1479 228.702 48.0649C228.866 47.8689 228.949 47.6569 228.949 47.4332C228.958 47.2534 228.91 47.0828 228.804 46.9261C228.73 46.7462 228.601 46.5872 228.419 46.4512C228.253 46.3036 228.05 46.193 227.81 46.1169C227.605 46.0224 227.377 45.9647 227.125 45.9463C226.969 45.9463 226.814 45.9463 226.66 45.9463C226.346 45.9763 226.067 46.0662 225.823 46.2137C225.721 46.299 225.62 46.3843 225.521 46.4696C225.357 46.6656 225.276 46.8753 225.276 47.099C225.267 47.2788 225.316 47.4494 225.422 47.6061C225.496 47.786 225.625 47.945 225.807 48.081C225.973 48.2286 226.176 48.3392 226.418 48.4153C226.623 48.5098 226.851 48.5675 227.105 48.5859C227.259 48.5859 227.416 48.5859 227.57 48.5859C227.877 48.5559 228.156 48.466 228.4 48.3185Z" fill="#6A9B00"/>
<path d="M234.58 54.2205C234.972 54.2504 235.323 54.1928 235.634 54.0429C235.811 53.9323 235.987 53.8193 236.164 53.7087L236.535 53.2453C236.699 52.9733 236.764 52.6782 236.734 52.3623C236.768 52.0327 236.701 51.6984 236.535 51.3572C236.522 51.318 236.515 51.2742 236.492 51.235C236.291 50.7809 235.977 50.3636 235.549 49.9855L234.894 49.5199C234.433 49.2501 233.935 49.0818 233.4 49.0081C232.99 48.9458 232.621 48.9758 232.294 49.098C231.929 49.1602 231.637 49.3032 231.413 49.5268C231.159 49.7389 231.003 49.9901 230.938 50.2829C230.804 50.5711 230.77 50.8823 230.834 51.2166C230.906 51.6869 231.106 52.141 231.436 52.579C231.618 52.8188 231.849 53.0378 232.079 53.2545C232.296 53.409 232.51 53.5611 232.727 53.7156C233.066 53.9277 233.43 54.066 233.824 54.1328C234.078 54.2205 234.329 54.2481 234.58 54.2205Z" fill="#6A9B00"/>
<path d="M255.978 67.1296L256.28 67.2702C256.446 67.3324 256.603 67.3509 256.752 67.3278C256.861 67.3347 256.955 67.3163 257.034 67.2725C257.177 67.2333 257.287 67.1641 257.368 67.0604C257.396 67.0281 257.426 66.9959 257.453 66.9636C257.509 66.876 257.564 66.7884 257.619 66.7008C257.693 66.5463 257.716 66.3803 257.691 66.2005C257.702 66.0806 257.679 65.9585 257.624 65.8317C257.601 65.7095 257.55 65.5896 257.465 65.4743C257.382 65.3037 257.26 65.147 257.096 65.0063C256.99 64.9257 256.882 64.8473 256.775 64.7666C256.656 64.7113 256.538 64.6559 256.418 64.6006C256.222 64.5291 256.038 64.5061 255.86 64.5314C255.731 64.5222 255.621 64.5453 255.526 64.5983C255.411 64.6237 255.319 64.6744 255.252 64.7504C255.113 64.8404 255.017 64.9602 254.964 65.1101C254.936 65.2161 254.91 65.3222 254.883 65.4305C254.887 65.5527 254.894 65.6726 254.899 65.7948L255.017 66.1659C255.088 66.3434 255.199 66.5071 255.351 66.657C255.471 66.8091 255.623 66.9382 255.805 67.0443C255.865 67.0742 255.923 67.1019 255.978 67.1296Z" fill="#6A9B00"/>
<path d="M255.238 84.8601L255.385 85.1414C255.475 85.282 255.588 85.3857 255.722 85.4526C255.803 85.5194 255.89 85.5563 255.983 85.5655C256.121 85.614 256.255 85.6209 256.386 85.584C256.43 85.5748 256.474 85.5656 256.517 85.5563C256.619 85.5171 256.72 85.478 256.822 85.4411C256.981 85.3604 257.11 85.2405 257.209 85.0814C257.297 84.9915 257.359 84.8832 257.398 84.7518C257.46 84.6434 257.497 84.5189 257.506 84.3806C257.552 84.1985 257.557 84.0048 257.523 83.802C257.49 83.6798 257.458 83.5553 257.426 83.4331C257.368 83.3225 257.308 83.2118 257.25 83.1011C257.142 82.9328 257.011 82.8107 256.852 82.7323C256.755 82.6539 256.653 82.6078 256.543 82.5986C256.434 82.5548 256.328 82.5432 256.225 82.5663C256.056 82.5617 255.902 82.6032 255.761 82.6908C255.669 82.76 255.579 82.8314 255.487 82.9006C255.411 82.9997 255.337 83.0988 255.261 83.2003L255.109 83.5622C255.049 83.7443 255.03 83.9357 255.051 84.1408C255.047 84.3299 255.081 84.5166 255.157 84.7034C255.185 84.7541 255.21 84.8071 255.238 84.8601Z" fill="#6A9B00"/>
<path d="M238.136 60.2256C238.627 59.0983 236.248 57.4569 235.674 58.7779C235.183 59.9052 237.562 61.5443 238.136 60.2256Z" fill="#6A9B00"/>
</svg>
