<svg width="179" height="120" viewBox="0 0 179 120" fill="none" xmlns="http://www.w3.org/2000/svg">
<path d="M50.5091 49.1875L50.7492 49.2336C51.1277 51.7151 53.0483 53.781 55.5851 54.2634L77.2856 58.393C78.9268 58.6977 80.6418 58.3145 81.983 57.3243C83.3287 56.334 84.2105 54.8128 84.3998 53.1508C84.6352 51.0964 85.1846 49.4506 86.0364 48.2641C86.8974 47.0638 87.8276 46.2444 88.8802 45.7527C89.6697 45.3834 90.4868 45.2241 91.357 45.2333C91.2116 46.0412 90.8977 47.1515 90.2675 48.6542C89.4042 50.7133 87.4952 53.3724 84.7437 56.3455C81.7337 59.6003 77.3871 63.3282 71.8195 67.4301C66.1456 71.6104 58.6482 76.2548 49.5396 81.2361C47.5314 82.3349 46.3034 84.5231 46.4095 86.8153L47.4783 109.271C47.656 112.135 49.8351 114.441 52.6074 114.857C53.039 117.784 55.5528 120 58.5859 120L131.665 119.868C133.385 119.863 135.023 119.125 136.164 117.837C137.304 116.551 137.844 114.834 137.641 113.125L134.846 89.5645C134.52 86.8291 132.397 84.7032 129.744 84.3085C129.306 81.3654 126.773 79.1678 123.78 79.1678H118.902C120.179 77.7713 121.425 76.3517 122.628 74.9205C125.712 71.2503 128.35 67.2154 130.471 62.9289C132.801 58.2176 133.927 52.8069 133.821 46.7937C133.615 41.2215 132.547 36.0462 130.642 31.4065C128.689 26.6606 125.961 22.5726 122.535 19.2486C121.799 18.5354 121.017 17.8521 120.156 17.1688C119.232 16.0124 118.371 15.0544 117.462 14.1727C115.74 12.506 113.826 11.0172 111.779 9.74531C109.752 8.48266 107.531 7.40006 105.184 6.52983C100.581 4.82167 95.5097 3.95605 90.1082 3.95605C89.0372 3.95605 87.9823 4.00222 86.9851 4.06224C82.4885 4.3023 78.1558 5.0502 74.1116 6.27822C68.8948 7.86403 64.1813 10.2924 60.0979 13.4917C55.9313 16.7649 52.5173 20.9175 49.9528 25.8343C47.3813 30.7648 45.9225 36.531 45.6155 42.9781C45.4701 45.9604 47.5753 48.6289 50.5091 49.1875Z" fill="black"/>
<path d="M46.5522 45.2314L46.7923 45.2776C47.1709 47.759 49.0891 49.8273 51.6282 50.3074L73.3287 54.437C74.9699 54.7417 76.6849 54.3585 78.0261 53.3682C79.3718 52.3779 80.2536 50.8568 80.4429 49.1948C80.6783 47.1404 81.2277 45.4946 82.0795 44.3081C82.9405 43.1078 83.8707 42.2883 84.9233 41.7966C85.7128 41.4273 86.5299 41.268 87.4001 41.2773C87.2547 42.0852 86.9408 43.1955 86.3106 44.6982C85.4473 46.7572 83.5383 49.4164 80.7868 52.3872C77.7791 55.6419 73.4302 59.3698 67.8626 63.4717C62.1887 67.6521 54.6913 72.2964 45.5827 77.2777C43.5745 78.3765 42.3465 80.5648 42.4527 82.8569L43.5214 105.312C43.6991 108.177 45.8782 110.481 48.6505 110.898C49.0821 113.825 51.5959 116.041 54.629 116.041L127.71 115.907C129.43 115.903 131.069 115.164 132.209 113.878C133.352 112.593 133.89 110.875 133.686 109.167L130.891 85.6061C130.566 82.8708 128.442 80.7448 125.79 80.3501C125.351 77.407 122.819 75.2095 119.825 75.2095H114.945C116.222 73.813 117.468 72.3933 118.671 70.9622C121.755 67.292 124.393 63.257 126.515 58.9705C128.844 54.2592 129.97 48.8485 129.862 42.8354C129.656 37.2631 128.587 32.0879 126.683 27.4482C124.73 22.7023 122.002 18.6142 118.576 15.2903C117.84 14.577 117.057 13.8937 116.196 13.2105C115.273 12.054 114.412 11.0961 113.503 10.2143C111.781 8.54769 109.867 7.05882 107.819 5.78694C105.793 4.52429 103.572 3.4417 101.225 2.57377C96.6219 0.865617 91.5482 0 86.149 0C85.078 0 84.0231 0.0461663 83.0259 0.106182C78.5293 0.346247 74.1966 1.09414 70.1524 2.32216C64.9356 3.90797 60.2221 6.33632 56.1387 9.53564C51.9721 12.8065 48.5581 16.9592 45.9936 21.8759C43.4221 26.8064 41.9656 32.5726 41.6563 39.0197C41.5132 42.0044 43.6184 44.6751 46.5522 45.2314Z" fill="black"/>
<path d="M130.157 112.059C130.78 111.358 131.073 110.42 130.963 109.49L128.167 85.9292C127.971 84.2741 126.568 83.0276 124.901 83.0276H123.348L123.089 80.8509C122.893 79.1958 121.489 77.9494 119.823 77.9494H108.521C111.351 75.1332 114.052 72.1924 116.57 69.1962C119.513 65.6945 122.032 61.8466 124.056 57.7539C126.189 53.4397 127.221 48.4745 127.122 42.9345C126.93 37.6854 125.928 32.8264 124.149 28.4914C122.341 24.0987 119.825 20.3223 116.67 17.2615C115.936 16.5528 115.139 15.8626 114.246 15.1678C113.32 13.9929 112.471 13.0396 111.594 12.1878C110.012 10.6574 108.251 9.28626 106.368 8.11594C104.491 6.94563 102.437 5.94843 100.267 5.14514C95.9663 3.5501 91.2158 2.74219 86.1444 2.74219C85.1311 2.74219 84.1316 2.78605 83.1667 2.84606C78.8917 3.07458 74.7806 3.78093 70.9442 4.94894C66.0529 6.4378 61.6394 8.70687 57.826 11.6938C53.9689 14.7223 50.8042 18.5749 48.4197 23.1477C46.0329 27.7228 44.6779 33.1081 44.3893 39.1535C44.3132 40.7924 45.4512 42.2351 47.0601 42.5421L49.5392 43.013C49.5092 43.417 49.4861 43.8279 49.4676 44.2341C49.3915 45.8707 50.5295 47.3134 52.1384 47.6204L73.8342 51.7477C74.7321 51.9162 75.6624 51.7061 76.3987 51.166C77.1351 50.6235 77.6129 49.7995 77.7168 48.89C78.0053 46.367 78.7232 44.2872 79.8497 42.713C80.9923 41.1248 82.2711 40.0122 83.7623 39.3174C85.2049 38.6457 86.7169 38.4149 88.372 38.6041C88.9652 38.6757 89.5584 38.805 90.1586 39.0012C90.2071 39.3313 90.2348 39.6821 90.244 40.0515C90.2763 41.5288 89.8008 43.4493 88.8336 45.7599C87.8318 48.1467 85.8005 51.0021 82.7951 54.2499C79.6696 57.6293 75.1938 61.4749 69.483 65.6807C63.7122 69.9326 56.1133 74.6439 46.8939 79.6829C45.7905 80.2877 45.128 81.4695 45.1857 82.7253L46.2545 105.141C46.363 106.875 47.801 108.225 49.5369 108.225H49.5438L51.2335 108.221L51.3258 110.166C51.4089 111.921 52.8562 113.299 54.6129 113.299H54.6198L127.699 113.165C128.64 113.163 129.534 112.761 130.157 112.059Z" fill="white"/>
<path d="M127.697 109.875L54.6177 110.009L53.5536 87.6439C62.9576 82.501 70.612 77.7505 76.5144 73.4016C82.4144 69.0527 87.008 65.1055 90.2904 61.553C93.5728 58.0075 95.7911 54.8543 96.9452 52.1028C98.0971 49.3513 98.6534 47.0014 98.6095 45.0486C98.5634 43.0958 98.1433 41.5215 97.3446 40.3212C96.5459 39.1232 95.8349 38.3037 95.2163 37.8605C93.1735 36.4409 91.0244 35.5961 88.76 35.3306C86.4978 35.0628 84.3672 35.3952 82.3705 36.3278C80.3739 37.2603 78.6449 38.7469 77.1792 40.7851C75.7157 42.828 74.8039 45.4018 74.4507 48.5065L52.7549 44.3792C53.0203 38.7885 54.2391 33.911 56.4136 29.7376C58.588 25.5664 61.4272 22.1063 64.9335 19.3548C68.4376 16.6056 72.454 14.5419 76.9806 13.1639C81.5049 11.7904 86.2531 11.1025 91.2229 11.1025C95.925 11.1025 100.251 11.8343 104.2 13.3001C108.147 14.7635 111.543 16.8733 114.382 19.6225C117.221 22.374 119.461 25.7465 121.104 29.7399C122.745 33.7332 123.652 38.1698 123.832 43.0519C123.92 48.0217 123.011 52.4352 121.104 56.2947C119.195 60.1542 116.845 63.7506 114.048 67.0768C111.252 70.4054 108.258 73.6232 105.064 76.7279C101.869 79.8326 99.0273 83.0273 96.5436 86.312H124.897L127.697 109.875Z" fill="#FF6A09"/>
<path d="M122.62 104.799L49.5412 104.933L48.4771 82.5674C57.8835 77.4245 65.5379 72.674 71.4379 68.3251C77.338 63.9762 81.9315 60.029 85.2139 56.4765C88.4964 52.9286 90.7146 49.7778 91.8688 47.0263C93.0207 44.2748 93.577 41.9249 93.5331 39.9721C93.4869 38.0192 93.0668 36.445 92.2681 35.247C91.4695 34.0489 90.7585 33.2295 90.1376 32.784C88.0947 31.3644 85.9457 30.5195 83.6812 30.2541C81.4168 29.9863 79.2885 30.3187 77.2918 31.2513C75.2951 32.1838 73.5662 33.6704 72.1004 35.7086C70.6346 37.7538 69.7251 40.3252 69.3697 43.4299L47.6738 39.3027C47.9393 33.7119 49.1581 28.8345 51.3325 24.661C53.5069 20.4899 56.3439 17.0297 59.8525 14.2782C63.3565 11.529 67.373 9.4654 71.8996 8.08964C76.4239 6.7162 81.1721 6.02832 86.1419 6.02832C90.8439 6.02832 95.1697 6.76006 99.1192 8.22584C103.066 9.68931 106.46 11.7991 109.301 14.5483C112.14 17.2998 114.382 20.6723 116.025 24.6656C117.667 28.659 118.574 33.0956 118.754 37.9777C118.841 42.9475 117.932 47.361 116.025 51.2205C114.116 55.08 111.764 58.6763 108.971 62.0026C106.176 65.3312 103.182 68.549 99.9871 71.6537C96.7924 74.7584 93.9509 77.9531 91.4672 81.2378H119.825L122.62 104.799Z" fill="#FFB31A"/>
<g opacity="0.7">
<path d="M89.9853 8.22584C93.9325 9.68931 97.3257 11.7991 100.167 14.5483C103.006 17.2998 105.248 20.6723 106.889 24.6656C108.53 28.659 109.44 33.0956 109.617 37.9777C109.705 42.9475 108.796 47.361 106.889 51.2205C104.98 55.08 102.63 58.6763 99.8348 62.0026C97.0395 65.3312 94.0456 68.549 90.8509 71.6537C87.6562 74.7584 84.8147 77.9531 82.3309 81.2378H91.4718C93.9556 77.9531 96.7971 74.7584 99.9918 71.6537C103.187 68.549 106.18 65.3312 108.976 62.0026C111.771 58.6763 114.121 55.08 116.03 51.2205C117.937 47.361 118.846 42.9475 118.758 37.9777C118.581 33.0956 117.671 28.659 116.03 24.6656C114.386 20.6723 112.147 17.2998 109.306 14.5483C106.464 11.7991 103.071 9.68931 99.1239 8.22584C95.1744 6.76006 90.8486 6.02832 86.1466 6.02832C84.5215 6.02832 82.9311 6.12989 81.3545 6.27531C84.4015 6.59386 87.2869 7.22634 89.9853 8.22584Z" fill="#FFB31A"/>
<path d="M68.1552 31.2529C66.1585 32.1855 64.4296 33.672 62.9638 35.7103C61.7773 37.3676 60.9717 39.392 60.5146 41.7465L69.374 43.4316C69.7294 40.3269 70.6389 37.7554 72.1024 35.7103C73.5682 33.672 75.2971 32.1855 77.2938 31.2529C77.4554 31.179 77.6216 31.1306 77.7831 31.0636C76.7282 30.6574 75.6503 30.3827 74.5423 30.2534C72.2801 29.988 70.1519 30.3204 68.1552 31.2529Z" fill="#FFB31A"/>
<path d="M119.825 81.2383H110.684L113.479 104.799L49.5391 104.915L49.5414 104.933L122.62 104.799L119.825 81.2383Z" fill="#FFB31A"/>
</g>
<path d="M104.65 25.7462C106.005 23.8049 102.561 19.7307 100.975 22.0021C99.6225 23.9411 103.067 28.0175 104.65 25.7462Z" fill="#DB6800"/>
<path d="M112.95 42.334C113.214 42.4494 113.479 42.5672 113.742 42.6826C114.294 42.8188 114.804 42.7818 115.275 42.5741C115.66 42.424 115.974 42.1747 116.214 41.8262C116.528 41.5169 116.752 41.1221 116.884 40.642C117.05 40.1827 117.11 39.6864 117.066 39.1509C117.089 38.6661 117.015 38.1698 116.838 37.6666C116.706 37.3665 116.572 37.0641 116.438 36.7641C116.108 36.1847 115.683 35.7276 115.162 35.3929C114.899 35.2775 114.633 35.1598 114.37 35.0444C113.818 34.9082 113.306 34.9451 112.837 35.1528C112.452 35.3029 112.138 35.5522 111.898 35.9007C111.584 36.2101 111.36 36.6048 111.228 37.0849C111.062 37.5443 111 38.0405 111.046 38.5761C111.021 39.0608 111.097 39.5571 111.275 40.0603C111.408 40.3627 111.542 40.6628 111.674 40.9629C112.006 41.54 112.431 41.997 112.95 42.334Z" fill="#DB6800"/>
<path d="M99.6085 35.4436C99.7885 35.4251 99.9686 35.409 100.149 35.3905C100.493 35.2959 100.76 35.1181 100.954 34.8619C101.118 34.6611 101.215 34.4279 101.238 34.1625C101.314 33.897 101.317 33.6131 101.24 33.3084C101.19 33.006 101.072 32.7152 100.883 32.4382C100.746 32.1658 100.553 31.9188 100.301 31.6972C100.137 31.5726 99.9709 31.4502 99.8047 31.3256C99.4469 31.1109 99.0729 30.9909 98.6851 30.9678C98.5051 30.9839 98.325 31.0024 98.145 31.0209C97.8011 31.1155 97.5333 31.2932 97.3394 31.5495C97.1755 31.7503 97.0809 31.9834 97.0555 32.2489C96.9793 32.5143 96.9793 32.7983 97.0532 33.103C97.1039 33.4054 97.2217 33.6962 97.4109 33.9732C97.5471 34.2456 97.741 34.4926 97.9926 34.7142C98.1588 34.8365 98.3227 34.9612 98.4889 35.0858C98.8467 35.3005 99.2207 35.4205 99.6085 35.4436Z" fill="#DB6800"/>
<path d="M100.615 17.0323C100.83 17.0346 101.045 17.0369 101.259 17.0392L101.836 16.8799C101.989 16.7784 102.139 16.6768 102.291 16.5752C102.397 16.4344 102.504 16.2913 102.61 16.1505C102.667 15.9774 102.723 15.8043 102.781 15.6311C102.841 15.3357 102.815 15.0333 102.707 14.724C102.679 14.5093 102.596 14.3016 102.46 14.1007C102.326 13.796 102.118 13.5167 101.841 13.2628C101.8 13.2143 101.758 13.1682 101.716 13.122C101.49 12.8889 101.225 12.7065 100.915 12.5749C100.641 12.411 100.345 12.3095 100.024 12.2725C99.8236 12.2702 99.6205 12.2679 99.4197 12.2656C99.0227 12.3187 98.6995 12.4664 98.4502 12.7019C98.4202 12.7388 98.3902 12.7781 98.3625 12.815C98.2563 12.9558 98.1501 13.0989 98.0439 13.2397C97.9885 13.4129 97.9308 13.586 97.8731 13.7591C97.8131 14.0546 97.8362 14.357 97.947 14.6663C97.9747 14.8809 98.0578 15.0887 98.194 15.2895C98.2771 15.4973 98.4063 15.6889 98.5864 15.862C98.7134 16.049 98.8818 16.2082 99.0873 16.3421C99.2512 16.5014 99.4451 16.6237 99.6667 16.7114C99.9575 16.8846 100.274 16.9931 100.615 17.0323Z" fill="#DB6800"/>
<path d="M111.977 20.1654C112.353 19.2305 110.532 17.8686 110.091 18.9651C109.715 19.8999 111.536 21.2619 111.977 20.1654Z" fill="#DB6800"/>
<path d="M79.5403 11.3946C79.3879 10.3974 77.1281 10.1527 77.3059 11.3184C77.4559 12.3156 79.718 12.5626 79.5403 11.3946Z" fill="#DB6800"/>
<path d="M106.224 35.2197C106.282 35.2359 106.337 35.2497 106.395 35.2659C106.665 35.3397 106.891 35.2335 107.016 35.042C107.083 34.9335 107.12 34.8065 107.122 34.6657C107.127 34.5249 107.097 34.3795 107.035 34.234C107.009 34.1671 106.984 34.1002 106.961 34.0332C106.852 33.7401 106.564 33.4608 106.268 33.3777C105.959 33.2899 105.696 33.4169 105.555 33.6339C105.4 33.8786 105.391 34.2364 105.534 34.5641C105.659 34.855 105.915 35.1343 106.224 35.2197Z" fill="#DB6800"/>
<path d="M104.157 46.5625C104.274 46.6317 104.392 46.6987 104.51 46.7679C104.764 46.8603 105.006 46.8695 105.237 46.7956C105.426 46.7449 105.588 46.6433 105.717 46.4909C105.881 46.3617 106.006 46.1862 106.093 45.9693C106.195 45.7615 106.25 45.5307 106.255 45.2768C106.292 45.0506 106.28 44.8128 106.223 44.5658C106.174 44.4181 106.128 44.268 106.079 44.1203C105.953 43.8294 105.777 43.594 105.549 43.4093C105.431 43.3401 105.311 43.2731 105.193 43.2039C104.941 43.1116 104.699 43.1023 104.466 43.1762C104.277 43.227 104.117 43.3285 103.986 43.4809C103.822 43.6102 103.697 43.7856 103.61 44.0026C103.508 44.2103 103.455 44.4412 103.448 44.6951C103.411 44.9213 103.423 45.159 103.48 45.406C103.526 45.5538 103.575 45.7038 103.621 45.8515C103.753 46.1424 103.928 46.3778 104.157 46.5625Z" fill="#DB6800"/>
<path d="M85.0824 10.4236C85.1839 10.3313 85.2832 10.239 85.3847 10.149C85.5486 9.93428 85.6317 9.70807 85.6317 9.4657C85.641 9.26949 85.5925 9.08713 85.4863 8.91632C85.4124 8.72242 85.2832 8.54929 85.1008 8.40156C84.9346 8.24229 84.7315 8.11995 84.4914 8.03916C84.286 7.93528 84.0575 7.87527 83.8036 7.85449C83.6489 7.85449 83.4919 7.85449 83.3373 7.85449C83.0233 7.88681 82.744 7.98376 82.4994 8.14534C82.3978 8.23767 82.2985 8.33001 82.197 8.42234C82.0331 8.63701 81.9523 8.86322 81.9523 9.1056C81.943 9.3018 81.9915 9.48416 82.0977 9.65498C82.1716 9.84887 82.3008 10.022 82.4832 10.1697C82.6494 10.329 82.8548 10.4513 83.0949 10.5344C83.3003 10.6383 83.5289 10.6983 83.7805 10.7191C83.9351 10.7191 84.0921 10.7191 84.2468 10.7191C84.5584 10.6822 84.8377 10.5852 85.0824 10.4236Z" fill="#DB6800"/>
<path d="M89.6556 17.0463C90.048 17.0809 90.3989 17.0163 90.7105 16.8524C90.8883 16.7324 91.066 16.61 91.2414 16.49L91.6131 15.9868C91.777 15.6913 91.8416 15.3728 91.8116 15.0288C91.8462 14.671 91.7816 14.3086 91.6131 13.9393C91.5992 13.8954 91.5923 13.8493 91.5692 13.8077C91.3684 13.3138 91.0545 12.8636 90.6251 12.4528L89.9696 11.9472C89.5079 11.6564 89.0093 11.4717 88.4738 11.3932C88.0629 11.3263 87.6936 11.3586 87.3658 11.4902C87.0011 11.5594 86.7079 11.7141 86.484 11.9565C86.2324 12.185 86.0731 12.4597 86.0085 12.7759C85.8746 13.0875 85.84 13.4246 85.9046 13.787C85.9762 14.2971 86.177 14.7911 86.5071 15.2666C86.6894 15.5251 86.9203 15.7652 87.1511 16.0006C87.3681 16.1668 87.5828 16.333 87.7997 16.4992C88.1391 16.7301 88.5038 16.8801 88.8985 16.9517C89.1547 17.044 89.4063 17.0763 89.6556 17.0463Z" fill="#DB6800"/>
<path d="M112.699 30.8329L113.001 30.9853C113.168 31.0522 113.325 31.073 113.475 31.0476C113.583 31.0568 113.678 31.036 113.756 30.9876C113.899 30.946 114.01 30.8698 114.091 30.759C114.119 30.7244 114.149 30.6898 114.176 30.6552C114.232 30.5605 114.287 30.4659 114.342 30.3712C114.416 30.205 114.439 30.0227 114.414 29.8265C114.426 29.6972 114.403 29.5633 114.347 29.4271C114.324 29.2933 114.273 29.1663 114.188 29.0394C114.105 28.8547 113.982 28.6839 113.819 28.5315C113.712 28.4438 113.604 28.3584 113.498 28.273C113.38 28.213 113.26 28.153 113.14 28.0929C112.944 28.0145 112.759 27.9891 112.581 28.0191C112.452 28.0098 112.341 28.0329 112.247 28.0906C112.131 28.1183 112.039 28.1737 111.972 28.2568C111.833 28.3538 111.736 28.4854 111.683 28.6469C111.656 28.7624 111.63 28.8778 111.603 28.9932C111.607 29.1248 111.614 29.2563 111.619 29.3879L111.734 29.7919C111.806 29.9858 111.916 30.1635 112.069 30.3251C112.189 30.4913 112.341 30.6321 112.524 30.7452C112.586 30.7729 112.641 30.8029 112.699 30.8329Z" fill="#DB6800"/>
<path d="M111.956 50.0679L112.103 50.3726C112.193 50.5249 112.307 50.638 112.44 50.7096C112.521 50.7811 112.609 50.8227 112.701 50.8319C112.84 50.885 112.974 50.8919 113.107 50.8527C113.151 50.8435 113.195 50.8319 113.239 50.8227C113.341 50.7811 113.442 50.7396 113.544 50.698C113.703 50.6103 113.832 50.4811 113.932 50.3102C114.019 50.2133 114.082 50.0933 114.121 49.9524C114.183 49.8324 114.22 49.6985 114.229 49.5485C114.275 49.35 114.28 49.1422 114.245 48.9206C114.213 48.7867 114.181 48.6529 114.149 48.519C114.091 48.3989 114.033 48.2789 113.973 48.1589C113.865 47.9788 113.733 47.845 113.574 47.7595C113.477 47.6741 113.375 47.6257 113.264 47.6141C113.156 47.5656 113.05 47.5541 112.946 47.5795C112.777 47.5726 112.623 47.6187 112.48 47.7157C112.39 47.7919 112.297 47.868 112.207 47.9419C112.131 48.0504 112.057 48.1589 111.981 48.2651L111.829 48.6575C111.769 48.8537 111.75 49.0637 111.773 49.283C111.769 49.4885 111.803 49.6916 111.879 49.8947C111.903 49.9501 111.93 50.0102 111.956 50.0679Z" fill="#DB6800"/>
<path d="M94.8324 23.3436C95.3241 22.1202 92.9419 20.3405 92.3672 21.7717C91.8755 22.9951 94.2577 24.7748 94.8324 23.3436Z" fill="#DB6800"/>
</svg>
