<svg width="179" height="120" viewBox="0 0 179 120" fill="none" xmlns="http://www.w3.org/2000/svg">
<path d="M69.7368 49.2993H77.4583V108.805C77.4583 111.853 79.7126 114.381 82.6392 114.816C83.0743 117.745 85.6031 120 88.6508 120H118.031C121.381 120 124.11 117.273 124.11 113.921V17.1945C124.11 14.1631 121.9 11.625 118.927 11.1806C118.529 8.475 116.352 6.33003 113.553 6.03457L94.5204 4.02453C94.304 4.00126 94.083 3.9873 93.8643 3.9873H64.6186C61.2686 3.9873 58.542 6.71389 58.542 10.064V38.1022C58.542 41.1498 60.7963 43.6787 63.7253 44.116C64.158 47.045 66.6892 49.2993 69.7368 49.2993Z" fill="black"/>
<path d="M65.7495 45.3144H73.471V104.82C73.471 107.868 75.7253 110.396 78.6519 110.832C79.087 113.76 81.6158 116.015 84.6634 116.015H114.044C117.394 116.015 120.121 113.288 120.121 109.938V13.2095C120.121 10.1782 117.911 7.64002 114.937 7.19567C114.54 4.4877 112.362 2.34272 109.563 2.04959L90.5307 0.0372236C90.3144 0.0139593 90.0934 0 89.8747 0H60.6313C57.2813 0 54.5547 2.72659 54.5547 6.07666V34.1149C54.5547 37.1625 56.809 39.6914 59.738 40.1287C60.1707 43.0577 62.7019 45.3144 65.7495 45.3144Z" fill="black"/>
<path d="M62.4346 39.2352C62.4346 41.0661 63.9188 42.5504 65.7497 42.5504H76.235V104.818C76.235 106.648 77.7193 108.133 79.5502 108.133H81.3508V109.936C81.3508 111.767 82.8351 113.251 84.666 113.251H114.047C115.877 113.251 117.362 111.767 117.362 109.936V13.2094C117.362 11.5134 116.08 10.0896 114.396 9.91049L112.246 9.68482V8.09354C112.246 6.39757 110.966 4.97611 109.28 4.79698L90.2285 2.78228C90.1122 2.76832 89.9959 2.76367 89.8796 2.76367H60.6316C58.8007 2.76367 57.3164 4.24794 57.3164 6.07885V34.1171C57.3164 35.948 58.8007 37.4323 60.6316 37.4323H62.4346V39.2352Z" fill="white"/>
<path d="M84.6653 109.936V39.2355H65.749V11.1973H94.9947L114.046 13.2096V109.936H84.6653Z" fill="#DB5959"/>
<path d="M79.5471 104.82V34.1193H60.6309V6.08105H89.8765L108.928 8.09342V104.82H79.5471Z" fill="#F48989"/>
<path opacity="0.7" d="M89.8787 6.08105H80.666L99.7172 8.09342V104.82H108.928V8.09342L89.8787 6.08105Z" fill="#F48989"/>
<path d="M94.5828 42.2854C91.6747 43.7836 93.2544 50.9862 96.6579 49.2344C99.566 47.7385 97.9863 40.5335 94.5828 42.2854Z" fill="#D35959"/>
<path d="M91.7378 23.9201C91.2935 24.3366 90.9701 24.874 90.7677 25.5324C90.5211 26.1605 90.4187 26.8445 90.4606 27.5843C90.4094 28.2543 90.4955 28.9406 90.7211 29.6455C90.8933 30.0666 91.0678 30.4877 91.2399 30.9064C91.675 31.7207 92.245 32.3674 92.9545 32.8513C93.3151 33.0212 93.6734 33.191 94.034 33.3631C94.7924 33.5702 95.4997 33.54 96.1557 33.2724C96.6954 33.0793 97.1375 32.7443 97.4841 32.272C97.9285 31.8556 98.2518 31.3182 98.4542 30.6598C98.7008 30.0317 98.8032 29.3477 98.7613 28.6056C98.8148 27.9356 98.7264 27.2493 98.5008 26.5444C98.3286 26.1233 98.1541 25.7022 97.982 25.2811C97.5469 24.4669 96.9769 23.8201 96.2697 23.3385C95.9091 23.1687 95.5485 22.9965 95.1879 22.8267C94.4295 22.6197 93.7223 22.6499 93.0662 22.9198C92.5265 23.1129 92.0844 23.4479 91.7378 23.9201Z" fill="#D35959"/>
<path d="M107.429 51.7777C107.32 51.5125 107.213 51.2496 107.104 50.9867C106.831 50.4772 106.473 50.0701 106.029 49.7677C105.803 49.6607 105.577 49.5536 105.352 49.4466C104.877 49.3164 104.433 49.335 104.021 49.5048C103.684 49.6258 103.405 49.8351 103.188 50.1329C102.909 50.3935 102.707 50.7308 102.581 51.1449C102.425 51.5381 102.362 51.9685 102.388 52.4338C102.355 52.8525 102.411 53.2853 102.553 53.7273C102.66 53.9925 102.769 54.2554 102.879 54.5206C103.151 55.0301 103.509 55.4372 103.954 55.7396C104.179 55.8467 104.405 55.9537 104.633 56.0607C105.108 56.191 105.552 56.1724 105.964 56.0025C106.301 55.8816 106.58 55.6722 106.797 55.3744C107.076 55.1138 107.278 54.7765 107.404 54.3624C107.56 53.9692 107.622 53.5388 107.597 53.0735C107.625 52.6501 107.571 52.2174 107.429 51.7777Z" fill="#D35959"/>
<path d="M95.388 70.6022C95.4904 70.3114 95.5252 69.9927 95.495 69.6484C95.5299 69.3366 95.4997 69.0202 95.4066 68.6922C95.3787 68.3781 95.2879 68.0757 95.1344 67.7826C94.9878 67.3359 94.7529 66.9381 94.4341 66.5868C94.2108 66.389 93.9898 66.1936 93.7665 65.9959L93.0173 65.6399C92.7661 65.6097 92.5148 65.5771 92.2659 65.5469C92.0263 65.5981 91.7867 65.6516 91.547 65.7027C91.3307 65.833 91.1143 65.9633 90.898 66.0913C90.5676 66.3472 90.3187 66.6845 90.1535 67.1056C89.9883 67.3568 89.886 67.6476 89.8487 67.9826C89.7138 68.4247 89.6766 68.9016 89.7371 69.4204C89.7394 69.5088 89.7394 69.5949 89.7417 69.681C89.7673 70.1276 89.8813 70.5627 90.0837 70.9791C90.2233 71.3979 90.442 71.7724 90.7421 72.1004C90.9515 72.2866 91.1608 72.4704 91.3679 72.6541C91.8309 72.9566 92.3008 73.0962 92.7777 73.0729C92.8429 73.0589 92.908 73.0473 92.9731 73.0333C93.2128 72.9822 93.4524 72.9287 93.692 72.8775C93.9084 72.7472 94.1247 72.6192 94.3411 72.489C94.6714 72.2331 94.9204 71.8957 95.0832 71.4746C95.2484 71.228 95.3484 70.9349 95.388 70.6022Z" fill="#D35959"/>
<path d="M91.2485 57.1862C92.4884 56.5488 91.8138 53.4779 90.3644 54.2246C89.1244 54.8644 89.7968 57.933 91.2485 57.1862Z" fill="#D35959"/>
<path d="M92.4351 88.502C91.1951 89.1394 91.8698 92.2103 93.3192 91.4635C94.5591 90.8261 93.8868 87.7552 92.4351 88.502Z" fill="#D35959"/>
<path d="M102.121 40.163C102.491 40.4096 102.891 40.3561 103.168 40.1281C103.475 39.8745 103.64 39.4046 103.591 38.9137C103.549 38.4763 103.33 37.9994 102.96 37.7575C102.893 37.7132 102.823 37.669 102.756 37.6248C102.432 37.4131 102.088 37.455 101.844 37.6551C101.709 37.7714 101.609 37.9203 101.544 38.1064C101.479 38.2925 101.455 38.4949 101.476 38.7113C101.481 38.8113 101.483 38.909 101.488 39.0068C101.506 39.4371 101.769 39.928 102.121 40.163Z" fill="#D35959"/>
<path d="M89.2506 15.5868C89.4577 15.9707 89.7275 16.2778 90.0602 16.5058C90.2324 16.5872 90.4022 16.6663 90.572 16.7477C90.9303 16.8454 91.2653 16.8315 91.5747 16.7035C91.8306 16.6128 92.04 16.4546 92.2029 16.2313C92.4122 16.0335 92.5658 15.7799 92.6612 15.4682C92.7775 15.1704 92.8264 14.847 92.8077 14.4957C92.831 14.1793 92.7915 13.8536 92.6844 13.521C92.603 13.3232 92.5216 13.1231 92.4402 12.9231C92.2331 12.5392 91.9632 12.2321 91.6282 12.0041C91.4584 11.9227 91.2863 11.8436 91.1164 11.7622C90.7582 11.6645 90.4231 11.6784 90.1114 11.8064C89.8555 11.8971 89.6461 12.0553 89.4833 12.2786C89.2716 12.4764 89.1203 12.73 89.025 13.0417C88.9086 13.3395 88.8598 13.6629 88.8784 14.0142C88.8528 14.3306 88.8947 14.6563 89.0017 14.9889C89.0878 15.189 89.1692 15.3891 89.2506 15.5868Z" fill="#D35959"/>
<path d="M100.608 79.0218C100.432 78.6914 100.199 78.4262 99.9105 78.2308C99.5336 77.8376 99.1102 77.5841 98.6379 77.4677C98.3425 77.4305 98.0493 77.3956 97.7539 77.3584L96.9094 77.5422C96.4697 77.7004 96.1114 77.9726 95.8276 78.3564C95.4647 78.6961 95.2018 79.1335 95.0389 79.6686C95.0133 79.7244 94.9808 79.7825 94.9645 79.8454C94.7202 80.5386 94.6364 81.2947 94.7086 82.1136L94.9272 83.2373C95.139 83.9608 95.4879 84.6076 95.9741 85.1799C96.3394 85.6242 96.7512 85.929 97.2118 86.0918C97.6538 86.3524 98.1005 86.4617 98.5518 86.4129C99.0241 86.4059 99.4382 86.2663 99.7918 85.9965C100.218 85.7964 100.56 85.4777 100.825 85.0426C101.218 84.447 101.46 83.7538 101.551 82.9581C101.599 82.5231 101.576 82.0648 101.551 81.6088C101.478 81.2389 101.406 80.869 101.334 80.4991C101.195 79.9454 100.953 79.4545 100.608 79.0218Z" fill="#D35959"/>
<path d="M90.1112 40.7333C90.1926 40.5705 90.2717 40.4076 90.3532 40.2425L90.4788 39.6748C90.5207 39.3933 90.5021 39.1048 90.4276 38.807C90.3927 38.5255 90.302 38.2557 90.1554 37.9951C90.1066 37.9207 90.0577 37.8462 90.0089 37.7718L89.7436 37.3856C89.5878 37.1948 89.411 37.0645 89.2132 36.9947C89.0876 36.9133 88.9596 36.8738 88.8293 36.8808C88.6293 36.8365 88.4432 36.8552 88.271 36.9366C88.2128 36.9599 88.157 36.9831 88.0988 37.0064C87.9686 37.0855 87.8383 37.1622 87.708 37.2413C87.5079 37.3949 87.359 37.5996 87.2613 37.8532C87.1613 38.0044 87.1008 38.1789 87.0775 38.3813C87.0147 38.5558 86.9938 38.7489 87.0124 38.9559C86.9915 39.2351 87.0264 39.5236 87.1217 39.8167C87.1939 39.9912 87.266 40.168 87.3381 40.3448C87.4428 40.4984 87.5475 40.6496 87.6522 40.8008C87.836 41.0265 88.0453 41.18 88.2803 41.2638C88.4292 41.3615 88.5804 41.4057 88.734 41.3987C88.8922 41.4429 89.0411 41.4359 89.176 41.3801C89.4086 41.3545 89.611 41.2591 89.7832 41.0986C89.8925 40.9776 90.0019 40.8543 90.1112 40.7333Z" fill="#D35959"/>
<path d="M97.3579 19.2091C97.4626 19.3626 97.5672 19.5138 97.6719 19.6651C97.8557 19.8907 98.0651 20.0443 98.3001 20.128C98.449 20.2257 98.6002 20.2699 98.7537 20.263C98.9119 20.3048 99.0608 20.3002 99.1981 20.2443C99.4307 20.2187 99.6331 20.1234 99.8053 19.9628C99.9146 19.8395 100.024 19.7186 100.133 19.5953C100.215 19.4324 100.294 19.2696 100.375 19.1067L100.501 18.5391C100.543 18.2576 100.524 17.9691 100.45 17.6713C100.415 17.3921 100.324 17.1199 100.178 16.8594C100.129 16.7849 100.08 16.7105 100.031 16.636L99.7657 16.2498C99.6099 16.0591 99.433 15.9288 99.2353 15.859C99.1097 15.7776 98.9817 15.738 98.8538 15.745C98.6537 15.7008 98.4676 15.7194 98.2954 15.8008C98.2396 15.8241 98.1814 15.8474 98.1233 15.8706C97.993 15.9497 97.8627 16.0265 97.7324 16.1056C97.5323 16.2592 97.3835 16.4639 97.2857 16.7175C97.1857 16.8687 97.1252 17.0432 97.102 17.2456C97.0391 17.42 97.0182 17.6131 97.0368 17.8202C97.0159 18.0994 97.0508 18.3855 97.1462 18.681C97.2159 18.8578 97.2881 19.0346 97.3579 19.2091Z" fill="#D35959"/>
<path d="M100.815 61.4198C99.1938 62.255 100.075 66.2704 101.972 65.2933C103.593 64.4581 102.711 60.4427 100.815 61.4198Z" fill="#D35959"/>
</svg>
