<svg width="178" height="120" viewBox="0 0 178 120" fill="none" xmlns="http://www.w3.org/2000/svg">
<path d="M54.2848 100.342C55.8616 102.318 57.6621 104.141 59.6378 105.762C62.4849 109.25 65.7953 112.072 69.4816 114.149C73.177 116.233 77.2644 117.727 81.6284 118.596C85.7388 119.417 90.0314 119.882 94.3378 119.972C94.8104 119.991 95.283 120 95.7556 120C100.581 120 105.286 119.018 109.742 117.084C114.417 115.05 118.622 112.337 122.242 109.024C125.903 105.67 128.888 101.767 131.113 97.4213C133.448 92.8544 134.633 88.1308 134.633 83.3772C134.633 79.4719 134.086 75.5482 133.012 71.7167C131.892 67.7123 130.105 64.0077 127.698 60.6949C126.133 58.5394 124.227 56.566 122.03 54.8324C120.476 52.8406 118.661 51.0447 116.603 49.4656L126.131 39.7301C127.189 38.6512 127.798 37.2242 127.848 35.7142L128.512 15.2404C128.565 13.6175 127.947 12.0176 126.818 10.8534C125.826 9.8298 124.632 9.21196 123.374 9.05059C123.182 7.83106 122.617 6.67839 121.746 5.777C120.619 4.61511 119.044 3.95117 117.41 3.95117L56.5186 4.08719C53.2059 4.09641 50.5109 6.79596 50.5109 10.1087V30.8453C50.5109 32.4452 51.1633 34.0082 52.2999 35.1286C53.1989 36.0162 54.324 36.5787 55.6449 36.7839C55.834 38.0702 56.4403 39.2805 57.367 40.1981C58.5105 41.33 60.168 41.9985 61.6711 41.9386L70.5812 41.8349L69.1012 43.2596C67.9163 44.403 67.2454 46.0006 67.2592 47.6443L67.3929 64.7454C67.3929 66.3845 68.073 67.9728 69.2603 69.1071C69.4701 69.3076 69.696 69.4921 69.9334 69.6604C69.6406 69.7549 69.3571 69.8747 69.0781 70.0154L50.5985 79.4558C48.0603 80.7514 46.7716 83.6861 47.5347 86.4317C49.0816 91.9853 51.3501 96.6651 54.2848 100.342ZM85.6236 75.6404C87.7168 75.6127 89.734 75.8156 91.6106 76.2513C91.6083 76.3896 91.6037 76.5326 91.5967 76.6778C91.5898 76.83 91.5875 76.9867 91.5921 77.1619C91.6336 78.4852 91.2694 78.7872 91.0896 78.9371C90.1882 79.6909 88.6966 80.4102 85.1418 79.2806C84.4386 79.0569 83.7563 78.7987 83.1131 78.5152C82.9033 78.4207 82.6935 78.3238 82.4837 78.2224C82.0964 77.2588 81.4671 76.4058 80.6625 75.758C82.101 75.7096 83.754 75.6704 85.6236 75.6404Z" fill="black"/>
<path d="M50.3332 96.3933C51.9101 98.369 53.7106 100.192 55.6862 101.813C58.5333 105.301 61.8438 108.123 65.5301 110.2C69.2255 112.284 73.3129 113.778 77.6769 114.647C81.7873 115.468 86.0799 115.933 90.3863 116.023C90.8589 116.042 91.3314 116.051 91.804 116.051C96.6291 116.051 101.334 115.069 105.791 113.132C110.463 111.099 114.671 108.386 118.29 105.073C121.951 101.719 124.936 97.8157 127.161 93.4701C129.496 88.9032 130.681 84.1796 130.681 79.426C130.681 75.5207 130.135 71.597 129.061 67.7655C127.94 63.7612 126.154 60.0565 123.747 56.7437C122.182 54.5882 120.275 52.6171 118.078 50.8812C116.524 48.8894 114.71 47.0935 112.651 45.5144L122.179 35.7789C123.237 34.7 123.846 33.273 123.894 31.763L124.561 11.2893C124.614 9.6663 123.996 8.06639 122.866 6.9022C121.875 5.87862 120.681 5.25849 119.422 5.09942C119.231 3.87989 118.666 2.72722 117.794 1.82583C116.667 0.663939 115.093 0 113.458 0L52.5694 0.136015C49.2566 0.145237 46.5617 2.84479 46.5617 6.15987V26.8964C46.5617 28.4963 47.2141 30.0594 48.3506 31.1798C49.2497 32.0673 50.3747 32.6298 51.6957 32.835C51.8847 34.1214 52.491 35.3317 53.4178 36.2492C54.5612 37.3811 56.2188 38.0497 57.7219 37.9897L66.632 37.886L65.152 39.3107C63.967 40.4541 63.2962 42.0518 63.31 43.6955L63.4437 60.7965C63.4437 62.4356 64.1238 64.024 65.3111 65.1582C65.5208 65.3588 65.7468 65.5432 65.9842 65.7115C65.6914 65.806 65.4079 65.9259 65.1289 66.0665L46.6493 75.5069C44.1111 76.8025 42.8224 79.7372 43.5855 82.4828C45.1301 88.0341 47.4008 92.714 50.3332 96.3933ZM81.6721 71.6892C83.7653 71.6616 85.7825 71.8644 87.659 72.3002C87.6567 72.4385 87.6521 72.5814 87.6452 72.7266C87.6383 72.8788 87.636 73.0356 87.6406 73.2108C87.6821 74.534 87.3201 74.836 87.138 74.9859C86.2366 75.7397 84.7451 76.459 81.1926 75.3294C80.4894 75.1058 79.807 74.8476 79.1638 74.564C78.9541 74.4695 78.7443 74.3727 78.5345 74.2712C78.1495 73.3076 77.5178 72.4546 76.7133 71.8068C78.1495 71.7584 79.8024 71.7192 81.6721 71.6892Z" fill="black"/>
<path d="M57.6345 99.8672C60.3041 103.189 63.4117 105.861 66.8743 107.814C70.3116 109.75 74.1269 111.147 78.212 111.961C82.1633 112.749 86.313 113.197 90.4925 113.287C90.9305 113.303 91.3663 113.312 91.802 113.312C96.2513 113.312 100.581 112.408 104.696 110.622C109.09 108.711 113.041 106.165 116.437 103.056C119.858 99.9226 122.645 96.2778 124.72 92.225C126.855 88.05 127.938 83.746 127.938 79.4281C127.938 75.7741 127.426 72.0971 126.419 68.5054C125.388 64.8191 123.742 61.4026 121.527 58.3549C120.045 56.3124 118.226 54.4566 116.116 52.829C114.06 50.1203 111.476 47.8057 108.417 45.9291L120.22 33.8676C120.794 33.282 121.128 32.4982 121.154 31.6775L121.82 11.2038C121.85 10.3139 121.516 9.44941 120.895 8.81083C120.273 8.16994 119.475 7.72501 118.53 7.81261L116.695 7.81722L116.75 6.13432C116.78 5.24446 116.446 4.37996 115.826 3.73907C115.206 3.10049 114.357 2.74316 113.468 2.74316H113.461L52.5743 2.87457C50.7623 2.87918 49.2961 4.34768 49.2961 6.15968V26.8962C49.2961 27.7723 49.6465 28.616 50.2712 29.2315C50.896 29.8494 51.7051 30.1583 52.6181 30.1814L54.3655 30.1629V31.968C54.3655 32.844 54.7159 33.6878 55.3407 34.3033C55.9654 34.9211 56.8922 35.2738 57.6875 35.2531L73.5045 35.071L67.0518 41.2816C66.4017 41.9086 66.0375 42.7731 66.0467 43.6745L66.1804 60.7963C66.1804 61.6954 66.5493 62.5553 67.1971 63.1754C67.8472 63.7932 68.7186 64.116 69.62 64.0768C70.1225 64.0537 70.662 64.033 71.236 64.0099L71.2521 65.8888C71.2591 66.781 71.6302 67.6339 72.278 68.2472C72.9281 68.8604 73.7996 69.1785 74.6894 69.1439C76.5245 69.061 78.839 68.9941 81.6377 68.9503C84.1436 68.9157 86.5988 69.1877 88.8765 69.7802C89.3237 69.8932 89.764 70.0361 90.2044 70.209C90.375 70.9997 90.4349 71.8758 90.3842 72.8578C90.3796 72.9454 90.3796 73.0354 90.3819 73.1253C90.4557 75.5067 89.575 76.521 88.8995 77.0835C86.8247 78.8172 84.1298 79.133 80.3698 77.9365C79.5675 77.6829 78.7906 77.3878 78.0598 77.0628C77.4627 76.7977 76.868 76.5049 76.2363 76.1407C76.2109 76.0554 76.1925 75.9747 76.1764 75.8917C75.985 74.8727 75.3257 74.0059 74.3989 73.5495C73.7949 73.2498 73.1287 73.1506 72.4763 73.2451C72.0682 72.8071 71.7455 72.3691 71.5149 71.9403C71.3098 71.5646 71.1761 71.198 71.1069 70.8222C70.9156 69.8033 70.2562 68.9342 69.3272 68.4777C68.3981 68.0166 67.3077 68.0258 66.3833 68.4984L47.9036 77.9388C46.5135 78.6489 45.815 80.2395 46.2323 81.7426C47.6754 86.9366 49.7779 91.2868 52.4797 94.6779C53.9897 96.5844 55.7234 98.325 57.6345 99.8672Z" fill="white"/>
<path d="M99.6608 50.1799C104.182 50.5349 108.013 51.6207 111.16 53.435C114.304 55.2539 116.875 57.5362 118.869 60.2819C120.863 63.0298 122.327 66.0637 123.256 69.388C124.187 72.71 124.653 76.0573 124.653 79.4231C124.653 83.2362 123.699 87.0008 121.794 90.7239C119.888 94.447 117.361 97.7483 114.217 100.628C111.07 103.509 107.457 105.833 103.382 107.606C99.3035 109.376 95.0501 110.174 90.6193 109.999C86.5411 109.909 82.6197 109.487 78.8551 108.733C75.0882 107.984 71.6302 106.718 68.4857 104.946C65.3389 103.175 62.5471 100.759 60.1103 97.7022C57.6713 94.6453 55.7901 90.7239 54.46 85.938L72.9396 76.4977C73.2047 77.9177 73.9355 79.2687 75.1343 80.5551C76.3307 81.8414 77.7255 82.948 79.3208 83.8771C80.9161 84.8084 82.622 85.5623 84.4386 86.1386C86.2552 86.7172 87.9174 87.0008 89.4228 87.0008C91.9932 87.0008 94.211 86.2262 96.0691 84.6747C97.9318 83.1255 98.8147 80.9331 98.7271 78.0953C98.9047 74.6395 98.0839 72.0276 96.2673 70.2525C94.4507 68.482 92.2584 67.2625 89.6879 66.5985C87.1174 65.9323 84.4133 65.6233 81.58 65.6671C78.7421 65.7109 76.393 65.7801 74.5326 65.8654L74.3989 48.716L92.2122 31.5665L57.6482 31.9653V11.2265L118.535 11.0928L117.871 31.5665L99.6608 50.1799Z" fill="#5C740E"/>
<path d="M94.5915 45.1102C99.1123 45.4629 102.944 46.551 106.091 48.3653C109.235 50.1842 111.805 52.4665 113.8 55.2122C115.794 57.9602 117.255 60.994 118.187 64.3183C119.118 67.6403 119.584 70.9876 119.584 74.3534C119.584 78.1665 118.629 81.9311 116.725 85.6542C114.819 89.3774 112.292 92.6786 109.147 95.558C106.001 98.4397 102.388 100.763 98.3123 102.536C94.2342 104.307 89.9808 105.104 85.5499 104.929C81.4718 104.839 77.5527 104.417 73.7858 103.664C70.0188 102.914 66.5608 101.649 63.4163 99.8759C60.2695 98.1054 57.4778 95.6871 55.041 92.6325C52.602 89.5756 50.7208 85.6542 49.3906 80.8683L67.8703 71.428C68.1354 72.8481 68.8662 74.199 70.0626 75.4831C71.2591 76.7694 72.6538 77.876 74.2491 78.8051C75.8444 79.7364 77.5504 80.4903 79.367 81.0666C81.1813 81.6429 82.8458 81.9288 84.3512 81.9288C86.9216 81.9288 89.1394 81.1542 90.9975 79.6004C92.8602 78.0535 93.7431 75.8588 93.6555 73.021C93.833 69.5652 93.0123 66.951 91.1957 65.1782C89.3791 63.4077 87.1844 62.1882 84.6163 61.5242C82.0458 60.858 79.3416 60.549 76.5084 60.5929C73.6705 60.6367 71.3237 60.7058 69.4632 60.7911L69.3295 43.6417L87.1429 26.4922L52.5789 26.891V6.1591L113.465 6.02539L112.801 26.4991L94.5915 45.1102Z" fill="#8DC725"/>
<g opacity="0.7">
<path d="M79.3696 81.0713C77.553 80.4949 75.847 79.7411 74.2517 78.8097C72.6564 77.8807 71.2617 76.7741 70.0652 75.4877C68.8687 74.2013 68.1356 72.8504 67.8728 71.4326L60.6387 75.1281C60.7424 75.248 60.8277 75.3701 60.9384 75.49C62.1348 76.7764 63.5319 77.883 65.1249 78.812C66.7202 79.7434 68.4261 80.4972 70.2427 81.0736C72.0593 81.6499 73.7192 81.9358 75.2269 81.9358C76.7507 81.9358 78.1362 81.6291 79.4111 81.0828C79.3972 81.0759 79.3834 81.0759 79.3696 81.0713Z" fill="#8DC725"/>
<path d="M78.0182 26.4961L52.5811 26.7912V26.8949L77.9075 26.6044L78.0182 26.4961Z" fill="#8DC725"/>
<path d="M69.4648 60.6963V60.7954C69.813 60.7793 70.1979 60.7654 70.5806 60.7493C70.2141 60.7193 69.836 60.7147 69.4648 60.6963Z" fill="#8DC725"/>
<path d="M118.189 64.3202C117.26 60.9959 115.796 57.9598 113.802 55.2141C111.807 52.4662 109.237 50.1839 106.092 48.3673C102.946 46.5507 99.1142 45.4648 94.5934 45.1121L112.806 26.5011L113.47 6.02734L104.34 6.04809L103.676 26.5011L85.4642 45.1121C89.985 45.4648 93.8165 46.553 96.9633 48.3673C100.108 50.1862 102.678 52.4685 104.672 55.2141C106.666 57.9621 108.128 60.9959 109.059 64.3202C109.991 67.6422 110.456 70.9896 110.456 74.3554C110.456 78.1684 109.502 81.9331 107.598 85.6562C105.691 89.3793 103.165 92.6806 100.02 95.5599C96.8734 98.4416 93.2609 100.765 89.1851 102.538C86.6561 103.638 84.0511 104.316 81.3838 104.664C82.7624 104.774 84.1341 104.899 85.5495 104.931C89.9827 105.106 94.2361 104.309 98.3119 102.538C102.388 100.765 106 98.4393 109.147 95.5599C112.292 92.6783 114.816 89.3793 116.725 85.6562C118.629 81.9331 119.583 78.1684 119.583 74.3554C119.583 70.9896 119.12 67.6422 118.189 64.3202Z" fill="#8DC725"/>
</g>
<path d="M104.814 62.4406C106.167 60.6516 102.728 56.8962 101.144 58.9895C99.793 60.7784 103.23 64.5338 104.814 62.4406Z" fill="#6A9B00"/>
<path d="M113.104 77.73C113.366 77.836 113.631 77.9444 113.894 78.0527C114.445 78.1772 114.955 78.1449 115.425 77.9536C115.81 77.8153 116.124 77.5847 116.363 77.262C116.677 76.9761 116.9 76.6142 117.032 76.1716C117.198 75.7497 117.258 75.2909 117.214 74.7976C117.239 74.3503 117.163 73.8939 116.986 73.4282C116.852 73.1516 116.721 72.8726 116.587 72.596C116.257 72.0611 115.833 71.6393 115.312 71.3303C115.049 71.222 114.784 71.1159 114.521 71.0076C113.97 70.8831 113.459 70.9154 112.991 71.1067C112.606 71.245 112.292 71.4756 112.05 71.796C111.736 72.0819 111.513 72.4438 111.381 72.8888C111.215 73.3106 111.153 73.7694 111.199 74.2627C111.174 74.71 111.25 75.1664 111.428 75.6321C111.561 75.9088 111.693 76.1877 111.826 76.4643C112.158 76.9992 112.585 77.4211 113.104 77.73Z" fill="#6A9B00"/>
<path d="M99.7789 71.3791C99.9587 71.363 100.139 71.3469 100.318 71.3307C100.662 71.2431 100.929 71.0794 101.123 70.842C101.287 70.6576 101.381 70.4409 101.407 70.1988C101.483 69.9544 101.483 69.6916 101.409 69.4127C101.358 69.1337 101.238 68.8663 101.051 68.6104C100.915 68.3591 100.722 68.1309 100.471 67.9257C100.305 67.8128 100.141 67.6975 99.9749 67.5845C99.6176 67.3863 99.2441 67.2756 98.8568 67.2549C98.677 67.271 98.4972 67.2872 98.3173 67.3033C97.9738 67.3909 97.7064 67.5546 97.5128 67.792C97.3491 67.9765 97.2546 68.1908 97.2292 68.4352C97.1532 68.6796 97.1531 68.9424 97.2269 69.2213C97.2776 69.5003 97.3952 69.7677 97.5843 70.0236C97.7203 70.2749 97.9139 70.5031 98.1652 70.706C98.3312 70.8189 98.4949 70.9342 98.6608 71.0472C99.0182 71.2477 99.3916 71.3584 99.7789 71.3791Z" fill="#6A9B00"/>
<path d="M100.782 54.41C100.996 54.4123 101.211 54.4146 101.425 54.4169L102.001 54.2693C102.153 54.1748 102.303 54.0826 102.455 53.9881C102.561 53.8567 102.668 53.7276 102.774 53.5962C102.831 53.4371 102.887 53.2757 102.944 53.1167C103.004 52.8446 102.979 52.5657 102.87 52.2798C102.843 52.0816 102.76 51.8902 102.624 51.7058C102.49 51.4245 102.283 51.1663 102.006 50.9335C101.964 50.8897 101.923 50.8459 101.881 50.8044C101.655 50.59 101.388 50.4217 101.081 50.2995C100.807 50.1474 100.512 50.0552 100.192 50.0206C99.991 50.0183 99.7881 50.016 99.5876 50.0137C99.1911 50.0644 98.8683 50.1981 98.6193 50.4171C98.5894 50.4517 98.5594 50.4863 98.5317 50.5209C98.4257 50.6523 98.3196 50.7837 98.2136 50.9128C98.156 51.0718 98.1006 51.2332 98.043 51.3923C97.9831 51.6666 98.0061 51.9432 98.1168 52.2291C98.1444 52.4274 98.2274 52.6187 98.3634 52.8054C98.4441 52.9968 98.5755 53.1743 98.7553 53.3334C98.8821 53.504 99.0504 53.6538 99.2556 53.776C99.4193 53.9212 99.6129 54.0365 99.8342 54.1172C100.127 54.2739 100.443 54.3731 100.782 54.41Z" fill="#6A9B00"/>
<path d="M112.128 57.2953C112.504 56.4331 110.685 55.179 110.245 56.1887C109.871 57.0509 111.69 58.305 112.128 57.2953Z" fill="#6A9B00"/>
<path d="M79.7337 49.2131C79.5816 48.2932 77.3246 48.0673 77.5021 49.1439C77.6543 50.0614 79.9112 50.2897 79.7337 49.2131Z" fill="#6A9B00"/>
<path d="M106.385 71.1713C106.443 71.1851 106.498 71.1989 106.556 71.2151C106.826 71.2819 107.052 71.1851 107.176 71.0076C107.243 70.9062 107.28 70.7909 107.282 70.6595C107.287 70.5281 107.257 70.3967 107.195 70.2607C107.169 70.1984 107.146 70.1362 107.121 70.0762C107.012 69.8065 106.724 69.5483 106.429 69.4722C106.12 69.3916 105.858 69.5068 105.717 69.7097C105.562 69.9333 105.553 70.2653 105.696 70.5673C105.821 70.837 106.077 71.0952 106.385 71.1713Z" fill="#6A9B00"/>
<path d="M104.32 81.6284C104.437 81.6906 104.555 81.7529 104.675 81.8174C104.928 81.9027 105.17 81.9096 105.401 81.8428C105.59 81.7967 105.749 81.7021 105.88 81.5615C106.044 81.4416 106.169 81.2803 106.256 81.0797C106.358 80.8884 106.413 80.6763 106.418 80.4411C106.454 80.2313 106.443 80.0146 106.385 79.7864C106.339 79.6504 106.291 79.5121 106.245 79.3761C106.118 79.1086 105.943 78.8896 105.714 78.7213C105.597 78.6591 105.477 78.5968 105.359 78.5323C105.108 78.447 104.866 78.4401 104.636 78.5069C104.446 78.553 104.287 78.6476 104.156 78.7882C103.992 78.9081 103.868 79.0671 103.78 79.27C103.679 79.4613 103.626 79.6734 103.619 79.9086C103.582 80.1184 103.594 80.3351 103.651 80.5633C103.697 80.6993 103.746 80.8376 103.792 80.9737C103.914 81.2411 104.091 81.4601 104.32 81.6284Z" fill="#6A9B00"/>
<path d="M85.2713 48.3185C85.3728 48.2332 85.4719 48.1479 85.5733 48.0649C85.737 47.8689 85.82 47.6569 85.82 47.4332C85.8292 47.2534 85.7808 47.0828 85.6748 46.9261C85.601 46.7462 85.4719 46.5872 85.2898 46.4512C85.1238 46.3036 84.9209 46.193 84.6812 46.1169C84.476 46.0224 84.2478 45.9647 83.9965 45.9463C83.8397 45.9463 83.6853 45.9463 83.5308 45.9463C83.2173 45.9763 82.9383 46.0662 82.694 46.2137C82.5925 46.299 82.4911 46.3843 82.392 46.4696C82.2283 46.6656 82.1476 46.8753 82.1476 47.099C82.1384 47.2788 82.1868 47.4494 82.2928 47.6061C82.3666 47.786 82.4957 47.945 82.6778 48.081C82.8438 48.2286 83.0467 48.3392 83.2887 48.4153C83.4939 48.5098 83.7222 48.5675 83.9757 48.5859C84.1302 48.5859 84.287 48.5859 84.4414 48.5859C84.748 48.5559 85.027 48.466 85.2713 48.3185Z" fill="#6A9B00"/>
<path d="M91.4515 54.2205C91.8434 54.2504 92.1939 54.1928 92.5051 54.0429C92.6826 53.9323 92.8578 53.8193 93.0353 53.7087L93.4065 53.2453C93.5701 52.9733 93.6347 52.6782 93.6047 52.3623C93.6393 52.0327 93.5724 51.6984 93.4065 51.3572C93.3926 51.318 93.3857 51.2742 93.3627 51.235C93.1621 50.7809 92.8486 50.3636 92.4198 49.9855L91.7651 49.5199C91.304 49.2501 90.806 49.0818 90.2712 49.0081C89.8608 48.9458 89.492 48.9758 89.1646 49.098C88.8004 49.1602 88.5076 49.3032 88.284 49.5268C88.0304 49.7389 87.8736 49.9901 87.8091 50.2829C87.6754 50.5711 87.6408 50.8823 87.7054 51.2166C87.7768 51.6869 87.9774 52.141 88.3071 52.579C88.4892 52.8188 88.7197 53.0378 88.9502 53.2545C89.1669 53.409 89.3813 53.5611 89.598 53.7156C89.9369 53.9277 90.3012 54.066 90.6954 54.1328C90.949 54.2205 91.2003 54.2481 91.4515 54.2205Z" fill="#6A9B00"/>
<path d="M112.85 67.1305L113.152 67.2712C113.318 67.3334 113.475 67.3519 113.625 67.3288C113.733 67.3357 113.827 67.3173 113.906 67.2735C114.049 67.2343 114.159 67.1651 114.24 67.0614C114.268 67.0291 114.298 66.9968 114.325 66.9646C114.381 66.8769 114.436 66.7893 114.491 66.7017C114.565 66.5473 114.588 66.3813 114.563 66.2015C114.574 66.0816 114.551 65.9594 114.496 65.8326C114.473 65.7105 114.422 65.5906 114.337 65.4753C114.254 65.3047 114.132 65.1479 113.968 65.0073C113.862 64.9266 113.754 64.8482 113.648 64.7676C113.528 64.7122 113.41 64.6569 113.29 64.6016C113.094 64.5301 112.91 64.5071 112.732 64.5324C112.603 64.5232 112.493 64.5463 112.398 64.5993C112.283 64.6246 112.191 64.6753 112.124 64.7514C111.985 64.8413 111.889 64.9612 111.836 65.1111C111.808 65.2171 111.783 65.3232 111.755 65.4315C111.759 65.5537 111.766 65.6736 111.771 65.7957L111.889 66.1669C111.96 66.3444 112.071 66.5081 112.223 66.6579C112.343 66.8101 112.495 66.9392 112.677 67.0452C112.737 67.0752 112.795 67.1029 112.85 67.1305Z" fill="#6A9B00"/>
<path d="M112.11 84.8601L112.258 85.1414C112.347 85.282 112.46 85.3857 112.594 85.4526C112.675 85.5194 112.762 85.5563 112.855 85.5655C112.993 85.614 113.127 85.6209 113.258 85.584C113.302 85.5748 113.346 85.5656 113.389 85.5563C113.491 85.5171 113.592 85.478 113.694 85.4411C113.853 85.3604 113.982 85.2405 114.081 85.0814C114.169 84.9915 114.231 84.8832 114.27 84.7518C114.332 84.6434 114.369 84.5189 114.378 84.3806C114.425 84.1985 114.429 84.0048 114.395 83.802C114.362 83.6798 114.33 83.5553 114.298 83.4331C114.24 83.3225 114.18 83.2118 114.123 83.1011C114.014 82.9328 113.883 82.8107 113.724 82.7323C113.627 82.6539 113.525 82.6078 113.415 82.5986C113.306 82.5548 113.2 82.5432 113.097 82.5663C112.928 82.5617 112.774 82.6032 112.633 82.6908C112.541 82.76 112.451 82.8314 112.359 82.9006C112.283 82.9997 112.209 83.0988 112.133 83.2003L111.981 83.5622C111.921 83.7443 111.902 83.9357 111.923 84.1408C111.919 84.3299 111.953 84.5166 112.029 84.7034C112.057 84.7541 112.082 84.8071 112.11 84.8601Z" fill="#6A9B00"/>
<path d="M95.0069 60.2256C95.498 59.0983 93.1188 57.4569 92.5448 58.7779C92.0538 59.9052 94.4329 61.5443 95.0069 60.2256Z" fill="#6A9B00"/>
</svg>
