<svg width="179" height="120" viewBox="0 0 179 120" fill="none" xmlns="http://www.w3.org/2000/svg">
<path d="M89.333 120C122.47 120 149.333 93.1371 149.333 60C149.333 26.8629 122.47 0 89.333 0C56.1959 0 29.333 26.8629 29.333 60C29.333 93.1371 56.1959 120 89.333 120Z" fill="#EBF6FF"/>
<path d="M122.643 51.5521C122.44 49.7215 122.116 47.916 121.651 46.1349C120.37 41.2241 118.14 36.7608 115.255 32.6108C112.944 29.2865 110.18 26.3953 106.867 24.0557C98.4993 18.148 89.1861 15.0684 78.9461 14.8149C76.6056 14.7566 74.2668 14.8246 71.9316 15.0353C70.1425 15.1965 68.3626 15.4154 66.5903 15.7081C63.7812 16.1726 61.0468 16.9131 58.3813 17.91C56.8897 18.4686 55.4743 19.183 54.1527 20.0762C53.5959 20.4519 53.0758 20.8709 52.6626 21.4069C52.2948 21.8843 52.0833 22.388 52.0352 22.924C52.0012 23.2944 52.0475 23.6803 52.1756 24.0829C52.2016 24.1665 52.2304 24.2485 52.26 24.3294C52.286 24.4006 52.3136 24.4709 52.342 24.5404C52.359 24.582 52.3763 24.6236 52.3942 24.6646C52.3994 24.6767 52.405 24.6887 52.4106 24.7007C52.4358 24.7575 52.4604 24.815 52.4874 24.8706C52.5052 24.9076 52.5255 24.9433 52.5439 24.9797C52.5507 24.9925 52.5574 25.0054 52.5641 25.0183C52.9278 25.7152 53.4268 26.3168 54.0733 26.8208C54.6702 27.2862 55.3202 27.6607 56.0059 27.9745C56.2796 28.1 56.5557 28.2178 56.8346 28.3282C58.0302 28.8047 59.2666 29.1622 60.5152 29.4776C60.5249 29.4802 60.5334 29.4819 60.5431 29.4846C62.5586 29.9924 64.6011 30.3699 66.6486 30.7209C67.7865 30.917 68.9326 31.0702 70.086 31.1523C70.1425 31.1567 70.1994 31.1602 70.2568 31.1637C70.2568 31.1637 70.2577 31.1628 70.2577 31.1637C71.5796 31.244 72.8989 31.1681 74.2196 31.0905C74.5534 31.0714 74.8889 31.0696 75.2215 31.0406C75.5814 31.0084 75.5963 30.9779 75.5717 30.6292C75.5228 29.9514 75.3209 29.3196 75.0176 28.7156C74.9619 28.604 74.9103 28.49 74.8675 28.3731C74.8423 28.3051 74.8596 28.2283 74.9191 28.1832C74.9965 28.124 75.0803 28.1466 75.1474 28.2075C75.3355 28.3784 75.4741 28.5891 75.5858 28.8141C76.2322 30.122 76.3717 31.4743 75.8993 32.8651C75.5916 33.7694 75.0185 34.471 74.1871 34.951C74.0608 35.0234 73.8987 35.1611 73.7853 34.9823C73.6869 34.8282 73.8689 34.7382 73.9735 34.66C74.7864 34.0484 75.1855 33.1892 75.4322 32.2395C75.5201 31.8995 75.4853 31.8638 75.1219 31.8629C73.9656 31.8612 72.8083 31.8691 71.6523 31.8585C70.4951 31.848 69.344 31.7349 68.1982 31.5866C68.0927 31.5725 67.9881 31.5587 67.8826 31.5447C66.5399 31.3618 65.2074 31.1151 63.8779 30.8563C62.9613 30.6776 62.0473 30.4903 61.1391 30.2787C60.1187 30.0408 59.1063 29.7724 58.1067 29.4518C58.0056 29.4204 57.9054 29.3873 57.8052 29.3542C56.3057 28.8557 54.8566 28.2544 53.6036 27.2604C53.5523 27.2194 53.4998 27.1628 53.3961 27.215C53.3882 27.343 53.4415 27.4685 53.4866 27.5974C53.5912 27.8972 53.7158 28.1864 53.8544 28.4689C53.8614 28.4836 53.8685 28.4985 53.8761 28.5126C54.0241 28.815 54.1896 29.1077 54.3631 29.397C55.3999 31.1215 56.7455 32.5853 58.2031 33.9541C60.6483 36.25 63.3311 38.2418 66.1167 40.1006C68.8189 41.9043 71.642 43.5066 74.4503 45.1327C78.1763 47.291 81.8627 49.5114 85.4068 51.9615C87.357 53.3095 89.2641 54.7105 90.9763 56.3609C93.3394 58.6396 95.1639 61.2735 96.283 64.3738C97.1238 66.7029 97.3096 69.0956 96.9225 71.5355C96.6192 73.4464 95.895 75.2029 94.9166 76.8586C93.0581 80.0041 90.4368 82.3429 87.2242 84.0361C85.7239 84.8273 84.1745 85.4983 82.5965 86.0976C81.3549 86.57 80.0966 86.9978 78.8289 87.4055C77.8853 87.7096 76.9991 88.1565 76.159 88.6802C75.5969 89.0295 75.1708 89.5028 74.8075 90.0299C74.6114 90.3148 74.4335 90.6154 74.263 90.9214C74.236 90.9703 74.2167 91.026 74.1924 91.0782C74.1575 91.1505 74.1124 91.2176 74.018 91.2566C73.9404 91.1705 73.9412 91.0946 73.9597 91.0318C74.0895 90.5779 74.2516 90.1404 74.4728 89.7413C74.7368 89.2636 75.087 88.8419 75.57 88.517C76.5634 87.8468 77.6204 87.2815 78.76 86.8876C78.9769 86.8126 79.1958 86.7133 79.2016 86.4493C79.2034 86.3681 79.1791 86.3063 79.1389 86.2576C79.063 86.1635 78.9297 86.1146 78.8139 86.0616C78.3468 85.8488 77.9008 85.5989 77.4651 85.3287C77.3326 85.2466 77.2002 85.1631 77.0695 85.0778C74.5704 83.4535 72.4095 81.4591 70.5159 79.1631C68.1964 76.3522 66.1416 73.3565 64.2439 70.249C63.3577 68.7991 62.4977 67.3318 61.487 65.9627C61.2473 65.6386 61.0008 65.3207 60.7315 65.0235C60.5147 64.7856 60.2846 64.5599 60.0317 64.3542C59.7275 64.1069 59.4026 63.8968 59.0184 63.7886C58.5269 63.6509 58.1419 63.7696 57.8395 64.1754C57.6276 64.4594 57.5145 64.787 57.4316 65.1287C57.198 66.0952 57.2669 67.0675 57.3847 68.0375C57.6094 69.8942 58.0496 71.7066 58.5601 73.5027C59.4043 76.4759 60.3787 79.4095 61.2437 82.3766C61.9139 84.6752 62.5891 86.9738 62.9114 89.3562C63.0518 90.3965 63.0673 91.4362 62.907 92.4783C62.7084 93.7609 62.2336 94.9443 61.6385 96.0865C60.7734 97.7463 59.7085 99.281 58.6576 100.823C57.4412 102.608 56.2195 104.389 55.1965 106.295C54.3921 107.796 53.6683 109.329 53.3023 111.008C52.9606 112.578 53.0907 114.079 53.9218 115.486C54.3549 116.221 54.9187 116.377 55.6844 115.978C56.0704 115.777 56.4042 115.514 56.7145 115.222C56.8496 115.095 56.9803 114.963 57.1083 114.828C58.7813 113.072 60.3881 111.258 61.9802 109.428C63.8196 107.314 65.6965 105.235 67.7475 103.321C69.5459 101.643 71.463 100.117 73.6265 98.9305C74.5344 98.432 75.4624 97.9781 76.421 97.5975C77.0639 97.3404 77.72 97.1183 78.3937 96.9369C78.5306 96.9003 78.7161 96.8968 78.7407 96.6919C78.7641 96.4985 78.6501 96.374 78.5027 96.284C78.372 96.2055 78.229 96.1472 78.0889 96.0862C76.9807 95.6054 75.9577 94.9944 75.1064 94.124C74.743 93.7527 74.4423 93.3363 74.2003 92.8771C74.0878 92.6653 74.0148 92.4414 73.9746 92.2072C73.9538 92.0818 73.9582 91.9335 74.1045 91.891C74.1176 91.8875 74.1288 91.8849 74.1402 91.884C74.2551 91.8735 74.285 92.0009 74.3204 92.0915C74.6325 92.8748 75.1535 93.5013 75.7836 94.0458C76.1007 94.3195 76.4423 94.5598 76.7996 94.7787C77.989 95.5054 79.2907 95.9506 80.6308 96.2887C82.1731 96.6782 83.7414 96.8883 85.3309 96.9859C86.7407 97.0729 88.1453 97.0477 89.5492 96.9405C90.9095 96.8358 92.259 96.6398 93.5994 96.381C96.3399 95.8512 99.0192 95.1183 101.597 94.0379C103.7 93.157 105.664 92.0276 107.507 90.6867C107.819 90.4593 107.819 90.4461 107.662 90.1073C106.889 88.4317 106.582 86.6585 106.584 84.8287C106.585 83.8257 106.679 82.8264 106.84 81.8347C106.976 81.0078 107.17 80.1975 107.539 79.4377C107.703 79.1004 107.927 79.0271 108.182 79.2809C109.038 80.1286 110.063 80.7115 111.146 81.2038C112.491 81.8163 113.906 82.1439 115.379 82.2494C115.767 82.2763 116.047 82.1788 116.252 81.8356C116.466 81.4784 116.727 81.1473 116.942 80.79C118.035 78.9682 118.919 77.0458 119.608 75.0382C120.657 71.9771 121.413 68.8404 121.964 65.6512C122.425 62.9857 122.738 60.3047 122.84 57.6025C122.918 55.582 122.867 53.5647 122.643 51.5521ZM71.361 26.4308C70.1742 26.6008 69.0885 26.3795 68.1197 25.6683C67.4565 25.1821 66.9964 24.5357 66.7491 23.8289C66.3579 22.7127 66.4956 21.4432 67.1951 20.407C67.3135 20.2318 67.4477 20.0636 67.5978 19.9042C69.5356 17.8444 72.9478 18.199 74.3351 20.6048C74.6689 21.1842 74.8292 21.8107 74.8283 22.4791C74.8283 22.4947 74.8283 22.5105 74.8274 22.526C74.8075 24.0832 73.8202 25.4887 72.4277 26.1187C72.0927 26.2705 71.7346 26.3778 71.361 26.4308ZM93.7731 51.2262C92.7659 50.9109 91.8596 50.3975 91.0056 49.7859C90.0726 49.1166 89.2412 48.3342 88.4673 47.49C87.2483 46.1622 86.1696 44.7269 85.2119 43.2004C84.5959 42.2193 84.0436 41.2068 83.7107 40.0871C83.6122 39.7551 83.5592 39.7454 83.303 39.9878C82.3044 40.9314 81.2093 41.7367 79.9717 42.3438C78.6202 43.0061 77.1905 43.3938 75.7039 43.5872C75.6875 43.5899 75.6699 43.5925 75.6535 43.5951C75.5758 43.6092 75.4941 43.6221 75.4062 43.5456C75.4252 43.5239 75.4454 43.5063 75.4671 43.4917C75.5726 43.4175 75.7042 43.4114 75.8173 43.3809C76.9525 43.082 78.0333 42.6439 79.1005 42.1592C81.1638 41.2218 82.8342 39.8049 84.2337 38.042C85.7596 36.1196 86.6516 33.9207 87.0736 31.5224C87.2286 30.6424 87.316 29.7589 87.3394 28.8727C87.362 28.037 87.328 27.1989 87.2401 26.3596C87.1782 25.7653 87.0335 25.1886 86.8767 24.6134C86.8245 24.4226 86.7712 24.2318 86.719 24.0402C86.368 22.7531 85.7754 21.5725 85.1305 20.4152C85.0903 20.3429 85.0504 20.2714 84.9622 20.1155C85.2497 20.1949 85.3411 20.356 85.4475 20.4944C86.1209 21.3788 86.5734 22.3801 86.9611 23.4142C87.1152 23.8254 87.2494 24.2386 87.3646 24.655C87.7602 26.0841 87.9302 27.5435 87.917 29.023C87.9135 29.4805 87.8927 29.9406 87.8551 30.4024C87.769 31.4714 87.5527 32.5231 87.2418 33.5532C87.1955 33.7056 87.1023 33.8582 87.1434 34.0247C87.2837 34.1006 87.3743 34.0097 87.4657 33.9637C89.5882 32.8886 91.8285 32.2096 94.1447 31.7724C94.5673 31.6921 94.9934 31.62 95.4212 31.5555C96.9714 31.3211 98.5274 31.2496 100.088 31.3334C100.347 31.3475 100.604 31.3665 100.86 31.3926C102.03 31.5101 103.175 31.7639 104.275 32.2231C104.882 32.4765 105.451 32.7965 105.971 33.1989C107.55 34.4197 108.2 36.1571 107.808 38.0253C107.763 38.2416 107.703 38.4593 107.629 38.6788C107.356 39.4961 106.9 40.2096 106.39 40.893C105.915 41.5309 105.389 42.1267 104.858 42.7157C104.839 42.7368 104.82 42.7576 104.801 42.7784C103.693 44.0063 102.759 45.3516 102.001 46.8215C101.669 47.4653 101.327 48.1042 100.931 48.7122C100.083 50.0174 98.9787 50.9909 97.4353 51.3898C96.1981 51.7106 94.9772 51.6043 93.7731 51.2262Z" fill="#A0BFE7"/>
<path d="M57.8061 29.3535C57.9063 29.3867 58.0065 29.4198 58.1076 29.4511C56.6767 29.3283 55.1127 29.1305 53.8773 28.5119C53.8694 28.4979 53.8623 28.4832 53.8556 28.4683C53.717 28.1858 53.5924 27.8965 53.4878 27.5968C53.4424 27.4678 53.3894 27.3424 53.3973 27.2143C53.501 27.1622 53.5532 27.2187 53.6047 27.2598C54.8575 28.2541 56.3066 28.8551 57.8061 29.3535Z" fill="#88ADE0"/>
<path d="M52.4102 24.6992C52.4524 24.7939 52.4966 24.8868 52.5435 24.9782C52.5247 24.9416 52.5048 24.9061 52.4869 24.8692C52.46 24.8135 52.4354 24.7561 52.4102 24.6992Z" fill="#88ADE0"/>
<path d="M52.3945 24.6641C52.3998 24.6761 52.4054 24.6881 52.4109 24.7001C52.4057 24.6881 52.3998 24.6761 52.3945 24.6641Z" fill="#88ADE0"/>
<path d="M52.2598 24.3281C52.2856 24.3996 52.3137 24.4694 52.3418 24.5391C52.3134 24.4697 52.2858 24.3993 52.2598 24.3281Z" fill="#88ADE0"/>
<path d="M111.262 59.8707C111.128 64.1717 113.309 68.8352 111.149 72.5577C110.222 74.1548 108.63 75.251 107.51 76.7209C104.779 80.3031 104.927 85.9312 101.185 88.4405C98.6608 90.1328 95.2876 89.7024 92.4228 90.7183C91.032 91.2107 89.7869 92.0376 88.4486 92.6589C83.1167 95.1354 76.2994 93.9415 72.1256 89.7999C71.587 91.6482 72.2624 93.6939 73.485 95.1805C73.7865 95.5474 74.1177 95.8847 74.4705 96.1973C74.1168 95.943 73.7813 95.6614 73.4677 95.3487C71.2945 93.1852 71.2535 89.3478 73.507 87.2678C73.3684 88.195 73.7909 89.082 74.474 89.7408C74.5795 89.8427 74.6917 89.9386 74.8087 90.0291C75.1852 90.3192 75.6136 90.5449 76.0582 90.6835C77.536 91.1453 79.1304 90.8883 80.6572 90.6269C83.4256 90.1528 86.1936 89.6798 88.962 89.2057C90.1306 89.0061 91.3181 88.7995 92.3759 88.2656C93.6595 87.6174 94.664 86.5299 95.8754 85.7554C97.6557 84.6158 99.8793 84.1478 101.371 82.6497C103.406 80.6064 103.433 77.3738 104.411 74.662C105.408 71.8998 107.472 69.542 108.008 66.6552C108.638 63.2586 107.038 59.8701 106.786 56.4254C106.478 52.1995 108.12 47.5263 105.846 43.9512C105.56 43.5017 105.224 43.0947 104.857 42.7149C103.508 41.313 101.736 40.2724 100.462 38.7764C99.6853 37.8659 99.1091 36.8045 98.4155 35.8305C97.2592 34.2061 95.7981 32.8608 94.1441 31.7718C92.2611 30.532 90.1289 29.6256 87.9167 29.0228C87.7251 28.9706 87.5325 28.9199 87.3391 28.8722C86.4459 28.6518 85.5425 28.4792 84.6396 28.3529C81.6187 27.9312 78.5253 27.9608 75.5732 27.1957C74.498 26.917 73.4566 26.536 72.4277 26.1188C70.9517 25.5183 69.5017 24.8414 68.0124 24.2732C67.5978 24.1146 67.1758 23.9655 66.7491 23.8286C64.5777 23.1324 62.2782 22.7681 60.0851 23.3146C58.5419 23.6988 57.0049 24.6662 56.5448 26.1891C56.333 26.893 56.4698 27.6895 56.8349 28.3274C56.5563 28.2166 56.2799 28.0991 56.0062 27.9737C55.3205 27.6602 54.6705 27.2854 54.0736 26.82C53.4275 26.3163 52.9281 25.7147 52.5645 25.0175C52.6723 25.2235 52.7919 25.4213 52.9234 25.6106C52.9791 25.472 53.0418 25.3378 53.1124 25.208C53.21 24.9352 53.3328 24.6685 53.4793 24.408C53.8453 23.7571 54.3743 23.2639 54.9815 22.8798C55.0155 22.8511 55.0494 22.8223 55.0843 22.7945C58.5252 20.0235 63.0146 19.952 67.1951 20.4071C68.1475 20.5108 69.0946 20.7016 70.0113 20.9457C71.6432 21.3806 73.23 21.9722 74.8271 22.5264C76.0391 22.9463 77.2573 23.3454 78.506 23.6364C81.2456 24.2752 84.0688 24.3839 86.8761 24.6131C87.0391 24.6272 87.202 24.6409 87.364 24.655C88.2798 24.7353 89.192 24.8329 90.1002 24.9689C93.9499 25.5482 97.9449 27.0313 100.155 30.2372C100.411 30.6084 100.639 30.9979 100.859 31.3926C101.361 32.2929 101.82 33.2206 102.463 34.0233C103.862 35.7677 105.972 36.733 107.808 38.0253C108.197 38.299 108.574 38.5883 108.93 38.9018C112.828 42.3427 113.499 48.2645 112.467 53.3611C112.028 55.5264 111.331 57.6612 111.262 59.8707Z" fill="#88ADE0"/>
<path d="M122.841 57.6017C122.739 60.3039 122.426 62.9849 121.965 65.6504C121.414 68.8396 120.659 71.9763 119.609 75.0374C118.92 77.0451 118.036 78.9671 116.943 80.7893C116.728 81.1465 116.467 81.4776 116.253 81.8348C116.048 82.1783 115.769 82.2759 115.38 82.2486C114.136 82.1598 112.933 81.9122 111.779 81.4671C111.566 81.3868 111.356 81.298 111.147 81.203C110.064 80.7107 109.039 80.1279 108.183 79.2801C107.928 79.0266 107.704 79.0996 107.541 79.4369C107.171 80.1967 106.977 81.007 106.842 81.834C106.68 82.8256 106.586 83.8249 106.585 84.828C106.584 85.9755 106.704 87.1005 106.986 88.1933C107.152 88.8432 107.375 89.482 107.663 90.1068C107.82 90.4459 107.82 90.4588 107.508 90.6862C105.665 92.0271 103.701 93.1565 101.598 94.0374C99.7647 94.806 97.8807 95.3986 95.9583 95.8663C95.1786 96.057 94.3926 96.227 93.6005 96.3802C92.2604 96.639 90.9107 96.8351 89.5504 96.9397C88.1467 97.0469 86.7419 97.0721 85.3321 96.9851C83.7426 96.8875 82.1742 96.6774 80.632 96.2879C79.2919 95.9498 77.9899 95.5046 76.8007 94.7779C76.4435 94.5593 76.1018 94.3187 75.7848 94.045C75.1547 93.5005 74.6337 92.874 74.3216 92.0907C74.2859 92.0002 74.2563 91.873 74.1414 91.8832C74.13 91.8841 74.1188 91.8867 74.1056 91.8903C73.9594 91.9331 73.955 92.081 73.9758 92.2065C74.016 92.4409 74.0892 92.6648 74.2015 92.8764C74.4438 93.3355 74.7442 93.752 75.1075 94.1232C75.9588 94.9936 76.9818 95.6046 78.0901 96.0855C78.2305 96.1464 78.3732 96.2047 78.5039 96.2833C78.6513 96.3729 78.7653 96.4978 78.7418 96.6912C78.7175 96.896 78.5317 96.8995 78.3949 96.9361C77.8668 97.0783 77.3493 97.2456 76.8403 97.4346C76.6999 97.4868 76.5607 97.541 76.4221 97.5967C75.7285 97.1861 75.0671 96.7269 74.4702 96.1971C74.1174 95.8844 73.7862 95.5471 73.4847 95.1802C72.2621 93.6936 71.5869 91.6476 72.1253 89.7997C76.2991 93.9413 83.1167 95.1351 88.4483 92.6586C89.7866 92.0374 91.0317 91.2104 92.4225 90.7181C95.2876 89.7021 98.6605 90.1326 101.185 88.4403C104.926 85.9307 104.778 80.3028 107.51 76.7207C108.63 75.2508 110.222 74.1545 111.149 72.5574C113.309 68.8349 111.128 64.1714 111.262 59.8705C111.331 57.6606 112.027 55.5258 112.466 53.3597C113.499 48.2631 112.828 42.3413 108.93 38.9004C108.574 38.5869 108.197 38.2973 107.807 38.0239C105.971 36.7316 103.862 35.7663 102.462 34.0219C101.819 33.2192 101.361 32.2914 100.859 31.3912C100.639 30.9965 100.411 30.607 100.154 30.2358C97.9446 27.0302 93.9495 25.5471 90.0999 24.9674C89.192 24.8315 88.2795 24.7339 87.3637 24.6536C87.2017 24.6398 87.0387 24.6258 86.8758 24.6117C84.0682 24.3825 81.245 24.2735 78.5057 23.635C77.257 23.344 76.0388 22.9449 74.8268 22.5249C73.2297 21.9708 71.6429 21.3792 70.011 20.9443C69.0943 20.7002 68.1472 20.5094 67.1948 20.4057C63.014 19.9509 58.5249 20.0224 55.084 22.7931C55.0491 22.8209 55.0151 22.8496 54.9811 22.8784C54.374 23.2625 53.845 23.7557 53.479 24.4066C53.3325 24.6671 53.2097 24.9337 53.1121 25.2066C53.0415 25.3364 52.9788 25.4706 52.9231 25.6092C52.6034 25.1491 52.3531 24.641 52.1756 24.081C52.0475 23.6784 52.0012 23.2924 52.0352 22.922C52.083 22.386 52.2948 21.8826 52.6626 21.4049C53.0758 20.869 53.5959 20.4499 54.1527 20.0742C55.4746 19.181 56.8897 18.4666 58.3813 17.9081C61.0468 16.9111 63.7812 16.1706 66.5903 15.7062C68.3626 15.4134 70.1428 15.1948 71.9316 15.0333C74.2668 14.8226 76.6056 14.7546 78.9461 14.813C89.1861 15.0664 98.4993 18.146 106.867 24.0537C110.18 26.3934 112.944 29.2845 115.255 32.6088C118.14 36.7592 120.37 41.2222 121.651 46.133C122.116 47.9141 122.44 49.7195 122.643 51.5501C122.866 53.5639 122.918 55.5812 122.841 57.6017Z" fill="#5584D2"/>
<path d="M125.28 88.2866C124.846 89.6381 124.269 90.904 123.543 92.0806C123.485 92.1738 123.427 92.2661 123.367 92.3587C122.711 93.3782 121.939 94.3279 121.049 95.2026C120.691 95.5546 120.304 95.8737 119.885 96.1524C118.586 97.0177 117.195 97.2267 115.701 96.7511C114.423 96.3432 113.286 95.6812 112.239 94.856C109.95 93.0523 108.331 90.7921 107.576 87.9531C107.559 87.8895 107.543 87.8259 107.528 87.7623C107.499 87.6471 107.474 87.5323 107.45 87.4174C107.42 87.2762 107.394 87.1352 107.371 86.9931C107.363 86.9436 107.355 86.8929 107.348 86.8425C107.336 86.763 107.325 86.683 107.314 86.6027C107.304 86.5295 107.296 86.4562 107.288 86.3824C107.284 86.3396 107.278 86.2962 107.275 86.2534C107.269 86.2107 107.266 86.1673 107.262 86.1236C107.258 86.0852 107.255 86.0468 107.252 86.0087C107.251 86.0052 107.251 86.0008 107.251 85.9973C107.244 85.9197 107.239 85.8414 107.234 85.7629C107.23 85.6949 107.225 85.626 107.222 85.5572C107.209 85.3019 107.201 85.0432 107.198 84.78C107.201 84.6895 107.204 84.5989 107.208 84.5081C107.211 84.4357 107.213 84.3633 107.217 84.2904C107.218 84.2484 107.221 84.206 107.224 84.1641C107.227 84.0961 107.231 84.0281 107.235 83.9601C107.24 83.8912 107.244 83.8224 107.249 83.7526C107.252 83.6899 107.258 83.6263 107.263 83.5627C107.267 83.4974 107.274 83.4312 107.279 83.3649C107.285 83.3048 107.29 83.2457 107.296 83.1856C107.307 83.0739 107.319 82.9617 107.332 82.8501C107.342 82.7586 107.354 82.6663 107.365 82.5746C107.366 82.5728 107.366 82.572 107.366 82.5702C107.368 82.5538 107.369 82.538 107.372 82.5221C107.379 82.4647 107.387 82.4079 107.395 82.3513C107.4 82.3182 107.405 82.2842 107.41 82.2511C107.423 82.1717 107.435 82.0917 107.448 82.0122C107.461 81.9328 107.474 81.8528 107.489 81.7734C107.5 81.7063 107.513 81.6392 107.526 81.5721C107.535 81.5258 107.545 81.4789 107.554 81.4326C107.563 81.3872 107.573 81.3421 107.582 81.2966C107.595 81.2357 107.608 81.1756 107.623 81.1147C107.628 81.0895 107.635 81.0634 107.641 81.0379C107.656 80.9708 107.672 80.9045 107.689 80.8374C107.75 80.5933 107.829 80.3566 107.937 80.13C107.942 80.1195 107.947 80.1092 107.952 80.0996C107.964 80.0744 107.975 80.0506 107.987 80.0298C107.989 80.0245 107.992 80.0193 107.996 80.014C108.002 80.0008 108.009 79.9897 108.015 79.9791C108.03 79.9539 108.043 79.9337 108.058 79.9191C108.062 79.9147 108.065 79.9111 108.069 79.9085C108.072 79.905 108.076 79.9023 108.079 79.8997C108.086 79.8944 108.093 79.8909 108.101 79.8883C108.108 79.8856 108.116 79.8848 108.124 79.8848C108.13 79.8848 108.137 79.8856 108.143 79.8874C108.15 79.8892 108.157 79.8909 108.164 79.8944C108.167 79.8953 108.171 79.8971 108.174 79.8988C108.174 79.8997 108.174 79.8997 108.174 79.8997C108.179 79.9023 108.185 79.905 108.19 79.9085C108.2 79.9147 108.211 79.9226 108.223 79.9302C108.243 79.9451 108.266 79.9633 108.29 79.9859C108.298 79.9929 108.306 79.9999 108.314 80.0076C108.323 80.0146 108.331 80.0231 108.34 80.031C109.339 80.952 110.508 81.5917 111.766 82.0717C111.993 82.1588 112.222 82.2382 112.452 82.3106C113.968 82.7897 115.529 82.9553 117.136 82.8152C117.573 82.7768 118.008 82.7229 118.443 82.6654C119.153 82.5714 119.861 82.4676 120.576 82.4076C121.533 82.3264 122.496 82.276 123.441 82.5339C124.705 82.8799 125.445 83.6046 125.632 85.1557C125.762 86.2265 125.607 87.2712 125.28 88.2866Z" fill="#3F6DB2"/>
<path d="M101.703 95.1201C101.664 95.1925 101.603 95.2552 101.546 95.3144C100.72 96.1709 99.9967 97.0955 99.3503 98.0695C99.0315 98.5487 98.7308 99.0404 98.446 99.5421C98.019 100.292 97.6278 101.065 97.2592 101.855C96.8123 102.813 96.3686 103.775 95.8432 104.696C95.5252 105.253 95.1756 105.789 94.7079 106.238C94.1415 106.78 93.4924 107.158 92.7056 107.285C92.1051 107.383 91.5404 107.251 90.9889 107.047C90.1089 106.72 89.3883 106.148 88.7357 105.493C88.4254 105.181 88.1388 104.858 87.8765 104.523C87.6902 104.285 87.5167 104.042 87.3546 103.792C86.4928 102.465 85.97 100.973 85.7661 99.3267C85.7095 98.8684 85.6902 98.4136 85.7426 97.9526C85.7678 97.7279 85.8672 97.6449 86.0928 97.6537C86.4685 97.6678 86.8447 97.6572 87.2213 97.6572C88.9728 97.6484 90.7076 97.4934 92.4292 97.2241C92.8372 97.1605 93.2439 97.0899 93.6509 97.0131C93.9794 96.9522 94.3079 96.8868 94.6356 96.8171C94.6616 96.8118 94.6877 96.8057 94.7141 96.8007C95.0906 96.7204 95.4652 96.636 95.8382 96.5463C96.0858 96.4889 96.3314 96.4279 96.5772 96.3643C97.2559 96.1917 97.9296 96.0036 98.5981 95.797C99.445 95.5365 100.284 95.2473 101.114 94.9267C101.243 94.8771 101.371 94.8168 101.516 94.8194C101.715 94.8235 101.797 94.9475 101.703 95.1201Z" fill="#3F6DB2"/>
<path d="M95.6547 73.8438C95.6093 73.9701 95.5624 74.0956 95.5135 74.2201C95.3095 74.7385 95.0777 75.2422 94.8181 75.7345C94.7258 75.913 94.6291 76.0891 94.5289 76.2644C94.475 76.3584 94.3912 76.4414 94.305 76.5085C92.6329 77.8145 90.8248 78.8645 88.7677 79.4442C88.3381 79.5643 87.9032 79.6663 87.4625 79.7214C87.3101 79.7395 87.1565 79.7624 87.0094 79.7814C86.7847 79.8102 86.571 79.831 86.3882 79.8172C85.129 79.7955 84.0617 79.5104 83.1867 78.9448C82.2909 78.3681 81.5972 77.4966 81.1067 76.3142C80.6979 75.3287 80.4983 74.2963 80.4104 73.2323C80.3128 72.056 80.3879 70.8979 80.6396 69.753C80.6545 69.6832 80.6709 69.6126 80.6873 69.5429C80.8277 68.9574 81.0428 68.3979 81.3687 67.8889C81.5987 67.53 81.8671 67.2249 82.186 66.9905C82.5092 66.7543 82.8849 66.5922 83.3256 66.5225C83.7848 66.4501 84.21 66.5617 84.6282 66.7256C85.1937 66.9486 85.6676 67.3146 86.1218 67.7075C86.7554 68.2564 87.3165 68.8776 87.8897 69.486C88.6346 70.2781 89.4121 71.0371 90.2528 71.729C90.9986 72.3423 91.7977 72.873 92.6812 73.2668C93.563 73.6607 94.4676 73.8854 95.4373 73.6161C95.6714 73.552 95.735 73.6217 95.6547 73.8438Z" fill="#3F6DB2"/>
<path d="M107.101 38.2581C106.895 38.9761 106.531 39.6158 106.102 40.2212C105.709 40.7745 105.277 41.2973 104.826 41.801C104.748 41.888 104.67 41.9745 104.591 42.0606C103.348 43.413 102.296 44.8926 101.442 46.514C101.389 46.6133 101.338 46.7135 101.287 46.8146C101.254 46.8782 101.222 46.9418 101.189 47.0045C100.89 47.5839 100.565 48.1512 100.186 48.6854C99.3876 49.8104 98.3438 50.5703 96.9759 50.8446C96.6351 50.9134 96.2893 50.9571 95.9397 50.9588C94.9228 50.9328 93.9599 50.6834 93.0398 50.2555C92.0326 49.7884 91.135 49.1569 90.3098 48.4214C88.3233 46.6482 86.7739 44.5307 85.4939 42.2113C84.9791 41.2797 84.6939 40.257 84.4572 39.2225C84.4006 38.9775 84.4378 38.7748 84.6104 38.5682C84.6602 38.5081 84.7089 38.448 84.7578 38.3879C84.8085 38.3252 84.858 38.2625 84.907 38.1989C85.0805 37.9733 85.2469 37.7432 85.4046 37.5088C85.552 37.2911 85.692 37.0687 85.8236 36.8421C86.0293 36.4946 86.2166 36.1371 86.3883 35.7687C86.4205 35.7007 86.4519 35.6319 86.4824 35.563C86.553 35.4054 86.6488 35.2791 86.769 35.1736C86.822 35.1246 86.8797 35.0813 86.9424 35.0402C88.0003 34.3519 89.1634 33.8874 90.34 33.4543C92.0757 32.8163 93.8603 32.3686 95.6962 32.1341C95.7023 32.1333 95.7094 32.1324 95.7152 32.1315C96.3104 32.0565 96.9064 31.9982 97.5034 31.9615C98.379 31.9082 99.2566 31.9023 100.134 31.9589C100.674 31.9938 101.21 32.0538 101.738 32.147C102.63 32.3029 103.499 32.5549 104.336 32.9453C104.945 33.2292 105.512 33.5815 105.995 34.0527C107.202 35.2328 107.564 36.6382 107.101 38.2581Z" fill="#3F6DB2"/>
<path d="M126.615 54.6519C126.57 55.5222 126.501 56.3858 126.405 57.2415C125.837 62.3196 124.35 67.1358 121.701 71.6129C121.63 71.7321 121.553 71.8491 121.472 71.9613C121.441 72.0067 121.39 72.0346 121.326 72.0111C121.264 71.9877 121.247 71.9299 121.251 71.8778C121.259 71.7948 121.282 71.714 121.304 71.6337C121.332 71.5255 121.36 71.4177 121.387 71.3096C121.921 69.2471 122.364 67.1645 122.698 65.0593C122.824 64.2619 122.94 63.4631 123.041 62.6622C123.058 62.5289 123.074 62.3955 123.091 62.2622C123.157 61.7045 123.216 61.146 123.265 60.5866C123.405 59.0015 123.487 57.4141 123.49 55.8229V55.5797C123.489 55.434 123.488 55.2887 123.485 55.143C123.458 53.1756 123.287 51.2421 122.974 49.3417C122.938 49.1204 122.9 48.8992 122.86 48.6785C122.503 46.731 121.996 44.8192 121.339 42.9443C121.261 42.7248 121.183 42.5059 121.101 42.2882C120.631 41.0196 120.091 39.7674 119.481 38.5317C119.374 38.3154 119.266 38.0994 119.156 37.8852C119.034 37.6455 118.91 37.4067 118.784 37.1699C118.054 35.7941 117.264 34.4584 116.403 33.167C116.275 32.9736 116.145 32.781 116.012 32.5903C115.112 31.2842 114.138 30.0267 113.082 28.8244C113.043 28.7807 113.005 28.7373 112.966 28.6937C112.764 28.4654 112.559 28.2406 112.351 28.0194C111.377 26.9817 110.346 26.0153 109.262 25.1124C108.991 24.8859 108.716 24.6638 108.438 24.4449C107.475 23.6876 106.473 22.9758 105.438 22.3057C105.112 22.0941 104.784 21.8875 104.452 21.6844C104.337 21.6147 104.223 21.5449 104.108 21.4761C102.727 20.6456 101.319 19.8799 99.8791 19.1827C99.0009 18.7575 98.1121 18.3575 97.2101 17.9853C95.7733 17.3902 94.3049 16.863 92.8045 16.4073C92.7916 16.4029 92.7784 16.3976 92.7652 16.3915C92.6293 16.3332 92.4036 16.3531 92.3793 16.1954C92.3462 15.9897 92.5674 15.9053 92.7192 15.8183C93.4756 15.3834 94.2964 15.1264 95.1512 14.9732C97.2564 14.5975 99.3807 14.4809 101.723 14.4756C101.808 14.4791 101.896 14.4817 101.983 14.4844C103.272 14.5298 104.732 14.574 106.189 14.6962C107.396 14.7973 108.597 14.9298 109.793 15.1276C109.89 15.1434 109.984 15.1625 110.076 15.1842C111.138 15.4318 111.828 16.046 112.146 17.1777C112.553 18.6251 113.058 20.0428 113.717 21.4002C114.587 23.1959 115.611 24.9038 116.664 26.5952C118.166 29.0072 119.739 31.3756 121.162 33.8371C122.79 36.6542 124.205 39.5673 125.165 42.6858C125.753 44.5932 126.166 46.5355 126.401 48.5194C126.644 50.5584 126.719 52.6053 126.615 54.6519Z" fill="#3F6DB2"/>
<path d="M79.2033 86.4493C79.1971 86.7133 78.9785 86.8126 78.7616 86.8877C77.622 87.2815 76.565 87.8471 75.5716 88.517C74.6854 89.1139 74.2479 90.0332 73.9613 91.0316C73.9429 91.0943 73.942 91.1702 74.0196 91.2563C74.1137 91.2171 74.1591 91.1499 74.194 91.0779C74.141 91.3463 74.1216 91.6173 74.1418 91.8837C74.1304 91.8846 74.1193 91.8872 74.1061 91.8908C73.9599 91.9335 73.9555 92.0815 73.9763 92.207C74.0164 92.4414 74.0897 92.6653 74.2019 92.8768C74.4443 93.336 74.7446 93.7525 75.108 94.1237C75.9593 94.9941 76.9823 95.6051 78.0906 96.0859C78.2309 96.1469 78.3737 96.2052 78.5043 96.2837C78.6517 96.3734 78.7657 96.4983 78.7423 96.6917C78.718 96.8965 78.5322 96.9 78.3953 96.9366C76.7162 97.3879 75.1443 98.0983 73.6281 98.9302C71.4646 100.117 69.5475 101.643 67.7491 103.321C66.2757 104.695 64.892 106.155 63.5484 107.652C63.0212 108.24 62.5002 108.832 61.9818 109.427C60.3897 111.257 58.7829 113.072 57.11 114.828C56.9819 114.962 56.8512 115.095 56.7161 115.222C56.4058 115.514 56.0723 115.777 55.6861 115.978C54.9201 116.376 54.3562 116.221 53.9234 115.486C53.0921 114.079 52.9622 112.578 53.3039 111.008C53.6699 109.329 54.394 107.795 55.1982 106.295C56.2212 104.388 57.4429 102.607 58.6593 100.823C59.7101 99.2807 60.775 97.7463 61.6401 96.0862C62.2353 94.944 62.7103 93.7607 62.9087 92.478C63.069 91.436 63.0534 90.3962 62.9131 89.356C62.5907 86.9735 61.9153 84.6749 61.2454 82.3763C60.38 79.4092 59.4059 76.4756 58.5617 73.5024C58.0509 71.7066 57.6111 69.8942 57.3863 68.0372C57.2685 67.0672 57.1999 66.0949 57.4332 65.1284C57.5161 64.787 57.6292 64.4591 57.8411 64.1752C58.1435 63.769 58.5286 63.6506 59.02 63.7883C59.4042 63.8965 59.7295 64.1063 60.0333 64.3539C60.2859 64.5596 60.516 64.7853 60.7331 65.0232C61.0024 65.3204 61.2489 65.6383 61.4886 65.9624C62.4993 67.3312 63.3594 68.7988 64.2455 70.2488C65.1457 71.723 66.0814 73.1721 67.0652 74.5872C68.1526 76.1565 69.2984 77.685 70.5175 79.1628C72.4108 81.4588 74.572 83.4532 77.0711 85.0775C77.6323 85.4427 78.2054 85.7835 78.8156 86.0613C78.9923 86.1425 79.2094 86.214 79.2033 86.4493Z" fill="#3F6DB2"/>
<path d="M124.337 59.9012C124.355 60.8421 124.563 61.7807 124.476 62.7182C124.398 63.5478 124.094 64.3372 123.792 65.1135C122.991 67.1786 122.189 69.2445 121.387 71.3099C121.92 69.2474 122.363 67.1648 122.697 65.0596C122.932 63.5747 123.133 62.0858 123.264 60.5869C123.411 58.9209 123.495 57.2521 123.489 55.58C123.468 49.5876 122.132 43.902 119.481 38.532C117.753 35.0316 115.664 31.7642 113.082 28.8241C110.586 25.9825 107.67 23.6516 104.452 21.6841C100.787 19.4438 96.9182 17.656 92.8045 16.4073C92.7916 16.4029 92.7784 16.3976 92.7652 16.3915C92.6293 16.3332 92.4036 16.3531 92.3793 16.1954C92.3462 15.9897 92.5674 15.9053 92.7192 15.8183C93.4756 15.3834 94.2964 15.1264 95.1512 14.9732C97.2564 14.5975 99.3807 14.4809 101.723 14.4756C101.808 14.4791 101.896 14.4817 101.983 14.4844C102.825 14.9957 103.558 15.6633 104.088 16.4955C105.014 17.949 105.257 19.7752 106.277 21.1643C107.896 23.3662 110.982 23.8898 113.033 25.6935C115.053 27.4685 115.822 30.2324 117.206 32.5381C119.088 35.6748 122.236 38.1721 123.017 41.7458C123.47 43.8161 123.061 46.052 123.826 48.0274C124.212 49.0243 124.88 49.8991 125.218 50.9124C126.18 53.7997 124.278 56.8573 124.337 59.9012Z" fill="#385DAF"/>
<path d="M95.6554 73.8435C95.61 73.9698 95.5631 74.0953 95.5142 74.2198C95.3102 74.7382 95.0784 75.2419 94.8188 75.7343C94.7265 75.9127 94.6298 76.0888 94.5295 76.2641C94.4756 76.3581 94.3918 76.4411 94.3057 76.5082C92.6336 77.8143 90.8255 78.8642 88.7683 79.4439C88.3387 79.564 87.9039 79.666 87.4631 79.7211C87.3107 79.7392 87.1572 79.7621 87.0101 79.7812C86.7853 79.8099 86.5717 79.8307 86.3888 79.8169C85.1296 79.7952 84.0624 79.5101 83.1874 78.9445C83.6597 78.9392 84.1292 78.9202 84.5972 78.8827C85.6515 78.7983 86.6918 78.6213 87.7061 78.3025C88.276 78.1237 88.8416 77.8937 89.3295 77.5558C89.5074 77.4339 89.6735 77.2962 89.8271 77.1429C89.9953 76.9738 90.1442 76.7804 90.2664 76.5721C90.378 76.3804 90.4659 76.1756 90.5234 75.9637C90.6078 75.6595 90.6306 75.3416 90.5714 75.0321C90.5644 74.9946 90.5565 74.958 90.5471 74.9214C90.4469 74.5284 90.2403 74.2078 89.9695 73.9332C89.2803 73.2361 88.1702 72.8325 87.3066 72.2664C86.9354 72.0232 86.6025 71.7375 86.2942 71.4248C85.3061 70.4278 84.5638 69.1601 83.6044 68.1155C83.1792 67.6527 82.7041 67.2782 82.1875 66.9905C82.5107 66.7543 82.8864 66.5922 83.3271 66.5225C83.7863 66.4501 84.2115 66.5618 84.6297 66.7256C85.1953 66.9486 85.6691 67.3146 86.1233 67.7075C86.7569 68.2564 87.3181 68.8777 87.8913 69.486C88.6362 70.2781 89.4136 71.0371 90.2544 71.729C91.0001 72.3423 91.7993 72.873 92.6828 73.2668C93.5645 73.6607 94.4692 73.8854 95.4388 73.6161C95.6721 73.5517 95.7357 73.6214 95.6554 73.8435Z" fill="#385DAF"/>
<path d="M101.703 95.1198C101.664 95.1922 101.604 95.2549 101.546 95.3141C100.72 96.1706 99.997 97.0952 99.3506 98.0693C98.8826 98.1894 98.4061 98.2817 97.932 98.3655C97.8039 98.3881 97.675 98.4101 97.5452 98.4317C97.0573 98.5135 96.5614 98.5903 96.0638 98.6723C95.6134 98.7465 95.1621 98.8238 94.7123 98.9129C94.1696 99.0193 93.6301 99.1412 93.1012 99.2909C91.9947 99.6045 90.9333 100.038 89.9862 100.703C88.9825 101.408 88.2182 102.735 87.3546 103.792C86.4928 102.465 85.97 100.973 85.7661 99.3267C85.7095 98.8684 85.6902 98.4136 85.7426 97.9526C85.7678 97.7279 85.8672 97.6449 86.0928 97.6537C86.4685 97.6678 86.8447 97.6572 87.2213 97.6572C88.9728 97.6484 90.7076 97.4934 92.4292 97.2241C92.8372 97.1605 93.2439 97.0899 93.6509 97.0131C93.9794 96.9522 94.3079 96.8868 94.6356 96.8171C94.6616 96.8118 94.6877 96.8057 94.7141 96.8007C95.0906 96.7204 95.4652 96.636 95.8382 96.5463C96.0858 96.4889 96.3314 96.4279 96.5772 96.3643C97.2559 96.1917 97.9296 96.0036 98.5981 95.797C99.445 95.5365 100.284 95.2473 101.114 94.9267C101.243 94.8771 101.371 94.8168 101.516 94.8194C101.715 94.8232 101.797 94.9472 101.703 95.1198Z" fill="#385DAF"/>
<path d="M123.367 92.3585C122.711 93.378 121.939 94.3278 121.049 95.2025C120.691 95.5545 120.304 95.8736 119.885 96.1523C118.586 97.0176 117.195 97.2266 115.701 96.751C114.423 96.343 113.286 95.6811 112.239 94.8559C109.95 93.0522 108.331 90.7919 107.576 87.953C107.306 86.9379 107.211 85.8993 107.198 84.7796C107.236 83.4979 107.359 82.1551 107.688 80.8376C107.749 80.5935 107.828 80.3567 107.936 80.1302C108.08 79.8287 108.108 79.8184 108.34 80.0317C109.338 80.9528 110.508 81.5925 111.765 82.0725C111.992 82.1595 112.222 82.2389 112.452 82.3113C111.918 82.4942 111.447 82.7617 111.106 83.2271C110.741 83.7264 110.619 84.3614 110.576 84.9786C110.273 89.3467 114.012 93.5867 118.384 93.8317C120.157 93.9304 121.912 93.3561 123.367 92.3585Z" fill="#385DAF"/>
<path d="M55.8475 107.544C55.1217 109.304 54.7835 111.309 55.3778 113.118C55.6374 113.91 56.1089 114.646 56.7161 115.222C56.4058 115.514 56.0723 115.777 55.6861 115.978C54.9201 116.376 54.3562 116.221 53.9234 115.486C53.0921 114.079 52.9622 112.578 53.3039 111.008C53.6699 109.329 54.394 107.795 55.1982 106.295C56.2212 104.388 57.4429 102.607 58.6593 100.823C59.7101 99.2807 60.775 97.7463 61.6401 96.0862C62.2353 94.944 62.7103 93.7607 62.9087 92.478C63.069 91.436 63.0534 90.3962 62.9131 89.356C62.5907 86.9735 61.9153 84.6749 61.2454 82.3763C60.38 79.4092 59.4059 76.4756 58.5617 73.5024C58.0509 71.7066 57.6111 69.8942 57.3863 68.0372C57.2685 67.0672 57.1999 66.0949 57.4332 65.1284C57.5161 64.787 57.6292 64.4591 57.8411 64.1752C58.1435 63.769 58.5286 63.6506 59.02 63.7883C59.4042 63.8965 59.7295 64.1063 60.0333 64.3539C60.2859 64.5596 60.516 64.7853 60.7331 65.0232C60.0134 64.904 59.3242 65.0024 58.7674 65.8719C58.4181 66.4181 58.3935 67.1073 58.4213 67.755C58.6147 72.2537 60.7522 76.3979 62.5236 80.5377C64.2959 84.6775 65.7529 89.2912 64.5312 93.6256C63.0397 98.9182 57.9431 102.46 55.8475 107.544Z" fill="#4A7FC3"/>
<path d="M79.2027 86.449C79.1966 86.713 78.978 86.8123 78.7611 86.8873C77.6215 87.2812 76.5645 87.8468 75.5711 88.5167C74.6849 89.1136 74.2474 90.0329 73.9608 91.0312C73.9423 91.094 73.9415 91.1699 74.0191 91.256C74.1132 91.2167 74.1586 91.1496 74.1935 91.0775C74.1404 91.346 74.1211 91.617 74.1413 91.8834C74.1299 91.8843 74.1187 91.8869 74.1056 91.8904C73.9593 91.9332 73.9549 92.0812 73.9757 92.2066C74.0159 92.4411 74.0891 92.665 74.2014 92.8765C74.4437 93.3357 74.7441 93.7521 75.1075 94.1234C75.9587 94.9938 76.9818 95.6048 78.09 96.0856C78.2304 96.1466 78.3731 96.2049 78.5038 96.2834C78.6512 96.3731 78.7652 96.4979 78.7418 96.6913C78.7174 96.8962 78.5317 96.8997 78.3948 96.9363C76.7157 97.3876 75.1438 98.0979 73.6276 98.9299C71.4641 100.117 69.547 101.642 67.7486 103.321C66.2752 104.695 64.8914 106.155 63.5479 107.652C63.5575 107.525 63.5845 107.396 63.6185 107.279C64.4768 104.308 66.6646 101.894 69.0811 99.9623C70.3792 98.9237 71.7943 97.9555 72.6867 96.5527C73.152 95.8198 73.3803 94.696 72.6658 94.2037C72.3775 94.005 72.0071 93.9728 71.6569 93.9869C69.5997 94.0663 67.8544 95.436 66.211 96.6767C65.7858 96.9982 65.2428 97.3302 64.7549 97.116C65.4582 95.4978 66.9776 94.3713 68.5759 93.6244C69.4315 93.2244 70.3376 92.9047 71.0899 92.3338C71.8427 91.7639 72.4326 90.8639 72.3236 89.9262C72.233 89.1376 71.6657 88.4736 71.0017 88.0405C70.3367 87.6073 69.571 87.3618 68.8346 87.0682C67.8125 86.6611 66.8314 86.1524 65.9086 85.5528C65.6 85.3524 65.3187 84.8322 65.6636 84.7033C65.7542 84.6693 65.8544 84.6892 65.9476 84.7112C67.9587 85.1757 69.8737 86.3405 71.9268 86.1307C72.4853 86.0742 73.0884 85.8711 73.3574 85.3796C73.8052 84.5632 73.0872 83.6205 72.4478 82.9433C70.4036 80.7815 68.6444 78.3496 67.2293 75.7321C67.0881 75.4707 66.9463 75.1891 66.9653 74.8929C66.9723 74.7865 67.0081 74.6795 67.0646 74.5869C68.1521 76.1562 69.2979 77.6847 70.517 79.1625C72.4103 81.4585 74.5715 83.4529 77.0706 85.0772C77.6317 85.4424 78.2049 85.7832 78.815 86.061C78.9917 86.1421 79.2089 86.2136 79.2027 86.449Z" fill="#385DAF"/>
<path d="M101.442 46.5136C101.389 46.613 101.338 46.7132 101.286 46.8143C100.96 47.4599 100.607 48.0925 100.186 48.6851C99.3876 49.8101 98.3438 50.5699 96.9759 50.8442C96.6351 50.9131 96.2893 50.9567 95.9397 50.9585C94.9229 50.9324 93.9599 50.683 93.0398 50.2552C92.0326 49.7881 91.135 49.1566 90.3098 48.421C88.3233 46.6479 86.7739 44.5303 85.4939 42.2109C84.9791 41.2793 84.6939 40.2566 84.4572 39.2222C84.4006 38.9772 84.4378 38.7744 84.6104 38.5678C85.3712 37.6529 85.9977 36.6507 86.4821 35.5627C86.5841 35.3353 86.7373 35.1732 86.9422 35.0399C88 34.3515 89.1631 33.8871 90.3397 33.4539C92.0754 32.816 93.86 32.3682 95.6959 32.1338C94.1735 32.5939 92.716 33.2632 91.3844 34.1344C90.0217 35.0267 88.7162 36.2308 88.3748 37.8238C88.0657 39.265 88.5987 40.7401 89.1502 42.1066C89.7847 43.6802 90.4695 45.2653 91.5517 46.5714C92.6339 47.8783 94.1815 48.8925 95.877 48.9649C97.9488 49.0546 99.7551 47.7919 101.442 46.5136Z" fill="#385DAF"/>
<path d="M95.5134 74.2206C95.3095 74.739 95.0777 75.2427 94.818 75.735C93.6025 76.3903 91.6403 77.2565 89.3285 77.5563C87.5213 77.7907 85.5005 77.6791 83.4583 76.8503C83.4583 76.8503 87.0864 77.212 90.2653 76.5725C91.4434 76.3355 92.5596 75.9601 93.4065 75.3778C93.3575 75.3977 92.2328 75.8587 90.5223 75.9642C88.2158 76.1081 84.8447 75.6052 81.6162 72.5022C81.6162 72.5022 86.2448 75.0159 90.5704 75.0326C91.5647 75.0361 92.5432 74.9081 93.4448 74.5875C93.4448 74.5875 91.9034 74.5057 89.9682 73.934C87.4753 73.1976 84.3289 71.6483 82.9809 68.4131C83.007 68.4559 83.9386 69.951 86.2929 71.4253C88.2665 72.6616 91.2388 73.8824 95.5134 74.2206Z" fill="#4A7FC3"/>
<path d="M118.643 93.6391C118.643 93.6391 110.431 94.8397 107.234 85.763C107.213 85.4415 107.202 85.1139 107.198 84.7801C107.219 84.0578 107.268 83.3164 107.366 82.5703C107.787 85.1763 109.785 92.9803 118.643 93.6391Z" fill="#4A7FC3"/>
<path d="M107.623 81.115C107.643 81.0227 107.666 80.9304 107.688 80.8378C107.749 80.5937 107.829 80.3569 107.937 80.1304C108.036 79.9221 108.08 79.8532 108.174 79.8995C108.174 79.9004 108.174 79.9004 108.174 79.9004C109.11 81.5883 112.99 87.2258 122.354 85.5581C122.354 85.5581 113.372 89.5567 107.623 81.115Z" fill="#4A7FC3"/>
<path d="M121.333 89.8361C121.333 89.8361 110.779 93.3702 107.411 82.251C107.458 81.9331 107.515 81.6139 107.583 81.2969C108.261 83.2688 111.532 90.8949 121.333 89.8361Z" fill="#4A7FC3"/>
<path d="M87.4492 100.491C87.4492 100.491 90.5739 99.6768 92.4289 97.2247C92.8368 97.1611 93.2435 97.0904 93.6506 97.0137C92.5171 98.7951 90.5555 100.736 87.4492 100.491Z" fill="#4A7FC3"/>
<path d="M89.2451 102.755C89.299 102.719 91.4435 101.291 93.101 99.2905C93.7292 98.5333 94.2869 97.6935 94.6353 96.8167C94.6614 96.8114 94.6875 96.8052 94.7139 96.8003C95.0904 96.72 95.4649 96.6356 95.838 96.5459C95.6287 97.2554 95.2829 98.0803 94.7121 98.9125C93.7204 100.358 92.0528 101.826 89.2451 102.755Z" fill="#4A7FC3"/>
<path d="M98.5975 95.7969C98.3569 96.5453 98.0155 97.4628 97.5449 98.4319C96.3668 100.858 94.3844 103.603 91.1797 104.801C91.2468 104.747 94.7305 101.912 96.0635 98.6725C96.3765 97.9153 96.5708 97.1355 96.5766 96.3642C97.2553 96.1916 97.929 96.0035 98.5975 95.7969Z" fill="#4A7FC3"/>
<path d="M97.613 47.5443C97.4333 47.4851 87.7615 44.2655 84.7578 38.3882C84.8085 38.3255 84.858 38.2628 84.907 38.1992C86.463 39.8693 91.6625 45.1209 97.613 47.5443Z" fill="#4A7FC3"/>
<path d="M101.697 43.2471C101.697 43.2471 91.3331 42.3155 85.4043 37.5085C85.5517 37.2907 85.6918 37.0683 85.8233 36.8418C89.2619 38.9411 95.4424 42.2434 101.697 43.2471Z" fill="#4A7FC3"/>
<path d="M85.3239 54.6824C84.9901 54.9631 84.64 55.2166 84.2408 55.3839C83.5343 55.6784 82.8448 56.0087 82.167 56.3589C81.3254 56.7955 80.5002 57.2623 79.6776 57.7347C79.2978 57.9533 78.9084 58.1529 78.5092 58.3264C77.9665 58.5626 77.4053 58.7516 76.819 58.8735C75.8135 59.0836 74.8034 59.1349 73.8033 58.836C72.5965 58.4761 71.895 57.6858 71.7722 56.4163C71.7294 55.9779 71.8235 55.5562 71.9466 55.1416C72.1174 54.5646 72.3797 54.0263 72.6428 53.4885C73.0777 52.5989 73.4812 51.6978 73.7365 50.7369C73.8551 50.2926 73.9422 49.849 73.9979 49.4047C74.0433 49.044 74.0676 48.6832 74.072 48.3216C74.0817 47.5166 73.9894 46.7105 73.7951 45.9037C73.7664 45.7854 73.6992 45.6684 73.7766 45.5439C73.8865 45.5152 73.9639 45.584 74.0459 45.6318C74.9417 46.1476 75.8341 46.6686 76.7217 47.1958C77.3658 47.5782 78.0078 47.9644 78.6475 48.3547C78.8864 48.5004 79.1249 48.6466 79.3629 48.7931C79.8692 49.1041 80.3736 49.4188 80.8764 49.7358C81.2597 49.9764 81.6424 50.2194 82.024 50.4644C82.4641 50.7466 82.9022 51.0308 83.3389 51.3183C83.9575 51.7235 84.5734 52.1347 85.1871 52.5502C85.9686 53.0818 85.9607 54.1458 85.3239 54.6824Z" fill="#3F6DB2"/>
<path d="M85.3237 54.6821C84.99 54.9628 84.6398 55.2163 84.2407 55.3836C83.5341 55.6782 82.8446 56.0084 82.1668 56.3586C82.1624 56.186 82.1527 56.0134 82.1346 55.8411C82.0546 55.0971 81.7659 54.3222 81.142 53.9094C81.1385 53.9067 81.1341 53.9041 81.1306 53.9023C80.8762 53.7359 80.5911 53.6418 80.2899 53.5911C79.5239 53.4622 78.6482 53.6119 77.877 53.5788C77.5912 53.5665 77.3202 53.5299 77.0743 53.4446C76.7953 53.3479 76.548 53.1885 76.3493 52.9332C76.3285 52.9063 76.3083 52.8784 76.2901 52.8506C76.1219 52.6006 76.0375 52.3137 75.9851 52.0125C75.9051 51.5498 75.8998 51.0513 75.7776 50.5974C75.5303 49.6781 74.8106 48.9707 74.0941 48.3424C74.0862 48.3354 74.0783 48.3284 74.0706 48.3216C74.0803 47.5166 73.988 46.7105 73.7937 45.9037C73.765 45.7854 73.6979 45.6684 73.7753 45.5439C73.8851 45.5152 73.9625 45.584 74.0446 45.6318C74.9404 46.1476 75.8327 46.6686 76.7203 47.1958C77.3644 47.5782 78.0065 47.9644 78.6462 48.3547C78.885 48.5004 79.1236 48.6466 79.3615 48.7931C79.8679 49.1041 80.3722 49.4188 80.8751 49.7359C81.2584 49.9764 81.6411 50.2194 82.0226 50.4644C82.4628 50.7466 82.9009 51.0308 83.3375 51.3183C83.9561 51.7236 84.5721 52.1347 85.1857 52.5502C85.9684 53.0815 85.9605 54.1455 85.3237 54.6821Z" fill="#385DAF"/>
<path d="M73.9502 54.757C74.0068 54.703 75.1361 53.6103 75.9857 52.012C76.7054 50.6605 77.2238 48.9465 76.7212 47.1953C77.3653 47.5777 78.0074 47.964 78.6471 48.3543C78.4223 49.4714 77.8324 51.1956 76.291 52.8504C75.6753 53.5118 74.9079 54.1618 73.9502 54.757Z" fill="#4A7FC3"/>
<path d="M74.6289 56.3511C74.6655 56.3127 75.8828 55.0544 77.0749 53.445C78.1712 51.9663 79.2446 50.1905 79.3621 48.793C79.8685 49.1039 80.3728 49.4186 80.8757 49.7357C80.2998 50.7229 79.3533 52.0847 77.8773 53.5792C76.9955 54.4733 75.9239 55.4142 74.6289 56.3511Z" fill="#4A7FC3"/>
<path d="M83.3377 51.3181C82.8427 52.0788 82.1353 52.9659 81.1305 53.9024C79.8906 55.0579 78.1983 56.2872 75.8936 57.4444C76.0137 57.3653 78.4999 55.7105 80.2895 53.5912C81.1164 52.6119 81.7951 51.5332 82.0225 50.4639C82.463 50.7464 82.9011 51.0306 83.3377 51.3181Z" fill="#4A7FC3"/>
<path opacity="0.43" d="M107.101 38.2581C106.895 38.9761 106.531 39.6158 106.102 40.2212C105.71 40.7745 105.277 41.2973 104.826 41.801C103.984 42.012 103.103 42.0275 102.239 41.9534C101.03 41.8505 99.7965 41.5569 98.8251 40.8275C97.2925 39.6773 96.6765 37.6105 96.7931 35.6978C96.8514 34.7446 97.0633 33.2711 97.5032 31.9615C98.3788 31.9082 99.2564 31.9023 100.134 31.9589C101.585 32.053 103.003 32.324 104.335 32.9453C104.945 33.2292 105.512 33.5815 105.994 34.0527C107.202 35.2328 107.564 36.6382 107.101 38.2581Z" fill="#4B7DBC"/>
<path d="M104.408 37.1911C104.408 37.1911 93.4762 39.2729 86.3887 35.769C86.4209 35.701 86.4523 35.6321 86.4827 35.5633C86.5534 35.4056 86.6492 35.2793 86.7693 35.1738C90.5631 36.2771 97.8085 37.9727 104.408 37.1911Z" fill="#4A7FC3"/>
<path d="M95.4848 79.4555C93.4136 82.4425 90.0902 84.4038 86.5857 85.3685C85.2787 85.7283 83.9448 85.961 82.5977 86.097C84.1757 85.4974 85.7251 84.8266 87.2254 84.0354C90.438 82.3422 93.059 80.0038 94.9178 76.858C95.8962 75.2023 96.6203 73.4458 96.9236 71.5349C97.3105 69.095 97.125 66.7023 96.2842 64.3732C95.1654 61.2728 93.3409 58.6387 90.9775 56.3603C89.2653 54.7099 87.3579 53.3088 85.408 51.9608C81.8642 49.5107 78.1775 47.2903 74.4514 45.1321C71.6432 43.5063 68.8198 41.9036 66.1179 40.1C63.3323 38.2415 60.6495 36.2494 58.2043 33.9534C56.7464 32.5846 55.4011 31.1206 54.3643 29.3963C54.1823 29.093 54.0097 28.7856 53.8556 28.4683C53.717 28.1858 53.5924 27.8965 53.4878 27.5968C53.4424 27.4678 53.3894 27.3424 53.3973 27.2143C53.501 27.1622 53.5532 27.2187 53.6047 27.2598C54.8578 28.2541 56.3069 28.8551 57.8064 29.3535C58.9035 29.7178 60.0171 30.0167 61.1403 30.2781C62.0482 30.49 62.9625 30.6772 63.8791 30.8557C65.2089 31.1144 66.5411 31.3612 67.8838 31.544C59.7651 30.6403 56.9645 29.5719 58.0742 30.7798C63.6822 35.5862 69.0768 39.9195 75.4674 43.4902C75.5293 43.5242 75.5911 43.559 75.6538 43.5939C75.9858 43.7776 76.3205 43.9599 76.6583 44.1401C83.9026 48.0027 92.6215 52.8634 96.5069 60.4544C99.391 66.0925 99.142 74.1822 95.4848 79.4555Z" fill="#ADCDEE"/>
<path d="M74.2152 22.5135C74.2152 22.5188 74.2144 22.5241 74.2144 22.529C74.1525 23.6279 73.6837 24.5173 72.7864 25.1685C71.4949 26.1059 69.7191 26.0851 68.4576 25.1327C67.4416 24.3658 67.0111 23.1591 67.2107 22.015C67.3118 21.4304 67.5784 20.8622 68.016 20.3769C69.2778 18.9777 71.5031 18.7892 72.973 19.9658C73.7821 20.6149 74.1804 21.4723 74.2152 22.5135Z" fill="white"/>
<path d="M74.2144 22.5286C74.1525 23.6276 73.6837 24.5169 72.7864 25.1681C71.4949 26.1055 69.7191 26.0847 68.4576 25.1323C67.4416 24.3654 67.0111 23.1587 67.2107 22.0146C67.4583 22.3291 67.6769 22.6324 68.0036 22.8894C69.0475 23.7119 70.4599 24.0325 71.7654 23.7817C72.678 23.6065 73.5304 23.1596 74.2144 22.5286Z" fill="#EAEAEA"/>
<path d="M73.3522 22.5162C73.3077 23.3519 72.954 24.028 72.2726 24.5229C71.2968 25.2303 69.9559 25.2148 69.0023 24.4951C67.9682 23.7144 67.7364 22.3298 68.3925 21.2701C68.4719 21.1421 68.5633 21.0193 68.6688 20.9024C69.6221 19.8454 71.3038 19.7035 72.4139 20.592C72.9141 20.992 73.206 21.4981 73.3106 22.0994C73.334 22.234 73.3478 22.3726 73.3522 22.5162Z" fill="#253147"/>
<path d="M73.3522 22.5155C73.3077 23.3513 72.954 24.0273 72.2726 24.5223C71.2968 25.2297 69.9559 25.2142 69.0023 24.4945C67.9682 23.7138 67.7364 22.3292 68.3925 21.2695C68.6322 21.5919 68.9598 22.2682 69.1846 22.4537C69.6306 22.8241 70.1789 23.0741 70.7582 23.1333C71.7088 23.2291 72.6762 22.8074 73.3103 22.0988C73.334 22.2333 73.3478 22.372 73.3522 22.5155Z" fill="#35455F"/>
<path d="M71.8062 21.273C71.0873 20.6972 69.9984 20.7895 69.3812 21.4741C68.7486 22.1759 68.8467 23.2341 69.5972 23.8008C70.2146 24.2671 71.0832 24.277 71.715 23.8187C72.1563 23.4984 72.3855 23.0606 72.4139 22.5193C72.3969 22.0098 72.2023 21.5904 71.8062 21.273Z" fill="#192230"/>
<path d="M70.6807 21.6973C70.6807 22.1887 70.2825 22.587 69.791 22.587C69.2996 22.587 68.9014 22.1887 68.9014 21.6973C68.9014 21.2059 69.2996 20.8076 69.791 20.8076C70.2822 20.8076 70.6807 21.2059 70.6807 21.6973Z" fill="white"/>
<path d="M108.702 17.1898C102.897 17.2935 100.64 18.2234 99.879 19.1816C99.0007 18.7564 98.1119 18.3564 97.21 17.9842C103.205 16.3412 108.702 17.1898 108.702 17.1898Z" fill="#4A7FC3"/>
<path d="M110.691 20.4521C107.564 20.2344 106.11 21.2337 105.439 22.3056C105.113 22.0941 104.784 21.8875 104.452 21.6844C104.338 21.6146 104.223 21.5449 104.108 21.476C106.93 19.3002 110.691 20.4521 110.691 20.4521Z" fill="#4A7FC3"/>
<path d="M113.58 24.2423C111.471 24.0951 110.122 24.5028 109.262 25.112C108.991 24.8855 108.717 24.6634 108.438 24.4445C110.951 23.437 113.58 24.2423 113.58 24.2423Z" fill="#4A7FC3"/>
<path d="M116.731 28.8349C115.098 28.4229 113.878 28.4419 112.967 28.6928C112.764 28.4645 112.56 28.2397 112.352 28.0185C114.709 27.7963 116.731 28.8349 116.731 28.8349Z" fill="#4A7FC3"/>
<path d="M119.55 33.435C118.261 33.11 117.229 33.0526 116.404 33.1666C116.275 32.9731 116.145 32.7806 116.013 32.5898C117.99 32.6332 119.55 33.435 119.55 33.435Z" fill="#4A7FC3"/>
<path d="M122.223 38.9754C121.017 38.2993 120.004 37.9767 119.156 37.8852C119.034 37.6455 118.91 37.4067 118.784 37.1699C120.814 37.6936 122.223 38.9754 122.223 38.9754Z" fill="#4A7FC3"/>
<path d="M124.267 44.0176C123.126 43.3782 122.157 43.0547 121.339 42.9442C121.261 42.7247 121.183 42.5058 121.101 42.2881C122.983 42.8481 124.267 44.0176 124.267 44.0176Z" fill="#4A7FC3"/>
<path d="M125.389 50.9243C124.5 50.1392 123.695 49.6373 122.973 49.3419C122.938 49.1206 122.899 48.8994 122.859 48.6787C124.458 49.62 125.389 50.9243 125.389 50.9243Z" fill="#4A7FC3"/>
<path d="M125.688 57.7873C124.909 56.8504 124.172 56.2233 123.49 55.8224V55.5792C123.489 55.4336 123.488 55.2882 123.485 55.1426C124.916 56.2945 125.651 57.7131 125.688 57.7873Z" fill="#4A7FC3"/>
<path d="M124.265 63.9236C123.844 63.4163 123.435 63.0008 123.04 62.6617C123.057 62.5284 123.073 62.3951 123.09 62.2617C123.846 63.1133 124.238 63.8696 124.265 63.9236Z" fill="#4A7FC3"/>
<path d="M80.0877 20.3132C79.9799 19.7406 79.3542 19.5264 78.8493 19.5264C78.3599 19.5264 77.853 19.9665 77.9494 20.479C78.0572 21.0517 78.6829 21.2659 79.1878 21.2659C79.6772 21.2659 80.1841 20.8257 80.0877 20.3132Z" fill="#3F6DB2"/>
<path d="M85.5374 18.1598C85.4319 17.5992 84.8195 17.3896 84.3251 17.3896C83.8463 17.3896 83.3499 17.8204 83.4443 18.3224C83.5497 18.883 84.1622 19.0925 84.6566 19.0925C85.1357 19.0922 85.6321 18.6614 85.5374 18.1598Z" fill="#3F6DB2"/>
<path d="M86.8116 20.9824C86.7113 20.45 86.1297 20.251 85.6602 20.251C85.2054 20.251 84.7339 20.6604 84.8236 21.1368C84.9238 21.6693 85.5055 21.8683 85.9749 21.8683C86.4297 21.8683 86.9012 21.4592 86.8116 20.9824Z" fill="#3F6DB2"/>
<path d="M95.1519 21.9735C95.0467 21.415 94.4366 21.2061 93.944 21.2061C93.4666 21.2061 92.9722 21.6354 93.0663 22.1353C93.1715 22.6938 93.7816 22.9028 94.2742 22.9028C94.7516 22.9028 95.2459 22.4735 95.1519 21.9735Z" fill="#3F6DB2"/>
<path d="M102.425 23.1356C102.406 23.019 102.357 22.9173 102.281 22.8306C102.217 22.726 102.131 22.6421 102.023 22.5786C101.945 22.5396 101.867 22.5003 101.789 22.4613C101.658 22.408 101.522 22.384 101.382 22.3892C101.292 22.3764 101.203 22.3828 101.115 22.4089C100.989 22.4227 100.871 22.4637 100.761 22.5323C100.7 22.58 100.639 22.6281 100.578 22.6758C100.469 22.786 100.403 22.9176 100.379 23.0706C100.373 23.2004 100.374 23.3305 100.393 23.4591C100.412 23.5749 100.46 23.676 100.536 23.7619C100.599 23.8656 100.685 23.9491 100.792 24.0118C100.87 24.0505 100.947 24.0895 101.024 24.1282C101.155 24.1812 101.29 24.2049 101.428 24.1997C101.518 24.2126 101.606 24.2061 101.693 24.18C101.819 24.1663 101.936 24.1255 102.045 24.0575C102.106 24.0101 102.166 23.9626 102.227 23.9151C102.335 23.8055 102.401 23.6751 102.424 23.5233C102.428 23.494 102.433 23.465 102.435 23.4357C102.442 23.3454 102.43 23.2332 102.425 23.1356Z" fill="#3F6DB2"/>
<path d="M103.428 28.2759C103.324 27.7255 102.722 27.5195 102.237 27.5195C101.767 27.5195 101.279 27.9427 101.372 28.4356C101.476 28.9859 102.077 29.1919 102.562 29.1919C103.033 29.1919 103.52 28.7688 103.428 28.2759Z" fill="#3F6DB2"/>
<path d="M110.408 30.9276C110.303 30.3691 109.692 30.1602 109.2 30.1602C108.722 30.1602 108.228 30.5895 108.322 31.0894C108.427 31.6479 109.037 31.8569 109.53 31.8569C110.007 31.8569 110.502 31.4276 110.408 30.9276Z" fill="#3F6DB2"/>
<path d="M115.167 41.3788C115.143 41.3105 115.118 41.242 115.094 41.1737C115.049 41.1124 115.004 41.0512 114.96 40.9897C114.876 40.8962 114.776 40.8258 114.661 40.779C114.546 40.711 114.421 40.67 114.286 40.6559C114.232 40.6439 114.178 40.6319 114.125 40.6195C113.941 40.5932 113.76 40.6067 113.581 40.6597C113.422 40.7075 113.283 40.7898 113.164 40.907C113.12 40.9686 113.075 41.0304 113.031 41.0919C112.961 41.2332 112.94 41.3815 112.969 41.5365C112.989 41.6552 113.038 41.7589 113.116 41.8471C113.181 41.9535 113.269 42.039 113.379 42.1038C113.535 42.204 113.706 42.2667 113.89 42.2922C114.074 42.3186 114.255 42.3051 114.434 42.2521C114.483 42.2407 114.532 42.2289 114.581 42.2175C114.654 42.1853 114.728 42.153 114.801 42.1208C114.905 42.0666 114.986 41.9904 115.044 41.8925C115.097 41.8389 115.129 41.7747 115.141 41.7003C115.185 41.5983 115.194 41.4911 115.167 41.3788Z" fill="#3F6DB2"/>
<path d="M118.857 44.1943C118.824 44.0387 118.752 43.9036 118.641 43.789C118.519 43.6633 118.376 43.5704 118.212 43.5103C118.078 43.4561 117.94 43.4318 117.799 43.4371C117.663 43.4224 117.529 43.4374 117.397 43.4816C117.238 43.5291 117.1 43.6112 116.982 43.7281C116.872 43.84 116.805 43.9734 116.781 44.1287C116.761 44.2843 116.789 44.4314 116.864 44.5691C116.886 44.6178 116.908 44.6661 116.93 44.7147C116.973 44.7742 117.016 44.8337 117.059 44.8932C117.119 44.9427 117.179 44.9926 117.239 45.0421C117.312 45.079 117.386 45.1159 117.459 45.1528C117.583 45.2033 117.712 45.2261 117.844 45.2211C117.93 45.2334 118.013 45.2273 118.096 45.2027C118.178 45.1968 118.254 45.1737 118.324 45.1329C118.398 45.1106 118.463 45.0726 118.518 45.0183C118.61 44.9594 118.68 44.8797 118.728 44.7789C118.751 44.732 118.773 44.6852 118.795 44.638C118.866 44.4967 118.886 44.349 118.857 44.1943Z" fill="#3F6DB2"/>
<path d="M117.284 54.5948C117.238 54.5313 117.192 54.4677 117.146 54.4041C117.024 54.2789 116.882 54.1863 116.718 54.1263C116.585 54.0723 116.448 54.048 116.306 54.0533C116.171 54.0386 116.037 54.0536 115.906 54.0976C115.784 54.1289 115.677 54.1866 115.585 54.2704C115.487 54.3334 115.412 54.4187 115.36 54.5266C115.29 54.6666 115.269 54.8137 115.298 54.9679L115.348 55.1554C115.371 55.2442 115.393 55.3357 115.436 55.4171C115.485 55.5094 115.543 55.5765 115.614 55.6436C115.823 55.8409 116.063 55.9417 116.35 55.951C116.468 55.9639 116.585 55.9507 116.7 55.9124C116.839 55.8707 116.96 55.7992 117.063 55.6973C117.136 55.6351 117.187 55.5795 117.236 55.4813C117.272 55.4098 117.293 55.3037 117.317 55.2184C117.333 55.1569 117.35 55.0956 117.367 55.0341C117.386 54.8785 117.359 54.7323 117.284 54.5948Z" fill="#3F6DB2"/>
<path d="M121.013 59.7824C120.909 59.228 120.303 59.0205 119.814 59.0205C119.34 59.0205 118.849 59.4469 118.942 59.943C119.047 60.4974 119.652 60.7049 120.141 60.7049C120.615 60.7049 121.106 60.2785 121.013 59.7824Z" fill="#3F6DB2"/>
<path d="M116.54 65.7519C116.435 65.1954 115.827 64.9873 115.336 64.9873C114.861 64.9873 114.368 65.4151 114.462 65.9133C114.567 66.4698 115.174 66.6779 115.665 66.6779C116.141 66.6779 116.634 66.25 116.54 65.7519Z" fill="#3F6DB2"/>
<path d="M119.284 72.3351C119.238 72.2709 119.191 72.2064 119.144 72.1423C119.022 72.0157 118.877 71.9222 118.712 71.8615C118.577 71.807 118.439 71.7824 118.296 71.7877C118.159 71.773 118.024 71.788 117.891 71.8325C117.767 71.8644 117.659 71.9228 117.567 72.0072C117.467 72.0708 117.391 72.1572 117.339 72.2662C117.268 72.4077 117.247 72.5566 117.276 72.7122C117.28 72.7459 117.283 72.7796 117.287 72.8136C117.288 72.8312 117.291 72.847 117.295 72.864C117.328 73.0179 117.399 73.1515 117.509 73.2649C117.573 73.3209 117.639 73.3757 117.706 73.4287C117.784 73.4674 117.861 73.5064 117.938 73.545C118.069 73.5981 118.204 73.6218 118.342 73.6168C118.432 73.6297 118.52 73.6233 118.607 73.5972C118.732 73.5834 118.85 73.5427 118.959 73.4747C119.107 73.3721 119.205 73.2971 119.286 73.1321C119.339 73.0243 119.349 72.971 119.358 72.8795L119.368 72.779C119.388 72.6217 119.36 72.474 119.284 72.3351Z" fill="#3F6DB2"/>
<path d="M113.713 76.0337C113.608 75.4813 113.005 75.2744 112.517 75.2744C112.045 75.2744 111.556 75.699 111.649 76.1937C111.753 76.7461 112.357 76.9529 112.844 76.9529C113.316 76.9529 113.806 76.528 113.713 76.0337Z" fill="#3F6DB2"/>
<path d="M104.585 89.7976C104.481 89.2494 103.882 89.0439 103.399 89.0439C102.93 89.0439 102.444 89.4656 102.537 89.9565C102.64 90.5048 103.239 90.7102 103.723 90.7102C104.192 90.7105 104.678 90.2888 104.585 89.7976Z" fill="#3F6DB2"/>
<path d="M97.277 91.6231C97.1748 91.0807 96.5822 90.8779 96.104 90.8779C95.6404 90.8779 95.1601 91.2949 95.2515 91.7805C95.3538 92.3229 95.9463 92.5257 96.4246 92.5257C96.8882 92.5257 97.3685 92.1087 97.277 91.6231Z" fill="#3F6DB2"/>
<path d="M89.152 94.9395C89.0498 94.3971 88.4572 94.1943 87.979 94.1943C87.5154 94.1943 87.0351 94.6113 87.1265 95.0969C87.2288 95.6393 87.8213 95.8421 88.2996 95.8421C88.7632 95.8418 89.2435 95.4248 89.152 94.9395Z" fill="#3F6DB2"/>
<path d="M73.2595 17.497C73.1545 16.9405 72.5468 16.7324 72.0559 16.7324C71.5803 16.7324 71.0877 17.1603 71.1815 17.6584C71.2864 18.2149 71.8942 18.423 72.385 18.423C72.8603 18.423 73.3532 17.9951 73.2595 17.497Z" fill="#3F6DB2"/>
<path d="M65.597 17.4987C65.4956 16.9604 64.9074 16.7588 64.4324 16.7588C63.9724 16.7588 63.4956 17.1729 63.5864 17.6546C63.6878 18.1929 64.2759 18.3943 64.751 18.3943C65.211 18.3945 65.6878 17.9808 65.597 17.4987Z" fill="#3F6DB2"/>
<path d="M55.6251 20.983C55.526 20.4567 54.9508 20.2598 54.4866 20.2598C54.0368 20.2598 53.5708 20.6645 53.6593 21.1357C53.7584 21.662 54.3336 21.8589 54.7978 21.8589C55.2476 21.8589 55.7136 21.4542 55.6251 20.983Z" fill="#3F6DB2"/>
<path d="M85.4472 20.4941C85.4472 20.4941 91.3716 37.7314 75.4668 43.4909C75.4668 43.4909 80.9968 42.7773 83.883 38.9754C83.883 38.9754 91.1856 31.8577 85.4472 20.4941Z" fill="#ADCDEE"/>
<path d="M73.7863 34.9813C73.7863 34.9813 75.657 32.6118 74.215 32.501C74.215 32.501 64.316 32.6669 57.1854 29.8478L56.835 28.501C61.0993 30.5467 67.6822 31.3851 75.9348 31.6541C75.9348 31.6541 75.7945 34.0345 73.7863 34.9813Z" fill="#ADCDEE"/>
<path d="M125.28 88.2871C124.846 89.6386 124.268 90.9046 123.542 92.0811C123.866 91.1323 124.117 90.1588 124.294 89.1718C124.611 87.4013 124.571 85.2978 123.184 84.152C122.667 83.7259 122.021 83.4897 121.38 83.2937C120.408 82.9965 119.428 82.8512 118.442 82.6663C119.152 82.5722 119.861 82.4685 120.575 82.4084C121.533 82.3272 122.496 82.2768 123.441 82.5347C124.705 82.8808 125.445 83.6055 125.632 85.1566C125.762 86.227 125.607 87.2717 125.28 88.2871Z" fill="#4A7FC3"/>
<path d="M87.0094 79.7814C86.7847 79.8101 86.571 79.8309 86.3882 79.8172C85.129 79.7955 84.0617 79.5103 83.1867 78.9448C82.2909 78.3681 81.5972 77.4966 81.1067 76.3141C80.6979 75.3286 80.4983 74.2963 80.4104 73.2322C80.3128 72.0559 80.3879 70.8978 80.6396 69.7529C80.5994 70.1922 80.5915 70.6417 80.6109 71.1027C80.7032 73.316 81.3411 75.5613 82.7448 77.2753C83.2632 77.908 83.895 78.4569 84.5965 78.8829C85.34 79.3363 86.1625 79.6507 87.0094 79.7814Z" fill="#4A7FC3"/>
<path d="M98.4464 99.542C98.0194 100.292 97.6282 101.065 97.2596 101.855C96.8127 102.813 96.369 103.775 95.8436 104.695C95.5256 105.253 95.176 105.789 94.7083 106.238C94.1419 106.78 93.4928 107.158 92.706 107.285C92.1055 107.383 91.5409 107.251 90.9893 107.047C90.1093 106.72 89.3888 106.148 88.7361 105.493C88.4258 105.181 88.1392 104.858 87.877 104.523C88.2028 104.754 88.5445 104.964 88.9044 105.142C90.3778 105.873 92.2043 106.04 93.6516 105.258C95.5626 104.225 96.3344 101.921 97.7437 100.268C97.9403 100.037 98.178 99.7884 98.4464 99.542Z" fill="#4A7FC3"/>
<path d="M78.5083 58.326C77.9655 58.5621 77.4044 58.7512 76.818 58.8731C75.8126 59.0832 74.8025 59.1345 73.8023 58.8356C72.5956 58.4757 71.894 57.6854 71.7712 56.4159C71.7284 55.9775 71.8225 55.5558 71.9456 55.1412C72.1164 54.5642 72.3787 54.0259 72.6419 53.4881C73.0767 52.5985 73.4802 51.6973 73.7355 50.7365C73.8542 50.2922 73.9412 49.8485 73.9969 49.4043C74.1434 50.5407 73.9611 51.7979 73.6397 52.7599C73.2537 53.9145 72.5712 55.0881 72.8737 56.2662C73.0715 57.0407 73.6866 57.664 74.4063 58.0133C75.126 58.3617 75.9415 58.4637 76.7415 58.4654C77.3355 58.4672 77.9245 58.4159 78.5083 58.326Z" fill="#4A7FC3"/>
<path d="M107.101 38.2576C106.896 38.9755 106.531 39.6152 106.102 40.2207C105.71 40.7739 105.278 41.2967 104.826 41.8005C104.749 41.8875 104.67 41.9739 104.591 42.0601C103.349 43.4125 102.297 44.892 101.443 46.5134C101.39 46.6128 101.338 46.713 101.287 46.8141C101.255 46.8777 101.223 46.9413 101.189 47.004C101.209 46.7766 101.234 46.5492 101.264 46.3236C101.401 45.3093 101.657 44.2916 102.197 43.4227C102.68 42.6488 103.365 42.0276 103.969 41.3445C105.037 40.1377 105.884 38.6163 105.815 37.0069C105.722 34.8425 103.957 33.0379 101.948 32.2277C101.878 32.1998 101.808 32.1729 101.739 32.1465C102.63 32.3024 103.499 32.5544 104.336 32.9447C104.946 33.2287 105.512 33.5809 105.995 34.0521C107.202 35.2322 107.565 36.6376 107.101 38.2576Z" fill="#4A7FC3"/>
<path d="M126.615 54.6516C126.57 55.522 126.501 56.3856 126.404 57.2412C126.643 47.4132 123.651 37.492 117.829 29.5558C115.752 26.7239 113.297 24.0592 112.147 20.7403C111.508 18.8964 111.225 16.7616 110.076 15.1836C111.138 15.4312 111.829 16.0454 112.147 17.1772C112.554 18.6245 113.059 20.0422 113.718 21.3996C114.588 23.1954 115.612 24.9032 116.664 26.5946C118.166 29.0067 119.739 31.375 121.162 33.8366C122.791 36.6536 124.206 39.5667 125.166 42.6853C125.753 44.5927 126.167 46.535 126.402 48.5189C126.643 50.5581 126.719 52.605 126.615 54.6516Z" fill="#4A7FC3"/>
<path d="M83.3133 28.6545C83.5358 27.2796 82.6017 25.9847 81.2269 25.7622C79.8521 25.5396 78.5571 26.4737 78.3346 27.8485C78.112 29.2234 79.0462 30.5183 80.421 30.7408C81.7958 30.9634 83.0907 30.0293 83.3133 28.6545Z" fill="#E27E6E"/>
<path d="M68.9356 81.3725C66.2258 79.0569 64.467 75.8319 63.0112 72.5786C62.115 70.5759 61.1999 68.3998 59.332 67.249C60.9191 69.2836 61.2901 71.9752 62.1042 74.4239C62.7222 76.2826 63.621 78.0479 64.7603 79.6415C65.9278 81.274 67.3919 82.7568 69.2242 83.5753C70.0319 83.936 70.9661 84.4808 71.7552 84.7219C72.0087 83.4906 69.7587 82.0758 68.9356 81.3725Z" fill="#4A7FC3"/>
<path d="M63.6425 99.9986C62.351 100.89 61.0757 101.835 60.0633 103.034C57.8095 105.703 57.0848 109.375 57.18 112.867C58.1216 108.09 60.9568 103.713 64.931 100.901C66.7672 99.6015 69.491 98.3795 70.4015 96.1764C68.9972 95.6683 64.8791 99.1455 63.6425 99.9986Z" fill="#4A7FC3"/>
<path d="M70.4507 91.0673C69.7465 91.351 68.9562 91.3363 68.2066 91.2182C67.2726 91.0711 66.2517 90.7851 65.4326 91.2572C66.1189 90.2192 67.3831 89.5921 68.6247 89.6742C69.2266 89.714 69.8121 89.9066 70.4149 89.9279C70.8102 89.942 71.2275 89.8362 71.5888 89.6991C71.7128 90.3256 71.0089 90.8422 70.4507 91.0673Z" fill="#4A7FC3"/>
<path d="M101.742 56.9867C101.737 56.9135 101.732 56.8402 101.727 56.7667C101.699 56.6034 101.632 56.4613 101.525 56.3397C101.435 56.1935 101.315 56.076 101.164 55.9872C101.055 55.9324 100.946 55.8779 100.837 55.8231C100.653 55.7483 100.463 55.7146 100.267 55.722C100.14 55.7038 100.016 55.7129 99.8936 55.7495C99.7166 55.7688 99.5513 55.8263 99.398 55.9221C99.3122 55.9892 99.2266 56.056 99.1407 56.1231C98.989 56.2776 98.8964 56.4616 98.8632 56.6755C98.8583 56.7485 98.8533 56.8215 98.8483 56.8944C98.821 57.1113 98.8597 57.3161 98.964 57.508C99.0288 57.5968 99.0933 57.6859 99.158 57.7747C99.3277 57.95 99.5273 58.0792 99.7564 58.1633C99.9425 58.2389 100.134 58.2729 100.332 58.2653C100.522 58.2855 100.708 58.265 100.891 58.2034C101.063 58.1595 101.212 58.0789 101.34 57.9617C101.478 57.8735 101.583 57.7542 101.656 57.6033C101.753 57.4078 101.782 57.2021 101.742 56.9867Z" fill="#ADCDEE"/>
<path d="M104.483 51.9121C104.351 51.2108 103.585 50.9482 102.966 50.9482C102.367 50.9482 101.746 51.4874 101.864 52.1151C101.996 52.8164 102.763 53.0789 103.381 53.0789C103.981 53.0792 104.602 52.54 104.483 51.9121Z" fill="#ADCDEE"/>
<path d="M106.041 66.2827C105.908 65.5761 105.136 65.3115 104.513 65.3115C103.909 65.3115 103.283 65.8548 103.402 66.4872C103.535 67.1937 104.308 67.4583 104.931 67.4583C105.535 67.4586 106.16 66.9153 106.041 66.2827Z" fill="#ADCDEE"/>
<path d="M99.8106 81.0991C99.6814 80.4136 98.9327 80.1572 98.3279 80.1572C97.7421 80.1572 97.1349 80.6841 97.2506 81.2977C97.3799 81.9832 98.1286 82.2399 98.7334 82.2399C99.3189 82.2399 99.9261 81.7127 99.8106 81.0991Z" fill="#ADCDEE"/>
<path d="M124.882 39.9681C123.733 37.0539 122.227 34.3253 120.596 31.6607C119.171 29.3316 117.662 27.055 116.249 24.7186C114.801 22.3262 113.553 19.845 112.784 17.1425C112.681 16.7815 112.546 16.4299 112.379 16.0911C112.096 15.5159 111.661 15.1059 111.073 14.8548C110.7 14.6954 110.312 14.5887 109.914 14.514C108.709 14.2874 107.489 14.1781 106.268 14.0723C104.893 13.9534 103.514 13.9041 102.136 13.8666C100.547 13.8233 98.962 13.9088 97.3802 14.0791C96.1184 14.2148 94.8709 14.4155 93.6501 14.7657C92.8199 15.0036 92.009 15.2993 91.2084 15.6214C90.87 15.7576 90.5512 15.7732 90.196 15.6811C86.4026 14.7 82.5365 14.2649 78.6267 14.186C76.7316 14.148 74.838 14.1948 72.9458 14.3293C70.7916 14.4823 68.6507 14.7288 66.5203 15.081C63.7109 15.5455 60.9733 16.2722 58.3037 17.2586C56.597 17.8892 54.9867 18.7065 53.5022 19.7626C52.9542 20.1524 52.4598 20.6016 52.066 21.1514C51.4866 21.9599 51.273 22.8492 51.4336 23.8397C51.5734 24.7039 51.9344 25.4579 52.4771 26.1307C52.6307 26.3209 52.7379 26.5196 52.7778 26.7605C52.9363 27.7199 53.2918 28.6072 53.7633 29.4535C54.5557 30.8756 55.5585 32.1378 56.6776 33.3123C58.6764 35.409 60.9355 37.1986 63.2722 38.8965C65.8451 40.7658 68.5452 42.4367 71.2942 44.0306C71.4993 44.1496 71.7027 44.2688 71.8706 44.4414C72.733 45.327 73.2725 46.3776 73.4589 47.599C73.6002 48.5235 73.4554 49.4313 73.2347 50.3289C72.9836 51.3505 72.5414 52.2964 72.0755 53.2324C71.79 53.8062 71.5099 54.3811 71.3294 55C71.1383 55.6553 71.09 56.3205 71.2309 56.9836C71.5117 58.3044 72.3846 59.0836 73.6385 59.449C74.7169 59.7631 75.8158 59.7089 76.9077 59.4985C78.0986 59.2688 79.1826 58.7621 80.2217 58.1584C81.5354 57.3953 82.86 56.6569 84.2666 56.0749C84.6141 55.931 84.9432 55.747 85.255 55.5339C85.8555 55.1234 86.339 54.6208 86.5702 53.9087C86.6502 53.6626 86.6807 53.6605 86.8875 53.79C86.9582 53.8343 87.0235 53.887 87.0909 53.9366C88.191 54.7477 89.2503 55.6084 90.2508 56.5402C92.4193 58.5602 94.1465 60.894 95.3169 63.6283C96.4199 66.2053 96.7827 68.8682 96.2778 71.6366C96.2379 71.8555 96.2045 72.0779 96.0428 72.2511C95.425 72.9134 94.6822 73.2149 93.784 72.9808C92.6854 72.6945 91.7435 72.1016 90.8627 71.4071C90.0295 70.7504 89.2621 70.021 88.533 69.2506C87.968 68.6534 87.4162 68.0433 86.8146 67.4815C86.3753 67.0716 85.9114 66.6918 85.3898 66.3917C84.736 66.0155 84.0401 65.808 83.2735 65.8988C82.3765 66.0052 81.6855 66.4626 81.1281 67.1469C80.5795 67.82 80.2628 68.6056 80.0658 69.4402C79.7628 70.7246 79.6925 72.0263 79.7951 73.3415C79.8844 74.4888 80.1127 75.602 80.5658 76.662C81.6207 79.1305 83.6465 80.4566 86.3375 80.4302C87.3465 80.4202 88.332 80.2338 89.2867 79.9112C90.448 79.5188 91.575 79.04 92.6748 78.4973C92.7959 78.4375 92.9019 78.3358 93.0866 78.3461C93.0502 78.5269 92.9389 78.6186 92.8515 78.7226C91.4707 80.3719 89.8663 81.7635 88.0181 82.8651C86.0366 84.046 83.9079 84.912 81.7649 85.7448C81.3494 85.9062 80.9086 85.8936 80.4855 85.8107C79.4803 85.6141 78.5312 85.2583 77.6641 84.7036C75.3953 83.2522 73.3692 81.5209 71.6125 79.4752C69.228 76.6986 67.131 73.7154 65.2063 70.6068C64.2457 69.0555 63.3288 67.476 62.2785 65.9815C61.8293 65.342 61.3554 64.7229 60.789 64.1804C60.4039 63.8118 59.9869 63.4865 59.4923 63.2782C58.4953 62.8585 57.6385 63.1686 57.1321 64.1209C56.9803 64.4064 56.8836 64.7102 56.8127 65.0238C56.5911 66.0037 56.6433 66.9922 56.7529 67.9765C56.9196 69.4731 57.2285 70.9441 57.6141 72.3991C58.5592 75.9657 59.7343 79.4649 60.711 83.0224C61.2083 84.8337 61.8278 86.611 62.1276 88.4742C62.3263 89.7079 62.3705 90.941 62.163 92.1747C62.0124 93.0708 61.7179 93.928 61.3786 94.7684C60.6339 96.6128 59.6186 98.3066 58.4985 99.9429C57.5465 101.334 56.5862 102.72 55.707 104.159C54.762 105.706 53.8758 107.285 53.2639 109C52.7643 110.401 52.4168 111.829 52.6266 113.336C52.7696 114.363 53.1086 115.31 53.8014 116.102C54.3766 116.76 55.1684 116.921 55.9561 116.545C56.3743 116.345 56.7435 116.069 57.0752 115.747C57.375 115.456 57.6684 115.158 57.9547 114.853C59.7214 112.975 61.4158 111.032 63.1148 109.093C64.8971 107.058 66.733 105.074 68.7459 103.262C71.2303 101.026 73.9647 99.1851 77.0879 97.9447C78.2446 97.4852 79.427 97.247 80.6698 97.2575C81.9844 97.2686 83.2738 97.4887 84.5658 97.6897C84.9057 97.7425 85.064 97.9336 85.0804 98.2963C85.0956 98.6301 85.1015 98.963 85.1375 99.2965C85.3831 101.58 86.2385 103.599 87.735 105.342C88.4489 106.174 89.2556 106.902 90.2367 107.403C92.0366 108.321 93.7312 108.072 95.1777 106.659C95.4883 106.356 95.7518 106.015 95.9912 105.654C96.3381 105.13 96.6414 104.582 96.9172 104.019C97.4623 102.905 98.0026 101.79 98.5453 100.675C99.8004 98.098 101.554 95.8981 103.639 93.9488C103.885 93.7184 104.156 93.5294 104.45 93.3647C105.531 92.7584 106.6 92.129 107.606 91.4022C108.12 91.0315 108.113 91.033 108.44 91.5543C110.009 94.0534 112.108 95.9497 114.835 97.1122C116.1 97.6516 117.413 97.8093 118.751 97.4026C119.745 97.1004 120.581 96.5188 121.322 95.8087C123.554 93.671 125.106 91.1142 125.972 88.148C126.312 86.9832 126.396 85.7908 126.17 84.5923C125.934 83.3392 125.206 82.4876 124.007 82.0457C123.534 81.8711 123.042 81.7761 122.54 81.7465C121.38 81.6782 120.231 81.7908 119.085 81.9552C118.355 82.0598 117.62 82.1307 116.887 82.2136C116.809 82.2224 116.712 82.2503 116.668 82.15C116.635 82.0744 116.698 82.0205 116.736 81.9657C116.977 81.624 117.231 81.2914 117.458 80.9407C118.223 79.7553 118.818 78.4812 119.422 77.2096C120.198 75.5748 120.977 73.9393 121.956 72.409C122.255 71.9402 122.525 71.4508 122.794 70.9632C125.624 65.8385 126.964 60.307 127.243 54.496C127.345 52.3782 127.256 50.2604 126.991 48.1554C126.635 45.3396 125.923 42.6114 124.882 39.9681ZM85.323 54.6824C84.9898 54.9631 84.6393 55.2172 84.2399 55.3836C82.6549 56.0444 81.1627 56.8822 79.6767 57.7353C78.78 58.2498 77.8355 58.6616 76.8178 58.874C75.812 59.0838 74.8025 59.1351 73.8021 58.8368C72.5956 58.477 71.8944 57.6866 71.771 56.4166C71.7285 55.9791 71.8229 55.5571 71.9456 55.1421C72.1162 54.5657 72.3785 54.0268 72.6416 53.4888C73.0765 52.5997 73.4794 51.6983 73.7352 50.738C74.1628 49.1316 74.1833 47.5204 73.7939 45.904C73.7654 45.7856 73.698 45.669 73.7751 45.5444C73.885 45.5157 73.9624 45.5849 74.0441 45.6321C77.8343 47.8152 81.5641 50.0933 85.1853 52.5508C85.9683 53.0818 85.9598 54.1458 85.323 54.6824ZM88.7674 79.4444C88.3381 79.5651 87.9035 79.6674 87.4622 79.7216C87.0763 79.7691 86.6897 79.8406 86.3876 79.8174C83.8399 79.7735 82.0767 78.6532 81.1067 76.315C80.6976 75.3292 80.4984 74.2965 80.4102 73.2331C80.3067 71.985 80.3973 70.7575 80.6877 69.5434C80.8277 68.9582 81.0431 68.3985 81.3687 67.8898C81.8314 67.1671 82.4497 66.6628 83.3256 66.5242C83.7845 66.4515 84.2106 66.5629 84.6282 66.7273C85.1938 66.95 85.6682 67.316 86.1221 67.7092C86.7554 68.2578 87.3163 68.8788 87.8895 69.4874C88.6353 70.2795 89.4124 71.0382 90.2528 71.7301C90.9983 72.3437 91.7975 72.8741 92.681 73.2682C93.563 73.6615 94.4674 73.8868 95.4373 73.6175C95.6706 73.5528 95.7339 73.6228 95.6542 73.8449C95.3518 74.6851 94.9714 75.4907 94.5283 76.2658C94.4747 76.3595 94.3906 76.4425 94.3044 76.5096C92.6332 77.8154 90.8254 78.8656 88.7674 79.4444ZM101.703 95.1206C101.663 95.1927 101.604 95.2554 101.546 95.3152C99.7055 97.2256 98.3736 99.4679 97.2592 101.855C96.8117 102.814 96.3686 103.775 95.8435 104.696C95.525 105.254 95.1756 105.79 94.7077 106.238C94.1415 106.78 93.4924 107.158 92.7056 107.286C92.1054 107.383 91.5405 107.252 90.9893 107.047C90.109 106.721 89.3881 106.148 88.7355 105.494C87.0317 103.785 86.062 101.718 85.7664 99.3276C85.7095 98.8687 85.6905 98.4138 85.7423 97.9538C85.7675 97.7287 85.8669 97.6455 86.0928 97.654C86.4685 97.6684 86.8451 97.6578 87.221 97.6578C89.7494 97.6452 92.2435 97.3275 94.7138 96.8009C96.894 96.3362 99.0327 95.7311 101.113 94.9269C101.242 94.8771 101.37 94.8173 101.514 94.8203C101.715 94.8241 101.797 94.9475 101.703 95.1206ZM117.135 82.8164C118.287 82.7162 119.425 82.5052 120.575 82.4082C121.533 82.3273 122.496 82.2769 123.44 82.5348C124.705 82.8803 125.445 83.6059 125.632 85.1564C125.762 86.2274 125.607 87.2721 125.28 88.2872C124.429 90.9322 123.035 93.251 121.049 95.2036C120.691 95.5558 120.303 95.8744 119.884 96.1533C118.585 97.0184 117.195 97.2276 115.701 96.7514C114.423 96.3441 113.286 95.6818 112.239 94.8569C109.951 93.0532 108.331 90.7927 107.576 87.9537C107.306 86.9389 107.211 85.8998 107.199 84.7807C107.236 83.4986 107.36 82.1565 107.688 80.8387C107.749 80.5946 107.828 80.3575 107.937 80.1304C108.08 79.8294 108.109 79.8192 108.34 80.0322C109.338 80.9536 110.508 81.5933 111.765 82.0733C113.495 82.7329 115.284 82.9776 117.135 82.8164ZM116.942 80.79C116.728 81.1478 116.467 81.4784 116.253 81.8365C116.048 82.1796 115.768 82.2772 115.38 82.2497C113.907 82.1451 112.492 81.8168 111.147 81.205C110.064 80.7124 109.039 80.1292 108.183 79.2817C107.927 79.028 107.703 79.1009 107.54 79.4385C107.17 80.1987 106.976 81.0083 106.841 81.8356C106.68 82.827 106.586 83.8268 106.585 84.8296C106.583 86.6597 106.89 88.4326 107.663 90.1079C107.82 90.4469 107.82 90.4601 107.508 90.6869C105.665 92.0282 103.701 93.1573 101.597 94.0387C99.0198 95.1189 96.3402 95.8515 93.6005 96.3813C92.2599 96.6404 90.9104 96.837 89.5498 96.941C88.1462 97.0486 86.7419 97.0732 85.3321 96.9861C83.7426 96.8883 82.1743 96.6787 80.6317 96.2893C79.291 95.9508 77.9893 95.506 76.8005 94.779C76.4432 94.5603 76.1016 94.3201 75.7845 94.0461C75.1545 93.5016 74.6331 92.8754 74.3216 92.0915C74.2824 91.9924 74.2501 91.8485 74.1051 91.891C73.9585 91.9341 73.9544 92.0824 73.9758 92.2075C74.0157 92.4417 74.0892 92.6661 74.2009 92.878C74.4432 93.3372 74.7442 93.7533 75.107 94.1243C75.9588 94.9949 76.9816 95.6062 78.0901 96.0868C78.2302 96.1475 78.3732 96.2061 78.5036 96.2849C78.6513 96.3743 78.7656 96.4991 78.7422 96.6925C78.7173 96.8974 78.5318 96.9006 78.3946 96.9372C76.7161 97.3885 75.1439 98.0988 73.6277 98.9308C71.4645 100.118 69.5471 101.643 67.7487 103.321C65.698 105.235 63.8208 107.314 61.9813 109.428C60.3898 111.257 58.7822 113.073 57.1095 114.829C56.6855 115.274 56.2395 115.69 55.6856 115.978C54.9199 116.377 54.3567 116.221 53.923 115.487C53.0922 114.079 52.9621 112.579 53.3038 111.008C53.6692 109.33 54.3933 107.796 55.1983 106.296C56.221 104.39 57.443 102.608 58.6588 100.824C59.71 99.2812 60.7746 97.7469 61.6397 96.0871C62.2348 94.9448 62.7099 93.7618 62.9082 92.4786C63.0694 91.4368 63.0536 90.3968 62.9129 89.3565C62.5909 86.9744 61.9154 84.6758 61.2452 82.3771C60.3802 79.4101 59.4058 76.4762 58.5616 73.503C58.0514 71.7069 57.6106 69.8947 57.3859 68.038C57.2687 67.0683 57.1998 66.0955 57.4336 65.1293C57.5163 64.7882 57.6297 64.46 57.8415 64.1757C58.144 63.7702 58.5287 63.6512 59.0199 63.7892C59.404 63.8973 59.7293 64.1072 60.0338 64.3548C60.6008 64.816 61.0568 65.3787 61.4882 65.9627C62.4997 67.3321 63.3598 68.7994 64.2454 70.2496C66.1434 73.357 68.1982 76.3522 70.5174 79.1637C72.4113 81.4593 74.5725 83.4535 77.0707 85.0775C77.6324 85.4426 78.2056 85.7835 78.8157 86.0619C78.9918 86.1424 79.2093 86.2142 79.2034 86.4495C79.197 86.7133 78.9778 86.8129 78.7609 86.8876C77.6213 87.2815 76.5649 87.8468 75.5712 88.5167C74.6853 89.1139 74.2475 90.0331 73.9609 91.0315C73.9427 91.0946 73.9421 91.1707 74.0192 91.2566C74.1816 91.1892 74.1997 91.0371 74.2642 90.9214C74.7501 90.0496 75.2939 89.2188 76.1605 88.6796C77.0006 88.1568 77.8868 87.709 78.8304 87.4052C81.7083 86.4783 84.5453 85.4494 87.226 84.0361C90.4383 82.3426 93.0593 80.0041 94.9181 76.8589C95.8965 75.2035 96.6206 73.4461 96.9236 71.5352C97.3105 69.0953 97.1247 66.7026 96.2839 64.3732C95.1648 61.2737 93.3406 58.6393 90.9775 56.3609C89.2656 54.7102 87.3579 53.3092 85.4077 51.9609C81.8639 49.5108 78.1775 47.2904 74.4514 45.1324C71.6429 43.506 68.8198 41.9037 66.1176 40.1006C63.332 38.2415 60.6492 36.25 58.204 33.9535C56.7467 32.585 55.4005 31.1206 54.3643 29.3967C54.0194 28.8226 53.7088 28.2315 53.4872 27.5968C53.4424 27.4679 53.3888 27.3424 53.3967 27.2144C53.5004 27.1622 53.5529 27.2191 53.6039 27.2598C54.8569 28.2544 56.3057 28.8557 57.8058 29.3539C59.7906 30.0132 61.8287 30.4575 63.8779 30.8563C65.3118 31.1353 66.7488 31.3996 68.1979 31.5869C69.3443 31.7348 70.4951 31.8483 71.6523 31.8585C72.8089 31.8688 73.9656 31.8614 75.1222 31.8629C75.4853 31.8632 75.5205 31.8992 75.4323 32.2392C75.1858 33.1892 74.7867 34.0484 73.9738 34.6597C73.8692 34.7382 73.6875 34.8279 73.7857 34.9823C73.8991 35.1605 74.0608 35.0234 74.1868 34.9504C75.0185 34.4704 75.5917 33.7694 75.8988 32.8648C76.3709 31.4737 76.232 30.1214 75.5849 28.8138C75.4736 28.5885 75.3353 28.3781 75.1468 28.2072C75.0797 28.1466 74.9965 28.124 74.9191 28.1829C74.8597 28.228 74.8424 28.3048 74.8673 28.3728C74.9098 28.4897 74.9619 28.604 75.0176 28.7153C75.3203 29.3193 75.5228 29.9514 75.5712 30.6286C75.5961 30.9773 75.5808 31.0078 75.2207 31.0398C74.8881 31.0691 74.5528 31.0705 74.2191 31.0902C72.8421 31.1707 71.4645 31.2502 70.0851 31.152C68.9317 31.0696 67.7862 30.9164 66.6475 30.7209C64.5909 30.3678 62.5384 29.9886 60.5141 29.4773C58.9744 29.0884 57.4541 28.6362 56.0051 27.974C55.3188 27.6604 54.6694 27.2859 54.0722 26.8205C53.1532 26.1046 52.5275 25.1918 52.1744 24.0824C51.8617 23.0998 52.0399 22.2139 52.6615 21.4069C53.0743 20.8706 53.5951 20.4516 54.1516 20.0756C55.4735 19.183 56.8886 18.4686 58.3807 17.91C61.046 16.9125 63.78 16.1723 66.5897 15.7078C68.362 15.4148 70.142 15.1965 71.9313 15.0347C74.266 14.824 76.6047 14.7566 78.9452 14.8146C89.1856 15.0684 98.4982 18.1477 106.866 24.0557C110.179 26.3945 112.942 29.2859 115.253 32.6102C118.139 36.7605 120.369 41.2238 121.65 46.1346C122.115 47.9157 122.438 49.7215 122.642 51.5515C122.866 53.5644 122.917 55.5823 122.84 57.6022C122.738 60.305 122.425 62.986 121.964 65.6515C121.413 68.8401 120.658 71.9768 119.608 75.0385C118.92 77.0461 118.036 78.9682 116.942 80.79ZM126.614 54.6519C126.305 60.6868 124.796 66.3821 121.7 71.6134C121.629 71.733 121.553 71.8493 121.472 71.9622C121.44 72.0067 121.389 72.0354 121.326 72.0114C121.263 71.9874 121.246 71.9305 121.251 71.8778C121.259 71.7954 121.282 71.7142 121.303 71.6339C121.873 69.4649 122.346 67.2755 122.697 65.0598C122.932 63.5747 123.133 62.0858 123.265 60.5869C123.411 58.9206 123.495 57.2523 123.489 55.5797C123.468 49.5881 122.132 43.9025 119.481 38.532C117.754 35.0316 115.665 31.7642 113.082 28.8244C110.586 25.9833 107.67 23.6516 104.452 21.6844C100.787 19.4444 96.9184 17.6562 92.8049 16.4073C92.7918 16.4032 92.7789 16.3976 92.766 16.3921C92.6294 16.3337 92.4044 16.3534 92.3791 16.196C92.3466 15.9906 92.5682 15.9056 92.7197 15.8186C93.476 15.3834 94.2962 15.1264 95.1516 14.9737C97.2562 14.5978 99.3814 14.4814 101.723 14.4759C103.075 14.5251 104.633 14.5652 106.189 14.6959C107.397 14.7973 108.597 14.9301 109.794 15.1276C111.017 15.3295 111.801 15.9487 112.147 17.1777C112.553 18.625 113.059 20.0425 113.718 21.4007C114.588 23.1959 115.612 24.904 116.665 26.5952C118.167 29.0072 119.739 31.3756 121.162 33.8368C122.79 36.6538 124.206 39.567 125.166 42.6858C125.754 44.5926 126.166 46.5355 126.402 48.5188C126.643 50.559 126.719 52.6053 126.614 54.6519Z" fill="#20395A"/>
<path d="M105.971 33.199C105.45 32.7963 104.881 32.4763 104.273 32.2223C102.934 31.6623 101.524 31.4091 100.087 31.3326C98.5262 31.2497 96.9692 31.3212 95.4196 31.5553C92.6501 31.974 89.974 32.6914 87.4638 33.9632C87.3724 34.0095 87.2819 34.1001 87.1418 34.025C87.1008 33.8586 87.1937 33.7062 87.24 33.5535C87.5515 32.5235 87.7674 31.4718 87.8539 30.4022C88.047 28.013 87.8073 25.6728 86.9595 23.4137C86.5715 22.3799 86.12 21.3791 85.4457 20.4941C85.3399 20.3555 85.2482 20.1946 84.9613 20.1152C85.0486 20.2714 85.0887 20.3432 85.1289 20.415C85.7739 21.5728 86.3661 22.7529 86.7175 24.0399C86.9264 24.8057 87.1559 25.5673 87.2388 26.3597C87.4202 28.0877 87.3724 29.8126 87.0718 31.5225C86.6504 33.9201 85.758 36.1197 84.2325 38.0418C82.8332 39.8047 81.1629 41.2216 79.099 42.1587C78.0317 42.6434 76.951 43.0815 75.816 43.381C75.6798 43.417 75.5165 43.4188 75.4043 43.5457C75.5116 43.6386 75.6094 43.599 75.702 43.587C77.1892 43.3939 78.6193 43.0062 79.9702 42.3436C81.2074 41.7364 82.3028 40.9317 83.3012 39.9876C83.5573 39.7452 83.6103 39.7552 83.7091 40.0869C84.042 41.2066 84.5947 42.2194 85.2104 43.2008C86.168 44.7269 87.2473 46.162 88.4655 47.4906C89.2397 48.3349 90.0707 49.117 91.0038 49.7857C91.8577 50.3979 92.7644 50.9107 93.7713 51.2263C94.9763 51.6043 96.1965 51.711 97.434 51.3904C98.9766 50.9907 100.081 50.0181 100.93 48.7126C101.326 48.1045 101.668 47.4654 102 46.8219C102.757 45.3517 103.692 44.0066 104.8 42.7785C105.35 42.1681 105.896 41.553 106.389 40.8931C106.899 40.2094 107.355 39.4958 107.629 38.6785C108.337 36.5666 107.732 34.5604 105.971 33.199ZM107.1 38.258C106.894 38.9766 106.53 39.616 106.101 40.2214C105.641 40.8705 105.127 41.4765 104.59 42.0608C103.271 43.4959 102.167 45.0759 101.286 46.8149C100.959 47.4607 100.606 48.0934 100.186 48.6856C99.3871 49.81 98.343 50.5699 96.9754 50.8448C96.6346 50.9133 96.2885 50.957 95.9392 50.9593C94.9221 50.9324 93.9594 50.6833 93.0393 50.256C92.0321 49.7886 91.1342 49.1571 90.3099 48.4213C88.323 46.6484 86.774 44.5306 85.4934 42.2118C84.9789 41.2799 84.694 40.2566 84.4566 39.2224C84.4004 38.9777 84.4379 38.775 84.6099 38.5681C85.3709 37.6535 85.9978 36.651 86.4819 35.5632C86.5833 35.3355 86.7374 35.1738 86.9413 35.0407C87.9995 34.3518 89.1626 33.8873 90.3392 33.4545C92.081 32.8139 93.8712 32.365 95.7147 32.132C97.1829 31.9465 98.6575 31.8642 100.133 31.9597C101.584 32.0535 103.002 32.3245 104.335 32.9452C104.945 33.2297 105.511 33.5817 105.994 34.0535C107.201 35.2327 107.564 36.6384 107.1 38.258Z" fill="#20395A"/>
<path d="M67.5978 19.904C65.9929 21.6098 66.2311 24.283 68.1197 25.6688C69.0885 26.3797 70.1746 26.6003 71.3605 26.4307C73.3051 26.1526 74.8269 24.4298 74.8283 22.4787C74.8289 21.8106 74.6686 21.1841 74.3346 20.6044C72.9476 18.1991 69.5351 17.8445 67.5978 19.904ZM72.7861 25.1694C71.4947 26.1066 69.7189 26.0861 68.457 25.1334C66.9233 23.975 66.7225 21.812 68.0157 20.3776C69.277 18.9783 71.5032 18.7899 72.9725 19.9668C73.7825 20.6156 74.1804 21.473 74.215 22.5142C74.157 23.6201 73.6881 24.5151 72.7861 25.1694Z" fill="#20395A"/>
</svg>
