<svg width="179" height="121" viewBox="0 0 179 121" fill="none" xmlns="http://www.w3.org/2000/svg">
<path d="M59.0907 103.774C62.2188 107.385 65.6612 110.367 69.3175 112.637C74.8522 116.08 80.6327 118.263 86.4997 119.121C88.5943 119.429 90.723 119.581 92.8221 119.581C96.549 119.581 100.283 119.094 103.916 118.129C109.59 116.624 114.728 114.138 119.188 110.745C123.674 107.33 127.369 103.043 130.171 98.0027C133.047 92.8255 134.556 86.9631 134.661 80.5678C134.761 73.8083 133.507 67.6408 130.932 62.2337C128.521 57.1703 125.188 52.8742 121.023 49.4637C119.457 47.5467 117.713 45.8073 115.828 44.282H123.724C127.004 44.282 129.673 41.6137 129.673 38.3352V16.2787C129.673 13.2962 127.466 10.8214 124.6 10.3934C124.174 7.52936 121.7 5.32324 118.717 5.32324H58.3257C55.0632 5.32324 52.3949 7.97786 52.3767 11.2404L52.1149 60.9951C52.1035 63.2695 53.4149 65.38 55.4548 66.3704L57.2511 67.2469C57.6245 69.0227 58.8038 70.5709 60.4635 71.3791L66.8314 74.4868L51.2953 84.5202C49.9702 85.3739 49.0231 86.7513 48.6976 88.2995C48.3743 89.8408 48.6885 91.4823 49.5581 92.7982C52.3858 97.0784 55.5914 100.771 59.0907 103.774ZM84.5782 76.488C84.8377 75.9484 85.1815 75.5637 86.1036 75.3019C88.0479 74.7463 90.0605 74.4162 91.8203 74.3502C92.5557 74.3502 93.2956 74.4048 94.0219 74.5118C93.9604 74.7486 93.8694 74.9649 93.7487 75.1721C93.3594 75.8414 92.8449 76.3992 92.1323 76.9297C91.3127 77.5376 90.3792 78.0088 89.3502 78.3321C87.2488 78.9992 85.4661 79.0197 83.3989 78.405C83.3283 78.3845 83.2577 78.3617 83.1849 78.339C83.7631 77.8222 84.239 77.1938 84.5782 76.488Z" fill="black"/>
<path d="M55.188 99.8744C58.3162 103.485 61.7585 106.468 65.4149 108.738C70.9495 112.18 76.73 114.363 82.5971 115.222C84.6916 115.529 86.818 115.681 88.9194 115.681C92.6464 115.681 96.3801 115.194 100.014 114.229C105.687 112.724 110.826 110.24 115.286 106.846C119.773 103.431 123.466 99.1436 126.269 94.103C129.144 88.9258 130.653 83.0633 130.758 76.6681C130.858 69.9086 129.604 63.7411 127.029 58.3339C124.618 53.2706 121.285 48.9744 117.121 45.564C115.554 43.647 113.81 41.9076 111.925 40.3822H119.821C123.102 40.3822 125.77 37.7139 125.77 34.4355V12.3767C125.77 9.39419 123.564 6.91943 120.697 6.49141C120.272 3.62733 117.797 1.41895 114.815 1.41895H54.423C51.1605 1.41895 48.4922 4.07357 48.474 7.33606L48.2099 57.0931C48.1986 59.3675 49.5122 61.478 51.5498 62.4684L53.3439 63.3449C53.7173 65.1207 54.8966 66.6689 56.5563 67.4771L62.9242 70.5848L47.3881 80.6181C46.063 81.4719 45.1159 82.8493 44.7903 84.3975C44.4671 85.9388 44.7813 87.5803 45.651 88.8962C48.4832 93.1764 51.6887 96.8692 55.188 99.8744ZM80.6778 72.586C80.9374 72.0464 81.2811 71.6617 82.2032 71.3998C84.1475 70.8443 86.1601 70.5142 87.92 70.4482C88.6553 70.4482 89.393 70.5028 90.1215 70.6098C90.06 70.8466 89.969 71.0629 89.8483 71.2701C89.459 71.9394 88.9445 72.4972 88.2318 73.0277C87.4122 73.6355 86.4788 74.1068 85.4497 74.4301C83.3484 75.0972 81.5657 75.1177 79.4985 74.503C79.4279 74.4825 79.3573 74.4597 79.2845 74.4369C79.8605 73.9224 80.3363 73.2918 80.6778 72.586Z" fill="black"/>
<path d="M57.1007 97.9506C60.0832 101.42 63.3594 104.28 66.8427 106.44C72.0609 109.687 77.493 111.741 82.9867 112.544C84.9674 112.833 86.9458 112.977 88.9197 112.977C92.4236 112.977 95.9046 112.519 99.3197 111.615C104.652 110.199 109.474 107.87 113.649 104.694C117.838 101.505 121.287 97.4999 123.908 92.7894C126.565 88.0061 127.96 82.5693 128.058 76.6249C128.152 70.2866 126.986 64.522 124.593 59.4928C122.312 54.7049 119.154 50.6661 115.204 47.481C113.554 45.4274 111.684 43.5901 109.644 42.0192C108.595 41.2133 107.486 40.4597 106.348 39.7835C105.007 38.9866 103.598 38.2831 102.131 37.6753H119.828C121.62 37.6753 123.072 36.2227 123.072 34.431V12.3767C123.072 10.5849 121.62 9.13242 119.828 9.13242H118.064V7.37026C118.064 5.57851 116.611 4.12598 114.819 4.12598H54.4279C52.643 4.12598 51.1927 5.5694 51.1836 7.35432L50.9195 57.1114C50.9127 58.3567 51.6207 59.4973 52.7409 60.0438L55.9305 61.601L55.9282 62.1201C55.9214 63.3654 56.6295 64.5061 57.7496 65.0525L68.5411 70.3185C68.2701 70.405 68.0084 70.5279 67.7647 70.685L48.8591 82.8926C48.1306 83.3616 47.6229 84.1038 47.443 84.953C47.2654 85.7999 47.4339 86.6856 47.912 87.4073C50.644 91.544 53.7358 95.0888 57.1007 97.9506ZM73.8936 72.9275C74.67 73.31 75.5647 73.3601 76.3797 73.0778C77.1971 72.7955 77.8641 72.1967 78.2398 71.4181C78.8841 70.0748 79.9086 69.2416 81.459 68.8022C83.6401 68.1784 85.853 67.8232 87.918 67.7458C89.2407 67.7458 90.5658 67.8961 91.8544 68.1875C92.1708 68.2603 92.4941 68.3537 92.8311 68.4743C92.8948 68.8682 92.9267 69.2871 92.9267 69.7333C92.9267 70.8239 92.6831 71.7733 92.1845 72.6339C91.6131 73.6151 90.8481 74.4575 89.8418 75.202C88.7786 75.9897 87.5765 76.5976 86.2674 77.0096C83.7949 77.7951 81.4408 77.9044 78.7247 77.0962C78.3491 76.9846 77.9734 76.8571 77.5978 76.7182C77.4589 76.6636 77.3223 76.6112 77.1834 76.5543C76.7599 75.951 76.1407 75.5048 75.4212 75.2999C75.2414 75.2475 75.0592 75.2111 74.8771 75.1928C73.9277 74.4324 73.1719 73.4762 72.5822 72.2924L73.8936 72.9275Z" fill="white"/>
<path d="M83.4546 44.408C89.0553 43.0079 94.3736 42.7916 99.4074 43.7523C104.439 44.7154 108.86 46.6619 112.667 49.5943C116.473 52.5267 119.472 56.2901 121.66 60.8844C123.848 65.4811 124.897 70.7106 124.811 76.5731C124.722 82.0007 123.474 86.8774 121.07 91.2099C118.661 95.5447 115.533 99.1783 111.683 102.108C107.831 105.041 103.433 107.163 98.4876 108.474C93.5426 109.788 88.5316 110.07 83.4546 109.328C78.3776 108.583 73.4121 106.701 68.5537 103.682C63.6952 100.663 59.3832 96.3097 55.6221 90.618L74.5277 78.4081C75.7526 81.0354 77.5694 82.9364 79.9758 84.118C82.3823 85.2996 84.8115 85.8893 87.2612 85.8893C88.9232 85.8893 90.5875 85.6275 92.2517 85.1016C93.9114 84.5779 95.4232 83.8107 96.7801 82.8044C98.137 81.7981 99.2093 80.6188 99.997 79.2596C100.785 77.9027 101.179 76.3932 101.179 74.7312C101.179 72.8074 100.762 71.1864 99.931 69.8728C99.0978 68.5591 98.0482 67.5096 96.7801 66.7219C95.5097 65.9341 94.1095 65.3672 92.5773 65.0143C91.0451 64.6683 89.4924 64.4907 87.9169 64.4907C85.4649 64.5795 83.0129 64.9734 80.5655 65.6723C78.1135 66.3712 76.365 67.8169 75.3132 70.0048L59.1646 62.1252L59.4264 12.3682H119.818V34.4247H82.9264L83.4546 44.408Z" fill="#29AE76"/>
<path d="M78.4462 39.4025C84.0468 38.0023 89.3651 37.786 94.3989 38.7468C99.4304 39.7098 103.852 41.6564 107.658 44.5911C111.465 47.5234 114.463 51.2868 116.651 55.8812C118.837 60.4778 119.889 65.7074 119.802 71.5698C119.713 76.9975 118.466 81.8741 116.059 86.2067C113.651 90.5415 110.525 94.1751 106.673 97.1052C102.82 100.038 98.4218 102.159 93.4768 103.471C88.5319 104.784 83.5209 105.067 78.4439 104.325C73.3669 103.58 68.4014 101.697 63.5429 98.6784C58.6845 95.6595 54.3724 91.3065 50.6113 85.6147L69.517 73.4048C70.7418 76.0322 72.5564 77.9355 74.9651 79.1148C77.3716 80.2964 79.8008 80.8861 82.2505 80.8861C83.9125 80.8861 85.5767 80.6242 87.241 80.0983C88.903 79.5747 90.4124 78.8074 91.7693 77.8034C93.1262 76.7971 94.1986 75.6155 94.9863 74.2586C95.7741 72.9017 96.1679 71.3923 96.1679 69.7303C96.1679 67.8042 95.7513 66.1855 94.9203 64.8718C94.087 63.5582 93.0374 62.5086 91.7693 61.7209C90.4989 60.9331 89.0988 60.3662 87.5666 60.0134C86.0344 59.665 84.4817 59.4897 82.9062 59.4897C80.4542 59.5785 78.0022 59.9724 75.5548 60.6713C73.1028 61.3703 71.352 62.816 70.3024 65.0039L54.1539 57.1242L54.418 7.36719H114.809V29.4238H77.918L78.4462 39.4025Z" fill="#55E5C9"/>
<g opacity="0.7">
<path d="M69.5189 73.4043L63.4082 77.3498C64.1732 78.0396 65.0042 78.6498 65.9513 79.1142C68.3577 80.2958 70.787 80.8855 73.2367 80.8855C74.7552 80.8855 76.2761 80.6396 77.7946 80.2002C76.8475 79.9179 75.9027 79.5741 74.9647 79.1142C72.5605 77.9349 70.7437 76.0316 69.5189 73.4043Z" fill="#55E5C9"/>
<path d="M114.815 7.36914H105.8V29.4257H114.815V7.36914Z" fill="#55E5C9"/>
<path d="M66.5456 60.6709C65.5621 60.9509 64.722 61.3857 63.9639 61.9071L70.309 65.0034C71.3586 62.8155 73.1094 61.3698 75.5613 60.6709C76.5517 60.3886 77.542 60.1905 78.5324 60.0083C77.0093 59.6646 75.4657 59.4893 73.8993 59.4893C71.4451 59.578 68.9931 59.9719 66.5456 60.6709Z" fill="#55E5C9"/>
<path d="M116.653 55.8778C114.465 51.2835 111.467 47.5201 107.66 44.5877C103.851 41.6553 99.432 39.7088 94.4005 38.7434C90.8898 38.0741 87.2335 38.0126 83.4451 38.4907C84.0916 38.575 84.7473 38.6228 85.3848 38.7434C90.4163 39.7065 94.8376 41.6531 98.6442 44.5877C102.451 47.5201 105.449 51.2835 107.637 55.8778C109.823 60.4745 110.875 65.704 110.788 71.5665C110.699 76.9941 109.452 81.8708 107.047 86.2033C104.639 90.5381 101.511 94.1717 97.6607 97.1018C93.8085 100.034 89.41 102.156 84.465 103.467C82.7711 103.918 81.0659 104.201 79.3584 104.41C84.1235 104.991 88.8317 104.701 93.4807 103.467C98.4234 102.156 102.822 100.034 106.676 97.1018C110.526 94.1717 113.654 90.5381 116.063 86.2033C118.47 81.8708 119.717 76.9941 119.806 71.5665C119.89 65.704 118.838 60.4745 116.653 55.8778Z" fill="#55E5C9"/>
<path d="M68.9092 29.4238L69.4328 39.4003C72.5041 38.633 75.482 38.2551 78.3848 38.1982L77.9226 29.4238H68.9092Z" fill="#55E5C9"/>
</g>
<path d="M105.418 57.5433C106.754 55.7766 103.357 52.0679 101.793 54.1351C100.459 55.8996 103.856 59.6106 105.418 57.5433Z" fill="#25B79B"/>
<path d="M113.604 72.6423C113.864 72.7493 114.126 72.854 114.385 72.961C114.929 73.0839 115.433 73.0521 115.897 72.8631C116.277 72.7265 116.587 72.4988 116.826 72.1824C117.136 71.9001 117.356 71.5403 117.486 71.1032C117.65 70.6866 117.709 70.2335 117.666 69.7463C117.691 69.3046 117.614 68.8538 117.441 68.3939C117.311 68.1207 117.179 67.8453 117.047 67.5721C116.721 67.0439 116.302 66.6272 115.788 66.3222C115.528 66.2174 115.269 66.1104 115.007 66.0057C114.463 65.8828 113.96 65.9146 113.495 66.1036C113.115 66.2402 112.805 66.4679 112.569 66.7866C112.259 67.0689 112.038 67.4264 111.908 67.8635C111.744 68.2801 111.683 68.7332 111.728 69.2204C111.703 69.6621 111.779 70.1128 111.954 70.5727C112.086 70.8482 112.216 71.1214 112.348 71.3946C112.673 71.9205 113.092 72.3372 113.604 72.6423Z" fill="#25B79B"/>
<path d="M100.446 66.3699C100.623 66.3539 100.801 66.338 100.978 66.3221C101.318 66.2355 101.582 66.0739 101.773 65.8394C101.935 65.6573 102.028 65.4433 102.053 65.2042C102.128 64.9629 102.128 64.7033 102.055 64.4279C102.005 64.1524 101.887 63.8883 101.702 63.6356C101.568 63.3874 101.377 63.162 101.129 62.9594C100.965 62.8478 100.803 62.734 100.639 62.6224C100.286 62.4266 99.9175 62.3174 99.535 62.2969C99.3574 62.3128 99.1798 62.3287 99.0022 62.3447C98.663 62.4312 98.3989 62.5928 98.2076 62.8273C98.0437 63.0095 97.9527 63.2212 97.9276 63.4625C97.8525 63.7039 97.8502 63.9634 97.9253 64.2389C97.9754 64.5144 98.0938 64.7785 98.2782 65.0312C98.4126 65.2793 98.6038 65.5047 98.852 65.7051C99.0159 65.8166 99.1775 65.9305 99.3414 66.042C99.6943 66.2401 100.063 66.3494 100.446 66.3699Z" fill="#25B79B"/>
<path d="M101.438 49.6112C101.65 49.6135 101.862 49.6157 102.073 49.618L102.645 49.4723C102.795 49.379 102.943 49.2879 103.093 49.1945C103.198 49.0648 103.305 48.9373 103.41 48.8075C103.467 48.6504 103.521 48.491 103.578 48.334C103.637 48.0653 103.612 47.7898 103.505 47.5075C103.478 47.3117 103.396 47.1228 103.262 46.9406C103.13 46.6629 102.925 46.4079 102.652 46.1779C102.611 46.1347 102.57 46.0914 102.529 46.0504C102.305 45.8387 102.041 45.6725 101.739 45.5518C101.468 45.4016 101.176 45.3105 100.86 45.2764C100.662 45.2741 100.461 45.2718 100.263 45.2695C99.8717 45.3173 99.553 45.4517 99.3071 45.668C99.2775 45.7021 99.2479 45.7363 99.2206 45.7704C99.1159 45.9002 99.0111 46.0299 98.9064 46.1574C98.8495 46.3145 98.7948 46.4739 98.7379 46.631C98.6787 46.9019 98.7015 47.1774 98.8108 47.4574C98.8381 47.6532 98.92 47.8422 99.0544 48.0266C99.1363 48.2156 99.2638 48.3909 99.4414 48.548C99.5666 48.7164 99.7328 48.8644 99.9354 48.9851C100.097 49.1285 100.288 49.2424 100.507 49.322C100.789 49.4769 101.101 49.5748 101.438 49.6112Z" fill="#25B79B"/>
<path d="M112.645 52.4614C113.016 51.6099 111.219 50.3714 110.785 51.3686C110.413 52.2201 112.21 53.4586 112.645 52.4614Z" fill="#25B79B"/>
<path d="M80.6521 44.4797C80.5019 43.5713 78.273 43.3481 78.4483 44.4114C78.5963 45.3175 80.8274 45.5406 80.6521 44.4797Z" fill="#25B79B"/>
<path d="M106.97 66.1655C107.027 66.1791 107.082 66.1951 107.139 66.2087C107.405 66.2747 107.628 66.1791 107.751 66.0061C107.817 65.9059 107.851 65.7921 107.856 65.6623C107.861 65.5325 107.831 65.4028 107.769 65.2685C107.744 65.207 107.722 65.1455 107.697 65.084C107.59 64.8177 107.305 64.5627 107.014 64.4875C106.709 64.4079 106.449 64.5217 106.31 64.722C106.158 64.9429 106.148 65.2707 106.29 65.569C106.413 65.8354 106.665 66.0881 106.97 66.1655Z" fill="#25B79B"/>
<path d="M104.931 76.4923C105.047 76.5538 105.163 76.6176 105.282 76.679C105.532 76.7633 105.771 76.7701 105.999 76.7041C106.186 76.6563 106.343 76.5652 106.472 76.4263C106.634 76.3079 106.757 76.1486 106.844 75.9505C106.944 75.7615 106.996 75.5521 107.003 75.3198C107.039 75.1127 107.028 74.8986 106.971 74.6733C106.923 74.5389 106.878 74.4023 106.83 74.268C106.705 74.0039 106.532 73.7876 106.306 73.6214C106.19 73.56 106.074 73.4985 105.956 73.4347C105.708 73.3505 105.468 73.3437 105.241 73.4097C105.054 73.4552 104.897 73.5486 104.767 73.6875C104.606 73.8058 104.483 73.9629 104.396 74.1633C104.296 74.3522 104.244 74.5617 104.237 74.7939C104.2 75.0011 104.212 75.2151 104.269 75.4405C104.314 75.5748 104.362 75.7114 104.408 75.8458C104.533 76.1099 104.706 76.3239 104.931 76.4923Z" fill="#25B79B"/>
<path d="M86.1186 43.5937C86.2187 43.5095 86.3166 43.4275 86.4168 43.3433C86.5784 43.1497 86.6604 42.9403 86.6604 42.7194C86.6673 42.5419 86.6217 42.3757 86.517 42.2186C86.4441 42.041 86.3166 41.8839 86.1368 41.7496C85.9728 41.6039 85.7725 41.4946 85.5357 41.4195C85.3331 41.3261 85.1077 41.2692 84.8596 41.251C84.7048 41.251 84.5522 41.251 84.3974 41.251C84.0878 41.2806 83.8123 41.3694 83.5709 41.5151C83.4708 41.5993 83.3729 41.6835 83.2727 41.7678C83.1111 41.9613 83.0314 42.1685 83.0314 42.3916C83.0223 42.5692 83.0701 42.7377 83.1748 42.8925C83.2477 43.0701 83.3751 43.2271 83.555 43.3615C83.7189 43.5072 83.9193 43.6165 84.1561 43.6916C84.3587 43.7849 84.5841 43.8418 84.8345 43.8601C84.9871 43.8601 85.1419 43.8601 85.2944 43.8601C85.6018 43.8305 85.8772 43.7417 86.1186 43.5937Z" fill="#25B79B"/>
<path d="M92.2226 49.4243C92.6097 49.4561 92.9557 49.3969 93.2631 49.2489C93.4384 49.1397 93.6137 49.0281 93.7867 48.9188L94.1532 48.4612C94.3126 48.1926 94.3787 47.9011 94.3491 47.5892C94.3832 47.2637 94.3194 46.9336 94.1532 46.5966C94.1396 46.5579 94.1328 46.5146 94.11 46.4759C93.9119 46.0274 93.6023 45.6153 93.1788 45.2442L92.5323 44.7844C92.0769 44.518 91.5852 44.3518 91.057 44.2812C90.6517 44.2197 90.2874 44.2493 89.9641 44.3677C89.6044 44.4315 89.3153 44.5726 89.0944 44.7912C88.8463 45.0006 88.6892 45.2488 88.6277 45.5379C88.4957 45.8225 88.4615 46.1299 88.5253 46.46C88.5958 46.9244 88.7939 47.373 89.1195 47.8055C89.2993 48.0423 89.527 48.2586 89.7547 48.4726C89.9687 48.6251 90.1805 48.7754 90.3945 48.9279C90.7269 49.1374 91.0888 49.274 91.4782 49.34C91.7263 49.422 91.9767 49.4516 92.2226 49.4243Z" fill="#25B79B"/>
<path d="M113.357 62.1737L113.655 62.3126C113.819 62.374 113.974 62.3922 114.122 62.3695C114.229 62.3763 114.322 62.3581 114.4 62.3148C114.538 62.2784 114.65 62.2078 114.73 62.1054C114.757 62.0735 114.787 62.0416 114.814 62.012C114.869 61.9255 114.923 61.839 114.978 61.7525C115.051 61.6 115.073 61.436 115.048 61.2562C115.06 61.1378 115.037 61.0171 114.982 60.8919C114.96 60.7712 114.91 60.6529 114.825 60.539C114.743 60.3705 114.623 60.2157 114.461 60.0768C114.356 59.9972 114.249 59.9198 114.145 59.8401C114.026 59.7854 113.91 59.7308 113.792 59.6762C113.598 59.6033 113.416 59.5828 113.241 59.6078C113.113 59.5987 113.004 59.6215 112.911 59.6739C112.797 59.6989 112.706 59.749 112.64 59.8264C112.503 59.9152 112.41 60.0336 112.355 60.1816C112.33 60.2863 112.303 60.391 112.275 60.498C112.28 60.6187 112.287 60.7371 112.291 60.8578L112.407 61.2266C112.478 61.4019 112.587 61.5635 112.738 61.7115C112.856 61.8618 113.006 61.9893 113.186 62.094C113.245 62.119 113.3 62.1464 113.357 62.1737Z" fill="#25B79B"/>
<path d="M112.623 79.684L112.769 79.9618C112.858 80.1006 112.97 80.2031 113.102 80.2691C113.181 80.3351 113.268 80.3716 113.359 80.3807C113.495 80.4285 113.628 80.4353 113.76 80.3989C113.803 80.3898 113.846 80.3807 113.889 80.3716C113.99 80.3329 114.09 80.2964 114.19 80.2577C114.347 80.178 114.474 80.0597 114.57 79.9026C114.657 79.8138 114.718 79.7068 114.757 79.577C114.818 79.47 114.855 79.347 114.864 79.2104C114.909 79.0306 114.914 78.8393 114.88 78.639C114.848 78.5183 114.816 78.3954 114.784 78.2747C114.727 78.1654 114.668 78.0562 114.611 77.9469C114.504 77.7807 114.372 77.66 114.217 77.5826C114.122 77.5052 114.021 77.4597 113.912 77.4506C113.805 77.4073 113.7 77.3959 113.598 77.4187C113.432 77.4141 113.277 77.4551 113.138 77.5416C113.047 77.6099 112.958 77.6805 112.867 77.7488C112.792 77.8467 112.719 77.9446 112.644 78.0448L112.494 78.4022C112.435 78.5821 112.416 78.771 112.437 78.9737C112.432 79.1604 112.466 79.3448 112.542 79.5292C112.571 79.577 112.598 79.6316 112.623 79.684Z" fill="#25B79B"/>
<path d="M95.7352 55.3529C96.2202 54.2396 93.8706 52.6186 93.3037 53.9231C92.8188 55.0365 95.1683 56.6575 95.7352 55.3529Z" fill="#25B79B"/>
</svg>
