<svg width="179" height="121" viewBox="0 0 179 121" fill="none" xmlns="http://www.w3.org/2000/svg">
<path d="M82.3777 44.1736C66.8735 43.4007 61.1435 46.6839 57.8009 50.6805C54.1201 55.08 53.9153 60.4493 54.5653 65.886C55.9011 77.0593 61.0828 88.1481 69.0218 96.1836C76.0862 103.334 87.455 108.249 97.1195 103.343C99.6615 102.052 102.106 100.475 104.858 99.6543C107.959 98.7295 111.258 99.0453 114.391 98.2618C132.6 93.7156 133.662 65.3153 129.997 50.9381C128.06 43.3399 123.929 36.1553 117.681 31.4175C111.177 26.4855 101.68 24.6332 94.8167 29.0499C89.4183 32.5233 86.3954 44.3744 82.3777 44.1736Z" fill="#DF3943"/>
<path d="M82.1582 38.0474C80.2095 37.4079 78.5078 36.1515 77.0902 34.6691C75.6725 33.1867 74.5152 31.4784 73.3935 29.7622C70.8475 25.866 66.4004 23.0796 61.8053 22.3371C56.876 21.5404 51.5833 22.9131 46.9736 20.9961C47.2815 24.9795 47.7452 29.1928 50.3017 32.2632C52.8582 35.3336 56.7174 37.4106 60.7127 37.3749C63.2401 37.3524 65.679 36.5214 68.1483 35.985C70.6176 35.4486 73.3116 35.2319 75.5734 36.3589C78.0229 37.5783 79.9453 39.8323 82.6154 40.4268C82.6273 39.6566 82.3908 38.7806 82.1582 38.0474Z" fill="#77D168"/>
<path d="M82.3777 44.1736C66.8735 43.4007 61.1435 46.6839 57.8009 50.6805C54.1201 55.08 53.9153 60.4493 54.5653 65.886C55.9011 77.0593 61.0828 88.1481 69.0218 96.1836C76.0862 103.334 87.455 108.249 97.1195 103.343C99.6615 102.052 102.106 100.475 104.858 99.6543C107.959 98.7295 111.258 99.0453 114.391 98.2618C132.6 93.7156 133.662 65.3153 129.997 50.9381C128.06 43.3399 123.929 36.1553 117.681 31.4175C111.177 26.4855 101.68 24.6332 94.8167 29.0499C89.4183 32.5233 86.3954 44.3744 82.3777 44.1736Z" stroke="#130081" stroke-width="0.990893" stroke-miterlimit="10" stroke-linecap="round" stroke-linejoin="round"/>
<path d="M82.1582 38.0474C80.2095 37.4079 78.5078 36.1515 77.0902 34.6691C75.6725 33.1867 74.5152 31.4784 73.3935 29.7622C70.8475 25.866 66.4004 23.0796 61.8053 22.3371C56.876 21.5404 51.5833 22.9131 46.9736 20.9961C47.2815 24.9795 47.7452 29.1928 50.3017 32.2632C52.8582 35.3336 56.7174 37.4106 60.7127 37.3749C63.2401 37.3524 65.679 36.5214 68.1483 35.985C70.6176 35.4486 73.3116 35.2319 75.5734 36.3589C78.0229 37.5783 79.9453 39.8323 82.6154 40.4268C82.6273 39.6566 82.3908 38.7806 82.1582 38.0474Z" stroke="#130081" stroke-width="0.990893" stroke-miterlimit="10" stroke-linecap="round" stroke-linejoin="round"/>
<path d="M90.651 52.341C87.6096 46.9188 84.925 40.9801 85.0412 34.7639C85.1562 28.5477 86.3545 22.4583 88.623 16.6689C87.4471 15.9462 84.9567 15.2922 83.576 15.3212C80.4025 20.6404 79.6693 27.1552 80.5201 33.2908C81.371 39.425 83.7016 45.2554 86.3228 50.8665C86.8803 52.0609 87.212 52.9963 87.212 52.9963C89.923 53.0148 90.7686 52.5497 90.651 52.341Z" fill="#B3713E"/>
<path d="M90.651 52.341C87.3058 46.0495 84.925 40.9801 85.0412 34.7639C85.1562 28.5477 86.3545 22.4583 88.623 16.6689C87.4471 15.9462 84.9567 15.2922 83.576 15.3212C80.4025 20.6404 79.6693 27.1552 80.5201 33.2908C81.371 39.425 84.5907 47.3852 87.212 52.9963C88.2346 53.1456 90.651 52.341 90.651 52.341Z" stroke="#130081" stroke-width="0.990893" stroke-miterlimit="10" stroke-linecap="round" stroke-linejoin="round"/>
<path d="M82.6152 51.1077C84.3182 52.9124 87.1218 53.363 89.5185 52.7209C91.9151 52.0788 93.9603 50.5066 95.7122 48.748" stroke="#130081" stroke-width="0.990893" stroke-miterlimit="10" stroke-linecap="round" stroke-linejoin="round"/>
<path d="M83.1133 16.1377C84.2178 16.9449 85.9208 17.8301 87.2156 18.2701" stroke="#130081" stroke-width="0.990893" stroke-miterlimit="10" stroke-linecap="round" stroke-linejoin="round"/>
<path d="M48.6768 22.959C52.9759 32.2324 64.2827 29.9983 72.5744 33.4558" stroke="#130081" stroke-width="0.990893" stroke-miterlimit="10" stroke-linecap="round" stroke-linejoin="round"/>
</svg>
