<svg width="278" height="120" viewBox="0 0 278 120" fill="none" xmlns="http://www.w3.org/2000/svg">
<path d="M9.43197 49.1875L9.67203 49.2336C10.0506 51.7151 11.9711 53.781 14.5079 54.2634L36.2084 58.393C37.8496 58.6977 39.5647 58.3145 40.9058 57.3243C42.2516 56.334 43.1334 54.8128 43.3226 53.1508C43.5581 51.0964 44.1075 49.4506 44.9592 48.2641C45.8202 47.0638 46.7505 46.2444 47.8031 45.7527C48.5925 45.3834 49.4097 45.2241 50.2799 45.2333C50.1345 46.0412 49.8205 47.1515 49.1904 48.6542C48.3271 50.7133 46.4181 53.3724 43.6666 56.3455C40.6565 59.6003 36.31 63.3282 30.7423 67.4301C25.0685 71.6104 17.5711 76.2548 8.46247 81.2361C6.45424 82.3349 5.22622 84.5231 5.3324 86.8153L6.40115 109.271C6.57889 112.135 8.75794 114.441 11.5302 114.857C11.9619 117.784 14.4756 120 17.5088 120L90.5877 119.868C92.3074 119.863 93.9463 119.125 95.0866 117.837C96.2269 116.551 96.767 114.834 96.5639 113.125L93.7685 89.5645C93.4431 86.8291 91.3194 84.7032 88.6671 84.3085C88.2286 81.3654 85.6963 79.1678 82.7025 79.1678H77.825C79.1015 77.7713 80.348 76.3517 81.5506 74.9205C84.6345 71.2503 87.2729 67.2154 89.3943 62.9289C91.7234 58.2176 92.8498 52.8069 92.7436 46.7937C92.5382 41.2215 91.4694 36.0462 89.5651 31.4065C87.6122 26.6606 84.8838 22.5726 81.4583 19.2486C80.7219 18.5354 79.9394 17.8521 79.0784 17.1688C78.1551 16.0124 77.2941 15.0544 76.3846 14.1727C74.6626 12.506 72.749 11.0172 70.7015 9.74531C68.6748 8.48266 66.4542 7.40006 64.1067 6.52983C59.5039 4.82167 54.4325 3.95605 49.0311 3.95605C47.96 3.95605 46.9051 4.00222 45.9079 4.06224C41.4113 4.3023 37.0786 5.0502 33.0345 6.27822C27.8177 7.86403 23.1041 10.2924 19.0207 13.4917C14.8542 16.7649 11.4402 20.9175 8.87566 25.8343C6.3042 30.7648 4.84535 36.531 4.53835 42.9781C4.39292 45.9604 6.4981 48.6289 9.43197 49.1875Z" fill="black"/>
<path d="M5.47507 45.2314L5.71514 45.2776C6.0937 47.759 8.01191 49.8273 10.5511 50.3074L32.2515 54.437C33.8927 54.7417 35.6078 54.3585 36.9489 53.3682C38.2947 52.3779 39.1765 50.8568 39.3657 49.1948C39.6012 47.1404 40.1506 45.4946 41.0023 44.3081C41.8633 43.1078 42.7936 42.2883 43.8462 41.7966C44.6356 41.4273 45.4528 41.268 46.323 41.2773C46.1776 42.0852 45.8636 43.1955 45.2335 44.6982C44.3702 46.7572 42.4612 49.4164 39.7097 52.3872C36.7019 55.6419 32.3531 59.3698 26.7854 63.4717C21.1116 67.6521 13.6142 72.2964 4.50559 77.2777C2.49735 78.3765 1.26932 80.5648 1.37551 82.8569L2.44426 105.312C2.622 108.177 4.80105 110.481 7.57333 110.898C8.00499 113.825 10.5187 116.041 13.5519 116.041L86.6331 115.907C88.3528 115.903 89.9917 115.164 91.132 113.878C92.2746 112.593 92.8124 110.875 92.6093 109.167L89.8139 85.6061C89.4885 82.8708 87.3648 80.7448 84.7126 80.3501C84.274 77.407 81.7418 75.2095 78.7479 75.2095H73.8681C75.1446 73.813 76.3911 72.3933 77.5937 70.9622C80.6776 67.292 83.316 63.257 85.4374 58.9705C87.7665 54.2592 88.8929 48.8485 88.7844 42.8354C88.579 37.2631 87.5102 32.0879 85.6059 27.4482C83.653 22.7023 80.9246 18.6142 77.4991 15.2903C76.7627 14.577 75.9802 13.8937 75.1192 13.2105C74.1959 12.054 73.3349 11.0961 72.4254 10.2143C70.7034 8.54769 68.7898 7.05882 66.7423 5.78694C64.7156 4.52429 62.495 3.4417 60.1475 2.57377C55.5447 0.865617 50.471 0 45.0719 0C44.0008 0 42.9459 0.0461663 41.9487 0.106182C37.4521 0.346247 33.1194 1.09414 29.0753 2.32216C23.8585 3.90797 19.1449 6.33632 15.0615 9.53564C10.895 12.8065 7.481 16.9592 4.91646 21.8759C2.345 26.8064 0.888459 32.5726 0.579145 39.0197C0.436029 42.0044 2.54121 44.6751 5.47507 45.2314Z" fill="black"/>
<path d="M89.0799 112.059C89.7031 111.358 89.9963 110.42 89.8855 109.49L87.0901 85.9292C86.8939 84.2741 85.4905 83.0276 83.8239 83.0276H82.2704L82.0118 80.8509C81.8156 79.1958 80.4122 77.9494 78.7456 77.9494H67.4441C70.2741 75.1332 72.9748 72.1924 75.4932 69.1962C78.4363 65.6945 80.9546 61.8466 82.979 57.7539C85.1119 53.4397 86.1437 48.4745 86.0445 42.9345C85.8529 37.6854 84.8511 32.8264 83.0714 28.4914C81.264 24.0987 78.7479 20.3223 75.5924 17.2615C74.8584 16.5528 74.062 15.8626 73.1687 15.1678C72.2431 13.9929 71.3936 13.0396 70.5164 12.1878C68.9352 10.6574 67.174 9.28626 65.2904 8.11594C63.4138 6.94563 61.3594 5.94843 59.1895 5.14514C54.8892 3.5501 50.1387 2.74219 45.0673 2.74219C44.0539 2.74219 43.0544 2.78605 42.0896 2.84606C37.8146 3.07458 33.7035 3.78093 29.867 4.94894C24.9757 6.4378 20.5622 8.70687 16.7489 11.6938C12.8917 14.7223 9.72701 18.5749 7.34252 23.1477C4.95573 27.7228 3.60074 33.1081 3.3122 39.1535C3.23603 40.7924 4.37403 42.2351 5.98292 42.5421L8.46205 43.013C8.43204 43.417 8.40896 43.8279 8.39049 44.2341C8.31432 45.8707 9.45231 47.3134 11.0612 47.6204L32.7571 51.7477C33.655 51.9162 34.5852 51.7061 35.3216 51.166C36.0579 50.6235 36.5358 49.7995 36.6396 48.89C36.9282 46.367 37.6461 44.2872 38.7725 42.713C39.9151 41.1248 41.1939 40.0122 42.6851 39.3174C44.1278 38.6457 45.6397 38.4149 47.2948 38.6041C47.888 38.6757 48.4813 38.805 49.0814 39.0012C49.1299 39.3313 49.1576 39.6821 49.1668 40.0515C49.1992 41.5288 48.7237 43.4493 47.7565 45.7599C46.7547 48.1467 44.7233 51.0021 41.7179 54.2499C38.5925 57.6293 34.1167 61.4749 28.4059 65.6807C22.6351 69.9326 15.0361 74.6439 5.81672 79.6829C4.71335 80.2877 4.05086 81.4695 4.10857 82.7253L5.17732 105.141C5.28581 106.875 6.72389 108.225 8.45974 108.225H8.46667L10.1564 108.221L10.2487 110.166C10.3318 111.921 11.7791 113.299 13.5357 113.299H13.5426L86.6216 113.165C87.5633 113.163 88.4567 112.761 89.0799 112.059Z" fill="white"/>
<path d="M86.6195 109.875L13.5405 110.009L12.4764 87.6439C21.8805 82.501 29.5348 77.7505 35.4372 73.4016C41.3373 69.0527 45.9308 65.1055 49.2132 61.553C52.4957 58.0075 54.7139 54.8543 55.8681 52.1028C57.0199 49.3513 57.5762 47.0014 57.5324 45.0486C57.4862 43.0958 57.0661 41.5215 56.2674 40.3212C55.4688 39.1232 54.7578 38.3037 54.1392 37.8605C52.0963 36.4409 49.9473 35.5961 47.6828 35.3306C45.4207 35.0628 43.2901 35.3952 41.2934 36.3278C39.2967 37.2603 37.5678 38.7469 36.102 40.7851C34.6385 42.828 33.7267 45.4018 33.3736 48.5065L11.6777 44.3792C11.9432 38.7885 13.162 33.911 15.3364 29.7376C17.5108 25.5664 20.3501 22.1063 23.8564 19.3548C27.3604 16.6056 31.3769 14.5419 35.9035 13.1639C40.4278 11.7904 45.176 11.1025 50.1458 11.1025C54.8478 11.1025 59.1736 11.8343 63.1231 13.3001C67.0703 14.7635 70.4659 16.8733 73.3051 19.6225C76.1443 22.374 78.3834 25.7465 80.0269 29.7399C81.6681 33.7332 82.5753 38.1698 82.7553 43.0519C82.843 48.0217 81.9336 52.4352 80.0269 56.2947C78.1179 60.1542 75.7681 63.7506 72.9704 67.0768C70.175 70.4054 67.1811 73.6232 63.9864 76.7279C60.7917 79.8326 57.9502 83.0273 55.4664 86.312H83.8195L86.6195 109.875Z" fill="#FF6A09"/>
<path d="M81.544 104.799L8.46508 104.933L7.40095 82.5674C16.8073 77.4245 24.4617 72.674 30.3617 68.3251C36.2618 63.9762 40.8553 60.029 44.1378 56.4765C47.4202 52.9286 49.6385 49.7778 50.7926 47.0263C51.9445 44.2748 52.5008 41.9249 52.4569 39.9721C52.4108 38.0192 51.9906 36.445 51.192 35.247C50.3933 34.0489 49.6823 33.2295 49.0614 32.784C47.0185 31.3644 44.8695 30.5195 42.605 30.2541C40.3406 29.9863 38.2123 30.3187 36.2156 31.2513C34.2189 32.1838 32.49 33.6704 31.0242 35.7086C29.5585 37.7538 28.649 40.3252 28.2935 43.4299L6.59766 39.3027C6.86311 33.7119 8.0819 28.8345 10.2563 24.661C12.4308 20.4899 15.2677 17.0297 18.7763 14.2782C22.2803 11.529 26.2968 9.4654 30.8234 8.08964C35.3477 6.7162 40.0959 6.02832 45.0657 6.02832C49.7677 6.02832 54.0935 6.76006 58.043 8.22584C61.9903 9.68931 65.3835 11.7991 68.225 14.5483C71.0642 17.2998 73.3056 20.6723 74.9491 24.6656C76.5903 28.659 77.4975 33.0956 77.6776 37.9777C77.7653 42.9475 76.8558 47.361 74.9491 51.2205C73.0402 55.08 70.688 58.6763 67.8949 62.0026C65.0996 65.3312 62.1057 68.549 58.911 71.6537C55.7163 74.7584 52.8747 77.9531 50.391 81.2378H78.7486L81.544 104.799Z" fill="#FFB31A"/>
<g opacity="0.7">
<path d="M48.9101 8.22584C52.8573 9.68931 56.2505 11.7991 59.0921 14.5483C61.9313 17.2998 64.1727 20.6723 65.8139 24.6656C67.4551 28.659 68.3646 33.0956 68.5423 37.9777C68.63 42.9475 67.7205 47.361 65.8139 51.2205C63.9049 55.08 61.555 58.6763 58.7596 62.0026C55.9643 65.3312 52.9704 68.549 49.7757 71.6537C46.581 74.7584 43.7395 77.9531 41.2557 81.2378H50.3966C52.8804 77.9531 55.7219 74.7584 58.9166 71.6537C62.1113 68.549 65.1052 65.3312 67.9006 62.0026C70.696 58.6763 73.0458 55.08 74.9548 51.2205C76.8615 47.361 77.7709 42.9475 77.6832 37.9777C77.5055 33.0956 76.596 28.659 74.9548 24.6656C73.3113 20.6723 71.0722 17.2998 68.2307 14.5483C65.3891 11.7991 61.9959 9.68931 58.0487 8.22584C54.0992 6.76006 49.7734 6.02832 45.0714 6.02832C43.4463 6.02832 41.8559 6.12989 40.2793 6.27531C43.3263 6.59386 46.2117 7.22634 48.9101 8.22584Z" fill="#FFB31A"/>
<path d="M27.08 31.2529C25.0833 32.1855 23.3544 33.672 21.8886 35.7103C20.7021 37.3676 19.8965 39.392 19.4395 41.7465L28.2988 43.4316C28.6542 40.3269 29.5637 37.7554 31.0272 35.7103C32.493 33.672 34.2219 32.1855 36.2186 31.2529C36.3802 31.179 36.5464 31.1306 36.7079 31.0636C35.653 30.6574 34.5751 30.3827 33.4671 30.2534C31.2049 29.988 29.0767 30.3204 27.08 31.2529Z" fill="#FFB31A"/>
<path d="M78.7487 81.2383H69.6078L72.4032 104.799L8.46289 104.915L8.4652 104.933L81.5441 104.799L78.7487 81.2383Z" fill="#FFB31A"/>
</g>
<path d="M63.5729 25.7471C64.9279 23.8058 61.4838 19.7317 59.898 22.003C58.5454 23.942 61.9894 28.0185 63.5729 25.7471Z" fill="#DB6800"/>
<path d="M71.8742 42.334C72.1374 42.4494 72.4028 42.5672 72.666 42.6826C73.2177 42.8188 73.7278 42.7818 74.1987 42.5741C74.5842 42.424 74.8981 42.1747 75.1382 41.8262C75.4521 41.5169 75.676 41.1221 75.8076 40.642C75.9738 40.1827 76.0338 39.6864 75.9899 39.1509C76.013 38.6661 75.9392 38.1698 75.7614 37.6666C75.6298 37.3665 75.496 37.0641 75.3621 36.7641C75.032 36.1847 74.6073 35.7276 74.0856 35.3929C73.8224 35.2775 73.557 35.1598 73.2938 35.0444C72.7421 34.9082 72.2297 34.9451 71.7611 35.1528C71.3756 35.3029 71.0617 35.5522 70.8216 35.9007C70.5077 36.2101 70.2838 36.6048 70.1522 37.0849C69.986 37.5443 69.9237 38.0405 69.9699 38.5761C69.9445 39.0608 70.0206 39.5571 70.1984 40.0603C70.3323 40.3627 70.4662 40.6628 70.5977 40.9629C70.9301 41.54 71.3549 41.997 71.8742 42.334Z" fill="#DB6800"/>
<path d="M58.5323 35.4436C58.7123 35.4251 58.8924 35.409 59.0724 35.3905C59.4164 35.2959 59.6841 35.1181 59.878 34.8619C60.0419 34.6611 60.1389 34.4279 60.162 34.1625C60.2381 33.897 60.2404 33.6131 60.1643 33.3084C60.1135 33.006 59.9958 32.7152 59.8065 32.4382C59.6703 32.1658 59.4764 31.9188 59.2248 31.6972C59.0609 31.5726 58.8947 31.4502 58.7285 31.3256C58.3707 31.1109 57.9968 30.9909 57.609 30.9678C57.4289 30.9839 57.2489 31.0024 57.0688 31.0209C56.7249 31.1155 56.4571 31.2932 56.2632 31.5495C56.0993 31.7503 56.0047 31.9834 55.9793 32.2489C55.9031 32.5143 55.9031 32.7983 55.977 33.103C56.0278 33.4054 56.1455 33.6962 56.3348 33.9732C56.471 34.2456 56.6649 34.4926 56.9165 34.7142C57.0827 34.8365 57.2466 34.9612 57.4128 35.0858C57.7706 35.3005 58.1445 35.4205 58.5323 35.4436Z" fill="#DB6800"/>
<path d="M59.5382 17.0333C59.7529 17.0356 59.9676 17.0379 60.1823 17.0402L60.7593 16.8809C60.9117 16.7794 61.0617 16.6778 61.2141 16.5762C61.3203 16.4354 61.4264 16.2923 61.5326 16.1515C61.5903 15.9784 61.6457 15.8052 61.7034 15.6321C61.7635 15.3367 61.7381 15.0343 61.6296 14.725C61.6019 14.5103 61.5188 14.3025 61.3826 14.1017C61.2487 13.797 61.041 13.5177 60.764 13.2638C60.7224 13.2153 60.6809 13.1692 60.6393 13.123C60.4131 12.8898 60.1476 12.7075 59.8383 12.5759C59.5636 12.412 59.2682 12.3105 58.9473 12.2735C58.7465 12.2712 58.5434 12.2689 58.3425 12.2666C57.9455 12.3197 57.6223 12.4674 57.373 12.7029C57.343 12.7398 57.313 12.779 57.2853 12.816C57.1792 12.9568 57.073 13.0999 56.9668 13.2407C56.9114 13.4138 56.8537 13.587 56.796 13.7601C56.7359 14.0555 56.759 14.3579 56.8698 14.6672C56.8975 14.8819 56.9806 15.0897 57.1168 15.2905C57.1999 15.4982 57.3292 15.6898 57.5092 15.863C57.6362 16.0499 57.8047 16.2092 58.0101 16.3431C58.174 16.5024 58.3679 16.6247 58.5895 16.7124C58.8804 16.8855 59.1966 16.994 59.5382 17.0333Z" fill="#DB6800"/>
<path d="M70.8996 20.1654C71.2759 19.2305 69.4546 17.8686 69.0137 18.9651C68.6375 19.8999 70.4587 21.2619 70.8996 20.1654Z" fill="#DB6800"/>
<path d="M38.4631 11.3956C38.3108 10.3984 36.051 10.1537 36.2287 11.3194C36.3787 12.3166 38.6409 12.5636 38.4631 11.3956Z" fill="#DB6800"/>
<path d="M65.1472 35.2197C65.2049 35.2359 65.2603 35.2497 65.318 35.2659C65.5881 35.3397 65.8143 35.2335 65.939 35.042C66.0059 34.9335 66.0428 34.8065 66.0452 34.6657C66.0498 34.5249 66.0198 34.3795 65.9574 34.234C65.932 34.1671 65.9067 34.1002 65.8836 34.0332C65.7751 33.7401 65.4865 33.4608 65.1911 33.3777C64.8818 33.2899 64.6186 33.4169 64.4778 33.6339C64.3232 33.8786 64.3139 34.2364 64.457 34.5641C64.5817 34.855 64.8379 35.1343 65.1472 35.2197Z" fill="#DB6800"/>
<path d="M63.0795 46.5625C63.1972 46.6317 63.3149 46.6987 63.4327 46.7679C63.6866 46.8603 63.929 46.8695 64.1598 46.7956C64.3491 46.7449 64.5107 46.6433 64.6399 46.4909C64.8038 46.3617 64.9285 46.1862 65.0162 45.9693C65.1177 45.7615 65.1731 45.5307 65.1778 45.2768C65.2147 45.0506 65.2032 44.8128 65.1454 44.5658C65.097 44.4181 65.0508 44.268 65.0023 44.1203C64.8754 43.8294 64.6999 43.594 64.4714 43.4093C64.3537 43.3401 64.2337 43.2731 64.1159 43.2039C63.8643 43.1116 63.622 43.1023 63.3888 43.1762C63.1995 43.227 63.0403 43.3285 62.9087 43.4809C62.7448 43.6102 62.6201 43.7856 62.5324 44.0026C62.4309 44.2103 62.3778 44.4412 62.3708 44.6951C62.3339 44.9213 62.3455 45.159 62.4032 45.406C62.4493 45.5538 62.4978 45.7038 62.544 45.8515C62.6756 46.1424 62.851 46.3778 63.0795 46.5625Z" fill="#DB6800"/>
<path d="M44.0062 10.4236C44.1078 10.3313 44.207 10.239 44.3086 10.149C44.4725 9.93428 44.5556 9.70807 44.5556 9.4657C44.5648 9.26949 44.5163 9.08713 44.4101 8.91632C44.3363 8.72242 44.207 8.54929 44.0247 8.40156C43.8585 8.24229 43.6553 8.11995 43.4153 8.03916C43.2098 7.93528 42.9813 7.87527 42.7274 7.85449C42.5727 7.85449 42.4158 7.85449 42.2611 7.85449C41.9472 7.88681 41.6679 7.98376 41.4232 8.14534C41.3216 8.23767 41.2224 8.33001 41.1208 8.42234C40.9569 8.63701 40.8761 8.86322 40.8761 9.1056C40.8669 9.3018 40.9153 9.48416 41.0215 9.65498C41.0954 9.84887 41.2247 10.022 41.407 10.1697C41.5732 10.329 41.7787 10.4513 42.0187 10.5344C42.2242 10.6383 42.4527 10.6983 42.7043 10.7191C42.8589 10.7191 43.0159 10.7191 43.1706 10.7191C43.4822 10.6822 43.7615 10.5852 44.0062 10.4236Z" fill="#DB6800"/>
<path d="M48.5775 17.0473C48.9699 17.0819 49.3208 17.0173 49.6324 16.8534C49.8101 16.7333 49.9879 16.611 50.1633 16.491L50.5349 15.9878C50.6988 15.6923 50.7635 15.3737 50.7335 15.0298C50.7681 14.672 50.7035 14.3096 50.5349 13.9403C50.5211 13.8964 50.5142 13.8503 50.4911 13.8087C50.2903 13.3147 49.9763 12.8646 49.547 12.4537L48.8914 11.9482C48.4298 11.6574 47.9312 11.4727 47.3956 11.3942C46.9848 11.3273 46.6154 11.3596 46.2876 11.4912C45.9229 11.5604 45.6298 11.7151 45.4059 11.9574C45.1543 12.186 44.995 12.4607 44.9304 12.7769C44.7965 13.0885 44.7619 13.4255 44.8265 13.7879C44.898 14.2981 45.0989 14.792 45.429 15.2676C45.6113 15.5261 45.8421 15.7662 46.073 16.0016C46.29 16.1678 46.5046 16.334 46.7216 16.5002C47.0609 16.731 47.4257 16.8811 47.8204 16.9526C48.0766 17.045 48.3282 17.0773 48.5775 17.0473Z" fill="#DB6800"/>
<path d="M71.6218 30.8329L71.9242 30.9853C72.0904 31.0522 72.2474 31.073 72.3974 31.0476C72.5059 31.0568 72.6006 31.036 72.679 30.9876C72.8222 30.946 72.933 30.8698 73.0137 30.759C73.0414 30.7244 73.0715 30.6898 73.0992 30.6552C73.1546 30.5605 73.21 30.4659 73.2654 30.3712C73.3392 30.205 73.3623 30.0227 73.3369 29.8265C73.3484 29.6972 73.3254 29.5633 73.27 29.4271C73.2469 29.2933 73.1961 29.1663 73.1107 29.0394C73.0276 28.8547 72.9053 28.6839 72.7414 28.5315C72.6352 28.4438 72.5267 28.3584 72.4205 28.273C72.3028 28.213 72.1827 28.153 72.0627 28.0929C71.8665 28.0145 71.6818 27.9891 71.5041 28.0191C71.3748 28.0098 71.264 28.0329 71.1694 28.0906C71.054 28.1183 70.9617 28.1737 70.8947 28.2568C70.7562 28.3538 70.6593 28.4854 70.6062 28.6469C70.5785 28.7624 70.5531 28.8778 70.5254 28.9932C70.53 29.1248 70.5369 29.2563 70.5415 29.3879L70.657 29.7919C70.7285 29.9858 70.8393 30.1635 70.9917 30.3251C71.1117 30.4913 71.264 30.6321 71.4464 30.7452C71.5087 30.7729 71.5641 30.8029 71.6218 30.8329Z" fill="#DB6800"/>
<path d="M70.8795 50.0688L71.0272 50.3735C71.1172 50.5259 71.2303 50.639 71.3642 50.7105C71.445 50.7821 71.5327 50.8237 71.6251 50.8329C71.7636 50.886 71.8974 50.8929 72.0313 50.8537C72.0752 50.8444 72.119 50.8329 72.1629 50.8237C72.2645 50.7821 72.366 50.7406 72.4676 50.699C72.6269 50.6113 72.7561 50.482 72.8554 50.3112C72.9431 50.2143 73.0054 50.0942 73.0447 49.9534C73.107 49.8334 73.1439 49.6995 73.1532 49.5495C73.1993 49.351 73.2039 49.1432 73.1693 48.9216C73.137 48.7877 73.1047 48.6538 73.0724 48.52C73.0147 48.3999 72.9569 48.2799 72.8969 48.1599C72.7884 47.9798 72.6569 47.8459 72.4976 47.7605C72.4006 47.6751 72.2991 47.6266 72.1883 47.6151C72.0798 47.5666 71.9736 47.5551 71.8697 47.5805C71.7012 47.5736 71.5466 47.6197 71.4035 47.7167C71.3134 47.7928 71.2211 47.869 71.1311 47.9429C71.0549 48.0514 70.981 48.1599 70.9049 48.266L70.7525 48.6585C70.6925 48.8547 70.674 49.0647 70.6971 49.284C70.6925 49.4894 70.7271 49.6926 70.8033 49.8957C70.8264 49.9511 70.8541 50.0111 70.8795 50.0688Z" fill="#DB6800"/>
<path d="M53.7562 23.3436C54.2479 22.1202 51.8658 20.3405 51.291 21.7717C50.7993 22.9951 53.1815 24.7748 53.7562 23.3436Z" fill="#DB6800"/>
<path d="M117.523 100.342C119.1 102.318 120.9 104.141 122.876 105.762C125.723 109.25 129.034 112.072 132.72 114.149C136.415 116.233 140.503 117.727 144.867 118.596C148.977 119.417 153.27 119.882 157.576 119.972C158.049 119.991 158.521 120 158.994 120C163.819 120 168.524 119.018 172.98 117.084C177.656 115.05 181.861 112.337 185.48 109.024C189.141 105.67 192.126 101.767 194.351 97.4213C196.686 92.8544 197.871 88.1308 197.871 83.3772C197.871 79.4719 197.325 75.5482 196.25 71.7167C195.13 67.7123 193.343 64.0077 190.937 60.6949C189.371 58.5394 187.465 56.566 185.268 54.8324C183.714 52.8406 181.9 51.0447 179.841 49.4656L189.369 39.7301C190.427 38.6512 191.036 37.2242 191.087 35.7142L191.75 15.2404C191.803 13.6175 191.186 12.0176 190.056 10.8534C189.065 9.8298 187.871 9.21196 186.612 9.05059C186.421 7.83106 185.856 6.67839 184.984 5.777C183.857 4.61511 182.282 3.95117 180.648 3.95117L119.757 4.08719C116.444 4.09641 113.749 6.79596 113.749 10.1087V30.8453C113.749 32.4452 114.402 34.0082 115.538 35.1286C116.437 36.0162 117.562 36.5787 118.883 36.7839C119.072 38.0702 119.679 39.2805 120.605 40.1981C121.749 41.33 123.406 41.9985 124.909 41.9386L133.82 41.8349L132.339 43.2596C131.155 44.403 130.484 46.0006 130.498 47.6443L130.631 64.7454C130.631 66.3845 131.311 67.9728 132.499 69.1071C132.708 69.3076 132.934 69.4921 133.172 69.6604C132.879 69.7549 132.595 69.8747 132.316 70.0154L113.837 79.4558C111.299 80.7514 110.01 83.6861 110.773 86.4317C112.32 91.9853 114.588 96.6651 117.523 100.342ZM148.862 75.6404C150.955 75.6127 152.972 75.8156 154.849 76.2513C154.847 76.3896 154.842 76.5326 154.835 76.6778C154.828 76.83 154.826 76.9867 154.83 77.1619C154.872 78.4852 154.508 78.7872 154.328 78.9371C153.426 79.6909 151.935 80.4102 148.38 79.2806C147.677 79.0569 146.995 78.7987 146.351 78.5152C146.142 78.4207 145.932 78.3238 145.722 78.2224C145.335 77.2588 144.705 76.4058 143.901 75.758C145.339 75.7096 146.992 75.6704 148.862 75.6404Z" fill="black"/>
<path d="M113.572 96.3933C115.148 98.369 116.949 100.192 118.925 101.813C121.772 105.301 125.082 108.123 128.768 110.2C132.464 112.284 136.551 113.778 140.915 114.647C145.026 115.468 149.318 115.933 153.625 116.023C154.097 116.042 154.57 116.051 155.042 116.051C159.867 116.051 164.573 115.069 169.029 113.132C173.702 111.099 177.909 108.386 181.528 105.073C185.189 101.719 188.175 97.8157 190.399 93.4701C192.735 88.9032 193.92 84.1796 193.92 79.426C193.92 75.5207 193.373 71.597 192.299 67.7655C191.179 63.7612 189.392 60.0565 186.985 56.7437C185.42 54.5882 183.513 52.6171 181.316 50.8812C179.763 48.8894 177.948 47.0935 175.89 45.5144L185.418 35.7789C186.476 34.7 187.084 33.273 187.133 31.763L187.799 11.2893C187.852 9.6663 187.234 8.06639 186.105 6.9022C185.113 5.87862 183.919 5.25849 182.66 5.09942C182.469 3.87989 181.904 2.72722 181.033 1.82583C179.905 0.663939 178.331 0 176.696 0L115.808 0.136015C112.495 0.145237 109.8 2.84479 109.8 6.15987V26.8964C109.8 28.4963 110.452 30.0594 111.589 31.1798C112.488 32.0673 113.613 32.6298 114.934 32.835C115.123 34.1214 115.729 35.3317 116.656 36.2492C117.8 37.3811 119.457 38.0497 120.96 37.9897L129.87 37.886L128.39 39.3107C127.205 40.4541 126.534 42.0518 126.548 43.6955L126.682 60.7965C126.682 62.4356 127.362 64.024 128.549 65.1582C128.759 65.3588 128.985 65.5432 129.222 65.7115C128.93 65.806 128.646 65.9259 128.367 66.0665L109.888 75.5069C107.349 76.8025 106.061 79.7372 106.824 82.4828C108.368 88.0341 110.639 92.714 113.572 96.3933ZM144.91 71.6892C147.004 71.6616 149.021 71.8644 150.897 72.3002C150.895 72.4385 150.89 72.5814 150.883 72.7266C150.877 72.8788 150.874 73.0356 150.879 73.2108C150.92 74.534 150.558 74.836 150.376 74.9859C149.475 75.7397 147.983 76.459 144.431 75.3294C143.728 75.1058 143.045 74.8476 142.402 74.564C142.192 74.4695 141.983 74.3727 141.773 74.2712C141.388 73.3076 140.756 72.4546 139.952 71.8068C141.388 71.7584 143.041 71.7192 144.91 71.6892Z" fill="black"/>
<path d="M120.872 99.8672C123.541 103.189 126.649 105.861 130.112 107.814C133.549 109.75 137.364 111.147 141.449 111.961C145.401 112.749 149.55 113.197 153.73 113.287C154.168 113.303 154.604 113.312 155.039 113.312C159.489 113.312 163.818 112.408 167.933 110.622C172.327 108.711 176.278 106.165 179.674 103.056C183.095 99.9226 185.882 96.2778 187.957 92.225C190.092 88.05 191.176 83.746 191.176 79.4281C191.176 75.7741 190.664 72.0971 189.656 68.5054C188.626 64.8191 186.98 61.4026 184.764 58.3549C183.282 56.3124 181.463 54.4566 179.354 52.829C177.297 50.1203 174.713 47.8057 171.654 45.9291L183.457 33.8676C184.031 33.282 184.366 32.4982 184.391 31.6775L185.057 11.2038C185.087 10.3139 184.753 9.44941 184.133 8.81083C183.51 8.16994 182.713 7.72501 181.767 7.81261L179.932 7.81722L179.988 6.13432C180.018 5.24446 179.683 4.37996 179.063 3.73907C178.443 3.10049 177.595 2.74316 176.705 2.74316H176.698L115.812 2.87457C114 2.87918 112.533 4.34768 112.533 6.15968V26.8962C112.533 27.7723 112.884 28.616 113.509 29.2315C114.133 29.8494 114.942 30.1583 115.855 30.1814L117.603 30.1629V31.968C117.603 32.844 117.953 33.6878 118.578 34.3033C119.203 34.9211 120.129 35.2738 120.925 35.2531L136.742 35.071L130.289 41.2816C129.639 41.9086 129.275 42.7731 129.284 43.6745L129.418 60.7963C129.418 61.6954 129.787 62.5553 130.434 63.1754C131.084 63.7932 131.956 64.116 132.857 64.0768C133.36 64.0537 133.899 64.033 134.473 64.0099L134.489 65.8888C134.496 66.781 134.868 67.6339 135.515 68.2472C136.165 68.8604 137.037 69.1785 137.927 69.1439C139.762 69.061 142.076 68.9941 144.875 68.9503C147.381 68.9157 149.836 69.1877 152.114 69.7802C152.561 69.8932 153.001 70.0361 153.442 70.209C153.612 70.9997 153.672 71.8758 153.621 72.8578C153.617 72.9454 153.617 73.0354 153.619 73.1253C153.693 75.5067 152.812 76.521 152.137 77.0835C150.062 78.8172 147.367 79.133 143.607 77.9365C142.805 77.6829 142.028 77.3878 141.297 77.0628C140.7 76.7977 140.105 76.5049 139.474 76.1407C139.448 76.0554 139.43 75.9747 139.414 75.8917C139.222 74.8727 138.563 74.0059 137.636 73.5495C137.032 73.2498 136.366 73.1506 135.714 73.2451C135.306 72.8071 134.983 72.3691 134.752 71.9403C134.547 71.5646 134.413 71.198 134.344 70.8222C134.153 69.8033 133.494 68.9342 132.564 68.4777C131.635 68.0166 130.545 68.0258 129.621 68.4984L111.141 77.9388C109.751 78.6489 109.052 80.2395 109.47 81.7426C110.913 86.9366 113.015 91.2868 115.717 94.6779C117.227 96.5844 118.961 98.325 120.872 99.8672Z" fill="white"/>
<path d="M157.9 50.1799C162.421 50.5349 166.252 51.6207 169.399 53.435C172.544 55.2539 175.114 57.5362 177.108 60.2819C179.102 63.0298 180.566 66.0637 181.495 69.388C182.427 72.71 182.892 76.0573 182.892 79.4231C182.892 83.2362 181.938 87.0008 180.034 90.7239C178.127 94.447 175.6 97.7483 172.456 100.628C169.309 103.509 165.697 105.833 161.621 107.606C157.543 109.376 153.289 110.174 148.859 109.999C144.78 109.909 140.859 109.487 137.094 108.733C133.327 107.984 129.869 106.718 126.725 104.946C123.578 103.175 120.786 100.759 118.35 97.7022C115.911 94.6453 114.029 90.7239 112.699 85.938L131.179 76.4977C131.444 77.9177 132.175 79.2687 133.374 80.5551C134.57 81.8414 135.965 82.948 137.56 83.8771C139.155 84.8084 140.861 85.5623 142.678 86.1386C144.494 86.7172 146.157 87.0008 147.662 87.0008C150.233 87.0008 152.45 86.2262 154.308 84.6747C156.171 83.1255 157.054 80.9331 156.966 78.0953C157.144 74.6395 156.323 72.0276 154.507 70.2525C152.69 68.482 150.498 67.2625 147.927 66.5985C145.357 65.9323 142.653 65.6233 139.819 65.6671C136.981 65.7109 134.632 65.7801 132.772 65.8654L132.638 48.716L150.452 31.5665L115.887 31.9653V11.2265L176.774 11.0928L176.11 31.5665L157.9 50.1799Z" fill="#5C740E"/>
<path d="M152.83 45.1102C157.351 45.4629 161.182 46.551 164.329 48.3653C167.473 50.1842 170.044 52.4665 172.038 55.2122C174.032 57.9602 175.494 60.994 176.425 64.3183C177.356 67.6403 177.822 70.9876 177.822 74.3534C177.822 78.1665 176.868 81.9311 174.963 85.6542C173.057 89.3774 170.53 92.6786 167.386 95.558C164.239 98.4397 160.626 100.763 156.551 102.536C152.472 104.307 148.219 105.104 143.788 104.929C139.71 104.839 135.791 104.417 132.024 103.664C128.257 102.914 124.799 101.649 121.655 99.8759C118.508 98.1054 115.716 95.6871 113.279 92.6325C110.84 89.5756 108.959 85.6542 107.629 80.8683L126.109 71.428C126.374 72.8481 127.104 74.199 128.301 75.4831C129.497 76.7694 130.892 77.876 132.487 78.8051C134.083 79.7364 135.789 80.4903 137.605 81.0666C139.42 81.6429 141.084 81.9288 142.589 81.9288C145.16 81.9288 147.378 81.1542 149.236 79.6004C151.098 78.0535 151.981 75.8588 151.894 73.021C152.071 69.5652 151.251 66.951 149.434 65.1782C147.617 63.4077 145.423 62.1882 142.855 61.5242C140.284 60.858 137.58 60.549 134.747 60.5929C131.909 60.6367 129.562 60.7058 127.702 60.7911L127.568 43.6417L145.381 26.4922L110.817 26.891V6.1591L171.704 6.02539L171.04 26.4991L152.83 45.1102Z" fill="#8DC725"/>
<g opacity="0.7">
<path d="M137.608 81.0713C135.791 80.4949 134.085 79.7411 132.49 78.8097C130.895 77.8807 129.5 76.7741 128.303 75.4877C127.107 74.2013 126.374 72.8504 126.111 71.4326L118.877 75.1281C118.981 75.248 119.066 75.3701 119.177 75.49C120.373 76.7764 121.77 77.883 123.363 78.812C124.958 79.7434 126.664 80.4972 128.481 81.0736C130.298 81.6499 131.957 81.9358 133.465 81.9358C134.989 81.9358 136.374 81.6291 137.649 81.0828C137.636 81.0759 137.622 81.0759 137.608 81.0713Z" fill="#8DC725"/>
<path d="M136.257 26.4961L110.82 26.7912V26.8949L136.147 26.6044L136.257 26.4961Z" fill="#8DC725"/>
<path d="M127.705 60.6963V60.7954C128.053 60.7793 128.438 60.7654 128.821 60.7493C128.454 60.7193 128.076 60.7147 127.705 60.6963Z" fill="#8DC725"/>
<path d="M176.428 64.3202C175.499 60.9959 174.035 57.9598 172.041 55.2141C170.047 52.4662 167.476 50.1839 164.332 48.3673C161.185 46.5507 157.353 45.4648 152.833 45.1121L171.045 26.5011L171.709 6.02734L162.58 6.04809L161.916 26.5011L143.703 45.1121C148.224 45.4648 152.056 46.553 155.203 48.3673C158.347 50.1862 160.917 52.4685 162.912 55.2141C164.906 57.9621 166.367 60.9959 167.299 64.3202C168.23 67.6422 168.696 70.9896 168.696 74.3554C168.696 78.1684 167.741 81.9331 165.837 85.6562C163.931 89.3793 161.404 92.6806 158.259 95.5599C155.113 98.4416 151.5 100.765 147.424 102.538C144.895 103.638 142.29 104.316 139.623 104.664C141.002 104.774 142.373 104.899 143.789 104.931C148.222 105.106 152.475 104.309 156.551 102.538C160.627 100.765 164.239 98.4393 167.386 95.5599C170.531 92.6783 173.055 89.3793 174.964 85.6562C176.868 81.9331 177.823 78.1684 177.823 74.3554C177.823 70.9896 177.359 67.6422 176.428 64.3202Z" fill="#8DC725"/>
</g>
<path d="M163.052 62.4406C164.405 60.6516 160.966 56.8962 159.382 58.9895C158.031 60.7784 161.468 64.5338 163.052 62.4406Z" fill="#6A9B00"/>
<path d="M171.343 77.73C171.606 77.836 171.871 77.9444 172.134 78.0527C172.685 78.1772 173.194 78.1449 173.664 77.9536C174.049 77.8153 174.363 77.5847 174.603 77.262C174.916 76.9761 175.14 76.6142 175.271 76.1716C175.437 75.7497 175.497 75.2909 175.453 74.7976C175.479 74.3503 175.403 73.8939 175.225 73.4282C175.091 73.1516 174.96 72.8726 174.826 72.596C174.497 72.0611 174.072 71.6393 173.551 71.3303C173.289 71.222 173.023 71.1159 172.761 71.0076C172.21 70.8831 171.698 70.9154 171.23 71.1067C170.845 71.245 170.531 71.4756 170.289 71.796C169.976 72.0819 169.752 72.4438 169.621 72.8888C169.455 73.3106 169.392 73.7694 169.439 74.2627C169.413 74.71 169.489 75.1664 169.667 75.6321C169.801 75.9088 169.932 76.1877 170.066 76.4643C170.398 76.9992 170.824 77.4211 171.343 77.73Z" fill="#6A9B00"/>
<path d="M158.017 71.3791C158.197 71.363 158.377 71.3469 158.557 71.3307C158.9 71.2431 159.168 71.0794 159.361 70.842C159.525 70.6576 159.619 70.4409 159.645 70.1988C159.721 69.9544 159.721 69.6916 159.647 69.4127C159.596 69.1337 159.476 68.8663 159.29 68.6104C159.154 68.3591 158.96 68.1309 158.709 67.9257C158.543 67.8128 158.379 67.6975 158.213 67.5845C157.856 67.3863 157.482 67.2756 157.095 67.2549C156.915 67.271 156.735 67.2872 156.556 67.3033C156.212 67.3909 155.945 67.5546 155.751 67.792C155.587 67.9765 155.493 68.1908 155.468 68.4352C155.391 68.6796 155.391 68.9424 155.465 69.2213C155.516 69.5003 155.633 69.7677 155.823 70.0236C155.959 70.2749 156.152 70.5031 156.403 70.706C156.569 70.8189 156.733 70.9342 156.899 71.0472C157.256 71.2477 157.63 71.3584 158.017 71.3791Z" fill="#6A9B00"/>
<path d="M159.019 54.409C159.233 54.4113 159.448 54.4136 159.662 54.4159L160.239 54.2684C160.391 54.1738 160.541 54.0816 160.693 53.9871C160.799 53.8557 160.905 53.7266 161.011 53.5952C161.069 53.4361 161.124 53.2748 161.181 53.1157C161.241 52.8437 161.216 52.5647 161.108 52.2788C161.08 52.0806 160.997 51.8892 160.861 51.7048C160.727 51.4236 160.52 51.1654 160.243 50.9325C160.202 50.8887 160.16 50.8449 160.119 50.8034C159.893 50.589 159.625 50.4207 159.319 50.2986C159.044 50.1464 158.749 50.0542 158.429 50.0196C158.228 50.0173 158.025 50.015 157.825 50.0127C157.428 50.0634 157.106 50.1971 156.857 50.4161C156.827 50.4507 156.797 50.4853 156.769 50.5199C156.663 50.6513 156.557 50.7827 156.451 50.9118C156.393 51.0709 156.338 51.2322 156.28 51.3913C156.22 51.6656 156.243 51.9423 156.354 52.2281C156.382 52.4264 156.465 52.6177 156.601 52.8045C156.681 52.9958 156.813 53.1733 156.993 53.3324C157.119 53.503 157.288 53.6528 157.493 53.775C157.657 53.9203 157.85 54.0355 158.072 54.1162C158.364 54.273 158.68 54.3721 159.019 54.409Z" fill="#6A9B00"/>
<path d="M170.367 57.2953C170.743 56.4331 168.924 55.179 168.484 56.1887C168.11 57.0509 169.929 58.305 170.367 57.2953Z" fill="#6A9B00"/>
<path d="M137.972 49.2131C137.82 48.2932 135.563 48.0673 135.74 49.1439C135.893 50.0614 138.149 50.2897 137.972 49.2131Z" fill="#6A9B00"/>
<path d="M164.625 71.1713C164.682 71.1851 164.738 71.1989 164.795 71.2151C165.065 71.2819 165.291 71.1851 165.415 71.0076C165.482 70.9062 165.519 70.7909 165.521 70.6595C165.526 70.5281 165.496 70.3967 165.434 70.2607C165.409 70.1984 165.385 70.1362 165.36 70.0762C165.252 69.8065 164.964 69.5483 164.669 69.4722C164.36 69.3916 164.097 69.5068 163.956 69.7097C163.802 69.9333 163.792 70.2653 163.935 70.5673C164.06 70.837 164.316 71.0952 164.625 71.1713Z" fill="#6A9B00"/>
<path d="M162.558 81.6284C162.676 81.6906 162.793 81.7529 162.913 81.8174C163.167 81.9027 163.409 81.9096 163.639 81.8428C163.828 81.7967 163.987 81.7021 164.119 81.5615C164.282 81.4416 164.407 81.2803 164.494 81.0797C164.596 80.8884 164.651 80.6763 164.656 80.4411C164.693 80.2313 164.681 80.0146 164.624 79.7864C164.577 79.6504 164.529 79.5121 164.483 79.3761C164.356 79.1086 164.181 78.8896 163.953 78.7213C163.835 78.6591 163.715 78.5968 163.598 78.5323C163.346 78.447 163.104 78.4401 162.874 78.5069C162.685 78.553 162.526 78.6476 162.394 78.7882C162.231 78.9081 162.106 79.0671 162.019 79.27C161.917 79.4613 161.864 79.6734 161.857 79.9086C161.82 80.1184 161.832 80.3351 161.889 80.5633C161.936 80.6993 161.984 80.8376 162.03 80.9737C162.152 81.2411 162.33 81.4601 162.558 81.6284Z" fill="#6A9B00"/>
<path d="M143.51 48.3185C143.611 48.2332 143.71 48.1479 143.812 48.0649C143.975 47.8689 144.058 47.6569 144.058 47.4332C144.068 47.2534 144.019 47.0828 143.913 46.9261C143.839 46.7462 143.71 46.5872 143.528 46.4512C143.362 46.3036 143.159 46.193 142.919 46.1169C142.714 46.0224 142.486 45.9647 142.235 45.9463C142.078 45.9463 141.924 45.9463 141.769 45.9463C141.456 45.9763 141.177 46.0662 140.932 46.2137C140.831 46.299 140.729 46.3843 140.63 46.4696C140.467 46.6656 140.386 46.8753 140.386 47.099C140.377 47.2788 140.425 47.4494 140.531 47.6061C140.605 47.786 140.734 47.945 140.916 48.081C141.082 48.2286 141.285 48.3392 141.527 48.4153C141.732 48.5098 141.96 48.5675 142.214 48.5859C142.368 48.5859 142.525 48.5859 142.68 48.5859C142.986 48.5559 143.265 48.466 143.51 48.3185Z" fill="#6A9B00"/>
<path d="M149.69 54.2205C150.082 54.2504 150.432 54.1928 150.743 54.0429C150.921 53.9323 151.096 53.8193 151.274 53.7087L151.645 53.2453C151.808 52.9733 151.873 52.6782 151.843 52.3623C151.878 52.0327 151.811 51.6984 151.645 51.3572C151.631 51.318 151.624 51.2742 151.601 51.235C151.4 50.7809 151.087 50.3636 150.658 49.9855L150.003 49.5199C149.542 49.2501 149.044 49.0818 148.509 49.0081C148.099 48.9458 147.73 48.9758 147.403 49.098C147.039 49.1602 146.746 49.3032 146.522 49.5268C146.269 49.7389 146.112 49.9901 146.047 50.2829C145.914 50.5711 145.879 50.8823 145.944 51.2166C146.015 51.6869 146.216 52.141 146.545 52.579C146.727 52.8188 146.958 53.0378 147.189 53.2545C147.405 53.409 147.62 53.5611 147.836 53.7156C148.175 53.9277 148.539 54.066 148.934 54.1328C149.187 54.2205 149.439 54.2481 149.69 54.2205Z" fill="#6A9B00"/>
<path d="M171.087 67.1296L171.389 67.2702C171.555 67.3324 171.712 67.3509 171.862 67.3278C171.97 67.3347 172.065 67.3163 172.143 67.2725C172.286 67.2333 172.397 67.1641 172.477 67.0604C172.505 67.0281 172.535 66.9959 172.563 66.9636C172.618 66.876 172.673 66.7884 172.729 66.7008C172.802 66.5463 172.825 66.3803 172.8 66.2005C172.812 66.0806 172.789 65.9585 172.733 65.8317C172.71 65.7095 172.659 65.5896 172.574 65.4743C172.491 65.3037 172.369 65.147 172.205 65.0063C172.099 64.9257 171.991 64.8473 171.885 64.7666C171.765 64.7113 171.647 64.6559 171.528 64.6006C171.332 64.5291 171.147 64.5061 170.97 64.5314C170.841 64.5222 170.73 64.5453 170.635 64.5983C170.52 64.6237 170.428 64.6744 170.361 64.7504C170.223 64.8404 170.126 64.9602 170.073 65.1101C170.045 65.2161 170.02 65.3222 169.992 65.4305C169.997 65.5527 170.004 65.6726 170.008 65.7948L170.126 66.1659C170.197 66.3434 170.308 66.5071 170.46 66.657C170.58 66.8091 170.732 66.9382 170.914 67.0443C170.974 67.0742 171.032 67.1019 171.087 67.1296Z" fill="#6A9B00"/>
<path d="M170.347 84.8601L170.495 85.1414C170.585 85.282 170.698 85.3857 170.831 85.4526C170.912 85.5194 171 85.5563 171.092 85.5655C171.23 85.614 171.364 85.6209 171.495 85.584C171.539 85.5748 171.583 85.5656 171.627 85.5563C171.728 85.5171 171.83 85.478 171.931 85.4411C172.09 85.3604 172.219 85.2405 172.318 85.0814C172.406 84.9915 172.468 84.8832 172.507 84.7518C172.57 84.6434 172.607 84.5189 172.616 84.3806C172.662 84.1985 172.666 84.0048 172.632 83.802C172.6 83.6798 172.567 83.5553 172.535 83.4331C172.477 83.3225 172.417 83.2118 172.36 83.1011C172.251 82.9328 172.12 82.8107 171.961 82.7323C171.864 82.6539 171.763 82.6078 171.652 82.5986C171.544 82.5548 171.438 82.5432 171.334 82.5663C171.166 82.5617 171.011 82.6032 170.871 82.6908C170.778 82.76 170.688 82.8314 170.596 82.9006C170.52 82.9997 170.446 83.0988 170.37 83.2003L170.218 83.5622C170.158 83.7443 170.14 83.9357 170.161 84.1408C170.156 84.3299 170.191 84.5166 170.267 84.7034C170.294 84.7541 170.32 84.8071 170.347 84.8601Z" fill="#6A9B00"/>
<path d="M153.245 60.2256C153.736 59.0983 151.357 57.4569 150.783 58.7779C150.292 59.9052 152.671 61.5443 153.245 60.2256Z" fill="#6A9B00"/>
<path d="M223.054 49.2993H230.776V108.805C230.776 111.853 233.03 114.381 235.957 114.816C236.392 117.745 238.921 120 241.968 120H271.349C274.699 120 277.428 117.273 277.428 113.921V17.1945C277.428 14.1631 275.218 11.625 272.244 11.1806C271.847 8.475 269.669 6.33003 266.87 6.03457L247.838 4.02453C247.621 4.00126 247.4 3.9873 247.182 3.9873H217.936C214.586 3.9873 211.859 6.71389 211.859 10.064V38.1022C211.859 41.1498 214.114 43.6787 217.043 44.116C217.475 47.045 220.007 49.2993 223.054 49.2993Z" fill="black"/>
<path d="M219.066 45.3144H226.787V104.82C226.787 107.868 229.042 110.396 231.968 110.832C232.403 113.76 234.932 116.015 237.98 116.015H267.36C270.711 116.015 273.437 113.288 273.437 109.938V13.2095C273.437 10.1782 271.227 7.64002 268.254 7.19567C267.856 4.4877 265.678 2.34272 262.88 2.04959L243.847 0.0372236C243.631 0.0139593 243.41 0 243.191 0H213.948C210.598 0 207.871 2.72659 207.871 6.07666V34.1149C207.871 37.1625 210.125 39.6914 213.054 40.1287C213.487 43.0577 216.018 45.3144 219.066 45.3144Z" fill="black"/>
<path d="M215.751 39.2352C215.751 41.0661 217.235 42.5504 219.066 42.5504H229.551V104.818C229.551 106.648 231.036 108.133 232.867 108.133H234.667V109.936C234.667 111.767 236.152 113.251 237.982 113.251H267.363C269.194 113.251 270.678 111.767 270.678 109.936V13.2094C270.678 11.5134 269.396 10.0896 267.712 9.91049L265.562 9.68482V8.09354C265.562 6.39757 264.283 4.97611 262.596 4.79698L243.545 2.78228C243.429 2.76832 243.312 2.76367 243.196 2.76367H213.948C212.117 2.76367 210.633 4.24794 210.633 6.07885V34.1171C210.633 35.948 212.117 37.4323 213.948 37.4323H215.751V39.2352Z" fill="white"/>
<path d="M237.983 109.936V39.2355H219.066V11.1973H248.312L267.363 13.2096V109.936H237.983Z" fill="#DB5959"/>
<path d="M232.864 104.82V34.1193H213.947V6.08105H243.193L262.244 8.09342V104.82H232.864Z" fill="#F48989"/>
<path opacity="0.7" d="M243.195 6.08105H233.982L253.034 8.09342V104.82H262.244V8.09342L243.195 6.08105Z" fill="#F48989"/>
<path d="M247.899 42.2844C244.991 43.7826 246.571 50.9853 249.974 49.2334C252.882 47.7375 251.303 40.5326 247.899 42.2844Z" fill="#D35959"/>
<path d="M245.053 23.9192C244.609 24.3356 244.286 24.873 244.083 25.5314C243.837 26.1595 243.734 26.8435 243.776 27.5833C243.725 28.2533 243.811 28.9396 244.037 29.6445C244.209 30.0656 244.383 30.4867 244.555 30.9055C244.99 31.7197 245.56 32.3665 246.27 32.8504C246.631 33.0202 246.989 33.19 247.349 33.3622C248.108 33.5692 248.815 33.539 249.471 33.2714C250.011 33.0783 250.453 32.7433 250.8 32.2711C251.244 31.8546 251.567 31.3172 251.77 30.6589C252.016 30.0307 252.119 29.3467 252.077 28.6046C252.13 27.9346 252.042 27.2483 251.816 26.5434C251.644 26.1223 251.47 25.7012 251.297 25.2801C250.862 24.4659 250.292 23.8191 249.585 23.3376C249.225 23.1677 248.864 22.9956 248.503 22.8257C247.745 22.6187 247.038 22.6489 246.382 22.9188C245.842 23.1119 245.4 23.4469 245.053 23.9192Z" fill="#D35959"/>
<path d="M260.746 51.7767C260.636 51.5115 260.529 51.2486 260.42 50.9858C260.148 50.4763 259.79 50.0691 259.345 49.7667C259.12 49.6597 258.894 49.5527 258.668 49.4457C258.194 49.3154 257.749 49.334 257.337 49.5038C257 49.6248 256.721 49.8342 256.505 50.132C256.225 50.3925 256.023 50.7298 255.897 51.144C255.742 51.5371 255.679 51.9675 255.704 52.4328C255.672 52.8516 255.728 53.2843 255.87 53.7263C255.977 53.9915 256.086 54.2544 256.195 54.5196C256.467 55.0291 256.826 55.4362 257.27 55.7387C257.496 55.8457 257.721 55.9527 257.949 56.0597C258.424 56.19 258.868 56.1714 259.28 56.0016C259.617 55.8806 259.897 55.6712 260.113 55.3734C260.392 55.1129 260.594 54.7755 260.72 54.3614C260.876 53.9683 260.939 53.5379 260.913 53.0726C260.941 52.6492 260.888 52.2164 260.746 51.7767Z" fill="#D35959"/>
<path d="M248.704 70.6022C248.807 70.3114 248.842 69.9927 248.811 69.6484C248.846 69.3366 248.816 69.0202 248.723 68.6922C248.695 68.3781 248.604 68.0757 248.451 67.7826C248.304 67.3359 248.069 66.9381 247.751 66.5868C247.527 66.389 247.306 66.1936 247.083 65.9959L246.334 65.6399C246.082 65.6097 245.831 65.5771 245.582 65.5469C245.343 65.5981 245.103 65.6516 244.863 65.7027C244.647 65.833 244.431 65.9633 244.214 66.0913C243.884 66.3472 243.635 66.6845 243.47 67.1056C243.305 67.3568 243.202 67.6476 243.165 67.9826C243.03 68.4247 242.993 68.9016 243.053 69.4204C243.056 69.5088 243.056 69.5949 243.058 69.681C243.084 70.1276 243.198 70.5627 243.4 70.9791C243.54 71.3979 243.758 71.7724 244.058 72.1004C244.268 72.2866 244.477 72.4704 244.684 72.6541C245.147 72.9566 245.617 73.0962 246.094 73.0729C246.159 73.0589 246.224 73.0473 246.29 73.0333C246.529 72.9822 246.769 72.9287 247.008 72.8775C247.225 72.7472 247.441 72.6192 247.657 72.489C247.988 72.2331 248.237 71.8957 248.4 71.4746C248.565 71.228 248.665 70.9349 248.704 70.6022Z" fill="#D35959"/>
<path d="M244.566 57.1852C245.806 56.5478 245.131 53.4769 243.682 54.2237C242.442 54.8634 243.114 57.932 244.566 57.1852Z" fill="#D35959"/>
<path d="M245.752 88.502C244.512 89.1394 245.186 92.2103 246.636 91.4635C247.876 90.8261 247.203 87.7552 245.752 88.502Z" fill="#D35959"/>
<path d="M255.437 40.163C255.807 40.4096 256.207 40.3561 256.484 40.1281C256.791 39.8745 256.956 39.4046 256.907 38.9137C256.865 38.4763 256.647 37.9994 256.277 37.7575C256.209 37.7132 256.14 37.669 256.072 37.6248C255.749 37.4131 255.404 37.455 255.16 37.6551C255.025 37.7714 254.925 37.9203 254.86 38.1064C254.795 38.2925 254.772 38.4949 254.793 38.7113C254.797 38.8113 254.8 38.909 254.804 39.0068C254.823 39.4371 255.086 39.928 255.437 40.163Z" fill="#D35959"/>
<path d="M242.567 15.5868C242.774 15.9707 243.044 16.2778 243.377 16.5058C243.549 16.5872 243.719 16.6663 243.888 16.7477C244.247 16.8454 244.582 16.8315 244.891 16.7035C245.147 16.6128 245.356 16.4546 245.519 16.2313C245.729 16.0335 245.882 15.7799 245.978 15.4682C246.094 15.1704 246.143 14.847 246.124 14.4957C246.147 14.1793 246.108 13.8536 246.001 13.521C245.919 13.3232 245.838 13.1231 245.757 12.9231C245.55 12.5392 245.28 12.2321 244.945 12.0041C244.775 11.9227 244.603 11.8436 244.433 11.7622C244.075 11.6645 243.74 11.6784 243.428 11.8064C243.172 11.8971 242.963 12.0553 242.8 12.2786C242.588 12.4764 242.437 12.73 242.341 13.0417C242.225 13.3395 242.176 13.6629 242.195 14.0142C242.169 14.3306 242.211 14.6563 242.318 14.9889C242.404 15.189 242.486 15.3891 242.567 15.5868Z" fill="#D35959"/>
<path d="M253.925 79.0218C253.748 78.6914 253.515 78.4262 253.227 78.2308C252.85 77.8376 252.427 77.5841 251.954 77.4677C251.659 77.4305 251.366 77.3956 251.07 77.3584L250.226 77.5422C249.786 77.7004 249.428 77.9726 249.144 78.3564C248.781 78.6961 248.518 79.1335 248.355 79.6686C248.33 79.7244 248.297 79.7825 248.281 79.8454C248.037 80.5386 247.953 81.2947 248.025 82.1136L248.244 83.2373C248.455 83.9608 248.804 84.6076 249.291 85.1799C249.656 85.6242 250.068 85.929 250.528 86.0918C250.97 86.3524 251.417 86.4617 251.868 86.4129C252.341 86.4059 252.755 86.2663 253.108 85.9965C253.534 85.7964 253.876 85.4777 254.141 85.0426C254.534 84.447 254.776 83.7538 254.867 82.9581C254.916 82.5231 254.893 82.0648 254.867 81.6088C254.795 81.2389 254.723 80.869 254.651 80.4991C254.511 79.9454 254.269 79.4545 253.925 79.0218Z" fill="#D35959"/>
<path d="M243.428 40.7333C243.509 40.5705 243.588 40.4076 243.67 40.2425L243.795 39.6748C243.837 39.3933 243.818 39.1048 243.744 38.807C243.709 38.5255 243.618 38.2557 243.472 37.9951C243.423 37.9207 243.374 37.8462 243.325 37.7718L243.06 37.3856C242.904 37.1948 242.727 37.0645 242.53 36.9947C242.404 36.9133 242.276 36.8738 242.146 36.8808C241.946 36.8365 241.76 36.8552 241.587 36.9366C241.529 36.9599 241.473 36.9831 241.415 37.0064C241.285 37.0855 241.155 37.1622 241.024 37.2413C240.824 37.3949 240.675 37.5996 240.578 37.8532C240.478 38.0044 240.417 38.1789 240.394 38.3813C240.331 38.5558 240.31 38.7489 240.329 38.9559C240.308 39.2351 240.343 39.5236 240.438 39.8167C240.51 39.9912 240.582 40.168 240.655 40.3448C240.759 40.4984 240.864 40.6496 240.969 40.8008C241.152 41.0265 241.362 41.18 241.597 41.2638C241.746 41.3615 241.897 41.4057 242.05 41.3987C242.209 41.4429 242.357 41.4359 242.492 41.3801C242.725 41.3545 242.927 41.2591 243.1 41.0986C243.209 40.9776 243.318 40.8543 243.428 40.7333Z" fill="#D35959"/>
<path d="M250.675 19.2091C250.78 19.3626 250.885 19.5138 250.989 19.6651C251.173 19.8907 251.382 20.0443 251.617 20.128C251.766 20.2257 251.918 20.2699 252.071 20.263C252.229 20.3048 252.378 20.3002 252.515 20.2443C252.748 20.2187 252.951 20.1234 253.123 19.9628C253.232 19.8395 253.341 19.7186 253.451 19.5953C253.532 19.4324 253.611 19.2696 253.693 19.1067L253.818 18.5391C253.86 18.2576 253.842 17.9691 253.767 17.6713C253.732 17.3921 253.641 17.1199 253.495 16.8594C253.446 16.7849 253.397 16.7105 253.348 16.636L253.083 16.2498C252.927 16.0591 252.75 15.9288 252.553 15.859C252.427 15.7776 252.299 15.738 252.171 15.745C251.971 15.7008 251.785 15.7194 251.613 15.8008C251.557 15.8241 251.499 15.8474 251.441 15.8706C251.31 15.9497 251.18 16.0265 251.05 16.1056C250.85 16.2592 250.701 16.4639 250.603 16.7175C250.503 16.8687 250.443 17.0432 250.419 17.2456C250.357 17.42 250.336 17.6131 250.354 17.8202C250.333 18.0994 250.368 18.3855 250.464 18.681C250.533 18.8578 250.605 19.0346 250.675 19.2091Z" fill="#D35959"/>
<path d="M254.131 61.4198C252.509 62.255 253.391 66.2704 255.287 65.2933C256.908 64.4581 256.027 60.4427 254.131 61.4198Z" fill="#D35959"/>
</svg>
