<svg width="278" height="120" viewBox="0 0 278 120" fill="none" xmlns="http://www.w3.org/2000/svg">
<path d="M11.1578 100.342C12.7347 102.318 14.5351 104.141 16.5108 105.762C19.3579 109.25 22.6684 112.072 26.3546 114.149C30.0501 116.233 34.1375 117.727 38.5015 118.596C42.6119 119.417 46.9044 119.882 51.2108 119.972C51.6834 119.991 52.156 120 52.6286 120C57.4537 120 62.1589 119.018 66.6151 117.084C71.2904 115.05 75.4953 112.337 79.1147 109.024C82.7756 105.67 85.761 101.767 87.9856 97.4213C90.321 92.8544 91.5059 88.1308 91.5059 83.3772C91.5059 79.4719 90.9595 75.5482 89.8853 71.7167C88.7649 67.7123 86.9782 64.0077 84.5714 60.6949C83.0061 58.5394 81.0996 56.566 78.9026 54.8324C77.3488 52.8406 75.5345 51.0447 73.4758 49.4656L83.0038 39.7301C84.062 38.6512 84.6706 37.2242 84.7213 35.7142L85.3852 15.2404C85.4383 13.6175 84.8204 12.0176 83.6908 10.8534C82.6995 9.8298 81.5053 9.21196 80.2466 9.05059C80.0553 7.83106 79.4905 6.67839 78.619 5.777C77.4917 4.61511 75.9172 3.95117 74.2827 3.95117L13.3917 4.08719C10.0789 4.09641 7.38396 6.79596 7.38396 10.1087V30.8453C7.38396 32.4452 8.03637 34.0082 9.17291 35.1286C10.072 36.0162 11.197 36.5787 12.518 36.7839C12.707 38.0702 13.3133 39.2805 14.2401 40.1981C15.3835 41.33 17.041 41.9985 18.5441 41.9386L27.4543 41.8349L25.9742 43.2596C24.7893 44.403 24.1185 46.0006 24.1323 47.6443L24.266 64.7454C24.266 66.3845 24.9461 67.9728 26.1333 69.1071C26.3431 69.3076 26.569 69.4921 26.8065 69.6604C26.5137 69.7549 26.2301 69.8747 25.9512 70.0154L7.47157 79.4558C4.93338 80.7514 3.64469 83.6861 4.40776 86.4317C5.95464 91.9853 8.2231 96.6651 11.1578 100.342ZM42.4966 75.6404C44.5899 75.6127 46.6071 75.8156 48.4836 76.2513C48.4813 76.3896 48.4767 76.5326 48.4698 76.6778C48.4629 76.83 48.4605 76.9867 48.4652 77.1619C48.5067 78.4852 48.1424 78.7872 47.9626 78.9371C47.0612 79.6909 45.5697 80.4102 42.0148 79.2806C41.3117 79.0569 40.6293 78.7987 39.9861 78.5152C39.7763 78.4207 39.5665 78.3238 39.3568 78.2224C38.9695 77.2588 38.3401 76.4058 37.5355 75.758C38.9741 75.7096 40.627 75.6704 42.4966 75.6404Z" fill="black"/>
<path d="M7.20628 96.3933C8.78314 98.369 10.5836 100.192 12.5593 101.813C15.4064 105.301 18.7169 108.123 22.4031 110.2C26.0986 112.284 30.1859 113.778 34.55 114.647C38.6604 115.468 42.9529 115.933 47.2593 116.023C47.7319 116.042 48.2045 116.051 48.6771 116.051C53.5022 116.051 58.2074 115.069 62.6636 113.132C67.3365 111.099 71.5438 108.386 75.1632 105.073C78.8241 101.719 81.8095 97.8157 84.0341 93.4701C86.3694 88.9032 87.5544 84.1796 87.5544 79.426C87.5544 75.5207 87.008 71.597 85.9337 67.7655C84.8133 63.7612 83.0267 60.0565 80.6199 56.7437C79.0546 54.5882 77.1481 52.6171 74.9511 50.8812C73.3973 48.8894 71.583 47.0935 69.5243 45.5144L79.0523 35.7789C80.1104 34.7 80.719 33.273 80.7675 31.763L81.4337 11.2893C81.4867 9.6663 80.8689 8.06639 79.7393 6.9022C78.748 5.87862 77.5538 5.25849 76.2951 5.09942C76.1038 3.87989 75.5389 2.72722 74.6675 1.82583C73.5402 0.663939 71.9657 0 70.3312 0L9.44247 0.136015C6.12969 0.145237 3.43474 2.84479 3.43474 6.15987V26.8964C3.43474 28.4963 4.08715 30.0594 5.22369 31.1798C6.12277 32.0673 7.24777 32.6298 8.56873 32.835C8.75777 34.1214 9.36408 35.3317 10.2908 36.2492C11.4343 37.3811 13.0918 38.0497 14.5949 37.9897L23.5051 37.886L22.025 39.3107C20.8401 40.4541 20.1692 42.0518 20.1831 43.6955L20.3168 60.7965C20.3168 62.4356 20.9968 64.024 22.1841 65.1582C22.3939 65.3588 22.6198 65.5432 22.8573 65.7115C22.5645 65.806 22.2809 65.9259 22.002 66.0665L3.52235 75.5069C0.984165 76.8025 -0.304528 79.7372 0.458541 82.4828C2.00312 88.0341 4.27389 92.714 7.20628 96.3933ZM38.5451 71.6892C40.6384 71.6616 42.6555 71.8644 44.5321 72.3002C44.5298 72.4385 44.5252 72.5814 44.5182 72.7266C44.5113 72.8788 44.509 73.0356 44.5136 73.2108C44.5551 74.534 44.1932 74.836 44.0111 74.9859C43.1097 75.7397 41.6181 76.459 38.0656 75.3294C37.3625 75.1058 36.6801 74.8476 36.0369 74.564C35.8271 74.4695 35.6173 74.3727 35.4075 74.2712C35.0226 73.3076 34.3909 72.4546 33.5863 71.8068C35.0225 71.7584 36.6755 71.7192 38.5451 71.6892Z" fill="black"/>
<path d="M14.5066 99.8672C17.1761 103.189 20.2837 105.861 23.7464 107.814C27.1836 109.75 30.999 111.147 35.0841 111.961C39.0354 112.749 43.185 113.197 47.3646 113.287C47.8026 113.303 48.2383 113.312 48.674 113.312C53.1234 113.312 57.4528 112.408 61.5678 110.622C65.9618 108.711 69.9132 106.165 73.3089 103.056C76.73 99.9226 79.5172 96.2778 81.592 92.225C83.7268 88.05 84.8103 83.746 84.8103 79.4281C84.8103 75.7741 84.2985 72.0971 83.2911 68.5054C82.2606 64.8191 80.6145 61.4026 78.3991 58.3549C76.9168 56.3124 75.0979 54.4566 72.9885 52.829C70.9321 50.1203 68.3478 47.8057 65.2886 45.9291L77.092 33.8676C77.666 33.282 78.0003 32.4982 78.0257 31.6775L78.6919 11.2038C78.7219 10.3139 78.3876 9.44941 77.7675 8.81083C77.145 8.16994 76.3474 7.72501 75.4022 7.81261L73.5671 7.81722L73.6225 6.13432C73.6524 5.24446 73.3181 4.37996 72.698 3.73907C72.0779 3.10049 71.2295 2.74316 70.3397 2.74316H70.3327L9.44634 2.87457C7.63434 2.87918 6.16813 4.34768 6.16813 6.15968V26.8962C6.16813 27.7723 6.51855 28.616 7.1433 29.2315C7.76805 29.8494 8.57722 30.1583 9.49013 30.1814L11.2376 30.1629V31.968C11.2376 32.844 11.588 33.6878 12.2127 34.3033C12.8375 34.9211 13.7642 35.2738 14.5596 35.2531L30.3765 35.071L23.9239 41.2816C23.2738 41.9086 22.9095 42.7731 22.9188 43.6745L23.0525 60.7963C23.0525 61.6954 23.4213 62.5553 24.0691 63.1754C24.7192 63.7932 25.5906 64.116 26.492 64.0768C26.9946 64.0537 27.5341 64.033 28.1081 64.0099L28.1242 65.8888C28.1311 66.781 28.5023 67.6339 29.1501 68.2472C29.8002 68.8604 30.6716 69.1785 31.5615 69.1439C33.3965 69.061 35.7111 68.9941 38.5098 68.9503C41.0157 68.9157 43.4709 69.1877 45.7486 69.7802C46.1958 69.8932 46.6361 70.0361 47.0764 70.209C47.247 70.9997 47.307 71.8758 47.2563 72.8578C47.2516 72.9454 47.2517 73.0354 47.254 73.1253C47.3277 75.5067 46.4471 76.521 45.7716 77.0835C43.6968 78.8172 41.0019 79.133 37.2418 77.9365C36.4396 77.6829 35.6627 77.3878 34.9319 77.0628C34.3348 76.7977 33.74 76.5049 33.1084 76.1407C33.083 76.0554 33.0646 75.9747 33.0484 75.8917C32.8571 74.8727 32.1978 74.0059 31.271 73.5495C30.667 73.2498 30.0008 73.1506 29.3483 73.2451C28.9403 72.8071 28.6176 72.3691 28.387 71.9403C28.1818 71.5646 28.0481 71.198 27.979 70.8222C27.7876 69.8033 27.1283 68.9342 26.1993 68.4777C25.2702 68.0166 24.1798 68.0258 23.2553 68.4984L4.77571 77.9388C3.38559 78.6489 2.68707 80.2395 3.10434 81.7426C4.54749 86.9366 6.64996 91.2868 9.35182 94.6779C10.8618 96.5844 12.5954 98.325 14.5066 99.8672Z" fill="white"/>
<path d="M56.5348 50.1799C61.0556 50.5349 64.8871 51.6207 68.0339 53.435C71.1784 55.2539 73.7488 57.5362 75.7429 60.2819C77.7371 63.0298 79.201 66.0637 80.13 69.388C81.0614 72.71 81.5271 76.0573 81.5271 79.4231C81.5271 83.2362 80.5726 87.0008 78.6684 90.7239C76.7619 94.447 74.2353 97.7483 71.0908 100.628C67.944 103.509 64.3315 105.833 60.2557 107.606C56.1775 109.376 51.9241 110.174 47.4933 109.999C43.4151 109.909 39.4937 109.487 35.7291 108.733C31.9622 107.984 28.5042 106.718 25.3597 104.946C22.2129 103.175 19.4211 100.759 16.9844 97.7022C14.5453 94.6453 12.6642 90.7239 11.334 85.938L29.8136 76.4977C30.0787 77.9177 30.8095 79.2687 32.0083 80.5551C33.2048 81.8414 34.5995 82.948 36.1948 83.8771C37.7901 84.8084 39.496 85.5623 41.3127 86.1386C43.1293 86.7172 44.7914 87.0008 46.2968 87.0008C48.8673 87.0008 51.085 86.2262 52.9431 84.6747C54.8058 83.1255 55.6888 80.9331 55.6012 78.0953C55.7787 74.6395 54.958 72.0276 53.1414 70.2525C51.3248 68.482 49.1324 67.2625 46.5619 66.5985C43.9915 65.9323 41.2873 65.6233 38.454 65.6671C35.6162 65.7109 33.267 65.7801 31.4066 65.8654L31.2729 48.716L49.0863 31.5665L14.5223 31.9653V11.2265L75.4087 11.0928L74.7447 31.5665L56.5348 50.1799Z" fill="#5C740E"/>
<path d="M51.4645 45.1102C55.9853 45.4629 59.8168 46.551 62.9636 48.3653C66.1081 50.1842 68.6785 52.4665 70.6726 55.2122C72.6668 57.9602 74.1284 60.994 75.0597 64.3183C75.9911 67.6403 76.4568 70.9876 76.4568 74.3534C76.4568 78.1665 75.5023 81.9311 73.5981 85.6542C71.6916 89.3774 69.165 92.6786 66.0205 95.558C62.8737 98.4397 59.2612 100.763 55.1853 102.536C51.1072 104.307 46.8539 105.104 42.423 104.929C38.3448 104.839 34.4257 104.417 30.6588 103.664C26.8919 102.914 23.4339 101.649 20.2894 99.8759C17.1426 98.1054 14.3508 95.6871 11.9141 92.6325C9.47502 89.5756 7.59385 85.6542 6.26367 80.8683L24.7433 71.428C25.0084 72.8481 25.7392 74.199 26.9357 75.4831C28.1322 76.7694 29.5269 77.876 31.1222 78.8051C32.7175 79.7364 34.4234 80.4903 36.2401 81.0666C38.0544 81.6429 39.7188 81.9288 41.2242 81.9288C43.7947 81.9288 46.0124 81.1542 47.8705 79.6004C49.7332 78.0535 50.6162 75.8588 50.5286 73.021C50.7061 69.5652 49.8854 66.951 48.0688 65.1782C46.2522 63.4077 44.0575 62.1882 41.4893 61.5242C38.9189 60.858 36.2147 60.549 33.3814 60.5929C30.5435 60.6367 28.1967 60.7058 26.3363 60.7911L26.2026 43.6417L44.016 26.4922L9.45197 26.891V6.1591L70.3384 6.02539L69.6744 26.4991L51.4645 45.1102Z" fill="#8DC725"/>
<g opacity="0.7">
<path d="M36.2426 81.0713C34.426 80.4949 32.7201 79.7411 31.1248 78.8097C29.5295 77.8807 28.1347 76.7741 26.9383 75.4877C25.7418 74.2013 25.0087 72.8504 24.7459 71.4326L17.5117 75.1281C17.6155 75.248 17.7008 75.3701 17.8114 75.49C19.0079 76.7764 20.4049 77.883 21.9979 78.812C23.5932 79.7434 25.2992 80.4972 27.1158 81.0736C28.9324 81.6499 30.5922 81.9358 32.0999 81.9358C33.6237 81.9358 35.0093 81.6291 36.2841 81.0828C36.2703 81.0759 36.2565 81.0759 36.2426 81.0713Z" fill="#8DC725"/>
<path d="M34.8922 26.4961L9.45508 26.7912V26.8949L34.7816 26.6044L34.8922 26.4961Z" fill="#8DC725"/>
<path d="M26.3398 60.6963V60.7954C26.688 60.7793 27.0729 60.7654 27.4556 60.7493C27.0891 60.7193 26.711 60.7147 26.3398 60.6963Z" fill="#8DC725"/>
<path d="M75.0626 64.3202C74.1335 60.9959 72.6697 57.9598 70.6755 55.2141C68.6814 52.4662 66.1109 50.1839 62.9665 48.3673C59.8197 46.5507 55.9882 45.4648 51.4674 45.1121L69.6796 26.5011L70.3436 6.02734L61.2144 6.04809L60.5505 26.5011L42.3383 45.1121C46.859 45.4648 50.6905 46.553 53.8373 48.3673C56.9818 50.1862 59.5523 52.4685 61.5464 55.2141C63.5405 57.9621 65.0021 60.9959 65.9334 64.3202C66.8648 67.6422 67.3305 70.9896 67.3305 74.3554C67.3305 78.1684 66.3761 81.9331 64.4718 85.6562C62.5653 89.3793 60.0387 92.6806 56.8942 95.5599C53.7474 98.4416 50.1349 100.765 46.0591 102.538C43.5301 103.638 40.9251 104.316 38.2578 104.664C39.6364 104.774 41.0081 104.899 42.4236 104.931C46.8567 105.106 51.1101 104.309 55.1859 102.538C59.2618 100.765 62.8743 98.4393 66.021 95.5599C69.1655 92.6783 71.6899 89.3793 73.5987 85.6562C75.5029 81.9331 76.4573 78.1684 76.4573 74.3554C76.4573 70.9896 75.994 67.6422 75.0626 64.3202Z" fill="#8DC725"/>
</g>
<path d="M61.687 62.4406C63.0403 60.6516 59.6007 56.8962 58.0169 58.9895C56.666 60.7784 60.1033 64.5338 61.687 62.4406Z" fill="#6A9B00"/>
<path d="M69.9776 77.73C70.2404 77.836 70.5055 77.9444 70.7683 78.0527C71.3193 78.1772 71.8288 78.1449 72.299 77.9536C72.684 77.8153 72.9976 77.5847 73.2373 77.262C73.5508 76.9761 73.7745 76.6142 73.9059 76.1716C74.0719 75.7497 74.1318 75.2909 74.088 74.7976C74.1134 74.3503 74.0373 73.8939 73.8598 73.4282C73.7261 73.1516 73.5946 72.8726 73.4609 72.596C73.1313 72.0611 72.7071 71.6393 72.1861 71.3303C71.9233 71.222 71.6582 71.1159 71.3954 71.0076C70.8444 70.8831 70.3326 70.9154 69.8646 71.1067C69.4796 71.245 69.1661 71.4756 68.924 71.796C68.6105 72.0819 68.3869 72.4438 68.2555 72.8888C68.0895 73.3106 68.0272 73.7694 68.0734 74.2627C68.048 74.71 68.1241 75.1664 68.3016 75.6321C68.4353 75.9088 68.5667 76.1877 68.7004 76.4643C69.0324 76.9992 69.4589 77.4211 69.9776 77.73Z" fill="#6A9B00"/>
<path d="M56.652 71.3791C56.8318 71.363 57.0116 71.3469 57.1914 71.3307C57.5349 71.2431 57.8023 71.0794 57.996 70.842C58.1597 70.6576 58.2542 70.4409 58.2796 70.1988C58.3556 69.9544 58.3556 69.6916 58.2819 69.4127C58.2311 69.1337 58.1113 68.8663 57.9245 68.6104C57.7885 68.3591 57.5949 68.1309 57.3436 67.9257C57.1776 67.8128 57.0139 67.6975 56.8479 67.5845C56.4906 67.3863 56.1171 67.2756 55.7298 67.2549C55.55 67.271 55.3702 67.2872 55.1904 67.3033C54.8469 67.3909 54.5795 67.5546 54.3858 67.792C54.2221 67.9765 54.1276 68.1908 54.1023 68.4352C54.0262 68.6796 54.0262 68.9424 54.1 69.2213C54.1507 69.5003 54.2683 69.7677 54.4573 70.0236C54.5933 70.2749 54.787 70.5031 55.0382 70.706C55.2042 70.8189 55.3679 70.9342 55.5339 71.0472C55.8912 71.2477 56.2647 71.3584 56.652 71.3791Z" fill="#6A9B00"/>
<path d="M57.6538 54.409C57.8682 54.4113 58.0826 54.4136 58.297 54.4159L58.8733 54.2684C59.0255 54.1738 59.1753 54.0816 59.3275 53.9871C59.4335 53.8557 59.5396 53.7266 59.6456 53.5952C59.7033 53.4361 59.7586 53.2748 59.8162 53.1157C59.8762 52.8437 59.8508 52.5647 59.7425 52.2788C59.7148 52.0806 59.6318 51.8892 59.4958 51.7048C59.3621 51.4236 59.1546 51.1654 58.878 50.9325C58.8365 50.8887 58.795 50.8449 58.7535 50.8034C58.5275 50.589 58.2601 50.4207 57.9535 50.2986C57.6792 50.1464 57.3841 50.0542 57.0636 50.0196C56.8631 50.0173 56.6602 50.015 56.4596 50.0127C56.0631 50.0634 55.7404 50.1971 55.4914 50.4161C55.4614 50.4507 55.4315 50.4853 55.4038 50.5199C55.2977 50.6513 55.1917 50.7827 55.0857 50.9118C55.028 51.0709 54.9727 51.2322 54.9151 51.3913C54.8551 51.6656 54.8782 51.9423 54.9888 52.2281C55.0165 52.4264 55.0995 52.6177 55.2355 52.8045C55.3162 52.9958 55.4476 53.1733 55.6274 53.3324C55.7542 53.503 55.9225 53.6528 56.1277 53.775C56.2914 53.9203 56.485 54.0355 56.7063 54.1162C56.9991 54.273 57.3149 54.3721 57.6538 54.409Z" fill="#6A9B00"/>
<path d="M69.002 57.2953C69.3778 56.4331 67.5589 55.179 67.1185 56.1887C66.7451 57.0509 68.564 58.305 69.002 57.2953Z" fill="#6A9B00"/>
<path d="M36.6068 49.2131C36.4546 48.2932 34.1977 48.0673 34.3752 49.1439C34.5273 50.0614 36.7843 50.2897 36.6068 49.2131Z" fill="#6A9B00"/>
<path d="M63.2595 71.1713C63.3171 71.1851 63.3724 71.1989 63.4301 71.2151C63.6998 71.2819 63.9257 71.1851 64.0502 71.0076C64.1171 70.9062 64.154 70.7909 64.1563 70.6595C64.1609 70.5281 64.1309 70.3967 64.0687 70.2607C64.0433 70.1984 64.0202 70.1362 63.9949 70.0762C63.8865 69.8065 63.5984 69.5483 63.3033 69.4722C62.9944 69.3916 62.7316 69.5068 62.5909 69.7097C62.4365 69.9333 62.4272 70.2653 62.5702 70.5673C62.6947 70.837 62.9505 71.0952 63.2595 71.1713Z" fill="#6A9B00"/>
<path d="M61.1927 81.6284C61.3103 81.6906 61.4279 81.7529 61.5478 81.8174C61.8013 81.9027 62.0434 81.9096 62.2739 81.8428C62.463 81.7967 62.6221 81.7021 62.7535 81.5615C62.9171 81.4416 63.0416 81.2803 63.1292 81.0797C63.2307 80.8884 63.286 80.6763 63.2906 80.4411C63.3275 80.2313 63.3159 80.0146 63.2583 79.7864C63.2122 79.6504 63.1638 79.5121 63.1177 79.3761C62.9909 79.1086 62.8157 78.8896 62.5875 78.7213C62.4699 78.6591 62.35 78.5968 62.2324 78.5323C61.9812 78.447 61.7391 78.4401 61.5086 78.5069C61.3195 78.553 61.1605 78.6476 61.0291 78.7882C60.8654 78.9081 60.7409 79.0671 60.6533 79.27C60.5518 79.4613 60.4988 79.6734 60.4919 79.9086C60.455 80.1184 60.4666 80.3351 60.5242 80.5633C60.5703 80.6993 60.6187 80.8376 60.6648 80.9737C60.787 81.2411 60.9645 81.4601 61.1927 81.6284Z" fill="#6A9B00"/>
<path d="M42.1444 48.3185C42.2458 48.2332 42.3449 48.1479 42.4464 48.0649C42.6101 47.8689 42.6931 47.6569 42.6931 47.4332C42.7023 47.2534 42.6539 47.0828 42.5478 46.9261C42.4741 46.7462 42.345 46.5872 42.1628 46.4512C41.9969 46.3036 41.794 46.193 41.5542 46.1169C41.349 46.0224 41.1208 45.9647 40.8695 45.9463C40.7128 45.9463 40.5583 45.9463 40.4039 45.9463C40.0903 45.9763 39.8114 46.0662 39.567 46.2137C39.4656 46.299 39.3641 46.3843 39.265 46.4696C39.1013 46.6656 39.0206 46.8753 39.0206 47.099C39.0114 47.2788 39.0598 47.4494 39.1659 47.6061C39.2397 47.786 39.3688 47.945 39.5509 48.081C39.7169 48.2286 39.9197 48.3392 40.1618 48.4153C40.367 48.5098 40.5952 48.5675 40.8488 48.5859C41.0032 48.5859 41.16 48.5859 41.3145 48.5859C41.6211 48.5559 41.9 48.466 42.1444 48.3185Z" fill="#6A9B00"/>
<path d="M48.3246 54.2205C48.7165 54.2504 49.0669 54.1928 49.3781 54.0429C49.5556 53.9323 49.7309 53.8193 49.9084 53.7087L50.2795 53.2453C50.4432 52.9733 50.5077 52.6782 50.4778 52.3623C50.5123 52.0327 50.4455 51.6984 50.2795 51.3572C50.2657 51.318 50.2588 51.2742 50.2357 51.235C50.0352 50.7809 49.7216 50.3636 49.2928 49.9855L48.6381 49.5199C48.177 49.2501 47.6791 49.0818 47.1442 49.0081C46.7339 48.9458 46.365 48.9758 46.0377 49.098C45.6734 49.1602 45.3807 49.3032 45.157 49.5268C44.9035 49.7389 44.7467 49.9901 44.6821 50.2829C44.5484 50.5711 44.5139 50.8823 44.5784 51.2166C44.6499 51.6869 44.8504 52.141 45.1801 52.579C45.3622 52.8188 45.5928 53.0378 45.8233 53.2545C46.04 53.409 46.2544 53.5611 46.4711 53.7156C46.81 53.9277 47.1742 54.066 47.5684 54.1328C47.822 54.2205 48.0733 54.2481 48.3246 54.2205Z" fill="#6A9B00"/>
<path d="M69.722 67.1296L70.024 67.2702C70.19 67.3324 70.3467 67.3509 70.4966 67.3278C70.6049 67.3347 70.6995 67.3163 70.7778 67.2725C70.9208 67.2333 71.0314 67.1641 71.1121 67.0604C71.1398 67.0281 71.1697 66.9959 71.1974 66.9636C71.2527 66.876 71.3081 66.7884 71.3634 66.7008C71.4372 66.5463 71.4602 66.3803 71.4349 66.2005C71.4464 66.0806 71.4233 65.9585 71.368 65.8317C71.345 65.7095 71.2942 65.5896 71.2089 65.4743C71.126 65.3037 71.0038 65.147 70.8401 65.0063C70.734 64.9257 70.6257 64.8473 70.5196 64.7666C70.3998 64.7113 70.2822 64.6559 70.1623 64.6006C69.9664 64.5291 69.7819 64.5061 69.6044 64.5314C69.4753 64.5222 69.3647 64.5453 69.2701 64.5983C69.1549 64.6237 69.0627 64.6744 68.9958 64.7504C68.8575 64.8404 68.7607 64.9602 68.7076 65.1101C68.68 65.2161 68.6546 65.3222 68.627 65.4305C68.6316 65.5527 68.6385 65.6726 68.6431 65.7948L68.7607 66.1659C68.8321 66.3434 68.9428 66.5071 69.0949 66.657C69.2148 66.8091 69.367 66.9382 69.5491 67.0443C69.609 67.0742 69.6667 67.1019 69.722 67.1296Z" fill="#6A9B00"/>
<path d="M68.982 84.8601L69.1296 85.1414C69.2195 85.282 69.3325 85.3857 69.4662 85.4526C69.5468 85.5194 69.6345 85.5563 69.7267 85.5655C69.865 85.614 69.9987 85.6209 70.1301 85.584C70.1739 85.5748 70.2177 85.5656 70.2615 85.5563C70.3629 85.5171 70.4644 85.478 70.5658 85.4411C70.7249 85.3604 70.854 85.2405 70.9531 85.0814C71.0407 84.9915 71.103 84.8832 71.1422 84.7518C71.2044 84.6434 71.2413 84.5189 71.2505 84.3806C71.2966 84.1985 71.3012 84.0048 71.2666 83.802C71.2344 83.6798 71.2021 83.5553 71.1698 83.4331C71.1122 83.3225 71.0522 83.2118 70.9946 83.1011C70.8863 82.9328 70.7549 82.8107 70.5958 82.7323C70.499 82.6539 70.3975 82.6078 70.2869 82.5986C70.1785 82.5548 70.0725 82.5432 69.9687 82.5663C69.8004 82.5617 69.646 82.6032 69.5054 82.6908C69.4132 82.76 69.3232 82.8314 69.231 82.9006C69.1549 82.9997 69.0812 83.0988 69.0051 83.2003L68.8529 83.5622C68.793 83.7443 68.7746 83.9357 68.7953 84.1408C68.7907 84.3299 68.8253 84.5166 68.9014 84.7034C68.929 84.7541 68.9544 84.8071 68.982 84.8601Z" fill="#6A9B00"/>
<path d="M51.88 60.2256C52.371 59.0983 49.9919 57.4569 49.4179 58.7779C48.9268 59.9052 51.3059 61.5443 51.88 60.2256Z" fill="#6A9B00"/>
<path d="M110.366 49.1875L110.606 49.2336C110.984 51.7151 112.905 53.781 115.442 54.2634L137.142 58.393C138.783 58.6977 140.498 58.3145 141.839 57.3243C143.185 56.334 144.067 54.8128 144.256 53.1508C144.492 51.0964 145.041 49.4506 145.893 48.2641C146.754 47.0638 147.684 46.2444 148.737 45.7527C149.526 45.3834 150.343 45.2241 151.213 45.2333C151.068 46.0412 150.754 47.1515 150.124 48.6542C149.261 50.7133 147.352 53.3724 144.6 56.3455C141.59 59.6003 137.244 63.3282 131.676 67.4301C126.002 71.6104 118.505 76.2548 109.396 81.2361C107.388 82.3349 106.16 84.5231 106.266 86.8153L107.335 109.271C107.512 112.135 109.692 114.441 112.464 114.857C112.895 117.784 115.409 120 118.442 120L191.521 119.868C193.241 119.863 194.88 119.125 196.02 117.837C197.16 116.551 197.701 114.834 197.497 113.125L194.702 89.5645C194.377 86.8291 192.253 84.7032 189.601 84.3085C189.162 81.3654 186.63 79.1678 183.636 79.1678H178.759C180.035 77.7713 181.282 76.3517 182.484 74.9205C185.568 71.2503 188.207 67.2154 190.328 62.9289C192.657 58.2176 193.783 52.8069 193.677 46.7937C193.472 41.2215 192.403 36.0462 190.499 31.4065C188.546 26.6606 185.817 22.5726 182.392 19.2486C181.656 18.5354 180.873 17.8521 180.012 17.1688C179.089 16.0124 178.228 15.0544 177.318 14.1727C175.596 12.506 173.683 11.0172 171.635 9.74531C169.608 8.48266 167.388 7.40006 165.04 6.52983C160.438 4.82167 155.366 3.95605 149.965 3.95605C148.894 3.95605 147.839 4.00222 146.842 4.06224C142.345 4.3023 138.012 5.0502 133.968 6.27822C128.751 7.86403 124.038 10.2924 119.954 13.4917C115.788 16.7649 112.374 20.9175 109.809 25.8343C107.238 30.7648 105.779 36.531 105.472 42.9781C105.327 45.9604 107.432 48.6289 110.366 49.1875Z" fill="black"/>
<path d="M106.409 45.2314L106.649 45.2776C107.027 47.759 108.946 49.8273 111.485 50.3074L133.185 54.437C134.826 54.7417 136.541 54.3585 137.883 53.3682C139.228 52.3779 140.11 50.8568 140.299 49.1948C140.535 47.1404 141.084 45.4946 141.936 44.3081C142.797 43.1078 143.727 42.2883 144.78 41.7966C145.569 41.4273 146.386 41.268 147.257 41.2773C147.111 42.0852 146.797 43.1955 146.167 44.6982C145.304 46.7572 143.395 49.4164 140.643 52.3872C137.636 55.6419 133.287 59.3698 127.719 63.4717C122.045 67.6521 114.548 72.2964 105.439 77.2777C103.431 78.3765 102.203 80.5648 102.309 82.8569L103.378 105.312C103.556 108.177 105.735 110.481 108.507 110.898C108.939 113.825 111.452 116.041 114.485 116.041L187.567 115.907C189.286 115.903 190.925 115.164 192.066 113.878C193.208 112.593 193.746 110.875 193.543 109.167L190.748 85.6061C190.422 82.8708 188.298 80.7448 185.646 80.3501C185.208 77.407 182.675 75.2095 179.681 75.2095H174.802C176.078 73.813 177.325 72.3933 178.527 70.9622C181.611 67.292 184.25 63.257 186.371 58.9705C188.7 54.2592 189.827 48.8485 189.718 42.8354C189.513 37.2631 188.444 32.0879 186.539 27.4482C184.587 22.7023 181.858 18.6142 178.433 15.2903C177.696 14.577 176.914 13.8937 176.053 13.2105C175.129 12.054 174.268 11.0961 173.359 10.2143C171.637 8.54769 169.723 7.05882 167.676 5.78694C165.649 4.52429 163.429 3.4417 161.081 2.57377C156.478 0.865617 151.405 0 146.005 0C144.934 0 143.88 0.0461663 142.882 0.106182C138.386 0.346247 134.053 1.09414 130.009 2.32216C124.792 3.90797 120.079 6.33632 115.995 9.53564C111.829 12.8065 108.415 16.9592 105.85 21.8759C103.279 26.8064 101.822 32.5726 101.513 39.0197C101.37 42.0044 103.475 44.6751 106.409 45.2314Z" fill="black"/>
<path d="M190.013 112.059C190.637 111.358 190.93 110.42 190.819 109.49L188.024 85.9292C187.828 84.2741 186.424 83.0276 184.757 83.0276H183.204L182.945 80.8509C182.749 79.1958 181.346 77.9494 179.679 77.9494H168.378C171.208 75.1332 173.908 72.1924 176.427 69.1962C179.37 65.6945 181.888 61.8466 183.913 57.7539C186.046 53.4397 187.077 48.4745 186.978 42.9345C186.786 37.6854 185.785 32.8264 184.005 28.4914C182.198 24.0987 179.681 20.3223 176.526 17.2615C175.792 16.5528 174.996 15.8626 174.102 15.1678C173.177 13.9929 172.327 13.0396 171.45 12.1878C169.869 10.6574 168.108 9.28626 166.224 8.11594C164.347 6.94563 162.293 5.94843 160.123 5.14514C155.823 3.5501 151.072 2.74219 146.001 2.74219C144.988 2.74219 143.988 2.78605 143.023 2.84606C138.748 3.07458 134.637 3.78093 130.801 4.94894C125.909 6.4378 121.496 8.70687 117.682 11.6938C113.825 14.7223 110.661 18.5749 108.276 23.1477C105.889 27.7228 104.534 33.1081 104.246 39.1535C104.17 40.7924 105.308 42.2351 106.917 42.5421L109.396 43.013C109.366 43.417 109.343 43.8279 109.324 44.2341C109.248 45.8707 110.386 47.3134 111.995 47.6204L133.691 51.7477C134.589 51.9162 135.519 51.7061 136.255 51.166C136.992 50.6235 137.469 49.7995 137.573 48.89C137.862 46.367 138.58 44.2872 139.706 42.713C140.849 41.1248 142.128 40.0122 143.619 39.3174C145.061 38.6457 146.573 38.4149 148.228 38.6041C148.822 38.6757 149.415 38.805 150.015 39.0012C150.064 39.3313 150.091 39.6821 150.1 40.0515C150.133 41.5288 149.657 43.4493 148.69 45.7599C147.688 48.1467 145.657 51.0021 142.652 54.2499C139.526 57.6293 135.05 61.4749 129.339 65.6807C123.569 69.9326 115.97 74.6439 106.75 79.6829C105.647 80.2877 104.984 81.4695 105.042 82.7253L106.111 105.141C106.219 106.875 107.657 108.225 109.393 108.225H109.4L111.09 108.221L111.182 110.166C111.265 111.921 112.713 113.299 114.469 113.299H114.476L187.555 113.165C188.497 113.163 189.39 112.761 190.013 112.059Z" fill="white"/>
<path d="M187.553 109.875L114.474 110.009L113.41 87.6439C122.814 82.501 130.468 77.7505 136.371 73.4016C142.271 69.0527 146.864 65.1055 150.147 61.553C153.429 58.0075 155.648 54.8543 156.802 52.1028C157.954 49.3513 158.51 47.0014 158.466 45.0486C158.42 43.0958 158 41.5215 157.201 40.3212C156.402 39.1232 155.691 38.3037 155.073 37.8605C153.03 36.4409 150.881 35.5961 148.616 35.3306C146.354 35.0628 144.224 35.3952 142.227 36.3278C140.23 37.2603 138.501 38.7469 137.036 40.7851C135.572 42.828 134.66 45.4018 134.307 48.5065L112.611 44.3792C112.877 38.7885 114.096 33.911 116.27 29.7376C118.444 25.5664 121.284 22.1063 124.79 19.3548C128.294 16.6056 132.31 14.5419 136.837 13.1639C141.361 11.7904 146.11 11.1025 151.079 11.1025C155.781 11.1025 160.107 11.8343 164.057 13.3001C168.004 14.7635 171.399 16.8733 174.239 19.6225C177.078 22.374 179.317 25.7465 180.961 29.7399C182.602 33.7332 183.509 38.1698 183.689 43.0519C183.777 48.0217 182.867 52.4352 180.961 56.2947C179.052 60.1542 176.702 63.7506 173.904 67.0768C171.109 70.4054 168.115 73.6232 164.92 76.7279C161.725 79.8326 158.884 83.0273 156.4 86.312H184.753L187.553 109.875Z" fill="#FF6A09"/>
<path d="M182.478 104.799L109.399 104.933L108.335 82.5674C117.741 77.4245 125.395 72.674 131.295 68.3251C137.195 63.9762 141.789 60.029 145.071 56.4765C148.354 52.9286 150.572 49.7778 151.726 47.0263C152.878 44.2748 153.434 41.9249 153.391 39.9721C153.344 38.0192 152.924 36.445 152.126 35.247C151.327 34.0489 150.616 33.2295 149.995 32.784C147.952 31.3644 145.803 30.5195 143.539 30.2541C141.274 29.9863 139.146 30.3187 137.149 31.2513C135.153 32.1838 133.424 33.6704 131.958 35.7086C130.492 37.7538 129.583 40.3252 129.227 43.4299L107.531 39.3027C107.797 33.7119 109.015 28.8345 111.19 24.661C113.364 20.4899 116.201 17.0297 119.71 14.2782C123.214 11.529 127.23 9.4654 131.757 8.08964C136.281 6.7162 141.03 6.02832 145.999 6.02832C150.701 6.02832 155.027 6.76006 158.977 8.22584C162.924 9.68931 166.317 11.7991 169.159 14.5483C171.998 17.2998 174.239 20.6723 175.883 24.6656C177.524 28.659 178.431 33.0956 178.611 37.9777C178.699 42.9475 177.789 47.361 175.883 51.2205C173.974 55.08 171.622 58.6763 168.829 62.0026C166.033 65.3312 163.039 68.549 159.845 71.6537C156.65 74.7584 153.808 77.9531 151.325 81.2378H179.682L182.478 104.799Z" fill="#FFB31A"/>
<g opacity="0.7">
<path d="M149.844 8.22584C153.791 9.68931 157.184 11.7991 160.026 14.5483C162.865 17.2998 165.106 20.6723 166.747 24.6656C168.389 28.659 169.298 33.0956 169.476 37.9777C169.564 42.9475 168.654 47.361 166.747 51.2205C164.838 55.08 162.489 58.6763 159.693 62.0026C156.898 65.3312 153.904 68.549 150.709 71.6537C147.515 74.7584 144.673 77.9531 142.189 81.2378H151.33C153.814 77.9531 156.656 74.7584 159.85 71.6537C163.045 68.549 166.039 65.3312 168.834 62.0026C171.63 58.6763 173.979 55.08 175.888 51.2205C177.795 47.361 178.705 42.9475 178.617 37.9777C178.439 33.0956 177.53 28.659 175.888 24.6656C174.245 20.6723 172.006 17.2998 169.164 14.5483C166.323 11.7991 162.93 9.68931 158.982 8.22584C155.033 6.76006 150.707 6.02832 146.005 6.02832C144.38 6.02832 142.789 6.12989 141.213 6.27531C144.26 6.59386 147.145 7.22634 149.844 8.22584Z" fill="#FFB31A"/>
<path d="M128.014 31.2529C126.017 32.1855 124.288 33.672 122.822 35.7103C121.636 37.3676 120.83 39.392 120.373 41.7465L129.232 43.4316C129.588 40.3269 130.497 37.7554 131.961 35.7103C133.427 33.672 135.155 32.1855 137.152 31.2529C137.314 31.179 137.48 31.1306 137.642 31.0636C136.587 30.6574 135.509 30.3827 134.401 30.2534C132.139 29.988 130.01 30.3204 128.014 31.2529Z" fill="#FFB31A"/>
<path d="M179.682 81.2383H170.541L173.337 104.799L109.396 104.915L109.399 104.933L182.478 104.799L179.682 81.2383Z" fill="#FFB31A"/>
</g>
<path d="M164.506 25.7471C165.861 23.8058 162.417 19.7317 160.832 22.003C159.479 23.942 162.923 28.0185 164.506 25.7471Z" fill="#DB6800"/>
<path d="M172.808 42.334C173.071 42.4494 173.336 42.5672 173.6 42.6826C174.151 42.8188 174.661 42.7818 175.132 42.5741C175.518 42.424 175.832 42.1747 176.072 41.8262C176.386 41.5169 176.61 41.1221 176.741 40.642C176.907 40.1827 176.967 39.6864 176.924 39.1509C176.947 38.6661 176.873 38.1698 176.695 37.6666C176.563 37.3665 176.43 37.0641 176.296 36.7641C175.966 36.1847 175.541 35.7276 175.019 35.3929C174.756 35.2775 174.491 35.1598 174.227 35.0444C173.676 34.9082 173.163 34.9451 172.695 35.1528C172.309 35.3029 171.995 35.5522 171.755 35.9007C171.441 36.2101 171.217 36.6048 171.086 37.0849C170.92 37.5443 170.857 38.0405 170.903 38.5761C170.878 39.0608 170.954 39.5571 171.132 40.0603C171.266 40.3627 171.4 40.6628 171.531 40.9629C171.864 41.54 172.288 41.997 172.808 42.334Z" fill="#DB6800"/>
<path d="M159.466 35.4436C159.646 35.4251 159.826 35.409 160.006 35.3905C160.35 35.2959 160.618 35.1181 160.812 34.8619C160.976 34.6611 161.072 34.4279 161.096 34.1625C161.172 33.897 161.174 33.6131 161.098 33.3084C161.047 33.006 160.929 32.7152 160.74 32.4382C160.604 32.1658 160.41 31.9188 160.158 31.6972C159.994 31.5726 159.828 31.4502 159.662 31.3256C159.304 31.1109 158.93 30.9909 158.543 30.9678C158.363 30.9839 158.182 31.0024 158.002 31.0209C157.658 31.1155 157.391 31.2932 157.197 31.5495C157.033 31.7503 156.938 31.9834 156.913 32.2489C156.837 32.5143 156.837 32.7983 156.911 33.103C156.961 33.4054 157.079 33.6962 157.268 33.9732C157.405 34.2456 157.598 34.4926 157.85 34.7142C158.016 34.8365 158.18 34.9612 158.346 35.0858C158.704 35.3005 159.078 35.4205 159.466 35.4436Z" fill="#DB6800"/>
<path d="M160.472 17.0333C160.687 17.0356 160.901 17.0379 161.116 17.0402L161.693 16.8809C161.845 16.7794 161.995 16.6778 162.148 16.5762C162.254 16.4354 162.36 16.2923 162.466 16.1515C162.524 15.9784 162.579 15.8052 162.637 15.6321C162.697 15.3367 162.672 15.0343 162.563 14.725C162.535 14.5103 162.452 14.3025 162.316 14.1017C162.182 13.797 161.975 13.5177 161.698 13.2638C161.656 13.2153 161.614 13.1692 161.573 13.123C161.347 12.8898 161.081 12.7075 160.772 12.5759C160.497 12.412 160.202 12.3105 159.881 12.2735C159.68 12.2712 159.477 12.2689 159.276 12.2666C158.879 12.3197 158.556 12.4674 158.307 12.7029C158.277 12.7398 158.247 12.779 158.219 12.816C158.113 12.9568 158.007 13.0999 157.9 13.2407C157.845 13.4138 157.787 13.587 157.73 13.7601C157.67 14.0555 157.693 14.3579 157.803 14.6672C157.831 14.8819 157.914 15.0897 158.05 15.2905C158.134 15.4982 158.263 15.6898 158.443 15.863C158.57 16.0499 158.738 16.2092 158.944 16.3431C159.108 16.5024 159.302 16.6247 159.523 16.7124C159.814 16.8855 160.13 16.994 160.472 17.0333Z" fill="#DB6800"/>
<path d="M171.833 20.1654C172.209 19.2305 170.388 17.8686 169.947 18.9651C169.571 19.8999 171.392 21.2619 171.833 20.1654Z" fill="#DB6800"/>
<path d="M139.397 11.3956C139.244 10.3984 136.985 10.1537 137.162 11.3194C137.312 12.3166 139.574 12.5636 139.397 11.3956Z" fill="#DB6800"/>
<path d="M166.081 35.2197C166.139 35.2359 166.194 35.2497 166.252 35.2659C166.522 35.3397 166.748 35.2335 166.873 35.042C166.939 34.9335 166.976 34.8065 166.979 34.6657C166.983 34.5249 166.953 34.3795 166.891 34.234C166.866 34.1671 166.84 34.1002 166.817 34.0332C166.709 33.7401 166.42 33.4608 166.125 33.3777C165.815 33.2899 165.552 33.4169 165.411 33.6339C165.257 33.8786 165.248 34.2364 165.391 34.5641C165.515 34.855 165.772 35.1343 166.081 35.2197Z" fill="#DB6800"/>
<path d="M164.013 46.5625C164.131 46.6317 164.249 46.6987 164.366 46.7679C164.62 46.8603 164.863 46.8695 165.093 46.7956C165.283 46.7449 165.444 46.6433 165.574 46.4909C165.737 46.3617 165.862 46.1862 165.95 45.9693C166.051 45.7615 166.107 45.5307 166.111 45.2768C166.148 45.0506 166.137 44.8128 166.079 44.5658C166.031 44.4181 165.984 44.268 165.936 44.1203C165.809 43.8294 165.634 43.594 165.405 43.4093C165.287 43.3401 165.167 43.2731 165.05 43.2039C164.798 43.1116 164.556 43.1023 164.322 43.1762C164.133 43.227 163.974 43.3285 163.842 43.4809C163.678 43.6102 163.554 43.7856 163.466 44.0026C163.364 44.2103 163.311 44.4412 163.304 44.6951C163.268 44.9213 163.279 45.159 163.337 45.406C163.383 45.5538 163.431 45.7038 163.478 45.8515C163.609 46.1424 163.785 46.3778 164.013 46.5625Z" fill="#DB6800"/>
<path d="M144.94 10.4236C145.041 10.3313 145.141 10.239 145.242 10.149C145.406 9.93428 145.489 9.70807 145.489 9.4657C145.498 9.26949 145.45 9.08713 145.344 8.91632C145.27 8.72242 145.141 8.54929 144.958 8.40156C144.792 8.24229 144.589 8.11995 144.349 8.03916C144.143 7.93528 143.915 7.87527 143.661 7.85449C143.506 7.85449 143.349 7.85449 143.195 7.85449C142.881 7.88681 142.601 7.98376 142.357 8.14534C142.255 8.23767 142.156 8.33001 142.054 8.42234C141.89 8.63701 141.81 8.86322 141.81 9.1056C141.8 9.3018 141.849 9.48416 141.955 9.65498C142.029 9.84887 142.158 10.022 142.341 10.1697C142.507 10.329 142.712 10.4513 142.952 10.5344C143.158 10.6383 143.386 10.6983 143.638 10.7191C143.793 10.7191 143.95 10.7191 144.104 10.7191C144.416 10.6822 144.695 10.5852 144.94 10.4236Z" fill="#DB6800"/>
<path d="M149.511 17.0473C149.904 17.0819 150.254 17.0173 150.566 16.8534C150.744 16.7333 150.921 16.611 151.097 16.491L151.469 15.9878C151.632 15.6923 151.697 15.3737 151.667 15.0298C151.702 14.672 151.637 14.3096 151.469 13.9403C151.455 13.8964 151.448 13.8503 151.425 13.8087C151.224 13.3147 150.91 12.8646 150.481 12.4537L149.825 11.9482C149.363 11.6574 148.865 11.4727 148.329 11.3942C147.918 11.3273 147.549 11.3596 147.221 11.4912C146.857 11.5604 146.563 11.7151 146.339 11.9574C146.088 12.186 145.929 12.4607 145.864 12.7769C145.73 13.0885 145.695 13.4255 145.76 13.7879C145.832 14.2981 146.032 14.792 146.363 15.2676C146.545 15.5261 146.776 15.7662 147.007 16.0016C147.224 16.1678 147.438 16.334 147.655 16.5002C147.995 16.731 148.359 16.8811 148.754 16.9526C149.01 17.045 149.262 17.0773 149.511 17.0473Z" fill="#DB6800"/>
<path d="M172.555 30.8329L172.858 30.9853C173.024 31.0522 173.181 31.073 173.331 31.0476C173.44 31.0568 173.534 31.036 173.613 30.9876C173.756 30.946 173.867 30.8698 173.947 30.759C173.975 30.7244 174.005 30.6898 174.033 30.6552C174.088 30.5605 174.144 30.4659 174.199 30.3712C174.273 30.205 174.296 30.0227 174.27 29.8265C174.282 29.6972 174.259 29.5633 174.204 29.4271C174.18 29.2933 174.13 29.1663 174.044 29.0394C173.961 28.8547 173.839 28.6839 173.675 28.5315C173.569 28.4438 173.46 28.3584 173.354 28.273C173.236 28.213 173.116 28.153 172.996 28.0929C172.8 28.0145 172.615 27.9891 172.438 28.0191C172.308 28.0098 172.198 28.0329 172.103 28.0906C171.988 28.1183 171.895 28.1737 171.828 28.2568C171.69 28.3538 171.593 28.4854 171.54 28.6469C171.512 28.7624 171.487 28.8778 171.459 28.9932C171.464 29.1248 171.471 29.2563 171.475 29.3879L171.591 29.7919C171.662 29.9858 171.773 30.1635 171.925 30.3251C172.045 30.4913 172.198 30.6321 172.38 30.7452C172.442 30.7729 172.498 30.8029 172.555 30.8329Z" fill="#DB6800"/>
<path d="M171.813 50.0688L171.961 50.3735C172.051 50.5259 172.164 50.639 172.298 50.7105C172.379 50.7821 172.466 50.8237 172.559 50.8329C172.697 50.886 172.831 50.8929 172.965 50.8537C173.009 50.8444 173.053 50.8329 173.096 50.8237C173.198 50.7821 173.3 50.7406 173.401 50.699C173.56 50.6113 173.69 50.482 173.789 50.3112C173.877 50.2143 173.939 50.0942 173.978 49.9534C174.041 49.8334 174.078 49.6995 174.087 49.5495C174.133 49.351 174.138 49.1432 174.103 48.9216C174.071 48.7877 174.038 48.6538 174.006 48.52C173.948 48.3999 173.891 48.2799 173.831 48.1599C173.722 47.9798 173.59 47.8459 173.431 47.7605C173.334 47.6751 173.233 47.6266 173.122 47.6151C173.013 47.5666 172.907 47.5551 172.803 47.5805C172.635 47.5736 172.48 47.6197 172.337 47.7167C172.247 47.7928 172.155 47.869 172.065 47.9429C171.988 48.0514 171.915 48.1599 171.838 48.266L171.686 48.6585C171.626 48.8547 171.608 49.0647 171.631 49.284C171.626 49.4894 171.661 49.6926 171.737 49.8957C171.76 49.9511 171.788 50.0111 171.813 50.0688Z" fill="#DB6800"/>
<path d="M154.69 23.3436C155.182 22.1202 152.799 20.3405 152.225 21.7717C151.733 22.9951 154.115 24.7748 154.69 23.3436Z" fill="#DB6800"/>
<path d="M222.722 49.2993H230.444V108.805C230.444 111.853 232.698 114.381 235.625 114.816C236.06 117.745 238.588 120 241.636 120H271.017C274.367 120 277.096 117.273 277.096 113.921V17.1945C277.096 14.1631 274.886 11.625 271.912 11.1806C271.515 8.475 269.337 6.33003 266.538 6.03457L247.506 4.02453C247.289 4.00126 247.068 3.9873 246.85 3.9873H217.604C214.254 3.9873 211.527 6.71389 211.527 10.064V38.1022C211.527 41.1498 213.782 43.6787 216.711 44.116C217.143 47.045 219.675 49.2993 222.722 49.2993Z" fill="black"/>
<path d="M218.734 45.3144H226.455V104.82C226.455 107.868 228.71 110.396 231.636 110.832C232.071 113.76 234.6 116.015 237.648 116.015H267.028C270.378 116.015 273.105 113.288 273.105 109.938V13.2095C273.105 10.1782 270.895 7.64002 267.922 7.19567C267.524 4.4877 265.346 2.34272 262.548 2.04959L243.515 0.0372236C243.299 0.0139593 243.078 0 242.859 0H213.616C210.266 0 207.539 2.72659 207.539 6.07666V34.1149C207.539 37.1625 209.793 39.6914 212.722 40.1287C213.155 43.0577 215.686 45.3144 218.734 45.3144Z" fill="black"/>
<path d="M215.419 39.2352C215.419 41.0661 216.903 42.5504 218.734 42.5504H229.219V104.818C229.219 106.648 230.704 108.133 232.535 108.133H234.335V109.936C234.335 111.767 235.819 113.251 237.65 113.251H267.031C268.862 113.251 270.346 111.767 270.346 109.936V13.2094C270.346 11.5134 269.064 10.0896 267.38 9.91049L265.23 9.68482V8.09354C265.23 6.39757 263.951 4.97611 262.264 4.79698L243.213 2.78228C243.097 2.76832 242.98 2.76367 242.864 2.76367H213.616C211.785 2.76367 210.301 4.24794 210.301 6.07885V34.1171C210.301 35.948 211.785 37.4323 213.616 37.4323H215.419V39.2352Z" fill="white"/>
<path d="M237.651 109.936V39.2355H218.734V11.1973H247.98L267.031 13.2096V109.936H237.651Z" fill="#DB5959"/>
<path d="M232.532 104.82V34.1193H213.615V6.08105H242.861L261.912 8.09342V104.82H232.532Z" fill="#F48989"/>
<path opacity="0.7" d="M242.863 6.08105H233.65L252.702 8.09342V104.82H261.912V8.09342L242.863 6.08105Z" fill="#F48989"/>
<path d="M247.567 42.2844C244.659 43.7826 246.239 50.9853 249.642 49.2334C252.55 47.7375 250.971 40.5326 247.567 42.2844Z" fill="#D35959"/>
<path d="M244.721 23.9192C244.277 24.3356 243.953 24.873 243.751 25.5314C243.504 26.1595 243.402 26.8435 243.444 27.5833C243.393 28.2533 243.479 28.9396 243.705 29.6445C243.877 30.0656 244.051 30.4867 244.223 30.9055C244.658 31.7197 245.228 32.3665 245.938 32.8504C246.299 33.0202 246.657 33.19 247.017 33.3622C247.776 33.5692 248.483 33.539 249.139 33.2714C249.679 33.0783 250.121 32.7433 250.468 32.2711C250.912 31.8546 251.235 31.3172 251.438 30.6589C251.684 30.0307 251.787 29.3467 251.745 28.6046C251.798 27.9346 251.71 27.2483 251.484 26.5434C251.312 26.1223 251.138 25.7012 250.965 25.2801C250.53 24.4659 249.96 23.8191 249.253 23.3376C248.893 23.1677 248.532 22.9956 248.171 22.8257C247.413 22.6187 246.706 22.6489 246.05 22.9188C245.51 23.1119 245.068 23.4469 244.721 23.9192Z" fill="#D35959"/>
<path d="M260.414 51.7767C260.304 51.5115 260.197 51.2486 260.088 50.9858C259.816 50.4763 259.458 50.0691 259.013 49.7667C258.788 49.6597 258.562 49.5527 258.336 49.4457C257.862 49.3154 257.417 49.334 257.005 49.5038C256.668 49.6248 256.389 49.8342 256.173 50.132C255.893 50.3925 255.691 50.7298 255.565 51.144C255.41 51.5371 255.347 51.9675 255.372 52.4328C255.34 52.8516 255.396 53.2843 255.537 53.7263C255.644 53.9915 255.754 54.2544 255.863 54.5196C256.135 55.0291 256.494 55.4362 256.938 55.7387C257.164 55.8457 257.389 55.9527 257.617 56.0597C258.092 56.19 258.536 56.1714 258.948 56.0016C259.285 55.8806 259.565 55.6712 259.781 55.3734C260.06 55.1129 260.262 54.7755 260.388 54.3614C260.544 53.9683 260.607 53.5379 260.581 53.0726C260.609 52.6492 260.556 52.2164 260.414 51.7767Z" fill="#D35959"/>
<path d="M248.372 70.6022C248.475 70.3114 248.51 69.9927 248.479 69.6484C248.514 69.3366 248.484 69.0202 248.391 68.6922C248.363 68.3781 248.272 68.0757 248.119 67.7826C247.972 67.3359 247.737 66.9381 247.419 66.5868C247.195 66.389 246.974 66.1936 246.751 65.9959L246.002 65.6399C245.75 65.6097 245.499 65.5771 245.25 65.5469C245.011 65.5981 244.771 65.6516 244.531 65.7027C244.315 65.833 244.099 65.9633 243.882 66.0913C243.552 66.3472 243.303 66.6845 243.138 67.1056C242.973 67.3568 242.87 67.6476 242.833 67.9826C242.698 68.4247 242.661 68.9016 242.721 69.4204C242.724 69.5088 242.724 69.5949 242.726 69.681C242.752 70.1276 242.866 70.5627 243.068 70.9791C243.208 71.3979 243.426 71.7724 243.726 72.1004C243.936 72.2866 244.145 72.4704 244.352 72.6541C244.815 72.9566 245.285 73.0962 245.762 73.0729C245.827 73.0589 245.892 73.0473 245.958 73.0333C246.197 72.9822 246.437 72.9287 246.676 72.8775C246.893 72.7472 247.109 72.6192 247.325 72.489C247.656 72.2331 247.905 71.8957 248.068 71.4746C248.233 71.228 248.333 70.9349 248.372 70.6022Z" fill="#D35959"/>
<path d="M244.234 57.1852C245.474 56.5478 244.799 53.4769 243.35 54.2237C242.11 54.8634 242.782 57.932 244.234 57.1852Z" fill="#D35959"/>
<path d="M245.419 88.502C244.179 89.1394 244.854 92.2103 246.304 91.4635C247.544 90.8261 246.871 87.7552 245.419 88.502Z" fill="#D35959"/>
<path d="M255.105 40.163C255.475 40.4096 255.875 40.3561 256.152 40.1281C256.459 39.8745 256.624 39.4046 256.575 38.9137C256.533 38.4763 256.315 37.9994 255.945 37.7575C255.877 37.7132 255.808 37.669 255.74 37.6248C255.417 37.4131 255.072 37.455 254.828 37.6551C254.693 37.7714 254.593 37.9203 254.528 38.1064C254.463 38.2925 254.44 38.4949 254.461 38.7113C254.465 38.8113 254.468 38.909 254.472 39.0068C254.491 39.4371 254.754 39.928 255.105 40.163Z" fill="#D35959"/>
<path d="M242.235 15.5868C242.442 15.9707 242.712 16.2778 243.045 16.5058C243.217 16.5872 243.387 16.6663 243.556 16.7477C243.915 16.8454 244.25 16.8315 244.559 16.7035C244.815 16.6128 245.024 16.4546 245.187 16.2313C245.397 16.0335 245.55 15.7799 245.646 15.4682C245.762 15.1704 245.811 14.847 245.792 14.4957C245.815 14.1793 245.776 13.8536 245.669 13.521C245.587 13.3232 245.506 13.1231 245.425 12.9231C245.217 12.5392 244.948 12.2321 244.613 12.0041C244.443 11.9227 244.271 11.8436 244.101 11.7622C243.743 11.6645 243.408 11.6784 243.096 11.8064C242.84 11.8971 242.63 12.0553 242.468 12.2786C242.256 12.4764 242.105 12.73 242.009 13.0417C241.893 13.3395 241.844 13.6629 241.863 14.0142C241.837 14.3306 241.879 14.6563 241.986 14.9889C242.072 15.189 242.154 15.3891 242.235 15.5868Z" fill="#D35959"/>
<path d="M253.593 79.0218C253.416 78.6914 253.183 78.4262 252.895 78.2308C252.518 77.8376 252.095 77.5841 251.622 77.4677C251.327 77.4305 251.034 77.3956 250.738 77.3584L249.894 77.5422C249.454 77.7004 249.096 77.9726 248.812 78.3564C248.449 78.6961 248.186 79.1335 248.023 79.6686C247.998 79.7244 247.965 79.7825 247.949 79.8454C247.705 80.5386 247.621 81.2947 247.693 82.1136L247.912 83.2373C248.123 83.9608 248.472 84.6076 248.959 85.1799C249.324 85.6242 249.736 85.929 250.196 86.0918C250.638 86.3524 251.085 86.4617 251.536 86.4129C252.008 86.4059 252.423 86.2663 252.776 85.9965C253.202 85.7964 253.544 85.4777 253.809 85.0426C254.202 84.447 254.444 83.7538 254.535 82.9581C254.584 82.5231 254.561 82.0648 254.535 81.6088C254.463 81.2389 254.391 80.869 254.319 80.4991C254.179 79.9454 253.937 79.4545 253.593 79.0218Z" fill="#D35959"/>
<path d="M243.096 40.7333C243.177 40.5705 243.256 40.4076 243.338 40.2425L243.463 39.6748C243.505 39.3933 243.486 39.1048 243.412 38.807C243.377 38.5255 243.286 38.2557 243.14 37.9951C243.091 37.9207 243.042 37.8462 242.993 37.7718L242.728 37.3856C242.572 37.1948 242.395 37.0645 242.198 36.9947C242.072 36.9133 241.944 36.8738 241.814 36.8808C241.614 36.8365 241.428 36.8552 241.255 36.9366C241.197 36.9599 241.141 36.9831 241.083 37.0064C240.953 37.0855 240.823 37.1622 240.692 37.2413C240.492 37.3949 240.343 37.5996 240.246 37.8532C240.146 38.0044 240.085 38.1789 240.062 38.3813C239.999 38.5558 239.978 38.7489 239.997 38.9559C239.976 39.2351 240.011 39.5236 240.106 39.8167C240.178 39.9912 240.25 40.168 240.322 40.3448C240.427 40.4984 240.532 40.6496 240.637 40.8008C240.82 41.0265 241.03 41.18 241.265 41.2638C241.414 41.3615 241.565 41.4057 241.718 41.3987C241.877 41.4429 242.025 41.4359 242.16 41.3801C242.393 41.3545 242.595 41.2591 242.768 41.0986C242.877 40.9776 242.986 40.8543 243.096 40.7333Z" fill="#D35959"/>
<path d="M250.343 19.2091C250.448 19.3626 250.553 19.5138 250.657 19.6651C250.841 19.8907 251.05 20.0443 251.285 20.128C251.434 20.2257 251.586 20.2699 251.739 20.263C251.897 20.3048 252.046 20.3002 252.183 20.2443C252.416 20.2187 252.618 20.1234 252.791 19.9628C252.9 19.8395 253.009 19.7186 253.119 19.5953C253.2 19.4324 253.279 19.2696 253.361 19.1067L253.486 18.5391C253.528 18.2576 253.509 17.9691 253.435 17.6713C253.4 17.3921 253.309 17.1199 253.163 16.8594C253.114 16.7849 253.065 16.7105 253.016 16.636L252.751 16.2498C252.595 16.0591 252.418 15.9288 252.221 15.859C252.095 15.7776 251.967 15.738 251.839 15.745C251.639 15.7008 251.453 15.7194 251.281 15.8008C251.225 15.8241 251.167 15.8474 251.109 15.8706C250.978 15.9497 250.848 16.0265 250.718 16.1056C250.518 16.2592 250.369 16.4639 250.271 16.7175C250.171 16.8687 250.111 17.0432 250.087 17.2456C250.024 17.42 250.004 17.6131 250.022 17.8202C250.001 18.0994 250.036 18.3855 250.132 18.681C250.201 18.8578 250.273 19.0346 250.343 19.2091Z" fill="#D35959"/>
<path d="M253.799 61.4198C252.177 62.255 253.059 66.2704 254.955 65.2933C256.576 64.4581 255.695 60.4427 253.799 61.4198Z" fill="#D35959"/>
</svg>
