<svg width="178" height="121" viewBox="0 0 178 121" fill="none" xmlns="http://www.w3.org/2000/svg">
<path d="M49.8431 49.6875L50.0832 49.7336C50.4617 52.2151 52.3822 54.281 54.9191 54.7634L76.6195 58.893C78.2607 59.1977 79.9758 58.8145 81.317 57.8243C82.6627 56.834 83.5445 55.3128 83.7338 53.6508C83.9692 51.5964 84.5186 49.9506 85.3704 48.7641C86.2314 47.5638 87.1616 46.7444 88.2142 46.2527C89.0037 45.8834 89.8208 45.7241 90.691 45.7333C90.5456 46.5412 90.2317 47.6515 89.6015 49.1542C88.7382 51.2133 86.8292 53.8724 84.0777 56.8455C81.0677 60.1003 76.7211 63.8282 71.1535 67.9301C65.4796 72.1104 57.9822 76.7548 48.8736 81.7361C46.8654 82.8349 45.6374 85.0231 45.7435 87.3153L46.8123 109.771C46.99 112.635 49.1691 114.941 51.9414 115.357C52.373 118.284 54.8868 120.5 57.9199 120.5L130.999 120.368C132.718 120.363 134.357 119.625 135.498 118.337C136.638 117.051 137.178 115.334 136.975 113.625L134.18 90.0645C133.854 87.3291 131.731 85.2032 129.078 84.8085C128.64 81.8654 126.107 79.6678 123.114 79.6678H118.236C119.513 78.2713 120.759 76.8517 121.962 75.4205C125.046 71.7503 127.684 67.7154 129.805 63.4289C132.134 58.7176 133.261 53.3069 133.155 47.2937C132.949 41.7215 131.881 36.5462 129.976 31.9065C128.023 27.1606 125.295 23.0726 121.869 19.7486C121.133 19.0354 120.351 18.3521 119.49 17.6688C118.566 16.5124 117.705 15.5544 116.796 14.6727C115.074 13.006 113.16 11.5172 111.113 10.2453C109.086 8.98266 106.865 7.90006 104.518 7.02983C99.915 5.32167 94.8437 4.45605 89.4422 4.45605C88.3712 4.45605 87.3163 4.50222 86.3191 4.56224C81.8225 4.8023 77.4898 5.5502 73.4456 6.77822C68.2288 8.36403 63.5152 10.7924 59.4318 13.9917C55.2653 17.2649 51.8513 21.4175 49.2868 26.3343C46.7153 31.2648 45.2565 37.031 44.9495 43.4781C44.8041 46.4604 46.9092 49.1289 49.8431 49.6875Z" fill="black"/>
<path d="M45.8862 45.7314L46.1263 45.7776C46.5048 48.259 48.423 50.3273 50.9622 50.8074L72.6626 54.937C74.3039 55.2417 76.0189 54.8585 77.3601 53.8682C78.7058 52.8779 79.5876 51.3568 79.7769 49.6948C80.0123 47.6404 80.5617 45.9946 81.4135 44.8081C82.2745 43.6078 83.2047 42.7883 84.2573 42.2966C85.0468 41.9273 85.8639 41.768 86.7341 41.7773C86.5887 42.5852 86.2748 43.6955 85.6446 45.1982C84.7813 47.2572 82.8723 49.9164 80.1208 52.8872C77.1131 56.1419 72.7642 59.8698 67.1966 63.9717C61.5227 68.1521 54.0253 72.7964 44.9167 77.7777C42.9085 78.8765 41.6805 81.0648 41.7866 83.3569L42.8554 105.812C43.0331 108.677 45.2122 110.981 47.9845 111.398C48.4161 114.325 50.9299 116.541 53.963 116.541L127.044 116.407C128.764 116.403 130.403 115.664 131.543 114.378C132.686 113.093 133.224 111.375 133.02 109.667L130.225 86.1061C129.9 83.3708 127.776 81.2448 125.124 80.8501C124.685 77.907 122.153 75.7095 119.159 75.7095H114.279C115.556 74.313 116.802 72.8933 118.005 71.4622C121.089 67.792 123.727 63.757 125.849 59.4705C128.178 54.7592 129.304 49.3485 129.196 43.3354C128.99 37.7631 127.921 32.5879 126.017 27.9482C124.064 23.2023 121.336 19.1142 117.91 15.7903C117.174 15.077 116.391 14.3937 115.53 13.7105C114.607 12.554 113.746 11.5961 112.837 10.7143C111.115 9.04769 109.201 7.55882 107.153 6.28694C105.127 5.02429 102.906 3.9417 100.559 3.07377C95.9558 1.36562 90.8822 0.5 85.483 0.5C84.412 0.5 83.3571 0.546166 82.3599 0.606182C77.8633 0.846247 73.5306 1.59414 69.4864 2.82216C64.2696 4.40797 59.556 6.83632 55.4726 10.0356C51.3061 13.3065 47.8921 17.4592 45.3276 22.3759C42.7561 27.3064 41.2996 33.0726 40.9903 39.5197C40.8472 42.5044 42.9523 45.1751 45.8862 45.7314Z" fill="black"/>
<path d="M129.491 112.559C130.114 111.858 130.407 110.92 130.297 109.99L127.501 86.4292C127.305 84.7741 125.902 83.5276 124.235 83.5276H122.682L122.423 81.3509C122.227 79.6958 120.823 78.4494 119.157 78.4494H107.855C110.685 75.6332 113.386 72.6924 115.904 69.6962C118.847 66.1945 121.366 62.3466 123.39 58.2539C125.523 53.9397 126.555 48.9745 126.456 43.4345C126.264 38.1854 125.262 33.3264 123.482 28.9914C121.675 24.5987 119.159 20.8223 116.004 17.7615C115.27 17.0528 114.473 16.3626 113.58 15.6678C112.654 14.4929 111.805 13.5396 110.928 12.6878C109.346 11.1574 107.585 9.78626 105.702 8.61594C103.825 7.44563 101.77 6.44843 99.6007 5.64514C95.3003 4.0501 90.5498 3.24219 85.4784 3.24219C84.4651 3.24219 83.4656 3.28605 82.5007 3.34606C78.2257 3.57458 74.1146 4.28093 70.2782 5.44894C65.3869 6.9378 60.9734 9.20687 57.16 12.1938C53.3028 15.2223 50.1381 19.0749 47.7537 23.6477C45.3669 28.2228 44.0119 33.6081 43.7233 39.6535C43.6472 41.2924 44.7852 42.7351 46.3941 43.0421L48.8732 43.513C48.8432 43.917 48.8201 44.3279 48.8016 44.7341C48.7255 46.3707 49.8634 47.8134 51.4723 48.1204L73.1682 52.2477C74.0661 52.4162 74.9964 52.2061 75.7327 51.666C76.4691 51.1235 76.9469 50.2995 77.0508 49.39C77.3393 46.867 78.0572 44.7872 79.1836 43.213C80.3263 41.6248 81.6051 40.5122 83.0962 39.8174C84.5389 39.1457 86.0509 38.9149 87.7059 39.1041C88.2992 39.1757 88.8924 39.305 89.4926 39.5012C89.5411 39.8313 89.5687 40.1821 89.578 40.5515C89.6103 42.0288 89.1348 43.9493 88.1676 46.2599C87.1658 48.6467 85.1345 51.5021 82.1291 54.7499C79.0036 58.1293 74.5278 61.9749 68.817 66.1807C63.0462 70.4326 55.4473 75.1439 46.2279 80.1829C45.1245 80.7877 44.462 81.9695 44.5197 83.2253L45.5884 105.641C45.6969 107.375 47.135 108.725 48.8709 108.725H48.8778L50.5675 108.721L50.6598 110.666C50.7429 112.421 52.1902 113.799 53.9469 113.799H53.9538L127.033 113.665C127.974 113.663 128.868 113.261 129.491 112.559Z" fill="white"/>
<path d="M127.031 110.375L53.9517 110.509L52.8875 88.1439C62.2916 83.001 69.946 78.2505 75.8483 73.9016C81.7484 69.5527 86.3419 65.6055 89.6244 62.053C92.9068 58.5075 95.1251 55.3543 96.2792 52.6028C97.4311 49.8513 97.9874 47.5014 97.9435 45.5486C97.8974 43.5958 97.4772 42.0215 96.6786 40.8212C95.8799 39.6232 95.1689 38.8037 94.5503 38.3605C92.5074 36.9409 90.3584 36.0961 88.0939 35.8306C85.8318 35.5628 83.7012 35.8952 81.7045 36.8278C79.7078 37.7603 77.9789 39.2469 76.5131 41.2851C75.0497 43.328 74.1379 45.9018 73.7847 49.0065L52.0889 44.8792C52.3543 39.2885 53.5731 34.411 55.7475 30.2376C57.922 26.0664 60.7612 22.6063 64.2675 19.8548C67.7716 17.1056 71.788 15.0419 76.3146 13.6639C80.8389 12.2904 85.5871 11.6025 90.5569 11.6025C95.259 11.6025 99.5847 12.3343 103.534 13.8001C107.481 15.2635 110.877 17.3733 113.716 20.1225C116.555 22.874 118.795 26.2465 120.438 30.2399C122.079 34.2332 122.986 38.6698 123.166 43.5519C123.254 48.5217 122.345 52.9352 120.438 56.7947C118.529 60.6542 116.179 64.2506 113.382 67.5768C110.586 70.9054 107.592 74.1232 104.398 77.2279C101.203 80.3326 98.3613 83.5273 95.8776 86.812H124.231L127.031 110.375Z" fill="#FF6A09"/>
<path d="M121.954 105.299L48.8752 105.433L47.8111 83.0674C57.2175 77.9245 64.8718 73.174 70.7719 68.8251C76.6719 64.4762 81.2655 60.529 84.5479 56.9765C87.8303 53.4286 90.0486 50.2778 91.2028 47.5263C92.3546 44.7748 92.9109 42.4249 92.8671 40.4721C92.8209 38.5192 92.4008 36.945 91.6021 35.747C90.8034 34.5489 90.0925 33.7295 89.4716 33.284C87.4287 31.8644 85.2797 31.0195 83.0152 30.7541C80.7507 30.4863 78.6225 30.8187 76.6258 31.7513C74.6291 32.6838 72.9002 34.1704 71.4344 36.2086C69.9686 38.2538 69.0591 40.8252 68.7036 43.9299L47.0078 39.8027C47.2733 34.2119 48.4921 29.3345 50.6665 25.161C52.8409 20.9899 55.6778 17.5297 59.1865 14.7782C62.6905 12.029 66.707 9.9654 71.2336 8.58964C75.7579 7.2162 80.5061 6.52832 85.4759 6.52832C90.1779 6.52832 94.5037 7.26006 98.4532 8.72584C102.4 10.1893 105.794 12.2991 108.635 15.0483C111.474 17.7998 113.716 21.1723 115.359 25.1656C117 29.159 117.908 33.5956 118.088 38.4777C118.175 43.4475 117.266 47.861 115.359 51.7205C113.45 55.58 111.098 59.1763 108.305 62.5026C105.51 65.8312 102.516 69.049 99.3211 72.1537C96.1264 75.2584 93.2849 78.4531 90.8011 81.7378H119.159L121.954 105.299Z" fill="#FFB31A"/>
<g opacity="0.7">
<path d="M89.3193 8.72584C93.2665 10.1893 96.6597 12.2991 99.5012 15.0483C102.34 17.7998 104.582 21.1723 106.223 25.1656C107.864 29.159 108.774 33.5956 108.951 38.4777C109.039 43.4475 108.13 47.861 106.223 51.7205C104.314 55.58 101.964 59.1763 99.1688 62.5026C96.3735 65.8312 93.3796 69.049 90.1849 72.1537C86.9902 75.2584 84.1486 78.4531 81.6649 81.7378H90.8058C93.2896 78.4531 96.1311 75.2584 99.3258 72.1537C102.521 69.049 105.514 65.8312 108.31 62.5026C111.105 59.1763 113.455 55.58 115.364 51.7205C117.271 47.861 118.18 43.4475 118.092 38.4777C117.915 33.5956 117.005 29.159 115.364 25.1656C113.72 21.1723 111.481 17.7998 108.64 15.0483C105.798 12.2991 102.405 10.1893 98.4579 8.72584C94.5083 7.26006 90.1826 6.52832 85.4805 6.52832C83.8555 6.52832 82.2651 6.62989 80.6885 6.77531C83.7355 7.09386 86.6208 7.72634 89.3193 8.72584Z" fill="#FFB31A"/>
<path d="M67.4892 31.7529C65.4925 32.6855 63.7635 34.172 62.2978 36.2103C61.1113 37.8676 60.3057 39.892 59.8486 42.2465L68.7079 43.9316C69.0634 40.8269 69.9729 38.2554 71.4364 36.2103C72.9021 34.172 74.6311 32.6855 76.6278 31.7529C76.7894 31.679 76.9555 31.6306 77.1171 31.5636C76.0622 31.1574 74.9842 30.8827 73.8763 30.7534C71.6141 30.488 69.4858 30.8204 67.4892 31.7529Z" fill="#FFB31A"/>
<path d="M119.159 81.7383H110.018L112.813 105.299L48.873 105.415L48.8754 105.433L121.954 105.299L119.159 81.7383Z" fill="#FFB31A"/>
</g>
<path d="M103.984 26.2471C105.339 24.3058 101.895 20.2317 100.309 22.503C98.9565 24.442 102.401 28.5185 103.984 26.2471Z" fill="#DB6800"/>
<path d="M112.284 42.834C112.548 42.9494 112.813 43.0672 113.076 43.1826C113.628 43.3188 114.138 43.2818 114.609 43.0741C114.994 42.924 115.308 42.6747 115.548 42.3262C115.862 42.0169 116.086 41.6221 116.218 41.142C116.384 40.6827 116.444 40.1864 116.4 39.6509C116.423 39.1661 116.349 38.6698 116.172 38.1666C116.04 37.8665 115.906 37.5641 115.772 37.2641C115.442 36.6847 115.017 36.2276 114.496 35.8929C114.233 35.7775 113.967 35.6598 113.704 35.5444C113.152 35.4082 112.64 35.4451 112.171 35.6528C111.786 35.8029 111.472 36.0522 111.232 36.4007C110.918 36.7101 110.694 37.1048 110.562 37.5849C110.396 38.0443 110.334 38.5405 110.38 39.0761C110.355 39.5608 110.431 40.0571 110.609 40.5603C110.742 40.8627 110.876 41.1628 111.008 41.4629C111.34 42.04 111.765 42.497 112.284 42.834Z" fill="#DB6800"/>
<path d="M98.9424 35.9436C99.1225 35.9251 99.3025 35.909 99.4826 35.8905C99.8265 35.7959 100.094 35.6181 100.288 35.3619C100.452 35.1611 100.549 34.9279 100.572 34.6625C100.648 34.397 100.651 34.1131 100.574 33.8084C100.524 33.506 100.406 33.2152 100.217 32.9382C100.08 32.6658 99.8865 32.4188 99.6349 32.1972C99.471 32.0726 99.3049 31.9502 99.1387 31.8256C98.7809 31.6109 98.4069 31.4909 98.0191 31.4678C97.8391 31.4839 97.659 31.5024 97.479 31.5209C97.135 31.6155 96.8673 31.7932 96.6734 32.0495C96.5095 32.2503 96.4148 32.4834 96.3895 32.7489C96.3133 33.0143 96.3133 33.2983 96.3871 33.603C96.4379 33.9054 96.5557 34.1962 96.7449 34.4732C96.8811 34.7456 97.075 34.9926 97.3266 35.2142C97.4928 35.3365 97.6567 35.4612 97.8229 35.5858C98.1807 35.8005 98.5546 35.9205 98.9424 35.9436Z" fill="#DB6800"/>
<path d="M99.9494 17.5333C100.164 17.5356 100.379 17.5379 100.593 17.5402L101.17 17.3809C101.323 17.2794 101.473 17.1778 101.625 17.0762C101.731 16.9354 101.838 16.7923 101.944 16.6515C102.001 16.4784 102.057 16.3052 102.115 16.1321C102.175 15.8367 102.149 15.5343 102.041 15.225C102.013 15.0103 101.93 14.8025 101.794 14.6017C101.66 14.297 101.452 14.0177 101.175 13.7638C101.134 13.7153 101.092 13.6692 101.05 13.623C100.824 13.3898 100.559 13.2075 100.249 13.0759C99.9748 12.912 99.6793 12.8105 99.3584 12.7735C99.1576 12.7712 98.9545 12.7689 98.7537 12.7666C98.3566 12.8197 98.0335 12.9674 97.7842 13.2029C97.7542 13.2398 97.7242 13.279 97.6965 13.316C97.5903 13.4568 97.4841 13.5999 97.3779 13.7407C97.3225 13.9138 97.2648 14.087 97.2071 14.2601C97.1471 14.5555 97.1702 14.8579 97.281 15.1672C97.3087 15.3819 97.3918 15.5897 97.528 15.7905C97.6111 15.9982 97.7403 16.1898 97.9204 16.363C98.0473 16.5499 98.2158 16.7092 98.4213 16.8431C98.5852 17.0024 98.7791 17.1247 99.0007 17.2124C99.2915 17.3855 99.6078 17.494 99.9494 17.5333Z" fill="#DB6800"/>
<path d="M111.311 20.6654C111.687 19.7305 109.866 18.3686 109.425 19.4651C109.049 20.3999 110.87 21.7619 111.311 20.6654Z" fill="#DB6800"/>
<path d="M78.8743 11.8956C78.7219 10.8984 76.4621 10.6537 76.6398 11.8194C76.7899 12.8166 79.052 13.0636 78.8743 11.8956Z" fill="#DB6800"/>
<path d="M105.558 35.7197C105.616 35.7359 105.671 35.7497 105.729 35.7659C105.999 35.8397 106.225 35.7335 106.35 35.542C106.417 35.4335 106.454 35.3065 106.456 35.1657C106.461 35.0249 106.431 34.8795 106.369 34.734C106.343 34.6671 106.318 34.6002 106.295 34.5332C106.186 34.2401 105.898 33.9608 105.602 33.8777C105.293 33.7899 105.03 33.9169 104.889 34.1339C104.734 34.3786 104.725 34.7364 104.868 35.0641C104.993 35.355 105.249 35.6343 105.558 35.7197Z" fill="#DB6800"/>
<path d="M103.491 47.0625C103.608 47.1317 103.726 47.1987 103.844 47.2679C104.098 47.3603 104.34 47.3695 104.571 47.2956C104.76 47.2449 104.922 47.1433 105.051 46.9909C105.215 46.8617 105.34 46.6862 105.427 46.4693C105.529 46.2615 105.584 46.0307 105.589 45.7768C105.626 45.5506 105.614 45.3128 105.557 45.0658C105.508 44.9181 105.462 44.768 105.413 44.6203C105.286 44.3294 105.111 44.094 104.883 43.9093C104.765 43.8401 104.645 43.7731 104.527 43.7039C104.275 43.6116 104.033 43.6023 103.8 43.6762C103.611 43.727 103.451 43.8285 103.32 43.9809C103.156 44.1102 103.031 44.2856 102.944 44.5026C102.842 44.7103 102.789 44.9412 102.782 45.1951C102.745 45.4213 102.757 45.659 102.814 45.906C102.86 46.0538 102.909 46.2038 102.955 46.3515C103.087 46.6424 103.262 46.8778 103.491 47.0625Z" fill="#DB6800"/>
<path d="M84.4163 10.9236C84.5179 10.8313 84.6172 10.739 84.7187 10.649C84.8826 10.4343 84.9657 10.2081 84.9657 9.9657C84.975 9.76949 84.9265 9.58713 84.8203 9.41632C84.7464 9.22242 84.6172 9.04929 84.4348 8.90156C84.2686 8.74229 84.0655 8.61995 83.8254 8.53916C83.62 8.43528 83.3915 8.37527 83.1375 8.35449C82.9829 8.35449 82.8259 8.35449 82.6713 8.35449C82.3573 8.38681 82.078 8.48376 81.8333 8.64534C81.7318 8.73767 81.6325 8.83001 81.531 8.92234C81.3671 9.13701 81.2863 9.36322 81.2863 9.6056C81.277 9.8018 81.3255 9.98416 81.4317 10.155C81.5056 10.3489 81.6348 10.522 81.8172 10.6697C81.9834 10.829 82.1888 10.9513 82.4289 11.0344C82.6343 11.1383 82.8628 11.1983 83.1144 11.2191C83.2691 11.2191 83.4261 11.2191 83.5807 11.2191C83.8924 11.1822 84.1717 11.0852 84.4163 10.9236Z" fill="#DB6800"/>
<path d="M88.9896 17.5473C89.382 17.5819 89.7329 17.5173 90.0445 17.3534C90.2222 17.2333 90.4 17.111 90.5754 16.991L90.9471 16.4878C91.1109 16.1923 91.1756 15.8737 91.1456 15.5298C91.1802 15.172 91.1156 14.8096 90.9471 14.4403C90.9332 14.3964 90.9263 14.3503 90.9032 14.3087C90.7024 13.8147 90.3884 13.3646 89.9591 12.9537L89.3035 12.4482C88.8419 12.1574 88.3433 11.9727 87.8077 11.8942C87.3969 11.8273 87.0275 11.8596 86.6998 11.9912C86.335 12.0604 86.0419 12.2151 85.818 12.4574C85.5664 12.686 85.4071 12.9607 85.3425 13.2769C85.2086 13.5885 85.174 13.9255 85.2386 14.2879C85.3102 14.7981 85.511 15.292 85.8411 15.7676C86.0234 16.0261 86.2543 16.2662 86.4851 16.5016C86.7021 16.6678 86.9167 16.834 87.1337 17.0002C87.473 17.231 87.8378 17.3811 88.2325 17.4526C88.4887 17.545 88.7403 17.5773 88.9896 17.5473Z" fill="#DB6800"/>
<path d="M112.033 31.3329L112.335 31.4853C112.502 31.5522 112.659 31.573 112.809 31.5476C112.917 31.5568 113.012 31.536 113.09 31.4876C113.233 31.446 113.344 31.3698 113.425 31.259C113.453 31.2244 113.483 31.1898 113.51 31.1552C113.566 31.0605 113.621 30.9659 113.676 30.8712C113.75 30.705 113.773 30.5227 113.748 30.3265C113.76 30.1972 113.736 30.0633 113.681 29.9271C113.658 29.7933 113.607 29.6663 113.522 29.5394C113.439 29.3547 113.316 29.1839 113.153 29.0315C113.046 28.9438 112.938 28.8584 112.832 28.773C112.714 28.713 112.594 28.653 112.474 28.5929C112.278 28.5145 112.093 28.4891 111.915 28.5191C111.786 28.5098 111.675 28.5329 111.581 28.5906C111.465 28.6183 111.373 28.6737 111.306 28.7568C111.167 28.8538 111.07 28.9854 111.017 29.1469C110.99 29.2624 110.964 29.3778 110.937 29.4932C110.941 29.6248 110.948 29.7563 110.953 29.8879L111.068 30.2919C111.14 30.4858 111.25 30.6635 111.403 30.8251C111.523 30.9913 111.675 31.1321 111.858 31.2452C111.92 31.2729 111.975 31.3029 112.033 31.3329Z" fill="#DB6800"/>
<path d="M111.29 50.5688L111.437 50.8735C111.527 51.0259 111.64 51.139 111.774 51.2105C111.855 51.2821 111.943 51.3237 112.035 51.3329C112.174 51.386 112.308 51.3929 112.441 51.3537C112.485 51.3444 112.529 51.3329 112.573 51.3237C112.675 51.2821 112.776 51.2406 112.878 51.199C113.037 51.1113 113.166 50.982 113.266 50.8112C113.353 50.7143 113.416 50.5942 113.455 50.4534C113.517 50.3334 113.554 50.1995 113.563 50.0495C113.609 49.851 113.614 49.6432 113.579 49.4216C113.547 49.2877 113.515 49.1538 113.483 49.02C113.425 48.8999 113.367 48.7799 113.307 48.6599C113.199 48.4798 113.067 48.3459 112.908 48.2605C112.811 48.1751 112.709 48.1266 112.598 48.1151C112.49 48.0666 112.384 48.0551 112.28 48.0805C112.111 48.0736 111.957 48.1197 111.814 48.2167C111.724 48.2928 111.631 48.369 111.541 48.4429C111.465 48.5514 111.391 48.6599 111.315 48.766L111.163 49.1585C111.103 49.3547 111.084 49.5647 111.107 49.784C111.103 49.9894 111.137 50.1926 111.213 50.3957C111.237 50.4511 111.264 50.5111 111.29 50.5688Z" fill="#DB6800"/>
<path d="M94.1664 23.8436C94.6581 22.6202 92.2759 20.8405 91.7011 22.2717C91.2095 23.4951 93.5916 25.2748 94.1664 23.8436Z" fill="#DB6800"/>
</svg>
