<svg width="178" height="121" viewBox="0 0 178 121" fill="none" xmlns="http://www.w3.org/2000/svg">
<path d="M100.474 46.8584C104.683 44.0184 110.108 42.3071 110.108 42.3071C110.108 42.3071 108.13 46.1758 105.905 49.6881C109.615 48.4403 113.085 47.9578 113.085 47.9578C113.085 47.9578 107.577 55.4877 104.052 58.3107C103.386 58.844 102.735 59.3082 102.108 59.7143C105.389 60.7284 106.929 63.2623 106.929 63.2623C106.929 63.2623 104.058 61.8787 99.7684 63.5387C97.1157 64.5653 94.0668 67.255 92.4515 68.8022C92.9585 69.8221 93.3658 70.88 93.6618 71.9755C95.3915 70.995 98.4236 69.473 100.885 69.276C105.005 68.9461 107.38 71.0218 107.38 71.0218C107.38 71.0218 105.979 67.1454 101.841 65.5021C103.735 64.869 105.764 64.2184 107.23 63.8209C110.843 62.8417 114.611 63.8589 114.611 63.8589C114.611 63.8589 112.124 60.6589 107.796 59.1388C108.795 58.9132 109.62 58.7589 110.159 58.7143C114.818 58.3286 117.6 59.9755 117.6 59.9755C117.6 59.9755 116.666 55.7372 110.119 53.7178C113.196 52.8656 116.153 52.1223 117.453 52.0146C122.112 51.6289 124.895 53.2758 124.895 53.2758C124.895 53.2758 123.859 48.5538 116.279 46.7028C115.13 46.4224 113.84 46.3667 112.527 46.4497C113.134 46.0416 113.79 45.5707 114.523 45.0095C119.142 41.4731 122.624 32.8423 122.624 32.8423C122.624 32.8423 114.895 36.0732 111.099 38.7865C113.327 34.5278 114.451 29.6066 114.451 29.6066C114.451 29.6066 109.258 32.8001 105.638 35.7647C105.087 38.5272 104.149 41.7556 102.57 44.0253C101.907 44.9786 101.196 45.9373 100.474 46.8584Z" fill="#528B37"/>
<path d="M96.7577 40.0561C96.2789 40.7602 95.8682 41.4436 95.5136 42.098C95.9244 43.1008 96.1979 44.2881 96.2015 45.6813C96.206 47.4031 95.8251 49.0993 95.2923 50.6309C97.738 49.4742 99.768 49.2335 99.768 49.2335C99.768 49.2335 99.0403 55.32 96.0501 59.0019C95.7538 59.3669 95.4571 59.7101 95.1617 60.0368C96.2121 59.6865 97.3208 59.4295 98.4549 59.3368C99.8532 59.2226 101.068 59.3928 102.109 59.7145C102.735 59.3083 103.386 58.8442 104.052 58.3109C107.577 55.4879 113.085 47.958 113.085 47.958C113.085 47.958 109.615 48.4405 105.906 49.6882C108.13 46.176 110.108 42.3073 110.108 42.3073C110.108 42.3073 104.683 44.0186 100.474 46.8586C101.197 45.9374 101.908 44.9787 102.571 44.0255C104.149 41.7557 105.088 38.5273 105.638 35.7648C106.246 32.7205 106.382 30.2424 106.382 30.2424C106.382 30.2424 103.878 32.3921 101.314 34.9187C99.5641 36.6436 97.786 38.5441 96.7577 40.0561Z" fill="#639635"/>
<path d="M87.5182 50.5764C89.0815 46.2534 87.6321 43.4163 87.6321 43.4163C87.6321 43.4163 89.6469 44.5784 90.8648 47.1033C91.2905 46.3026 91.6471 45.4985 91.8735 44.7366C93.1765 40.3519 91.5455 37.6278 91.5455 37.6278C91.5455 37.6278 94.2182 38.9378 95.5131 42.0983C95.8677 41.4439 96.2784 40.7605 96.7571 40.0565C97.7854 38.5444 99.5635 36.6439 101.314 34.9191C101.297 34.8666 101.283 34.8124 101.265 34.7605C98.7669 27.4163 93.9413 26.7909 93.9413 26.7909C93.9413 26.7909 95.829 29.4049 95.8358 34.0471C95.8366 34.5843 95.7515 35.4135 95.6097 36.4211C93.7185 32.2668 90.2975 30.0768 90.2975 30.0768C90.2975 30.0768 91.6367 33.7198 90.9596 37.3771C90.6847 38.8618 90.2035 40.9243 89.7284 42.8521C87.7297 38.8959 83.7216 37.8371 83.7216 37.8371C83.7216 37.8371 86.0051 40.0119 86.0225 44.1168C86.0278 45.3478 85.7094 46.7495 85.2856 48.0676C83.4588 44.3501 79.8593 43.1415 79.8593 43.1415C79.8593 43.1415 81.9898 45.4673 81.7533 49.5912C81.6027 52.2188 79.9583 55.5307 79.0355 57.2017C80.073 57.5015 81.077 57.9065 82.0493 58.4042C83.4581 56.9048 86.4668 53.484 87.5182 50.5764Z" fill="#528B37"/>
<path d="M90.0373 54.7163C91.6152 52.7314 93.558 51.4513 95.2922 50.6311C95.825 49.0994 96.2059 47.4033 96.2014 45.6815C96.1978 44.2883 95.9244 43.101 95.5135 42.0981C94.2187 38.9376 91.5459 37.6277 91.5459 37.6277C91.5459 37.6277 93.177 40.3517 91.874 44.7364C91.6476 45.4983 91.291 46.3024 90.8652 47.1032C89.6474 44.5782 87.6326 43.4161 87.6326 43.4161C87.6326 43.4161 89.082 46.2532 87.5186 50.5763C86.4672 53.484 83.4585 56.9046 82.0496 58.4042C83.4563 59.1243 84.7971 60.0369 86.0802 61.0977C86.8646 59.2359 87.84 57.4805 90.0373 54.7163Z" fill="#749B32"/>
<path d="M99.769 63.5393C104.058 61.8794 106.93 63.263 106.93 63.263C106.93 63.263 105.389 60.729 102.109 59.715C101.068 59.3933 99.8532 59.2231 98.455 59.3373C97.3208 59.4299 96.2122 59.687 95.1617 60.0373C92.9796 62.4507 90.8759 63.8447 89.6059 64.5489C90.7444 65.8832 91.7059 67.3018 92.4521 68.8029C94.0674 67.2556 97.1162 64.566 99.769 63.5393Z" fill="#749B32"/>
<path d="M95.1609 60.0367C95.4563 59.71 95.753 59.3668 96.0494 59.0018C99.0396 55.3199 99.7673 49.2334 99.7673 49.2334C99.7673 49.2334 97.7373 49.474 95.2915 50.6308C93.5574 51.4511 91.6146 52.7311 90.0367 54.7161C87.8393 57.4802 86.864 59.2356 86.0795 61.0975C86.7533 61.6546 87.4113 62.2521 88.0543 62.8848C88.6019 63.4237 89.119 63.9786 89.6051 64.5484C90.8751 63.8441 92.9788 62.4502 95.1609 60.0367Z" fill="#8FA72B"/>
<path d="M71.5943 62.2775C71.1535 62.1298 70.7127 61.982 70.2814 61.8329C70.3757 62.4158 70.4758 63.0031 70.581 63.5934C70.9015 63.1523 71.2385 62.7143 71.5928 62.2793C71.5933 62.2786 71.5938 62.278 71.5943 62.2775Z" fill="#FBB921"/>
<path d="M79.1485 55.8196C78.466 55.6173 77.7874 55.4128 77.1182 55.2045C77.1835 55.7506 77.2561 56.3036 77.3333 56.8603C77.9471 56.4521 78.5513 56.107 79.1461 55.8207C79.1469 55.8204 79.1477 55.8201 79.1485 55.8196Z" fill="#FBB921"/>
<path d="M67.5515 68.8825C66.6323 68.5639 65.734 68.2417 64.8658 67.9183C65.2129 69.7883 65.6142 71.6825 66.0565 73.5813C66.3811 72.0294 66.8743 70.4544 67.5511 68.8835C67.5513 68.8832 67.5514 68.8828 67.5515 68.8825Z" fill="#FBB921"/>
<path d="M98.8567 75.9197C98.8566 75.92 98.8566 75.9203 98.8566 75.9206C98.7815 76.2048 98.6988 76.4909 98.6085 76.7785C98.8119 77.3683 99.0162 77.9533 99.2195 78.5273C99.5862 77.4875 99.8699 76.4246 99.9355 76.0013C99.5789 75.9788 99.219 75.9502 98.8567 75.9197Z" fill="#FBB921"/>
<path d="M98.0312 78.3838C98.0311 78.3843 98.0309 78.3849 98.0306 78.3854C97.5216 79.6421 96.8665 80.9294 96.0537 82.24C96.5403 82.28 97.0222 82.315 97.4982 82.3442C97.7308 81.9151 98.5401 80.3226 98.6272 80.0323C98.4274 79.4927 98.2289 78.9411 98.0312 78.3838Z" fill="#FBB921"/>
<path d="M99.9888 68.7344C99.7156 68.7062 99.4398 68.6755 99.1635 68.6441C99.1635 68.6444 99.1636 68.6447 99.1636 68.645C99.5417 70.5779 99.5483 72.6594 99.1047 74.8562C99.4526 74.8835 99.7981 74.9083 100.141 74.9291C100.48 72.7867 100.413 70.7538 100.008 68.831C99.9894 68.7421 99.9995 68.7897 99.9888 68.7344Z" fill="#FBB921"/>
<path d="M92.1604 57.0124C90.8938 55.9707 89.571 55.0738 88.1843 54.3637C87.212 53.866 86.208 53.461 85.1705 53.1612C84.8442 53.0669 84.5142 52.9845 84.1812 52.9117C84.2556 53.5084 84.3397 54.1143 84.4291 54.7245C87.0173 54.9004 89.4309 56.1097 91.728 57.8821C91.9433 57.9263 92.159 57.9734 92.3742 58.0164C92.31 57.6858 92.2432 57.3576 92.1828 57.0308C92.1828 57.0308 92.1785 57.0274 92.1604 57.0124Z" fill="#FBB921"/>
<path d="M98.5866 64.7625C97.8403 63.2613 96.8788 61.8427 95.7404 60.5084C95.4839 60.2079 95.2187 59.9115 94.9449 59.6194L94.9214 59.5939C94.5357 59.5277 94.1417 59.4582 93.7561 59.3843C93.7761 59.4781 93.7982 59.5723 93.8185 59.6662C94.097 59.9252 94.3734 60.1902 94.6489 60.4613C96.6497 62.4303 98.1457 64.8167 98.8984 67.5245C99.1669 67.5558 99.4351 67.5868 99.7015 67.6154C99.4149 66.6342 99.0437 65.682 98.5866 64.7625Z" fill="#FBB921"/>
<path d="M80.7857 52.5697C79.6818 53.0662 78.5928 53.6131 77.5248 54.2081C78.587 54.54 79.6678 54.8629 80.7639 55.1772C81.6407 54.9016 82.4972 54.7519 83.3353 54.7132C83.3362 54.7132 83.337 54.7132 83.3378 54.7132C83.2412 54.0398 83.1497 53.3705 83.0701 52.7121C83.0701 52.7121 82.0289 52.5617 80.9186 52.5643L80.7857 52.5697Z" fill="#FBB921"/>
<path d="M67.9984 67.9031C68.4901 66.8799 69.0617 65.86 69.7166 64.8514C69.717 64.8508 69.7174 64.8503 69.7177 64.8497C69.5007 63.6955 69.3019 62.5508 69.1273 61.4224C68.861 61.3274 68.5991 61.2321 68.3372 61.1366C68.3369 61.1369 68.3366 61.1372 68.3364 61.1375C66.9111 62.5785 65.6152 64.1246 64.4872 65.758C64.5391 66.0688 64.5898 66.3789 64.6448 66.6916C65.7171 67.0994 66.8413 67.5036 67.9984 67.9031Z" fill="#FBB921"/>
<path d="M65.38 75.3387C64.7312 72.6984 64.1593 70.0574 63.692 67.4734C63.6073 67.441 63.5266 67.4084 63.4426 67.376C63.4424 67.3764 63.442 67.3768 63.4418 67.3773C62.2577 69.3468 61.3163 71.4306 60.6769 73.6021C62.1547 74.1853 63.7224 74.7665 65.38 75.3387Z" fill="#FBB921"/>
<path d="M59.8125 78.1104C59.8123 78.1126 59.812 78.1149 59.8118 78.1171C59.7431 78.8805 59.7125 79.65 59.7224 80.4286C59.9637 80.5175 60.2062 80.6065 60.4515 80.6953C60.2309 79.8346 60.0191 78.9724 59.8125 78.1104Z" fill="#FBB921"/>
<path d="M72.3414 61.3932C73.7212 59.8137 75.0535 58.5507 76.3426 57.5667C76.3429 57.5665 76.3432 57.5663 76.3435 57.5661C76.2222 56.7286 76.1137 55.9014 76.0188 55.0867C76.0185 55.0869 76.0181 55.087 76.0178 55.0873C73.8645 56.4047 71.8189 57.9179 69.9514 59.5971C69.9982 59.9389 70.0471 60.2824 70.0988 60.628C70.8307 60.8862 71.582 61.1407 72.3414 61.3932Z" fill="#FBB921"/>
<path d="M61.6716 81.1256C63.0772 81.6187 64.5413 82.1022 66.0458 82.5733C65.628 80.69 65.4775 78.6597 65.6346 76.555C65.6346 76.5549 65.6346 76.5547 65.6346 76.5547C63.793 75.9277 62.0363 75.2865 60.3951 74.6438C60.3949 74.6443 60.3948 74.6449 60.3947 74.6454C60.346 74.843 60.3001 75.0404 60.2564 75.2393C60.6826 77.1986 61.1543 79.1711 61.6716 81.1256Z" fill="#FBB921"/>
<path d="M71.4812 91.6023C71.4804 91.6021 71.4797 91.602 71.479 91.6018C72.2897 93.7826 73.1186 95.8208 73.9381 97.6511C76.2755 98.1253 78.597 98.538 80.8563 98.8665C80.1794 97.6118 79.4854 96.1746 78.7831 94.593C78.783 94.593 78.7828 94.593 78.7827 94.5929C76.4228 94.4493 73.9847 93.5179 71.4812 91.6023Z" fill="#FBB921"/>
<path d="M91.4927 88.0664C91.9412 88.112 92.3873 88.1549 92.8281 88.1921C92.6755 87.84 92.5228 87.4774 92.3701 87.1123C92.3697 87.1127 92.3694 87.1131 92.369 87.1135C92.0866 87.4299 91.794 87.7481 91.4927 88.0664Z" fill="#FBB921"/>
<path d="M85.0789 93.1498C85.6811 93.2315 86.2788 93.3077 86.8701 93.3764C86.7184 93.0541 86.5662 92.7206 86.4139 92.3848C86.4134 92.385 86.413 92.3854 86.4126 92.3857C85.9717 92.6642 85.5268 92.9196 85.0789 93.1498Z" fill="#FBB921"/>
<path d="M95.3881 83.2665C95.3877 83.267 95.3874 83.2675 95.3871 83.268C94.7317 84.2356 93.9901 85.215 93.1568 86.2052C93.38 86.7462 93.6031 87.2788 93.8263 87.7915C94.5574 86.8613 96.6051 83.9471 96.9026 83.3923C96.4037 83.3564 95.8975 83.3132 95.3881 83.2665Z" fill="#FBB921"/>
<path d="M83.1768 93.9661C83.1762 93.9663 83.1755 93.9666 83.1749 93.9668C82.1222 94.3284 81.0522 94.5458 79.9642 94.5995C80.6615 96.1406 81.3493 97.5285 82.014 98.7301C82.014 98.7301 85.1873 96.5451 87.4216 94.5306L87.4216 94.5241C86.0362 94.374 84.6176 94.1865 83.1768 93.9661Z" fill="#FBB921"/>
<path d="M80.1562 99.8496C78.2978 99.5718 76.4004 99.2327 74.4912 98.8514C74.7221 99.3435 74.9508 99.8168 75.1783 100.273C76.1031 100.544 77.0461 100.761 78.0001 100.92C78.5484 100.665 80.1562 99.8496 80.1562 99.8496Z" fill="#FBB921"/>
<path d="M90.5333 89.0474C90.5324 89.0483 90.5315 89.0492 90.5306 89.0502C89.4848 90.081 88.414 90.9985 87.3202 91.7763C87.5892 92.3751 87.8571 92.9591 88.1218 93.5095C88.2451 93.524 88.3646 93.5346 88.4879 93.5413C88.9985 93.0225 92.2632 89.6042 92.6049 89.257C91.9249 89.198 91.2319 89.1257 90.5333 89.0474Z" fill="#FBB921"/>
<path d="M60.8743 87.4667C61.4193 87.6446 61.9706 87.8212 62.5282 87.9963C61.9154 86.018 61.3254 83.9933 60.7814 81.9451C60.4373 81.823 60.1033 81.7002 59.7664 81.5776C59.7664 81.5786 59.7664 81.5795 59.7665 81.5805C59.8113 82.2846 59.8893 82.9932 60.0023 83.7074C60.1582 85.0156 60.4546 86.2712 60.8743 87.4667Z" fill="#FBB921"/>
<path d="M73.7484 99.8049C73.5596 99.4086 73.3703 99.0048 73.1795 98.5854C71.9446 98.3235 70.7087 98.0454 69.4756 97.7532C69.4773 97.7543 69.479 97.7554 69.4807 97.7565C70.821 98.5751 72.2541 99.2627 73.7463 99.8042C73.747 99.8044 73.7476 99.8046 73.7484 99.8049Z" fill="#FBB921"/>
<path d="M62.915 89.2328C62.3994 89.0744 61.889 88.9141 61.3825 88.7527C61.3827 88.7529 61.3827 88.7532 61.3829 88.7534C62.1262 90.4386 63.1189 91.9876 64.3096 93.3808C64.3109 93.3824 64.3124 93.3839 64.3138 93.3855C63.8371 92.0388 63.3683 90.6551 62.915 89.2328Z" fill="#FBB921"/>
<path d="M72.6381 97.373C71.83 95.5157 71.0125 93.4658 70.2172 91.2849C68.1644 90.7622 66.1344 90.2008 64.1618 89.612C64.802 91.5702 65.4608 93.4604 66.1284 95.253C66.4345 95.5309 66.7495 95.8006 67.0721 96.0612C68.9168 96.5347 70.7786 96.9716 72.6381 97.373Z" fill="#FBB921"/>
<path d="M66.3581 83.7874L66.3581 83.7873C64.8661 83.3286 63.4114 82.8582 62.0091 82.3744C62.5568 84.4109 63.1505 86.424 63.7708 88.3792C65.7241 88.972 67.7388 89.5411 69.7802 90.0677C69.7747 90.0522 69.7692 90.0363 69.7637 90.0207C69.7636 90.0206 69.7634 90.0204 69.7632 90.0203C68.2343 88.3373 67.0674 86.205 66.3581 83.7874Z" fill="#FBB921"/>
<path d="M93.8162 59.6644C93.817 59.6652 93.8178 59.666 93.8185 59.6667C93.7982 59.5728 93.7761 59.4786 93.7561 59.3848C94.1417 59.4586 94.5357 59.5281 94.9214 59.5944C94.9214 59.5944 94.5557 59.1807 94.2888 58.9232C94.022 58.6657 93.6106 58.2891 93.6106 58.2891L93.5457 58.2285L93.4917 58.1772C93.061 57.7686 92.6286 57.4016 92.1827 57.0316C92.2431 57.3584 92.3099 57.6865 92.3741 58.0172C92.1589 57.9742 91.9432 57.9271 91.7279 57.8829C91.7299 57.8844 91.7319 57.8859 91.734 57.8875C92.4383 58.4312 93.1322 59.0284 93.8162 59.6644Z" fill="#E18800"/>
<path d="M76.0185 55.0879C76.1134 55.9026 76.2219 56.7298 76.3431 57.5673C76.6753 57.3138 77.005 57.0785 77.3315 56.8614C77.3319 56.8611 77.3322 56.8609 77.3326 56.8607C77.2555 56.3041 77.1828 55.7511 77.1175 55.2049C77.7867 55.4132 78.4653 55.6177 79.1478 55.8201C79.693 55.5579 80.2303 55.3451 80.7602 55.1782C80.7615 55.1778 80.7628 55.1776 80.764 55.1772C79.6679 54.863 78.587 54.5399 77.5249 54.2081C77.5239 54.2086 77.523 54.2091 77.5221 54.2097C77.0156 54.4918 76.5142 54.7846 76.0185 55.0879Z" fill="#E18800"/>
<path d="M93.1562 86.2051C93.1557 86.2057 93.1553 86.2062 93.1549 86.2068C92.9014 86.508 92.6402 86.8092 92.3697 87.1123C92.5224 87.4774 92.6751 87.84 92.8277 88.1921C92.3869 88.1548 91.9408 88.1119 91.4923 88.0663C91.4919 88.0667 91.4916 88.0671 91.4912 88.0675C91.3238 88.2443 91.1535 88.4214 90.9801 88.5988C90.8318 88.7505 90.6831 88.8999 90.5337 89.0472C91.2323 89.1255 91.9253 89.1978 92.6052 89.2568C92.7932 89.0419 92.9757 88.8263 93.1559 88.611C93.2225 88.5314 93.2875 88.4523 93.3531 88.3728C93.5132 88.1784 93.6726 87.984 93.8258 87.7914C93.6025 87.2786 93.3794 86.746 93.1562 86.2051Z" fill="#E18800"/>
<path d="M98.6077 76.7809C98.4418 77.3096 98.2502 77.8434 98.0316 78.3834C98.2292 78.9407 98.4277 79.4923 98.6276 80.032C98.7162 79.8308 98.7975 79.631 98.8779 79.4314C98.9184 79.3308 98.9582 79.2306 98.9967 79.1305C99.0414 79.0141 99.0837 78.8986 99.1258 78.783C99.1566 78.6986 99.1907 78.6132 99.2201 78.5292C99.2198 78.5285 99.2196 78.5278 99.2193 78.5271C99.0161 77.9531 98.8118 77.3681 98.6084 76.7783C98.6082 76.7792 98.608 76.7801 98.6077 76.7809Z" fill="#E18800"/>
<path d="M99.1049 74.8564C99.0339 75.208 98.9515 75.5619 98.857 75.9194C99.2193 75.9498 99.5792 75.9785 99.9358 76.001C99.9776 75.8259 100.014 75.6507 100.047 75.476C100.049 75.4642 100.051 75.4525 100.053 75.4407C100.081 75.2916 100.106 75.143 100.131 74.9949C100.135 74.9729 100.139 74.9507 100.143 74.9288C100.142 74.9288 100.142 74.9287 100.142 74.9287C99.7985 74.9079 99.453 74.883 99.105 74.8557C99.105 74.856 99.105 74.8562 99.1049 74.8564Z" fill="#E18800"/>
<path d="M66.0559 73.5847C66.0561 73.5838 66.0563 73.5828 66.0565 73.5819C65.6142 71.683 65.2129 69.7889 64.8658 67.9188C65.734 68.2423 66.6324 68.5644 67.5516 68.8831C67.692 68.5572 67.8405 68.2309 67.9968 67.9055C67.9971 67.9049 67.9975 67.9043 67.9978 67.9036C66.8408 67.504 65.7165 67.0999 64.6441 66.6921C64.5892 66.3794 64.5385 66.0693 64.4865 65.7584C64.4859 65.7593 64.4852 65.7603 64.4846 65.7611C64.1187 66.291 63.7716 66.8284 63.4421 67.3764C63.5261 67.4088 63.6068 67.4414 63.6915 67.4737C64.1589 70.0578 64.7307 72.6988 65.3796 75.3391C63.7219 74.7669 62.1543 74.1856 60.6764 73.6025C60.6762 73.6032 60.676 73.6039 60.6757 73.6046C60.5744 73.9486 60.4806 74.2956 60.3947 74.644C62.0359 75.2867 63.7927 75.9279 65.6343 76.5549C65.7073 75.5782 65.8463 74.5872 66.0559 73.5847Z" fill="#E18800"/>
<path d="M96.0543 82.2396C96.0542 82.2397 96.0541 82.2398 96.0541 82.2399C95.8429 82.5803 95.6208 82.9227 95.3881 83.2663C95.8976 83.313 96.4036 83.3562 96.9026 83.3922C96.9782 83.2685 97.0497 83.1446 97.1216 83.0208C97.1781 82.9234 97.2338 82.8257 97.2883 82.7281C97.3595 82.6002 97.4309 82.4724 97.4989 82.3438C97.0228 82.3146 96.5409 82.2796 96.0543 82.2396Z" fill="#E18800"/>
<path d="M88.1222 93.5095C87.8576 92.9591 87.5896 92.3751 87.3206 91.7763C87.3199 91.7768 87.3191 91.7774 87.3183 91.778C87.0183 91.9913 86.717 92.1937 86.4135 92.3855C86.5658 92.7213 86.718 93.0548 86.8697 93.3771C86.2785 93.3083 85.6807 93.2322 85.0785 93.1505C85.0782 93.1507 85.0778 93.1508 85.0775 93.151C84.451 93.473 83.8173 93.7462 83.1772 93.9662C84.6179 94.1866 86.0365 94.3741 87.4219 94.5242L87.4219 94.5319C87.4908 94.4709 87.5597 94.4066 87.6286 94.3444C87.7683 94.2183 87.9081 94.0909 88.0479 93.96C88.1947 93.8225 88.3415 93.684 88.4884 93.5413C88.365 93.5346 88.2456 93.524 88.1222 93.5095Z" fill="#E18800"/>
<path d="M73.748 99.8051C74.2186 99.9758 74.6955 100.132 75.177 100.274C75.1772 100.274 75.1774 100.274 75.1776 100.274C74.9502 99.8177 74.7214 99.3443 74.4905 98.8523C76.3998 99.2336 78.2971 99.5727 80.1555 99.8505L82.0142 98.7304C81.3495 97.5287 80.6617 96.1408 79.9645 94.5998C79.9641 94.5998 79.9639 94.5999 79.9635 94.5999C79.5721 94.6191 79.1787 94.6173 78.783 94.5932C79.4853 96.1749 80.1793 97.612 80.8562 98.8668C78.5968 98.5382 76.2754 98.1255 73.9379 97.6513C73.1184 95.8211 72.2896 93.7829 71.4788 91.602C71.4796 91.6022 71.4803 91.6024 71.481 91.6025C71.4745 91.5976 71.4687 91.5931 71.4622 91.5881C71.0503 91.2722 70.6558 90.9283 70.281 90.5594C70.1041 90.3853 69.9317 90.2058 69.7634 90.0206C69.769 90.0361 69.7744 90.0521 69.7799 90.0676C67.7385 89.541 65.7238 88.9718 63.7705 88.379C63.1503 86.4239 62.5565 84.4108 62.0088 82.3742C63.4112 82.8581 64.8658 83.3285 66.3578 83.7872C66.2412 83.3899 66.1372 82.9854 66.0458 82.5734C66.0458 82.5733 66.0457 82.5732 66.0457 82.573C64.5412 82.102 63.077 81.6185 61.6715 81.1254C61.1542 79.1709 60.6824 77.1983 60.2563 75.2391C60.2559 75.241 60.2554 75.2429 60.255 75.2449C60.0488 76.1858 59.8998 77.1425 59.8122 78.1113C60.0187 78.9733 60.2306 79.8355 60.4512 80.6962C60.2059 80.6075 59.9633 80.5185 59.7221 80.4295C59.7221 80.4296 59.7221 80.4297 59.722 80.4298C59.7269 80.81 59.7414 81.1939 59.7658 81.5775C60.1027 81.7001 60.4367 81.823 60.7808 81.945C61.3248 83.9933 61.9148 86.0179 62.5275 87.9962C61.97 87.8211 61.4187 87.6445 60.8737 87.4666L60.8738 87.4667C61.0272 87.9036 61.197 88.3325 61.3825 88.753C61.8889 88.9145 62.3993 89.0748 62.9149 89.2331C63.3683 90.6554 63.837 92.0391 64.3137 93.3858C64.6937 93.8302 65.094 94.2592 65.5122 94.6708C65.7122 94.8675 65.9162 95.0604 66.1243 95.2494C66.1256 95.2506 66.127 95.2517 66.1283 95.253C65.4607 93.4603 64.8019 91.5701 64.1617 89.612C66.1343 90.2008 68.1643 90.7622 70.2172 91.2849C71.0125 93.4658 71.8299 95.5156 72.638 97.373C70.7786 96.9716 68.9168 96.5347 67.0721 96.0612C67.0736 96.0625 67.0751 96.0637 67.0766 96.065C67.8349 96.6772 68.6368 97.2409 69.4753 97.7534C70.7085 98.0456 71.9444 98.3237 73.1792 98.5855C73.3699 99.005 73.5593 99.4088 73.748 99.8051Z" fill="#E18800"/>
<path d="M84.4282 54.7251C84.4286 54.7252 84.429 54.7252 84.4294 54.7252C84.3399 54.1145 84.2558 53.5082 84.1813 52.911L83.0706 52.712C83.1502 53.3704 83.2417 54.0397 83.3384 54.7131C83.7051 54.6963 84.0684 54.7007 84.4282 54.7251Z" fill="#E18800"/>
<path d="M69.1274 61.4215C69.302 62.55 69.5008 63.6946 69.7178 64.8488C69.9911 64.428 70.2788 64.0094 70.5814 63.5929C70.5815 63.5928 70.5816 63.5927 70.5817 63.5926C70.4766 63.0022 70.3763 62.415 70.2821 61.832C70.7135 61.9811 71.1542 62.1289 71.5951 62.2766C71.7513 62.0849 71.9106 61.8938 72.0735 61.7034C72.1626 61.5992 72.251 61.4969 72.3397 61.3954C72.3404 61.3946 72.341 61.3939 72.3416 61.3932C71.5822 61.1407 70.831 60.8863 70.0991 60.6281C70.0474 60.2824 69.9985 59.9389 69.9517 59.5971C69.9517 59.5972 69.9515 59.5973 69.9515 59.5974C69.3971 60.0959 68.8586 60.6088 68.3373 61.1358C68.5992 61.2312 68.8611 61.3266 69.1274 61.4215Z" fill="#E18800"/>
<path d="M99.1631 68.644C99.4395 68.6754 99.7153 68.7061 99.9885 68.7342C99.9084 68.3574 99.813 67.9809 99.7061 67.6158C99.4382 67.587 99.1684 67.5559 98.8984 67.5243C98.8984 67.5246 98.8986 67.5249 98.8986 67.5252C99.0008 67.8926 99.0889 68.2651 99.1631 68.644Z" fill="#E18800"/>
<path d="M50.8484 83.6991C52.1353 84.2625 53.53 84.8328 55.0132 85.3986C54.4457 83.2966 53.9203 81.1675 53.4567 79.0532C52.7843 78.7506 52.1427 78.4553 51.5319 78.1599C51.5319 78.1599 51.5328 78.1505 51.4763 78.3561C50.9842 80.1456 50.7844 81.8534 50.838 83.4838C50.8383 83.4914 50.8383 83.4991 50.8386 83.5067C50.8395 83.5352 50.8395 83.564 50.8407 83.5924C50.8447 83.694 50.8484 83.6991 50.8484 83.6991Z" fill="#F39311"/>
<path d="M53.5793 91.9259C54.7843 92.363 56.0394 92.7958 57.3251 93.2206C56.638 91.1005 55.9773 88.9069 55.3588 86.6783C53.7946 86.094 52.3151 85.5013 50.9511 84.9154C50.9577 84.9677 50.966 85.0194 50.9731 85.0716C50.987 85.1735 51.0001 85.2756 51.016 85.3769C51.0163 85.3783 51.0165 85.3796 51.0167 85.381C51.0311 85.4729 51.0483 85.5638 51.0644 85.6551C51.0771 85.7273 51.0884 85.7998 51.1021 85.8717C51.1087 85.9061 51.1166 85.9401 51.1234 85.9745C51.1432 86.0749 51.1639 86.175 51.1857 86.2748C51.192 86.3034 51.1973 86.3325 51.2037 86.3612C51.2155 86.4137 51.2291 86.4657 51.2415 86.518C51.2659 86.6218 51.29 86.7257 51.3164 86.8288C51.3327 86.8923 51.3509 86.9553 51.368 87.0185C51.3935 87.1128 51.4185 87.2073 51.4457 87.3011C51.4651 87.3681 51.4863 87.4345 51.5066 87.5011C51.5337 87.5904 51.5605 87.6799 51.5893 87.7687C51.6113 87.8369 51.6349 87.9044 51.6578 87.9722C51.6871 88.059 51.7162 88.146 51.747 88.2323C51.7714 88.3008 51.7973 88.3688 51.8227 88.4369C51.8541 88.5216 51.8853 88.6062 51.9182 88.6904C51.9452 88.7597 51.9736 88.8286 52.0016 88.8976C52.0349 88.9797 52.0681 89.062 52.1028 89.1437C52.1324 89.2136 52.1633 89.283 52.1938 89.3526C52.229 89.4326 52.2641 89.5127 52.3005 89.5923C52.3326 89.6625 52.3658 89.7324 52.3989 89.8022C52.4359 89.8805 52.473 89.9586 52.5112 90.0365C52.5456 90.1065 52.5809 90.1761 52.6162 90.2458C52.6553 90.323 52.6946 90.4 52.7348 90.4767C52.7712 90.546 52.8084 90.6151 52.8457 90.6841C52.887 90.7605 52.9286 90.8369 52.971 90.9129C53.0093 90.9814 53.0482 91.0497 53.0874 91.1178C53.1308 91.1933 53.1745 91.2687 53.219 91.3438C53.2593 91.4119 53.3002 91.4798 53.3414 91.5475C53.3869 91.6222 53.4327 91.6968 53.4793 91.771C53.4996 91.8035 53.5191 91.8364 53.5397 91.8689C53.542 91.8728 53.5793 91.9259 53.5793 91.9259Z" fill="#F39311"/>
<path d="M51.8625 77.1185C52.2838 77.3269 52.7207 77.5352 53.1768 77.7472C52.9887 76.8668 52.8162 75.9941 52.6514 75.1289C52.5588 75.3294 52.0375 76.678 51.8625 77.1185Z" fill="#F39311"/>
<path d="M66.1288 95.2529C66.1275 95.2516 66.126 95.2505 66.1247 95.2493C66.2034 95.4606 66.2823 95.6705 66.3612 95.8789C66.5994 95.9415 66.8381 96.0035 67.077 96.0648C67.0755 96.0636 67.0741 96.0623 67.0726 96.0611C66.7499 95.8004 66.4349 95.5307 66.1288 95.2529Z" fill="#F39311"/>
<path d="M69.951 59.5979C69.951 59.5979 69.9511 59.5978 69.9512 59.5977C71.8187 57.9185 73.8642 56.4052 76.0176 55.0879C76.0084 55.009 75.9993 54.9301 75.9904 54.8514C75.2533 54.6148 74.5275 54.3742 73.8096 54.1335C72.5452 54.6717 71.2404 55.3568 69.8921 56.2042C69.8882 56.2066 69.8844 56.2091 69.8805 56.2115C69.7808 56.2742 69.6799 56.3412 69.5797 56.4057C69.6789 57.45 69.8026 58.514 69.951 59.5979Z" fill="#F39311"/>
<path d="M74.8646 102.03C74.4969 101.342 74.1237 100.598 73.746 99.8045C72.2539 99.263 70.8207 98.5755 69.4805 97.7568C68.597 97.5475 67.7152 97.3301 66.8365 97.1038C67.6142 99.0831 68.3985 100.916 69.1696 102.553C70.9732 102.711 72.8679 102.56 74.8646 102.03Z" fill="#F39311"/>
<path d="M60.395 74.6456C60.2969 74.6072 60.1992 74.5688 60.1019 74.5304C60.1523 74.7684 60.2035 75.0068 60.2554 75.2453C60.2558 75.2434 60.2563 75.2415 60.2567 75.2395C60.3004 75.0406 60.3464 74.8432 60.395 74.6456Z" fill="#F39311"/>
<path d="M61.1475 63.4561C60.5786 64.0342 60.0631 64.5961 59.9117 64.7539C61.0171 65.2457 62.2071 65.7445 63.4703 66.2388C63.2156 64.7352 62.9959 63.2582 62.8188 61.8232C62.8188 61.8232 62.7014 61.9243 62.6262 61.9979C62.551 62.0716 61.692 62.9028 61.1475 63.4561Z" fill="#F39311"/>
<path d="M75.8401 53.3826C75.6912 53.4291 75.5405 53.4817 75.3903 53.5324C75.5475 53.581 75.7085 53.6331 75.8694 53.6854C75.8609 53.5857 75.8486 53.4823 75.8401 53.3826Z" fill="#F39311"/>
<path d="M61.3826 88.753C59.7272 88.2253 58.1241 87.6823 56.5978 87.1341C57.224 89.3473 57.8885 91.5292 58.583 93.6262C60.6833 94.2949 62.868 94.9397 65.0949 95.5419C64.8309 94.8345 64.5688 94.1135 64.3093 93.3804C63.1187 91.9873 62.1259 90.4383 61.3826 88.753Z" fill="#F39311"/>
<path d="M60.0018 83.7071C59.8888 82.9929 59.8108 82.2843 59.766 81.5802C57.9491 80.9189 56.2406 80.2502 54.6776 79.583C55.1489 81.6819 55.6778 83.784 56.2451 85.8629C57.7188 86.406 59.2676 86.9421 60.8738 87.4665C60.8738 87.4665 60.8738 87.4664 60.8737 87.4664C60.4541 86.271 60.1577 85.0153 60.0018 83.7071Z" fill="#F39311"/>
<path d="M57.7393 94.4774C56.6777 94.1355 55.6392 93.7858 54.6314 93.4357C55.2156 94.2028 55.8557 94.9467 56.5439 95.669C56.5523 95.6779 56.5613 95.6864 56.5697 95.6952C56.7911 95.927 57.0168 96.1568 57.2479 96.3841C57.2526 96.3888 57.2575 96.3936 57.2622 96.3982C57.2637 96.3997 57.2653 96.4012 57.2668 96.4027C57.2702 96.406 57.2739 96.4097 57.2773 96.413C57.2787 96.4145 57.2803 96.416 57.2818 96.4174C57.2865 96.4221 57.2913 96.4268 57.296 96.4315C57.297 96.4325 57.2978 96.4333 57.2988 96.4342C57.3026 96.4379 57.3065 96.4418 57.3103 96.4455C57.3118 96.4469 57.3135 96.4486 57.315 96.4501C57.3252 96.4601 57.3351 96.4697 57.3453 96.4797L57.346 96.4804C57.3588 96.4929 57.3719 96.5043 57.3846 96.5167C57.6483 96.7733 57.9147 97.0235 58.1838 97.2675C58.2096 97.2909 58.2355 97.3144 58.2614 97.3377C58.4875 97.5413 58.7169 97.7373 58.9471 97.9315C58.5384 96.8121 58.1331 95.6582 57.7393 94.4774Z" fill="#F39311"/>
<path d="M65.5596 96.771C63.3213 96.1805 61.1289 95.5434 59.0057 94.8827C59.5141 96.3683 60.0299 97.8077 60.5529 99.1856C60.6642 99.2651 60.7755 99.3442 60.8876 99.4214C60.9085 99.4357 60.9295 99.4498 60.9504 99.4641C61.0827 99.5545 61.2156 99.6434 61.3492 99.7304C61.3678 99.7426 61.3864 99.7546 61.405 99.7667C61.546 99.858 61.6876 99.9475 61.83 100.035C61.8394 100.041 61.8488 100.047 61.8581 100.052C63.7474 101.209 65.7589 102.025 67.9061 102.395C67.1305 100.692 66.3379 98.7969 65.5596 96.771Z" fill="#F39311"/>
<path d="M54.8983 71.0668C56.0273 71.6277 57.2834 72.1991 58.6435 72.7736C58.2781 70.9088 57.9591 69.0668 57.7021 67.2705C57.7021 67.2705 57.5808 67.408 57.4161 67.6115C57.4153 67.6125 57.4145 67.6135 57.4137 67.6145C56.3416 68.9397 54.8983 71.0668 54.8983 71.0668Z" fill="#F39311"/>
<path d="M59.7225 80.4295L59.7225 80.4292C59.7127 79.6507 59.7431 78.8811 59.8119 78.1178C59.4857 76.7566 59.1788 75.3965 58.8965 74.0463C57.212 73.3512 55.67 72.6589 54.3167 71.9842L53.4509 73.5008C53.7254 75.0774 54.0425 76.6807 54.3903 78.2914C56.011 79.0039 57.8019 79.7209 59.7225 80.4295Z" fill="#F39311"/>
<path d="M63.4418 67.3773C61.8989 66.7823 60.461 66.1806 59.1444 65.5882C59.1444 65.5882 58.918 65.8375 58.6333 66.1642C58.9366 68.4639 59.3484 70.8476 59.8375 73.269C60.1134 73.3808 60.3932 73.4926 60.6762 73.6043C60.6765 73.6036 60.6767 73.6029 60.6769 73.6022C61.3163 71.4306 62.2577 69.3468 63.4418 67.3773Z" fill="#F39311"/>
<path d="M76.9931 54.0426C77.169 54.0984 77.3454 54.1539 77.5224 54.2093C77.5233 54.2088 77.5243 54.2082 77.5252 54.2077C78.5932 53.6127 79.6823 53.0658 80.7861 52.5693C79.5363 52.5827 78.2409 52.7483 76.8969 53.0854C76.9301 53.4006 76.9597 53.7197 76.9931 54.0426Z" fill="#F39311"/>
<path d="M75.9263 101.715C76.606 101.494 77.2968 101.229 77.9995 100.92C77.0454 100.761 76.1025 100.545 75.1777 100.273C75.1775 100.273 75.1772 100.273 75.177 100.273C75.4284 100.777 75.6779 101.258 75.9263 101.715Z" fill="#F39311"/>
<path d="M65.9275 59.0758C66.8933 59.4609 67.9014 59.8418 68.948 60.2222C68.7971 59.1645 68.6655 58.118 68.5572 57.0947C68.8617 56.8755 69.1687 56.6728 69.4713 56.4761C69.3872 56.5307 69.3037 56.5829 69.2193 56.6388C69.209 56.6456 69.1989 56.6522 69.1886 56.659C68.9662 56.8065 68.7425 56.9583 68.5178 57.1145C68.5126 57.1181 68.5075 57.1216 68.5023 57.1251C67.812 57.6054 67.1106 58.1278 66.3978 58.6934C66.3641 58.7201 66.33 58.7481 66.2962 58.7751C66.1516 58.8905 65.9275 59.0758 65.9275 59.0758Z" fill="#F39311"/>
<path d="M64.4864 65.7585C65.6145 64.1252 66.9104 62.5791 68.3357 61.1381C67.1725 60.7144 66.0535 60.2857 64.9936 59.8541C64.9936 59.8541 64.856 59.9715 64.7729 60.0435C64.6228 60.1734 64.4722 60.3051 64.3211 60.4388C64.2306 60.5189 64.14 60.5996 64.0491 60.6811C63.9667 60.755 63.8837 60.831 63.8009 60.9061C63.9757 62.4807 64.2083 64.1068 64.4846 65.7613C64.4852 65.7603 64.4858 65.7594 64.4864 65.7585Z" fill="#F39311"/>
<path d="M57.7018 67.271C57.9588 69.0672 58.2777 70.9093 58.6431 72.7741C57.283 72.1996 56.0269 71.6281 54.8979 71.0673C54.6925 71.377 54.5023 71.6789 54.3161 71.9846C55.6694 72.6593 57.2114 73.3516 58.8959 74.0467C59.1781 75.3969 59.4851 76.7569 59.8112 78.1181C59.8115 78.1159 59.8118 78.1136 59.8119 78.1114C59.8995 77.1426 60.0486 76.1858 60.2547 75.245C60.2028 75.0064 60.1517 74.768 60.1012 74.53C60.1985 74.5684 60.2961 74.6069 60.3943 74.6453C60.3945 74.6447 60.3947 74.6442 60.3948 74.6437C60.4807 74.2953 60.5745 73.9483 60.6758 73.6043C60.3927 73.4926 60.113 73.3807 59.837 73.269C59.348 70.8476 58.9361 68.4638 58.6328 66.1641L58.6328 66.1641C58.6016 66.1999 58.5707 66.2356 58.5397 66.2714C58.5181 66.2963 58.4963 66.3213 58.4747 66.3462C58.4727 66.3486 58.4706 66.351 58.4686 66.3534C58.2053 66.6617 57.9482 66.9691 57.7018 67.271Z" fill="#DC6D03"/>
<path d="M75.1774 100.273C74.696 100.132 74.219 99.9756 73.7485 99.8049C73.7478 99.8046 73.7471 99.8044 73.7464 99.8042C74.124 100.597 74.4972 101.342 74.8649 102.03C75.2158 101.937 75.5695 101.832 75.9266 101.716C75.6783 101.259 75.4287 100.778 75.1774 100.273Z" fill="#DC6D03"/>
<path d="M59.005 94.8828C61.1283 95.5435 63.3207 96.1806 65.559 96.7712C66.3372 98.797 67.1298 100.692 67.9055 102.395C67.9254 102.398 67.9457 102.402 67.9656 102.405L69.0747 102.545L69.1711 102.557C69.1705 102.556 69.1699 102.554 69.1693 102.553C68.3981 100.916 67.6139 99.0829 66.8362 97.1036C67.7148 97.3298 68.5966 97.5473 69.4802 97.7566C69.4784 97.7556 69.4768 97.7544 69.475 97.7533C68.6365 97.2408 67.8346 96.6771 67.0763 96.0649C66.8374 96.0036 66.5986 95.9416 66.3604 95.879C66.2815 95.6706 66.2027 95.4607 66.124 95.2494C65.9159 95.0604 65.7119 94.8675 65.5119 94.6708C65.0937 94.2592 64.6934 93.8302 64.3134 93.3858C64.312 93.3842 64.3105 93.3827 64.3091 93.3811C64.5686 94.1142 64.8308 94.8352 65.0947 95.5425C62.8679 94.9404 60.6832 94.2955 58.5829 93.6269C57.8883 91.5299 57.2239 89.3479 56.5977 87.1348C58.1239 87.6829 59.727 88.226 61.3825 88.7537C61.3824 88.7534 61.3822 88.7532 61.3821 88.753C61.1967 88.3325 61.0269 87.9036 60.8734 87.4667C59.2672 86.9423 57.7185 86.4062 56.2448 85.863C55.6774 83.7842 55.1485 81.6821 54.6772 79.5832C56.2402 80.2504 57.9488 80.9191 59.7656 81.5803C59.7655 81.5793 59.7656 81.5784 59.7655 81.5774C59.7412 81.1938 59.7266 80.8099 59.7218 80.4297C57.8013 79.7211 56.0103 79.004 54.3896 78.2916C54.0418 76.6809 53.7247 75.0776 53.4502 73.501C53.3054 73.7697 53.1683 74.0365 53.0378 74.3019C53.0363 74.305 53.0345 74.3081 53.033 74.3112C53.0295 74.3184 53.026 74.3257 53.0225 74.3328C53.0199 74.3381 53.0177 74.3433 53.0152 74.3486C52.8874 74.6097 52.7656 74.8697 52.6507 75.1286C52.8155 75.9937 52.9881 76.8665 53.1761 77.7468C52.72 77.5349 52.2831 77.3265 51.8618 77.1181C51.8046 77.2799 51.7507 77.4406 51.6991 77.6006C51.698 77.604 51.6967 77.6074 51.6956 77.6108C51.6845 77.6453 51.6745 77.6797 51.6637 77.7142C51.6613 77.7217 51.6594 77.7291 51.657 77.7366C51.6128 77.8785 51.5695 78.02 51.5313 78.1605C52.1421 78.4559 52.7837 78.7512 53.4561 79.0539C53.9198 81.1681 54.4451 83.2973 55.0126 85.3992C53.5294 84.8335 52.1347 84.2631 50.8478 83.6997C50.8523 83.824 50.8586 83.948 50.8665 84.0713C50.8666 84.073 50.8667 84.0748 50.8668 84.0765C50.8689 84.1052 50.873 84.1333 50.8751 84.162C50.8753 84.1642 50.8756 84.1664 50.8758 84.1687C50.8919 84.3772 50.9119 84.5842 50.9363 84.7902C50.9382 84.8064 50.939 84.8228 50.941 84.839C50.9424 84.8508 50.943 84.863 50.9445 84.8748C50.9446 84.8761 50.9448 84.8776 50.945 84.8789C50.9456 84.8839 50.9463 84.8888 50.9469 84.8937C50.9479 84.901 50.9489 84.9084 50.9498 84.9156C50.9499 84.9157 50.95 84.9158 50.9501 84.9158C52.3141 85.5017 53.7936 86.0944 55.3578 86.6788C55.9763 88.9073 56.637 91.1008 57.324 93.2211C56.0383 92.7962 54.7833 92.3634 53.5783 91.9263C53.6563 92.051 53.7359 92.1744 53.817 92.297C53.8171 92.2973 53.8174 92.2976 53.8175 92.2979C53.8335 92.3218 53.8506 92.3451 53.8667 92.3689C53.905 92.4258 53.9451 92.4819 53.984 92.5386C54.0433 92.6247 54.1019 92.7111 54.1625 92.7966C54.1679 92.8043 54.173 92.812 54.1784 92.8196C54.1934 92.8408 54.208 92.8622 54.2231 92.8834C54.3437 93.0518 54.4675 93.2188 54.5934 93.3851C54.5938 93.3856 54.5942 93.3862 54.5946 93.3867C54.6068 93.4028 54.6182 93.4193 54.6305 93.4354C55.6383 93.7854 56.6769 94.1352 57.7384 94.4771C58.1323 95.658 58.5376 96.8119 58.9463 97.9313C58.947 97.9332 58.9477 97.9351 58.9484 97.937C58.9484 97.937 58.9484 97.937 58.9484 97.937C59.0068 97.9869 59.0654 98.0363 59.1243 98.0854C59.1265 98.0872 59.1286 98.0888 59.1308 98.0906C59.2179 98.1628 59.3073 98.2296 59.3952 98.3005C59.5573 98.4315 59.7195 98.5623 59.8836 98.6884C59.9206 98.7168 59.9567 98.7477 59.9938 98.7759C60.1674 98.9073 60.342 99.0353 60.5168 99.1609C60.5213 99.1641 60.5257 99.1676 60.5302 99.1708C60.5377 99.1762 60.5452 99.182 60.5526 99.1873C60.5526 99.1871 60.5525 99.1868 60.5524 99.1866C60.5523 99.1863 60.5522 99.1861 60.552 99.1858C60.0293 97.8079 59.5135 96.3685 59.005 94.8828Z" fill="#DC6D03"/>
<path d="M77.5226 54.2095C77.3456 54.1542 77.1692 54.0987 76.9933 54.0428C76.96 53.72 76.9304 53.4009 76.8972 53.0856C76.5482 53.1732 76.1963 53.2722 75.8406 53.3833C75.849 53.483 75.8614 53.5863 75.8698 53.6861C75.7089 53.6338 75.548 53.5816 75.3907 53.5331C75.3896 53.5328 75.3884 53.5323 75.3872 53.532C75.2936 53.5631 75.1998 53.5951 75.1059 53.628C75.0036 53.6642 74.9002 53.7044 74.7973 53.7426C74.7045 53.7771 74.6121 53.81 74.5188 53.846C74.2975 53.9317 74.0751 54.0211 73.8513 54.1158C73.8373 54.1218 73.8233 54.1278 73.8093 54.1338C73.8095 54.1339 73.8097 54.134 73.81 54.134C74.5279 54.3747 75.2536 54.6153 75.9908 54.8519C75.9997 54.9306 76.0088 55.0094 76.018 55.0884C76.0183 55.0882 76.0187 55.088 76.019 55.0878C76.5148 54.7845 77.0162 54.4917 77.5226 54.2095Z" fill="#DC6D03"/>
<path d="M69.9515 59.5978C69.8031 58.5139 69.6794 57.4499 69.5802 56.4056C69.5802 56.4052 69.5802 56.4048 69.5801 56.4045C69.5443 56.4277 69.5077 56.4523 69.4716 56.4757C69.169 56.6725 68.862 56.8752 68.5575 57.0944C68.6658 58.1178 68.7973 59.1642 68.9483 60.2219C67.9017 59.8414 66.8936 59.4605 65.9278 59.0754C65.6178 59.3283 65.3118 59.5849 64.9944 59.8531C66.0542 60.2848 67.1732 60.7135 68.3364 61.1371C68.3367 61.1368 68.337 61.1365 68.3372 61.1362C68.8586 60.6092 69.3972 60.0962 69.9515 59.5978Z" fill="#DC6D03"/>
<path d="M62.8182 61.8237C62.9953 63.2587 63.215 64.7357 63.4697 66.2393C62.2064 65.745 61.0164 65.2462 59.9111 64.7544C59.7781 64.8935 59.6489 65.0325 59.5221 65.171C59.5201 65.1732 59.5181 65.1754 59.5161 65.1776C59.3902 65.3152 59.2664 65.4523 59.1438 65.5885C60.4604 66.1809 61.8983 66.7826 63.4412 67.3776C63.4414 67.3772 63.4418 67.3768 63.442 67.3763C63.7715 66.8284 64.1186 66.2909 64.4845 65.7611C64.2082 64.1066 63.9757 62.4804 63.8009 60.9059C63.8008 60.905 63.8007 60.9042 63.8006 60.9033C63.7689 60.9325 63.7368 60.9624 63.705 60.9916C63.6837 61.0113 63.6622 61.0313 63.6408 61.051C63.3679 61.3026 63.0932 61.5572 62.8182 61.8237Z" fill="#DC6D03"/>
<path d="M84.9961 89.0829C82.7708 89.4213 80.344 88.8622 77.8087 86.9138C77.7678 86.8824 77.7271 86.8506 77.6867 86.8185C77.3807 86.7491 77.0747 86.6787 76.769 86.6075C77.47 88.5581 78.1819 90.4201 78.8927 92.1357C80.9889 92.534 83.0619 92.8776 85.078 93.1511C85.0783 93.151 85.0787 93.1508 85.0789 93.1506C85.5269 92.9204 85.9718 92.6649 86.4126 92.3865C85.9421 91.3488 85.4689 90.2466 84.9961 89.0829Z" fill="#FECC4C"/>
<path d="M91.6068 85.2379C90.6877 86.2003 89.675 87.0564 88.5841 87.7227C89.5677 87.8552 90.538 87.9707 91.4916 88.0677C91.492 88.0673 91.4923 88.0669 91.4927 88.0665C91.794 87.7483 92.0866 87.4301 92.369 87.1137C92.1146 86.5053 91.8605 85.8795 91.6068 85.2379Z" fill="#FECC4C"/>
<path d="M75.1121 85.1073C74.426 83.1027 73.7623 81.0131 73.1329 78.8809C70.9908 78.2781 68.8986 77.6402 66.8985 76.9785C67.4549 79.1382 68.0575 81.2822 68.698 83.3719C70.7901 83.9866 72.9398 84.574 75.1121 85.1073Z" fill="#FECC4C"/>
<path d="M70.5137 68.7463C70.2252 67.4393 69.9581 66.1384 69.7158 64.8506C69.0609 65.8592 68.4894 66.8791 67.9976 67.9023C67.9973 67.9029 67.997 67.9035 67.9966 67.9042C68.8181 68.1878 69.6583 68.4688 70.5137 68.7463Z" fill="#FECC4C"/>
<path d="M93.1453 61.5852C92.9597 60.7751 92.7815 59.9655 92.6109 59.1583C90.0266 58.6475 87.4264 58.0522 84.8564 57.395C85.0131 58.3051 85.1831 59.2233 85.3652 60.1471C88.4267 59.1199 91.0806 59.9277 93.1453 61.5852Z" fill="#FECC4C"/>
<path d="M78.4228 63.2735C78.928 63.4175 79.436 63.5594 79.9463 63.6993C81.4795 62.2103 82.9528 61.1891 84.3493 60.5507C84.1177 59.3903 83.9046 58.2383 83.7106 57.1006C82.1659 56.6926 80.6411 56.2645 79.146 55.8211C78.5512 56.1073 77.947 56.4524 77.3331 56.8606C77.3328 56.8608 77.3324 56.861 77.332 56.8612C77.6205 58.9429 77.9892 61.0929 78.4228 63.2735Z" fill="#FECC4C"/>
<path d="M78.1257 93.0769C75.9165 92.6443 73.6912 92.1501 71.481 91.6019C73.9845 93.5173 76.4226 94.4489 78.7825 94.5925C78.5643 94.101 78.3452 93.5954 78.1257 93.0769Z" fill="#FECC4C"/>
<path d="M69.7632 90.0207C69.1033 88.1652 68.4619 86.2301 67.8464 84.238C67.3466 84.0892 66.8502 83.9391 66.358 83.7879C67.0673 86.2054 68.2341 88.3377 69.7632 90.0207Z" fill="#FECC4C"/>
<path d="M77.2602 62.9325C76.9046 61.1143 76.5956 59.3189 76.342 57.5679C75.0529 58.5519 73.7206 59.8149 72.3408 61.3944C72.3402 61.3951 72.3395 61.3958 72.3389 61.3965C73.9266 61.9243 75.5716 62.4384 77.2602 62.9325Z" fill="#FECC4C"/>
<path d="M66.5769 75.745C68.5655 76.4107 70.6424 77.0564 72.7807 77.6708C72.0556 75.1312 71.3841 72.545 70.7897 69.9581C69.6841 69.6076 68.6025 69.2481 67.5513 68.8837C66.8746 70.4546 66.3813 72.0296 66.0568 73.5815C66.0566 73.5824 66.0563 73.5834 66.0561 73.5844C66.2238 74.3041 66.3976 75.0247 66.5769 75.745Z" fill="#FECC4C"/>
<path d="M65.6864 76.5726C65.6692 76.5667 65.6519 76.5608 65.6347 76.555C65.4776 78.6597 65.6281 80.69 66.046 82.5733C66.046 82.5734 66.046 82.5735 66.046 82.5736C66.5171 82.7211 66.9923 82.8674 67.4709 83.0123C66.8378 80.8994 66.2391 78.7439 65.6864 76.5726Z" fill="#FECC4C"/>
<path d="M71.6991 69.1274C72.8508 69.4889 74.0261 69.8439 75.2187 70.1884C75.8836 68.7554 76.7647 67.3305 77.8845 65.9521C77.7492 65.3395 77.6185 64.7276 77.4929 64.1172C75.465 63.534 73.487 62.9148 71.5928 62.2801C71.2385 62.7151 70.9015 63.1531 70.5809 63.5942C70.5808 63.5943 70.5807 63.5944 70.5807 63.5946C70.9049 65.415 71.2799 67.267 71.6991 69.1274Z" fill="#FECC4C"/>
<path d="M74.7957 71.1744C73.8435 70.8989 72.9021 70.6169 71.9749 70.3298C72.4702 72.4512 73.0201 74.5747 73.6074 76.6619C73.6818 74.8897 74.0618 73.0322 74.7957 71.1744Z" fill="#FECC4C"/>
<path d="M69.0778 84.6012C69.7099 86.5986 70.3609 88.5381 71.0304 90.3888C73.2221 90.9412 75.4327 91.4433 77.6351 91.8839C76.9279 90.1413 76.216 88.2717 75.5264 86.3094C73.3502 85.78 71.1853 85.2082 69.0778 84.6012Z" fill="#FECC4C"/>
<path d="M79.0919 64.5709C78.9486 64.5309 78.8055 64.4906 78.6626 64.4502C78.696 64.6095 78.7298 64.769 78.7638 64.9284C78.8733 64.8071 78.983 64.6875 79.0919 64.5709Z" fill="#FECC4C"/>
<path d="M98.6072 76.781C98.6074 76.7801 98.6077 76.7793 98.6079 76.7784C98.6982 76.4907 98.7808 76.2046 98.8559 75.9204C98.6708 75.9049 98.4847 75.8885 98.2972 75.8719C98.3998 76.1767 98.5033 76.4798 98.6072 76.781Z" fill="#FECC4C"/>
<path d="M97.1533 75.8398C96.5822 77.8186 95.604 79.9024 94.1368 82.0573C94.7836 82.127 95.4228 82.1879 96.0534 82.2398C96.0535 82.2397 96.0536 82.2395 96.0536 82.2394C96.8665 80.9289 97.5216 79.6415 98.0306 78.3849C97.7356 77.5531 97.4432 76.7032 97.1533 75.8398Z" fill="#FECC4C"/>
<path d="M97.4235 68.4294C97.8165 70.0689 97.9064 71.8665 97.6097 73.7856C97.7135 74.1101 97.8179 74.4328 97.9228 74.7542C98.3214 74.7917 98.7147 74.8259 99.1044 74.8565C99.1044 74.8563 99.1044 74.8561 99.1045 74.8559C99.5482 72.6591 99.5415 70.5776 99.1635 68.6448C98.5891 68.5796 98.0085 68.5076 97.4235 68.4294Z" fill="#FECC4C"/>
<path d="M86.8897 88.5696C86.6183 88.6756 86.3427 88.7692 86.0639 88.8489C86.4832 89.8724 86.9028 90.8524 87.3185 91.778C87.3193 91.7775 87.32 91.7768 87.3208 91.7763C88.4146 90.9985 89.4854 90.081 90.5312 89.0502C89.34 88.9166 88.1237 88.7557 86.8897 88.5696Z" fill="#FECC4C"/>
<path d="M93.4196 83.0642C93.2316 83.3165 93.0374 83.5691 92.8359 83.8231C92.696 83.9993 92.5536 84.1734 92.408 84.3454C92.6564 84.9814 92.9055 85.6026 93.1548 86.2072C93.1552 86.2066 93.1557 86.206 93.1562 86.2055C93.9894 85.2153 94.731 84.2358 95.3864 83.2683C94.7385 83.2089 94.0826 83.1408 93.4196 83.0642Z" fill="#FECC4C"/>
<path d="M79.3992 93.3209C79.588 93.7579 79.7765 94.1842 79.9642 94.5992C79.9645 94.5992 79.9648 94.5991 79.9651 94.5991C81.053 94.5454 82.1231 94.328 83.1758 93.9663C81.9318 93.7761 80.6711 93.5605 79.3992 93.3209Z" fill="#FECC4C"/>
<path d="M84.662 56.2418C87.0013 56.8481 89.3724 57.4024 91.7339 57.8871C91.7319 57.8856 91.7299 57.8842 91.7278 57.8826C89.4307 56.1102 87.0172 54.9008 84.429 54.725C84.4286 54.7249 84.4282 54.7249 84.4277 54.7249C84.5014 55.2272 84.5797 55.7333 84.662 56.2418Z" fill="#FECC4C"/>
<path d="M83.5199 55.942C83.4556 55.5302 83.3941 55.1199 83.3355 54.712C82.4974 54.7506 81.6409 54.9003 80.7641 55.1759C80.7628 55.1763 80.7616 55.1765 80.7603 55.177C81.6711 55.4381 82.5917 55.693 83.5199 55.942Z" fill="#FECC4C"/>
<path d="M94.5691 62.9551C95.6608 64.1879 96.5358 65.6502 97.0958 67.2976C97.7017 67.3802 98.3027 67.4564 98.8986 67.526C98.8985 67.5257 98.8984 67.5253 98.8983 67.5251C98.1456 64.8173 96.6495 62.4309 94.6487 60.4618C94.3733 60.1908 94.0968 59.9258 93.8184 59.6668C93.8176 59.6661 93.8169 59.6653 93.8161 59.6645C94.0526 60.7592 94.3043 61.8575 94.5691 62.9551Z" fill="#FECC4C"/>
<path d="M88.5836 87.7233C88.0376 88.0568 87.4724 88.3425 86.8893 88.5702C88.1233 88.7563 89.3396 88.9172 90.5309 89.0509C90.5318 89.0499 90.5327 89.049 90.5336 89.0481C90.683 88.9008 90.8317 88.7514 90.9801 88.5996C91.1534 88.4222 91.3237 88.2452 91.4912 88.0683C90.5375 87.9714 89.5671 87.8559 88.5836 87.7233Z" fill="#EFA800"/>
<path d="M77.493 64.1156C77.6186 64.726 77.7493 65.3378 77.8846 65.9504C78.0021 65.8058 78.1225 65.6613 78.2453 65.5178C78.4189 65.3147 78.5914 65.1183 78.7637 64.9272C78.7297 64.7677 78.6959 64.6083 78.6625 64.449C78.8054 64.4894 78.9485 64.5297 79.0919 64.5697C79.3785 64.2629 79.6628 63.9728 79.9455 63.6983C79.4353 63.5584 78.9273 63.4165 78.422 63.2726C77.9884 61.092 77.6197 58.9419 77.3314 56.8603C77.0049 57.0774 76.6752 57.3127 76.343 57.5662C76.3427 57.5664 76.3424 57.5666 76.3422 57.5669C76.5957 59.3178 76.9047 61.1133 77.2603 62.9315C75.5717 62.4373 73.9268 61.9232 72.339 61.3955C72.2503 61.497 72.1619 61.5993 72.0728 61.7035C71.9099 61.894 71.7505 62.0849 71.5943 62.2767C71.5939 62.2774 71.5934 62.2779 71.5929 62.2785C73.4871 62.9131 75.4651 63.5323 77.493 64.1156Z" fill="#EFA800"/>
<path d="M86.0643 88.8486C85.7137 88.9489 85.358 89.0274 84.9963 89.0824C85.4691 90.2461 85.9422 91.3484 86.4128 92.3861C86.4132 92.3858 86.4137 92.3854 86.4141 92.3851C86.7176 92.1934 87.0189 91.991 87.319 91.7776C86.9032 90.852 86.4836 89.8721 86.0643 88.8486Z" fill="#EFA800"/>
<path d="M92.4082 84.3457C92.1499 84.6511 91.8821 84.9498 91.6065 85.2384C91.8601 85.88 92.1143 86.5058 92.3687 87.1142C92.3691 87.1138 92.3694 87.1134 92.3698 87.113C92.6403 86.8099 92.9015 86.5087 93.1549 86.2075C92.9056 85.6028 92.6566 84.9817 92.4082 84.3457Z" fill="#EFA800"/>
<path d="M97.9227 74.7548C97.8178 74.4334 97.7134 74.1106 97.6097 73.7861C97.506 74.4565 97.355 75.1423 97.1534 75.8406C97.4433 76.704 97.7357 77.5538 98.0307 78.3856C98.0308 78.3851 98.031 78.3845 98.0313 78.384C98.2499 77.844 98.4415 77.3103 98.6074 76.7816C98.5035 76.4804 98.4001 76.1773 98.2974 75.8724C98.4849 75.8891 98.671 75.9054 98.8561 75.9209C98.8562 75.9207 98.8562 75.9204 98.8563 75.9201C98.9507 75.5626 99.0332 75.2088 99.1042 74.8571C98.7147 74.8265 98.3213 74.7922 97.9227 74.7548Z" fill="#EFA800"/>
<path d="M78.8923 92.1358C78.1815 90.4201 77.4696 88.5582 76.7686 86.6076C77.0743 86.6789 77.3803 86.7492 77.6863 86.8186C77.4371 86.6201 77.1975 86.4074 76.9677 86.1813C74.733 83.9821 73.4454 80.5224 73.6073 76.6618C73.02 74.5746 72.47 72.4511 71.9747 70.3298C72.902 70.6169 73.8433 70.8989 74.7956 71.1744C74.9257 70.845 75.0665 70.5166 75.2192 70.1876C74.0266 69.8431 72.8512 69.4881 71.6995 69.1267C71.2804 67.2662 70.9053 65.4142 70.5811 63.5938C70.2784 64.0102 69.9907 64.4289 69.7174 64.8497C69.7171 64.8502 69.7167 64.8508 69.7163 64.8514C69.9585 66.1392 70.2257 67.4402 70.5142 68.7471C69.6587 68.4696 68.8185 68.1886 67.9971 67.905C67.8407 68.2304 67.6922 68.5566 67.5518 68.8826C67.5517 68.8829 67.5515 68.8832 67.5513 68.8836C68.6025 69.248 69.6841 69.6075 70.7897 69.958C71.3842 72.5449 72.0557 75.1311 72.7807 77.6707C70.6424 77.0563 68.5655 76.4106 66.577 75.7449C66.3977 75.0247 66.2238 74.304 66.0561 73.5842C65.8465 74.5866 65.7076 75.5777 65.6347 76.5544C65.6347 76.5545 65.6346 76.5546 65.6346 76.5547C65.6518 76.5605 65.6691 76.5665 65.6863 76.5723C66.239 78.7436 66.8377 80.8991 67.4708 83.012C66.9922 82.8671 66.517 82.7208 66.0459 82.5734C66.1373 82.9853 66.2414 83.3898 66.3579 83.7871C66.3579 83.7871 66.358 83.7872 66.358 83.7872C66.8502 83.9385 67.3466 84.0886 67.8464 84.2374C68.4618 86.2295 69.1033 88.1646 69.7631 90.0201C69.7633 90.0202 69.7635 90.0204 69.7636 90.0206C69.9319 90.2058 70.1043 90.3853 70.2812 90.5594C70.656 90.9283 71.0505 91.2722 71.4623 91.5881C71.4689 91.593 71.4747 91.5976 71.4812 91.6025C73.6914 92.1507 75.9167 92.645 78.1259 93.0776C78.3455 93.5961 78.5645 94.1017 78.7827 94.5932C78.7829 94.5932 78.783 94.5932 78.7831 94.5932C79.1789 94.6173 79.5723 94.6192 79.9637 94.5998C79.776 94.1849 79.5875 93.7586 79.3987 93.3216C80.6706 93.5611 81.9314 93.7767 83.1753 93.967C83.176 93.9668 83.1766 93.9666 83.1773 93.9663C83.8174 93.7464 84.4511 93.4731 85.0776 93.1511C83.0614 92.8778 80.9885 92.5341 78.8923 92.1358ZM66.8987 76.9786C68.8988 77.6403 70.991 78.2782 73.133 78.881C73.7625 81.0132 74.4261 83.1028 75.1123 85.1074C72.94 84.5741 70.7903 83.9868 68.6981 83.372C68.0576 81.2823 67.4551 79.1383 66.8987 76.9786ZM71.0303 90.3889C70.3608 88.5382 69.7098 86.5986 69.0778 84.6013C71.1852 85.2083 73.3501 85.7801 75.5263 86.3095C76.2159 88.2718 76.9278 90.1414 77.6349 91.884C75.4325 91.4435 73.222 90.9413 71.0303 90.3889Z" fill="#EFA800"/>
<path d="M94.1375 82.0569C93.9104 82.3904 93.671 82.7265 93.4203 83.0632C94.0833 83.1399 94.7392 83.2079 95.3871 83.2673C95.3875 83.2668 95.3878 83.2662 95.3882 83.2657C95.6209 82.9222 95.843 82.5798 96.0541 82.2393C95.4236 82.1875 94.7843 82.1266 94.1375 82.0569Z" fill="#EFA800"/>
<path d="M80.7606 55.1785C80.2307 55.3453 79.6933 55.5582 79.1482 55.8204C79.1474 55.8208 79.1466 55.8211 79.1459 55.8215C80.6409 56.2649 82.1658 56.693 83.7105 57.101C83.9044 58.2387 84.1175 59.3908 84.3491 60.5511C84.6927 60.3941 85.0313 60.2602 85.3653 60.1481C85.1832 59.2243 85.0133 58.3061 84.8565 57.396C87.4265 58.0532 90.0267 58.6485 92.611 59.1593C92.7816 59.9666 92.9598 60.7761 93.1454 61.5862C93.4267 61.812 93.697 62.0535 93.956 62.3083C94.1673 62.5163 94.372 62.732 94.5696 62.9552C94.3048 61.8576 94.0531 60.7593 93.8166 59.6647C93.1326 59.0287 92.4387 58.4315 91.7344 57.8877C89.3729 57.4029 87.0017 56.8487 84.6625 56.2423C84.5802 55.7339 84.5018 55.2278 84.4282 54.7254C84.0684 54.701 83.7051 54.6967 83.3384 54.7135C83.3376 54.7135 83.3368 54.7135 83.3359 54.7135C83.3945 55.1214 83.456 55.5316 83.5202 55.9435C82.5921 55.6945 81.6714 55.4396 80.7606 55.1785Z" fill="#EFA800"/>
<path d="M98.8991 67.5253C98.3032 67.4557 97.7023 67.3795 97.0963 67.297C97.2216 67.6655 97.331 68.043 97.4237 68.4296C98.0088 68.5078 98.5893 68.5797 99.1637 68.6449C99.1637 68.6446 99.1636 68.6443 99.1635 68.644C99.0893 68.2651 99.0012 67.8926 98.8991 67.5253Z" fill="#EFA800"/>
<path d="M79.1641 71.2695C78.7063 69.5018 78.2762 67.7233 77.8848 65.9512C76.7649 67.3296 75.8839 68.7545 75.219 70.1875C76.5167 70.5624 77.8348 70.9249 79.1641 71.2695Z" fill="#FFDB78"/>
<path d="M80.3485 71.572C82.7177 72.1691 85.1134 72.7083 87.4854 73.1784C86.8164 70.9002 86.1855 68.5754 85.6161 66.2425C83.4212 65.7295 81.2326 65.1692 79.0918 64.5705C78.9829 64.6871 78.8731 64.8067 78.7637 64.928C79.2359 67.1391 79.7705 69.364 80.3485 71.572Z" fill="#FFDB78"/>
<path d="M88.347 75.9912C88.1753 75.4458 88.0056 74.8959 87.8379 74.3427C85.4582 73.8804 83.0549 73.349 80.6703 72.7596C81.3646 75.2995 82.1162 77.7965 82.9057 80.2008C83.6591 80.3622 84.4121 80.5167 85.1631 80.6639C85.864 79.4379 87.1062 77.9914 88.347 75.9912Z" fill="#FFDB78"/>
<path d="M81.6906 79.9362C80.9087 77.5164 80.1646 75.0039 79.4818 72.4524C77.8995 72.0465 76.3333 71.6185 74.7956 71.1737C74.0617 73.0314 73.6817 74.8889 73.6074 76.6611C73.7341 77.1115 73.8626 77.5603 73.9926 78.0069C76.5167 78.7107 79.102 79.3601 81.6906 79.9362Z" fill="#FFDB78"/>
<path d="M77.6861 86.8179C77.7265 86.8501 77.7672 86.8819 77.8081 86.9133C80.3434 88.8617 82.7702 89.4207 84.9955 89.0823C84.8786 88.7944 84.7616 88.5028 84.6447 88.2074C82.3541 87.8172 80.0177 87.3462 77.6861 86.8179Z" fill="#FFDB78"/>
<path d="M89.1571 74.5923C89.112 74.5841 89.0672 74.5759 89.0221 74.5677C89.0399 74.626 89.0578 74.6842 89.0757 74.7425C89.1029 74.6928 89.13 74.6427 89.1571 74.5923Z" fill="#FFDB78"/>
<path d="M91.534 67.484C89.96 67.1899 88.3721 66.8622 86.7853 66.5063C87.3623 68.8314 88.0008 71.1484 88.6774 73.4112C89.0068 73.4737 89.3355 73.5347 89.6634 73.5941C90.8213 71.165 91.2221 69.0149 91.534 67.484Z" fill="#FFDB78"/>
<path d="M76.3429 85.4008C78.9666 86.0267 81.6011 86.5795 84.1926 87.0362C83.4729 85.1666 82.7639 83.1853 82.0812 81.1228C79.4849 80.5543 76.892 79.9128 74.3487 79.2208C74.9858 81.3452 75.657 83.4193 76.3429 85.4008Z" fill="#FFDB78"/>
<path d="M86.5025 65.3427C88.2622 65.7418 90.0231 66.1091 91.768 66.4339C92.0254 65.4466 92.3398 64.9449 93.0924 65.1225C93.4706 65.2118 93.8303 65.4207 94.1599 65.7326C93.8003 64.3536 93.4618 62.969 93.1449 61.5863C91.0802 59.9289 88.4263 59.121 85.3649 60.1482C85.7039 61.8673 86.0853 63.6052 86.5025 65.3427Z" fill="#FFDB78"/>
<path d="M95.6277 67.086C96.1202 67.1602 96.6097 67.2305 97.096 67.2967C96.536 65.6493 95.6609 64.1869 94.5693 62.9541C94.9027 64.3355 95.2569 65.7159 95.6277 67.086Z" fill="#FFDB78"/>
<path d="M91.0303 83.7508C89.2495 85.3108 87.2082 85.9881 85.5722 84.3851C85.5692 84.3822 85.5662 84.3793 85.5633 84.3764C84.6078 83.4361 84.4225 82.5956 84.7068 81.6705C84.2361 81.5775 83.7646 81.4819 83.2923 81.3838C83.9865 83.4347 84.6993 85.4044 85.4226 87.247C86.4886 87.4237 87.5436 87.5829 88.5838 87.7231C89.6746 87.0568 90.6873 86.2007 91.6065 85.2384C91.414 84.7514 91.2218 84.2551 91.0303 83.7508Z" fill="#FFDB78"/>
<path d="M95.6094 75.5848C95.372 76.6226 95.0317 77.6934 94.5733 78.7741C94.1383 79.7996 93.4994 80.8978 92.7394 81.8952C93.2088 81.9538 93.6745 82.0081 94.1365 82.0578C95.6037 79.9029 96.5818 77.8191 97.153 75.8404C97.1438 75.813 97.1346 75.7857 97.1255 75.7583C96.6245 75.7052 96.1191 75.6473 95.6094 75.5848Z" fill="#FFDB78"/>
<path d="M95.941 68.2205C96.4689 70.1138 97.0298 71.9739 97.6095 73.7863C97.9061 71.8672 97.8162 70.0697 97.4233 68.4301C96.9319 68.3645 96.4375 68.2945 95.941 68.2205Z" fill="#FFDB78"/>
<path d="M91.9198 82.8777C91.9024 82.8967 91.8847 82.9158 91.8672 82.9347C92.0471 83.4123 92.2275 83.8829 92.4083 84.3457C92.5538 84.1736 92.6962 83.9996 92.8361 83.8233C93.0376 83.5694 93.2318 83.3167 93.4198 83.0644C92.9237 83.007 92.4236 82.9448 91.9198 82.8777Z" fill="#FFDB78"/>
<path d="M79.9461 63.6992C81.72 64.1854 83.5221 64.6461 85.3378 65.0742C84.9785 63.562 84.6483 62.0495 84.3492 60.5506C82.9527 61.189 81.4793 62.2102 79.9461 63.6992Z" fill="#FFDB78"/>
<path d="M86.0635 88.8488C86.3423 88.7689 86.6179 88.6755 86.8893 88.5695C86.5563 88.5192 86.2218 88.4672 85.8863 88.4134C85.9453 88.5594 86.0044 88.7045 86.0635 88.8488Z" fill="#FFDB78"/>
<path d="M95.8187 74.5253C96.1335 74.5629 96.4469 74.5987 96.7584 74.6327C96.5141 73.8818 96.274 73.1219 96.0381 72.3545C96.0142 73.0506 95.9431 73.7765 95.8187 74.5253Z" fill="#FFDB78"/>
<path d="M92.7397 81.8951C92.4793 82.2368 92.2051 82.5663 91.9195 82.8774C92.4232 82.9445 92.9234 83.0067 93.4195 83.0641C93.6703 82.7273 93.9097 82.3913 94.1368 82.0578C93.6748 82.008 93.209 81.9538 92.7397 81.8951Z" fill="#F7BF15"/>
<path d="M91.8677 82.9338C91.5973 83.2249 91.3176 83.4987 91.0309 83.7499C91.2224 84.2542 91.4147 84.7505 91.6072 85.2375C91.8827 84.9489 92.1505 84.6502 92.4088 84.3448C92.228 83.882 92.0476 83.4114 91.8677 82.9338Z" fill="#F7BF15"/>
<path d="M85.338 65.0747C83.5222 64.6466 81.7202 64.1859 79.9463 63.6997C79.6636 63.9742 79.3793 64.2642 79.0926 64.5711C81.2334 65.1697 83.4219 65.7301 85.6169 66.2431C86.1862 68.576 86.8172 70.9007 87.4862 73.179C85.1141 72.7088 82.7184 72.1697 80.3492 71.5725C79.7712 69.3646 79.2366 67.1397 78.7645 64.9286C78.5921 65.1197 78.4197 65.316 78.246 65.5191C78.1232 65.6626 78.0028 65.8071 77.8854 65.9518C78.2767 67.7238 78.7069 69.5023 79.1647 71.2701C77.8354 70.9255 76.5173 70.5631 75.2196 70.1881C75.0669 70.5171 74.9261 70.8455 74.796 71.1748C76.3336 71.6197 77.8999 72.0477 79.4822 72.4536C80.1649 75.005 80.909 77.5176 81.6909 79.9374C79.1023 79.3612 76.5171 78.7118 73.9929 78.0081C73.8629 77.5615 73.7344 77.1127 73.6077 76.6623C73.4458 80.5228 74.7335 83.9825 76.9682 86.1817C77.1979 86.4078 77.4376 86.6206 77.6868 86.819C80.0184 87.3474 82.3547 87.8184 84.6454 88.2086C84.7622 88.5039 84.8792 88.7956 84.9962 89.0835C85.3579 89.0285 85.7135 88.95 86.0642 88.8496C86.0051 88.7054 85.946 88.5603 85.8869 88.4142C86.2225 88.4681 86.557 88.5201 86.89 88.5703C87.4731 88.3426 88.0383 88.0568 88.5843 87.7234C87.5442 87.5832 86.4891 87.4239 85.4232 87.2473C84.6998 85.4046 83.9871 83.4349 83.2929 81.3841C83.7651 81.4822 84.2366 81.5778 84.7073 81.6707C84.8065 81.3481 84.9628 81.0151 85.1635 80.6641C84.4125 80.517 83.6595 80.3624 82.906 80.201C82.1166 77.7967 81.365 75.2997 80.6707 72.7598C83.0553 73.3492 85.4586 73.8806 87.8383 74.3428C88.0059 74.8961 88.1757 75.446 88.3474 75.9914C88.5916 75.5977 88.8359 75.1822 89.0759 74.743C89.058 74.6848 89.0401 74.6265 89.0223 74.5682C89.0674 74.5765 89.1122 74.5846 89.1572 74.5928C89.3052 74.3175 89.4514 74.0329 89.5948 73.7383C89.6182 73.6903 89.6412 73.6426 89.664 73.5948C89.336 73.5354 89.0073 73.4745 88.678 73.4119C88.0014 71.1492 87.3629 68.8321 86.7858 66.507C88.3727 66.863 89.9605 67.1907 91.5345 67.4847C91.6146 67.0916 91.6889 66.7393 91.7686 66.4336C90.0237 66.1088 88.2628 65.7415 86.5031 65.3424C86.0859 63.6049 85.7045 61.867 85.3654 60.1479C85.0314 60.26 84.6928 60.3938 84.3493 60.5509C84.6485 62.0499 84.9786 63.5625 85.338 65.0747ZM82.0816 81.1243C82.7643 83.1867 83.4734 85.1681 84.1931 87.0377C81.6015 86.5809 78.967 86.0282 76.3434 85.4023C75.6574 83.4207 74.9862 81.3467 74.3492 79.2222C76.8924 79.9143 79.4854 80.5558 82.0816 81.1243Z" fill="#F7BF15"/>
<path d="M94.1597 65.7326C94.1752 65.7472 94.1904 65.7618 94.2057 65.7769C95.365 66.9177 96.1414 69.3496 96.0381 72.3555C96.274 73.1229 96.5141 73.8828 96.7584 74.6337C96.4468 74.5997 96.1334 74.5639 95.8187 74.5262C95.7607 74.8749 95.6912 75.2283 95.6095 75.5855C96.1192 75.648 96.6246 75.7059 97.1256 75.759C97.1348 75.7864 97.1439 75.8137 97.1532 75.841C97.3547 75.1427 97.5057 74.4569 97.6094 73.7866C97.0297 71.9741 96.4687 70.1141 95.9409 68.2208C96.4374 68.2947 96.9318 68.3648 97.4232 68.4304C97.3305 68.0439 97.2211 67.6663 97.0958 67.2978C96.6095 67.2316 96.12 67.1613 95.6275 67.0871C95.2567 65.7171 94.9025 64.3367 94.5691 62.9552C94.3715 62.732 94.1668 62.5163 93.9554 62.3084C93.6965 62.0535 93.4261 61.812 93.1449 61.5862C93.4616 62.969 93.8002 64.3536 94.1597 65.7326Z" fill="#F7BF15"/>
<path d="M90.2174 81.544C89.5738 79.7634 88.9485 77.9035 88.3467 75.9912C87.1059 77.9913 85.8637 79.4379 85.1628 80.6638C86.8647 80.9973 88.556 81.2928 90.2174 81.544Z" fill="#FFE59D"/>
<path d="M95.8194 74.5262C95.9438 73.7774 96.0149 73.0515 96.0388 72.3554C95.6038 70.9403 95.1832 69.5 94.777 68.0452C93.7063 67.8758 92.6236 67.6884 91.5344 67.4849C91.2224 69.0158 90.8217 71.166 89.6638 73.595C91.7566 73.9739 93.8192 74.287 95.8194 74.5262Z" fill="#FFE59D"/>
<path d="M85.5639 84.3763C85.5668 84.3792 85.5698 84.3821 85.5728 84.385C87.2088 85.988 89.2501 85.3107 91.0309 83.7506C90.8988 83.4028 90.767 83.0512 90.6356 82.6958C88.694 82.412 86.7091 82.0655 84.7074 81.6703C84.423 82.5955 84.6084 83.4359 85.5639 84.3763Z" fill="#FFE59D"/>
<path d="M94.4714 66.9031C94.3661 66.5132 94.2624 66.1227 94.1605 65.7317C93.8309 65.4198 93.4711 65.211 93.0929 65.1217C92.3403 64.944 92.0259 65.4457 91.7685 66.4331C92.6745 66.6017 93.5765 66.7589 94.4714 66.9031Z" fill="#FFE59D"/>
<path d="M91.4132 81.7187C91.8584 81.7812 92.3009 81.8399 92.7403 81.8948C93.5003 80.8975 94.1391 79.7993 94.5742 78.7737C95.0326 77.693 95.3729 76.6223 95.6103 75.5845C93.5162 75.3275 91.3528 74.9923 89.1572 74.5921C89.1302 74.6425 89.103 74.6925 89.0758 74.7422C89.8196 77.1622 90.6096 79.5102 91.4132 81.7187Z" fill="#FFE59D"/>
<path d="M91.8672 82.9342C91.8847 82.9153 91.9024 82.8962 91.9199 82.8772C91.8938 82.8737 91.8679 82.8702 91.8418 82.8667C91.8502 82.8893 91.8587 82.9117 91.8672 82.9342Z" fill="#FFE59D"/>
<path d="M90.6347 82.6952C90.7662 83.0506 90.8979 83.4023 91.03 83.7501C91.3167 83.4989 91.5964 83.2251 91.8668 82.934C91.8583 82.9115 91.8499 82.8891 91.8414 82.8666C91.8675 82.8701 91.8934 82.8736 91.9195 82.877C92.205 82.5659 92.4792 82.2364 92.7396 81.8948C92.3003 81.8399 91.8577 81.7811 91.4125 81.7186C90.6089 79.5102 89.8189 77.1621 89.0752 74.7422C88.8352 75.1814 88.5909 75.5968 88.3467 75.9905C88.9485 77.9028 89.5738 79.7627 90.2173 81.5433C88.5561 81.2921 86.8647 80.9966 85.1628 80.6631C84.9621 81.0141 84.8058 81.3471 84.7066 81.6698C86.7082 82.0649 88.6932 82.4114 90.6347 82.6952Z" fill="#FDD040"/>
<path d="M95.61 75.585C95.6917 75.2277 95.7612 74.8743 95.8191 74.5257C93.8189 74.2865 91.7564 73.9734 89.6636 73.5946C89.6408 73.6424 89.6178 73.6901 89.5944 73.7381C89.451 74.0327 89.3049 74.3172 89.1569 74.5926C91.3526 74.9928 93.516 75.328 95.61 75.585Z" fill="#FDD040"/>
<path d="M94.7766 68.0439C95.1828 69.4988 95.6034 70.9391 96.0384 72.3541C96.1417 69.3482 95.3653 66.9163 94.2059 65.7755C94.1906 65.7604 94.1755 65.7457 94.16 65.7311C94.262 66.1222 94.3656 66.5126 94.471 66.9025C93.5761 66.7583 92.6741 66.6011 91.768 66.4324C91.6883 66.7382 91.6141 67.0905 91.534 67.4836C92.6233 67.6871 93.7059 67.8745 94.7766 68.0439Z" fill="#FDD040"/>
</svg>
