<svg width="90" height="126" viewBox="0 0 90 126" fill="none" xmlns="http://www.w3.org/2000/svg">
<path d="M0.898677 71.7615C0.898677 71.7615 18.5654 76.5798 25.5925 80.796C32.6196 85.0121 34.2255 92.4399 44.2636 94.6487C44.2636 94.6487 45.468 97.8612 45.468 104.888C45.468 111.914 43.6614 120.948 43.6614 120.948C43.6614 120.948 48.6804 124.964 60.3244 124.964C71.9684 124.964 76.316 122.153 76.316 122.153C76.316 122.153 75.0173 114.122 75.0173 105.691C75.0173 97.2583 75.3195 94.9966 77.3897 89.3496C77.3897 89.3496 86.1227 77.9064 80.6021 58.2316C80.6021 58.2316 87.1249 38.9083 88.9315 31.079C90.7381 23.2496 83.5703 20.5522 81.0036 26.7121C78.344 33.0956 75.2002 41.2257 70.969 48.3285C70.969 48.3285 72.2477 26.8936 72.6321 15.5696C72.9335 6.68589 63.2361 7.13735 62.4832 14.6659C61.8639 20.8615 60.1166 37.426 58.7193 47.7949C58.7193 47.7949 57.0627 38.3054 55.8583 28.0665C54.6539 17.8277 54.3124 12.1471 53.901 7.2881C53.148 -1.59562 42.9092 -0.842695 42.8592 8.44249C42.8006 19.285 42.8092 36.0473 45.0173 49.2972C45.0173 49.2972 36.305 30.4439 29.5086 16.4726C25.8947 9.04469 16.8502 13.923 19.6612 21.9538C22.4722 29.9839 25.8518 37.7611 30.8137 50.2008C34.4776 59.386 35.6321 64.9351 33.624 66.341C31.6167 67.7461 24.1881 64.5344 16.158 62.5263C8.12652 60.519 -0.305726 61.3219 0.898677 71.7615Z" fill="#FFBD9B"/>
<path d="M60.324 125.5C48.6264 125.5 43.5373 121.536 43.3259 121.367C43.1694 121.242 43.0966 121.04 43.1352 120.844C43.153 120.755 44.9317 111.779 44.9317 104.888C44.9317 99.1767 44.1181 96.0021 43.8467 95.1042C37.7332 93.6733 34.6815 90.2895 31.7283 87.0156C29.881 84.9675 27.9715 82.8494 25.3163 81.2564C18.432 77.1267 0.932481 72.3277 0.75675 72.2798C0.5453 72.222 0.390282 72.0419 0.36528 71.8241C-0.0354733 68.3487 0.58387 65.6628 2.20617 63.8426C3.8199 62.0324 6.3673 61.1152 9.77978 61.1152C11.7264 61.1152 13.9152 61.4152 16.2854 62.0081C18.8607 62.6517 21.4088 63.429 23.6561 64.1155C27.2372 65.2077 30.3289 66.1514 32.1462 66.1514C32.6863 66.1514 33.0792 66.0685 33.3149 65.9035C34.9658 64.7477 33.9557 59.5322 30.3139 50.4013C28.7302 46.4316 27.3086 42.9384 26.0142 39.7588C23.2525 32.9732 21.0709 27.6126 19.1528 22.1328C18.2099 19.4369 18.4706 16.7602 19.8693 14.7885C20.988 13.2112 22.7246 12.2704 24.514 12.2704C26.765 12.2704 28.7602 13.717 29.9882 16.2415C35.0008 26.5454 41.1164 39.6374 43.9381 45.7058C42.1915 32.5267 42.2743 17.0845 42.3208 8.44221C42.3486 3.22813 45.4668 0.5 48.5321 0.5C51.1845 0.5 54.0369 2.58593 54.432 7.24567C54.5191 8.27363 54.6034 9.33943 54.6927 10.476C55.0256 14.6935 55.4392 19.9426 56.3879 28.0062C57.1337 34.3454 58.0616 40.4453 58.6531 44.135C59.9832 33.6132 61.4476 19.6176 61.9477 14.6157C62.3534 10.5538 65.223 8.42863 67.8475 8.42863C69.1877 8.42863 70.4414 8.96225 71.3779 9.93091C72.2501 10.8339 73.2681 12.5476 73.1645 15.5908C72.858 24.6266 71.9715 40.2724 71.6336 46.0951C74.7361 40.5139 77.2035 34.5212 79.4072 29.1671C79.783 28.2541 80.1487 27.3662 80.5059 26.509C81.476 24.1787 83.2112 22.7886 85.1471 22.7886C86.3958 22.7886 87.5959 23.3965 88.4381 24.4552C89.7218 26.0696 90.0811 28.4649 89.4496 31.2016C87.7438 38.5937 81.7846 56.3869 81.1588 58.2478C86.3772 77.0632 78.5822 88.6 77.8642 89.6058C75.8533 95.0999 75.5504 97.2323 75.5504 105.692C75.5504 113.982 76.8299 121.99 76.8427 122.07C76.877 122.28 76.7834 122.49 76.6048 122.605C76.4241 122.721 71.9922 125.5 60.324 125.5ZM44.2524 120.711C45.4054 121.48 50.4666 124.428 60.324 124.428C69.9878 124.428 74.5782 122.452 75.729 121.865C75.4761 120.179 74.4803 113.045 74.4803 105.69C74.4803 97.1215 74.8175 94.8049 76.8856 89.1651C76.9034 89.1151 76.9306 89.0672 76.962 89.025C77.0477 88.9122 85.4607 77.5375 80.0845 58.3756C80.0552 58.272 80.058 58.162 80.0923 58.0599C80.158 57.8677 86.6272 38.6723 88.4081 30.9587C88.9567 28.582 88.6617 26.4539 87.6016 25.1202C86.9537 24.3066 86.0829 23.858 85.1485 23.858C83.6598 23.858 82.2947 25.0024 81.4967 26.9183C81.1403 27.7741 80.7752 28.6606 80.4002 29.5728C77.9207 35.5941 75.1111 42.4184 71.4279 48.6033C71.3015 48.8154 71.0471 48.914 70.81 48.8411C70.5742 48.7683 70.4178 48.5439 70.4328 48.2968C70.4464 48.0825 71.7158 26.739 72.0944 15.5522C72.1665 13.4406 71.6529 11.754 70.6085 10.6738C69.8763 9.91663 68.8962 9.49802 67.849 9.49802C65.7066 9.49802 63.3586 11.2918 63.0149 14.72C62.4549 20.3234 60.6861 37.2 59.2489 47.8667C59.2132 48.1282 58.9931 48.3254 58.7288 48.3311C58.4959 48.3168 58.2359 48.1475 58.1902 47.8875C58.1745 47.7924 56.5179 38.2665 55.3249 28.1306C54.3741 20.0469 53.9591 14.7857 53.6262 10.5588C53.5369 9.42372 53.4526 8.36078 53.3661 7.33425C53.0283 3.35172 50.6959 1.5694 48.5335 1.5694C45.9976 1.5694 43.418 3.93177 43.3938 8.44578C43.343 17.876 43.248 35.4291 45.5454 49.2097C45.589 49.4741 45.4311 49.7305 45.1739 49.8098C44.9175 49.8891 44.6424 49.7655 44.5303 49.5226C44.4431 49.334 35.7423 30.5151 29.0252 16.708C27.9844 14.5671 26.34 13.3398 24.5155 13.3398C23.0725 13.3398 21.6631 14.112 20.7451 15.4065C19.5493 17.0909 19.3385 19.4133 20.1665 21.7771C22.076 27.2326 24.2526 32.5817 27.0086 39.3531C28.3037 42.5341 29.7267 46.0309 31.3104 50.002C35.3244 60.0644 36.1323 65.2392 33.9307 66.7793C33.5064 67.0765 32.9234 67.2208 32.1484 67.2208C30.171 67.2208 27.0086 66.2557 23.3461 65.1384C21.1102 64.4562 18.5763 63.6826 16.0282 63.0454C13.7423 62.4739 11.64 62.1846 9.78191 62.1846C6.68876 62.1846 4.40997 62.9811 3.00912 64.5534C1.65256 66.0757 1.11036 68.358 1.39467 71.3412C3.9935 72.0627 19.3264 76.4095 25.8699 80.3349C28.6623 82.0108 30.6261 84.1889 32.5263 86.2955C35.5466 89.6458 38.4004 92.809 44.3796 94.1241C44.5567 94.1634 44.7024 94.2891 44.766 94.4591C44.8167 94.5941 46.0047 97.8438 46.0047 104.887C46.004 111.116 44.5789 118.988 44.2524 120.711Z" fill="#070707"/>
<path d="M60.9365 88.7392C60.6408 88.7392 60.4007 88.4992 60.4007 88.2034C60.4007 76.9473 51.7092 71.0582 43.0948 70.2145C42.8004 70.1859 42.5847 69.9238 42.614 69.6295C42.6426 69.3359 42.8983 69.1108 43.199 69.1487C52.2942 70.0388 61.4715 76.2758 61.4715 88.2034C61.4723 88.4992 61.2322 88.7392 60.9365 88.7392Z" fill="#070707"/>
<path d="M41.6542 51.7413C41.4477 51.7413 41.2512 51.6221 41.1627 51.4213C41.0434 51.1506 41.167 50.8348 41.4377 50.7155C41.5899 50.6484 56.877 44.0706 74.1309 49.2875C74.4145 49.3733 74.5745 49.6719 74.4888 49.9555C74.4045 50.2383 74.1059 50.4033 73.8208 50.3133C56.9528 45.2164 42.017 51.6313 41.8692 51.6963C41.7992 51.7263 41.7256 51.7413 41.6542 51.7413Z" fill="#070707"/>
<path d="M52.9013 93.2647C52.6999 93.2647 52.5063 93.1504 52.4156 92.9547C52.2906 92.6868 52.4063 92.3682 52.6749 92.2432C53.0078 92.0882 60.9186 88.485 68.9793 92.1932C69.2479 92.3175 69.3658 92.6354 69.2422 92.904C69.1179 93.1733 68.7993 93.2912 68.5314 93.1669C60.9185 89.6637 53.2035 93.179 53.1271 93.214C53.0549 93.2483 52.9771 93.2647 52.9013 93.2647Z" fill="#070707"/>
<path d="M62.8294 88.7396C62.5566 88.7396 62.323 88.5317 62.2965 88.2538C62.2808 88.0917 60.8807 71.9537 71.7046 68.4483C71.9889 68.359 72.2875 68.5119 72.3796 68.7926C72.4704 69.0748 72.3161 69.3763 72.0353 69.4677C62.0294 72.7073 63.3495 87.9981 63.3638 88.1524C63.3909 88.4467 63.1745 88.7081 62.8801 88.7353C62.8637 88.7388 62.8466 88.7396 62.8294 88.7396Z" fill="#070707"/>
</svg>
