<svg width="465" height="56" viewBox="0 0 465 56" fill="none" xmlns="http://www.w3.org/2000/svg">
<path d="M29.5404 5.96114C31.082 3.30487 34.918 3.30487 36.4596 5.96114L62.0133 49.9922C63.5609 52.6589 61.637 56 58.5537 56H7.44626C4.36305 56 2.43905 52.6589 3.98667 49.9922L29.5404 5.96114Z" fill="#1E88E5"/>
<path d="M102.54 5.96114C104.082 3.30487 107.918 3.30487 109.46 5.96114L135.013 49.9922C136.561 52.6589 134.637 56 131.554 56H80.4463C77.363 56 75.4391 52.6589 76.9867 49.9922L102.54 5.96114Z" fill="#1E88E5"/>
<circle cx="174" cy="28.5" r="27.5" fill="#D32F2F"/>
<path d="M238.54 5.96114C240.082 3.30487 243.918 3.30487 245.46 5.96114L271.013 49.9922C272.561 52.6589 270.637 56 267.554 56H216.446C213.363 56 211.439 52.6589 212.987 49.9922L238.54 5.96114Z" fill="#1E88E5"/>
<path d="M311.54 5.96114C313.082 3.30487 316.918 3.30487 318.46 5.96114L344.013 49.9922C345.561 52.6589 343.637 56 340.554 56H289.446C286.363 56 284.439 52.6589 285.987 49.9922L311.54 5.96114Z" fill="#1E88E5"/>
<circle cx="383" cy="28.5" r="27.5" fill="#D32F2F"/>
<path d="M419.681 41.112C419.681 39.768 420.097 38.648 420.929 37.752C421.761 36.856 422.897 36.408 424.337 36.408C425.777 36.408 426.913 36.856 427.745 37.752C428.577 38.648 428.993 39.768 428.993 41.112C428.993 42.456 428.577 43.576 427.745 44.472C426.913 45.368 425.777 45.816 424.337 45.816C422.897 45.816 421.761 45.368 420.929 44.472C420.097 43.576 419.681 42.456 419.681 41.112ZM431.119 41.112C431.119 39.768 431.535 38.648 432.367 37.752C433.199 36.856 434.335 36.408 435.775 36.408C437.215 36.408 438.351 36.856 439.183 37.752C440.015 38.648 440.431 39.768 440.431 41.112C440.431 42.456 440.015 43.576 439.183 44.472C438.351 45.368 437.215 45.816 435.775 45.816C434.335 45.816 433.199 45.368 432.367 44.472C431.535 43.576 431.119 42.456 431.119 41.112ZM442.556 41.112C442.556 39.768 442.972 38.648 443.804 37.752C444.636 36.856 445.772 36.408 447.212 36.408C448.652 36.408 449.788 36.856 450.62 37.752C451.452 38.648 451.868 39.768 451.868 41.112C451.868 42.456 451.452 43.576 450.62 44.472C449.788 45.368 448.652 45.816 447.212 45.816C445.772 45.816 444.636 45.368 443.804 44.472C442.972 43.576 442.556 42.456 442.556 41.112ZM453.994 41.112C453.994 39.768 454.41 38.648 455.242 37.752C456.074 36.856 457.21 36.408 458.65 36.408C460.09 36.408 461.226 36.856 462.058 37.752C462.89 38.648 463.306 39.768 463.306 41.112C463.306 42.456 462.89 43.576 462.058 44.472C461.226 45.368 460.09 45.816 458.65 45.816C457.21 45.816 456.074 45.368 455.242 44.472C454.41 43.576 453.994 42.456 453.994 41.112Z" fill="black"/>
</svg>
