<svg width="178" height="120" viewBox="0 0 178 120" fill="none" xmlns="http://www.w3.org/2000/svg">
<path d="M117.773 48.1559C119.5 43.3302 120.168 38.1843 119.718 32.9675C118.016 13.1601 100.515 -1.57028 80.7076 0.13421L59.7004 1.94004C50.9043 2.69601 44.364 10.4666 45.12 19.2626L52.625 106.544C53.156 112.728 57.1569 117.797 62.5439 120L96.725 118.822C118.49 116.95 134.67 97.6551 132.791 75.8088C131.846 64.8056 126.372 54.8989 117.773 48.1559ZM78.5552 32.6047L83.464 32.1831C85.6711 31.9926 87.479 33.5147 87.6695 35.7239C87.8641 37.9837 86.2548 40.0449 84.1551 40.2253L79.2463 40.6468L78.5552 32.6047ZM93.9707 86.7695L83.2937 87.6876L82.0047 72.6957L92.5458 71.7878C96.7899 71.4979 100.391 74.4732 100.742 78.5612C101.107 82.8011 98.1356 86.3378 93.9707 86.7695Z" fill="url(#paint0_linear_317_10570)"/>
<path opacity="0.25" d="M78.397 46.7136C87.3653 49.3139 97.2295 46.6305 106.188 49.2592C113.371 51.367 119.422 57.0033 122.037 64.0179C123.077 66.8087 123.587 69.9279 122.669 72.7613C121.749 75.5947 119.118 78.0025 116.141 77.9518C113.494 77.9072 111.214 76.0325 109.631 73.9125C108.048 71.7905 106.923 69.3422 105.217 67.3215C101.857 63.345 96.4979 61.4358 91.2932 61.373C86.0885 61.3122 80.9953 62.9133 76.2182 64.9826C72.0776 66.7763 67.6492 68.9875 63.2714 67.8971C57.1263 66.3689 54.2848 58.1626 57.1912 52.5384C60.0975 46.9142 67.1789 44.2916 73.4254 45.3273C75.8088 45.7225 76.0723 46.0407 78.397 46.7136Z" fill="#DC19ED"/>
<path opacity="0.25" d="M105.979 14.9579C102.406 10.8395 96.1856 8.57565 91.3437 10.8841C90.6141 8.74387 89.0555 6.79414 87.1078 5.60038C80.4135 1.49825 63.7455 1.74551 57.1464 6.74144C51.504 11.0118 48.9442 30.2051 57.4788 32.09C61.0378 32.8763 63.9158 29.443 66.6661 27.0515C68.938 25.0774 71.6721 23.6384 74.5866 22.8824C77.6753 22.0819 80.9202 22.0474 84.013 21.2671C85.3851 20.9226 86.7551 20.3693 87.9631 19.6133C88.9015 21.2043 90.4114 22.5602 91.5687 24.0539C94.2784 27.55 95.0891 32.4325 93.6562 36.6177C93.0725 38.3202 92.1321 40.0368 92.4584 41.8062C92.9935 44.7024 96.4936 45.9124 99.4365 46.0502C101.24 46.1353 103.083 46.0218 104.775 45.3915C116.646 40.9711 112.3 22.244 105.979 14.9579Z" fill="#DC19ED"/>
<path opacity="0.25" d="M60.8168 107.033C63.5732 111.04 68.0584 113.811 72.8739 114.482C75.8593 114.897 78.8913 114.54 81.8828 114.184C84.1325 113.916 86.3822 113.647 88.6299 113.379C93.5366 112.795 98.5143 112.191 103.083 110.311C107.651 108.428 111.84 105.071 113.599 100.454C114.886 97.0718 114.467 92.6474 111.459 90.6369C109.955 89.6316 108.058 89.3925 106.25 89.4796C99.171 89.8181 92.3895 94.6438 85.4965 92.992C79.1143 91.4638 74.3352 84.6377 67.7888 85.0877C56.0195 85.8943 55.6142 99.4695 60.8168 107.033Z" fill="#DC19ED"/>
<path d="M111.794 33.9221C111.794 33.9221 111.812 33.3525 111.786 32.3351C111.764 31.3177 111.63 29.8523 111.279 28.0952C110.602 24.5869 108.748 19.9254 105.367 15.7421C101.977 11.5569 97.8785 8.6607 94.7431 6.89135C93.1724 6.00161 91.8449 5.35305 90.9085 4.94365C89.9681 4.54033 89.4473 4.31738 89.4473 4.31738C89.4473 4.31738 90.0026 4.42683 91.0018 4.67612C91.9989 4.92338 93.4379 5.33684 95.1627 6.01782C98.5838 7.35548 103.26 9.96997 106.926 14.4835C110.598 19.0032 112.09 24.2585 112.279 27.9634C112.392 29.8301 112.262 31.3339 112.096 32.3534C111.93 33.3728 111.794 33.9221 111.794 33.9221Z" fill="white"/>
<path d="M86.4775 42.0009C86.4775 42.0009 86.9336 41.6787 87.4565 41.1335C87.9915 40.5862 88.5327 39.808 89.0536 38.9405C89.5663 38.071 90.0041 37.2158 90.2128 36.478C90.4256 35.7504 90.4743 35.2012 90.4743 35.2012C90.4743 35.2012 90.8594 35.5923 91.1229 36.4557C91.3944 37.3009 91.4208 38.6771 90.7053 39.9113C89.9858 41.1416 88.7779 41.8084 87.9003 41.9766C87.0086 42.159 86.4775 42.0009 86.4775 42.0009Z" fill="white"/>
<path d="M98.9785 87.3104C98.9785 87.3104 99.5501 86.8037 100.257 85.9342C100.975 85.0668 101.739 83.8021 102.371 82.3388C102.987 80.8694 103.387 79.4466 103.518 78.3258C103.66 77.2131 103.624 76.4531 103.624 76.4531C103.624 76.4531 104.084 77.053 104.428 78.2529C104.773 79.4324 104.87 81.2788 104.098 83.0765C103.326 84.8722 101.938 86.0862 100.843 86.6537C99.7365 87.2374 98.9785 87.3104 98.9785 87.3104Z" fill="white"/>
<path d="M126.141 81.9619C126.141 81.9619 126.096 82.5355 126.017 83.5732C125.985 84.0961 125.922 84.7325 125.79 85.4641C125.667 86.1958 125.561 87.043 125.316 87.9489C124.915 89.7852 124.214 91.9254 123.212 94.2156C122.671 95.3384 122.128 96.5423 121.396 97.6895C120.717 98.8711 119.887 100.012 119.037 101.18C118.121 102.296 117.254 103.407 116.297 104.378C115.391 105.393 114.384 106.246 113.452 107.071C111.52 108.656 109.653 109.913 107.996 110.798C107.191 111.279 106.405 111.613 105.736 111.931C105.069 112.26 104.475 112.493 103.983 112.671C103.01 113.036 102.471 113.239 102.471 113.239C102.471 113.239 102.965 112.945 103.857 112.414C104.307 112.158 104.848 111.834 105.446 111.408C106.048 110.991 106.757 110.561 107.475 109.984C110.424 107.813 114.181 104.437 117.54 100.047C120.801 95.5877 123.071 91.0904 124.347 87.6551C124.706 86.8099 124.929 86.0114 125.168 85.3182C125.416 84.6271 125.584 84.0191 125.711 83.5185C125.987 82.5173 126.141 81.9619 126.141 81.9619Z" fill="white"/>
<path d="M52.4463 44.344C52.4463 44.344 50.6141 36.2998 49.5785 26.237C49.0252 21.1904 49.3069 16.3729 50.4844 13.1524C51.0397 11.5411 51.7167 10.3372 52.2396 9.56096C52.7706 8.78674 53.1009 8.39355 53.1009 8.39355C53.1009 8.39355 52.8598 8.85362 52.4848 9.6927C52.118 10.5378 51.6984 11.8025 51.4086 13.3935C50.7742 16.5877 51.0154 21.0567 51.5485 26.0425C52.5821 36.085 52.4463 44.344 52.4463 44.344Z" fill="white"/>
<path d="M116.873 51.563C116.873 51.563 116.462 51.2205 115.827 50.8334C115.513 50.6388 115.14 50.4402 114.741 50.2497C114.425 50.1017 114.095 49.9477 113.752 49.7876C113.195 49.5606 112.619 49.3275 112.027 49.0863C112.161 48.9728 112.323 48.835 112.485 48.6972C113.104 48.1723 113.592 47.7365 113.939 47.3008C114.125 47.1022 114.305 46.9116 114.478 46.7292C114.836 46.3583 115.161 46.0199 115.438 45.7321C116.014 45.1342 116.387 44.7471 116.387 44.7471C116.387 44.7471 116.446 45.2943 116.3 46.1597C116.223 46.5894 116.089 47.0961 115.86 47.6251C115.744 47.8885 115.607 48.1601 115.442 48.4276C115.453 48.4601 115.475 48.456 115.475 48.456L115.487 48.454C115.44 48.4641 115.438 48.4682 115.418 48.4986C115.43 48.527 115.367 48.5067 115.453 48.5878C115.572 48.6891 115.678 48.8006 115.781 48.906C116.182 49.3458 116.448 49.8058 116.606 50.2112C116.924 51.028 116.873 51.563 116.873 51.563Z" fill="white"/>
<path d="M63.6064 114.678C63.6064 114.678 62.8159 114.745 61.5634 114.404C60.323 114.074 58.6469 113.184 57.3944 111.597C56.15 110.002 55.6838 108.166 55.6453 106.885C55.5967 105.592 55.8317 104.838 55.8317 104.838C55.8317 104.838 56.0851 105.592 56.606 106.646C57.1228 107.71 57.9578 109.017 58.9976 110.328C60.0434 111.636 61.1256 112.736 62.0377 113.488C62.9355 114.246 63.6064 114.678 63.6064 114.678Z" fill="white"/>
<path opacity="0.45" d="M60.833 25.7019C60.8877 27.299 60.981 29.0136 61.9599 30.2783C63.1232 31.7822 65.2797 32.2159 67.1423 31.8328C69.0049 31.4498 70.6486 30.3959 72.2456 29.3622C76.9416 26.3221 81.8443 23.057 84.3777 18.0712C85.0993 16.6484 85.61 14.9865 85.1155 13.4705C84.3433 11.1053 81.5626 10.1243 79.1102 9.71292C66.5221 7.59902 60.3892 12.601 60.833 25.7019Z" fill="#DC19ED"/>
<path opacity="0.45" d="M81.0644 93.3138C83.4296 97.0734 89.7652 95.8918 92.6634 99.2582C94.4125 101.293 94.297 104.335 93.6221 106.933C93.3363 108.036 92.9573 109.135 92.3027 110.069C91.2204 111.607 89.4774 112.558 87.6939 113.162C82.927 114.775 77.4568 114.169 73.1601 111.548C70.0531 109.655 67.625 106.832 65.4868 103.889C63.8208 101.597 62.2805 99.165 61.4272 96.4633C60.574 93.7617 60.4625 90.7418 61.6056 88.1476C61.8123 87.6774 62.0717 87.2092 62.4852 86.9032C62.9007 86.5931 63.4297 86.4775 63.9445 86.4046C67.7993 85.8574 71.8832 87.2984 74.5423 90.1419C76.3988 92.1322 78.3567 93.0138 81.0644 93.3138Z" fill="#DC19ED"/>
<path opacity="0.45" d="M119.388 71.0564C118.567 71.6036 117.647 71.938 116.698 71.9461C112.837 71.9806 109.325 67.0292 107.696 64.133C107.039 62.9696 106.396 61.7617 106.2 60.4403C106.003 59.1188 106.33 57.6454 107.345 56.7779C108.946 55.4119 111.396 56.0645 113.302 56.9583C116.165 58.302 121.638 60.8112 122.499 64.0965C123.127 66.5002 121.621 69.5687 119.388 71.0564Z" fill="#DC19ED"/>
<defs>
<linearGradient id="paint0_linear_317_10570" x1="89.0011" y1="119.999" x2="89.0011" y2="-0.00178099" gradientUnits="userSpaceOnUse">
<stop offset="0.2487" stop-color="#7200F5"/>
<stop offset="0.4277" stop-color="#7503F4"/>
<stop offset="0.5542" stop-color="#7E0CF0"/>
<stop offset="0.6645" stop-color="#8D1CE8"/>
<stop offset="0.7655" stop-color="#A232DE"/>
<stop offset="0.8603" stop-color="#BD4ED1"/>
<stop offset="0.9492" stop-color="#DE71C2"/>
<stop offset="1" stop-color="#F588B7"/>
</linearGradient>
</defs>
</svg>
