<svg width="179" height="120" viewBox="0 0 179 120" fill="none" xmlns="http://www.w3.org/2000/svg">
<path d="M118.441 48.1559C120.168 43.3302 120.836 38.1843 120.386 32.9675C118.684 13.1601 101.183 -1.57028 81.3756 0.13421L60.3684 1.94004C51.5723 2.69601 45.032 10.4666 45.788 19.2626L53.293 106.544C53.824 112.728 57.8248 117.797 63.2119 120L97.393 118.822C119.158 116.95 135.338 97.6551 133.459 75.8088C132.514 64.8056 127.04 54.8989 118.441 48.1559ZM79.2232 32.6047L84.132 32.1831C86.3391 31.9926 88.1469 33.5147 88.3375 35.7239C88.532 37.9837 86.9228 40.0449 84.8231 40.2253L79.9143 40.6468L79.2232 32.6047ZM94.6386 86.7695L83.9617 87.6876L82.6727 72.6957L93.2138 71.7878C97.4578 71.4979 101.059 74.4732 101.41 78.5612C101.775 82.8011 98.8036 86.3378 94.6386 86.7695Z" fill="url(#paint0_linear_317_9248)"/>
<path opacity="0.25" d="M79.0659 46.7136C88.0343 49.3139 97.8985 46.6305 106.857 49.2592C114.039 51.367 120.091 57.0033 122.706 64.0179C123.746 66.8087 124.256 69.9279 123.338 72.7613C122.418 75.5947 119.787 78.0025 116.81 77.9518C114.163 77.9072 111.883 76.0325 110.3 73.9125C108.717 71.7905 107.592 69.3422 105.886 67.3215C102.526 63.345 97.1668 61.4358 91.9621 61.373C86.7574 61.3122 81.6642 62.9133 76.8872 64.9826C72.7465 66.7763 68.3181 68.9875 63.9403 67.8971C57.7952 66.3689 54.9537 58.1626 57.8601 52.5384C60.7665 46.9142 67.8479 44.2916 74.0943 45.3273C76.4778 45.7225 76.7413 46.0407 79.0659 46.7136Z" fill="#DC19ED"/>
<path opacity="0.25" d="M106.648 14.9579C103.075 10.8395 96.8545 8.57565 92.0126 10.8841C91.283 8.74387 89.7245 6.79414 87.7768 5.60038C81.0824 1.49825 64.4144 1.74551 57.8154 6.74144C52.1729 11.0118 49.6131 30.2051 58.1478 32.09C61.7067 32.8763 64.5847 29.443 67.335 27.0515C69.607 25.0774 72.3411 23.6384 75.2555 22.8824C78.3443 22.0819 81.5891 22.0474 84.6819 21.2671C86.054 20.9226 87.4241 20.3693 88.632 19.6133C89.5704 21.2043 91.0804 22.5602 92.2376 24.0539C94.9474 27.55 95.7581 32.4325 94.3252 36.6177C93.7415 38.3202 92.8011 40.0368 93.1274 41.8062C93.6624 44.7024 97.1626 45.9124 100.105 46.0502C101.909 46.1353 103.752 46.0218 105.444 45.3915C117.315 40.9711 112.969 22.244 106.648 14.9579Z" fill="#DC19ED"/>
<path opacity="0.25" d="M61.4858 107.033C64.2421 111.04 68.7273 113.811 73.5429 114.482C76.5283 114.897 79.5603 114.54 82.5518 114.184C84.8015 113.916 87.0512 113.647 89.2988 113.379C94.2056 112.795 99.1833 112.191 103.752 110.311C108.32 108.428 112.509 105.071 114.268 100.454C115.555 97.0718 115.136 92.6474 112.128 90.6369C110.624 89.6316 108.727 89.3925 106.919 89.4796C99.8399 89.8181 93.0584 94.6438 86.1655 92.992C79.7832 91.4638 75.0042 84.6377 68.4578 85.0877C56.6885 85.8943 56.2831 99.4695 61.4858 107.033Z" fill="#DC19ED"/>
<path d="M112.462 33.9221C112.462 33.9221 112.48 33.3525 112.454 32.3351C112.432 31.3177 112.298 29.8523 111.947 28.0952C111.27 24.5869 109.416 19.9254 106.035 15.7421C102.645 11.5569 98.5465 8.6607 95.4111 6.89135C93.8404 6.00161 92.5129 5.35305 91.5765 4.94365C90.6361 4.54033 90.1152 4.31738 90.1152 4.31738C90.1152 4.31738 90.6706 4.42683 91.6697 4.67612C92.6669 4.92338 94.1059 5.33684 95.8306 6.01782C99.2518 7.35548 103.927 9.96997 107.594 14.4835C111.266 19.0032 112.758 24.2585 112.947 27.9634C113.06 29.8301 112.93 31.3339 112.764 32.3534C112.598 33.3728 112.462 33.9221 112.462 33.9221Z" fill="white"/>
<path d="M87.1465 42.0009C87.1465 42.0009 87.6025 41.6787 88.1254 41.1335C88.6605 40.5862 89.2016 39.808 89.7225 38.9405C90.2353 38.071 90.673 37.2158 90.8818 36.478C91.0946 35.7504 91.1432 35.2012 91.1432 35.2012C91.1432 35.2012 91.5283 35.5923 91.7918 36.4557C92.0634 37.3009 92.0897 38.6771 91.3743 39.9113C90.6548 41.1416 89.4469 41.8084 88.5693 41.9766C87.6775 42.159 87.1465 42.0009 87.1465 42.0009Z" fill="white"/>
<path d="M99.6465 87.3104C99.6465 87.3104 100.218 86.8037 100.925 85.9342C101.643 85.0668 102.407 83.8021 103.039 82.3388C103.655 80.8694 104.055 79.4466 104.186 78.3258C104.328 77.2131 104.292 76.4531 104.292 76.4531C104.292 76.4531 104.752 77.053 105.096 78.2529C105.441 79.4324 105.538 81.2788 104.766 83.0765C103.994 84.8722 102.606 86.0862 101.511 86.6537C100.404 87.2374 99.6465 87.3104 99.6465 87.3104Z" fill="white"/>
<path d="M126.809 81.9619C126.809 81.9619 126.764 82.5355 126.685 83.5732C126.653 84.0961 126.59 84.7325 126.458 85.4641C126.335 86.1958 126.229 87.043 125.984 87.9489C125.583 89.7852 124.882 91.9254 123.88 94.2156C123.339 95.3384 122.796 96.5423 122.064 97.6895C121.385 98.8711 120.554 100.012 119.705 101.18C118.789 102.296 117.922 103.407 116.965 104.378C116.059 105.393 115.052 106.246 114.12 107.071C112.188 108.656 110.321 109.913 108.664 110.798C107.859 111.279 107.073 111.613 106.404 111.931C105.737 112.26 105.143 112.493 104.651 112.671C103.678 113.036 103.139 113.239 103.139 113.239C103.139 113.239 103.633 112.945 104.525 112.414C104.975 112.158 105.516 111.834 106.114 111.408C106.716 110.991 107.425 110.561 108.143 109.984C111.092 107.813 114.849 104.437 118.208 100.047C121.469 95.5877 123.738 91.0904 125.015 87.6551C125.374 86.8099 125.597 86.0114 125.836 85.3182C126.083 84.6271 126.252 84.0191 126.379 83.5185C126.655 82.5173 126.809 81.9619 126.809 81.9619Z" fill="white"/>
<path d="M53.1152 44.344C53.1152 44.344 51.2831 36.2998 50.2474 26.237C49.6941 21.1904 49.9758 16.3729 51.1534 13.1524C51.7087 11.5411 52.3856 10.3372 52.9085 9.56096C53.4395 8.78674 53.7699 8.39355 53.7699 8.39355C53.7699 8.39355 53.5287 8.85362 53.1538 9.6927C52.7869 10.5378 52.3674 11.8025 52.0776 13.3935C51.4432 16.5877 51.6844 21.0567 52.2174 26.0425C53.2511 36.085 53.1152 44.344 53.1152 44.344Z" fill="white"/>
<path d="M117.541 51.563C117.541 51.563 117.13 51.2205 116.495 50.8334C116.181 50.6388 115.808 50.4402 115.409 50.2497C115.093 50.1017 114.763 49.9477 114.42 49.7876C113.863 49.5606 113.287 49.3275 112.695 49.0863C112.829 48.9728 112.991 48.835 113.153 48.6972C113.772 48.1723 114.26 47.7365 114.607 47.3008C114.793 47.1022 114.973 46.9116 115.146 46.7292C115.504 46.3583 115.829 46.0199 116.106 45.7321C116.682 45.1342 117.055 44.7471 117.055 44.7471C117.055 44.7471 117.114 45.2943 116.968 46.1597C116.891 46.5894 116.757 47.0961 116.528 47.6251C116.412 47.8885 116.275 48.1601 116.11 48.4276C116.121 48.4601 116.143 48.456 116.143 48.456L116.155 48.454C116.108 48.4641 116.106 48.4682 116.086 48.4986C116.098 48.527 116.035 48.5067 116.121 48.5878C116.24 48.6891 116.345 48.8006 116.449 48.906C116.85 49.3458 117.116 49.8058 117.274 50.2112C117.592 51.028 117.541 51.563 117.541 51.563Z" fill="white"/>
<path d="M64.2743 114.678C64.2743 114.678 63.4839 114.745 62.2314 114.404C60.991 114.074 59.3149 113.184 58.0624 111.597C56.8179 110.002 56.3518 108.166 56.3133 106.885C56.2646 105.592 56.4997 104.838 56.4997 104.838C56.4997 104.838 56.7531 105.592 57.2739 106.646C57.7908 107.71 58.6258 109.017 59.6655 110.328C60.7113 111.636 61.7936 112.736 62.7056 113.488C63.6035 114.246 64.2743 114.678 64.2743 114.678Z" fill="white"/>
<path opacity="0.45" d="M61.501 25.7019C61.5557 27.299 61.6489 29.0136 62.6279 30.2783C63.7912 31.7822 65.9477 32.2159 67.8103 31.8328C69.6728 31.4498 71.3165 30.3959 72.9136 29.3622C77.6096 26.3221 82.5123 23.057 85.0457 18.0712C85.7672 16.6484 86.278 14.9865 85.7834 13.4705C85.0112 11.1053 82.2306 10.1243 79.7782 9.71292C67.1901 7.59902 61.0571 12.601 61.501 25.7019Z" fill="#DC19ED"/>
<path opacity="0.45" d="M81.7324 93.3138C84.0976 97.0734 90.4332 95.8918 93.3314 99.2582C95.0805 101.293 94.965 104.335 94.2901 106.933C94.0043 108.036 93.6253 109.135 92.9707 110.069C91.8884 111.607 90.1454 112.558 88.3618 113.162C83.5949 114.775 78.1247 114.169 73.828 111.548C70.721 109.655 68.293 106.832 66.1548 103.889C64.4888 101.597 62.9485 99.165 62.0952 96.4633C61.2419 93.7617 61.1305 90.7418 62.2736 88.1476C62.4803 87.6774 62.7397 87.2092 63.1532 86.9032C63.5686 86.5931 64.0976 86.4775 64.6124 86.4046C68.4673 85.8574 72.5512 87.2984 75.2103 90.1419C77.0668 92.1322 79.0246 93.0138 81.7324 93.3138Z" fill="#DC19ED"/>
<path opacity="0.45" d="M120.057 71.0564C119.236 71.6036 118.316 71.938 117.367 71.9461C113.506 71.9806 109.994 67.0292 108.365 64.133C107.708 62.9696 107.065 61.7617 106.869 60.4403C106.672 59.1188 106.999 57.6454 108.014 56.7779C109.615 55.4119 112.065 56.0645 113.971 56.9583C116.834 58.302 122.307 60.8112 123.168 64.0965C123.796 66.5002 122.29 69.5687 120.057 71.0564Z" fill="#DC19ED"/>
<defs>
<linearGradient id="paint0_linear_317_9248" x1="89.669" y1="119.999" x2="89.669" y2="-0.00178099" gradientUnits="userSpaceOnUse">
<stop offset="0.2487" stop-color="#7200F5"/>
<stop offset="0.4277" stop-color="#7503F4"/>
<stop offset="0.5542" stop-color="#7E0CF0"/>
<stop offset="0.6645" stop-color="#8D1CE8"/>
<stop offset="0.7655" stop-color="#A232DE"/>
<stop offset="0.8603" stop-color="#BD4ED1"/>
<stop offset="0.9492" stop-color="#DE71C2"/>
<stop offset="1" stop-color="#F588B7"/>
</linearGradient>
</defs>
</svg>
