<svg width="179" height="120" viewBox="0 0 179 120" fill="none" xmlns="http://www.w3.org/2000/svg">
<path d="M123.775 119.993C115.077 119.736 108.21 112.452 108.466 103.753L109.577 66.1213L102.219 75.7286C99.0166 79.8381 94.2738 82.0775 89.1695 81.9257L88.8759 81.9177C83.6777 81.7639 79.0248 79.2467 76.1081 75.0134L69.4335 65.0705L68.3267 102.567C68.069 111.265 60.7192 118.129 51.941 117.872C43.2427 117.614 36.3743 110.33 36.632 101.632L39.1792 15.3159C39.4349 6.61755 46.7208 -0.248798 55.4191 0.00691695L55.8586 0.0208785C60.937 0.170712 65.7396 2.86373 68.4326 7.06306L90.2783 39.3271L114.058 8.31764C117.258 4.21221 121.999 1.97272 127.103 2.12455L127.509 2.14053C136.135 2.68592 142.954 9.96782 142.706 18.3725L140.159 104.688C139.911 113.239 132.405 120.247 123.775 119.993Z" fill="url(#paint0_linear_317_2628)"/>
<path opacity="0.39" d="M50.5239 47.4144C49.9565 55.2817 49.3872 63.1509 48.8198 71.0182C48.0426 81.7842 47.2735 92.716 49.4551 103.288C49.8526 105.214 50.8016 107.522 52.7634 107.635C54.6033 107.741 55.836 105.791 56.4493 104.053C58.9565 96.9513 58.2373 89.1859 58.469 81.6563C58.7008 74.1307 59.9194 66.637 62.085 59.4251C62.8142 56.9978 63.899 54.3288 66.2544 53.3918C68.7915 52.3829 71.6444 53.8772 73.6441 55.7372C76.5489 58.4362 78.5847 61.9323 81.2836 64.839C83.9806 67.7458 87.7624 70.1431 91.6861 69.5678C99.4654 68.4251 102.624 56.8699 110.467 56.3105C116.195 55.901 120.39 61.9103 121.447 67.554C122.502 73.1977 121.737 79.1831 123.688 84.5831C124.344 86.395 125.632 88.3229 127.558 88.4068C128.845 88.4627 130.015 87.6436 130.88 86.6867C133.502 83.7879 134.135 79.6585 134.654 75.7868C135.917 66.3653 137.179 56.9438 138.442 47.5223C139.565 39.1396 140.692 30.6671 139.86 22.2504C139.371 17.2999 137.026 11.3346 132.061 11.0209C128.503 10.7972 125.616 13.7079 123.261 16.387C117.114 23.3772 110.969 30.3654 104.821 37.3556C101.817 40.7718 98.7022 44.2759 94.6148 46.2757C76.7866 55.002 78.4188 28.4755 70.176 20.3366C65.8448 16.0613 57.2424 8.81341 54.4076 16.8025C51.0833 26.1661 51.2331 37.6074 50.5239 47.4144Z" fill="#4C9F48"/>
<path opacity="0.09" d="M115.189 97.5583C115.165 100.403 115.221 103.31 116.164 105.993C117.107 108.678 119.087 111.145 121.81 111.976C125.807 113.195 130.156 110.472 132.192 106.822C134.23 103.172 134.511 98.8349 134.747 94.6616C135.41 82.9366 136.074 71.2137 136.739 59.4887C136.891 56.8177 137.029 54.0588 136.114 51.5456C135.197 49.0324 132.937 46.8068 130.26 46.7989C127.797 46.7909 125.647 48.6528 124.513 50.8384C123.378 53.0259 123.036 55.5212 122.581 57.9425C121.272 64.8987 117.418 71.0738 116.064 77.8543C114.837 84.0034 115.243 91.2973 115.189 97.5583Z" fill="white"/>
<path opacity="0.09" d="M69.5495 36.9352C79.4365 28.0891 68.3888 7.43406 55.7529 9.40187C40.4539 11.7812 44.1058 38.1938 48.5868 47.5234C48.8326 48.0349 49.1422 48.5563 49.4858 49.0557C49.1163 49.7549 48.8126 50.5001 48.5789 51.2193C46.8388 56.5554 45.772 62.0892 45.3065 67.681C44.4614 77.8237 41.4268 88.9473 42.4477 99.2059C42.7434 102.171 43.4446 105.193 45.2086 107.595C46.9727 109.996 49.9853 111.652 52.92 111.133C57.3571 110.348 59.5866 105.413 60.8472 101.086C63.7939 90.9751 65.496 80.5047 65.9056 69.9804C65.9875 67.8668 66.0055 65.6812 65.1944 63.7274C64.3833 61.7736 62.5333 60.1014 60.4197 60.1454C59.2969 60.1694 57.9664 60.5949 57.1893 59.7818C56.7937 59.3682 56.7038 58.7529 56.6818 58.1816C56.5959 55.8082 57.383 53.4628 57.2352 51.0935C57.1893 50.3403 56.9775 49.5711 56.6539 48.8619C57.0634 47.7911 57.3631 46.6025 57.8406 45.5916C59.9482 41.1385 65.8776 40.2216 69.5495 36.9352Z" fill="white"/>
<path opacity="0.09" d="M99.6805 37.4794C102.166 33.4159 105.122 29.6401 108.473 26.2539C110.704 23.9984 113.309 21.8208 116.456 21.4113C117.273 21.3054 118.142 21.3333 118.865 21.7309C120.525 22.6439 120.667 24.9493 120.467 26.8312C119.668 34.3548 116.734 41.6407 112.097 47.6181C109.506 50.9564 106.285 53.961 102.326 55.4394C99.2949 56.5701 96.0006 56.7499 92.7662 56.7979C90.6246 56.8298 88.415 56.7939 86.4512 55.9388C83.6464 54.7182 81.7465 51.9613 80.8335 49.0425C79.2632 44.0221 77.3793 35.124 83.964 40.2143C90.8324 45.5284 94.9597 45.2008 99.6805 37.4794Z" fill="white"/>
<path d="M40.7148 42.8931C40.7148 42.8931 41.0805 40.1482 41.466 35.7251C41.6578 33.5136 41.8416 30.8845 41.9674 27.9637C42.1073 25.043 42.1752 21.7587 42.8724 18.3125C43.5577 14.8683 44.9541 11.6459 46.9958 9.26656C48.9996 6.84925 51.6767 5.4648 53.9701 5.08323C56.2835 4.67169 58.1874 5.08321 59.3441 5.58865C60.5148 6.09409 61.0402 6.55559 61.0402 6.55559C61.0402 6.55559 60.4349 6.18998 59.2462 5.88632C58.0675 5.58266 56.2535 5.47277 54.2158 6.10007C52.1741 6.70939 50.0185 8.12182 48.3903 10.3793C46.7362 12.6068 45.5994 15.5316 44.9681 18.74C44.3268 21.9604 44.1111 25.1689 43.7735 28.1076C43.4438 31.0543 42.9903 33.6914 42.5288 35.8829C41.5959 40.268 40.7148 42.8931 40.7148 42.8931Z" fill="white"/>
<path d="M99.0849 37.623C99.0849 37.623 98.6674 38.6599 97.7284 40.2202C97.2469 40.9933 96.6096 41.9003 95.6986 42.7713C94.7917 43.6463 93.559 44.4534 92.0787 44.859C90.5983 45.2665 89.0121 45.1706 87.7535 44.5573C86.4989 43.944 85.7078 42.9651 85.2942 42.0741C84.4732 40.1942 85.1824 39.0335 85.1164 39.0754C85.1164 39.0754 85.1044 39.3611 85.2083 39.8346C85.3062 40.306 85.5959 40.9473 86.1253 41.5487C86.6487 42.15 87.4498 42.7074 88.3788 42.9671C89.3018 43.2228 90.4165 43.1768 91.5373 42.8732C93.8148 42.2579 95.6247 40.7156 96.9373 39.5569C98.2598 38.3682 99.0849 37.623 99.0849 37.623Z" fill="white"/>
<path d="M115.183 107.327C115.183 107.327 115.061 107.18 114.831 106.898C114.592 106.62 114.28 106.179 113.918 105.579C113.203 104.379 112.43 102.439 112.104 99.9277C111.751 97.4224 111.851 94.4058 112.098 91.1554C112.33 87.9031 112.628 84.329 113.003 80.5872C113.379 76.8473 113.808 73.2753 114.222 70.0589C114.418 68.4707 114.512 66.9963 114.292 65.6698C114.086 64.3593 113.527 63.1965 112.774 62.3675C112.016 61.5384 111.059 61.0509 110.156 61.017C109.246 60.959 108.45 61.2507 107.895 61.6003C106.766 62.3615 106.678 63.2724 106.65 63.2305C106.69 63.2724 106.616 62.3535 107.717 61.3646C108.267 60.9091 109.09 60.4716 110.153 60.4037C111.217 60.3118 112.474 60.7473 113.479 61.6463C114.486 62.5433 115.275 63.8538 115.654 65.3841C116.042 66.9024 116.052 68.5646 115.946 70.2147C115.722 73.4871 115.425 77.0471 115.053 80.795C114.677 84.5388 114.258 88.0988 113.838 91.3332C113.403 94.5616 113.061 97.4284 113.145 99.8457C113.201 102.261 113.687 104.181 114.212 105.44C114.737 106.692 115.183 107.327 115.183 107.327Z" fill="white"/>
<path d="M60.141 110.728C60.141 110.728 59.9093 110.981 59.4358 111.395C58.9644 111.808 58.2292 112.372 57.2023 112.885C55.2025 113.918 51.8003 114.747 48.2962 113.578C44.8001 112.442 42.5207 109.817 41.4898 107.813C40.9804 106.826 40.5908 105.903 40.7087 105.2C40.8146 104.46 41.348 104.432 41.304 104.434C41.332 104.419 40.8945 104.614 40.9943 105.206C41.0483 105.771 41.5877 106.452 42.2869 107.273C43.6674 108.878 45.9888 110.706 48.9315 111.624C51.8503 112.585 54.787 112.396 56.8407 111.908C57.8756 111.668 58.7006 111.359 59.264 111.121C59.8334 110.885 60.141 110.728 60.141 110.728Z" fill="white"/>
<path d="M137.352 13.8036C137.352 13.8036 137.24 13.5139 136.997 13.0365C136.759 12.557 136.331 11.9117 135.708 11.2485C134.474 9.91996 132.258 8.59942 129.651 8.27179C127.004 7.94615 124.463 8.50952 122.665 9.10286C120.861 9.70419 119.754 10.2496 119.754 10.2496C119.754 10.2496 120.555 9.31861 122.233 8.20984C123.869 7.12305 126.62 5.84447 129.903 6.21606C133.227 6.6276 135.63 8.80918 136.561 10.6431C137.049 11.5661 137.25 12.3812 137.306 12.9406C137.366 13.5 137.352 13.8036 137.352 13.8036Z" fill="white"/>
<path d="M137.279 88.8857C137.279 88.8857 136.965 90.5139 136.915 93.129C136.79 95.7381 137.141 99.3661 136.514 103.511C135.833 107.709 133.571 111.165 131.26 112.747C130.113 113.546 129.048 113.94 128.305 114.086C127.564 114.242 127.152 114.257 127.152 114.257C127.152 114.257 127.55 114.124 128.203 113.802C128.862 113.492 129.739 112.897 130.613 111.994C132.377 110.19 133.917 106.96 134.534 103.182C135.135 99.3501 135.327 95.6362 135.945 93.0111C136.512 90.3701 137.279 88.8857 137.279 88.8857Z" fill="white"/>
<defs>
<linearGradient id="paint0_linear_317_2628" x1="89.6732" y1="119.999" x2="89.6732" y2="0.00251763" gradientUnits="userSpaceOnUse">
<stop stop-color="#55992E"/>
<stop offset="0.9757" stop-color="#4C9F48"/>
</linearGradient>
</defs>
</svg>
