<svg width="178" height="120" viewBox="0 0 178 120" fill="none" xmlns="http://www.w3.org/2000/svg">
<path d="M120.559 120C116.004 120 111.656 117.982 108.565 114.45C108.137 114.013 107.542 113.369 107.002 112.512L73.503 66.0327V103.8C73.503 112.582 66.1526 120 57.4527 120C48.5211 120 41.2527 112.732 41.2527 103.8V16.5446C41.0414 11.3251 43.5333 6.17113 47.8032 3.04352L48.0309 2.88151C50.8017 0.994682 54.0298 0 57.3645 0C62.5656 0 67.4344 2.48978 70.3898 6.65925L104.508 53.875V16.5036C104.508 7.65394 111.709 0.453234 120.557 0.453234C129.339 0.453234 136.759 7.80365 136.759 16.5036V103.8C136.761 112.734 129.493 120 120.559 120Z" fill="url(#paint0_linear_317_2606)"/>
<path opacity="0.25" d="M109.246 57.552C109.238 59.5537 109.232 61.6456 108.321 63.4299C107.413 65.2141 105.286 66.5554 103.401 65.8786C101.756 65.29 100.932 63.5017 100.222 61.904C92.5291 44.5883 78.8353 30.7755 65.4327 17.3811C63.9417 15.8922 62.0159 14.274 59.9835 14.8339C59.0524 15.0903 58.3017 15.7773 57.6536 16.4931C52.6269 22.0469 51.7204 30.0864 51.1749 37.5558C49.8377 55.9256 49.245 74.3488 49.3988 92.7659C49.4275 96.3119 50.1063 100.74 53.4965 101.782C55.6807 102.452 58.1007 101.205 59.4441 99.3575C60.7874 97.5096 61.2735 95.1839 61.6098 92.9238C63.3018 81.568 62.1718 69.5846 66.5812 58.9856C67.662 56.3871 69.8647 53.522 72.6149 54.1167C73.5542 54.3198 74.3541 54.9145 75.1109 55.5093C89.3995 66.7564 98.729 83.1082 111.775 95.7746C114.273 98.2008 117.435 100.652 120.866 100.047C123.528 99.5769 125.577 97.2881 126.525 94.7573C127.472 92.2265 127.513 89.4599 127.532 86.7568C127.671 66.7441 128.108 47.0186 129.679 27.0716C130.192 20.5682 128.576 13.833 121.539 11.7104C113.493 9.28415 112.154 17.2499 111.395 23.3472C109.984 34.6866 109.291 46.1265 109.246 57.552Z" fill="#6A36FE"/>
<path opacity="0.25" d="M81.0107 29.2744C85.3176 34.6601 88.9313 40.2241 86.2816 47.9437C86.0806 48.5282 85.8181 49.1271 85.3258 49.5024C84.9034 49.8244 84.3619 49.9433 83.8348 50.0069C77.838 50.7473 72.7231 45.8518 69.052 41.0527C65.3788 36.2556 61.5724 30.7531 55.6801 29.4159C52.573 28.7104 48.945 29.178 46.57 27.0512C44.5602 25.2526 44.2484 22.1803 44.7858 19.5388C45.7128 14.9632 48.8793 10.8697 53.1288 8.93361C57.3783 6.99757 62.606 7.31545 66.5253 9.85241C70.1513 12.2007 71.7633 15.6893 73.7014 19.3316C75.582 22.8653 78.4205 26.0381 81.0107 29.2744Z" fill="white"/>
<path opacity="0.25" d="M113.922 20.4698C118.809 28.2611 119.479 37.9475 119.112 47.1375C118.745 56.3276 117.484 65.6018 119.032 74.6667C119.336 76.4428 119.769 78.2558 120.823 79.7201C121.875 81.1824 123.682 82.2304 125.456 81.9146C128.821 81.3137 129.627 76.9473 129.888 73.5387C130.657 63.4647 133.329 53.6266 134.513 43.5916C135.755 33.0397 135.608 19.4381 127.96 11.0766C120.382 2.79102 107.428 10.1189 113.922 20.4698Z" fill="white"/>
<path opacity="0.25" d="M56.9366 112.243C57.8903 112.35 58.8768 112.313 59.7731 111.972C61.1882 111.435 62.2177 110.209 63.0811 108.966C67.023 103.299 68.8052 96.406 69.7588 89.5703C70.0706 87.3328 70.2941 85.003 69.5825 82.8598C68.3499 79.1477 64.324 76.7584 60.415 76.8794C44.3339 77.3737 39.5614 110.299 56.9366 112.243Z" fill="white"/>
<path opacity="0.25" d="M113.848 84.3517C119.939 88.5437 125.651 93.0496 126.992 93.9499C127.824 94.5098 128.684 95.0984 129.19 95.9659C129.828 97.0631 129.791 98.4106 129.736 99.6781C129.535 104.147 128.965 109.266 125.283 111.807C122.396 113.801 118.376 113.448 115.277 111.803C112.178 110.158 109.814 107.432 107.607 104.705C101.546 97.217 95.8223 88.3017 96.8211 78.722C96.8744 78.2195 96.9524 77.6986 97.2374 77.2802C98.8863 74.8601 106.635 79.3865 113.848 84.3517Z" fill="white"/>
<path d="M44.3876 38.8664C44.3876 38.8664 44.1272 36.27 43.9385 32.0513C43.7929 27.849 43.7067 21.9239 45.1916 15.5231C45.9258 12.3791 46.982 9.21451 49.037 6.93802C51.0982 4.63076 53.8771 3.74272 56.0552 3.65864C58.2804 3.56224 59.997 4.16726 61.0553 4.70665C62.1176 5.26859 62.6016 5.71363 62.6016 5.71363C62.6016 5.71363 62.0356 5.36705 60.9322 5.00404C59.835 4.65538 58.1491 4.37235 56.1721 4.71895C54.2135 5.05119 51.9595 6.09307 50.4234 8.09884C48.8504 10.1108 47.9993 12.9492 47.2917 16.0112C45.8807 22.1331 45.4069 27.9002 45.007 32.0759C44.6235 36.2699 44.3876 38.8664 44.3876 38.8664Z" fill="white"/>
<path d="M109.349 51.4346C109.349 51.4346 109.739 52.4005 109.71 54.1171C109.687 54.9683 109.529 56.0019 109.103 57.0807C108.894 57.6119 108.613 58.1923 108.163 58.746C107.725 59.2916 107.029 59.8514 106.131 60.0176C105.247 60.1775 104.48 59.9704 103.861 59.7263C103.243 59.47 102.698 59.1419 102.23 58.7706C101.291 58.0262 100.678 57.1422 100.3 56.3649C99.9291 55.5794 99.7794 54.9006 99.7178 54.4392C99.6543 53.9757 99.6625 53.7213 99.6625 53.7213C99.6625 53.7213 100.048 54.7078 101.098 55.8235C101.627 56.3711 102.316 56.9412 103.157 57.3719C103.959 57.7924 105.075 58.1841 105.745 58.0364C106.381 57.94 107.062 57.1627 107.563 56.3239C108.075 55.4933 108.453 54.6668 108.717 53.9367C109.248 52.4744 109.349 51.4346 109.349 51.4346Z" fill="white"/>
<path d="M131.44 40.5462C131.44 40.5462 131.737 30.6424 130.228 18.7472C129.824 15.7673 129.569 12.9063 128.573 10.718C127.635 8.48658 125.749 7.21503 123.905 6.76384C122.067 6.29213 120.435 6.3598 119.341 6.44388C118.238 6.53617 117.627 6.65102 117.627 6.65102C117.627 6.65102 118.203 6.42747 119.292 6.1465C120.377 5.87988 122.01 5.5251 124.1 5.76505C125.139 5.89016 126.29 6.23264 127.397 6.90738C128.495 7.59648 129.477 8.65886 130.152 9.92427C131.536 12.4817 131.905 15.4863 132.32 18.4888C133.08 24.5861 132.875 30.1707 132.443 34.1494C131.993 38.1343 131.44 40.5462 131.44 40.5462Z" fill="white"/>
<path d="M131.305 97.7451C131.305 97.7451 131.342 98.2271 131.411 99.0946C131.467 99.9642 131.561 101.225 131.504 102.805C131.436 104.38 131.235 106.301 130.425 108.344C129.623 110.346 128.185 112.512 125.831 113.826C123.452 115.155 120.757 115.096 118.673 114.517C116.538 113.945 114.889 112.866 113.642 111.902C112.391 110.924 111.503 110.018 110.892 109.396C110.293 108.765 109.961 108.414 109.961 108.414C109.961 108.414 110.361 108.683 111.081 109.169C111.803 109.649 112.855 110.338 114.192 111.06C115.531 111.769 117.174 112.501 119.051 112.815C120.917 113.137 123.033 113.018 124.822 112.007C126.631 111.004 127.945 109.306 128.817 107.616C129.693 105.918 130.146 104.16 130.468 102.678C131.067 99.6791 131.305 97.7451 131.305 97.7451Z" fill="white"/>
<path d="M67.346 106.32C67.346 106.32 67.346 106.692 67.2045 107.364C67.063 108.033 66.7164 109.001 65.9863 110.034C64.5834 112.1 61.3861 114.315 57.395 114.432C55.4262 114.503 53.5476 114.001 52.0504 113.236C50.5451 112.473 49.3986 111.472 48.5864 110.539C47.7702 109.604 47.2821 108.732 46.9826 108.127C46.6832 107.52 46.5684 107.167 46.5684 107.167C46.5684 107.167 46.7816 107.473 47.2205 107.969C47.6574 108.464 48.3219 109.148 49.2468 109.829C51.0701 111.212 54.009 112.504 57.3294 112.331C60.6478 112.231 63.5436 110.851 65.1966 109.335C66.0334 108.585 66.5913 107.822 66.905 107.247C67.225 106.679 67.346 106.32 67.346 106.32Z" fill="white"/>
<path d="M69.6481 81.8674C69.6481 81.8674 69.3589 80.6738 69 78.7172C68.6411 76.7627 68.2166 74.035 68.0792 71.0058C68.0033 69.5005 67.9807 68.0587 68.2966 66.6292C68.5816 65.2325 69.3569 63.9343 70.3393 63.3478C71.2806 62.7243 72.2384 62.6689 72.8065 62.8002C73.3869 62.9397 73.6228 63.1529 73.6228 63.1529C73.6228 63.1529 73.3151 63.036 72.788 63.0935C72.2692 63.1509 71.5493 63.4503 70.973 64.1128C70.3762 64.7486 70.0788 65.7104 70.0091 66.8876C69.927 68.0443 70.0665 69.482 70.1526 70.9751C70.3085 73.953 70.1506 76.6642 69.9845 78.6475C69.8163 80.6266 69.6481 81.8674 69.6481 81.8674Z" fill="white"/>
<defs>
<linearGradient id="paint0_linear_317_2606" x1="89.0008" y1="120" x2="89.0008" y2="-0.00102283" gradientUnits="userSpaceOnUse">
<stop stop-color="#652FA2"/>
<stop offset="0.9757" stop-color="#2728F2"/>
</linearGradient>
</defs>
</svg>
