<svg width="179" height="120" viewBox="0 0 179 120" fill="none" xmlns="http://www.w3.org/2000/svg">
<path d="M81.6715 119.547C66.3255 117.494 52.296 108.999 43.1774 96.2422C34.1303 83.8034 30.2977 68.2032 32.4185 52.3608C34.5155 36.6912 42.3017 22.6597 54.3414 12.852C66.3116 2.93711 82.1004 -1.58049 97.6052 0.494636C112.679 2.51217 126.786 11.2376 135.343 23.8353C144.43 36.5323 148.351 52.1304 146.28 67.6015C144.185 83.2474 136.284 97.2768 124.028 107.108C112.479 116.85 96.5925 121.545 81.6715 119.547ZM93.3676 32.1676C86.5028 31.2482 79.9895 33.1287 74.5306 37.6046C68.8851 42.1302 65.1042 49.0347 64.0915 56.6024C63.0748 64.196 64.8957 71.7736 69.0837 77.3933C73.3491 83.3923 79.1317 86.9707 85.9091 87.8762C92.2159 88.7201 98.7093 86.7106 104.19 82.2188C109.752 77.7567 113.622 70.7252 114.607 63.3639C115.604 55.9213 113.751 48.2384 109.53 42.285C105.505 36.6197 99.7618 33.0234 93.3676 32.1676Z" fill="url(#paint0_linear_317_2586)"/>
<path opacity="0.39" d="M41.0417 50.8697C40.0965 61.6206 42.3424 72.5324 46.711 82.4016C48.0713 85.4736 49.6401 88.4642 51.604 91.1907C57.4779 99.3482 66.9381 104.821 76.9384 105.85C78.7792 106.038 80.8007 106.034 82.2701 104.912C84.5558 103.169 84.3512 99.4991 82.7646 97.1003C81.1799 94.7035 78.6263 93.1605 76.3982 91.3436C70.8897 86.8518 67.222 80.4933 64.3704 73.982C61.9458 68.4437 59.9978 62.5202 60.2718 56.4815C60.6749 47.6329 65.9908 39.4337 73.2389 34.3442C80.4869 29.2527 89.4606 27.0306 98.3151 26.7665C103.512 26.6116 108.993 27.0346 113.619 24.6616C116.121 23.3788 118.367 20.9006 118.075 18.1046C117.803 15.5072 115.52 13.6505 113.407 12.1136C109.549 9.30568 105.613 6.51966 101.189 4.73248C92.61 1.2693 82.709 1.89877 74.1067 5.30237C55.7463 12.5683 42.7594 31.3258 41.0417 50.8697Z" fill="#4C9F48"/>
<path opacity="0.39" d="M140.105 52.4061C139.527 48.9966 138.516 45.4977 136.14 42.9837C133.763 40.4697 129.702 39.2762 126.737 41.0595C124.298 42.5249 123.234 45.4817 122.611 48.2578C121.175 54.66 121.143 61.3023 119.898 67.7442C118.655 74.186 115.913 80.7549 110.503 84.4683C105.416 87.9612 98.0586 89.0017 95.4096 94.5758C93.6939 98.1879 94.8555 102.829 97.8262 105.505C100.797 108.182 105.265 108.909 109.078 107.704C112.942 106.48 115.996 103.561 118.901 100.734C121.365 98.3349 123.828 95.936 126.292 93.5372C137.71 82.4229 142.768 68.1334 140.105 52.4061Z" fill="#4C9F48"/>
<path opacity="0.09" d="M112.693 12.3951C105.901 9.79379 98.4469 9.47806 91.185 9.87124C88.8775 9.99634 86.2523 10.3677 84.9655 12.2879C83.7522 14.0969 84.3103 16.6645 85.7122 18.3326C87.1142 20.0006 89.1694 20.9578 91.1869 21.7759C97.9365 24.5123 105.33 26.4345 110.588 31.4724C114.615 35.3307 116.926 40.6089 118.922 45.8156C119.635 47.6782 120.346 49.5925 121.633 51.1156C122.919 52.6386 124.931 53.7189 126.889 53.3317C130.511 52.6168 131.5 47.8966 131.206 44.217C130.132 30.7674 126.327 17.6157 112.693 12.3951Z" fill="white"/>
<path opacity="0.09" d="M86.5272 113.665C89.8017 113.85 93.2212 113.554 96.0747 111.935C98.9263 110.317 101.067 107.128 100.666 103.873C100.227 100.303 96.9504 97.6675 93.523 96.5734C90.0956 95.4792 86.422 95.5388 82.8575 95.0503C77.0174 94.252 71.2705 91.8532 67.1699 87.6196C61.302 81.557 60.4998 72.3173 54.9833 66.2627C51.3295 62.2514 48.7282 65.6292 47.4871 69.7517C43.3646 83.4654 53.3232 96.49 63.5836 104.52C70.1684 109.669 78.1135 113.19 86.5272 113.665Z" fill="white"/>
<path opacity="0.09" d="M44.4786 35.9603C44.1867 37.8885 44.1689 39.9875 45.2134 41.6356C46.9172 44.3224 50.9105 44.7155 53.7601 43.2977C56.6077 41.8799 58.5438 39.1514 60.2476 36.4627C61.7171 34.1433 63.1131 31.7505 64.0166 29.1571C66.0977 23.1859 63.1428 15.5129 56 18.992C49.8303 21.9984 45.4735 29.3795 44.4786 35.9603Z" fill="white"/>
<path d="M105.059 31.8516C105.059 31.8516 105.299 31.9211 105.756 32.0521C106.213 32.1891 106.88 32.4234 107.702 32.8166C109.342 33.595 111.61 35.1062 113.725 37.65C115.866 40.164 117.814 43.649 119.17 47.7992C120.522 51.9475 121.187 56.8126 120.719 61.8545C120.268 66.8983 118.687 71.5668 116.553 75.3676C114.44 79.1962 111.811 82.1649 109.396 84.3611C106.956 86.5435 104.718 87.9613 103.135 88.839C102.347 89.2878 101.713 89.5896 101.282 89.7942C100.855 90.0007 100.631 90.1099 100.631 90.1099C100.631 90.1099 100.843 89.9789 101.246 89.7267C101.654 89.4824 102.245 89.1071 102.976 88.5848C104.442 87.5502 106.503 85.9537 108.697 83.6443C110.867 81.3249 113.197 78.3065 115.044 74.5693C116.91 70.852 118.268 66.4356 118.691 61.6678C119.575 52.0984 116.551 43.3869 112.897 38.2914C111.076 35.7039 109.056 34.0399 107.543 33.1026C106.785 32.6319 106.155 32.3242 105.722 32.1335C105.287 31.9489 105.059 31.8516 105.059 31.8516Z" fill="white"/>
<path d="M59.9308 64.8724C59.9308 64.8724 59.8077 64.4197 59.5833 63.6015C59.4661 63.1905 59.339 62.6841 59.2477 62.0824C59.1504 61.4847 58.9995 60.7996 58.9578 60.0331C58.791 58.5021 58.8009 56.6553 59.0292 54.616C59.1881 53.6072 59.3251 52.5289 59.6369 51.4566C59.8911 50.3664 60.2902 49.2762 60.7013 48.1622C61.1798 47.076 61.6544 46.0196 62.2323 45.0585C62.7565 44.0715 63.4098 43.2037 63.9956 42.3677C65.2487 40.7434 66.5315 39.4149 67.715 38.432C68.8886 37.4411 69.9013 36.7262 70.64 36.2992C71.3668 35.8624 71.7699 35.6201 71.7699 35.6201C71.7699 35.6201 71.4284 35.9398 70.8108 36.5177C70.4971 36.7977 70.1257 37.1511 69.7285 37.5979C69.3294 38.0408 68.8409 38.5035 68.3862 39.0972C67.4131 40.2192 66.3865 41.6549 65.3559 43.2951C64.8773 44.1391 64.3273 44.9929 63.8864 45.9501C63.392 46.8774 62.9829 47.8862 62.5301 48.9009C62.1469 49.9454 61.7438 50.9542 61.4559 51.9649C61.1103 52.9598 60.9138 53.9567 60.6695 54.894C60.2704 56.7884 60.0122 58.5339 59.9308 60.0152C59.8315 61.4946 59.8117 62.7179 59.8712 63.5539C59.9109 64.4038 59.9308 64.8724 59.9308 64.8724Z" fill="white"/>
<path d="M51.1756 98.8536C51.1756 98.8536 50.5977 98.4068 49.5929 97.541C48.5881 96.6752 47.1961 95.3388 45.6492 93.5198C42.5414 89.9157 38.9949 84.1331 37.0012 77.0598C35.0035 69.9905 34.8466 63.2965 35.1524 58.5744C35.4602 53.8304 36.05 50.9609 36.05 50.9609C36.05 50.9609 36.0321 51.6917 36.0004 53.0122C35.9706 54.3308 35.9686 56.2391 36.0659 58.5843C36.2565 63.2687 36.9019 69.7284 38.8579 76.5296C40.8039 83.3309 43.7806 89.0836 46.4395 92.9181C47.7581 94.8443 48.9475 96.3317 49.8133 97.3226C50.6732 98.3194 51.1756 98.8536 51.1756 98.8536Z" fill="white"/>
<path d="M139.669 51.0975C139.669 51.0975 139.083 48.9688 138.136 45.5334C137.189 42.108 135.96 37.3739 133.972 32.4393C131.992 27.5066 129.407 23.408 127.105 20.757C125.956 19.4325 124.911 18.4476 124.154 17.8062C123.4 17.1628 122.959 16.8232 122.959 16.8232C122.959 16.8232 123.453 17.0675 124.315 17.5838C125.179 18.0942 126.38 18.9282 127.743 20.1236C130.505 22.4648 133.654 26.5694 135.731 31.7224C137.805 36.8735 138.611 41.8141 139.077 45.3448C139.516 48.8933 139.669 51.0975 139.669 51.0975Z" fill="white"/>
<path d="M133.913 89.1631C133.913 89.1631 133.387 90.4042 132.283 92.2788C131.183 94.1513 129.459 96.6415 127.138 99.0224C124.812 101.401 122.368 103.189 120.523 104.334C118.676 105.484 117.457 106.052 117.457 106.052C117.457 106.052 121.351 102.366 125.819 97.7376C130.321 93.1446 133.913 89.1631 133.913 89.1631Z" fill="white"/>
<defs>
<linearGradient id="paint0_linear_317_2586" x1="89.3351" y1="120.001" x2="89.3351" y2="0.000972745" gradientUnits="userSpaceOnUse">
<stop stop-color="#55992E"/>
<stop offset="0.9757" stop-color="#4C9F48"/>
</linearGradient>
</defs>
</svg>
