<svg width="178" height="120" viewBox="0 0 178 120" fill="none" xmlns="http://www.w3.org/2000/svg">
<path d="M89.0009 120C60.9257 120 38.0879 97.1601 38.0879 69.087V16.0615C38.0879 7.0569 45.1427 0 54.1474 0C63.0849 0 70.3553 7.20531 70.3553 16.0615V69.087C70.3553 79.3684 78.7195 87.7326 89.0009 87.7326C99.2803 87.7326 107.646 79.3684 107.646 69.087V16.0615C107.646 7.20531 114.917 0 123.854 0C132.859 0 139.914 7.0569 139.914 16.0615V69.087C139.914 97.1601 117.074 120 89.0009 120Z" fill="url(#paint0_linear_317_9229)"/>
<path opacity="0.25" d="M51.1831 66.6328C53.2792 76.4953 55.7494 86.8194 62.5603 94.2525C65.4493 97.4038 69.0052 99.8882 72.7726 101.909C81.2771 106.473 91.3409 108.749 100.716 106.451C110.09 104.154 118.456 96.6983 120.197 87.2057C120.736 84.2659 120.359 80.6795 117.798 79.1424C115.822 77.9571 113.201 78.4817 111.263 79.73C109.326 80.9783 107.876 82.8346 106.303 84.5159C99.8251 91.4387 90.605 95.7224 81.1368 96.2124C77.3552 96.4075 73.2564 95.8973 70.4548 93.3518C67.6715 90.8226 66.7769 86.8764 66.0247 83.1903C64.5832 76.1192 63.1336 68.9769 63.3044 61.7614C63.467 54.8773 65.1017 48.101 65.4331 41.223C65.7299 35.0566 66.3967 23.7871 61.9137 18.8893C59.0979 15.8133 53.0352 14.5263 49.4386 16.9579C43.9798 20.65 46.0922 31.8646 46.4866 37.3946C47.19 47.2552 49.1296 56.9796 51.1831 66.6328Z" fill="#6A36FE"/>
<path opacity="0.25" d="M133.238 35.179C133.551 27.5569 133.341 19.5119 129.487 12.9308C127.95 10.306 125.219 7.77275 122.251 8.44165C119.185 9.1329 117.87 12.7071 117.215 15.7811C115.458 24.0355 114.761 32.4648 114.419 40.8839C114.208 46.1395 111.524 59.9911 116.578 63.6202C127.909 71.7566 133.028 40.2679 133.238 35.179Z" fill="#6A36FE"/>
<path opacity="0.25" d="M41.2857 20.0296C41.1718 21.3125 41.0559 22.5953 40.942 23.8782C40.5985 27.7249 40.322 31.8765 42.3449 35.1681C43.4509 36.9694 45.7666 38.4271 47.6269 37.4208C48.247 37.0853 48.7126 36.5242 49.1355 35.9569C51.5244 32.7568 53.0878 28.9956 55.5397 25.8443C59.7401 20.4464 66.3722 10.535 55.9484 6.8388C47.1125 3.70782 41.9322 12.7857 41.2857 20.0296Z" fill="white"/>
<path opacity="0.25" d="M134.256 33.6342C133.916 30.9993 133.008 27.8317 130.419 27.234C126.979 26.4391 124.81 30.8285 124.255 34.3153C122.458 45.6113 123.312 57.1817 121.797 68.5183C120.282 79.8549 115.799 91.6306 106.24 97.9068C103.743 99.5454 100.939 100.784 98.8087 102.876C96.6759 104.968 95.3524 108.312 96.7023 110.976C104.8 111.726 112.66 107.17 117.944 100.987C133.591 82.6809 137.236 56.8075 134.256 33.6342Z" fill="white"/>
<path opacity="0.25" d="M57.6323 69.315C60.0476 73.7309 62.4629 78.1448 64.8783 82.5586C67.4095 87.1839 70.0241 92.3074 69.0055 97.4796C68.6273 99.4009 67.5335 101.401 65.6468 101.93C64.6302 102.215 63.5385 102.024 62.528 101.715C55.6988 99.6286 51.5187 92.6978 49.4144 85.8767C47.7229 80.3995 46.9483 74.6418 47.1292 68.9125C47.2187 66.0824 47.8165 62.8172 50.2989 61.457C55.2942 62.6932 55.1641 64.8036 57.6323 69.315Z" fill="white"/>
<path opacity="0.25" d="M131.223 9.85876C131.547 10.5053 131.744 11.221 131.774 12.0037C132 17.7249 123.768 15.8686 119.956 14.8663C119.061 14.6305 118.13 14.2808 117.595 13.5265C117.122 12.8597 117.046 11.9833 117.15 11.1721C117.449 8.85033 119.202 6.78066 121.442 6.1016C124.677 5.12164 129.585 6.58749 131.223 9.85876Z" fill="white"/>
<path d="M41.9686 48.3186C41.9686 48.3186 41.7551 45.4458 41.5538 40.8002C41.3667 36.1484 41.1675 29.7584 41.3017 22.6466C41.3993 19.0785 41.8547 15.5328 43.1701 12.5624C43.8167 11.0925 44.6807 9.75059 45.679 8.71167C46.6793 7.66869 47.7751 6.87982 48.8486 6.31665C51.0057 5.16591 53.0571 5.04194 54.3543 5.24525C55.0089 5.34487 55.5029 5.48719 55.8201 5.62137C56.1393 5.74539 56.3081 5.81042 56.3081 5.81042C56.3081 5.81042 56.1332 5.77181 55.7977 5.69862C55.4704 5.61526 54.9662 5.55427 54.3319 5.5502C53.0673 5.53597 51.205 5.91817 49.365 7.18479C47.5149 8.42499 45.7257 10.4581 44.7702 13.2089C43.7597 15.9495 43.4507 19.2188 43.3633 22.7096C43.2454 29.7564 42.916 36.1871 42.5886 40.8165C42.2593 45.452 41.9686 48.3186 41.9686 48.3186Z" fill="white"/>
<path d="M113.864 54.0234C113.864 54.0234 113.866 57.2316 113.724 62.4059C113.636 64.99 113.594 68.0722 113.226 71.5244C112.841 74.9543 112.089 78.8334 110.113 82.4869C108.135 86.1282 105.172 88.9379 102.056 90.662C98.9348 92.4207 95.692 93.0427 93.049 93.0488C90.3856 93.0631 88.2915 92.5203 86.9233 92.0262C85.5489 91.5261 84.8516 91.1296 84.8516 91.1296C84.8516 91.1296 85.6038 91.4244 87.0066 91.7375C88.4034 92.0445 90.4833 92.321 92.9942 92.0587C95.4989 91.8046 98.4286 90.9771 101.196 89.2124C103.963 87.4741 106.559 84.8351 108.354 81.5333C110.152 78.2173 110.995 74.6106 111.55 71.2966C112.091 67.9705 112.386 64.8985 112.723 62.3327C113.374 57.193 113.864 54.0234 113.864 54.0234Z" fill="white"/>
<path d="M134.118 12.971C134.118 12.971 133.904 12.6843 133.499 12.2045C133.097 11.7207 132.467 11.068 131.631 10.3707C129.974 8.96984 127.323 7.48771 124.194 7.05873C121.063 6.62771 118.107 7.35348 116.137 8.27041C115.147 8.7238 114.368 9.19348 113.856 9.55538C113.339 9.91524 113.059 10.1348 113.059 10.1348C113.059 10.1348 113.246 9.83596 113.644 9.32972C114.041 8.82144 114.685 8.1281 115.62 7.41245C117.442 5.98114 120.713 4.54582 124.468 5.02767C128.219 5.54205 131.003 7.79471 132.379 9.6611C133.091 10.6024 133.522 11.4461 133.77 12.0418C134.016 12.6335 134.118 12.971 134.118 12.971Z" fill="white"/>
<path d="M129.49 87.4375C129.49 87.4375 129.356 87.7567 129.1 88.3646C128.833 88.9684 128.498 89.8894 127.906 90.9995C126.8 93.2521 124.966 96.4503 121.994 99.8821C119.054 103.326 114.951 106.984 109.671 109.942C104.397 112.857 97.9036 115.019 90.8853 115.338C83.8732 115.679 77.2188 114.213 71.6461 111.93C66.0571 109.615 61.5761 106.417 58.2824 103.312C56.658 101.732 55.241 100.252 54.1716 98.7964C53.0879 97.357 52.3052 96.007 51.7948 94.8502C51.2764 93.6954 51.0182 92.7459 50.882 92.0994C50.7437 91.4529 50.7051 91.1072 50.7051 91.1072C50.7051 91.1072 50.7701 91.4488 50.9572 92.0811C51.1401 92.7114 51.4654 93.6303 52.053 94.7262C52.6304 95.8261 53.4904 97.0866 54.6412 98.4183C55.7797 99.7622 57.2659 101.126 58.9473 102.566C62.3528 105.392 66.852 108.23 72.3007 110.271C77.7434 112.27 84.111 113.538 90.7857 113.209C97.4583 112.9 103.651 110.981 108.821 108.352C113.987 105.681 118.135 102.352 121.205 99.1644C124.303 95.9928 126.343 92.9838 127.615 90.8429C128.29 89.7898 128.705 88.9095 129.02 88.33C129.327 87.7445 129.49 87.4375 129.49 87.4375Z" fill="white"/>
<defs>
<linearGradient id="paint0_linear_317_9229" x1="89.0007" y1="119.999" x2="89.0007" y2="-0.00101567" gradientUnits="userSpaceOnUse">
<stop stop-color="#652FA2"/>
<stop offset="0.9757" stop-color="#2728F2"/>
</linearGradient>
</defs>
</svg>
