<svg width="179" height="120" viewBox="0 0 179 120" fill="none" xmlns="http://www.w3.org/2000/svg">
<path d="M137.916 98.1677L104.877 10.1223C102.363 3.9732 96.5354 0 90.0301 0C89.9161 0 89.4642 0 89.3522 0C82.9385 0 76.9665 4.06886 74.4059 10.3381L41.3787 98.3672C38.464 106.816 42.6712 115.894 50.9535 119.037L51.2486 119.143C52.9686 119.717 54.7109 119.998 56.5795 119.998C63.2048 119.998 69.1097 116.029 71.7049 109.68L77.0887 95.3934H102.426L107.779 109.597C110.043 115.819 116.074 120 122.787 120C124.264 120 126.463 119.825 128.413 119.041C136.697 115.894 140.902 106.816 137.916 98.1677ZM77.6057 71.1105L89.684 39.0501L101.762 71.1105H77.6057Z" fill="url(#paint0_linear_317_9832)"/>
<path opacity="0.39" d="M83.5637 10.0877C85.0822 8.42677 86.8327 6.8208 89.0167 6.27326C92.3406 5.4428 95.866 7.35205 97.9483 10.0734C100.031 12.7948 100.977 16.192 101.877 19.4976C102.21 20.725 102.548 22.0012 102.324 23.251C101.639 27.0939 96.7534 28.0668 93.0937 29.4265C84.5875 32.5896 79.7147 41.4336 76.4376 49.897C72.2771 60.6422 69.4825 71.9166 68.1411 83.3599C67.618 87.8195 67.2984 92.3769 65.6619 96.5597C64.0254 100.741 60.7789 104.588 56.4088 105.62C55.2282 105.898 53.8828 105.931 52.9159 105.202C51.9654 104.486 51.6234 103.226 51.4626 102.047C50.5222 95.1288 53.7891 88.4261 56.6388 82.0511C62.2078 69.5819 66.4822 56.5367 69.3807 43.1943C71.9922 31.1811 74.966 19.4915 83.5637 10.0877Z" fill="#4C9F48"/>
<path opacity="0.39" d="M101.552 89.2586C108.06 90.7689 112.228 96.9567 115.644 102.699C117.227 105.361 118.874 108.123 121.439 109.857C124.003 111.594 127.775 111.972 130.039 109.859C132.202 107.842 132.245 104.463 131.879 101.528C130.454 90.1115 125.292 79.5454 120.207 69.2257C115.894 60.4712 111.579 51.7167 107.266 42.9602C106.558 41.5232 105.709 39.958 104.196 39.4308C101.825 38.6064 99.3501 41.0673 99.1608 43.5709C98.9715 46.0745 100.297 48.4153 101.575 50.5769C104.054 54.7638 106.533 58.9507 109.012 63.1377C109.987 64.7843 110.993 66.5328 110.999 68.4461C111.029 77.3227 99.2829 74.8212 94.1515 74.2919C89.0629 73.7688 82.5067 74.5504 78.6088 78.2936C74.6722 82.0755 75.8895 86.6349 80.8254 88.9472C87.3714 92.0146 94.7825 87.6872 101.552 89.2586Z" fill="#4C9F48"/>
<path opacity="0.09" d="M125.027 110.808C126.045 110.863 127.13 110.851 127.995 110.312C129.147 109.597 129.599 108.171 129.939 106.86C130.722 103.849 131.329 100.456 129.739 97.7816C128.076 94.9869 124.516 93.9224 121.266 93.8694C118.477 93.8247 115.503 94.4394 113.529 96.4117C105.77 104.167 119.041 110.481 125.027 110.808Z" fill="white"/>
<path opacity="0.09" d="M81.3386 10.1165C77.5852 14.8957 74.3224 20.0617 71.6152 25.5025C70.2189 28.3114 69.0689 31.9772 71.143 34.3302C72.6512 36.04 75.3564 36.215 77.4692 35.3581C79.582 34.5012 81.2388 32.8281 82.8305 31.1977C84.4243 29.5673 86.0791 27.8921 88.1899 27.0331C91.3224 25.7569 95.2346 26.3594 97.8094 24.1652C99.7838 22.4819 100.307 19.6546 100.344 17.0615C100.508 5.0238 88.9857 0.380931 81.3386 10.1165Z" fill="white"/>
<path opacity="0.09" d="M50.2509 82.8956C48.1402 89.4253 47.2609 96.4842 48.7366 103.187C49.3187 105.829 50.31 108.471 52.1928 110.415C54.0756 112.357 56.9964 113.462 59.5672 112.623C62.083 111.803 63.7419 109.373 64.6457 106.887C65.5494 104.402 65.8914 101.738 66.8277 99.2647C69.0137 93.4881 74.3487 88.9368 74.9919 82.7958C75.4763 78.1713 73.1538 73.7625 70.87 69.712C61.5701 53.2207 53.1698 73.8622 50.2509 82.8956Z" fill="white"/>
<path d="M109.603 39.4634C109.603 39.4634 108.697 37.0779 107.238 33.2288C105.768 29.39 103.556 24.1833 100.991 18.5044C99.6782 15.6853 98.5221 12.8967 97.1909 10.6822C95.8597 8.44315 94.1032 6.92064 92.2367 6.26319C90.3885 5.57317 88.7031 5.42254 87.5673 5.29838C86.4193 5.19661 85.7822 5.13962 85.7822 5.13962C85.7822 5.13962 86.4193 5.08466 87.5734 4.98696C88.7255 4.92997 90.4271 4.80581 92.5379 5.29228C93.5821 5.54671 94.7301 6.01283 95.7865 6.78223C96.851 7.53738 97.7975 8.56732 98.632 9.72142C100.279 12.0724 101.537 14.7877 102.88 17.6515C105.5 23.4159 107.156 28.9239 108.193 32.9235C109.212 36.9354 109.603 39.4634 109.603 39.4634Z" fill="white"/>
<path d="M131.411 111.127C131.411 111.127 131.405 111.451 131.289 112.039C131.179 112.629 130.876 113.474 130.237 114.388C129.003 116.207 126.08 118.133 122.506 117.893C119.003 117.618 116.416 115.721 114.908 114.296C113.371 112.825 112.652 111.746 112.652 111.746C112.652 111.746 113.707 112.517 115.49 113.5C117.259 114.475 119.803 115.631 122.646 115.819C125.433 115.984 128 114.925 129.455 113.679C130.19 113.057 130.701 112.411 130.984 111.921C131.275 111.43 131.411 111.127 131.411 111.127Z" fill="white"/>
<path d="M64.2209 112.442C64.2209 112.442 64.1598 112.765 63.7935 113.262C63.4393 113.767 62.6475 114.321 61.5769 114.618C60.5184 114.937 59.1872 114.998 57.8479 115.007C56.4801 115.019 54.9474 114.972 53.3333 114.671C51.7232 114.374 50.1946 113.816 48.953 113.038C47.7134 112.267 46.7629 111.333 46.14 110.439C45.5029 109.552 45.1996 108.719 45.0368 108.155C44.874 107.587 44.8516 107.264 44.8516 107.264C44.8516 107.264 44.9859 107.561 45.3014 108.035C45.6149 108.507 46.1136 109.157 46.8687 109.779C48.3587 111.082 50.7808 112.153 53.7119 112.635C55.1733 112.904 56.6185 113.073 57.9538 113.25C59.3155 113.433 60.439 113.618 61.4079 113.584C62.3646 113.565 63.1177 113.339 63.5696 113.024C64.0296 112.721 64.2209 112.442 64.2209 112.442Z" fill="white"/>
<path opacity="0.09" d="M94.37 77.1332C93.5578 77.4426 92.7396 77.809 92.135 78.4339C90.5799 80.0398 91.0481 82.8915 92.6541 84.4486C94.258 86.0057 96.6273 86.4963 98.8622 86.5187C101.097 86.5411 103.33 86.1645 105.563 86.2988C108.626 86.482 111.545 87.6097 114.558 88.202C117.568 88.7923 120.953 88.7597 123.389 86.8952C126.443 84.5606 127.006 80.0968 126.18 76.3414C124.763 69.8992 119.428 65.6512 113.692 69.6733C111.026 71.5418 110.599 73.1254 107.016 74.1757C102.848 75.3949 98.4714 75.5761 94.37 77.1332Z" fill="white"/>
<path d="M105.332 69.5166C105.332 69.5166 105.74 70.2717 105.982 71.6823C106.077 72.3845 106.155 73.2964 105.715 74.3406C105.493 74.8535 105.098 75.3807 104.561 75.7491C104.02 76.14 103.368 76.3252 102.784 76.4046C101.604 76.5267 100.724 76.4331 99.8123 76.3862C98.9269 76.3211 98.127 76.2214 97.4553 76.1237C96.1119 75.9222 95.2773 75.7288 95.2773 75.7288C95.2773 75.7288 96.0935 75.4703 97.4186 75.167C98.0801 75.0184 98.8699 74.8576 99.7472 74.7253C100.598 74.5828 101.665 74.5116 102.507 74.4098C103.348 74.2999 103.808 74.0475 104.229 73.5244C104.63 73.0013 104.85 72.2706 104.988 71.6538C105.259 70.3918 105.332 69.5166 105.332 69.5166Z" fill="white"/>
<defs>
<linearGradient id="paint0_linear_317_9832" x1="89.6659" y1="119.995" x2="89.6659" y2="-0.000407679" gradientUnits="userSpaceOnUse">
<stop stop-color="#55992E"/>
<stop offset="0.9757" stop-color="#4C9F48"/>
</linearGradient>
</defs>
</svg>
