<svg width="179" height="120" viewBox="0 0 179 120" fill="none" xmlns="http://www.w3.org/2000/svg">
<path d="M89.2579 120C80.4038 120 73.1986 112.795 73.1986 103.939V32.2709H57.5338C48.6798 32.2709 41.4746 25.0007 41.4746 16.0613C41.4746 7.05678 48.5293 0 57.5338 0H121.132C129.986 0 137.192 7.20519 137.192 16.0613C137.192 24.8482 129.838 32.2709 121.132 32.2709H105.319V103.939C105.317 112.943 98.2644 120 89.2579 120Z" fill="url(#paint0_linear_317_9210)"/>
<path opacity="0.7" d="M55.053 12.2001C52.1965 13.0622 49.1002 14.9997 49.0087 17.9822C48.9477 20.0254 50.3973 21.845 52.1152 22.951C59.4282 27.6576 70.3031 22.2049 77.3578 27.2876C82.7333 31.1606 82.9264 38.927 82.7923 45.5507C82.4568 62.0735 83.3493 78.6226 85.4637 95.0133C85.9984 99.1587 87.8668 104.426 92.0448 104.286C95.6921 104.164 97.5238 99.8906 98.3228 96.3287C101.488 82.211 102.153 67.5343 100.273 53.1869C99.5915 47.9924 98.579 42.7552 99.2011 37.5526C99.8233 32.3499 102.436 27.0375 107.153 24.7605C111.257 22.7782 116.114 23.4085 120.555 22.3818C124.995 21.3551 129.537 17.0429 127.813 12.8223C126.483 9.56732 122.403 8.6382 118.92 8.15026C108.736 6.72508 98.5546 5.30195 88.371 3.87677C86.1305 3.56367 83.8393 3.2506 81.6253 3.70397C76.8496 4.67985 73.3852 8.66669 68.7722 10.161C64.3401 11.6004 59.2716 10.9274 55.053 12.2001Z" fill="#ED1C24"/>
<path opacity="0.25" d="M62.7282 23.5962C68.0569 23.3177 73.4038 23.9378 78.7305 23.641C84.0592 23.3441 89.581 22.0003 93.5252 18.4058C94.8873 17.1636 96.0726 15.5696 96.2291 13.7338C96.4568 11.0806 94.4116 8.6511 91.976 7.57357C85.7426 4.8147 77.0878 6.82746 70.4742 6.79696C66.3226 6.77663 61.2562 5.31894 57.1921 6.33548C52.7824 7.43943 49.8527 11.9487 49.7694 16.4764C49.6352 24.0882 56.9766 23.8951 62.7282 23.5962Z" fill="#F7931E"/>
<path opacity="0.25" d="M128.559 9.95627C126.817 7.81951 123.793 7.2767 121.039 7.18115C119.489 7.12829 117.896 7.17708 116.462 7.76871C112.852 9.26098 111.394 13.6768 111.428 17.5844C111.443 19.0624 111.628 20.6035 112.441 21.8376C119.014 31.8118 137.098 20.4327 128.559 9.95627Z" fill="#F7931E"/>
<path opacity="0.25" d="M100.747 87.3976C100.991 92.4071 100.879 97.5853 98.9168 102.202C96.9549 106.82 92.7729 110.786 87.7715 111.176C85.834 111.327 83.7785 110.898 82.3046 109.629C80.2146 107.832 79.7226 104.835 79.4197 102.097C78.3178 92.1021 77.9599 82.0262 78.3523 71.9788C78.6715 63.7835 79.6758 55.1124 84.7077 48.6371C85.5555 47.5453 86.6473 46.4637 88.0257 46.358C89.8839 46.2177 91.3436 47.8665 92.3927 49.4076C101.025 62.0533 100.043 72.9648 100.747 87.3976Z" fill="#F7931E"/>
<path d="M52.0877 24.7125C52.1487 24.6616 50.5913 25.0906 48.6355 23.6573C47.6942 22.9681 46.7752 21.7828 46.2608 20.3088C45.7282 18.8328 45.5513 17.1515 45.6286 15.4315C45.777 11.9529 47.2571 8.88901 48.9791 7.35404C49.8228 6.57131 50.6482 6.14439 51.2236 5.92075C51.805 5.70321 52.1304 5.62598 52.1304 5.62598C52.1304 5.62598 51.8396 5.80687 51.3699 6.17079C50.9003 6.53877 50.3006 7.15481 49.7435 8.00464C48.5989 9.69615 47.8202 12.4429 47.6921 15.527C47.6271 17.0803 47.6718 18.5583 47.9422 19.8168C48.2025 21.0874 48.7148 22.1284 49.3491 22.9009C49.9794 23.6715 50.6807 24.1513 51.2134 24.3973C51.7481 24.6474 52.0877 24.7125 52.0877 24.7125Z" fill="white"/>
<path d="M76.7158 40.5661C76.7158 40.5661 76.8643 39.3788 76.8155 37.545C76.7667 35.7274 76.4434 33.2207 75.1036 31.0636C73.7882 28.9756 71.5152 27.7944 69.8074 27.583C68.9454 27.4711 68.2013 27.5444 67.7073 27.6826C67.2092 27.8127 66.9307 27.9266 66.9307 27.9266C66.9368 27.9957 67.7378 26.9161 69.8054 26.6315C71.7795 26.3408 74.9491 27.2048 76.7565 30.0267C78.4683 32.8059 78.2325 35.8088 77.7852 37.6447C77.3196 39.5415 76.7158 40.5661 76.7158 40.5661Z" fill="white"/>
<path d="M102.05 87.2334C102.05 87.2334 102.274 89.6101 102.115 93.4749C102.036 95.4064 101.824 97.7058 101.414 100.239C100.948 102.764 100.501 105.523 99.281 108.406C98.6549 109.827 97.7847 111.185 96.6075 112.214C95.4406 113.257 94.0012 113.865 92.6492 114.127C89.9066 114.653 87.471 114.013 85.6676 113.279C83.844 112.527 82.5163 111.691 81.5994 111.128C80.6927 110.549 80.1885 110.229 80.1885 110.229C80.1885 110.229 80.7394 110.457 81.7316 110.868C82.7258 111.262 84.1651 111.864 85.9786 112.336C87.7759 112.793 90.0143 113.084 92.2507 112.452C94.5135 111.876 96.327 110.116 97.3862 107.572C98.4515 105.059 99.0757 102.303 99.708 99.8954C100.304 97.4618 100.757 95.2417 101.103 93.3651C101.788 89.606 102.05 87.2334 102.05 87.2334Z" fill="white"/>
<path d="M117.626 29.9677C117.626 29.9677 117.528 30.8602 117.406 30.8602C117.286 30.8602 117.188 29.9677 117.188 29.9677C117.188 29.9677 117.286 29.0752 117.406 29.0752C117.528 29.0752 117.626 29.9677 117.626 29.9677Z" fill="white"/>
<path d="M130.82 15.1465C130.82 15.1465 131.021 15.4474 131.298 16.0593C131.583 16.6672 131.855 17.6329 131.879 18.8731C131.975 21.3291 130.625 24.9357 127.376 27.164C124.164 29.3353 120.637 29.6179 118.305 29.561C115.926 29.4796 114.507 29.1422 114.507 29.1422C114.507 29.1422 115.969 29.0202 118.231 28.6095C120.478 28.1988 123.568 27.4405 126.278 25.5762C128.929 23.7139 130.452 20.9204 130.879 18.7837C131.095 17.7061 131.089 16.777 130.997 16.1427C130.914 15.5043 130.82 15.1465 130.82 15.1465Z" fill="white"/>
<defs>
<linearGradient id="paint0_linear_317_9210" x1="89.3321" y1="119.999" x2="89.3321" y2="0.00101565" gradientUnits="userSpaceOnUse">
<stop stop-color="#924A05"/>
<stop offset="0.5" stop-color="#B55700"/>
<stop offset="1" stop-color="#BF8A21"/>
</linearGradient>
</defs>
</svg>
