<svg width="179" height="120" viewBox="0 0 179 120" fill="none" xmlns="http://www.w3.org/2000/svg">
<path d="M99.7859 96.3975C87.2358 98.6351 74.3386 98.9153 61.7035 97.2257C58.0695 96.7399 54.1806 96.1328 50.8079 97.3781C50.0815 97.646 49.6229 98.3705 49.6495 99.1436L49.7844 103.071C49.8201 104.11 50.7126 104.904 51.749 104.819C67.4266 103.543 84.2211 103.433 99.7859 105C99.0601 102.164 98.468 99.0119 99.7859 96.3975Z" fill="#784E1D"/>
<path d="M51.3672 99.33C51.3672 99.33 51.5909 99.2315 51.9918 99.0894C52.4056 98.9824 53.0114 98.8002 53.7546 98.7645C54.4966 98.7107 55.3677 98.7515 56.2776 98.8734C57.1902 98.9863 58.1391 99.1893 59.0789 99.3605C59.5465 99.4539 60.0135 99.546 60.472 99.6148C60.9403 99.6822 61.3632 99.7562 61.8211 99.7951C62.6876 99.8762 63.5269 99.8937 64.2442 99.9047C64.968 99.9131 65.5719 99.9196 65.9941 99.9248C66.4189 99.9293 66.6628 99.9443 66.6628 99.9443C66.6628 99.9443 65.7269 100.213 64.2818 100.448C63.5567 100.559 62.7058 100.646 61.766 100.627C61.321 100.614 60.8145 100.589 60.343 100.52C59.8611 100.458 59.3785 100.376 58.8992 100.289C56.9904 99.9002 55.1627 99.4202 53.7494 99.3048C53.0431 99.2347 52.451 99.2431 52.0333 99.2671C51.6091 99.308 51.3672 99.33 51.3672 99.33Z" fill="#5B4030"/>
<path d="M57.1113 102.119C57.1113 102.119 57.9954 101.918 59.3574 101.838C60.7149 101.753 62.516 101.84 64.2847 101.915C65.1694 101.962 66.0488 101.974 66.8713 101.974C67.2818 101.96 67.6794 101.959 68.0556 101.933C68.4337 101.92 68.7852 101.871 69.1167 101.852C69.7685 101.773 70.3198 101.693 70.7102 101.612C71.0994 101.546 71.3251 101.521 71.3251 101.521C71.3251 101.521 71.1227 101.627 70.7621 101.789C70.4054 101.946 69.8878 102.196 69.2224 102.386C68.8903 102.466 68.5303 102.58 68.1412 102.636C67.754 102.711 67.3428 102.77 66.9154 102.807C66.4886 102.837 66.0463 102.883 65.5987 102.876C65.1499 102.884 64.6972 102.872 64.2445 102.861C62.4356 102.776 60.6688 102.533 59.3399 102.38C58.0025 102.224 57.1113 102.119 57.1113 102.119Z" fill="#5B4030"/>
<path d="M73.1992 100.772C73.1992 100.772 73.423 100.715 73.8167 100.638C74.2045 100.57 74.7902 100.471 75.4803 100.448C76.1743 100.405 76.9811 100.435 77.8399 100.494C78.6973 100.555 79.6021 100.672 80.501 100.777C81.3967 100.897 82.2885 101.001 83.1213 101.085C83.9541 101.152 84.7337 101.207 85.403 101.196C86.073 101.198 86.6399 101.174 87.0323 101.119C87.426 101.071 87.6595 101.055 87.6595 101.055C87.6595 101.055 87.4519 101.151 87.0744 101.298C86.8863 101.377 86.6522 101.447 86.3791 101.522C86.108 101.609 85.7974 101.689 85.4517 101.737C84.7642 101.873 83.9476 101.92 83.0785 101.917C82.2081 101.912 81.2916 101.817 80.3823 101.715C78.5689 101.474 76.8015 101.147 75.4602 100.989C74.7876 100.906 74.235 100.833 73.8296 100.82C73.4288 100.798 73.1992 100.772 73.1992 100.772Z" fill="#5B4030"/>
<path d="M88.8574 103.37C88.8574 103.37 88.9541 103.261 89.146 103.096C89.3439 102.929 89.6474 102.717 90.0515 102.532C90.4523 102.343 90.9511 102.185 91.492 102.09C92.0323 101.988 92.6134 101.955 93.1848 101.945C94.3393 101.957 95.436 102.097 96.2818 102.24C97.1204 102.382 97.6769 102.561 97.6769 102.561C97.6769 102.561 97.1107 102.7 96.2656 102.783C95.8427 102.83 95.3504 102.863 94.8231 102.878C94.2906 102.903 93.7387 102.876 93.188 102.892C92.0854 102.884 91.0159 102.914 90.213 103.049C89.4126 103.175 88.8574 103.37 88.8574 103.37Z" fill="#5B4030"/>
<path d="M97.736 98.9882C97.736 98.9882 96.9778 99.1075 95.8564 99.1879C95.2999 99.2301 94.6513 99.2794 93.9554 99.3319C93.2711 99.3903 92.5363 99.4591 91.8047 99.5583C90.3369 99.7386 88.8102 99.8923 87.6583 99.7931C86.5031 99.7152 85.7812 99.4299 85.7812 99.4299C85.7812 99.4299 86.5466 99.3968 87.6427 99.2496C88.7434 99.1088 90.1865 98.8092 91.6918 98.6185C92.4481 98.5355 93.2082 98.4797 93.9294 98.5004C94.6442 98.5115 95.3064 98.5718 95.87 98.6464C96.9966 98.791 97.736 98.9882 97.736 98.9882Z" fill="#5B4030"/>
<path d="M99.7861 96.3975C99.2581 96.3975 98.8301 98.3231 98.8301 100.699C98.8301 103.075 99.2581 105 99.7861 105C100.314 105 100.742 103.075 100.742 100.699C100.742 98.3231 100.314 96.3975 99.7861 96.3975Z" fill="#5B4030"/>
<path d="M71.8322 97.0471C71.8121 96.4212 71.792 95.0507 71.7712 93.9397C71.7589 93.2561 71.1265 92.7541 70.4572 92.8949C70.2114 92.9467 70.0349 93.1575 70.0336 93.4092C70.031 94.0273 70.0265 95.2071 70.0187 96.2357C70.0181 96.3239 70.0161 96.4167 69.9733 96.4939C69.8974 96.6301 69.7243 96.6716 69.5705 96.6988C68.2033 96.9453 66.8355 97.1917 65.4682 97.4382C64.0718 97.6898 61.2881 99.4274 61.2725 99.6706C61.2563 99.9138 61.4288 100.182 61.6727 100.189C62.907 99.4255 64.3501 99.0032 65.8016 98.9818C64.9273 99.6382 64.3228 100.644 64.1523 101.723C64.1146 101.963 64.101 102.224 64.223 102.434C64.3455 102.643 64.6504 102.759 64.8404 102.608C64.843 101.684 65.3982 100.83 66.1168 100.249C66.8355 99.6674 67.7078 99.3139 68.5678 98.9753C68.5821 99.8399 68.5957 100.704 68.61 101.568C68.6145 101.815 68.621 102.072 68.7371 102.291C68.8532 102.509 69.1159 102.67 69.3487 102.588C69.4558 101.768 69.5628 100.946 69.6698 100.126C69.7243 99.707 69.7872 99.2679 70.0408 98.9299C70.2587 98.6394 70.5966 98.4662 70.9378 98.343C71.6888 98.0732 72.6371 98.2554 73.8817 98.3261C73.6703 97.5095 72.6734 97.1262 71.8322 97.0471Z" fill="#DB9C1F"/>
<path d="M79.4496 97.027C79.4223 96.1845 79.3951 94.2893 79.3679 93.2522C79.3633 93.0829 79.2414 92.9422 79.0747 92.9117C78.3334 92.7761 77.6498 93.3437 77.6465 94.0973C77.6433 94.9009 77.64 95.7733 77.6368 96.2156C77.6361 96.3038 77.6348 96.3965 77.5914 96.4737C77.5155 96.6099 77.3423 96.6514 77.1886 96.6787C75.8214 96.9251 74.4535 97.1716 73.0863 97.4181C71.6899 97.6697 69.999 100.128 69.9835 100.371C69.9673 100.614 70.1398 100.883 70.3836 100.89C71.6179 100.126 71.9681 98.9838 73.4197 98.9617C72.5454 99.6181 71.9409 100.623 71.7703 101.703C71.7321 101.943 71.7191 102.204 71.841 102.413C71.9636 102.623 72.2684 102.739 72.4585 102.588C72.4611 101.664 73.0163 100.81 73.7349 100.228C74.4535 99.6473 75.3259 99.2938 76.1859 98.9552C76.2002 99.8198 76.2144 100.684 76.2281 101.548C76.232 101.795 76.2391 102.053 76.3552 102.271C76.4713 102.489 76.734 102.65 76.9668 102.568C77.0738 101.747 77.1808 100.926 77.2879 100.106C77.3423 99.6868 77.4052 99.2477 77.6588 98.9098C77.8761 98.6193 77.9831 98.5719 78.3314 98.4681C78.9223 98.2924 80.1034 98.4124 81.4998 98.2541C81.2877 97.4369 80.2908 97.1061 79.4496 97.027Z" fill="#DB9C1F"/>
<path d="M48.7739 28.499C49.418 25.9391 51.2956 20.9184 53.229 19.1205C53.9016 18.4946 54.6501 17.9563 55.396 17.4199C56.5174 16.613 57.6388 15.8062 58.7595 15C57.5188 16.6208 56.9409 18.5432 56.697 20.5694C58.2751 19.8171 59.9283 19.3429 61.6503 19.0426C60.4543 19.9241 59.5113 21.2537 58.8692 22.5936C58.2271 23.9336 57.8172 25.3715 57.4377 26.8082C57.8223 26.5105 57.9715 26.05 58.3049 25.6952C58.517 25.4695 58.7816 25.3015 59.0508 25.1478C60.7462 24.1801 62.727 23.719 64.676 23.8396C62.8807 24.5517 61.411 26.0558 60.7345 27.8654C61.7988 27.7065 62.8891 27.5955 63.9567 27.7246C65.0249 27.8537 66.0879 28.2441 66.8695 28.9835C66.0983 29.0108 65.3271 29.0802 64.5702 29.2287C63.7478 29.3895 62.8638 29.6756 62.4234 30.3884C62.1328 30.8586 62.0823 31.4507 61.7709 31.908C63.6791 32.3536 65.333 33.7098 66.2079 35.4629C65.0307 34.9207 63.552 35.1503 62.5719 35.998C63.9119 37.2627 64.7622 38.8492 65.0709 40.6659C59.9945 40.8124 48.0793 40.217 43.0508 39.5081C43.0508 39.5081 48.1299 31.059 48.7739 28.499Z" fill="#F02B4B"/>
<path d="M115.303 79.6741C113.88 78.4852 112.079 77.6888 110.517 76.6887C108.751 75.5575 107.071 74.2921 105.406 73.017C102.416 70.7236 99.3811 67.8737 95.9242 66.3054C95.6005 66.1589 95.2211 66.583 95.5311 66.8366C97.067 68.0903 98.7676 69.1657 100.349 70.3656C101.935 71.5687 103.484 72.8198 105.054 74.0444C106.538 75.2021 108.048 76.3261 109.605 77.3833C111.222 78.48 113.081 79.796 115.036 80.1541C115.295 80.2014 115.537 79.87 115.303 79.6741Z" fill="#7F0333"/>
<path d="M148.722 101.18C148.679 101.143 148.634 101.112 148.589 101.089C147.679 100.613 146.267 100.534 145.22 100.269C145.234 100.259 145.247 100.249 145.26 100.239C145.664 100.163 145.829 99.4921 145.726 98.8539C145.69 98.4654 145.492 98.0724 145.197 97.7922C144.955 97.5632 144.628 97.3745 144.285 97.2785C144.359 97.2344 144.43 97.1819 144.494 97.1157C145.103 96.4944 145.391 95.8763 144.439 95.3354C144.405 95.1875 144.307 95.0454 144.124 94.9404C141.874 93.6406 139.176 92.8824 136.731 92.0308C134.121 91.1202 131.512 90.2057 128.929 89.2237C126.256 88.208 123.611 87.1106 121.011 85.9205C120.676 85.7687 120.339 85.604 120 85.4386C119.884 85.4301 119.765 85.4165 119.647 85.3984C119.213 85.1091 118.747 84.8406 118.269 84.6149C118.606 84.537 118.923 84.3924 119.213 84.1628C119.236 84.1531 119.258 84.1459 119.28 84.1356C119.78 83.9118 120.034 83.4357 120.001 82.9655C120.022 82.8721 120.033 82.7794 120.039 82.686C120.186 82.7061 120.337 82.7171 120.487 82.719C121.646 82.734 122.884 82.6445 123.151 81.237C123.136 81.3298 124.365 81.2896 124.488 81.2578C125.164 81.0794 126.126 80.2058 125.928 79.4164C125.775 78.8042 124.914 78.6531 124.409 78.4883C122.872 77.985 121.458 77.1646 120.02 76.4329C118.756 75.7896 117.503 75.2447 116.265 74.5242C114.967 73.7692 113.669 73.0104 112.376 72.247C109.897 70.7818 107.449 69.268 105.017 67.7302C100.144 64.6475 95.3527 61.437 90.5772 58.2057C86.0624 55.1528 81.5547 52.1025 76.9698 49.1547C74.4527 47.5365 71.9705 45.8651 69.5662 44.0834C67.5932 42.6221 64.8393 40.9922 63.7127 38.7254C61.8111 34.9014 52.105 28.8643 49.4432 31.5261C46.3423 34.7353 42.6447 38.7189 41.5823 43.1948C40.4946 43.4601 41.0388 55.0257 41.6984 55.2903C41.7659 55.3545 41.8333 55.42 41.8995 55.4849C41.9261 55.5361 41.9546 55.5835 41.9877 55.6243C41.9896 55.6652 41.9909 55.7048 41.9955 55.7366C42.0454 56.2671 42.1213 56.7963 42.2108 57.3236C42.2633 57.4871 42.2958 57.67 42.3074 57.8678C42.3204 57.9372 42.3347 58.0066 42.3477 58.0747C42.2367 58.1324 42.1453 58.2297 42.1077 58.3744C41.8106 59.558 41.8158 60.8682 41.9507 62.1835C41.8651 63.373 42.1401 64.63 42.3327 65.7806C42.6499 67.6764 43.0773 69.519 43.7116 71.3344C44.3057 73.0376 45.025 74.6941 45.7709 76.3357C45.9324 76.6898 46.0842 77.0459 46.2398 77.4026C46.2463 77.4149 46.2534 77.4259 46.2593 77.4376C46.304 77.5375 46.3514 77.6348 46.3981 77.7314C46.5914 78.0453 46.771 78.3651 46.9624 78.6939C47.4053 79.421 47.8963 80.1571 48.2991 80.9147C49.9595 83.0038 52.0888 85.0306 54.1429 86.6021C56.1807 88.1626 58.4054 89.4909 60.7292 90.5767C62.0582 91.1967 63.4163 91.7506 64.8004 92.2357C70.0501 94.0738 75.2822 94.9553 80.8315 94.9371C83.1898 94.93 85.6414 94.808 87.9783 94.2451C90.476 93.6438 92.8706 92.6171 95.2133 91.5794C98.2999 90.2122 101.636 88.8929 104.62 87.1242C104.751 87.1975 104.884 87.2682 105.015 87.3415C109.415 89.812 113.759 92.4122 118.378 94.463C127.837 98.6639 138.238 101.743 148.61 102.334C149.48 102.383 149.138 101.525 148.722 101.18Z" fill="#F02B4B"/>
<path d="M41.5823 43.1945C42.6447 38.7186 46.3423 34.735 49.4432 31.5258C50.6502 30.276 51.8955 29.0612 53.1447 27.8516C50.1988 30.9343 46.9358 34.6682 45.948 38.8282C44.8603 39.0935 45.4044 50.6591 46.0641 50.9237C46.1315 50.9879 46.199 51.0534 46.2651 51.1183C46.2917 51.1695 46.3203 51.2175 46.3533 51.2577C46.3553 51.2986 46.3566 51.3382 46.3611 51.37C46.4111 51.9005 46.4869 52.4297 46.5764 52.9571C46.629 53.1205 46.6614 53.3034 46.6731 53.5012C46.6861 53.5706 46.7003 53.64 46.7133 53.7081C46.6024 53.7658 46.5109 53.8631 46.4733 54.0078C46.1763 55.1914 46.1815 56.5016 46.3164 57.8169C46.2307 59.0064 46.5057 60.2634 46.6984 61.414C47.0162 63.3098 47.443 65.1524 48.0773 66.9678C48.6714 68.671 49.3907 70.3275 50.1365 71.9691C50.298 72.3238 50.4498 72.6793 50.6055 73.036C50.6119 73.0483 50.6184 73.0593 50.6249 73.071C50.6697 73.1709 50.717 73.2682 50.7637 73.3648C50.957 73.6781 51.1367 73.9985 51.3215 74.3163C51.3241 74.3195 51.326 74.3234 51.3286 74.3267C51.7716 75.0537 52.2626 75.7899 52.6654 76.5468C54.3258 78.6359 56.4551 80.6627 58.5091 82.2342C60.547 83.7941 62.7716 85.123 65.0955 86.2088C66.4245 86.8288 67.7826 87.3827 69.1667 87.8679C74.4164 89.7059 79.6485 90.5874 85.1978 90.5692C87.5561 90.5621 90.0077 90.4402 92.3446 89.8772C94.8423 89.2759 102.277 88.1604 104.62 87.1226C101.637 88.8907 98.3006 90.2105 95.2133 91.5778C92.8712 92.6155 90.476 93.6422 87.9783 94.2435C85.6414 94.8064 83.1898 94.9284 80.8315 94.9355C75.2822 94.953 70.0501 94.0722 64.8004 92.2341C63.4163 91.7496 62.0582 91.1958 60.7292 90.5751C58.4054 89.4893 56.1801 88.161 54.1429 86.6005C52.0888 85.029 49.9588 83.0022 48.2991 80.9131C47.8963 80.1562 47.4053 79.42 46.9624 78.693C46.9598 78.6891 46.9578 78.6858 46.9552 78.6826C46.7704 78.3648 46.5907 78.0444 46.3974 77.7311C46.3507 77.6345 46.3027 77.5365 46.2586 77.4373C46.2528 77.4256 46.2457 77.4146 46.2392 77.4023C46.0835 77.0455 45.9317 76.6901 45.7702 76.3353C45.0244 74.6938 44.3051 73.0379 43.711 71.3341C43.0767 69.5187 42.6499 67.6761 42.3321 65.7803C42.1395 64.6297 41.8645 63.3727 41.9501 62.1832C41.8152 60.8679 41.81 59.5577 42.107 58.374C42.1447 58.2294 42.2361 58.1328 42.347 58.0744C42.334 58.0056 42.3198 57.9369 42.3074 57.8675C42.2958 57.6697 42.2633 57.4868 42.2108 57.3233C42.1213 56.796 42.0454 56.2668 41.9955 55.7362C41.9909 55.7045 41.9896 55.6649 41.9877 55.624C41.9546 55.5832 41.9261 55.5358 41.8995 55.4846C41.8327 55.4197 41.7659 55.3542 41.6984 55.29C41.0388 55.0254 40.4946 43.4598 41.5823 43.1945Z" fill="#C62344"/>
<path d="M40.6293 43.6941C40.8168 43.5612 41.0094 43.4295 41.1605 43.2564C41.7313 42.6052 41.5964 41.5467 42.1554 40.8858C42.5978 40.363 43.3644 40.2359 44.0422 40.3325C44.72 40.4292 45.3575 40.7081 46.0243 40.8611C47.0678 41.1011 48.1821 41.0233 49.1829 40.6413C50.4236 40.1665 51.4886 39.2397 52.7923 38.9828C53.9214 38.7604 55.1298 39.0905 56.0443 39.789C57.4978 40.8994 58.1593 42.9457 57.6294 44.6962C57.1002 46.4467 55.4158 47.7848 53.5907 47.9035C53.3851 47.9171 53.1639 47.921 52.9998 48.0455C52.8604 48.1512 52.7903 48.3225 52.7274 48.4859C51.9264 50.5646 51.2078 52.6745 50.5734 54.8103C49.6972 57.7626 48.9812 60.9128 49.7497 63.8944C50.0364 65.006 50.5293 66.1164 50.373 67.2534C47.8688 66.4018 45.0916 66.3759 42.5712 67.1795C41.8538 63.3262 41.6074 59.3854 41.8389 55.4725C40.1792 54.2564 39.039 44.8207 40.6293 43.6941Z" fill="#312E2F"/>
<path d="M55.5131 43.0642C55.5364 44.2342 54.6096 45.2026 53.4396 45.2266C52.2695 45.2506 51.3018 44.3225 51.2778 43.1524C51.2532 41.983 52.1813 41.0153 53.3507 40.9907C54.5214 40.9673 55.4884 41.8948 55.5131 43.0642Z" fill="#312E2F"/>
<path d="M51.0572 43.158C51.0436 42.5341 51.2745 41.9419 51.7071 41.4911C52.1397 41.0404 52.7215 40.7848 53.3454 40.7719C54.6381 40.7492 55.705 41.772 55.7316 43.0594C55.7575 44.3488 54.7315 45.419 53.4434 45.4462C53.4265 45.4462 53.4103 45.4469 53.3941 45.4469C52.1274 45.4475 51.0838 44.4305 51.0572 43.158ZM55.2925 43.0691C55.2704 42.0366 54.4227 41.2109 53.3941 41.2109C53.3805 41.2109 53.3675 41.2109 53.3545 41.2116C52.8473 41.222 52.3745 41.4295 52.0236 41.7953C51.6727 42.1618 51.4853 42.6424 51.4963 43.1489C51.5184 44.1957 52.3888 45.0272 53.4343 45.0078C54.4805 44.9857 55.3139 44.116 55.2925 43.0691Z" fill="white"/>
<path d="M53.2261 42.2661C53.2319 42.5956 52.9718 42.8667 52.643 42.8739C52.3142 42.881 52.0424 42.6203 52.0353 42.2914C52.0288 41.9633 52.2895 41.6908 52.6184 41.6837C52.9472 41.6772 53.2189 41.938 53.2261 42.2661Z" fill="white"/>
<path d="M66.5428 41.875C67.5591 42.6779 68.6474 43.4005 69.5678 44.0821C71.9721 45.8638 74.4549 47.5352 76.9714 49.1534C81.5563 52.1013 86.0646 55.1516 90.5794 58.2045C95.3549 61.4357 100.146 64.6462 105.019 67.7289C107.451 69.2667 109.899 70.7805 112.378 72.2457C113.671 73.0091 114.968 73.7679 116.267 74.5229C117.504 75.2428 118.758 75.7883 120.022 76.431C121.459 77.1626 122.874 77.9831 124.41 78.4864C124.915 78.6518 125.777 78.8029 125.929 79.4145C126.126 80.2039 125.165 81.0775 124.489 81.2559C124.366 81.2876 123.136 81.3272 123.151 81.2351C122.885 82.6425 121.647 82.7321 120.488 82.7171C120.338 82.7145 120.187 82.7035 120.039 82.6834C120.034 82.7768 120.023 82.8702 120.001 82.9629C120.034 83.4332 119.78 83.9086 119.279 84.133C119.257 84.1427 119.236 84.1505 119.213 84.1602C118.923 84.3898 118.607 84.5345 118.269 84.6123C118.269 84.6123 108.29 84.1758 101.74 83.2127C95.2583 82.2605 47.8324 76.4693 66.5428 41.875Z" fill="#F02B4B"/>
<path d="M66.5428 41.875C66.6667 41.9729 66.7938 42.0663 66.919 42.1617C50.1926 75.5327 96.4342 81.1852 102.829 82.1256C109.379 83.0888 119.358 83.5253 119.358 83.5253C119.574 83.4753 119.779 83.3858 119.977 83.2762C119.905 83.6336 119.67 83.9605 119.281 84.1343C119.259 84.144 119.237 84.1518 119.214 84.1615C118.925 84.3911 118.608 84.5358 118.271 84.6136C118.271 84.6136 108.291 84.1771 101.741 83.2139C95.2583 82.2605 47.8324 76.4693 66.5428 41.875Z" fill="#C62344"/>
<path d="M79.0762 77.3472C84.1773 78.6456 89.4146 79.4077 94.676 79.5634C95.2928 79.5815 96.1671 79.2786 95.9796 78.691C95.9122 78.4796 95.7137 78.3414 95.5282 78.2201C94.9776 77.8595 94.4269 77.4989 93.8763 77.1383C98.0447 78.2396 102.375 78.7254 106.683 78.5749C106.921 78.5665 107.173 78.5516 107.369 78.4167C107.744 78.1579 107.726 77.5592 107.451 77.1947C107.177 76.8302 106.733 76.6421 106.311 76.4696C108.165 77.0702 110.084 77.4749 112.024 77.674C112.399 77.7123 112.826 77.7266 113.098 77.4652C113.525 77.0546 113.227 76.3023 112.762 75.9345C112.297 75.5661 111.693 75.3696 111.315 74.9124C112.351 75.3819 113.466 75.677 114.598 75.7808C114.852 75.8042 115.127 75.8126 115.34 75.6725C115.868 75.3236 115.554 74.4927 115.134 74.0193C114.999 73.8655 114.836 73.743 114.69 73.6016C115.215 73.909 115.74 74.2184 116.265 74.5245C117.503 75.2444 118.757 75.7899 120.021 76.4326C121.458 77.1643 122.873 77.9847 124.409 78.488C124.914 78.6534 125.776 78.8045 125.928 79.4161C126.125 80.2055 125.164 81.0791 124.488 81.2575C124.365 81.2893 123.135 81.3288 123.15 81.2367C122.884 82.6442 121.645 82.7337 120.487 82.7187C120.337 82.7162 120.186 82.7051 120.038 82.685C120.032 82.7784 120.021 82.8718 120 82.9646C120.032 83.4348 119.779 83.9102 119.278 84.1346C119.256 84.1443 119.235 84.1521 119.212 84.1619C118.922 84.3915 118.606 84.5361 118.268 84.6139C118.268 84.6139 108.288 84.1774 101.738 83.2143C98.9417 82.8031 88.5189 81.4877 79.0762 77.3472Z" fill="#C62344"/>
<path d="M123.222 96.3362C125.345 96.7993 127.469 97.2624 129.562 97.8461C132.468 98.6569 135.449 99.7102 138.427 99.2237C138.84 99.1563 139.336 98.9669 139.378 98.5492C139.434 97.9856 138.661 97.7774 138.094 97.7787C138.43 97.6172 138.825 97.6684 139.191 97.5984C139.557 97.5283 139.948 97.2241 139.864 96.8616C139.818 96.6644 139.646 96.5256 139.481 96.4082C138.888 95.9854 138.239 95.6481 137.566 95.3679C137.856 95.4295 138.172 95.3757 138.398 95.1824C138.737 94.8931 138.827 94.3516 138.599 93.9682C138.421 93.6686 138.098 93.4915 137.791 93.3281C136.057 92.4084 134.324 91.4881 132.591 90.5684C133.967 91.0619 135.348 91.5471 136.73 92.029C139.174 92.8812 141.873 93.6388 144.123 94.9385C144.305 95.0442 144.404 95.1863 144.438 95.3335C145.389 95.8744 145.102 96.4925 144.492 97.1145C144.428 97.1807 144.357 97.2332 144.283 97.2773C144.627 97.374 144.953 97.5627 145.195 97.791C145.491 98.0712 145.687 98.4642 145.725 98.8527C145.828 99.4916 145.662 100.162 145.259 100.238C145.245 100.248 145.233 100.258 145.219 100.268C146.265 100.533 147.677 100.612 148.587 101.088C148.632 101.11 148.677 101.142 148.721 101.179C149.137 101.524 149.478 102.382 148.609 102.332C139.706 101.825 130.785 99.4773 122.453 96.1669C122.71 96.2247 122.966 96.2805 123.222 96.3362Z" fill="#C62344"/>
<path d="M30.1836 48.2191C30.1836 48.2191 33.7184 51.6423 40.5448 52.599C40.5448 52.599 45.0317 49.2393 43.9239 45.4756L30.1836 48.2191Z" fill="#DB9C1F"/>
<path d="M41.731 41.9033C41.731 41.9033 33.6289 42.2224 30.1836 48.2193C30.1836 48.2193 40.1997 48.1557 42.3692 47.581C44.5381 47.007 44.5381 42.8606 41.731 41.9033Z" fill="#FDCD06"/>
<path d="M42.1129 42.8339C42.0189 42.6802 41.8347 42.5868 41.655 42.601C41.249 42.6335 41.0538 43.1128 40.7185 43.3437C40.4467 43.5311 40.0621 43.5383 39.7832 43.3618L39.8915 43.7348C40.0355 43.9002 40.2658 43.9689 40.485 43.9657C40.7042 43.9624 40.9169 43.8956 41.1258 43.8295C41.2594 43.7873 41.3923 43.7452 41.526 43.703C41.7491 43.6323 41.991 43.5473 42.1136 43.3482C42.2076 43.1938 42.2076 42.9876 42.1129 42.8339Z" fill="#312E2F"/>
<path opacity="0.3" d="M37.295 44.443C37.5512 44.9535 36.8384 45.8297 35.7021 46.4005C34.5658 46.9706 33.4372 47.0192 33.181 46.5088C32.9249 45.9983 33.6376 45.1221 34.774 44.5513C35.9096 43.9812 37.0388 43.9326 37.295 44.443Z" fill="white"/>
<path d="M79.8715 52.6191C81.9729 54.347 84.1288 55.9989 86.2613 57.6839C88.3991 59.3618 90.5628 61.0021 92.7277 62.6411C94.8999 64.2703 97.0648 65.9087 99.2571 67.51L99.6391 67.7987C99.7085 67.8577 99.8149 67.9614 99.892 68.0503C100.053 68.2287 100.172 68.4544 100.171 68.5225C100.174 68.5582 100.162 68.5134 100.184 68.4667C100.207 68.4349 100.177 68.4524 100.227 68.4103C100.217 68.4181 100.181 68.4524 100.194 68.4388L100.225 68.4116C100.229 68.407 100.232 68.4051 100.232 68.4051C100.22 68.4174 99.9893 68.4453 99.6255 68.4265C99.0521 68.4012 98.4327 68.3084 97.8594 68.1405C97.2802 67.9731 96.7224 67.7338 96.2042 67.4303L90.8507 64.293L95.073 68.8656C95.2533 69.0608 95.3377 69.3676 95.2598 69.653C95.2248 69.7924 95.1593 69.9189 95.0691 70.0071C94.9984 70.0856 94.8188 70.2017 94.6664 70.2594C94.3194 70.3975 93.8524 70.4339 93.3368 70.3982C92.8367 70.3684 92.2251 70.273 91.6835 70.1855C89.4401 69.806 87.2524 69.103 85.1912 68.1314L81.7537 66.5106L84.0782 69.4785C84.5575 70.0901 85.0634 70.5039 85.4428 70.9197C85.8313 71.2835 86.0622 71.8614 86.035 71.7687C86.0758 71.7025 86.0129 71.8257 85.8132 71.9178C85.6212 72.0132 85.3695 72.0968 85.1023 72.1559L84.8987 72.198C84.8766 72.2026 84.8027 72.2162 84.8228 72.2123L84.7047 72.2285L84.2332 72.2927C83.9362 72.3122 83.6858 72.3414 83.3868 72.3401C81.0363 72.3874 78.6865 71.4722 76.5578 70.251C74.4149 69.0161 72.4601 67.4186 70.6187 65.7037C68.7845 63.9739 67.1086 62.069 65.5234 60.0818C66.853 62.2519 68.4038 64.2885 70.1115 66.1986C71.8173 68.11 73.7319 69.8625 75.9118 71.2997C77.0034 72.0145 78.1683 72.6417 79.4194 73.1041C80.6647 73.5737 81.9988 73.8817 83.3738 73.9181C83.7092 73.9369 84.0938 73.9109 84.4291 73.8915L84.9025 73.8396L85.0206 73.8266L85.1795 73.8026L85.4435 73.7546C85.7963 73.6833 86.1576 73.5847 86.5396 73.4076C86.8989 73.2254 87.4009 72.9471 87.6409 72.2622C87.685 72.0929 87.722 71.9438 87.709 71.7323C87.6954 71.4833 87.6714 71.4431 87.6577 71.3646C87.5656 71.0299 87.5047 70.9158 87.4009 70.7043C87.2063 70.3346 86.9696 70.0298 86.7381 69.7613C86.2724 69.2307 85.8093 68.8092 85.5219 68.4044L84.4083 69.7509C86.6018 70.8321 88.9497 71.5974 91.3599 72.0333C91.9825 72.139 92.5384 72.2356 93.2168 72.2875C93.8738 72.329 94.6184 72.3031 95.374 72.0008C95.7651 71.8322 96.1023 71.6357 96.4377 71.2835C96.7568 70.9449 96.9663 70.526 97.07 70.0927C97.288 69.232 97.0454 68.254 96.4085 67.5911L95.2773 69.0264C95.9337 69.4026 96.6355 69.6958 97.3619 69.8981C98.0948 70.0992 98.8271 70.2179 99.6105 70.2224C99.918 70.2056 100.394 70.275 101.006 69.9941C101.082 69.9572 101.158 69.9117 101.233 69.8592C101.266 69.8365 101.323 69.7911 101.365 69.7548L101.426 69.6984C101.587 69.5284 101.67 69.4169 101.762 69.2288C101.934 68.876 101.942 68.4758 101.875 68.1807C101.733 67.5794 101.443 67.2298 101.159 66.9036C101.006 66.7428 100.868 66.6098 100.673 66.4567L100.234 66.1441C98.0098 64.5882 95.7586 63.0692 93.5138 61.5417C91.2626 60.0234 89.0094 58.507 86.7309 57.0276C84.4466 55.5533 82.1863 54.0486 79.8715 52.6191Z" fill="#C62344"/>
<path d="M55.6367 22.5594C54.9071 23.1503 54.0937 23.7288 53.7441 24.5999C54.6924 22.3461 55.8631 20.1908 57.1953 18.1406C56.9598 18.9241 56.799 19.7368 56.6985 20.5689C57.3516 20.2576 58.0203 20.004 58.698 19.7803C57.6772 20.7071 56.7075 21.6923 55.6367 22.5594Z" fill="#C62344"/>
<path d="M56.5125 28.4946C55.5467 29.1723 54.3669 29.6633 53.7832 30.6881C54.2645 29.5602 54.747 28.4278 55.3703 27.3719C56.2271 25.9197 57.3277 24.6549 58.503 23.4453C58.0645 24.5349 57.7389 25.6713 57.4386 26.8082C57.8232 26.5105 57.9731 26.05 58.3058 25.6959C58.5179 25.4702 58.7825 25.3022 59.0517 25.1485C59.7016 24.7775 60.3936 24.4831 61.109 24.2651C60.5998 24.6452 60.1069 25.0473 59.6503 25.489C58.6074 26.4969 57.7 27.6618 56.5125 28.4946Z" fill="#C62344"/>
<path d="M58.5625 29.7645C59.3674 28.6289 60.2294 27.5321 61.3112 26.6649C61.3216 26.6565 61.3333 26.65 61.3443 26.6416C61.1017 27.0288 60.8948 27.4381 60.7346 27.8655C61.6225 27.7332 62.5286 27.6424 63.425 27.6884C61.7373 28.1742 60.1074 28.8604 58.591 29.7457C58.5813 29.7509 58.5716 29.7587 58.5625 29.7645Z" fill="#C62344"/>
<path d="M63.5025 32.6062C61.9323 32.5232 60.3478 32.7067 58.8457 33.1705C59.8536 32.5251 60.9134 31.9369 62.0056 31.4277C61.9427 31.5951 61.872 31.7592 61.7715 31.9077C62.3818 32.0497 62.9616 32.2942 63.5025 32.6062Z" fill="#C62344"/>
</svg>
