<svg width="179" height="120" viewBox="0 0 179 120" fill="none" xmlns="http://www.w3.org/2000/svg">
<path d="M81.6695 119.547C66.3235 117.494 52.2941 108.999 43.1754 96.2422C34.1283 83.8034 30.2958 68.2032 32.4166 52.3608C34.5135 36.6912 42.2997 22.6597 54.3394 12.852C66.3096 2.93711 82.0984 -1.58049 97.6032 0.494636C112.677 2.51217 126.784 11.2376 135.341 23.8353C144.428 36.5323 148.349 52.1304 146.278 67.6015C144.183 83.2474 136.282 97.2768 124.026 107.108C112.477 116.85 96.5905 121.545 81.6695 119.547ZM93.3657 32.1676C86.5009 31.2482 79.9875 33.1287 74.5287 37.6046C68.8831 42.1302 65.1023 49.0347 64.0895 56.6024C63.0728 64.196 64.8938 71.7736 69.0818 77.3933C73.3472 83.3923 79.1297 86.9707 85.9071 87.8762C92.2139 88.7201 98.7074 86.7106 104.188 82.2188C109.75 77.7567 113.62 70.7252 114.605 63.3639C115.602 55.9213 113.75 48.2384 109.528 42.285C105.503 36.6197 99.7598 33.0234 93.3657 32.1676Z" fill="url(#paint0_linear_317_10550)"/>
<path opacity="0.39" d="M41.0407 50.8697C40.0955 61.6206 42.3414 72.5324 46.7101 82.4016C48.0703 85.4736 49.6391 88.4642 51.603 91.1907C57.4769 99.3482 66.9371 104.821 76.9374 105.85C78.7782 106.038 80.7997 106.034 82.2692 104.912C84.5548 103.169 84.3502 99.4991 82.7636 97.1003C81.179 94.7035 78.6253 93.1605 76.3973 91.3436C70.8887 86.8518 67.221 80.4933 64.3695 73.982C61.9449 68.4437 59.9968 62.5202 60.2709 56.4815C60.674 47.6329 65.9899 39.4337 73.2379 34.3442C80.4859 29.2527 89.4596 27.0306 98.3141 26.7665C103.511 26.6116 108.992 27.0346 113.618 24.6616C116.12 23.3788 118.366 20.9006 118.074 18.1046C117.802 15.5072 115.519 13.6505 113.406 12.1136C109.548 9.30568 105.612 6.51966 101.188 4.73248C92.6091 1.2693 82.708 1.89877 74.1057 5.30237C55.7453 12.5683 42.7584 31.3258 41.0407 50.8697Z" fill="#4C9F48"/>
<path opacity="0.39" d="M140.102 52.4061C139.524 48.9966 138.514 45.4977 136.137 42.9837C133.76 40.4697 129.699 39.2762 126.734 41.0595C124.296 42.5249 123.231 45.4817 122.608 48.2578C121.172 54.66 121.14 61.3023 119.895 67.7442C118.652 74.186 115.91 80.7549 110.5 84.4683C105.413 87.9612 98.0556 89.0017 95.4066 94.5758C93.6909 98.1879 94.8526 102.829 97.8233 105.505C100.794 108.182 105.262 108.909 109.075 107.704C112.939 106.48 115.993 103.561 118.898 100.734C121.363 98.3349 123.825 95.936 126.289 93.5372C137.707 82.4229 142.765 68.1334 140.102 52.4061Z" fill="#4C9F48"/>
<path opacity="0.09" d="M112.691 12.3951C105.9 9.79379 98.445 9.47806 91.183 9.87124C88.8756 9.99634 86.2504 10.3677 84.9636 12.2879C83.7503 14.0969 84.3083 16.6645 85.7103 18.3326C87.1122 20.0006 89.1674 20.9578 91.185 21.7759C97.9346 24.5123 105.328 26.4345 110.586 31.4724C114.613 35.3307 116.924 40.6089 118.92 45.8156C119.633 47.6782 120.344 49.5925 121.631 51.1156C122.917 52.6386 124.929 53.7189 126.887 53.3317C130.509 52.6168 131.498 47.8966 131.204 44.217C130.13 30.7674 126.325 17.6157 112.691 12.3951Z" fill="white"/>
<path opacity="0.09" d="M86.5243 113.665C89.7988 113.85 93.2182 113.554 96.0718 111.935C98.9233 110.317 101.064 107.128 100.663 103.873C100.224 100.303 96.9475 97.6675 93.5201 96.5734C90.0926 95.4792 86.419 95.5388 82.8546 95.0503C77.0144 94.252 71.2676 91.8532 67.167 87.6196C61.2991 81.557 60.4968 72.3173 54.9804 66.2627C51.3266 62.2514 48.7252 65.6292 47.4841 69.7517C43.3617 83.4654 53.3203 96.49 63.5807 104.52C70.1655 109.669 78.1106 113.19 86.5243 113.665Z" fill="white"/>
<path opacity="0.09" d="M44.4757 35.9603C44.1838 37.8885 44.166 39.9875 45.2105 41.6356C46.9143 44.3224 50.9076 44.7155 53.7572 43.2977C56.6048 41.8799 58.5409 39.1514 60.2447 36.4627C61.7141 34.1433 63.1102 31.7505 64.0137 29.1571C66.0948 23.1859 63.1399 15.5129 55.9971 18.992C49.8273 21.9984 45.4706 29.3795 44.4757 35.9603Z" fill="white"/>
<path d="M105.058 31.8516C105.058 31.8516 105.298 31.9211 105.755 32.0521C106.212 32.1891 106.879 32.4234 107.701 32.8166C109.341 33.595 111.609 35.1062 113.724 37.65C115.865 40.164 117.813 43.649 119.169 47.7992C120.521 51.9475 121.187 56.8126 120.718 61.8545C120.267 66.8983 118.686 71.5668 116.552 75.3676C114.439 79.1962 111.81 82.1649 109.395 84.3611C106.955 86.5435 104.717 87.9613 103.134 88.839C102.346 89.2878 101.712 89.5896 101.281 89.7942C100.854 90.0007 100.63 90.1099 100.63 90.1099C100.63 90.1099 100.842 89.9789 101.245 89.7267C101.653 89.4824 102.244 89.1071 102.975 88.5848C104.441 87.5502 106.502 85.9537 108.696 83.6443C110.866 81.3249 113.196 78.3065 115.043 74.5693C116.909 70.852 118.267 66.4356 118.69 61.6678C119.574 52.0984 116.55 43.3869 112.896 38.2914C111.075 35.7039 109.055 34.0399 107.542 33.1026C106.784 32.6319 106.154 32.3242 105.721 32.1335C105.286 31.9489 105.058 31.8516 105.058 31.8516Z" fill="white"/>
<path d="M59.9288 64.8724C59.9288 64.8724 59.8057 64.4197 59.5814 63.6015C59.4642 63.1905 59.3371 62.6841 59.2457 62.0824C59.1484 61.4847 58.9975 60.7996 58.9558 60.0331C58.789 58.5021 58.7989 56.6553 59.0273 54.616C59.1861 53.6072 59.3232 52.5289 59.6349 51.4566C59.8891 50.3664 60.2883 49.2762 60.6993 48.1622C61.1779 47.076 61.6525 46.0196 62.2303 45.0585C62.7546 44.0715 63.4079 43.2037 63.9937 42.3677C65.2467 40.7434 66.5295 39.4149 67.7131 38.432C68.8866 37.4411 69.8994 36.7262 70.6381 36.2992C71.3649 35.8624 71.768 35.6201 71.768 35.6201C71.768 35.6201 71.4264 35.9398 70.8088 36.5177C70.4951 36.7977 70.1237 37.1511 69.7266 37.5979C69.3274 38.0408 68.839 38.5035 68.3842 39.0972C67.4112 40.2192 66.3845 41.6549 65.3539 43.2951C64.8754 44.1391 64.3253 44.9929 63.8845 45.9501C63.39 46.8774 62.9809 47.8862 62.5282 48.9009C62.1449 49.9454 61.7419 50.9542 61.4539 51.9649C61.1084 52.9598 60.9118 53.9567 60.6676 54.894C60.2684 56.7884 60.0103 58.5339 59.9288 60.0152C59.8296 61.4946 59.8097 62.7179 59.8693 63.5539C59.909 64.4038 59.9288 64.8724 59.9288 64.8724Z" fill="white"/>
<path d="M51.1746 98.8536C51.1746 98.8536 50.5967 98.4068 49.592 97.541C48.5872 96.6752 47.1951 95.3388 45.6482 93.5198C42.5405 89.9157 38.9939 84.1331 37.0002 77.0598C35.0025 69.9905 34.8457 63.2965 35.1515 58.5744C35.4593 53.8304 36.049 50.9609 36.049 50.9609C36.049 50.9609 36.0312 51.6917 35.9994 53.0122C35.9696 54.3308 35.9676 56.2391 36.0649 58.5843C36.2555 63.2687 36.9009 69.7284 38.8569 76.5296C40.8029 83.3309 43.7796 89.0836 46.4385 92.9181C47.7571 94.8443 48.9466 96.3317 49.8124 97.3226C50.6722 98.3194 51.1746 98.8536 51.1746 98.8536Z" fill="white"/>
<path d="M139.668 51.0975C139.668 51.0975 139.082 48.9688 138.135 45.5334C137.188 42.108 135.959 37.3739 133.971 32.4393C131.991 27.5066 129.406 23.408 127.104 20.757C125.955 19.4325 124.91 18.4476 124.153 17.8062C123.399 17.1628 122.958 16.8232 122.958 16.8232C122.958 16.8232 123.452 17.0675 124.314 17.5838C125.178 18.0942 126.379 18.9282 127.742 20.1236C130.504 22.4648 133.653 26.5694 135.73 31.7224C137.804 36.8735 138.61 41.8141 139.076 45.3448C139.515 48.8933 139.668 51.0975 139.668 51.0975Z" fill="white"/>
<path d="M133.911 89.1631C133.911 89.1631 133.385 90.4042 132.281 92.2788C131.181 94.1513 129.457 96.6415 127.136 99.0224C124.81 101.401 122.366 103.189 120.521 104.334C118.674 105.484 117.455 106.052 117.455 106.052C117.455 106.052 121.349 102.366 125.817 97.7376C130.319 93.1446 133.911 89.1631 133.911 89.1631Z" fill="white"/>
<defs>
<linearGradient id="paint0_linear_317_10550" x1="89.3332" y1="120.001" x2="89.3332" y2="0.000972745" gradientUnits="userSpaceOnUse">
<stop stop-color="#55992E"/>
<stop offset="0.9757" stop-color="#4C9F48"/>
</linearGradient>
</defs>
</svg>
